<?xml version="1.0" encoding="utf-8"?>
<!-- Generator: Adobe Illustrator 25.0.0, SVG Export Plug-In . SVG Version: 6.00 Build 0)  -->
<svg version="1.1" id="图层_1" xmlns="http://www.w3.org/2000/svg" xmlns:xlink="http://www.w3.org/1999/xlink" x="0px" y="0px"
	 viewBox="0 0 1200 1600" style="enable-background:new 0 0 1200 1600;" xml:space="preserve">
<style type="text/css">
	.st0{fill:#060604;}
	.st1{fill:#EDCF5D;}
	.st2{fill:#FBF1EE;}
	.st3{fill:#ECCF5D;}
	.st4{fill:#F4FB95;}
	.st5{fill:#A0918B;}
	.st6{fill:#FBFBFB;}
	.st7{fill:#927233;}
	.st8{fill:#935A40;}
	.st9{fill:#623C2A;}
	.st10{fill:#FEFEFE;}
	.st11{fill:#040302;}
	.st12{fill:#090805;}
	.st13{fill:#9C5B46;}
	.st14{fill:#070705;}
	.st15{fill:#ECCE5D;}
	.st16{fill:#F2F2F2;}
	.st17{fill:#93583F;}
	.st18{fill:#A1918B;}
	.st19{fill:#513123;}
	.st20{fill:#FAFAFA;}
	.st21{fill:#030202;}
	.st22{fill:#060605;}
	.st23{fill:#A0908A;}
	.st24{fill:#937234;}
	.st25{fill:#E6C95B;}
	.st26{fill:#864E37;}
	.st27{fill:#513124;}
	.st28{fill:#B0603E;}
	.st29{fill:#FAF0ED;}
	.st30{fill:#F9F9F9;}
	.st31{fill:#917133;}
	.st32{fill:#9E8F89;}
	.st33{fill:#E7CA5B;}
	.st34{fill:#92583F;}
	.st35{fill:#050503;}
	.st36{fill:#FCFBFB;}
	.st37{fill:#080704;}
	.st38{fill:#070605;}
	.st39{fill:#FAF1ED;}
	.st40{fill:#F4FA95;}
	.st41{fill:#F8F8F7;}
	.st42{fill:#90573E;}
	.st43{fill:#030302;}
	.st44{fill:#080805;}
	.st45{fill:#FBF1ED;}
	.st46{fill:#FBFBFA;}
	.st47{fill:#927234;}
	.st48{fill:#F69376;}
	.st49{fill:#7B2D2D;}
	.st50{fill:#FCFCFC;}
	.st51{fill:#EF5A2D;}
	.st52{fill:#F0CC2D;}
	.st53{fill:#9F8F8A;}
	.st54{fill:#FAFAF9;}
	.st55{fill:#F2A78E;}
	.st56{fill:#040403;}
	.st57{fill:#070604;}
	.st58{fill:#A0908B;}
	.st59{fill:#F7F7F7;}
	.st60{fill:#E8CB5B;}
	.st61{fill:#8F563E;}
	.st62{fill:#513224;}
	.st63{fill:#080705;}
	.st64{fill:#FCFCFB;}
	.st65{fill:#F9F8F8;}
	.st66{fill:#FAF0EC;}
	.st67{fill:#9F908A;}
	.st68{fill:#91573E;}
	.st69{fill:#070704;}
	.st70{fill:#F5FC96;}
	.st71{fill:#9C9C53;}
	.st72{fill:#9A9A52;}
	.st73{fill:#F2F994;}
	.st74{fill:#A17628;}
	.st75{fill:#90573F;}
	.st76{fill:#090806;}
	.st77{fill:#523123;}
	.st78{fill:#7C4031;}
	.st79{fill:#ED866D;}
	.st80{fill:#F3E9E6;}
	.st81{fill:#4F3023;}
	.st82{fill:#060606;}
	.st83{fill:#89533B;}
	.st84{fill:#050403;}
	.st85{fill:#090909;}
	.st86{fill:#EDCF5E;}
	.st87{fill:#050504;}
	.st88{fill:#060504;}
	.st89{fill:#955A41;}
	.st90{fill:#080703;}
	.st91{fill:#090807;}
	.st92{fill:#070603;}
	.st93{fill:#0A0905;}
	.st94{fill:#937335;}
	.st95{fill:#955A40;}
	.st96{fill:#955940;}
	.st97{fill:#EDD05E;}
	.st98{fill:#8F7032;}
	.st99{fill:#945940;}
	.st100{fill:#EED05E;}
	.st101{fill:#503123;}
	.st102{fill:#EEEEEE;}
	.st103{fill:#0D0C0A;}
	.st104{fill:#E3C659;}
	.st105{fill:#967535;}
	.st106{fill:#9D7D38;}
	.st107{fill:#745A29;}
	.st108{fill:#847334;}
	.st109{fill:#907134;}
	.st110{fill:#E5C85B;}
	.st111{fill:#503124;}
	.st112{fill:#927133;}
	.st113{fill:#E0DDD4;}
	.st114{fill:#987836;}
	.st115{fill:#977636;}
	.st116{fill:#CCC4A4;}
	.st117{fill:#523224;}
	.st118{fill:#0B0908;}
	.st119{fill:#8F7135;}
	.st120{fill:#050404;}
	.st121{fill:#EDD05D;}
	.st122{fill:#F3FA94;}
	.st123{fill:#9A9A51;}
	.st124{fill:#999951;}
	.st125{fill:#937334;}
	.st126{fill:#FAF0EE;}
	.st127{fill:#F3FA95;}
	.st128{fill:#989851;}
	.st129{fill:#A2792A;}
	.st130{fill:#F1F893;}
	.st131{fill:#A17729;}
	.st132{fill:#050502;}
	.st133{fill:#947335;}
	.st134{fill:#917233;}
	.st135{fill:#9B9B52;}
	.st136{fill:#F9EFEC;}
	.st137{fill:#9A782F;}
	.st138{fill:#979752;}
	.st139{fill:#F2F893;}
	.st140{fill:#8C8E4F;}
	.st141{fill:#B5B96E;}
	.st142{fill:#0F0F09;}
	.st143{fill:#9C9C52;}
	.st144{fill:#F5FB95;}
	.st145{fill:#F3F994;}
	.st146{fill:#A17728;}
	.st147{fill:#917134;}
	.st148{fill:#090706;}
	.st149{fill:#8E6F32;}
	.st150{fill:#93593F;}
	.st151{fill:#907033;}
	.st152{fill:#060505;}
	.st153{fill:#C8C3AF;}
	.st154{fill:#533324;}
	.st155{fill:#533426;}
	.st156{fill:#0E0C0A;}
	.st157{fill:#907133;}
	.st158{fill:#583627;}
	.st159{fill:#0A0907;}
	.st160{fill:#573526;}
	.st161{fill:#0C0B09;}
	.st162{fill:#503023;}
	.st163{fill:#543325;}
	.st164{fill:#B7B3A1;}
</style>
<g>
	<path class="st3" d="M399.5,993.9c1,3.3,3.3,5.7,5.1,8.5c3.2,4.9,4.2,10,1.5,15.6c-11.8,24.4-23.6,48.8-40.9,70
		c-1.7,2-3.2,4.2-5.9,5.2c-2.5-2.9-5-5.8-7.5-8.6c-50.6-56.5-101.3-112.9-151.9-169.4c1.7-5.1,5.9-8.3,9.2-12.1
		c14.1-16.3,27.2-33.3,42.2-48.8c1.1-1.2,2.1-2.6,4.1-2.5c45.6,45.9,91.3,91.7,136.9,137.6C394.3,991.4,396.3,993.6,399.5,993.9z"/>
	<path class="st159" d="M199.9,915.1c50.6,56.5,101.3,112.9,151.9,169.4c2.5,2.8,5,5.7,7.5,8.6c0.6,2.9,1.2,5.9-2.1,7.4
		c-3.5,1.7-6.1-0.4-8.3-2.9c-16.4-18.2-32.8-36.4-49.1-54.7c-35-39.2-69.9-78.3-104.8-117.5c-2.7-3-5.4-5.9-7.7-9.2
		c-2.7-3.7-4.7-6.9-9.9-2.7c-2.5,2-5.9,0.5-8-2c-11.3-12.9-22.8-25.7-31.8-40.3c-1.3-2.1-2.7-3.6-4.7-4.8
		C107.4,851.8,85.4,833,66,810.8c-15.4-17.6-8.8-34.4,3.3-49.9c3.8-4.9,9.5-4.9,15.2-2.9c1,0.4,2.1,1.5,3.1,0.2
		c0.9-1.1,0.2-2.2-0.2-3.3c-4.8-16.4,4.7-36,20.6-42.7c7.7-3.2,13.9-0.4,19.5,4.9c1.2,1.1,2.1,3.6,4.3,2.7c2.2-0.9,1.1-3.2,1.1-4.9
		c0.1-8.6,3.8-15.4,10.1-21c6.9-6.1,15.1-9.8,24-11.6c8.4-1.7,15.1,2,19.5,10.5c4.8,9.3,6.7,19.5,8.5,29.6c0.5,3-0.5,7.7,2,8.7
		c2.9,1.1,4.6-3.5,6.8-5.5c4.2-3.9,8.3-7.7,13.2-10.6c7.6-4.4,15.4-3.2,20.1,4.2c9.2,14.4,12,29.8,4.9,46.1
		c-2.9,6.6-6.9,12.6-11.5,18.1c-2.6,3.2-2.1,5.1,0.6,7.9c10.1,10.2,18.7,21.7,27.4,33.1c4.1,5.3,3.9,8.2-0.9,13.1
		c-2.4,2.4-2.6,3.9,0,6.4c47.9,45.7,94.1,93,141.4,139.2c5.3,5.2,5.3,7.7,0,10.8c-3.2-0.4-5.3-2.5-7.4-4.6
		c-45.6-45.9-91.2-91.8-136.9-137.6c-2.3-1.9-3.5-7.2-7.8-2.7c-17.8,18.5-36.6,36.1-56.2,52.7c-1.9,1.7-2.2,2.9-0.2,4.7
		C194.1,909.2,196.9,912.2,199.9,915.1z M65.8,790.8c-0.2,3,0.7,5.5,2.3,8c5.5,8.4,12,16.1,19.4,22.7c15.5,13.9,31.3,27.4,49.2,38.2
		c4.5,2.7,8,6.3,11,10.6c7.3,10.5,16.3,19.7,24.6,29.5c1.6,1.9,2.9,2.7,5.3,0.5c24.2-21.7,48.1-43.6,70.1-67.5
		c2.2-2.4,2.3-3.6,0.2-6.1c-8.9-10.4-17.3-21.1-26.9-30.8c-4.7-4.8-5-8.7-1.5-14.4c2.2-3.5,4.6-6.9,6.9-10.4
		c7.9-11.7,11.1-24,5.9-37.8c-4.2-11-6.9-11.9-15.4-3.9c-6.2,5.8-11.9,12.1-17.9,18.1c-2.3,2.3-5,4-8.5,2.9c-3.4-1.1-4.3-4-4.6-7.1
		c-0.6-5.8-1-11.6-1.7-17.4c-1.2-9.3-3.3-18.3-7.1-26.9c-1.5-3.4-3.7-6.7-7.8-5.8c-19.3,4.2-29.9,13-25.8,32.7
		c2.2,10.5,5.9,20.4,9.7,30.4c1.1,2.8,1.5,5.5-1,7.9c-1.6,1.6-3.5,2-5.5,1.2c-2.3-0.9-3.6-2.9-4.7-5c-2.6-4.8-5.2-9.7-7.8-14.5
		c-3.9-7-8-13.8-13.5-19.8c-5.1-5.6-8.4-5.7-14-0.6c-3.9,3.6-7.6,7.5-10.2,12.2c-2.6,4.5-3,9.1-1,13.9c2.6,6.3,5.5,12.5,9.6,18
		c3.6,5,7.2,10,10.7,15c1.7,2.5,1.8,5.2-0.6,7.2c-2.3,2-4.8,1-6.8-0.6c-1.7-1.3-3.1-3-4.8-4.4c-6.6-5.9-12.6-12.4-20-17.2
		c-2.6-1.7-5.6-3.4-8.1-0.4C70.2,775.5,66.4,782.5,65.8,790.8z M88,759.5c-0.1-0.1-0.2-0.3-0.3-0.3c-0.2,0-0.4,0.2-0.6,0.3
		c0.1,0.1,0.2,0.3,0.3,0.3C87.6,759.7,87.8,759.6,88,759.5z"/>
	<path class="st157" d="M199.9,915.1c-2.9-2.9-5.7-5.9-8.8-8.7c-2-1.8-1.8-3.1,0.2-4.7c19.6-16.7,38.4-34.2,56.2-52.7
		c4.3-4.5,5.5,0.8,7.8,2.7c-1.9,0-2.9,1.3-4,2.5c-14.9,15.5-28.1,32.6-42.2,48.8C205.8,906.8,201.5,910,199.9,915.1z"/>
	<path class="st95" d="M65.8,790.8c0.6-8.3,4.4-15.3,9.6-21.5c2.5-3,5.5-1.3,8.1,0.4c7.5,4.8,13.5,11.4,20,17.2
		c1.6,1.4,3.1,3.1,4.8,4.4c2.1,1.6,4.5,2.6,6.8,0.6c2.4-2,2.3-4.7,0.6-7.2c-3.5-5.1-7.1-10.1-10.7-15c-4.1-5.6-6.9-11.7-9.6-18
		c-2-4.8-1.5-9.3,1-13.9c2.7-4.7,6.3-8.6,10.2-12.2c5.5-5.1,8.8-5,14,0.6c5.4,5.9,9.6,12.7,13.5,19.8c2.6,4.8,5.2,9.7,7.8,14.5
		c1.1,2.1,2.5,4,4.7,5c2,0.8,3.9,0.4,5.5-1.2c2.4-2.4,2-5,1-7.9c-3.8-9.9-7.5-19.9-9.7-30.4c-4.1-19.7,6.5-28.5,25.8-32.7
		c4.1-0.9,6.3,2.4,7.8,5.8c3.8,8.6,5.9,17.7,7.1,26.9c0.7,5.8,1.1,11.6,1.7,17.4c0.3,3.1,1.2,6,4.6,7.1c3.5,1.1,6.2-0.5,8.5-2.9
		c6-6,11.7-12.3,17.9-18.1c8.5-8,11.2-7.1,15.4,3.9c5.2,13.8,2,26.1-5.9,37.8c-2.3,3.5-4.7,6.8-6.9,10.4c-3.5,5.7-3.2,9.6,1.5,14.4
		c9.6,9.8,18,20.5,26.9,30.8c2.1,2.5,2,3.8-0.2,6.1c-22,23.9-46,45.8-70.1,67.5c-2.4,2.1-3.6,1.4-5.3-0.5
		c-8.3-9.8-17.3-18.9-24.6-29.5c-3-4.3-6.5-7.9-11-10.6c-17.9-10.8-33.7-24.4-49.2-38.2c-7.4-6.6-13.9-14.3-19.4-22.7
		C66.5,796.3,65.6,793.8,65.8,790.8z M190.9,824.7c-0.4-2.1-1.3-3.1-2.8-2c-1.5,1-3,2.4-3.7,4c-2,4.3-5.1,7.3-9,9.6
		c-6,3.6-11.5,7.8-16.2,13.1c-1.5,1.7-3.1,3.6-1.3,5.6c1.9,2.1,4.3,1.4,6.2-0.5c4.9-4.8,10.4-9.2,16.5-11.9
		C189.1,838.8,186,829.6,190.9,824.7z"/>
	<path class="st10" d="M88,759.5c-0.2,0.1-0.4,0.2-0.6,0.3c-0.1,0-0.2-0.2-0.3-0.3c0.2-0.1,0.4-0.2,0.6-0.3
		C87.8,759.2,87.9,759.3,88,759.5z"/>
	<path class="st160" d="M190.9,824.7c-4.9,4.9-1.8,14.1-10.4,17.9c-6.1,2.7-11.6,7-16.5,11.9c-1.9,1.9-4.3,2.5-6.2,0.5
		c-1.9-2-0.3-3.9,1.3-5.6c4.7-5.3,10.2-9.5,16.2-13.1c3.9-2.4,7.1-5.4,9-9.6c0.7-1.6,2.3-2.9,3.7-4
		C189.6,821.6,190.5,822.6,190.9,824.7z"/>
</g>
</svg>
