<?xml version="1.0" encoding="utf-8"?>
<!-- Generator: Adobe Illustrator 25.0.0, SVG Export Plug-In . SVG Version: 6.00 Build 0)  -->
<svg version="1.1" id="图层_1" xmlns="http://www.w3.org/2000/svg" xmlns:xlink="http://www.w3.org/1999/xlink" x="0px" y="0px"
	 viewBox="0 0 1200 1600" style="enable-background:new 0 0 1200 1600;" xml:space="preserve">
<style type="text/css">
	.st0{fill:#060604;}
	.st1{fill:#EDCF5D;}
	.st2{fill:#FBF1EE;}
	.st3{fill:#ECCF5D;}
	.st4{fill:#F4FB95;}
	.st5{fill:#A0918B;}
	.st6{fill:#FBFBFB;}
	.st7{fill:#927233;}
	.st8{fill:#935A40;}
	.st9{fill:#623C2A;}
	.st10{fill:#FEFEFE;}
	.st11{fill:#040302;}
	.st12{fill:#090805;}
	.st13{fill:#9C5B46;}
	.st14{fill:#070705;}
	.st15{fill:#ECCE5D;}
	.st16{fill:#F2F2F2;}
	.st17{fill:#93583F;}
	.st18{fill:#A1918B;}
	.st19{fill:#513123;}
	.st20{fill:#FAFAFA;}
	.st21{fill:#030202;}
	.st22{fill:#060605;}
	.st23{fill:#A0908A;}
	.st24{fill:#937234;}
	.st25{fill:#E6C95B;}
	.st26{fill:#864E37;}
	.st27{fill:#513124;}
	.st28{fill:#B0603E;}
	.st29{fill:#FAF0ED;}
	.st30{fill:#F9F9F9;}
	.st31{fill:#917133;}
	.st32{fill:#9E8F89;}
	.st33{fill:#E7CA5B;}
	.st34{fill:#92583F;}
	.st35{fill:#050503;}
	.st36{fill:#FCFBFB;}
	.st37{fill:#080704;}
	.st38{fill:#070605;}
	.st39{fill:#FAF1ED;}
	.st40{fill:#F4FA95;}
	.st41{fill:#F8F8F7;}
	.st42{fill:#90573E;}
	.st43{fill:#030302;}
	.st44{fill:#080805;}
	.st45{fill:#FBF1ED;}
	.st46{fill:#FBFBFA;}
	.st47{fill:#927234;}
	.st48{fill:#F69376;}
	.st49{fill:#7B2D2D;}
	.st50{fill:#FCFCFC;}
	.st51{fill:#EF5A2D;}
	.st52{fill:#F0CC2D;}
	.st53{fill:#9F8F8A;}
	.st54{fill:#FAFAF9;}
	.st55{fill:#F2A78E;}
	.st56{fill:#040403;}
	.st57{fill:#070604;}
	.st58{fill:#A0908B;}
	.st59{fill:#F7F7F7;}
	.st60{fill:#E8CB5B;}
	.st61{fill:#8F563E;}
	.st62{fill:#513224;}
	.st63{fill:#080705;}
	.st64{fill:#FCFCFB;}
	.st65{fill:#F9F8F8;}
	.st66{fill:#FAF0EC;}
	.st67{fill:#9F908A;}
	.st68{fill:#91573E;}
	.st69{fill:#070704;}
	.st70{fill:#F5FC96;}
	.st71{fill:#9C9C53;}
	.st72{fill:#9A9A52;}
	.st73{fill:#F2F994;}
	.st74{fill:#A17628;}
	.st75{fill:#90573F;}
	.st76{fill:#090806;}
	.st77{fill:#523123;}
	.st78{fill:#7C4031;}
	.st79{fill:#ED866D;}
	.st80{fill:#F3E9E6;}
	.st81{fill:#4F3023;}
	.st82{fill:#060606;}
	.st83{fill:#89533B;}
	.st84{fill:#050403;}
	.st85{fill:#090909;}
	.st86{fill:#EDCF5E;}
	.st87{fill:#050504;}
	.st88{fill:#060504;}
	.st89{fill:#955A41;}
	.st90{fill:#080703;}
	.st91{fill:#090807;}
	.st92{fill:#070603;}
	.st93{fill:#0A0905;}
	.st94{fill:#937335;}
	.st95{fill:#955A40;}
	.st96{fill:#955940;}
	.st97{fill:#EDD05E;}
	.st98{fill:#8F7032;}
	.st99{fill:#945940;}
	.st100{fill:#EED05E;}
	.st101{fill:#503123;}
	.st102{fill:#EEEEEE;}
	.st103{fill:#0D0C0A;}
	.st104{fill:#E3C659;}
	.st105{fill:#967535;}
	.st106{fill:#9D7D38;}
	.st107{fill:#745A29;}
	.st108{fill:#847334;}
	.st109{fill:#907134;}
	.st110{fill:#E5C85B;}
	.st111{fill:#503124;}
	.st112{fill:#927133;}
	.st113{fill:#E0DDD4;}
	.st114{fill:#987836;}
	.st115{fill:#977636;}
	.st116{fill:#CCC4A4;}
	.st117{fill:#523224;}
	.st118{fill:#0B0908;}
	.st119{fill:#8F7135;}
	.st120{fill:#050404;}
	.st121{fill:#EDD05D;}
	.st122{fill:#F3FA94;}
	.st123{fill:#9A9A51;}
	.st124{fill:#999951;}
	.st125{fill:#937334;}
	.st126{fill:#FAF0EE;}
	.st127{fill:#F3FA95;}
	.st128{fill:#989851;}
	.st129{fill:#A2792A;}
	.st130{fill:#F1F893;}
	.st131{fill:#A17729;}
	.st132{fill:#050502;}
	.st133{fill:#947335;}
	.st134{fill:#917233;}
	.st135{fill:#9B9B52;}
	.st136{fill:#F9EFEC;}
	.st137{fill:#9A782F;}
	.st138{fill:#979752;}
	.st139{fill:#F2F893;}
	.st140{fill:#8C8E4F;}
	.st141{fill:#B5B96E;}
	.st142{fill:#0F0F09;}
	.st143{fill:#9C9C52;}
	.st144{fill:#F5FB95;}
	.st145{fill:#F3F994;}
	.st146{fill:#A17728;}
	.st147{fill:#917134;}
	.st148{fill:#090706;}
	.st149{fill:#8E6F32;}
	.st150{fill:#93593F;}
	.st151{fill:#907033;}
	.st152{fill:#060505;}
	.st153{fill:#C8C3AF;}
	.st154{fill:#533324;}
	.st155{fill:#533426;}
	.st156{fill:#0E0C0A;}
	.st157{fill:#907133;}
	.st158{fill:#583627;}
	.st159{fill:#0A0907;}
	.st160{fill:#573526;}
	.st161{fill:#0C0B09;}
	.st162{fill:#503023;}
	.st163{fill:#543325;}
	.st164{fill:#B7B3A1;}
</style>
<g>
	<path class="st120" d="M389.6,1080.3c2.9,5.6,2.2,8.1-4,10.9c-22.1,10.1-44.8,18.1-69.4,18.7c-17.3,0.5-34.6,1.4-51.9,0.5
		c-22.8-1.3-44.9-5.6-66.2-13.7c-3.6-1.3-7-1.8-10.7-1.3c-16.7,1.9-32.2-0.7-45.6-11.7c-2.9-2.4-5.8-4.6-6.5-8.5
		c-0.3-1.6-1.4-2.6-2.3-3.8c-27.2-35.4-47.2-74.3-56.5-118.3c-1.5-7.3-0.2-13.5,4.9-18.9c6.7-7.1,14.5-12.7,23.5-16.6
		c10-4.4,16.7-2.3,22.7,6.7c0.9,1.3,1.2,3.1,3.2,4.1c1-3.2,2-6.3,3.1-9.3c5.7-15.8,21.9-26.4,38.6-25.2c9.7,0.7,14,7.1,16,15.8
		c2.7,0,2.8-2.3,3.7-3.7c10.1-16.2,33.2-22.5,50.2-13.7c6.2,3.3,9.1,8.8,8.3,16.2c-1,9.7-4.9,18.6-6.9,28.1
		c-2.4,11.5-2.6,23.1-1,34.6c1.9,0.5,2.1-1,2.7-1.8c3.8-4.9,8-9.3,12.7-13.4c6.8-5.9,14.3-6.7,22.3-2.9c7.3,3.5,13.6,8.5,17.9,15.5
		c4.6,7.4,4.9,15.1,0.7,22.7c-1.6,2.9-3.4,5.6-5.5,9.1c10.5,0,20.2-1,29.7-2.9c16.8-3.4,32.8-8.7,47.1-18.3c4.6-3.1,6.5-2.6,9.4,1.7
		c-0.3,3.1-2,5.1-4.5,6.7c-4.9,3.1-10,6-15.3,8.3c-22,9.5-45.1,13.6-69,13.1c-1.9,0-3.8-0.5-5.5,1.2c-15.5,15.1-26.2,33.8-38,51.6
		c-1.6,0.1-2.2,1.5-2.9,2.5c-7.7,9.9-17.4,17.3-28.2,23.4c-2,1.1-4.1,2.2-6.8,3.7c16.5,4.7,32.2,7.8,48.4,8.7
		c25,1.3,49.9,0.8,74.6-3c17.1-2.6,32.7-9.9,48.6-16.2C383.8,1080,386.6,1079.5,389.6,1080.3z M287.8,975.7
		c-2.3-5.4-7.1-8.2-11.8-11c-4-2.4-7.4-1.9-10.8,1.3c-5.7,5.4-11,11.1-14.9,18.1c-1.8,3.2-3.7,6.3-5.8,9.3c-1.6,2.2-4,3.1-6.6,2.2
		c-2.5-0.9-3.6-3-3.7-5.5c-0.1-2.8-0.2-5.6-0.8-8.4c-4.9-20.7-5.1-41.2,1.9-61.5c1.3-3.9,2.6-7.9,3-12.1c0.2-2.6-0.4-4.4-3.1-5.5
		c-11.2-4.5-26.7-1.1-33.6,8.4c-7,9.6-11.6,20.5-13.6,32.4c-0.6,3.9-1.2,7.9-2,11.8c-0.7,3.3-2.4,6.1-6.4,5.6
		c-4.2-0.5-5.2-3.9-5-7.4c0.1-3.5,0.8-6.9,1.2-10.4c1-10.4,2.4-20.9,0.5-31.3c-0.6-3.5-2.2-6.1-6.3-5.6c-11.4,1.5-21.1,6.3-25,17.7
		c-3.3,9.6-4.4,19.4-4,29.5c0.2,4.5,0.7,9,0.8,13.4c0.1,3.8-1.1,7.2-5.4,7.9c-4.3,0.7-6.3-2.2-7.3-5.9c-0.4-1.4-0.6-2.9-0.9-4.4
		c-2.4-10.5-4.7-21.1-9.6-30.9c-3.2-6.3-4.2-6.6-10.4-3.6c-6.8,3.2-12.8,7.7-18.3,12.8c-3.3,3.1-4.3,6.5-3.4,10.8
		c3.7,17.1,8.4,33.9,16.1,49.8c10.9,22.5,23.7,43.9,38.1,64.4c3.5,4.9,7.8,8,13.3,9.8c2.3,3.1,5.8,3.8,9.2,4.5
		c8.5,1.9,17,2.1,25.7,1.3c13.8-1.3,26.3-5.6,37.4-13.7c11.5-8.5,19-20.3,25.6-32.7c6.7-12.7,14.4-24.7,24.8-34.7
		c5-4.8,8.4-10.7,11.8-16.6C290.1,982.2,290.8,978.8,287.8,975.7z"/>
	<path class="st1" d="M247.2,1062c11.8-17.8,22.5-36.5,38-51.6c1.8-1.7,3.6-1.3,5.5-1.2c23.9,0.6,47-3.6,69-13.1
		c5.4-2.3,10.4-5.2,15.3-8.3c2.6-1.6,4.3-3.6,4.5-6.7c4.9-1.2,7.4,1.7,9.1,5.6c4.4,9.8,5.8,20.3,7.1,30.9
		c1.5,12.7,1.9,25.4,0.1,38.2c-0.1,0.8-0.5,1.5-0.7,2.3c-3.7-2-6.3-0.1-8.9,2.2c-5.6,4.9-10.9,10.2-18.2,12.9
		c-24.5,9.3-49.7,13.5-75.8,10.6c-11.4-1.2-22.6-3.9-33-9.2C254,1071.8,248.3,1069,247.2,1062z"/>
	<path class="st47" d="M247.2,1062c1.1,7,6.8,9.8,12.2,12.6c10.3,5.3,21.5,8,33,9.2c26.1,2.8,51.3-1.4,75.8-10.6
		c7.2-2.7,12.6-8,18.2-12.9c2.7-2.3,5.3-4.2,8.9-2.2c-0.2,6.4-2.1,12.4-3.2,18.6c-0.3,1.5-1,2.8-2.4,3.6c-3-0.8-5.8-0.3-8.7,0.9
		c-15.9,6.2-31.6,13.6-48.6,16.2c-24.7,3.8-49.6,4.3-74.6,3c-16.2-0.9-31.9-4-48.4-8.7c2.7-1.5,4.8-2.6,6.8-3.7
		c10.8-6.1,20.5-13.6,28.2-23.4C245,1063.5,245.7,1062.1,247.2,1062z"/>
	<path class="st95" d="M153.8,1077.4c-5.5-1.9-9.8-4.9-13.3-9.8c-14.4-20.5-27.1-41.9-38.1-64.4c-7.7-15.8-12.3-32.6-16.1-49.8
		c-0.9-4.3,0.1-7.7,3.4-10.8c5.5-5.2,11.5-9.6,18.3-12.8c6.2-2.9,7.2-2.6,10.4,3.6c4.9,9.7,7.2,20.3,9.6,30.9c0.3,1.5,0.5,3,0.9,4.4
		c1,3.7,3,6.6,7.3,5.9c4.2-0.7,5.4-4.1,5.4-7.9c-0.1-4.5-0.6-9-0.8-13.4c-0.4-10.1,0.7-19.9,4-29.5c3.9-11.4,13.6-16.2,25-17.7
		c4-0.5,5.6,2.1,6.3,5.6c1.9,10.5,0.5,20.9-0.5,31.3c-0.3,3.5-1,6.9-1.2,10.4c-0.1,3.5,0.8,6.9,5,7.4c4,0.5,5.7-2.3,6.4-5.6
		c0.9-3.9,1.4-7.9,2-11.8c1.9-11.9,6.6-22.8,13.6-32.4c6.9-9.5,22.4-12.9,33.6-8.4c2.7,1.1,3.3,2.9,3.1,5.5c-0.4,4.2-1.6,8.2-3,12.1
		c-6.9,20.3-6.8,40.9-1.9,61.5c0.7,2.8,0.7,5.6,0.8,8.4c0.1,2.5,1.2,4.6,3.7,5.5c2.7,0.9,5.1,0,6.6-2.2c2.1-3,4-6.1,5.8-9.3
		c3.9-6.9,9.1-12.7,14.9-18.1c3.4-3.2,6.8-3.7,10.8-1.3c4.7,2.8,9.5,5.6,11.8,11c-3.6,2.9-7.5,5.6-10.7,8.9
		c-11.7,11.8-18.4,26.8-25.4,41.5c-7.5,15.8-17.6,29.4-31.4,39.9c-12.9,9.8-28,13.6-43.9,13.7
		C168.9,1079.8,161.3,1078.2,153.8,1077.4z"/>
	<path class="st19" d="M153.8,1077.4c7.5,0.8,15.1,2.4,22.6,2.4c15.9-0.2,31-3.9,43.9-13.7c13.8-10.6,23.9-24.2,31.4-39.9
		c7-14.7,13.6-29.7,25.4-41.5c3.3-3.3,7.1-5.9,10.7-8.9c2.9,3.1,2.2,6.5,0.4,9.6c-3.3,5.9-6.8,11.9-11.8,16.6
		c-10.4,10.1-18.1,22-24.8,34.7c-6.6,12.4-14.2,24.2-25.6,32.7c-11,8.2-23.6,12.5-37.4,13.7c-8.7,0.8-17.2,0.6-25.7-1.3
		C159.6,1081.2,156.1,1080.5,153.8,1077.4z"/>
</g>
</svg>
