<?xml version="1.0" encoding="utf-8"?>
<!-- Generator: Adobe Illustrator 25.0.0, SVG Export Plug-In . SVG Version: 6.00 Build 0)  -->
<svg version="1.1" id="图层_1" xmlns="http://www.w3.org/2000/svg" xmlns:xlink="http://www.w3.org/1999/xlink" x="0px" y="0px"
	 viewBox="0 0 1200 1600" style="enable-background:new 0 0 1200 1600;" xml:space="preserve">
<style type="text/css">
	.st0{fill:#060604;}
	.st1{fill:#EDCF5D;}
	.st2{fill:#FBF1EE;}
	.st3{fill:#ECCF5D;}
	.st4{fill:#F4FB95;}
	.st5{fill:#A0918B;}
	.st6{fill:#FBFBFB;}
	.st7{fill:#927233;}
	.st8{fill:#935A40;}
	.st9{fill:#623C2A;}
	.st10{fill:#FEFEFE;}
	.st11{fill:#040302;}
	.st12{fill:#090805;}
	.st13{fill:#9C5B46;}
	.st14{fill:#070705;}
	.st15{fill:#ECCE5D;}
	.st16{fill:#F2F2F2;}
	.st17{fill:#93583F;}
	.st18{fill:#A1918B;}
	.st19{fill:#513123;}
	.st20{fill:#FAFAFA;}
	.st21{fill:#030202;}
	.st22{fill:#060605;}
	.st23{fill:#A0908A;}
	.st24{fill:#937234;}
	.st25{fill:#E6C95B;}
	.st26{fill:#864E37;}
	.st27{fill:#513124;}
	.st28{fill:#B0603E;}
	.st29{fill:#FAF0ED;}
	.st30{fill:#F9F9F9;}
	.st31{fill:#917133;}
	.st32{fill:#9E8F89;}
	.st33{fill:#E7CA5B;}
	.st34{fill:#92583F;}
	.st35{fill:#050503;}
	.st36{fill:#FCFBFB;}
	.st37{fill:#080704;}
	.st38{fill:#070605;}
	.st39{fill:#FAF1ED;}
	.st40{fill:#F4FA95;}
	.st41{fill:#F8F8F7;}
	.st42{fill:#90573E;}
	.st43{fill:#030302;}
	.st44{fill:#080805;}
	.st45{fill:#FBF1ED;}
	.st46{fill:#FBFBFA;}
	.st47{fill:#927234;}
	.st48{fill:#F69376;}
	.st49{fill:#7B2D2D;}
	.st50{fill:#FCFCFC;}
	.st51{fill:#EF5A2D;}
	.st52{fill:#F0CC2D;}
	.st53{fill:#9F8F8A;}
	.st54{fill:#FAFAF9;}
	.st55{fill:#F2A78E;}
	.st56{fill:#040403;}
	.st57{fill:#070604;}
	.st58{fill:#A0908B;}
	.st59{fill:#F7F7F7;}
	.st60{fill:#E8CB5B;}
	.st61{fill:#8F563E;}
	.st62{fill:#513224;}
	.st63{fill:#080705;}
	.st64{fill:#FCFCFB;}
	.st65{fill:#F9F8F8;}
	.st66{fill:#FAF0EC;}
	.st67{fill:#9F908A;}
	.st68{fill:#91573E;}
	.st69{fill:#070704;}
	.st70{fill:#F5FC96;}
	.st71{fill:#9C9C53;}
	.st72{fill:#9A9A52;}
	.st73{fill:#F2F994;}
	.st74{fill:#A17628;}
	.st75{fill:#90573F;}
	.st76{fill:#090806;}
	.st77{fill:#523123;}
	.st78{fill:#7C4031;}
	.st79{fill:#ED866D;}
	.st80{fill:#F3E9E6;}
	.st81{fill:#4F3023;}
	.st82{fill:#060606;}
	.st83{fill:#89533B;}
	.st84{fill:#050403;}
	.st85{fill:#090909;}
	.st86{fill:#EDCF5E;}
	.st87{fill:#050504;}
	.st88{fill:#060504;}
	.st89{fill:#955A41;}
	.st90{fill:#080703;}
	.st91{fill:#090807;}
	.st92{fill:#070603;}
	.st93{fill:#0A0905;}
	.st94{fill:#937335;}
	.st95{fill:#955A40;}
	.st96{fill:#955940;}
	.st97{fill:#EDD05E;}
	.st98{fill:#8F7032;}
	.st99{fill:#945940;}
	.st100{fill:#EED05E;}
	.st101{fill:#503123;}
	.st102{fill:#EEEEEE;}
	.st103{fill:#0D0C0A;}
	.st104{fill:#E3C659;}
	.st105{fill:#967535;}
	.st106{fill:#9D7D38;}
	.st107{fill:#745A29;}
	.st108{fill:#847334;}
	.st109{fill:#907134;}
	.st110{fill:#E5C85B;}
	.st111{fill:#503124;}
	.st112{fill:#927133;}
	.st113{fill:#E0DDD4;}
	.st114{fill:#987836;}
	.st115{fill:#977636;}
	.st116{fill:#CCC4A4;}
	.st117{fill:#523224;}
	.st118{fill:#0B0908;}
	.st119{fill:#8F7135;}
	.st120{fill:#050404;}
	.st121{fill:#EDD05D;}
	.st122{fill:#F3FA94;}
	.st123{fill:#9A9A51;}
	.st124{fill:#999951;}
	.st125{fill:#937334;}
	.st126{fill:#FAF0EE;}
	.st127{fill:#F3FA95;}
	.st128{fill:#989851;}
	.st129{fill:#A2792A;}
	.st130{fill:#F1F893;}
	.st131{fill:#A17729;}
	.st132{fill:#050502;}
	.st133{fill:#947335;}
	.st134{fill:#917233;}
	.st135{fill:#9B9B52;}
	.st136{fill:#F9EFEC;}
	.st137{fill:#9A782F;}
	.st138{fill:#979752;}
	.st139{fill:#F2F893;}
	.st140{fill:#8C8E4F;}
	.st141{fill:#B5B96E;}
	.st142{fill:#0F0F09;}
	.st143{fill:#9C9C52;}
	.st144{fill:#F5FB95;}
	.st145{fill:#F3F994;}
	.st146{fill:#A17728;}
	.st147{fill:#917134;}
	.st148{fill:#090706;}
	.st149{fill:#8E6F32;}
	.st150{fill:#93593F;}
	.st151{fill:#907033;}
	.st152{fill:#060505;}
	.st153{fill:#C8C3AF;}
	.st154{fill:#533324;}
	.st155{fill:#533426;}
	.st156{fill:#0E0C0A;}
	.st157{fill:#907133;}
	.st158{fill:#583627;}
	.st159{fill:#0A0907;}
	.st160{fill:#573526;}
	.st161{fill:#0C0B09;}
	.st162{fill:#503023;}
	.st163{fill:#543325;}
	.st164{fill:#B7B3A1;}
</style>
<g>
	<path class="st88" d="M380,1052.3c7.6,0.4,8.4,1,9.5,8.6c1.3,8.7,2.8,17.4,1.8,26.3c-0.3,2.5,0.6,3.2,3.1,3.8
		c15,3.7,28,14.5,23.9,34.7c-2.9,14.1-8.5,26.1-20.8,34.5c-4.4,2.9-9,5.3-14.2,5.7c-3.5,0.3-5.6,1.5-7.6,4.4
		c-6.9,10.5-16.5,17.8-28.5,21.5c-2.9,0.9-3.7,3.2-5,5.2c-6.8,10.3-16,16.1-28.6,16.2c-9,0.1-16.3-3.6-21.5-10.7
		c-10.3-14.1-12.8-29.4-4.9-45.5c1.6-3.3,1.1-4.8-1.6-6.8c-8.1-6.4-15.5-13.6-22.8-20.9c-2.8-2.8-4.2-4.9-0.5-9
		c3.2-3.6,5.4-8.3,8.8-12c1.5-1.7,0.4-2.4-0.6-3.6c-4.8-5.7-8.1-12.2-10.4-19.2c-3.9-11.6-1.8-22.3,5.2-32.2
		c3.1-4.4,6.7-8.3,10.7-11.8c26.4-23.3,53.6-45.4,84.1-63.2c0.9-0.5,1.7-1,2.6-1.4c2-1.1,4.1-1.7,6,0c2,1.9,0.9,4-0.4,5.8
		c-20.8,15.2-41.8,30.1-61.6,46.7c-10.7,9-22,17.3-31,28.1c-6.8,8.2-8.5,17.1-3.8,26.9c2.4,5,5,9.9,7.6,14.9
		C320.3,1067.9,342,1057.8,380,1052.3z M408.3,1120.2c0.1-9.9-7.2-18.4-15.5-18.5c-5.2-0.1-9.8-1.4-14.3-3.6
		c-19.3-9.3-37.7-2.9-46.2,16.6c-2.2,5.1-5.3,8-10.2,9.7c-9.8,3.4-17.2,9.9-22.5,18.8c-1.1,1.8-2.9,3.7-2,5.9
		c1.5,3.9,0,7.1-1.7,10.4c-6.8,12.9-4.9,25.1,3.2,36.6c5.1,7.3,13.9,9.6,22.2,6.3c6.4-2.5,10.6-7.2,13.9-13.1c1.6-2.9,3.4-5.6,7-6.7
		c11.7-3.4,20.7-10.5,27-20.9c2.3-3.8,5.4-5.7,9.8-5.8c5.2-0.2,9.6-2.2,13.8-5.2C403.7,1143,407.4,1131.6,408.3,1120.2z
		 M385.1,1091.7c-2.2-9.5-3.4-18.4-4.3-27.3c-0.3-2.8-1.6-3.4-4.4-2.9c-29.3,4.9-55.6,16.8-79.1,34.7c-9.4,7.2-18.2,15-25.5,24.5
		c-1.2,1.6-3.3,3.4-0.8,5.6c6.2,5.5,12.5,11,18.8,16.5c1.5,1.3,2.4,1,3.4-0.8c6.1-11.5,15.1-19.7,27.4-24.2c2.5-0.9,3.8-2.6,5-5.1
		c9.1-18.4,19.8-26.7,39.1-25.9C371.6,1087,378,1088.9,385.1,1091.7z"/>
	<path class="st15" d="M380,1052.3c-38,5.4-59.7,15.5-100.5,46.9c-2.6-5-5.2-9.9-7.6-14.9c-4.6-9.8-3-18.7,3.8-26.9
		c9-10.8,20.3-19.1,31-28.1c19.8-16.6,40.8-31.5,61.6-46.7c1.5,8.9,3.6,17.8,1.2,26.9c-0.5,1.9,0,3.4,1.5,4.3
		c4.8,3,7.2,8.2,11.3,11.9c1.2,1.1,2,2.3,1.2,4C380.1,1036.9,379.6,1044.6,380,1052.3z"/>
	<path class="st95" d="M408.3,1120.2c-1,11.4-4.7,22.7-15.6,30.6c-4.2,3-8.6,5-13.8,5.2c-4.3,0.1-7.5,2-9.8,5.8
		c-6.3,10.4-15.2,17.5-27,20.9c-3.6,1-5.4,3.8-7,6.7c-3.3,5.8-7.5,10.5-13.9,13.1c-8.3,3.3-17.1,0.9-22.2-6.3
		c-8.1-11.5-10-23.7-3.2-36.6c1.7-3.3,3.3-6.5,1.7-10.4c-0.9-2.2,0.9-4.1,2-5.9c5.3-8.9,12.7-15.4,22.5-18.8c5-1.7,8-4.6,10.2-9.7
		c8.5-19.6,27-25.9,46.2-16.6c4.6,2.2,9.2,3.5,14.3,3.6C401.1,1101.9,408.4,1110.3,408.3,1120.2z"/>
	<path class="st99" d="M385.1,1091.7c-7.1-2.9-13.5-4.7-20.5-5c-19.3-0.8-30,7.5-39.1,25.9c-1.2,2.4-2.5,4.2-5,5.1
		c-12.2,4.6-21.3,12.7-27.4,24.2c-1,1.8-1.9,2.1-3.4,0.8c-6.3-5.5-12.5-11-18.8-16.5c-2.5-2.2-0.4-4,0.8-5.6
		c7.2-9.5,16-17.3,25.5-24.5c23.6-17.9,49.8-29.8,79.1-34.7c2.8-0.5,4.1,0.1,4.4,2.9C381.7,1073.3,382.9,1082.2,385.1,1091.7z"/>
</g>
</svg>
