<?xml version="1.0" encoding="utf-8"?>
<!-- Generator: Adobe Illustrator 25.0.0, SVG Export Plug-In . SVG Version: 6.00 Build 0)  -->
<svg version="1.1" id="图层_1" xmlns="http://www.w3.org/2000/svg" xmlns:xlink="http://www.w3.org/1999/xlink" x="0px" y="0px"
	 viewBox="0 0 1200 1600" style="enable-background:new 0 0 1200 1600;" xml:space="preserve">
<style type="text/css">
	.st0{fill:#060604;}
	.st1{fill:#EDCF5D;}
	.st2{fill:#FBF1EE;}
	.st3{fill:#ECCF5D;}
	.st4{fill:#F4FB95;}
	.st5{fill:#A0918B;}
	.st6{fill:#FBFBFB;}
	.st7{fill:#927233;}
	.st8{fill:#935A40;}
	.st9{fill:#623C2A;}
	.st10{fill:#FEFEFE;}
	.st11{fill:#040302;}
	.st12{fill:#090805;}
	.st13{fill:#9C5B46;}
	.st14{fill:#070705;}
	.st15{fill:#ECCE5D;}
	.st16{fill:#F2F2F2;}
	.st17{fill:#93583F;}
	.st18{fill:#A1918B;}
	.st19{fill:#513123;}
	.st20{fill:#FAFAFA;}
	.st21{fill:#030202;}
	.st22{fill:#060605;}
	.st23{fill:#A0908A;}
	.st24{fill:#937234;}
	.st25{fill:#E6C95B;}
	.st26{fill:#864E37;}
	.st27{fill:#513124;}
	.st28{fill:#B0603E;}
	.st29{fill:#FAF0ED;}
	.st30{fill:#F9F9F9;}
	.st31{fill:#917133;}
	.st32{fill:#9E8F89;}
	.st33{fill:#E7CA5B;}
	.st34{fill:#92583F;}
	.st35{fill:#050503;}
	.st36{fill:#FCFBFB;}
	.st37{fill:#080704;}
	.st38{fill:#070605;}
	.st39{fill:#FAF1ED;}
	.st40{fill:#F4FA95;}
	.st41{fill:#F8F8F7;}
	.st42{fill:#90573E;}
	.st43{fill:#030302;}
	.st44{fill:#080805;}
	.st45{fill:#FBF1ED;}
	.st46{fill:#FBFBFA;}
	.st47{fill:#927234;}
	.st48{fill:#F69376;}
	.st49{fill:#7B2D2D;}
	.st50{fill:#FCFCFC;}
	.st51{fill:#EF5A2D;}
	.st52{fill:#F0CC2D;}
	.st53{fill:#9F8F8A;}
	.st54{fill:#FAFAF9;}
	.st55{fill:#F2A78E;}
	.st56{fill:#040403;}
	.st57{fill:#070604;}
	.st58{fill:#A0908B;}
	.st59{fill:#F7F7F7;}
	.st60{fill:#E8CB5B;}
	.st61{fill:#8F563E;}
	.st62{fill:#513224;}
	.st63{fill:#080705;}
	.st64{fill:#FCFCFB;}
	.st65{fill:#F9F8F8;}
	.st66{fill:#FAF0EC;}
	.st67{fill:#9F908A;}
	.st68{fill:#91573E;}
	.st69{fill:#070704;}
	.st70{fill:#F5FC96;}
	.st71{fill:#9C9C53;}
	.st72{fill:#9A9A52;}
	.st73{fill:#F2F994;}
	.st74{fill:#A17628;}
	.st75{fill:#90573F;}
	.st76{fill:#090806;}
	.st77{fill:#523123;}
	.st78{fill:#7C4031;}
	.st79{fill:#ED866D;}
	.st80{fill:#F3E9E6;}
	.st81{fill:#4F3023;}
	.st82{fill:#060606;}
	.st83{fill:#89533B;}
	.st84{fill:#050403;}
	.st85{fill:#090909;}
	.st86{fill:#EDCF5E;}
	.st87{fill:#050504;}
	.st88{fill:#060504;}
	.st89{fill:#955A41;}
	.st90{fill:#080703;}
	.st91{fill:#090807;}
	.st92{fill:#070603;}
	.st93{fill:#0A0905;}
	.st94{fill:#937335;}
	.st95{fill:#955A40;}
	.st96{fill:#955940;}
	.st97{fill:#EDD05E;}
	.st98{fill:#8F7032;}
	.st99{fill:#945940;}
	.st100{fill:#EED05E;}
	.st101{fill:#503123;}
	.st102{fill:#EEEEEE;}
	.st103{fill:#0D0C0A;}
	.st104{fill:#E3C659;}
	.st105{fill:#967535;}
	.st106{fill:#9D7D38;}
	.st107{fill:#745A29;}
	.st108{fill:#847334;}
	.st109{fill:#907134;}
	.st110{fill:#E5C85B;}
	.st111{fill:#503124;}
	.st112{fill:#927133;}
	.st113{fill:#E0DDD4;}
	.st114{fill:#987836;}
	.st115{fill:#977636;}
	.st116{fill:#CCC4A4;}
	.st117{fill:#523224;}
	.st118{fill:#0B0908;}
	.st119{fill:#8F7135;}
	.st120{fill:#050404;}
	.st121{fill:#EDD05D;}
	.st122{fill:#F3FA94;}
	.st123{fill:#9A9A51;}
	.st124{fill:#999951;}
	.st125{fill:#937334;}
	.st126{fill:#FAF0EE;}
	.st127{fill:#F3FA95;}
	.st128{fill:#989851;}
	.st129{fill:#A2792A;}
	.st130{fill:#F1F893;}
	.st131{fill:#A17729;}
	.st132{fill:#050502;}
	.st133{fill:#947335;}
	.st134{fill:#917233;}
	.st135{fill:#9B9B52;}
	.st136{fill:#F9EFEC;}
	.st137{fill:#9A782F;}
	.st138{fill:#979752;}
	.st139{fill:#F2F893;}
	.st140{fill:#8C8E4F;}
	.st141{fill:#B5B96E;}
	.st142{fill:#0F0F09;}
	.st143{fill:#9C9C52;}
	.st144{fill:#F5FB95;}
	.st145{fill:#F3F994;}
	.st146{fill:#A17728;}
	.st147{fill:#917134;}
	.st148{fill:#090706;}
	.st149{fill:#8E6F32;}
	.st150{fill:#93593F;}
	.st151{fill:#907033;}
	.st152{fill:#060505;}
	.st153{fill:#C8C3AF;}
	.st154{fill:#533324;}
	.st155{fill:#533426;}
	.st156{fill:#0E0C0A;}
	.st157{fill:#907133;}
	.st158{fill:#583627;}
	.st159{fill:#0A0907;}
	.st160{fill:#573526;}
	.st161{fill:#0C0B09;}
	.st162{fill:#503023;}
	.st163{fill:#543325;}
	.st164{fill:#B7B3A1;}
</style>
<g>
	<path class="st1" d="M402.2,962.9c4,0.2,5,3.1,4.9,6.3c-0.4,14.9-0.6,29.9-1.4,44.8c-0.6,10.9-0.8,21.9-2.6,32.7
		c-0.2,1.3-0.7,2.5-1,3.8c-2.6-1.3-5.4-1.6-8.2-1.7c-14.6-0.7-29.3-1.3-43.9-2.1c-39.4-2.2-78.8-4.4-118.3-5.4
		c-2.9-0.1-4.1-0.4-3.9-3.8c1-23,1.8-45.9,2.6-68.9c0.1-2.5,0.7-3.7,3.4-3.4c3.8,0.3,7.6,0.5,11.5,0.6c50.6,0.9,101.3,0.1,151.9,0.2
		C399.5,966,401.4,965.4,402.2,962.9z"/>
	<path class="st87" d="M402.2,962.9c-0.8,2.5-2.7,3.1-5.1,3.1c-50.6-0.2-101.3,0.7-151.9-0.2c-3.8-0.1-7.7-0.3-11.5-0.6
		c-2.7-0.3-3.3,0.9-3.4,3.4c-0.8,23-1.6,45.9-2.6,68.9c-0.1,3.4,1.1,3.7,3.9,3.8c39.5,1,78.9,3.2,118.3,5.4
		c14.6,0.8,29.3,1.5,43.9,2.1c2.9,0.1,5.6,0.4,8.2,1.7c1.6,5.2,0.7,6.8-4.9,6.6c-20.6-0.7-41.3-1.5-61.9-2.4
		c-16.6-0.7-33.3-1.6-49.9-2.5c-17.9-1-35.9-2-53.8-3.1c-2.8-0.2-4.3-0.2-4.5,3.5c-0.6,9.5-5.3,13.1-15,12
		c-13.8-1.4-27.1-5.4-40.3-9.1c-2.5-0.7-4.2-1-5.8,1.6c-1.6,2.6-4.1,4.5-6.7,5.8c-12.1,6.1-24.8,9.7-38.4,9.1
		c-8-0.4-13.5-5.1-14.7-13.1c-1.5-10-3.4-20.1,1.4-29.8c0.5-1,0.1-1.5-0.5-2c-7.8-6-8.5-15-9.9-23.7c-0.2-1.1-0.3-2.3-0.3-3.5
		c0-3.6-1.5-5-5.4-4.9c-7.5,0.1-15-0.9-22.2-2.9c-8-2.2-11.6-6.4-12.1-14.5c-0.7-11.4,0.5-22.6,3.2-33.7c1.4-5.7,4.8-8.6,10.9-9.2
		c15-1.5,29.9-1.7,44.8,0.1c3,0.4,4-0.2,4.4-3.3c0.7-5.1,1.6-10.2,3.6-15c1.3-3.2,3.2-6,6.4-7.4c17.9-7.8,35.4-8.3,47.6,10.2
		c4.4,6.7,10.3,12.2,14,19.4c1,1.9,2.4,1.9,4.2,2c8.5,0.3,17,0.7,25.4,1c6.1,0.2,8.1,2.2,8.7,8.4c0.8,8.5,0.8,8.6,9.6,8.4
		c52-1.1,103.9,0.6,155.9,0.4C398.7,959.1,401.6,959,402.2,962.9z M116,1060.1c2.1,2.8,5.1,3,8.1,2.8c10-0.7,19.7-2.8,28.9-6.8
		c5.3-2.3,8.4-6.4,9-12.2c0.9-5.1,0.5-9.8-3.2-14c-1.4-1.6-2.5-2.1-4.6-1.3c-11.7,4.3-23.7,4.5-35.8,2.8c-3-0.4-5.1,0.6-5.4,3.6
		C111.8,1043.5,112.1,1052,116,1060.1z M157.2,1012.2c2.2-3.7,2.5-7.9,2.7-12c0.2-6.7-0.8-7.7-7.6-8.1c-13.7-0.6-27.3-0.2-40.9,1.1
		c-6.5,0.6-6.8,1.2-5.7,7.9c0.7,4.1,1.5,8.2,2.4,12.2c0.5,2.1,1.1,4.3,3.7,4.9c0.4,1.9,2,2.4,3.6,2.9c11.9,3.9,23.7,2.8,35.3-1.2
		C154.4,1018.9,156.9,1016.3,157.2,1012.2z M72.8,982.3c0.4,1.3,1.6,1.5,2.8,1.6c12.6,2,25.2,2.7,37.9,2.9c8.6,0.2,8.6,0,4.6-8
		c0-10.5-0.1-21,0.2-31.4c0.1-3.4-0.7-4.5-4.2-4.8c-13.3-1.3-26.6-0.3-39.8,0.3c-3.5,0.2-5.4,1.6-6.1,5.1
		c-1.8,8.9-2.3,17.8-2.3,26.8C65.9,979.9,67.6,982.6,72.8,982.3z M160.9,951.5c4.7,5.1,3,11,2.4,17c-0.6,6.1-2.8,11.2-8.3,15.8
		c9.4,0.6,11.9,6.1,12.6,13.5c0.7,7.4-0.5,14.5-3.1,21.4c-0.5,1.4-1.9,2.6,0.1,4.3c5,4.3,6.9,10.2,6.4,16.5
		c-0.4,5.3,0.8,8.6,6.6,8.8c0.5,0,1,0.1,1.5,0.2c10.2,2.4,20.4,4.9,30.8,6.1c7.5,0.8,7.9,0.3,8-7.3c0.2-9.8,0.5-19.6,0.7-29.5
		c0.3-21.1,2.4-42.2,2.4-63.4c0-3-0.8-4.2-3.9-4c-8.5,0.6-16.9-0.8-25.4-0.9c-3,0-5.4-1.2-6.7-3.7c-3.8-7.3-9.6-13.2-14.2-19.9
		c-9-13-16.3-15.5-31.7-11.3c-4.3,1.2-6.9,3.4-8,7.8c-4.4,17.3-4.8,34.9-4,52.6c0.1,3,1.6,4.4,4.7,4.7c6.8,0.6,13.2-0.4,19.5-2.9
		c1.9-0.8,3.3-2.2,4.1-4.1c2.5-5.9,5.4-11.8,3.7-18.6C158.8,953.1,159.3,952,160.9,951.5z"/>
	<path class="st95" d="M160.9,951.5c-1.5,0.5-2.1,1.6-1.7,3.1c1.7,6.8-1.2,12.7-3.7,18.6c-0.8,1.9-2.2,3.3-4.1,4.1
		c-6.3,2.6-12.7,3.5-19.5,2.9c-3.1-0.3-4.5-1.7-4.7-4.7c-0.8-17.7-0.4-35.3,4-52.6c1.1-4.4,3.7-6.7,8-7.8
		c15.4-4.2,22.7-1.7,31.7,11.3c4.6,6.7,10.4,12.6,14.2,19.9c1.3,2.5,3.7,3.7,6.7,3.7c8.5,0,16.9,1.5,25.4,0.9c3.2-0.2,3.9,1,3.9,4
		c0,21.2-2.1,42.2-2.4,63.4c-0.2,9.8-0.5,19.6-0.7,29.5c-0.1,7.6-0.5,8.1-8,7.3c-10.4-1.1-20.6-3.7-30.8-6.1
		c0.1-8-3.2-15.2-5.8-22.5c-2.2-6.1-2.7-11.8-0.6-18c1.6-4.7,3.6-10.2,1.8-14.5c-2.3-5.7-1.1-10,1-14.9c0.7-1.5,1-3.2,1.3-4.8
		c1.5-8.9,0.1-17-7.2-23C166.8,948.9,163.6,946.9,160.9,951.5z"/>
	<path class="st99" d="M72.8,982.3c-5.2,0.3-6.9-2.5-6.9-7.4c0-9,0.5-17.9,2.3-26.8c0.7-3.6,2.6-5,6.1-5.1
		c13.3-0.7,26.5-1.6,39.8-0.3c3.5,0.3,4.3,1.4,4.2,4.8c-0.3,10.5-0.2,20.9-0.2,31.4C103,980.4,88,982.2,72.8,982.3z"/>
	<path class="st99" d="M111.8,1018.3c-2.5-0.7-3.2-2.9-3.7-4.9c-1-4-1.7-8.1-2.4-12.2c-1.2-6.7-0.8-7.3,5.7-7.9
		c13.6-1.3,27.2-1.7,40.9-1.1c6.8,0.3,7.8,1.4,7.6,8.1c-0.1,4.1-0.5,8.3-2.7,12c-1.8-1.2-3.6-1.2-5.6-0.6
		C138.6,1015.3,125.4,1018.2,111.8,1018.3z"/>
	<path class="st99" d="M116,1060.1c-3.9-8-4.2-16.5-3.1-25.2c0.4-3,2.4-4,5.4-3.6c12.1,1.7,24.2,1.5,35.8-2.8
		c2.1-0.8,3.2-0.3,4.6,1.3c3.7,4.2,4.1,8.9,3.2,14c-4.5,0.7-8.2,3.5-12.2,5.3C138.8,1053.9,128,1058.8,116,1060.1z"/>
	<path class="st62" d="M160.9,951.5c2.7-4.6,6-2.5,8.7-0.3c7.3,6.1,8.7,14.1,7.2,23c-0.3,1.6-0.6,3.3-1.3,4.8
		c-2.1,4.9-3.3,9.2-1,14.9c1.8,4.3-0.2,9.9-1.8,14.5c-2.1,6.2-1.6,11.9,0.6,18c2.6,7.3,6,14.5,5.8,22.5c-0.5-0.1-1-0.2-1.5-0.2
		c-5.8-0.2-7.1-3.5-6.6-8.8c0.5-6.3-1.4-12.3-6.4-16.5c-2-1.7-0.6-2.9-0.1-4.3c2.6-6.9,3.8-13.9,3.1-21.4
		c-0.7-7.4-3.2-12.9-12.6-13.5c5.5-4.6,7.7-9.7,8.3-15.8C163.8,962.5,165.5,956.6,160.9,951.5z"/>
	<path class="st101" d="M111.8,1018.3c13.6-0.2,26.7-3,39.7-6.7c2.1-0.6,3.9-0.6,5.6,0.6c-0.3,4.1-2.8,6.7-6.5,7.9
		c-11.6,3.9-23.4,5.1-35.3,1.2C113.8,1020.7,112.2,1020.3,111.8,1018.3z"/>
	<path class="st101" d="M116,1060.1c12-1.3,22.8-6.2,33.7-10.9c4.1-1.8,7.7-4.6,12.2-5.3c-0.6,5.8-3.7,9.9-9,12.2
		c-9.2,4.1-18.9,6.1-28.9,6.8C121.1,1063.1,118.1,1062.8,116,1060.1z"/>
	<path class="st81" d="M72.8,982.3c15.1-0.2,30.2-1.9,45.2-3.4c4,8,4,8.1-4.6,8c-12.7-0.3-25.4-1-37.9-2.9
		C74.4,983.8,73.3,983.7,72.8,982.3z"/>
</g>
</svg>
