<?xml version="1.0" encoding="utf-8"?>
<!-- Generator: Adobe Illustrator 25.0.0, SVG Export Plug-In . SVG Version: 6.00 Build 0)  -->
<svg version="1.1" id="图层_1" xmlns="http://www.w3.org/2000/svg" xmlns:xlink="http://www.w3.org/1999/xlink" x="0px" y="0px"
	 viewBox="0 0 1200 1600" style="enable-background:new 0 0 1200 1600;" xml:space="preserve">
<style type="text/css">
	.st0{fill:#060604;}
	.st1{fill:#EDCF5D;}
	.st2{fill:#FBF1EE;}
	.st3{fill:#ECCF5D;}
	.st4{fill:#F4FB95;}
	.st5{fill:#A0918B;}
	.st6{fill:#FBFBFB;}
	.st7{fill:#927233;}
	.st8{fill:#935A40;}
	.st9{fill:#623C2A;}
	.st10{fill:#FEFEFE;}
	.st11{fill:#040302;}
	.st12{fill:#090805;}
	.st13{fill:#9C5B46;}
	.st14{fill:#070705;}
	.st15{fill:#ECCE5D;}
	.st16{fill:#F2F2F2;}
	.st17{fill:#93583F;}
	.st18{fill:#A1918B;}
	.st19{fill:#513123;}
	.st20{fill:#FAFAFA;}
	.st21{fill:#030202;}
	.st22{fill:#060605;}
	.st23{fill:#A0908A;}
	.st24{fill:#937234;}
	.st25{fill:#E6C95B;}
	.st26{fill:#864E37;}
	.st27{fill:#513124;}
	.st28{fill:#B0603E;}
	.st29{fill:#FAF0ED;}
	.st30{fill:#F9F9F9;}
	.st31{fill:#917133;}
	.st32{fill:#9E8F89;}
	.st33{fill:#E7CA5B;}
	.st34{fill:#92583F;}
	.st35{fill:#050503;}
	.st36{fill:#FCFBFB;}
	.st37{fill:#080704;}
	.st38{fill:#070605;}
	.st39{fill:#FAF1ED;}
	.st40{fill:#F4FA95;}
	.st41{fill:#F8F8F7;}
	.st42{fill:#90573E;}
	.st43{fill:#030302;}
	.st44{fill:#080805;}
	.st45{fill:#FBF1ED;}
	.st46{fill:#FBFBFA;}
	.st47{fill:#927234;}
	.st48{fill:#F69376;}
	.st49{fill:#7B2D2D;}
	.st50{fill:#FCFCFC;}
	.st51{fill:#EF5A2D;}
	.st52{fill:#F0CC2D;}
	.st53{fill:#9F8F8A;}
	.st54{fill:#FAFAF9;}
	.st55{fill:#F2A78E;}
	.st56{fill:#040403;}
	.st57{fill:#070604;}
	.st58{fill:#A0908B;}
	.st59{fill:#F7F7F7;}
	.st60{fill:#E8CB5B;}
	.st61{fill:#8F563E;}
	.st62{fill:#513224;}
	.st63{fill:#080705;}
	.st64{fill:#FCFCFB;}
	.st65{fill:#F9F8F8;}
	.st66{fill:#FAF0EC;}
	.st67{fill:#9F908A;}
	.st68{fill:#91573E;}
	.st69{fill:#070704;}
	.st70{fill:#F5FC96;}
	.st71{fill:#9C9C53;}
	.st72{fill:#9A9A52;}
	.st73{fill:#F2F994;}
	.st74{fill:#A17628;}
	.st75{fill:#90573F;}
	.st76{fill:#090806;}
	.st77{fill:#523123;}
	.st78{fill:#7C4031;}
	.st79{fill:#ED866D;}
	.st80{fill:#F3E9E6;}
	.st81{fill:#4F3023;}
	.st82{fill:#060606;}
	.st83{fill:#89533B;}
	.st84{fill:#050403;}
	.st85{fill:#090909;}
	.st86{fill:#EDCF5E;}
	.st87{fill:#050504;}
	.st88{fill:#060504;}
	.st89{fill:#955A41;}
	.st90{fill:#080703;}
	.st91{fill:#090807;}
	.st92{fill:#070603;}
	.st93{fill:#0A0905;}
	.st94{fill:#937335;}
	.st95{fill:#955A40;}
	.st96{fill:#955940;}
	.st97{fill:#EDD05E;}
	.st98{fill:#8F7032;}
	.st99{fill:#945940;}
	.st100{fill:#EED05E;}
	.st101{fill:#503123;}
	.st102{fill:#EEEEEE;}
	.st103{fill:#0D0C0A;}
	.st104{fill:#E3C659;}
	.st105{fill:#967535;}
	.st106{fill:#9D7D38;}
	.st107{fill:#745A29;}
	.st108{fill:#847334;}
	.st109{fill:#907134;}
	.st110{fill:#E5C85B;}
	.st111{fill:#503124;}
	.st112{fill:#927133;}
	.st113{fill:#E0DDD4;}
	.st114{fill:#987836;}
	.st115{fill:#977636;}
	.st116{fill:#CCC4A4;}
	.st117{fill:#523224;}
	.st118{fill:#0B0908;}
	.st119{fill:#8F7135;}
	.st120{fill:#050404;}
	.st121{fill:#EDD05D;}
	.st122{fill:#F3FA94;}
	.st123{fill:#9A9A51;}
	.st124{fill:#999951;}
	.st125{fill:#937334;}
	.st126{fill:#FAF0EE;}
	.st127{fill:#F3FA95;}
	.st128{fill:#989851;}
	.st129{fill:#A2792A;}
	.st130{fill:#F1F893;}
	.st131{fill:#A17729;}
	.st132{fill:#050502;}
	.st133{fill:#947335;}
	.st134{fill:#917233;}
	.st135{fill:#9B9B52;}
	.st136{fill:#F9EFEC;}
	.st137{fill:#9A782F;}
	.st138{fill:#979752;}
	.st139{fill:#F2F893;}
	.st140{fill:#8C8E4F;}
	.st141{fill:#B5B96E;}
	.st142{fill:#0F0F09;}
	.st143{fill:#9C9C52;}
	.st144{fill:#F5FB95;}
	.st145{fill:#F3F994;}
	.st146{fill:#A17728;}
	.st147{fill:#917134;}
	.st148{fill:#090706;}
	.st149{fill:#8E6F32;}
	.st150{fill:#93593F;}
	.st151{fill:#907033;}
	.st152{fill:#060505;}
	.st153{fill:#C8C3AF;}
	.st154{fill:#533324;}
	.st155{fill:#533426;}
	.st156{fill:#0E0C0A;}
	.st157{fill:#907133;}
	.st158{fill:#583627;}
	.st159{fill:#0A0907;}
	.st160{fill:#573526;}
	.st161{fill:#0C0B09;}
	.st162{fill:#503023;}
	.st163{fill:#543325;}
	.st164{fill:#B7B3A1;}
</style>
<g>
	<path class="st87" d="M376.3,1139.5c2,0.3,4.2,0.6,4.3,3.2c0.1,2.2-1.6,3.2-3.3,4c-8.2,3.9-16.9,6.1-25.9,7
		c-15.2,1.4-30.3,0.9-45.1-3.1c-17-4.6-29.8-15.2-39.3-29.8c-12.6-19.4-19.8-40.6-20.8-63.7c-0.1-2.8-0.7-4-3.6-3.1
		c-1.3,0.4-2.6,0.3-4,0.4c-6.8,0.7-9.7-1.4-10.7-8.1c-2.2-14.4-2.8-28.8-2.7-43.3c0-1.7,1-3.7-2.1-3.9c-7.7-0.4-11.8-5.5-14.9-11.7
		c-3.2-6.5-4.8-13.4-6-20.5c-0.3-1.6-0.5-2.5-2.4-3.1c-5.5-1.6-8.3-5.9-9.8-11.1c-2.4-8.2-3.1-16.7-3-25.2c0-2.1-0.3-3.6-2.2-5
		c-2.9-2-3.9-5.2-4-8.7c-0.3-14.1,2-27.8,6-41.3c2.4-8.2,7.7-12.7,16.5-13.4c13.5-1.2,26.6,0.2,39.4,4.4c4,1.3,5.4,1,6.2-3.7
		c3.3-19.2,11.5-36.1,26-49.4c9.5-8.7,20.8-12.8,33.6-10.1c17.4,3.7,27.2,24.6,19.8,41.1c-3.1,6.8-7.1,13.2-9.9,20.1
		c-2.7,6.5-2.8,12.5,0.7,19c10.3,18.9,13.9,39.4,13.5,60.7c-0.1,7.2,0,14.3-0.4,21.5c-0.6,11.4,0.9,22.4,4.6,33.4
		c3.1,9.3,6.9,18.4,7.8,28.7c0.5,6.7,6.8,11.6,13.7,14c3.8,1.3,7.8,1.9,11.5,3.3c4.8,1.7,5.4,4.5,2.5,8.8
		c-14.2,0.9-25.2-4.4-32.9-16.5c-1-2.3-1.3-5.3-5.3-4c-25.3,8.1-50.7,15.8-76.8,21c-2,0.4-3.5,1.1-3,3.6c1.5,7,1.8,14.2,4.2,20.9
		c2.1,11.3,7.3,21.3,12.4,31.4c12.5,24.5,32.7,35.8,59.9,36.8C346.3,1144.5,361.2,1141.4,376.3,1139.5z M211.3,973.1
		c0.6,3.7,2.3,7,4,10.2c3.8,7,7.8,8.4,15.3,5.5c6.7-2.6,13-6,18.7-10.4c11.3-8.7,11.9-18.4,1.8-28.6c-1.9-1.7-3-0.2-4.2,1
		c-3.1,3.1-6.8,5.2-10.8,6.8c-6.6,2.7-13.5,4.4-20.5,5.8C207.5,964.9,207.5,965,211.3,973.1z M195.1,932c0.1,6.2,1.5,12.2,3.2,18.1
		c1.1,3.6,3.5,5.4,7.5,5c8.2-0.7,16-2.7,23.7-5.3c15.3-5.3,19.2-13.2,14.6-28.8c-0.3-5.3-3.9-2-5.3-1.6c-12.7,4.2-25.9,5.3-39,6.5
		C193.6,926.4,193.6,926.2,195.1,932z M252.9,889.1c1.5,7.9,2.8,15.7-1.5,23.2c-1.1,1.9,0.1,3.5,0.8,5.1c3.1,7.2,4,14.8,2.1,22.4
		c-0.7,2.7-0.9,3.6,1.8,5.3c12.7,8.1,15.8,23.1,7.1,33.9c-6.8,8.4-16,13.4-25.7,17.5c-2.8,1.2-3.9,2.6-3.6,5.5
		c0.2,1.6,0.1,3.3,0.2,5c-0.3,11.3,1.3,22.6,2.3,33.8c0.3,3.4,1.6,4.2,5.2,3.5c29.7-5.2,58.4-14.5,87.3-23.1c4.5-1.3,5-3.3,3.4-7.2
		c-8.3-20.1-11-41-9.4-62.6c0.2-2.5-0.1-5,0-7.5c1.1-22.2-3.7-43-14.4-62.4c-3-5.4-3.1-11-1.8-16.9c2.1-9.4,7.3-17.5,11.2-26.1
		c3.8-8.4,2.3-16.9-4-23.5c-5.5-5.7-13.8-7-22.2-3.6c-4.4,1.8-8.3,4.2-11.6,7.6c-9.2,9.2-15.1,20.2-19,32.4c-2,6-2.7,12.3-4.1,18.5
		c-0.8,3.3-2.3,6-6.6,4.6c-14.6-5-29.5-7.8-45.1-6.6c-6.4,0.5-8.4,1.8-10.3,8c-3.4,11-4.7,22.5-5.7,33.9c-0.4,5.1,1.1,7,6.1,6.8
		c15.4-0.4,30.5-2.7,45-7.9c2.2-0.8,3.7-2.1,4.4-4.4c2.5-8.2-0.8-14.6-8.9-17.4c-7.8-2.7-14.7,0.3-21.6,3.3c-1.4,0.6-2.9,1.6-4-0.1
		c-1-1.6,0.4-2.9,1.6-3.7C225.8,877.4,239.9,871.8,252.9,889.1z"/>
	<path class="st1" d="M376.3,1139.5c-15.1,1.8-30,5-45.5,4.5c-27.2-0.9-47.4-12.2-59.9-36.8c-5.1-10.1-10.3-20.1-12.4-31.4
		c1.3-0.4,2.6-0.5,3.8-1.1c14.5-7.3,29.1-14.5,43.6-22.1c11.3-5.9,22.4-12.2,33.6-18.3c7.7,12.1,18.7,17.4,32.9,16.5
		c6.3,13.8,11.3,28.1,13,43.3c1.3,12.1,1.3,24.2-0.5,36.3C384.2,1135.4,381.2,1138.4,376.3,1139.5z"/>
	<path class="st95" d="M252.9,889.1c-13-17.4-27.1-11.7-41-2.6c-1.2,0.8-2.6,2.1-1.6,3.7c1,1.7,2.6,0.7,4,0.1c6.9-3,13.8-6,21.6-3.3
		c8.1,2.8,11.4,9.2,8.9,17.4c-0.7,2.3-2.2,3.6-4.4,4.4c-14.6,5.2-29.6,7.6-45,7.9c-5,0.1-6.6-1.7-6.1-6.8c1-11.4,2.2-22.9,5.7-33.9
		c1.9-6.2,3.9-7.5,10.3-8c15.5-1.2,30.5,1.6,45.1,6.6c4.3,1.5,5.9-1.2,6.6-4.6c1.4-6.2,2.1-12.5,4.1-18.5c4-12.2,9.9-23.2,19-32.4
		c3.4-3.4,7.3-5.8,11.6-7.6c8.4-3.5,16.7-2.1,22.2,3.6c6.3,6.5,7.8,15.1,4,23.5c-3.9,8.6-9.1,16.7-11.2,26.1
		c-1.3,5.9-1.2,11.5,1.8,16.9c10.7,19.4,15.5,40.2,14.4,62.4c-0.1,2.5,0.1,5,0,7.5c-1.7,21.6,1.1,42.5,9.4,62.6
		c1.6,3.8,1,5.9-3.4,7.2c-28.9,8.6-57.5,17.8-87.3,23.1c-3.6,0.6-4.9-0.2-5.2-3.5c-1-11.3-2.6-22.5-2.3-33.8
		c11.5-0.7,20.6-6.6,29.5-13.1c6.1-4.4,11.1-9.9,12.2-17.5c1-7.7,0.6-15.5-2.5-23c-3.2-7.8-7.1-15.3-9.1-23.6
		c-1.5-6.2,0.4-12.1-0.1-18.2C263.4,902.5,261.5,894.2,252.9,889.1z M297,979c-2.8,0.1-4.1,3.3-2.2,6.1c1.4,2,3.2,3.9,5.5,5
		c1.8,0.9,3.7,3.1,5.8,1.1c2.4-2.3-0.4-3.8-1.6-5.4c-1.4-1.8-2.9-3.6-4.5-5.3C299.3,979.6,298.3,978.9,297,979z"/>
	<path class="st27" d="M252.9,889.1c8.6,5,10.5,13.4,11.2,22.4c0.5,6.1-1.3,12,0.1,18.2c2,8.4,5.8,15.8,9.1,23.6
		c3.1,7.5,3.5,15.3,2.5,23c-1,7.6-6.1,13.1-12.2,17.5c-8.9,6.5-18.1,12.4-29.5,13.1c-0.1-1.7,0-3.3-0.2-5c-0.3-2.9,0.8-4.3,3.6-5.5
		c9.7-4.1,18.9-9.1,25.7-17.5c8.7-10.8,5.6-25.8-7.1-33.9c-2.6-1.7-2.4-2.6-1.8-5.3c1.9-7.6,1-15.1-2.1-22.4
		c-0.7-1.7-1.9-3.2-0.8-5.1C255.7,904.9,254.4,897,252.9,889.1z"/>
	<path class="st7" d="M339.5,1034.4c-11.2,6.1-22.3,12.4-33.6,18.3c-14.4,7.5-29,14.8-43.6,22.1c-1.2,0.6-2.5,0.8-3.8,1.1
		c-2.4-6.8-2.7-14-4.2-20.9c-0.5-2.5,1-3.2,3-3.6c26.1-5.2,51.5-12.9,76.8-21C338.2,1029.1,338.5,1032,339.5,1034.4z"/>
	<path class="st150" d="M244.1,921c4.7,15.6,0.7,23.6-14.6,28.8c-7.7,2.7-15.6,4.6-23.7,5.3c-4,0.3-6.4-1.4-7.5-5
		c-1.8-5.9-3.1-11.9-3.2-18.1c7.4-0.3,14.9,0.6,22.3-0.6C227.1,929.9,235.5,925.2,244.1,921z"/>
	<path class="st99" d="M251.2,949.7c10,10.2,9.4,19.9-1.8,28.6c-5.7,4.4-11.9,7.9-18.7,10.4c-7.5,2.9-11.5,1.5-15.3-5.5
		c-1.7-3.2-3.4-6.5-4-10.2C227.2,969.7,240.7,962.4,251.2,949.7z"/>
	<path class="st101" d="M244.1,921c-8.6,4.2-17,8.9-26.7,10.5c-7.5,1.2-14.9,0.3-22.3,0.6c-1.5-5.8-1.4-5.6,4.7-6.1
		c13.2-1.2,26.3-2.3,39-6.5C240.2,918.9,243.8,915.6,244.1,921z"/>
	<path class="st101" d="M251.2,949.7c-10.4,12.7-24,20-39.8,23.4c-3.8-8.1-3.8-8.2,4.3-9.8c7-1.4,13.9-3.1,20.5-5.8
		c4.1-1.6,7.7-3.7,10.8-6.8C248.1,949.6,249.3,948,251.2,949.7z"/>
	<path class="st163" d="M297,979c1.3-0.1,2.3,0.5,3,1.4c1.5,1.7,3.1,3.5,4.5,5.3c1.2,1.6,3.9,3,1.6,5.4c-2.1,2-4-0.2-5.8-1.1
		c-2.3-1.1-4.1-2.9-5.5-5C292.9,982.3,294.2,979.1,297,979z"/>
</g>
</svg>
