<?xml version="1.0" encoding="utf-8"?>
<!-- Generator: Adobe Illustrator 25.0.0, SVG Export Plug-In . SVG Version: 6.00 Build 0)  -->
<svg version="1.1" id="图层_1" xmlns="http://www.w3.org/2000/svg" xmlns:xlink="http://www.w3.org/1999/xlink" x="0px" y="0px"
	 viewBox="0 0 1200 1600" style="enable-background:new 0 0 1200 1600;" xml:space="preserve">
<style type="text/css">
	.st0{fill:#060604;}
	.st1{fill:#EDCF5D;}
	.st2{fill:#FBF1EE;}
	.st3{fill:#ECCF5D;}
	.st4{fill:#F4FB95;}
	.st5{fill:#A0918B;}
	.st6{fill:#FBFBFB;}
	.st7{fill:#927233;}
	.st8{fill:#935A40;}
	.st9{fill:#623C2A;}
	.st10{fill:#FEFEFE;}
	.st11{fill:#040302;}
	.st12{fill:#090805;}
	.st13{fill:#9C5B46;}
	.st14{fill:#070705;}
	.st15{fill:#ECCE5D;}
	.st16{fill:#F2F2F2;}
	.st17{fill:#93583F;}
	.st18{fill:#A1918B;}
	.st19{fill:#513123;}
	.st20{fill:#FAFAFA;}
	.st21{fill:#030202;}
	.st22{fill:#060605;}
	.st23{fill:#A0908A;}
	.st24{fill:#937234;}
	.st25{fill:#E6C95B;}
	.st26{fill:#864E37;}
	.st27{fill:#513124;}
	.st28{fill:#B0603E;}
	.st29{fill:#FAF0ED;}
	.st30{fill:#F9F9F9;}
	.st31{fill:#917133;}
	.st32{fill:#9E8F89;}
	.st33{fill:#E7CA5B;}
	.st34{fill:#92583F;}
	.st35{fill:#050503;}
	.st36{fill:#FCFBFB;}
	.st37{fill:#080704;}
	.st38{fill:#070605;}
	.st39{fill:#FAF1ED;}
	.st40{fill:#F4FA95;}
	.st41{fill:#F8F8F7;}
	.st42{fill:#90573E;}
	.st43{fill:#030302;}
	.st44{fill:#080805;}
	.st45{fill:#FBF1ED;}
	.st46{fill:#FBFBFA;}
	.st47{fill:#927234;}
	.st48{fill:#F69376;}
	.st49{fill:#7B2D2D;}
	.st50{fill:#FCFCFC;}
	.st51{fill:#EF5A2D;}
	.st52{fill:#F0CC2D;}
	.st53{fill:#9F8F8A;}
	.st54{fill:#FAFAF9;}
	.st55{fill:#F2A78E;}
	.st56{fill:#040403;}
	.st57{fill:#070604;}
	.st58{fill:#A0908B;}
	.st59{fill:#F7F7F7;}
	.st60{fill:#E8CB5B;}
	.st61{fill:#8F563E;}
	.st62{fill:#513224;}
	.st63{fill:#080705;}
	.st64{fill:#FCFCFB;}
	.st65{fill:#F9F8F8;}
	.st66{fill:#FAF0EC;}
	.st67{fill:#9F908A;}
	.st68{fill:#91573E;}
	.st69{fill:#070704;}
	.st70{fill:#F5FC96;}
	.st71{fill:#9C9C53;}
	.st72{fill:#9A9A52;}
	.st73{fill:#F2F994;}
	.st74{fill:#A17628;}
	.st75{fill:#90573F;}
	.st76{fill:#090806;}
	.st77{fill:#523123;}
	.st78{fill:#7C4031;}
	.st79{fill:#ED866D;}
	.st80{fill:#F3E9E6;}
	.st81{fill:#4F3023;}
	.st82{fill:#060606;}
	.st83{fill:#89533B;}
	.st84{fill:#050403;}
	.st85{fill:#090909;}
	.st86{fill:#EDCF5E;}
	.st87{fill:#050504;}
	.st88{fill:#060504;}
	.st89{fill:#955A41;}
	.st90{fill:#080703;}
	.st91{fill:#090807;}
	.st92{fill:#070603;}
	.st93{fill:#0A0905;}
	.st94{fill:#937335;}
	.st95{fill:#955A40;}
	.st96{fill:#955940;}
	.st97{fill:#EDD05E;}
	.st98{fill:#8F7032;}
	.st99{fill:#945940;}
	.st100{fill:#EED05E;}
	.st101{fill:#503123;}
	.st102{fill:#EEEEEE;}
	.st103{fill:#0D0C0A;}
	.st104{fill:#E3C659;}
	.st105{fill:#967535;}
	.st106{fill:#9D7D38;}
	.st107{fill:#745A29;}
	.st108{fill:#847334;}
	.st109{fill:#907134;}
	.st110{fill:#E5C85B;}
	.st111{fill:#503124;}
	.st112{fill:#927133;}
	.st113{fill:#E0DDD4;}
	.st114{fill:#987836;}
	.st115{fill:#977636;}
	.st116{fill:#CCC4A4;}
	.st117{fill:#523224;}
	.st118{fill:#0B0908;}
	.st119{fill:#8F7135;}
	.st120{fill:#050404;}
	.st121{fill:#EDD05D;}
	.st122{fill:#F3FA94;}
	.st123{fill:#9A9A51;}
	.st124{fill:#999951;}
	.st125{fill:#937334;}
	.st126{fill:#FAF0EE;}
	.st127{fill:#F3FA95;}
	.st128{fill:#989851;}
	.st129{fill:#A2792A;}
	.st130{fill:#F1F893;}
	.st131{fill:#A17729;}
	.st132{fill:#050502;}
	.st133{fill:#947335;}
	.st134{fill:#917233;}
	.st135{fill:#9B9B52;}
	.st136{fill:#F9EFEC;}
	.st137{fill:#9A782F;}
	.st138{fill:#979752;}
	.st139{fill:#F2F893;}
	.st140{fill:#8C8E4F;}
	.st141{fill:#B5B96E;}
	.st142{fill:#0F0F09;}
	.st143{fill:#9C9C52;}
	.st144{fill:#F5FB95;}
	.st145{fill:#F3F994;}
	.st146{fill:#A17728;}
	.st147{fill:#917134;}
	.st148{fill:#090706;}
	.st149{fill:#8E6F32;}
	.st150{fill:#93593F;}
	.st151{fill:#907033;}
	.st152{fill:#060505;}
	.st153{fill:#C8C3AF;}
	.st154{fill:#533324;}
	.st155{fill:#533426;}
	.st156{fill:#0E0C0A;}
	.st157{fill:#907133;}
	.st158{fill:#583627;}
	.st159{fill:#0A0907;}
	.st160{fill:#573526;}
	.st161{fill:#0C0B09;}
	.st162{fill:#503023;}
	.st163{fill:#543325;}
	.st164{fill:#B7B3A1;}
</style>
<g>
	<path class="st84" d="M368,1024.3c15.7-2.8,25.3,3.9,27.9,20.3c0.6,4,1.6,3.8,4.4,2c8.6-5.4,17.4-10.5,27.2-13.5
		c15.9-5,27,2.4,28.5,19.1c1.6,17.8-4.7,31.6-20.8,40.2c-1.6,0.9-3.2,1.8-5,2.8c5.5,7.6,7.9,15.7,6.1,25c-1,5.1-2.9,9.6-7,12.9
		c-2.1,1.7-1.8,2.6-0.2,4.6c10.5,13.2,8.1,28.9-5.9,38.3c-2.8,1.9-4,4.1-4.5,7.3c-1.6,11.4-2.7,22.8-6.6,33.7
		c-4.9,13.7-14.6,21-28.7,22.9c-2,0.3-2.7,1.2-3.5,2.8c-1.8,3.7-3.9,7.4-5.9,11c-2.4,4.3-6,6.1-10.8,5.3c-10.9-1.7-22.3-4-30.8-10.8
		c-13.9-11.1-29-21.2-38.4-37.2c-9.2-15.8-15.2-32.6-17.1-50.7c-6.9-63.4,14.6-117.7,54.1-166c8.1-10,17.3-18.9,27.6-26.7
		c4.7-3.5,7.3-2.4,7.9,3.1c-2.1,3-5.1,5.2-7.8,7.7c-18.1,16.5-33.3,35.2-45.3,56.5c-8.7,15.5-16.1,31.6-20.4,49
		c-6.8,20.7-9.4,42-8,63.7c1.1,18.9,5.7,36.7,15.5,53c4.5,7.5,9.8,14.4,17.3,21c-1.2-9.3-2.1-17.4-2-25.5c0-6.2,0.8-12.3,1.1-18.4
		c1.7-17.1,11-30,23.5-40.8c3.2-2.8,5-5.6,5.4-9.9c0.5-6.8,1.3-13.6,2.3-20.3c1.2-7.7,0.1-15.9,3.1-23.1c2.2-5.4,1.1-9.1-2.1-13
		c-0.6-0.8-1.1-1.7-1.6-2.5c-7.7-12.5-5.7-25.6,5.5-35.2C357.5,1029.1,362.7,1026.7,368,1024.3z M352.2,1054.9
		c-0.6,5.5,3.5,9.1,5.5,13.5c1.4,2.9,3.1,3.2,5.9,1.7c6.9-3.6,13.4-7.7,19.9-12c5.7-3.9,5.8-4,2.2-10.2c-0.5-3-2-5.6-3.4-8.2
		c-2.8-5.4-6.1-6.7-11.8-4.8c-2.5,0.8-5,1.9-7.2,3.2C357,1041.8,352,1046.7,352.2,1054.9z M351.8,1206c-0.2-2.1-1.3-3.7-2.3-5.4
		c-5.4-9.1-8-18.8-7.8-29.4c0.2-8.9,1-17.7,2.2-27.1c-19.9,18-20.4,40.4-17.4,63.7c0.3,8.7,2.1,17,5.7,24.9c1.4,3,3.8,5.1,6.7,6.5
		c7,3.4,14.4,5.9,22,7.6c1.6,0.3,3.2,0.3,3.9-1.3c1.7-4.3,5.7-7.4,6.2-12.3c0.5-4.7-4.2-6-6.1-9.1c-0.3-0.4-0.5-0.9-0.8-1.2
		C359.4,1217.6,356.7,1211,351.8,1206z M399,1101c9-6.2,18.3-11.9,28-17c5.5-2.9,11.1-6.1,13.1-12.7c5.3-6.9,4.8-14.6,2.8-22.3
		c-1.5-5.7-4.4-7-10.2-5.6c-8.4,2-15.7,6.3-23.1,10.5c-14.9,8.4-28.2,19.5-43.7,27c-4.4,2.1-5.5,6.2-5.9,10.8
		c-2.3,23-4.5,46-7.4,68.9c-2.2,17.1,1,32.4,12.3,45.7c0.1,2.1,1.2,3.8,2.3,5.4c3.3,5.2,7.3,9.9,11.2,14.6c2.2,2.7,4.6,3.5,7.3,2.5
		c6-2.1,11.5-4.8,14.7-11.1c5-9.9,6.4-20.6,7.6-31.3c0.9-8,2.3-15.3,10-20.1c2.6-1.6,5.6-3.7,6-7.5c0.8-2.4,0.4-4.9,0-7.3
		c-1.3-8.2-2.5-9.2-10.7-8.5c-6.3,0.5-7.8-1.9-5.1-8c4.5-1.8,8.6-4.3,12.2-7.6c3.5-3.1,5.9-6.7,5.5-11.7c0.9-3.7-0.1-7.2-1.5-10.6
		c-1.6-3.8-4.2-4.8-7.9-2.7c-2.6,1.5-5.3,2.8-7.8,4.3C403.7,1109.6,397.9,1108.1,399,1101z"/>
	<path class="st3" d="M293.1,1084c4.3-17.4,11.7-33.5,20.4-49c12-21.3,27.2-40.1,45.3-56.5c2.7-2.4,5.7-4.6,7.8-7.7
		c1.5,8.6-0.7,17.2-0.6,25.8c0.1,9.3-0.3,18.6,2,27.7c-5.3,2.4-10.5,4.8-15,8.7c-11.2,9.7-13.3,22.8-5.5,35.2c0.5,0.8,1,1.7,1.6,2.5
		c3.2,4,4.3,7.6,2.1,13c-3,7.2-1.9,15.4-3.1,23.1c-1,6.7-1.8,13.5-2.3,20.3c-0.3,4.3-2.1,7.1-5.4,9.9
		c-12.5,10.8-21.8,23.7-23.5,40.8c-20.8-13.6-28.2-34.1-28.6-57.6c-0.2-10.7,1.9-21.4,5-31.8C293.8,1086.9,294.9,1085.4,293.1,1084z
		"/>
	<path class="st95" d="M408,1135c-2.7,6.2-1.2,8.6,5.1,8c8.2-0.7,9.5,0.3,10.7,8.5c0.4,2.4,0.8,4.9,0,7.3
		c-11.4,1.4-22.2,14.3-22.9,27.1c-0.6,12.7-13.4,24.6-25.6,24.1c-4.1-0.2-6.9-3.1-10.6-3.9c-11.2-13.3-14.4-28.6-12.3-45.7
		c2.9-22.9,5.1-45.9,7.4-68.9c0.5-4.6,1.6-8.7,5.9-10.8c15.5-7.5,28.8-18.5,43.7-27c7.4-4.2,14.7-8.5,23.1-10.5
		c5.8-1.4,8.7-0.1,10.2,5.6c2,7.7,2.5,15.4-2.8,22.3c-0.4-0.8-1.1-1.3-2-1.1c-14.3,4.1-27.4,10.2-37.3,21.8c-2,2.3-4.4,5.3-1.8,8.9
		c-1.1,7.2,4.7,8.6,9.5,5.7c2.5-1.5,5.2-2.8,7.8-4.3c3.7-2.1,6.3-1,7.9,2.7c1.4,3.4,2.4,6.9,1.5,10.6c-8,2.6-13.3,8.4-17.6,15.3
		C407.3,1132.2,406.3,1133.6,408,1135z"/>
	<path class="st151" d="M293.1,1084c1.8,1.4,0.8,3,0.3,4.5c-3.1,10.4-5.2,21-5,31.8c0.4,23.5,7.8,44,28.6,57.6
		c-0.3,6.1-1.1,12.2-1.1,18.4c0,8.1,0.8,16.2,2,25.5c-7.5-6.6-12.8-13.5-17.3-21c-9.8-16.3-14.4-34.2-15.5-53
		C283.7,1125.9,286.2,1104.7,293.1,1084z"/>
	<path class="st150" d="M326.4,1207.7c-3-23.4-2.5-45.8,17.4-63.7c-1.2,9.5-2,18.3-2.2,27.1c-0.2,10.6,2.4,20.4,7.8,29.4
		c1,1.7,2.1,3.4,2.3,5.4c-2,3.5,1,6.2,1.5,9.4c0.4,2.7,3.4,6.4,1.8,7.7c-2,1.5-5.9-0.2-8.9-0.8
		C337.4,1220.3,332.3,1213.5,326.4,1207.7z"/>
	<path class="st19" d="M364.8,1206.2c3.7,0.8,6.6,3.7,10.6,3.9c12.2,0.5,24.9-11.4,25.6-24.1c0.6-12.9,11.5-25.7,22.9-27.1
		c-0.4,3.8-3.4,5.9-6,7.5c-7.7,4.7-9.1,12.1-10,20.1c-1.2,10.7-2.6,21.4-7.6,31.3c-3.2,6.3-8.7,9-14.7,11.1c-2.7,1-5.1,0.2-7.3-2.5
		c-3.9-4.8-7.9-9.4-11.2-14.6C366,1209.9,364.9,1208.3,364.8,1206.2z"/>
	<path class="st19" d="M326.4,1207.7c5.9,5.7,10.9,12.6,19.7,14.4c3,0.7,6.9,2.3,8.9,0.8c1.6-1.2-1.3-4.9-1.8-7.7
		c-0.5-3.1-3.5-5.8-1.5-9.4c4.9,5,7.6,11.6,12.2,16.8c0.3,0.4,0.6,0.8,0.8,1.2c1.9,3.1,6.6,4.5,6.1,9.1c-0.5,4.8-4.6,7.9-6.2,12.3
		c-0.6,1.7-2.3,1.7-3.9,1.3c-7.6-1.7-15-4.2-22-7.6c-2.9-1.4-5.3-3.5-6.7-6.5C328.5,1224.7,326.8,1216.4,326.4,1207.7z"/>
	<path class="st150" d="M352.2,1054.9c-0.2-8.2,4.8-13,11.1-16.8c2.2-1.4,4.7-2.4,7.2-3.2c5.8-1.9,9-0.6,11.8,4.8
		c1.4,2.6,2.9,5.2,3.4,8.2c-2.3-0.1-3.5,1.5-5,2.9C370,1060.7,364.6,1061.5,352.2,1054.9z"/>
	<path class="st27" d="M399,1101c-2.5-3.6-0.1-6.7,1.8-8.9c9.8-11.6,23-17.7,37.3-21.8c0.9-0.3,1.6,0.2,2,1.1
		c-2.1,6.6-7.6,9.7-13.1,12.7C417.3,1089.1,408,1094.8,399,1101z"/>
	<path class="st101" d="M352.2,1054.9c12.4,6.7,17.8,5.9,28.5-4.2c1.4-1.4,2.7-2.9,5-2.9c3.6,6.2,3.5,6.3-2.2,10.2
		c-6.4,4.3-13,8.4-19.9,12c-2.8,1.5-4.6,1.2-5.9-1.7C355.7,1063.9,351.6,1060.3,352.2,1054.9z"/>
	<path class="st101" d="M408,1135c-1.7-1.3-0.7-2.8,0-4c4.3-6.9,9.6-12.7,17.6-15.3c0.5,5-2,8.6-5.5,11.7
		C416.6,1130.6,412.5,1133.2,408,1135z"/>
</g>
</svg>
