<svg xmlns="http://www.w3.org/2000/svg" width="248" height="36" fill="none"><path fill="#000" d="M70.798 15.546c7.21.807 11.968 2.346 11.968 8.038 0 4.385-4.19 8.385-12.383 8.385C61.7 31.969 58 27.123 58 22.123h4.38c.075 2.384 1.736 6.153 8.003 6.153 6.154 0 7.852-2.576 7.852-4.461 0-2.385-1.736-3.577-7.89-4.192-7.55-.77-11.288-3.116-11.288-7.731 0-4.23 4.153-7.616 11.364-7.616 7.814 0 11.023 4.231 11.137 8.616h-4.229c0-2.077-1.85-4.923-6.984-4.923-5.248 0-6.758 2.077-6.758 3.692 0 1.654.83 3.154 7.211 3.885zm14.751 10.615c0-4.5 3.7-5.885 7.928-6.154 3.964-.269 9.023.077 8.985-1.884-.038-1.616-.981-3.231-6.116-3.231-4.228 0-5.7 1.308-6.04 3.23h-4.153c.83-4.5 4.946-6.46 10.344-6.46 5.286 0 10.193 1.537 10.193 8.768v11.231h-4.228v-1.885c0-.73.189-1.269.415-2.307.076-.346.227-.693-.037-.77-.227-.076-.34.193-.491.385-1.926 2.846-4.908 4.885-9.212 4.885-4.19 0-7.588-2.462-7.588-5.808zm16.913-5.115c-1.283 1.461-5.248 1.654-8.494 2.077-2.567.346-4.19 1.038-4.19 2.846 0 1.577 1.774 2.846 5.21 2.461 3.586-.384 7.436-3.346 7.474-7.384zm21.687-9.385c5.021 0 8.607 2.539 8.607 8.308V31.66h-4.228V21.046c0-4.577-2.379-5.846-5.512-5.846-3.436 0-7.173 3.192-7.173 7.884v8.577h-4.228V3.97h4.228v9.615c0 .808-.076 1.616-.415 2.616-.114.346-.265.692.037.807.227.077.302-.192.416-.346 1.359-2.038 4.039-5 8.268-5zm12 14.5c0-4.5 3.7-5.885 7.928-6.154 3.964-.269 9.023.077 8.985-1.884-.038-1.616-.981-3.231-6.116-3.231-4.228 0-5.7 1.308-6.04 3.23h-4.153c.831-4.5 4.946-6.46 10.344-6.46 5.286 0 10.194 1.537 10.194 8.768v11.231h-4.229v-1.885c0-.73.189-1.269.416-2.307.075-.346.226-.693-.038-.77-.227-.076-.34.193-.491.385-1.925 2.846-4.908 4.885-9.212 4.885-4.19 0-7.588-2.462-7.588-5.808zm16.913-5.115c-1.283 1.461-5.247 1.654-8.494 2.077-2.567.346-4.191 1.038-4.191 2.846 0 1.577 1.775 2.846 5.21 2.461 3.587-.384 7.437-3.346 7.475-7.384zm13.162-4.231c1.321-3.192 4.115-5.154 8.985-5.154v4.077c-5.625-.385-9.061 2.27-9.061 7.423v8.5h-4.228V11.97h4.228v1.923c0 .808-.113 1.423-.415 2.577-.076.307-.189.615.113.692.189.038.302-.154.378-.346zm10.276 9.346c0-4.5 3.7-5.885 7.928-6.154 3.964-.269 9.023.077 8.985-1.884-.038-1.616-.981-3.231-6.116-3.231-4.228 0-5.7 1.308-6.04 3.23h-4.153c.831-4.5 4.946-6.46 10.344-6.46 5.286 0 10.193 1.537 10.193 8.768v11.231h-4.228v-1.885c0-.73.189-1.269.415-2.307.076-.346.227-.693-.037-.77-.227-.076-.34.193-.491.385-1.925 2.846-4.908 4.885-9.212 4.885-4.19 0-7.588-2.462-7.588-5.808zm16.913-5.115c-1.283 1.461-5.247 1.654-8.494 2.077-2.567.346-4.191 1.038-4.191 2.846 0 1.577 1.775 2.846 5.21 2.461 3.587-.384 7.437-3.346 7.475-7.384zm47.279 10.615h-4.983l-2.341-6.308h-14.346l-2.341 6.308h-4.983L222.42 4.584h7.55l10.722 27.077zM225.515 7.97l-5.096 13.692h11.552L226.875 7.97c-.189-.5-.265-.962-.378-1.616-.038-.23-.038-.461-.302-.461s-.264.23-.302.461c-.113.654-.189 1.116-.378 1.616zM248 4.584v27.077h-4.53V4.584H248z"/><path fill="#283332" fill-rule="evenodd" d="M24.477 13.472c0 8.018-.021 9.42-.14 9.288-.078-.085-1.634-2.742-3.458-5.904-5.583-9.675-5.935-10.274-6.032-10.274-.118 0-3.125 1.69-3.184 1.79-.024.041.91 1.727 2.077 3.747l4.696 8.13c1.417 2.451 2.554 4.48 2.527 4.508-.027.028-3.732-2.08-8.233-4.685l-8.183-4.736-.92 1.591c-.505.875-.919 1.624-.918 1.665 0 .04.38.293.843.56l8.201 4.738 7.359 4.25-9.556.054L0 28.247v3.726L9.718 32l9.72.027 3.435-3.407c1.89-1.874 3.463-3.407 3.496-3.407.055 0 2.88 2.772 5.16 5.062.534.537 1.16 1.15 1.39 1.362l.42.386 9.698-.025 9.699-.025v-3.726l-9.556-.053-9.556-.053 8.202-4.738c4.511-2.606 8.19-4.79 8.176-4.853-.014-.063-.417-.796-.895-1.628-.617-1.077-.914-1.501-1.027-1.47-.161.043-14.958 8.565-15.861 9.133-.267.169-.486.26-.486.204 0-.056 2.095-3.726 4.654-8.154 2.56-4.428 4.663-8.102 4.676-8.165.02-.109-2.836-1.877-3.044-1.883-.084-.003-7.372 12.315-9.113 15.403-.272.481-.529.877-.57.878-.043.002-.077-4.237-.077-9.419V4.027h-3.781v9.445z" clip-rule="evenodd"/></svg>