<?xml version="1.0" encoding="utf-8"?>
<!-- Generator: Adobe Illustrator 25.0.0, SVG Export Plug-In . SVG Version: 6.00 Build 0)  -->
<svg version="1.1" id="图层_1" xmlns="http://www.w3.org/2000/svg" xmlns:xlink="http://www.w3.org/1999/xlink" x="0px" y="0px"
	 viewBox="0 0 1200 1600" style="enable-background:new 0 0 1200 1600;" xml:space="preserve">
<style type="text/css">
	.st0{fill:#060604;}
	.st1{fill:#EDCF5D;}
	.st2{fill:#FBF1EE;}
	.st3{fill:#ECCF5D;}
	.st4{fill:#F4FB95;}
	.st5{fill:#A0918B;}
	.st6{fill:#FBFBFB;}
	.st7{fill:#927233;}
	.st8{fill:#935A40;}
	.st9{fill:#623C2A;}
	.st10{fill:#FEFEFE;}
	.st11{fill:#040302;}
	.st12{fill:#090805;}
	.st13{fill:#9C5B46;}
	.st14{fill:#070705;}
	.st15{fill:#ECCE5D;}
	.st16{fill:#F2F2F2;}
	.st17{fill:#93583F;}
	.st18{fill:#A1918B;}
	.st19{fill:#513123;}
	.st20{fill:#FAFAFA;}
	.st21{fill:#030202;}
	.st22{fill:#060605;}
	.st23{fill:#A0908A;}
	.st24{fill:#937234;}
	.st25{fill:#E6C95B;}
	.st26{fill:#864E37;}
	.st27{fill:#513124;}
	.st28{fill:#B0603E;}
	.st29{fill:#FAF0ED;}
	.st30{fill:#F9F9F9;}
	.st31{fill:#917133;}
	.st32{fill:#9E8F89;}
	.st33{fill:#E7CA5B;}
	.st34{fill:#92583F;}
	.st35{fill:#050503;}
	.st36{fill:#FCFBFB;}
	.st37{fill:#080704;}
	.st38{fill:#070605;}
	.st39{fill:#FAF1ED;}
	.st40{fill:#F4FA95;}
	.st41{fill:#F8F8F7;}
	.st42{fill:#90573E;}
	.st43{fill:#030302;}
	.st44{fill:#080805;}
	.st45{fill:#FBF1ED;}
	.st46{fill:#FBFBFA;}
	.st47{fill:#927234;}
	.st48{fill:#F69376;}
	.st49{fill:#7B2D2D;}
	.st50{fill:#FCFCFC;}
	.st51{fill:#EF5A2D;}
	.st52{fill:#F0CC2D;}
	.st53{fill:#9F8F8A;}
	.st54{fill:#FAFAF9;}
	.st55{fill:#F2A78E;}
	.st56{fill:#040403;}
	.st57{fill:#070604;}
	.st58{fill:#A0908B;}
	.st59{fill:#F7F7F7;}
	.st60{fill:#E8CB5B;}
	.st61{fill:#8F563E;}
	.st62{fill:#513224;}
	.st63{fill:#080705;}
	.st64{fill:#FCFCFB;}
	.st65{fill:#F9F8F8;}
	.st66{fill:#FAF0EC;}
	.st67{fill:#9F908A;}
	.st68{fill:#91573E;}
	.st69{fill:#070704;}
	.st70{fill:#F5FC96;}
	.st71{fill:#9C9C53;}
	.st72{fill:#9A9A52;}
	.st73{fill:#F2F994;}
	.st74{fill:#A17628;}
	.st75{fill:#90573F;}
	.st76{fill:#090806;}
	.st77{fill:#523123;}
	.st78{fill:#7C4031;}
	.st79{fill:#ED866D;}
	.st80{fill:#F3E9E6;}
	.st81{fill:#4F3023;}
	.st82{fill:#060606;}
	.st83{fill:#89533B;}
	.st84{fill:#050403;}
	.st85{fill:#090909;}
	.st86{fill:#EDCF5E;}
	.st87{fill:#050504;}
	.st88{fill:#060504;}
	.st89{fill:#955A41;}
	.st90{fill:#080703;}
	.st91{fill:#090807;}
	.st92{fill:#070603;}
	.st93{fill:#0A0905;}
	.st94{fill:#937335;}
	.st95{fill:#955A40;}
	.st96{fill:#955940;}
	.st97{fill:#EDD05E;}
	.st98{fill:#8F7032;}
	.st99{fill:#945940;}
	.st100{fill:#EED05E;}
	.st101{fill:#503123;}
	.st102{fill:#EEEEEE;}
	.st103{fill:#0D0C0A;}
	.st104{fill:#E3C659;}
	.st105{fill:#967535;}
	.st106{fill:#9D7D38;}
	.st107{fill:#745A29;}
	.st108{fill:#847334;}
	.st109{fill:#907134;}
	.st110{fill:#E5C85B;}
	.st111{fill:#503124;}
	.st112{fill:#927133;}
	.st113{fill:#E0DDD4;}
	.st114{fill:#987836;}
	.st115{fill:#977636;}
	.st116{fill:#CCC4A4;}
	.st117{fill:#523224;}
	.st118{fill:#0B0908;}
	.st119{fill:#8F7135;}
	.st120{fill:#050404;}
	.st121{fill:#EDD05D;}
	.st122{fill:#F3FA94;}
	.st123{fill:#9A9A51;}
	.st124{fill:#999951;}
	.st125{fill:#937334;}
	.st126{fill:#FAF0EE;}
	.st127{fill:#F3FA95;}
	.st128{fill:#989851;}
	.st129{fill:#A2792A;}
	.st130{fill:#F1F893;}
	.st131{fill:#A17729;}
	.st132{fill:#050502;}
	.st133{fill:#947335;}
	.st134{fill:#917233;}
	.st135{fill:#9B9B52;}
	.st136{fill:#F9EFEC;}
	.st137{fill:#9A782F;}
	.st138{fill:#979752;}
	.st139{fill:#F2F893;}
	.st140{fill:#8C8E4F;}
	.st141{fill:#B5B96E;}
	.st142{fill:#0F0F09;}
	.st143{fill:#9C9C52;}
	.st144{fill:#F5FB95;}
	.st145{fill:#F3F994;}
	.st146{fill:#A17728;}
	.st147{fill:#917134;}
	.st148{fill:#090706;}
	.st149{fill:#8E6F32;}
	.st150{fill:#93593F;}
	.st151{fill:#907033;}
	.st152{fill:#060505;}
	.st153{fill:#C8C3AF;}
	.st154{fill:#533324;}
	.st155{fill:#533426;}
	.st156{fill:#0E0C0A;}
	.st157{fill:#907133;}
	.st158{fill:#583627;}
	.st159{fill:#0A0907;}
	.st160{fill:#573526;}
	.st161{fill:#0C0B09;}
	.st162{fill:#503023;}
	.st163{fill:#543325;}
	.st164{fill:#B7B3A1;}
</style>
<g>
	<path class="st100" d="M651.8,1290.1c-19.5,6.8-38.9,13.8-59.3,17.3c-18.5,3.2-37.1,5.4-55.8,6.8c-11.6,0.8-23.1,1.5-34.8,1.1
		c-29.6-0.8-58.4-6.3-86.7-14.7c-17.8-5.3-34.7-12.4-51.2-20.8c0-1,0-1.9-0.7-2.8c-11.2-12.2-18.9-26.9-27.5-40.9
		c-18.1-29.6-31.1-61.3-35.1-96.1c3.6-1.5,4.7-5.1,6.3-8.1c6.6-12.3,13.8-24,25.4-32.2c27.2-19.3,58.1-29,90.7-33.8
		c22.5-3.4,45.2-4.9,67.8-7.9c40.6-5.3,78.5-18.3,113.9-39c26.9-15.8,51.4-34.4,70.9-59.1c2.5-3.2,4.2-7.2,8.2-9.1l0.3,0.3
		c0.7,1.6-1.7,3.2-0.1,4.9c-0.2,0.6-0.3,1.2-0.5,1.8c-2.1,2.4-3.2,5-2.5,8.2c-0.2,0.6-0.3,1.2-0.5,1.8c-3.6,4.7-4.2,10.6-6,15.9
		c-0.8,2.6-2.9,5.2-1.5,8.3c-0.2,0.6-0.3,1.2-0.5,1.8c-1.2,0.4-1.9,1-0.6,2.2c-0.2,0.6-0.3,1.2-0.5,1.8c-1.2,0.5-1.8,1.1-0.6,2.2
		c-0.1,0.6-0.3,1.2-0.4,1.8c-1.2,0.5-1.8,1.1-0.5,2.2c-0.1,0.6-0.2,1.2-0.4,1.8c-1.2,0.5-1.9,1.1-0.6,2.2c-0.1,0.6-0.3,1.2-0.4,1.8
		c-2,2.1-2.8,4.4-1.6,7.2c-0.1,0.6-0.2,1.2-0.4,1.8c-1.6,0.8-2,1.8-0.7,3.2c-0.1,0.6-0.2,1.2-0.3,1.8c-1.5,0.8-2,1.8-0.6,3.2
		c-0.1,0.6-0.2,1.2-0.3,1.8c-1.6,0.8-2,1.8-0.6,3.2c-0.1,0.9-0.3,1.9-0.4,2.8c-1.5,0.8-2,1.8-0.6,3.2c-0.2,0.9-0.3,1.8-0.5,2.8
		c-1.5,0.9-1.9,1.9-0.5,3.2c-0.1,0.9-0.3,1.9-0.4,2.8c-1.6,0.8-2,1.8-0.6,3.2c-0.1,0.9-0.3,1.9-0.4,2.8c-1.8,1.2-1.9,2.6-0.6,4.2
		c-0.1,0.9-0.3,1.8-0.4,2.8c-1.5,0.8-1.9,1.9-0.6,3.2c-0.1,0.9-0.2,1.9-0.3,2.8c-2.1,1.5-2,3.3-0.7,5.2c-0.1,1.3-0.3,2.5-0.4,3.8
		c-2,1.5-1.9,3.3-0.6,5.2c-0.1,0.9-0.2,1.9-0.3,2.8c-2.2,2.2-2,4.6-0.7,7.2c-0.1,1.6-0.3,3.2-0.4,4.8c-2.1,2.3-2,4.7-0.6,7.2
		c-0.1,3.3-0.3,6.5-0.4,9.8c-2,2-2,4.1-0.1,6.2c-0.7,18.5,4.3,35.3,14,51.1c5.1,8.4,11,16.2,17.1,23.9c10.2,12.8,16.3,27.3,18,43.6
		c1,9.2-1.9,18.2-1.7,27.3c-7.3,6.1-15,11.5-23.8,15.1C669.2,1282.6,660.5,1286.4,651.8,1290.1z"/>
	<path class="st103" d="M671.5,997.7c0.2-0.6,0.3-1.2,0.5-1.8c1-0.5,1.1-1.3,0.6-2.2c0.2-0.6,0.3-1.2,0.5-1.8
		c3.3-7.8,5.9-15.9,7.5-24.2c0.2-0.6,0.3-1.2,0.5-1.8c1.8-2.5,2.7-5.2,2.5-8.2c0.2-0.6,0.3-1.2,0.5-1.8c3.6-6.6,4.8-13.9,6.1-21.3
		c-2-0.1-2.7,1.3-3.4,2.3c-10.2,12.6-21.6,23.9-34.7,33.6c-30,22.3-62.3,40.7-97.6,52.8c-35.6,12.3-73.2,14.6-110.6,16.7
		c-7.8,0.4-15.6,0.6-23.4,1.2c-19.7,1.4-39.3,3.1-58.8,6.7c-16,3-32,5.7-47.5,10.8c-5.1,1.7-8.2,4.7-9.8,10.1
		c-6.9,23.4-7.9,47.1-3.7,71.1c3.9,34.9,17,66.5,35.1,96.1c8.5,14,16.3,28.6,27.5,40.9c0.8,0.8,0.8,1.8,0.7,2.8
		c-2.7,3.5-5.7,3-8.4,0.2c-2.6-2.8-5.4-5.5-7.4-8.7c-15.9-25.1-33.3-49.4-43.8-77.6c-13.2-35.6-18.5-72.1-12.3-109.8
		c0.7-4.2,2.1-8.4,3-12.6c0.3-1.3,1.8-2.8,0.1-4.1c-1.2-0.9-2.6-0.1-3.8,0.4c-11.8,4.4-22.9,10-33,17.5c-1.7,1.3-3.4,2.6-5.2,4
		c-3,2.2-6.1,3.5-9.7,1.7c-3.4-1.7-3.6-5-3.8-8.2c-2-31.5,1.5-62.3,11.7-92.1c10.4-30.5,25.1-58.6,48.5-81.1
		c19.4-18.6,42.6-31.3,68.2-39.5c11.1-3.5,22.7-2.7,34.1-4c39.3-4.7,77.3-13.8,114-28.6c16.6-6.7,32.3-15.1,48.5-22.4
		c18-8.1,36.5-12.5,56.4-8.9c13.3,2.4,25.8,6.9,37,14.4c8.6,5.7,17.3,7.3,27,4.8c4.1-1.1,8.2-1.4,12.3,0.2c1.7,0.7,3.2,0.6,4.5-0.8
		c13.5-14,31.1-17.1,49.4-18.3c14.4-1,28.4-3.8,42.1-8.2c7.8-2.5,11.8,0.1,12.7,8.2c0.4,3.7,0.4,7.4-0.3,11
		c-3.1,14.5-8.9,27.9-17,40.3c-2,3.1-4.3,5.9-7.5,8c-2.4,1.6-2.3,3.1,0.3,4.4c6.6,3.1,11.7,8.1,17.1,12.8c5.9,5.2,12.6,8.7,20.6,9.4
		c2.1,0.2,4.3,0.8,6.3,1.6c3.6,1.5,5,4.7,3,7.7c-13.1,19.6-25.9,39.5-48.9,49.1c-18.5,7.7-37.7,9.5-57.4,6.2
		c-7.2-1.2-14.5-2.2-21.7-3.4c-3.2-0.5-4.8,0.5-5.8,3.7c-14.6,48.5-25.2,97.7-28.3,148.4c-0.6,10-0.9,20,0.3,29.9
		c0.6,4.5,3,6.2,7.1,6.8c6.2,0.9,12.3-0.1,18.3-1.6c35.7-9.4,67.2-27.3,96.5-49.1c17-12.6,33.4-26,49.2-40.1
		c14.8-13.2,30.8-25,47.4-35.8c14.2-9.3,29.5-16.4,46.7-17.6c24.6-1.8,41.7,8.5,51.8,31c7.5,16.8,9.1,34.5,6.5,52.4
		c-6.2,42.6-19.3,82.9-39.9,120.8c-34.6,63.7-84.9,111.7-146.1,149.3c-25,15.4-50.7,29.4-77,42.5c-8.1,4-16.6,6.9-25.1,9.9
		c-0.5,0.2-1,0.4-1.4,0.4c-2.3,0.2-4.9,1-6.4-1.4c-1.6-2.7,1.5-3.6,2.5-5.3c1.1,0.5,1.9-0.3,2.7-0.7c16.1-9.9,33.1-18.3,49.9-26.9
		c6.9-3.5,13.8-7.2,20.2-11.7c6.4-2.9,12.2-6.9,18.2-10.5c18-11,35.8-22.4,52.7-35.3c0.9,0,1.6-0.4,1.9-1.3l0.1-0.1
		c0.3-0.3,0.7-0.5,1-0.8l0,0c0.6,0,1-0.3,1.1-0.9l0,0c0.6,0,1-0.3,1.1-0.9l0,0c0.9,0,1.5-0.4,1.8-1.3l0.1-0.1c0.3-0.3,0.7-0.6,1-0.9
		l0,0c0.6,0,1-0.3,1.1-0.9l0,0c0.6,0,1-0.3,1.1-0.9l0,0c1.3-0.2,2.2-1,2.8-2.2l0.1,0c0.3-0.3,0.7-0.6,1-0.9l0,0c0.6,0,1-0.3,1-1l0,0
		c3.2-1.7,5.8-4.1,8-7l0,0c0.6,0,1-0.3,1-1l0,0c0.7,0,1-0.3,1-1l0,0c11.9-9.5,21.7-21.1,31.6-32.6c1.1-1.3,1.5-2.9,1.3-4.6
		c3-8.5,6.3-16.9,8.9-25.5c3.6-12,6.5-24.1,6.9-36.7c0.3-10.3-2.3-14.1-11.9-17.3c-6.3-2.1-7.8-5-5.5-11.4c2.7-7.5,5.4-15,6.9-22.9
		c3.2-17-4-29.9-19.8-35.5c-3-1.1-4.9-2.9-4.5-6.3c0.4-4.5,1.1-8.9,1.5-13.4c1.1-10.3,0.7-20.4-4.8-29.5
		c-5.4-8.9-13.3-10.3-21.2-3.7c-16,13.3-31.6,27-48,39.9c-22.1,17.4-45.7,32.3-71.1,44.2c-17.5,8.2-35.7,14.7-55.2,16.6
		c-6.2,0.6-6.4,0.8-3.9,6.7c4.1,9.4,10.7,17.2,17,25.2c20.8,26.3,27.3,55.3,16.3,87.6c-5.7,1.5-7.3,0.6-8.2-5.2
		c-0.2-1-0.3-1.9-0.4-2.9c-0.2-9.2,2.6-18.1,1.7-27.3c-1.7-16.3-7.8-30.8-18-43.6c-6.1-7.7-12-15.5-17.1-23.9
		c-9.6-15.8-14.7-32.6-14-51.1c1.1-2,0.9-4.1,0.1-6.2c0.1-3.3,0.3-6.5,0.4-9.8c1.5-2.3,1.2-4.7,0.6-7.2c0.1-1.6,0.3-3.2,0.4-4.8
		c1.5-2.3,1.2-4.7,0.7-7.2c0.1-0.9,0.2-1.9,0.3-2.8c1.5-1.6,1.2-3.4,0.6-5.2c0.1-1.3,0.3-2.5,0.4-3.8c1.5-1.6,1.2-3.4,0.7-5.2
		c0.1-0.9,0.2-1.9,0.3-2.8c1.2-0.9,1.2-2,0.6-3.2c0.1-0.9,0.3-1.8,0.4-2.8c1.4-1.2,1.2-2.7,0.6-4.2c0.1-0.9,0.3-1.9,0.4-2.8
		c1.2-0.9,1.2-2,0.6-3.2c0.1-0.9,0.3-1.9,0.4-2.8c1.2-0.9,1.1-2,0.5-3.2c0.2-0.9,0.3-1.8,0.5-2.8c1.2-0.9,1.2-2,0.6-3.2
		c0.1-0.9,0.3-1.9,0.4-2.8c1.2-0.9,1.1-2,0.6-3.2c0.1-0.6,0.2-1.2,0.3-1.8c1.2-0.9,1.2-2,0.6-3.2c0.1-0.6,0.2-1.2,0.3-1.8
		c1.3-0.8,1.2-2,0.7-3.2c0.1-0.6,0.2-1.2,0.4-1.8c1.4-2.2,2.2-4.6,1.6-7.2c0.1-0.6,0.3-1.2,0.4-1.8c1-0.5,1.1-1.3,0.6-2.2
		c0.1-0.6,0.2-1.2,0.4-1.8c1-0.6,1.1-1.3,0.5-2.2c0.1-0.6,0.3-1.2,0.4-1.8C672,999.4,672,998.7,671.5,997.7z M355.4,886.6
		c-1.8,0.5-3.6,0.9-4.7,2.5c-0.9,0.4-1.8,0.8-2.6,1.2c-4.7,0.9-8.3,3.8-12.3,6.1c-29.6,16.7-49.7,41.9-63.4,72.6c-1.4,3-2.9,6-4.1,9
		c-3.3,8.2-6.6,16.5-8.7,25.2c-2.8,9.8-5,19.7-6.5,29.9c-1,0.6-1,1.3-0.3,2.2c-0.2,1.9-0.5,3.9-0.7,5.8c-1.2,1-1.1,2-0.3,3.2
		c-0.2,3.3-0.5,6.5-0.7,9.8c-2,6.3-0.7,12.7-0.7,19.1c0,1.6,1.3,2.9,2.9,0.7c10.5-7.2,21.6-13,33.5-17.3c1.1,0.6,1.9,0.2,2.4-0.9
		c2.4-1.3,5.4-1.3,7.3-3.6c4.9-0.5,9.1-3.1,13.5-4.8c2.1,0.6,3.9-0.5,5.7-1.1c21.4-7,43.1-12.1,65.6-13.5c5.8-0.4,11.9,0.5,17.6-1.9
		c0.6,0,1.2-0.1,1.8-0.1c4.7,0.9,9.5,0.4,14.2-0.1c6.6-0.8,13.4,0.3,19.9-1.8c0.6-0.1,1.2-0.1,1.8-0.2c3.5,0.5,6.9,0.9,10.2-0.8
		c2-0.2,4-0.4,6-0.6c2.9,1.2,5.6,0.8,8.3-0.6c1.9-0.2,3.8-0.3,5.7-0.5c2.1,1.1,4.1,1.2,6-0.4c0.9-0.1,1.8-0.1,2.8-0.2
		c3.2,0.8,6.3,0.9,9.2-0.7c0.9-0.1,1.8-0.1,2.8-0.2c1,0.1,2,0.4,2.9,0.3c22.7-2.4,45.4-5.6,66.6-14.2c32-12.9,62.4-29,89.7-50.3
		c1.9-1.5,4.5-2.3,5.3-5c0.2-0.1,0.4-0.3,0.6-0.5c2.3,0,3.4-1.9,4.7-3.2c5.9-6.1,12.9-11.2,17.2-18.8c0.2-0.2,0.4-0.4,0.5-0.6
		c0.6-0.3,1.3-0.5,1.7-1c14.9-18,26.2-37.7,29.5-61.2c0.3-2.4-0.4-4.6-0.9-6.9c-0.2-1.1-0.4-2.6-1.9-2.6c-1.4,0-1.5,1.5-2,2.5
		c-4.9,10.7-10.6,21.1-16.8,31.2c-4.5,7.3-11.1,12.7-16.3,19.3c-0.2,0.1-0.4,0.3-0.6,0.5c-1.5-0.1-2.5,0.6-3.1,1.9
		c-0.7,0.1-1.4,0.2-2,0.3c-1.6-2.4-1.5-4.6,0.6-6.7c1-1,2.3-1.9,2.4-3.6c0.2-0.1,0.3-0.3,0.3-0.5c1.9-1,3.4-2.2,3.8-4.5
		c0.2-0.1,0.3-0.3,0.2-0.5c1.9-0.7,2.6-2.5,3.7-4c6.9-10.3,12.2-21.4,17.2-32.6c3-6.7,5.3-13.7,6.7-20.9c1.2-6.1-2.4-9.5-8.6-8.6
		c-0.5,0.1-1,0.2-1.4,0.4c-13,3.3-24.6,1.2-36.1-6.2c-13.9-9-29.6-13.6-46.4-13.1c-13.9,0.4-26.8,5.1-39,11.3
		c-21.3,10.8-42.9,20.6-65.3,28.7c-26.4,9.6-53.7,15.5-81.4,19.4c-12.1,1.7-24.2,3.5-36.7,2.9c-6.3-0.3-12.9,1.2-18.4,5.1
		c-0.5,0.1-0.9,0.3-1.4,0.4C360.3,883.8,357.5,884.4,355.4,886.6z M771.2,813.4c-1.5-0.6-3-0.7-4.2,0.7c-0.6,0.1-1.2,0.2-1.8,0.3
		c-2.2-0.7-4.3-0.8-6.2,0.7c-1.3,0.1-2.6,0.2-3.8,0.3c-4.1-0.7-8.2-0.8-12.2,0.7c-1.3,0.1-2.5,0.3-3.8,0.4c-1.5-0.7-3-0.8-4.2,0.6
		c-0.6,0.1-1.2,0.2-1.8,0.3c-9.4,1.2-17.7,5-24.9,11.1c-0.8,0.7-1.5,1.6-1.1,2.6c2,4.6,2.3,9.3,0.9,14.1c-0.3,1,0.3,2,1.1,2.7
		c6.1,5.5,8.4,12.6,8.7,20.5c0.1,2.3,0.9,3.2,3.1,1.9c13.4-8.4,28.2-7.7,43-6.2c6.3,0.7,11.1-2,13.9-8.1c0.2-0.2,0.3-0.4,0.4-0.6
		c1.2-0.3,1.8-1.1,1.6-2.4c0.2-0.2,0.3-0.4,0.4-0.7c1.8-0.9,2.6-2.4,2.6-4.3c0.9-1.8,1.8-3.7,2.7-5.5c5-8.6,8.9-17.6,9.8-27.7
		c0.1-1.3,0.3-2.5,0.4-3.8c1.5-2.3,0.9-4.4-1.9-3.7c-5.4,1.5-11,2-16,4.7c-0.6,0.1-1.2,0.2-1.8,0.4c-1.2-0.6-2.3-0.6-3.2,0.6
		C772.4,813.2,771.8,813.3,771.2,813.4z M810,912c0.5-0.6,0.9-1.1,1.4-1.7c1.6-0.5,2.6-1.6,2.6-3.4c0.2-0.2,0.4-0.4,0.5-0.6
		c2.2-1.1,3.9-2.9,3.2-5.3c-0.4-1.6-2.4-1.3-3.8-0.7c-0.6-0.1-1.2-0.2-1.8-0.2c-3.7-1.4-7.3-2.7-11-4.1c-0.9-0.5-1.7-1-2.6-1.6
		c-0.3-1.2-1.1-1.7-2.3-1.6c-0.6-0.4-1.2-0.9-1.7-1.3c-0.8-1.9-2.1-3.3-4.3-3.7c-1.6-1.4-3.2-2.8-4.8-4.2c-0.2-1.3-0.9-1.9-2.2-1.8
		c-1.2-0.8-2.4-1.6-3.7-2.4c-1.1-2.2-3.4-2.6-5.3-3.4c-11.2-4.6-23.1-5.3-34.8-3.6c-13.5,2-24.5,7.2-27.8,22.9
		c-3,14.8-8,29.2-12,43.8c-0.5,1.6-1.6,4.3,1.1,4.5c5.3,0.4,10.3,2.9,15.7,1.8c0.9,0.1,1.9,0.2,2.8,0.3c2.3,1.5,4.7,1.3,7.2,0.8
		c0.6,0.1,1.2,0.2,1.8,0.3c1.9,1.6,4,1.4,6.2,0.7c1.2,0,2.4,0,3.6,0c4.4,0.8,8.9,1.1,13.2-0.8c0.6-0.1,1.2-0.2,1.8-0.2
		c1.5,0.6,3,0.7,4.2-0.7c0.6-0.1,1.2-0.2,1.8-0.3c8.5-0.8,16.5-3.2,23.6-8.2c0.9-0.5,1.7-1,2.6-1.5c1.3,0.3,2-0.3,2.4-1.5
		c0.2-0.1,0.5-0.3,0.6-0.4c1.3,0.2,2-0.4,2.3-1.7c0.6-0.4,1.1-0.9,1.7-1.3c2.2-0.3,3.6-1.6,4.3-3.7c1.7-1.7,3.3-3.4,5-5
		c2-0.7,3.4-2,3.7-4.2c0.8-0.9,1.5-1.8,2.3-2.7C809,914.8,809.9,913.8,810,912z M911.2,1239.5c1.2-0.2,1.7-0.2,1.8-0.3
		c1.1-1.3,2.2-2.5,3.1-3.9c32.8-45.6,53.1-96.3,62.3-151.5c2.7-16,2.1-32-4-47.2c-4.8-11.9-11.8-22.1-25.2-25.8
		c-10.3-2.9-20.4-1.8-30.5,1.4c-18.8,5.9-34.4,17.4-49.7,29.2c-0.3,0.2-0.3,0.9-0.5,1.4c9.6,2.7,14.4,9.7,17.3,18.6
		c2.9,9,1.4,18.2,0.9,27.3c-0.2,3-1.8,6.2-1.1,8.8c1,3.5,5.4,2.3,8.1,3.7c11.2,5.7,15.2,15.8,16.7,27.3c1.6,12.4-2.7,23.6-7,34.8
		c-1.2,3.2-0.9,4.9,2.8,5.6c9.2,1.7,13.4,8,14.8,16.6c1.4,8.4-0.3,16.6-1.8,24.8C917.5,1219.9,914.7,1229.5,911.2,1239.5z
		 M911.8,1240.3c-0.1-0.1-0.2-0.2-0.3-0.2c-0.1,0.1-0.2,0.2-0.4,0.3c0.2,0.1,0.4,0.1,0.7,0.2
		C911.7,1240.5,911.7,1240.4,911.8,1240.3z"/>
	<path class="st133" d="M701.8,1263.8c0.1,1,0.3,1.9,0.4,2.9c0.9,5.7,2.5,6.7,8.2,5.2c1.9,0.6,2.1,2.4,2.9,3.9
		c4.1,7.8,8.8,15.2,13.4,22.7c13.1,20.8,28.7,39.8,43.2,59.6c-6.4,4.5-13.3,8.1-20.2,11.7c-16.8,8.6-33.8,17-49.9,26.9
		c-0.8,0.5-1.6,1.2-2.7,0.7c-4-2.6-6.2-6.9-8.9-10.6c-14.8-20.7-22.1-44.6-29.1-68.6c-2.7-9.3-4.9-18.7-7.4-28
		c8.7-3.7,17.4-7.5,26.2-11.1C686.8,1275.3,694.5,1269.9,701.8,1263.8z"/>
	<path class="st134" d="M300.6,1139.9c-4.2-24-3.2-47.6,3.7-71.1c1.6-5.5,4.7-8.5,9.8-10.1c15.5-5.1,31.5-7.8,47.5-10.8
		c19.5-3.7,39.1-5.3,58.8-6.7c7.8-0.6,15.6-0.7,23.4-1.2c37.4-2.1,75-4.5,110.6-16.7c35.3-12.1,67.6-30.5,97.6-52.8
		c13.1-9.7,24.5-20.9,34.7-33.6c0.8-1,1.4-2.3,3.4-2.3c-1.3,7.4-2.5,14.7-6.1,21.3c-1.7-1.7,0.7-3.3,0.1-4.9c0.5-0.4,1-1.1,0.4-1.3
		c-0.8-0.4-0.6,0.6-0.7,1.1c-3.9,1.9-5.7,5.9-8.2,9.1c-19.5,24.7-44,43.3-70.9,59.1c-35.3,20.7-73.3,33.6-113.9,39
		c-22.5,3-45.2,4.5-67.8,7.9c-32.7,4.9-63.5,14.6-90.7,33.8c-11.6,8.2-18.8,19.9-25.4,32.2C305.3,1134.9,304.2,1138.4,300.6,1139.9z
		"/>
	<path class="st134" d="M680.5,967.7c-1.6,8.4-4.2,16.4-7.5,24.2c-1.4-3.1,0.7-5.7,1.5-8.3C676.3,978.3,677,972.5,680.5,967.7z"/>
	<path class="st134" d="M683.5,957.7c0.2,3-0.7,5.8-2.5,8.2C680.3,962.8,681.5,960.1,683.5,957.7z"/>
	<path class="st134" d="M655.6,1094.7c0.6,2.5,0.9,4.9-0.6,7.2C653.6,1099.4,653.5,1097,655.6,1094.7z"/>
	<path class="st134" d="M656.6,1082.8c0.5,2.5,0.9,4.9-0.7,7.2C654.7,1087.4,654.4,1085,656.6,1082.8z"/>
	<path class="st134" d="M668.6,1009.8c0.5,2.6-0.2,5-1.6,7.2C665.9,1014.2,666.7,1011.8,668.6,1009.8z"/>
	<path class="st134" d="M654.5,1111.7c0.8,2.1,1,4.2-0.1,6.2C652.6,1115.8,652.6,1113.8,654.5,1111.7z"/>
	<path class="st134" d="M657.5,1074.7c0.6,1.8,0.9,3.6-0.6,5.2C655.6,1078,655.5,1076.3,657.5,1074.7z"/>
	<path class="st134" d="M658.6,1065.8c0.5,1.8,0.8,3.6-0.7,5.2C656.7,1069,656.5,1067.3,658.6,1065.8z"/>
	<path class="st134" d="M660.6,1052.8c0.6,1.5,0.8,3-0.6,4.2C658.7,1055.3,658.8,1053.9,660.6,1052.8z"/>
	<path class="st134" d="M666.7,1018.8c0.5,1.2,0.5,2.4-0.7,3.2C664.6,1020.6,665,1019.5,666.7,1018.8z"/>
	<path class="st134" d="M665.6,1023.8c0.5,1.2,0.6,2.3-0.6,3.2C663.6,1025.6,664.1,1024.6,665.6,1023.8z"/>
	<path class="st134" d="M664.6,1028.8c0.5,1.2,0.6,2.3-0.6,3.2C662.6,1030.6,663,1029.6,664.6,1028.8z"/>
	<path class="st134" d="M663.6,1034.8c0.6,1.2,0.6,2.3-0.6,3.2C661.6,1036.6,662.1,1035.6,663.6,1034.8z"/>
	<path class="st134" d="M662.5,1040.7c0.6,1.2,0.7,2.3-0.5,3.2C660.6,1042.6,661.1,1041.6,662.5,1040.7z"/>
	<path class="st134" d="M659.5,1059.7c0.6,1.2,0.7,2.3-0.6,3.2C657.6,1061.6,658,1060.6,659.5,1059.7z"/>
	<path class="st134" d="M661.6,1046.8c0.6,1.2,0.6,2.3-0.6,3.2C659.6,1048.6,660,1047.6,661.6,1046.8z"/>
	<path class="st134" d="M672.6,993.8c0.5,0.9,0.4,1.7-0.6,2.2C670.7,994.8,671.4,994.2,672.6,993.8z"/>
	<path class="st134" d="M669.6,1005.8c0.5,0.9,0.4,1.7-0.6,2.2C667.7,1006.8,668.4,1006.2,669.6,1005.8z"/>
	<path class="st134" d="M670.5,1001.7c0.5,0.9,0.4,1.7-0.5,2.2C668.7,1002.9,669.3,1002.2,670.5,1001.7z"/>
	<path class="st134" d="M671.5,997.7c0.5,0.9,0.4,1.7-0.6,2.2C669.7,998.9,670.4,998.2,671.5,997.7z"/>
	<path class="st1" d="M770,1358c-14.5-19.8-30.2-38.7-43.2-59.6c-4.7-7.4-9.3-14.9-13.4-22.7c-0.7-1.4-1-3.2-2.9-3.9
		c11-32.2,4.5-61.2-16.3-87.6c-6.3-8-12.9-15.7-17-25.2c-2.6-5.9-2.3-6.1,3.9-6.7c19.5-1.9,37.7-8.4,55.2-16.6
		c25.4-11.9,49-26.8,71.1-44.2c16.4-12.9,32-26.6,48-39.9c7.9-6.6,15.8-5.2,21.2,3.7c5.5,9.1,5.9,19.2,4.8,29.5
		c-0.5,4.5-1.1,8.9-1.5,13.4c-0.3,3.4,1.5,5.2,4.5,6.3c15.8,5.5,23,18.5,19.8,35.5c-1.5,7.9-4.2,15.4-6.9,22.9
		c-2.3,6.4-0.8,9.3,5.5,11.4c9.6,3.2,12.3,7,11.9,17.3c-0.4,12.6-3.3,24.8-6.9,36.7c-2.6,8.6-5.9,17-8.9,25.5
		c-0.8,0.5-1.9,0.8-2.5,1.5c-9,11-17.9,22.1-28.3,32c-1.1,1-2.4,1.9-2.1,3.7c0,0,0,0,0,0c-0.3,0.3-0.7,0.7-1,1c0,0,0,0,0,0
		c-0.3,0.3-0.7,0.7-1,1c0,0,0,0,0,0c-3.4,1.5-6.8,3-8,7c0,0,0,0,0,0c-0.3,0.3-0.7,0.6-1,1c0,0,0,0,0,0c-0.3,0.3-0.7,0.6-1,0.9
		c0,0-0.1,0-0.1,0c-1.5,0-2.5,0.7-2.8,2.2c0,0,0,0,0,0c-0.4,0.3-0.7,0.6-1.1,0.9c0,0,0,0,0,0c-0.4,0.3-0.7,0.6-1.1,0.9c0,0,0,0,0,0
		c-0.3,0.3-0.7,0.6-1,0.9c0,0-0.1,0.1-0.1,0.1c-0.9,0-1.6,0.3-1.8,1.3c0,0,0,0,0,0c-0.4,0.3-0.8,0.6-1.1,0.9c0,0,0,0,0,0
		c-0.4,0.3-0.7,0.6-1.1,0.9c0,0,0,0,0,0c-0.3,0.3-0.7,0.5-1,0.8c0,0-0.1,0.1-0.1,0.1c-0.9,0-1.6,0.4-1.9,1.3
		c-16.8,12.9-34.6,24.3-52.7,35.3C782.2,1351.1,776.4,1355.1,770,1358z"/>
	<path class="st135" d="M363,883.1c0.5-0.1,0.9-0.3,1.4-0.4c9.3,0,18.1-3.5,27.7-3.3c10.3,0.1,21-1.4,31.5-3.2
		c22.7-4,45.3-8.4,67.2-15.5c26.3-8.6,51.3-20.1,76.1-32.4c15.2-7.5,31.1-13,48.8-10.4c12.2,1.8,23.9,5.1,34.1,11.7
		c11.7,7.6,23.8,10.5,37.4,7.3c7.5-1.8,10.1,0.8,8.2,8.2c-3.5,14.1-9.8,27.1-16.7,39.9c-2.8,5.2-7.2,9.5-8.6,15.5
		c0.1,0.2,0,0.4-0.2,0.5c-2.5,0.4-4,1.8-3.8,4.5c0.1,0.2,0,0.4-0.3,0.5c-3.5,0-3.8,4.6-7.1,5c-0.2-1.7-0.2-3.4,0.7-4.9
		c5-8.4,10.1-16.8,15.2-25.1c2.1-1.3,2.6-3.3,3-5.9c-3.3,0.9-4.3,3.3-5.8,5.4c-7.3,7-14.8,13.9-22,21
		c-15.4,15.1-32.2,28.1-51.1,38.8c-36.7,20.8-76.1,32.2-117.6,37.5c-23.4,3-46.8,5.4-70.2,8.4c-23.2,2.9-46.1,2.4-68.6-4.4
		c-6.9-2.1-14.1-5-17.2-11.9c-4.7-10.6-5.5-21.8-2.7-33.2c4.5-18.1,15-32.4,28.5-44.7c2.4-0.7,4.2-2.2,5.9-3.9
		C359.6,887,362.3,886.3,363,883.1z M618.8,844.3c0.4-2.3-0.5-4.6-3-6.3c-1.5-1-3.1-2.3-5-1.4c-2.2,1.1-1.5,3-0.8,4.8
		c0.7,1.7-0.1,2.9-1.3,4c-3.5,3.3-6.8,7-10.6,9.8c-22.9,16.9-49.4,25.9-75.9,34.9c-14.2,4.8-28.8,8-43.3,12c-2,0.6-4.7,1-4.3,3.9
		c0.4,2.7,2.9,3.4,5.4,3.5c1.1,0.1,2.3-0.2,3.5-0.4c30.3-4.6,59.5-12.9,87.6-25c15-6.5,29.6-13.8,41.3-25.6
		C616.1,854.8,619,850.6,618.8,844.3z"/>
	<path class="st4" d="M674.7,881c-5.1,8.4-10.2,16.7-15.2,25.1c-0.9,1.5-0.9,3.2-0.7,4.9c0.5,4.3,0.8,4.8,4.1,5.4
		c0.7-0.1,1.4-0.2,2-0.3c2,1,2.7-0.3,3.1-1.9c0.2-0.2,0.4-0.3,0.6-0.5c3.7-0.6,5.2-3.9,7.6-6c5.2-4.4,10-9.3,16-12.6
		c1.5-0.8,3.5-2.3,5-0.8c1.4,1.4-0.4,3-1.1,4.4c-4.4,9.2-10.2,17.5-16,25.9c-1.7,2.5-4.8,4.2-5,7.7c-0.1,0.2-0.3,0.4-0.5,0.6
		c-2.6,0.4-3.7,2.7-5.1,4.3c-5.4,6.1-12.1,10.9-16.8,17.7c-0.2,0.2-0.4,0.3-0.6,0.5c-1.1-0.4-1.9,0.2-2.7,0.8
		c-15.4,11.9-31.7,22.4-48.7,31.9c-29.8,16.6-60.8,29-94.8,33.3c-6.1,0.8-12.5,0.4-18.3,3.2c-0.9,0.1-1.8,0.1-2.8,0.2
		c-3.2-0.9-6.3-1.1-9.2,0.7c-0.9,0.1-1.8,0.1-2.8,0.2c-2.1-1-4.1-1-6,0.4c-1.9,0.2-3.8,0.3-5.7,0.5c-2.8-0.8-5.6-1-8.3,0.6
		c-2,0.2-4,0.4-6,0.6c-3.5-0.8-6.9-1.3-10.2,0.8c-0.6,0.1-1.2,0.1-1.8,0.2c-0.4-0.2-0.9-0.6-1.3-0.6c-10.3,0.4-20.6,0.8-30.9,1.3
		c-0.9,0-1.6,0.4-1.9,1.3c-0.6,0-1.2,0.1-1.8,0.1c-0.6-0.7-1.4-0.7-2.3-0.7c-13.3,0.5-26.5,1.6-39.6,3.7
		c-16.1,2.6-31.6,7.7-47.1,12.4c-5.2-3.4-9.6-7.7-13.7-12.3c-2.1-2.3-2.4-4,1.5-4.4c5.5-0.5,10.9-1.1,16.4-1.7
		c3.5-0.4,7-0.6,10.2-2.1c2.6-1.2,4.6-3,4-6.1c-0.6-3.1-3.1-4.2-6-4.3c-2-0.1-4,0.1-6,0.3c-8.5,0.9-17.1,1.9-26.2,2.9
		c1.1-2.2,2.5-2.3,3.7-2.6c7.1-1.7,14.2-3.4,21.3-5.1c3.5-0.8,6.6-2.2,9.1-4.8c1.3-1.3,2.8-2.6,2.2-4.7c-0.7-2.4-2.9-2.5-4.9-2.7
		c-3.7-0.5-7.3,0.5-10.8,1.2c-3.8,0.8-7.4,2.3-12.4,2c4.7-4.6,8.7-8.5,12.6-12.6c2.6-2.7,4.6-6,1.7-9.2c-2.8-3-6.2-1.6-8.9,0.8
		c-3.3,2.8-6.3,5.9-9.5,8.8c-0.8,0.8-1.7,2.1-2.9,1.3c-1.1-0.7-0.5-2.1-0.3-3.2c0.7-3.1,1.6-6.1,2.3-9.2c1.1-5.6-0.3-9.7-3.6-10.1
		c-5-0.6-5.9,3.6-7,6.9c-2.6,7.4-4.4,15-5.2,22.8c-0.2,1.8-0.6,3.6-2.9,3.2c-2.3-0.5-0.9-2.4-1-3.7c-0.5-9.1,2.8-18.2-0.1-27.3
		c2.2-4.1,4.3-8.2,6.5-12.3c13.7-25.9,32.7-46.6,58.5-60.9c3.3-1.8,7.3-3.1,9.6-6.6c0.9-0.4,1.8-0.8,2.6-1.2c0.2,1,0.3,1.9,0.5,2.9
		c-13.5,12.4-24,26.6-28.5,44.7c-2.9,11.4-2,22.6,2.7,33.2c3.1,6.9,10.2,9.8,17.2,11.9c22.5,6.8,45.4,7.3,68.6,4.4
		c23.4-2.9,46.8-5.4,70.2-8.4c41.5-5.3,80.9-16.7,117.6-37.5c18.9-10.7,35.7-23.7,51.1-38.8c7.2-7.1,14.7-14,22-21
		C672.9,880.7,673.8,880.8,674.7,881z"/>
	<path class="st136" d="M911.2,1239.5c3.4-10,6.3-19.5,8.1-29.3c1.5-8.2,3.2-16.4,1.8-24.8c-1.4-8.7-5.6-14.9-14.8-16.6
		c-3.7-0.7-4.1-2.4-2.8-5.6c4.3-11.2,8.7-22.5,7-34.8c-1.5-11.5-5.5-21.6-16.7-27.3c-2.7-1.4-7.2-0.2-8.1-3.7
		c-0.7-2.6,0.9-5.8,1.1-8.8c0.5-9.1,2-18.2-0.9-27.3c-2.9-8.9-7.7-15.9-17.3-18.6c0.2-0.6,0.2-1.2,0.5-1.4
		c15.3-11.8,30.8-23.3,49.7-29.2c10.1-3.2,20.2-4.3,30.5-1.4c13.4,3.7,20.4,13.9,25.2,25.8c6.1,15.2,6.7,31.2,4,47.2
		c-9.2,55.2-29.6,105.9-62.3,151.5c-1,1.3-2.1,2.6-3.1,3.9C912.9,1239.3,912.5,1239.2,911.2,1239.5z"/>
	<path class="st4" d="M798.4,894.5c0.9,0.5,1.7,1,2.6,1.6c2.9,3.3,6.5,5.1,11,4.1c0.6,0.1,1.2,0.2,1.8,0.2c1.9,1.8,0.6,4,0.6,6
		c-0.1,0.2-0.3,0.4-0.5,0.6c-1.9,0.3-2.9,1.3-2.6,3.4c-0.5,0.6-0.9,1.1-1.4,1.7c-2,0.2-3,1.2-2.7,3.3c-0.8,0.9-1.5,1.8-2.3,2.7
		c-2.3,0.4-3.8,1.7-3.7,4.2c-1.7,1.7-3.3,3.4-5,5c-2.5,0-3.8,1.4-4.3,3.7c-0.6,0.4-1.1,0.9-1.7,1.3c-1.4-0.4-2.2,0.2-2.3,1.7
		c-0.2,0.2-0.4,0.3-0.6,0.4c-1.4-0.5-2.2,0-2.4,1.5c-0.9,0.5-1.7,1-2.6,1.5c-4.9,0.4-8.9,3.3-13.5,4.6c-3.4,0.9-7.2,0.9-10,3.6
		c-0.6,0.1-1.2,0.2-1.8,0.3c-1.6-1.2-3-1.1-4.2,0.7c-0.6,0.1-1.2,0.2-1.8,0.2c-4.5-0.8-8.9-1.7-13.2,0.8c-1.2,0-2.4,0-3.6,0
		c-1.9-2.1-4-1.7-6.2-0.7c-0.6-0.1-1.2-0.2-1.8-0.3c-2.2-2.2-4.6-2-7.2-0.8c-0.9-0.1-1.9-0.2-2.8-0.3c-5.2-1.6-4-4.6-2.4-8.4
		c4.9-11.5,10.2-22.7,17.7-32.8c7.9-10.6,16.9-20,28.3-27c3.3-2,6.4-2.7,10.3-1.2c3,1.2,5.7,3.5,9.2,3.3c1.2,0.8,2.4,1.6,3.7,2.4
		c0,1.5,0.8,2.1,2.2,1.8c1.6,1.4,3.2,2.8,4.8,4.2c0.4,2.4,1.7,3.8,4.3,3.7c0.6,0.4,1.2,0.9,1.7,1.3
		C796.1,894.5,796.9,895,798.4,894.5z"/>
	<path class="st137" d="M273.5,970.1c3,9.1-0.3,18.2,0.1,27.3c0.1,1.3-1.3,3.3,1,3.7c2.2,0.4,2.7-1.4,2.9-3.2
		c0.9-7.8,2.7-15.4,5.2-22.8c1.2-3.3,2-7.6,7-6.9c3.4,0.4,4.8,4.5,3.6,10.1c-0.6,3.1-1.5,6.1-2.3,9.2c-0.3,1.1-0.8,2.5,0.3,3.2
		c1.2,0.8,2.1-0.5,2.9-1.3c3.2-2.9,6.3-6,9.5-8.8c2.7-2.4,6.2-3.8,8.9-0.8c2.9,3.2,0.9,6.6-1.7,9.2c-3.9,4-7.9,7.9-12.6,12.6
		c5,0.2,8.7-1.2,12.4-2c3.6-0.7,7.1-1.7,10.8-1.2c1.9,0.3,4.2,0.3,4.9,2.7c0.6,2.1-0.9,3.4-2.2,4.7c-2.5,2.6-5.7,4-9.1,4.8
		c-7.1,1.7-14.2,3.4-21.3,5.1c-1.3,0.3-2.6,0.4-3.7,2.6c9.1-1,17.7-2,26.2-2.9c2-0.2,4-0.4,6-0.3c2.9,0.1,5.4,1.2,6,4.3
		c0.6,3.2-1.4,4.9-4,6.1c-3.2,1.5-6.8,1.7-10.2,2.1c-5.5,0.6-10.9,1.2-16.4,1.7c-3.9,0.4-3.6,2-1.5,4.4c4.1,4.6,8.5,8.9,13.7,12.3
		c0,0.4,0.1,0.8,0.1,1.1c-4.5,1.8-8.6,4.3-13.5,4.8c-0.5-2.3-2.4-3.5-4-5c-5.6-5.3-10.1-11.4-13.6-18.3c-1.9-3.8-2.4-7.5-1.2-11.6
		c0.4-1.5,1.9-3.3,0.6-4.6c-1.4-1.4-3.1,0.2-4.6,0.7c-6.4,1.8-8,1-10.7-5.2c-0.8-1.8-0.5-4.6-3.6-4.8c2-8.7,5.4-16.9,8.7-25.2
		c1.2-3.1,2.7-6,4.1-9C272.7,969.4,273.1,969.8,273.5,970.1z"/>
	<path class="st4" d="M785.7,842.4c-0.9,1.8-1.8,3.7-2.7,5.5c-2.2,0.7-2.8,2.3-2.6,4.3c-0.1,0.2-0.2,0.5-0.4,0.7
		c-1.5,0.2-2,0.9-1.6,2.4c-0.1,0.2-0.3,0.5-0.4,0.6c-1.8,0-2.6,1.4-3.5,2.5c-2.2,2.7-4.9,3.3-8,2.3c-11.6-3.6-21.6-9.3-27.5-20.5
		c-2.6-4.8-4.9-9.8-7.7-14.5c-2.2-3.7-3-6.6,2-8.4c0.6-0.1,1.2-0.2,1.8-0.3c1.6,1.3,3,1.1,4.2-0.6c1.3-0.1,2.5-0.3,3.8-0.4
		c4.1,1.2,8.2,1.7,12.2-0.7c1.3-0.1,2.6-0.2,3.8-0.3c2.2,1.2,4.3,1.4,6.2-0.7c0.6-0.1,1.2-0.2,1.8-0.3c1.6,1.2,3.1,1.1,4.2-0.7
		c0.6-0.1,1.2-0.2,1.8-0.3c1.4,1.3,2.4,0.9,3.2-0.6c0.6-0.1,1.2-0.2,1.8-0.4c4.7,1.2,8.7-1.4,13-2.4c2.2-0.5,3.7-0.6,4.9,1.4
		c-0.1,1.3-0.3,2.5-0.4,3.8c-2.5,6.8-5.1,13.5-7.5,20.3C787.1,837.5,784.8,839.5,785.7,842.4z"/>
	<path class="st138" d="M779.3,879.5c-3.5,0.3-6.2-2.1-9.2-3.3c-3.9-1.5-7-0.8-10.3,1.2c-11.4,6.9-20.4,16.4-28.3,27
		c-7.5,10.1-12.8,21.3-17.7,32.8c-1.6,3.8-2.8,6.8,2.4,8.4c-5.4,1.1-10.4-1.5-15.7-1.8c-2.6-0.2-1.5-2.9-1.1-4.5
		c4-14.6,9-29,12-43.8c3.2-15.7,14.2-20.9,27.8-22.9c11.8-1.8,23.6-1,34.8,3.6C775.9,876.9,778.2,877.3,779.3,879.5z"/>
	<path class="st139" d="M259.6,1003.2c3,0.2,2.8,3,3.6,4.8c2.7,6.2,4.3,7,10.7,5.2c1.5-0.4,3.2-2.1,4.6-0.7c1.3,1.3-0.2,3.1-0.6,4.6
		c-1.1,4.1-0.7,7.8,1.2,11.6c3.4,7,8,13,13.6,18.3c1.5,1.5,3.4,2.7,4,5c-1.9,2.2-4.9,2.3-7.3,3.6c-1.2-0.7-2-0.3-2.4,0.9
		c-11.9,4.4-23.1,10.2-33.5,17.3c-1.9-1.6-1.5-3.8-1.6-5.9c-0.3-4.6,0.9-9.4-0.7-13.9c0.2-3.3,0.5-6.5,0.7-9.8c1.1-1,1.5-2,0.3-3.2
		c0.2-1.9,0.5-3.9,0.7-5.8c0.9-0.6,1.6-1.2,0.3-2.2C254.6,1022.9,256.8,1013,259.6,1003.2z"/>
	<path class="st138" d="M733.2,817.3c-5,1.8-4.2,4.8-2,8.4c2.8,4.7,5.2,9.7,7.7,14.5c5.9,11.2,15.9,17,27.5,20.5
		c3.1,1,5.8,0.4,8-2.3c0.9-1.1,1.7-2.5,3.5-2.5c-2.8,6.1-7.7,8.8-13.9,8.1c-14.8-1.6-29.6-2.2-43,6.2c-2.1,1.3-3,0.4-3.1-1.9
		c-0.3-7.9-2.6-15-8.7-20.5c-0.8-0.7-1.4-1.6-1.1-2.7c1.3-4.8,1.1-9.5-0.9-14.1c-0.4-1,0.3-2,1.1-2.6
		C715.5,822.4,723.7,818.5,733.2,817.3z"/>
	<path class="st140" d="M670.2,900.4c1.4-5.9,5.8-10.3,8.6-15.5c6.9-12.8,13.1-25.8,16.7-39.9c1.8-7.4-0.7-10-8.2-8.2
		c-13.6,3.2-25.7,0.3-37.4-7.3c-10.2-6.6-21.9-9.9-34.1-11.7c-17.7-2.6-33.6,2.9-48.8,10.4c-24.8,12.3-49.8,23.8-76.1,32.4
		c-22,7.2-44.5,11.6-67.2,15.5c-10.5,1.8-21.2,3.4-31.5,3.2c-9.7-0.1-18.4,3.4-27.7,3.3c5.5-3.9,12.1-5.5,18.4-5.1
		c12.4,0.7,24.6-1.2,36.7-2.9c27.7-3.9,55-9.8,81.4-19.4c22.4-8.1,44.1-17.9,65.3-28.7c12.2-6.2,25.1-10.9,39-11.3
		c16.8-0.5,32.5,4.1,46.4,13.1c11.5,7.4,23.1,9.5,36.1,6.2c0.5-0.1,1-0.3,1.4-0.4c6.2-0.8,9.7,2.6,8.6,8.6
		c-1.4,7.2-3.7,14.2-6.7,20.9c-5,11.3-10.3,22.4-17.2,32.6C672.8,898,672.1,899.8,670.2,900.4z"/>
	<path class="st140" d="M675.4,932.3c0.1-3.5,3.3-5.2,5-7.7c5.8-8.3,11.6-16.7,16-25.9c0.7-1.4,2.5-3,1.1-4.4c-1.5-1.5-3.5,0-5,0.8
		c-6,3.3-10.8,8.2-16,12.6c-2.5,2.1-4,5.4-7.6,6c5.2-6.7,11.8-12.1,16.3-19.3c6.2-10.1,11.9-20.4,16.8-31.2c0.5-1,0.5-2.6,2-2.5
		c1.5,0,1.6,1.5,1.9,2.6c0.5,2.3,1.2,4.5,0.9,6.9c-3.4,23.5-14.7,43.2-29.5,61.2C676.6,931.8,675.9,932,675.4,932.3z"/>
	<path class="st140" d="M487.8,1024.6c5.8-2.8,12.2-2.4,18.3-3.2c34.1-4.2,65.1-16.7,94.8-33.3c17-9.5,33.3-20,48.7-31.9
		c0.8-0.6,1.6-1.3,2.7-0.8c-0.9,2.6-3.4,3.5-5.3,5c-27.3,21.3-57.8,37.3-89.7,50.3c-21.2,8.6-43.9,11.8-66.6,14.2
		C489.7,1025,488.8,1024.7,487.8,1024.6z"/>
	<path class="st141" d="M273.5,970.1c-0.4-0.4-0.8-0.8-1.1-1.2c13.7-30.7,33.8-55.8,63.4-72.6c4-2.2,7.6-5.2,12.3-6.1
		c-2.3,3.5-6.2,4.8-9.6,6.6c-25.8,14.3-44.8,35-58.5,60.9C277.8,961.9,275.7,966,273.5,970.1z"/>
	<path class="st140" d="M310.1,1047.3c0-0.4-0.1-0.8-0.1-1.1c15.6-4.7,31-9.8,47.1-12.4c13.1-2.1,26.3-3.2,39.6-3.7
		c0.8,0,1.7,0,2.3,0.7c-5.7,2.4-11.7,1.5-17.6,1.9c-22.5,1.4-44.2,6.5-65.6,13.5C314,1046.8,312.2,1047.9,310.1,1047.3z"/>
	<path class="st141" d="M866.1,1291c-0.2-1.8,1.1-2.7,2.1-3.7c10.4-9.8,19.3-20.9,28.3-32c0.6-0.7,1.6-1,2.5-1.5
		c0.3,1.7-0.2,3.4-1.3,4.6C887.7,1269.9,878,1281.5,866.1,1291z"/>
	<path class="st140" d="M400.9,1030.7c0.3-0.9,1.1-1.2,1.9-1.3c10.3-0.4,20.6-0.9,30.9-1.3c0.4,0,0.9,0.4,1.3,0.6
		c-6.5,2.1-13.3,1-19.9,1.8C410.4,1031.1,405.6,1031.6,400.9,1030.7z"/>
	<path class="st140" d="M652.9,954.9c4.7-6.8,11.4-11.6,16.8-17.7c1.5-1.6,2.6-3.9,5.1-4.3c-4.3,7.6-11.3,12.7-17.2,18.8
		C656.4,953,655.2,954.9,652.9,954.9z"/>
	<path class="st138" d="M785.7,842.4c-0.9-2.9,1.4-4.9,2.3-7.4c2.4-6.8,5-13.6,7.5-20.3C794.6,824.8,790.7,833.8,785.7,842.4z"/>
	<path class="st137" d="M251.1,1054.1c1.5,4.6,0.4,9.3,0.7,13.9c0.1,2.1-0.3,4.3,1.6,5.9c-1.6,2.1-2.9,0.8-2.9-0.7
		C250.3,1066.8,249.1,1060.3,251.1,1054.1z"/>
	<path class="st138" d="M758.8,945.6c2.8-2.6,6.6-2.6,10-3.6c4.6-1.3,8.6-4.2,13.5-4.6C775.3,942.4,767.3,944.8,758.8,945.6z"/>
	<path class="st138" d="M795.9,811c-1.2-2-2.8-1.9-4.9-1.4c-4.3,1-8.3,3.6-13,2.4c5-2.7,10.7-3.2,16-4.7
		C796.7,806.6,797.3,808.7,795.9,811z"/>
	<path class="st140" d="M663,916.3c-3.3-0.6-3.7-1-4.1-5.4c3.2-0.4,3.6-5,7.1-5c0,1.7-1.4,2.6-2.4,3.6
		C661.5,911.8,661.3,913.9,663,916.3z"/>
	<path class="st138" d="M737.8,947.6c4.3-2.4,8.7-1.6,13.2-0.8C746.7,948.7,742.2,948.4,737.8,947.6z"/>
	<path class="st138" d="M755.2,815.4c-3.9,2.4-8,1.9-12.2,0.7C747,814.5,751,814.7,755.2,815.4z"/>
	<path class="st138" d="M812,900.1c-4.6,1-8.1-0.7-11-4.1C804.6,897.4,808.3,898.8,812,900.1z"/>
	<path class="st140" d="M436.8,1028.6c3.3-2.1,6.7-1.6,10.2-0.8C443.7,1029.5,440.3,1029.1,436.8,1028.6z"/>
	<path class="st1" d="M351.2,892c-0.2-1-0.3-1.9-0.5-2.9c1.1-1.7,2.9-2.1,4.7-2.5c0.5,0.5,1.1,1,1.6,1.5
		C355.4,889.8,353.6,891.3,351.2,892z"/>
	<path class="st141" d="M357.1,888.1c-0.5-0.5-1.1-1-1.6-1.5c2.1-2.2,4.8-2.8,7.6-3.6C362.3,886.3,359.6,887,357.1,888.1z"/>
	<path class="st138" d="M814.4,906.3c0-2,1.3-4.2-0.6-6c1.5-0.6,3.4-0.9,3.8,0.7C818.3,903.5,816.6,905.2,814.4,906.3z"/>
	<path class="st140" d="M475.8,1025.5c3-1.8,6.1-1.6,9.2-0.7C482,1026.3,478.9,1026.2,475.8,1025.5z"/>
	<path class="st141" d="M856,1300c1.1-4,4.6-5.5,8-7C861.8,1295.9,859.3,1298.3,856,1300z"/>
	<path class="st140" d="M453,1027.2c2.7-1.6,5.4-1.4,8.3-0.6C458.6,1028,455.9,1028.4,453,1027.2z"/>
	<path class="st138" d="M719,945.9c2.5-1.2,5-1.5,7.2,0.8C723.7,947.2,721.2,947.4,719,945.9z"/>
	<path class="st138" d="M765.2,814.4c-1.9,2.1-4,1.9-6.2,0.7C760.9,813.6,763,813.7,765.2,814.4z"/>
	<path class="st138" d="M728,946.9c2.2-1.1,4.3-1.4,6.2,0.7C732,948.3,729.9,948.6,728,946.9z"/>
	<path class="st140" d="M467,1026.1c1.9-1.4,3.9-1.4,6-0.4C471.1,1027.2,469.1,1027.2,467,1026.1z"/>
	<path class="st140" d="M666.2,905.5c-0.2-2.7,1.2-4,3.8-4.5C669.6,903.2,668.1,904.5,666.2,905.5z"/>
	<path class="st138" d="M794.3,891.6c-2.6,0.2-3.8-1.3-4.3-3.7C792.2,888.3,793.5,889.7,794.3,891.6z"/>
	<path class="st138" d="M792,931c0.5-2.3,1.8-3.7,4.3-3.7C795.5,929.4,794.2,930.6,792,931z"/>
	<path class="st138" d="M801.3,922.3c0-2.5,1.4-3.8,3.7-4.2C804.6,920.2,803.3,921.5,801.3,922.3z"/>
	<path class="st138" d="M771.2,813.4c-1.1,1.8-2.5,1.9-4.2,0.7C768.2,812.7,769.6,812.8,771.2,813.4z"/>
	<path class="st138" d="M739.2,816.5c-1.2,1.7-2.6,1.8-4.2,0.6C736.2,815.7,737.7,815.8,739.2,816.5z"/>
	<path class="st138" d="M780.4,852.3c-0.2-2.1,0.4-3.7,2.6-4.3C782.9,849.9,782.2,851.4,780.4,852.3z"/>
	<path class="st138" d="M752.8,946.6c1.1-1.8,2.5-2,4.2-0.7C755.8,947.3,754.3,947.2,752.8,946.6z"/>
	<path class="st138" d="M811.4,910.3c-0.3-2,0.7-3,2.6-3.4C813.9,908.7,813,909.8,811.4,910.3z"/>
	<path class="st138" d="M807.3,915.3c-0.3-2,0.7-3.1,2.7-3.3C809.9,913.8,809,914.8,807.3,915.3z"/>
	<path class="st140" d="M668.1,914.2c-0.5,1.6-1.1,2.9-3.1,1.9C665.6,914.8,666.6,914,668.1,914.2z"/>
	<path class="st137" d="M252.1,1041.1c1.2,1.2,0.8,2.2-0.3,3.2C251,1043.1,250.9,1042,252.1,1041.1z"/>
	<path class="st138" d="M776.2,812.4c-0.8,1.5-1.8,1.9-3.2,0.6C773.8,811.8,775,811.8,776.2,812.4z"/>
	<path class="st138" d="M784.9,935.9c0.2-1.5,1-2,2.4-1.5C787,935.6,786.2,936.2,784.9,935.9z"/>
	<path class="st137" d="M286.9,1056.6c0.5-1.2,1.2-1.6,2.4-0.9C288.8,1056.7,288,1057.1,286.9,1056.6z"/>
	<path class="st137" d="M253.1,1033.1c1.2,0.9,0.6,1.6-0.3,2.2C252.1,1034.4,252.1,1033.6,253.1,1033.1z"/>
	<path class="st138" d="M788,934c0.1-1.5,0.9-2,2.3-1.7C790,933.6,789.3,934.2,788,934z"/>
	<path class="st138" d="M798.4,894.5c-1.5,0.5-2.2,0-2.3-1.6C797.3,892.8,798,893.3,798.4,894.5z"/>
	<path class="st138" d="M785.2,883.7c-1.4,0.3-2.2-0.3-2.2-1.8C784.3,881.8,785,882.4,785.2,883.7z"/>
	<path class="st138" d="M778.4,855.3c-0.4-1.4,0.1-2.2,1.6-2.4C780.2,854.2,779.6,855,778.4,855.3z"/>
	<path class="st141" d="M851.1,1304.1c0.3-1.5,1.3-2.2,2.8-2.2C853.3,1303.1,852.4,1303.9,851.1,1304.1z"/>
	<path class="st141" d="M840.9,1312.2c0.3-0.9,1-1.3,1.9-1.3C842.4,1311.7,841.8,1312.1,840.9,1312.2z"/>
	<path class="st141" d="M846.1,1308.2c0.2-1,0.8-1.3,1.8-1.3C847.6,1307.7,847,1308.2,846.1,1308.2z"/>
	<path class="st136" d="M911.7,1240.3c0,0.1,0,0.2,0,0.4c-0.2-0.1-0.4-0.1-0.7-0.2c0.1-0.1,0.2-0.3,0.4-0.3
		C911.5,1240.1,911.6,1240.2,911.7,1240.3z"/>
	<path class="st141" d="M865,1292c0.3-0.3,0.7-0.7,1-1C866,1291.7,865.7,1292,865,1292z"/>
	<path class="st141" d="M855,1301c0.3-0.3,0.7-0.6,1-1C856,1300.6,855.6,1300.9,855,1301z"/>
	<path class="st141" d="M854,1301.9c0.3-0.3,0.7-0.6,1-0.9C854.6,1301.3,854.3,1301.6,854,1301.9z"/>
	<path class="st141" d="M850,1305c0.4-0.3,0.7-0.6,1.1-0.9C851,1304.7,850.7,1305,850,1305z"/>
	<path class="st141" d="M849,1305.9c0.4-0.3,0.7-0.6,1.1-0.9C850,1305.6,849.6,1305.9,849,1305.9z"/>
	<path class="st141" d="M847.9,1306.8c0.3-0.3,0.7-0.6,1-0.9C848.6,1306.2,848.3,1306.5,847.9,1306.8z"/>
	<path class="st141" d="M845,1309c0.4-0.3,0.8-0.6,1.1-0.9C846.1,1308.8,845.7,1309.1,845,1309z"/>
	<path class="st141" d="M844,1309.9c0.4-0.3,0.7-0.6,1.1-0.9C845,1309.6,844.6,1309.9,844,1309.9z"/>
	<path class="st141" d="M842.9,1310.8c0.3-0.3,0.7-0.5,1-0.8C843.6,1310.2,843.2,1310.5,842.9,1310.8z"/>
	<path class="st141" d="M864,1293c0.3-0.3,0.7-0.7,1-1C865,1292.6,864.6,1293,864,1293z"/>
	<path class="st100" d="M683.8,950.8c0.1-0.5,0-1.5,0.7-1.1c0.6,0.3,0.1,1-0.4,1.3C684.1,951.1,683.8,950.8,683.8,950.8z"/>
	<path class="st142" d="M618.8,844.3c0.1,6.3-2.8,10.5-6.5,14.2c-11.7,11.8-26.3,19.1-41.3,25.6c-28.1,12.1-57.3,20.4-87.6,25
		c-1.1,0.2-2.3,0.5-3.5,0.4c-2.4-0.1-5-0.8-5.4-3.5c-0.4-2.9,2.3-3.3,4.3-3.9c14.4-4,29.1-7.3,43.3-12c26.5-8.9,53-18,75.9-34.9
		c3.9-2.8,7.1-6.5,10.6-9.8c1.1-1.1,2-2.3,1.3-4c-0.7-1.8-1.4-3.7,0.8-4.8c1.9-1,3.5,0.4,5,1.4C618.4,839.6,619.3,842,618.8,844.3z"
		/>
	<path class="st141" d="M674.7,881c-0.9-0.1-1.9-0.3-2.8-0.4c1.4-2.1,2.5-4.6,5.8-5.4C677.3,877.7,676.8,879.7,674.7,881z"/>
</g>
</svg>
