<?xml version="1.0" encoding="utf-8"?>
<!-- Generator: Adobe Illustrator 25.0.0, SVG Export Plug-In . SVG Version: 6.00 Build 0)  -->
<svg version="1.1" id="图层_1" xmlns="http://www.w3.org/2000/svg" xmlns:xlink="http://www.w3.org/1999/xlink" x="0px" y="0px"
	 viewBox="0 0 1200 1600" style="enable-background:new 0 0 1200 1600;" xml:space="preserve">
<style type="text/css">
	.st0{fill:#060604;}
	.st1{fill:#EDCF5D;}
	.st2{fill:#FBF1EE;}
	.st3{fill:#ECCF5D;}
	.st4{fill:#F4FB95;}
	.st5{fill:#A0918B;}
	.st6{fill:#FBFBFB;}
	.st7{fill:#927233;}
	.st8{fill:#935A40;}
	.st9{fill:#623C2A;}
	.st10{fill:#FEFEFE;}
	.st11{fill:#040302;}
	.st12{fill:#090805;}
	.st13{fill:#9C5B46;}
	.st14{fill:#070705;}
	.st15{fill:#ECCE5D;}
	.st16{fill:#F2F2F2;}
	.st17{fill:#93583F;}
	.st18{fill:#A1918B;}
	.st19{fill:#513123;}
	.st20{fill:#FAFAFA;}
	.st21{fill:#030202;}
	.st22{fill:#060605;}
	.st23{fill:#A0908A;}
	.st24{fill:#937234;}
	.st25{fill:#E6C95B;}
	.st26{fill:#864E37;}
	.st27{fill:#513124;}
	.st28{fill:#B0603E;}
	.st29{fill:#FAF0ED;}
	.st30{fill:#F9F9F9;}
	.st31{fill:#917133;}
	.st32{fill:#9E8F89;}
	.st33{fill:#E7CA5B;}
	.st34{fill:#92583F;}
	.st35{fill:#050503;}
	.st36{fill:#FCFBFB;}
	.st37{fill:#080704;}
	.st38{fill:#070605;}
	.st39{fill:#FAF1ED;}
	.st40{fill:#F4FA95;}
	.st41{fill:#F8F8F7;}
	.st42{fill:#90573E;}
	.st43{fill:#030302;}
	.st44{fill:#080805;}
	.st45{fill:#FBF1ED;}
	.st46{fill:#FBFBFA;}
	.st47{fill:#927234;}
	.st48{fill:#F69376;}
	.st49{fill:#7B2D2D;}
	.st50{fill:#FCFCFC;}
	.st51{fill:#EF5A2D;}
	.st52{fill:#F0CC2D;}
	.st53{fill:#9F8F8A;}
	.st54{fill:#FAFAF9;}
	.st55{fill:#F2A78E;}
	.st56{fill:#040403;}
	.st57{fill:#070604;}
	.st58{fill:#A0908B;}
	.st59{fill:#F7F7F7;}
	.st60{fill:#E8CB5B;}
	.st61{fill:#8F563E;}
	.st62{fill:#513224;}
	.st63{fill:#080705;}
	.st64{fill:#FCFCFB;}
	.st65{fill:#F9F8F8;}
	.st66{fill:#FAF0EC;}
	.st67{fill:#9F908A;}
	.st68{fill:#91573E;}
	.st69{fill:#070704;}
	.st70{fill:#F5FC96;}
	.st71{fill:#9C9C53;}
	.st72{fill:#9A9A52;}
	.st73{fill:#F2F994;}
	.st74{fill:#A17628;}
	.st75{fill:#90573F;}
	.st76{fill:#090806;}
	.st77{fill:#523123;}
	.st78{fill:#7C4031;}
	.st79{fill:#ED866D;}
	.st80{fill:#F3E9E6;}
	.st81{fill:#4F3023;}
	.st82{fill:#060606;}
	.st83{fill:#89533B;}
	.st84{fill:#050403;}
	.st85{fill:#090909;}
	.st86{fill:#EDCF5E;}
	.st87{fill:#050504;}
	.st88{fill:#060504;}
	.st89{fill:#955A41;}
	.st90{fill:#080703;}
	.st91{fill:#090807;}
	.st92{fill:#070603;}
	.st93{fill:#0A0905;}
	.st94{fill:#937335;}
	.st95{fill:#955A40;}
	.st96{fill:#955940;}
	.st97{fill:#EDD05E;}
	.st98{fill:#8F7032;}
	.st99{fill:#945940;}
	.st100{fill:#EED05E;}
	.st101{fill:#503123;}
	.st102{fill:#EEEEEE;}
	.st103{fill:#0D0C0A;}
	.st104{fill:#E3C659;}
	.st105{fill:#967535;}
	.st106{fill:#9D7D38;}
	.st107{fill:#745A29;}
	.st108{fill:#847334;}
	.st109{fill:#907134;}
	.st110{fill:#E5C85B;}
	.st111{fill:#503124;}
	.st112{fill:#927133;}
	.st113{fill:#E0DDD4;}
	.st114{fill:#987836;}
	.st115{fill:#977636;}
	.st116{fill:#CCC4A4;}
	.st117{fill:#523224;}
	.st118{fill:#0B0908;}
	.st119{fill:#8F7135;}
	.st120{fill:#050404;}
	.st121{fill:#EDD05D;}
	.st122{fill:#F3FA94;}
	.st123{fill:#9A9A51;}
	.st124{fill:#999951;}
	.st125{fill:#937334;}
	.st126{fill:#FAF0EE;}
	.st127{fill:#F3FA95;}
	.st128{fill:#989851;}
	.st129{fill:#A2792A;}
	.st130{fill:#F1F893;}
	.st131{fill:#A17729;}
	.st132{fill:#050502;}
	.st133{fill:#947335;}
	.st134{fill:#917233;}
	.st135{fill:#9B9B52;}
	.st136{fill:#F9EFEC;}
	.st137{fill:#9A782F;}
	.st138{fill:#979752;}
	.st139{fill:#F2F893;}
	.st140{fill:#8C8E4F;}
	.st141{fill:#B5B96E;}
	.st142{fill:#0F0F09;}
	.st143{fill:#9C9C52;}
	.st144{fill:#F5FB95;}
	.st145{fill:#F3F994;}
	.st146{fill:#A17728;}
	.st147{fill:#917134;}
	.st148{fill:#090706;}
	.st149{fill:#8E6F32;}
	.st150{fill:#93593F;}
	.st151{fill:#907033;}
	.st152{fill:#060505;}
	.st153{fill:#C8C3AF;}
	.st154{fill:#533324;}
	.st155{fill:#533426;}
	.st156{fill:#0E0C0A;}
	.st157{fill:#907133;}
	.st158{fill:#583627;}
	.st159{fill:#0A0907;}
	.st160{fill:#573526;}
	.st161{fill:#0C0B09;}
	.st162{fill:#503023;}
	.st163{fill:#543325;}
	.st164{fill:#B7B3A1;}
</style>
<g>
	<path class="st100" d="M668.3,1288.8c-5.6-2.2-11-0.3-15.9,1.7c-38,15.9-77.9,23.5-118.7,26.6c-27.8,2.1-55.5,2.5-83.3-0.3
		c-23.9-2.4-47.1-8.6-70.3-14.3c-2.7-0.7-5.5-1.2-8.3-1.8c-1.8-4.8-3.4-9.7-5.3-14.4c-12.8-31-22.1-63.2-27.4-96.2
		c-3.8-23.5-3.5-47.5-1.7-71.3c0.5-7,0.4-14.1,2.4-21.2c1.8,1.2,1.5,2.9,1.8,4.3c5,25.8,14.5,50.1,25.3,73.9
		c3.6,7.9,8.4,15.2,14.6,21.3c4.7,4.6,9.2,4.1,12.8-1.4c1.4-2.1,2.5-4.3,3.7-6.5c3-5.4,6.2-10.6,11.1-14.6c1.1,4.7,3.2,9,5.3,13.4
		c6.7,14.1,14.6,12.1,22.2,0.5c13.6-20.9,30.6-38.9,49.4-55.2c18.2-15.7,38.6-28.4,58.6-41.6c24.7-16.4,49.8-32.1,74.3-48.8
		c13.4-9.2,26.5-19,38.4-30.2c7.5-7.1,14-15.1,20.8-22.7c0,1,0,2,0,3c-1,36.1-1.6,72.2-0.5,108.3c1.1,38.3,10,75,18.4,111.9
		c2.7,12,2.2,24.4,2.7,36.6c-2.3,0.7-2.4,3-3.3,4.7c-2.3,4.4-4,9.3-7.5,12.9C681.2,1274.3,675.8,1282.5,668.3,1288.8z"/>
	<path class="st22" d="M698.7,1249.8c-0.5-12.2,0-24.6-2.7-36.6c-8.4-36.9-17.3-73.6-18.4-111.9c-1-36.1-0.5-72.2,0.5-108.3
		c0-1,0-2,0-3c0-6.5,1.7-12.9,2.4-20.8c-1.5,1.7-2.1,2.3-2.5,2.9c-12,17-27.2,31.1-43.3,44c-32.8,26.4-69,47.6-104.8,69.4
		c-30.5,18.6-61.7,36.3-89.1,59.6c-11,9.4-22.2,18.6-31.7,29.6c-4.9,4-8.1,9.2-11.1,14.6c-1.2,2.2-2.3,4.4-3.7,6.5
		c-3.7,5.5-8.2,6.1-12.8,1.4c-6.2-6.2-11-13.4-14.6-21.3c-10.8-23.8-20.3-48.1-25.3-73.9c-0.3-1.4,0-3.1-1.8-4.3
		c-2,7-1.9,14.2-2.4,21.2c-1.8,23.8-2.1,47.8,1.7,71.3c5.3,33,14.6,65.2,27.4,96.2c2,4.7,3.6,9.6,5.3,14.4c0.1,2.9,1.4,6.8-2.2,7.9
		c-3.4,1-5.8-2-7.4-4.8c-5.9-9.9-9.8-20.7-13.6-31.6c-8.8-25.7-16.6-51.7-20.8-78.5c-3.4-21.7-3.5-43.8-1.4-65.8
		c1.6-16.4,2.8-33,7.7-48.7c3.8-12.1,2.5-24.3,3.6-36.5c1.8-20.2,4.3-40.4,9.5-60.1c7.3-27.8,27.5-43.5,53-52.6
		c31.8-11.3,64.1-21.1,96.5-30.6c31.6-9.3,62-22.1,93.1-33c15.4-5.4,30.5-11.5,46.8-14c6.8-1.1,13.6-1.1,20.4-1.2
		c2.6,0,4.2-0.5,5.2-3.2c6-16.2,16.9-28.8,29.8-40c10.2-8.9,22.1-14.5,35.2-16.8c20.4-3.6,36.9-13.5,51.1-28.2
		c6.7-7,12-5.6,14.3,3.8c8.5,33.8-2.8,73.7-36.4,95.3c-4.4,2.8-9.1,4.8-14.9,5.9c6.1,8.7,10.8,17.7,17.5,25.4
		c5.8,6.6,14.3,7.3,22.2,9.3c4.2,1.1,9.6,0.3,11.3,5.7c1.6,5.4-2.6,8.7-5.9,11.8c-8.4,7.9-17.7,14.8-27.5,20.6
		c-9.3,5.5-20,6.2-30.4,7c-6.8,0.5-13.5,2-20.4,0.6c-3.6-0.7-7.2-1.5-10.2-3.7c-2.3-1.7-3.1-0.9-4.3,1.3c-3.3,5.8-2.5,12.3-3.2,18.5
		c-5.1,40.8-3.4,81.8-2.6,122.8c0.1,3.7,1.2,5.3,5,5.6c13.8,1.1,27.5,2.8,41.3,3.5c22.8,1.1,45.5,3.4,68.3,3.4
		c23,0,45.9-1.2,68.8-3.5c31.9-3.2,62.9-11.1,94.4-16.1c15.5-2.5,31-4.5,46.7-2.6c19.4,2.3,34.6,17.7,36.7,37.2
		c1.6,14.3,0.6,28.4-4.3,41.9c-18.5,50.8-43.6,97.5-84.5,134.2c-20.5,18.4-42,35.5-68.1,45.6c-25.2,9.8-51.5,15.5-78.4,18.5
		c-18.4,2-36.8,2.5-55.3,2.2c-15.9-0.3-31.5-2.5-47-5.7c-9.6-2-19.4-3.3-28.5-7.1c-4.9-2-5.5-3.7-3.3-8.2c3.2-0.9,6.3-0.1,9.3,0.9
		c10.5,3.6,21.5,5.8,32.3,8.5c13.6,3.4,27.6,3.9,41.6,4c5.5,0,11,0.7,16.4-0.5c1.8,0.2,3.6,0.6,5.4,0.5c19.4-1.2,38.8-2.4,58-6.4
		c9.2-1.9,17.5-4.5,25.4-10.8c29.8-23.9,54-51.6,67.3-88c2.7-7.5,3.9-15,4-22.9c0.1-7.6-3.5-12.6-9.7-16.1c-2.2-1.2-4.4-2.3-6.6-3.5
		c-5.3-2.8-5.6-5.5-0.7-9.2c9.9-7.4,18.9-15.8,27.2-25c7.9-8.8,14.5-18.2,16.7-30.1c1.3-7.1-0.1-10.4-6.6-13.7
		c-4.9-2.5-10.3-3.8-15.5-5.3c-5.7-1.6-6.3-4.1-2.1-8.2c4.8-4.7,9.5-9.6,12-16.2c-0.7-0.1-1-0.3-1.3-0.2c-6.7,1.1-13.5,1.9-20.2,3.4
		c-42.5,9.5-85.5,13.6-128.9,12.5c-35.9-0.9-71.7-4.5-107.4-8.4c-7.1-1.1-7.2-1.1-6.9,5.9c0.2,4.3,0.6,8.6,1,12.9
		c1.6,18.7,3.5,37.5,9.1,55.6c7.7,25.1,10.5,50.8,9.9,76.9c-0.1,4.5-0.9,8.9-2,13.3c-0.6,2.3-2,4-4.6,3.7c-2.6-0.4-2.8-2.5-2.7-4.6
		C699.9,1259.9,699.4,1254.8,698.7,1249.8z M747,853.8c3.1-0.4,5.3-2.5,7.8-4.2c14.5-10,22.6-24.2,27.3-40.9
		c3.3-11.7,3.7-23.3,1.4-36C772,785,759.5,794.4,744,799c-9.7,2.4-19.8,3.5-28.9,7.5c-19.7,8.6-33.7,23.3-43.2,42.5
		c-0.8,1.5-3.2,3.1-0.9,5.2c2,1.8,4,2.2,6.8,1.1c8.3-3.4,16.9-6.2,25.8-7.6c11.9-1.8,23.9-3.6,31.4,9.4c0.6,1,1.5,1.3,2.6,0.8
		C740.6,856.4,744.3,856.4,747,853.8z M703.7,895c2.5,10.7,1.4,21.1-1.8,31.5c-2.2,7.2-0.5,9.9,7,11.3c2.1,0.4,4.3,0.6,6.5,0.5
		c7.1-0.4,14.3-1,21.4-1.5c17.7-1.1,29-13.2,41.5-23.3c-1.1-1.6-2.2-1.3-3.2-1.5c-13.5-2.2-24.2-8.7-31.6-20.5
		c-3.2-5.1-6.8-9.8-10.2-14.8c-2.8-4.7-5.7-9.4-8.5-14.1c-2-3.3-4.9-4.7-8.8-4.7c-11.3,0.2-22,3.4-32.7,6.3
		c-1.6,0.4-2.9,1.2-2.1,3.1c1.7,4.1,0.4,9.5,7.7,10.5c5,0.6,8.5,5.5,11.1,10.1C701.3,890.3,702.5,892.7,703.7,895z M362.7,975.6
		c-1.7,1.6-2.2,3.7-2.9,5.7c-3.6,11.1-5.4,22.6-7.2,34.1c-3.3,20.8-4.8,41.7-2.9,62.7c3,33.5,14.8,64.4,28.1,94.8
		c2.2,5.1,5.1,9.9,9.3,14.6c5.5-12.8,14.3-22.5,23.9-31.6c24.4-23.3,51.4-43.3,80.3-60.8c44.6-27,90-52.7,131.5-84.4
		c24.8-19,46.6-40.8,60.7-69.3c1-1.9,2-3.8,2.3-6c5.2-8.8,7.9-18.5,8.5-28.6c0.6-9.3-3.3-16.6-11.7-21.7c-1.1,3.3-2.1,6.4-3,9.5
		c-2.4,8-7.1,14.9-10.3,22.4c-3.9,4.5-7.3,9.5-11.9,13.4c-1.3,1.1-2.4,3.4-4.5,1.5c-1.8-1.7,0.2-3,1-4.2c5.5-8.1,10.4-16.6,14-25.8
		c6.8-9.1,7.7-23.8,1.6-32.6c-2.7-4-6.1-7.2-11.8-6.6c-5.6,0.5-11.3,0-17,0.8c-17.6,2.5-34.2,8.9-50.5,15.4
		c-53.7,21-108.8,37.7-164,54.4c-15.4,4.7-31.2,8.4-44.9,17.5C372,956.9,366.7,965.8,362.7,975.6z M877.2,1332.8
		c2.4,0.6,4.6,0,6.8-0.8c14.8-5.5,28.2-13.4,41-22.5c53.6-38.2,87.1-90.7,107.9-152.2c4.4-12.9,6.3-26.1,5.1-39.8
		c-1.4-15.2-12.7-26.9-28-28.5c-12.9-1.4-25.6,0.3-38.3,1.7c-6.8,0.8-12.1,1.8-13.6,10c-0.9,5-5.8,8.2-8.9,12.4
		c4.8,1.8,9.2,3.2,13.3,5.2c9,4.5,11.8,10.7,9.8,20.5c-2.2,11.3-8,20.7-15.1,29.4c-8.8,10.9-19.1,20.4-30.3,29.1
		c2.5,1.5,4.9,2.7,7,4.2c5.2,3.5,9.9,8,10.8,14.4c1,6.9,1.4,14-0.4,20.9C933.3,1276.5,908.7,1306.8,877.2,1332.8z"/>
	<path class="st24" d="M779.3,1349.2c-5.4,1.2-10.9,0.5-16.4,0.5c-14-0.1-28.1-0.6-41.6-4c-10.8-2.7-21.7-4.8-32.3-8.5
		c-3-1-6.1-1.9-9.3-0.9c-8.2-14.8-16.4-29.6-11.4-47.5c7.5-6.3,12.9-14.4,19.6-21.4c3.4-3.6,5.2-8.5,7.5-12.9c0.9-1.7,1-4,3.3-4.7
		c0.7,5.1,1.3,10.2,1.1,15.3c-0.1,2.1,0.2,4.3,2.7,4.6c2.6,0.4,4-1.3,4.6-3.7c1.1-4.4,1.9-8.8,2-13.3c0.5-26.1-2.2-51.8-9.9-76.9
		c-5.6-18-7.4-36.8-9.1-55.6c-0.4-4.3-0.8-8.6-1-12.9c-0.3-7-0.3-7,6.9-5.9c3,21.9,5.6,43.8,9,65.6c7.8,51.5,26.4,99.2,52,144.2
		C764.2,1324.1,771.8,1336.6,779.3,1349.2z"/>
	<path class="st47" d="M409,1174.6c9.5-11,20.6-20.2,31.7-29.6c27.4-23.3,58.6-41,89.1-59.6c35.8-21.9,72.1-43,104.8-69.4
		c16.1-12.9,31.3-27,43.3-44c0.5-0.6,1-1.2,2.5-2.9c-0.7,7.9-2.5,14.3-2.4,20.8c-6.8,7.6-13.3,15.6-20.8,22.7
		c-11.9,11.2-25,21-38.4,30.2c-24.5,16.7-49.6,32.5-74.3,48.8c-20,13.2-40.4,25.9-58.6,41.6c-18.8,16.3-35.8,34.3-49.4,55.2
		c-7.6,11.7-15.4,13.6-22.2-0.5C412.3,1183.6,410.1,1179.4,409,1174.6z"/>
	<path class="st121" d="M779.3,1349.2c-7.4-12.6-15-25.1-22.3-37.8c-25.6-45.1-44.2-92.8-52-144.2c-3.3-21.8-6-43.8-9-65.6
		c35.7,3.9,71.5,7.5,107.4,8.4c43.4,1.1,86.4-3,128.9-12.5c6.6-1.5,13.4-2.3,20.2-3.4c0.3,0,0.6,0.1,1.3,0.2
		c-2.5,6.6-7.2,11.5-12,16.2c-4.2,4.1-3.6,6.6,2.1,8.2c5.3,1.5,10.6,2.8,15.5,5.3c6.5,3.4,8,6.6,6.6,13.7
		c-2.2,11.9-8.9,21.4-16.7,30.1c-8.3,9.2-17.2,17.6-27.2,25c-4.9,3.6-4.7,6.3,0.7,9.2c2.2,1.2,4.5,2.2,6.6,3.5
		c6.2,3.5,9.8,8.5,9.7,16.1c-0.1,7.9-1.2,15.4-4,22.9c-13.3,36.4-37.4,64.2-67.3,88c-7.9,6.3-16.2,8.9-25.4,10.8
		c-19.1,4-38.5,5.2-58,6.4C782.9,1349.8,781.1,1349.4,779.3,1349.2z"/>
	<path class="st4" d="M685.6,935.4c-0.2,2.2-1.3,4.1-2.3,6c-14.1,28.5-35.8,50.3-60.7,69.3c-41.5,31.7-86.9,57.4-131.5,84.4
		c-28.9,17.5-55.8,37.5-80.3,60.8c-9.5,9.1-18.4,18.8-23.9,31.6c-4.1-4.7-7-9.5-9.3-14.6c-13.3-30.4-25.2-61.3-28.1-94.8
		c-1.9-21-0.4-41.9,2.9-62.7c1.8-11.5,3.7-23,7.2-34.1c0.7-2,1.2-4.2,2.9-5.7c9,6.1,18.5,11,28.8,14.5c22.5,7.6,45.8,9.4,69.3,9.2
		c15.5-0.2,31-0.1,46.2-2.8c29.4-5.3,57.5-15,84.8-27c19.2-8.4,35.5-20.8,49.6-36.2c9.6-10.4,18-21.7,25.2-33.9
		c0.8,0.8-0.6,2.2,1,2.6c-3.6,9.2-8.5,17.6-14,25.8c-0.9,1.3-2.8,2.6-1,4.2c2,1.9,3.2-0.4,4.5-1.5c4.6-3.9,7.9-8.9,11.9-13.4
		c1.4,0.3,2.5-0.4,3.8-0.8c8.8-3,11.5-1.1,12.2,8.5C685.3,928.3,684.3,931.9,685.6,935.4z M424,1061.9L424,1061.9
		c-0.3-1.5,1-2.3,1.8-3.3c6.1-7.3,12.7-14.1,21-18.9c3.4-1.9,5.7-4.8,3.5-8.6c-2.1-3.6-5.7-2.9-8.9-1.3c-4.5,2.2-8.5,5.2-12.2,8.6
		c-5.1,4.9-10.2,9.8-14.8,15.3c0.9-7.7,3.1-14.8,6-21.7c2.8-6.6,2.6-10.3-0.9-11.9c-3.9-1.7-6.8,0.5-9.8,7.5
		c-3.6,8.3-5.6,17-7.9,25.8c-1.8-1.1-2.1-2.8-2.8-4.2c-2.3-4.6-3.7-9.6-5.1-14.6c-1.5-5.4-4.6-8.3-8-6.9c-4.7,1.9-4.3,5.8-3.2,9.7
		c0.9,3.2,2.1,6.3,2.8,9.6c1,4.2,4.2,7.5,4.4,12l0.1-0.1c-7.2-4.6-13.1-10.7-19.2-16.6c-2.6-2.5-5.9-4-8.9-1.2
		c-3.3,3-1.9,6.5,0.9,9.2c4.1,4.1,8.4,8.1,12.7,12c3.1,2.8,6.4,5.4,10.4,8.7c-8.7-0.4-16.1-1.7-23.6-0.1c-2.9,0.6-5.2,1.9-5.2,5.1
		c0,3.5,2.5,4.9,5.7,5c8,0.4,16,0.6,23.9,1.1c5.2,0.4,8.8-1.6,11.9-5.7c6.3-8.4,6.6-8.3,12.6,0.2c3,4.2,5.6,8.6,10.9,10.5
		c10.2,3.7,20.2,7.7,30.4,11.4c3.9,1.5,8.3,3.1,11.2-1.6c1.9-3-1.2-6.7-7.2-9.1c-9.5-3.7-19-7.2-28.4-10.9c-1.1-0.4-2.7-0.4-2.9-2.7
		c5.1-2.1,10.2-4.5,15.4-6.4c5.8-2.2,11.7-3.9,17.5-5.9c3.3-1.1,5.7-3.3,5-7c-0.8-4.1-4.3-4.1-7.5-4c-1.5,0.1-2.9,0.5-4.4,0.9
		C441.8,1054.5,433.1,1058.8,424,1061.9z"/>
	<path class="st71" d="M667.7,902c-1.6-0.3-0.2-1.7-1-2.6c-7.3,12.2-15.6,23.5-25.2,33.9c-14.2,15.3-30.5,27.8-49.6,36.2
		c-27.3,12-55.4,21.7-84.8,27c-15.3,2.7-30.8,2.7-46.2,2.8c-23.6,0.3-46.8-1.6-69.3-9.2c-10.3-3.5-19.8-8.5-28.8-14.5
		c4.1-9.8,9.4-18.6,18.5-24.7c13.7-9.1,29.5-12.9,44.9-17.5c55.1-16.7,110.3-33.3,164-54.4c16.4-6.4,32.9-12.8,50.5-15.4
		c5.6-0.8,11.3-0.3,17-0.8c5.7-0.6,9.1,2.6,11.8,6.6C675.4,878.2,674.5,892.8,667.7,902z"/>
	<path class="st29" d="M877.2,1332.8c31.5-26,56.1-56.2,67.1-96c1.9-6.8,1.4-14,0.4-20.9c-0.9-6.4-5.5-10.8-10.8-14.4
		c-2.2-1.5-4.5-2.7-7-4.2c11.2-8.7,21.5-18.2,30.3-29.1c7.1-8.7,12.8-18.2,15.1-29.4c1.9-9.7-0.8-16-9.8-20.5
		c-4.1-2.1-8.6-3.4-13.3-5.2c3.1-4.2,8-7.4,8.9-12.4c1.5-8.2,6.8-9.3,13.6-10c12.8-1.4,25.5-3,38.3-1.7c15.2,1.6,26.6,13.3,28,28.5
		c1.2,13.7-0.7,26.9-5.1,39.8c-20.8,61.5-54.4,113.9-107.9,152.2c-12.8,9.1-26.2,17.1-41,22.5
		C881.8,1332.8,879.6,1333.3,877.2,1332.8z"/>
	<path class="st122" d="M733.2,876.7c3.4,4.9,7,9.7,10.2,14.8c7.4,11.8,18.1,18.3,31.6,20.5c0.9,0.2,2-0.1,3.2,1.5
		c-12.5,10.1-23.8,22.2-41.5,23.3c-7.1,0.5-14.3,1.1-21.4,1.5c-2.1,0.1-4.3-0.1-6.5-0.5c-7.5-1.4-9.2-4.1-7-11.3
		c3.2-10.4,4.3-20.8,1.8-31.5c3.1-2.3,4.3-6.1,6.8-8.9C716.6,879.3,725,878.3,733.2,876.7z"/>
	<path class="st72" d="M747,853.8c-2.6,2.6-6.4,2.6-9.5,4.1c-1,0.5-2,0.3-2.6-0.8c-7.5-12.9-19.5-11.2-31.4-9.4
		c-8.9,1.4-17.5,4.2-25.8,7.6c-2.8,1.1-4.8,0.7-6.8-1.1c-2.2-2.1,0.2-3.7,0.9-5.2c9.5-19.1,23.5-33.9,43.2-42.5
		c9.2-4,19.2-5.1,28.9-7.5c0,4-0.8,7.9-2.4,11.6C735,826.1,734.4,840.7,747,853.8z"/>
	<path class="st122" d="M747,853.8c-12.5-13.1-12-27.8-5.4-43.2c1.6-3.7,2.4-7.6,2.4-11.6c15.6-4.6,28-14,39.5-26.3
		c2.2,12.7,1.9,24.3-1.4,36c-4.7,16.7-12.8,30.9-27.3,40.9C752.3,851.3,750.1,853.4,747,853.8z"/>
	<path class="st123" d="M733.2,876.7c-8.2,1.6-16.7,2.5-22.8,9.4c-2.5,2.8-3.7,6.6-6.8,8.9c-1.2-2.3-2.3-4.7-3.7-7
		c-2.6-4.6-6.2-9.5-11.1-10.1c-7.3-0.9-6-6.4-7.7-10.5c-0.8-2,0.5-2.7,2.1-3.1c10.8-2.9,21.4-6.1,32.7-6.3c3.9-0.1,6.8,1.3,8.8,4.7
		C727.5,867.4,730.4,872,733.2,876.7z"/>
	<path class="st124" d="M685.6,935.4c-1.3-3.5-0.3-7.2-0.5-10.7c-0.8-9.5-3.5-11.5-12.2-8.5c-1.2,0.4-2.4,1.1-3.8,0.8
		c3.2-7.6,7.9-14.5,10.3-22.4c0.9-3.1,2-6.2,3-9.5c8.4,5.1,12.3,12.4,11.7,21.7C693.4,916.9,690.8,926.6,685.6,935.4z"/>
	<path class="st74" d="M390,1059c-0.2-4.5-3.4-7.8-4.4-12c-0.8-3.2-1.9-6.4-2.8-9.6c-1.1-3.9-1.5-7.8,3.2-9.7c3.4-1.3,6.5,1.5,8,6.9
		c1.4,5,2.8,9.9,5.1,14.6c0.7,1.5,1.1,3.2,2.8,4.2c2.3-8.8,4.3-17.5,7.9-25.8c3-7,5.9-9.2,9.8-7.5c3.5,1.5,3.7,5.2,0.9,11.9
		c-2.9,6.9-5.1,14-6,21.7c4.6-5.5,9.7-10.4,14.8-15.3c3.6-3.5,7.6-6.5,12.2-8.6c3.2-1.5,6.8-2.2,8.9,1.3c2.2,3.8-0.1,6.7-3.5,8.6
		c-8.4,4.8-15,11.6-21,18.9c-0.8,1-2.1,1.8-1.7,3.4c-0.2,0.1-0.4,0.2-0.6,0.3c0.1,0,0.3,0,0.3,0c0.1-0.1,0.1-0.3,0.2-0.4
		c9.1-3.2,17.8-7.4,27.1-9.9c1.4-0.4,2.9-0.8,4.4-0.9c3.2-0.2,6.7-0.1,7.5,4c0.7,3.8-1.7,5.9-5,7c-5.8,2-11.7,3.8-17.5,5.9
		c-5.3,2-10.4,4.3-15.4,6.4c0.2,2.3,1.8,2.3,2.9,2.7c9.5,3.6,19,7.2,28.4,10.9c6,2.3,9,6.1,7.2,9.1c-2.9,4.6-7.2,3-11.2,1.6
		c-10.1-3.8-20.2-7.8-30.4-11.4c-5.3-1.9-7.9-6.3-10.9-10.5c-6-8.5-6.2-8.6-12.6-0.2c-3.1,4.1-6.7,6.1-11.9,5.7
		c-8-0.6-16-0.7-23.9-1.1c-3.2-0.2-5.6-1.5-5.7-5c0-3.2,2.3-4.5,5.2-5.1c7.5-1.6,14.9-0.3,23.6,0.1c-4-3.4-7.3-5.9-10.4-8.7
		c-4.3-3.9-8.6-7.8-12.7-12c-2.7-2.7-4.1-6.2-0.9-9.2c3-2.8,6.3-1.3,8.9,1.2C376.9,1048.2,382.9,1054.3,390,1059
		c0.1,0.1,0.2,0.2,0.3,0.3c0,0.1,0.2,0,0.3,0C390.4,1059.2,390.2,1059.1,390,1059z"/>
	<path class="st4" d="M390,1059c0.2,0.1,0.4,0.2,0.6,0.3c-0.1,0-0.3,0-0.3,0C390.2,1059.2,390.1,1059.1,390,1059
		C390.1,1058.9,390,1059,390,1059z"/>
	<path class="st4" d="M424,1061.9c-0.1,0.1-0.1,0.3-0.2,0.4c0,0.1-0.2,0-0.3,0C423.7,1062.2,423.9,1062.1,424,1061.9
		C424.1,1062,424,1061.9,424,1061.9z"/>
</g>
</svg>
