<?xml version="1.0" encoding="utf-8"?>
<!-- Generator: Adobe Illustrator 25.0.0, SVG Export Plug-In . SVG Version: 6.00 Build 0)  -->
<svg version="1.1" id="图层_1" xmlns="http://www.w3.org/2000/svg" xmlns:xlink="http://www.w3.org/1999/xlink" x="0px" y="0px"
	 viewBox="0 0 1200 1600" style="enable-background:new 0 0 1200 1600;" xml:space="preserve">
<style type="text/css">
	.st0{fill:#060604;}
	.st1{fill:#EDCF5D;}
	.st2{fill:#FBF1EE;}
	.st3{fill:#ECCF5D;}
	.st4{fill:#F4FB95;}
	.st5{fill:#A0918B;}
	.st6{fill:#FBFBFB;}
	.st7{fill:#927233;}
	.st8{fill:#935A40;}
	.st9{fill:#623C2A;}
	.st10{fill:#FEFEFE;}
	.st11{fill:#040302;}
	.st12{fill:#090805;}
	.st13{fill:#9C5B46;}
	.st14{fill:#070705;}
	.st15{fill:#ECCE5D;}
	.st16{fill:#F2F2F2;}
	.st17{fill:#93583F;}
	.st18{fill:#A1918B;}
	.st19{fill:#513123;}
	.st20{fill:#FAFAFA;}
	.st21{fill:#030202;}
	.st22{fill:#060605;}
	.st23{fill:#A0908A;}
	.st24{fill:#937234;}
	.st25{fill:#E6C95B;}
	.st26{fill:#864E37;}
	.st27{fill:#513124;}
	.st28{fill:#B0603E;}
	.st29{fill:#FAF0ED;}
	.st30{fill:#F9F9F9;}
	.st31{fill:#917133;}
	.st32{fill:#9E8F89;}
	.st33{fill:#E7CA5B;}
	.st34{fill:#92583F;}
	.st35{fill:#050503;}
	.st36{fill:#FCFBFB;}
	.st37{fill:#080704;}
	.st38{fill:#070605;}
	.st39{fill:#FAF1ED;}
	.st40{fill:#F4FA95;}
	.st41{fill:#F8F8F7;}
	.st42{fill:#90573E;}
	.st43{fill:#030302;}
	.st44{fill:#080805;}
	.st45{fill:#FBF1ED;}
	.st46{fill:#FBFBFA;}
	.st47{fill:#927234;}
	.st48{fill:#F69376;}
	.st49{fill:#7B2D2D;}
	.st50{fill:#FCFCFC;}
	.st51{fill:#EF5A2D;}
	.st52{fill:#F0CC2D;}
	.st53{fill:#9F8F8A;}
	.st54{fill:#FAFAF9;}
	.st55{fill:#F2A78E;}
	.st56{fill:#040403;}
	.st57{fill:#070604;}
	.st58{fill:#A0908B;}
	.st59{fill:#F7F7F7;}
	.st60{fill:#E8CB5B;}
	.st61{fill:#8F563E;}
	.st62{fill:#513224;}
	.st63{fill:#080705;}
	.st64{fill:#FCFCFB;}
	.st65{fill:#F9F8F8;}
	.st66{fill:#FAF0EC;}
	.st67{fill:#9F908A;}
	.st68{fill:#91573E;}
	.st69{fill:#070704;}
	.st70{fill:#F5FC96;}
	.st71{fill:#9C9C53;}
	.st72{fill:#9A9A52;}
	.st73{fill:#F2F994;}
	.st74{fill:#A17628;}
	.st75{fill:#90573F;}
	.st76{fill:#090806;}
	.st77{fill:#523123;}
	.st78{fill:#7C4031;}
	.st79{fill:#ED866D;}
	.st80{fill:#F3E9E6;}
	.st81{fill:#4F3023;}
	.st82{fill:#060606;}
	.st83{fill:#89533B;}
	.st84{fill:#050403;}
	.st85{fill:#090909;}
	.st86{fill:#EDCF5E;}
	.st87{fill:#050504;}
	.st88{fill:#060504;}
	.st89{fill:#955A41;}
	.st90{fill:#080703;}
	.st91{fill:#090807;}
	.st92{fill:#070603;}
	.st93{fill:#0A0905;}
	.st94{fill:#937335;}
	.st95{fill:#955A40;}
	.st96{fill:#955940;}
	.st97{fill:#EDD05E;}
	.st98{fill:#8F7032;}
	.st99{fill:#945940;}
	.st100{fill:#EED05E;}
	.st101{fill:#503123;}
	.st102{fill:#EEEEEE;}
	.st103{fill:#0D0C0A;}
	.st104{fill:#E3C659;}
	.st105{fill:#967535;}
	.st106{fill:#9D7D38;}
	.st107{fill:#745A29;}
	.st108{fill:#847334;}
	.st109{fill:#907134;}
	.st110{fill:#E5C85B;}
	.st111{fill:#503124;}
	.st112{fill:#927133;}
	.st113{fill:#E0DDD4;}
	.st114{fill:#987836;}
	.st115{fill:#977636;}
	.st116{fill:#CCC4A4;}
	.st117{fill:#523224;}
	.st118{fill:#0B0908;}
	.st119{fill:#8F7135;}
	.st120{fill:#050404;}
	.st121{fill:#EDD05D;}
	.st122{fill:#F3FA94;}
	.st123{fill:#9A9A51;}
	.st124{fill:#999951;}
	.st125{fill:#937334;}
	.st126{fill:#FAF0EE;}
	.st127{fill:#F3FA95;}
	.st128{fill:#989851;}
	.st129{fill:#A2792A;}
	.st130{fill:#F1F893;}
	.st131{fill:#A17729;}
	.st132{fill:#050502;}
	.st133{fill:#947335;}
	.st134{fill:#917233;}
	.st135{fill:#9B9B52;}
	.st136{fill:#F9EFEC;}
	.st137{fill:#9A782F;}
	.st138{fill:#979752;}
	.st139{fill:#F2F893;}
	.st140{fill:#8C8E4F;}
	.st141{fill:#B5B96E;}
	.st142{fill:#0F0F09;}
	.st143{fill:#9C9C52;}
	.st144{fill:#F5FB95;}
	.st145{fill:#F3F994;}
	.st146{fill:#A17728;}
	.st147{fill:#917134;}
	.st148{fill:#090706;}
	.st149{fill:#8E6F32;}
	.st150{fill:#93593F;}
	.st151{fill:#907033;}
	.st152{fill:#060505;}
	.st153{fill:#C8C3AF;}
	.st154{fill:#533324;}
	.st155{fill:#533426;}
	.st156{fill:#0E0C0A;}
	.st157{fill:#907133;}
	.st158{fill:#583627;}
	.st159{fill:#0A0907;}
	.st160{fill:#573526;}
	.st161{fill:#0C0B09;}
	.st162{fill:#503023;}
	.st163{fill:#543325;}
	.st164{fill:#B7B3A1;}
</style>
<g>
	<path class="st100" d="M653.5,1314.9c-29.1,4-58.4,4.2-87.6,4.7c-27.7,0.5-55-3.9-82.2-8.7c-31-5.5-61.4-13.4-91.5-22.1
		c-12.5-3.6-23.7-9.6-34.2-17c-0.1-3.7-2.5-6-4.9-8.3c-6.5-6.2-13.5-12-17.8-20.1c-6.5-12.4-11.6-25.4-14.1-39.3
		c-4.4-24.2-3.3-48.4-0.5-72.6c1.8-15.6,6.6-30.4,11.1-45.5c5.9,33.5,14.7,65.8,33.8,94.5c-1,1.9,0.5,3.2,1.1,4.6
		c5.3,11,13.5,19.8,22.6,27.6c9,7.7,12.3,7.2,20.8-1.1c10-9.8,17.8-21.5,27.5-31.6c17.1-18,35.4-34.8,53.2-52
		c10.9-10.5,22.1-20.7,33.8-30.2c17.9-14.6,37.7-26.8,56.7-39.9c18.6-12.8,37.6-25.1,54.8-39.9c7.5-6.4,13.5-14.2,20.6-21.1
		c0.9-0.9,1.5-3.5,3.8-1.7c-8,28.6-14,57.5-13.6,87.4c0.3,20.2,2.8,40.1,7.6,59.7c5.2,21.4,13.7,41.6,21.1,62.3
		c6.8,19.1,14.9,37.7,18,57.9c-1,4.4-0.3,8.9-0.6,13.4c-0.3,5-1.3,9.5-4,14C680.7,1303.5,668,1310.5,653.5,1314.9z"/>
	<path class="st0" d="M693.5,1262.5c-3.1-20.2-11.2-38.8-18-57.9c-7.4-20.6-15.8-40.9-21.1-62.3c-4.8-19.6-7.3-39.5-7.6-59.7
		c-0.4-30,5.6-58.8,13.6-87.4c1.9-6.7,3.9-13.3,5.8-20c-0.6-0.4-1.3-0.9-1.9-1.3c-0.9,1.4-1.7,2.8-2.7,4c-8.6,9.6-18,18.1-28.5,25.6
		c-33.9,24.4-68.1,48.3-104.9,68.4c-32.8,17.9-62.3,40.1-88,67.3c-14.4,15.3-27.6,31.5-40.7,47.9c-7.5,9.4-14.4,10.1-24,3
		c-3.8-2.8-5.9-7.2-10-9.5c-19.1-28.7-27.8-61-33.8-94.5c-4.5,15-9.3,29.9-11.1,45.5c-2.9,24.2-3.9,48.4,0.5,72.6
		c2.5,13.8,7.6,26.9,14.1,39.3c4.3,8.1,11.3,13.9,17.8,20.1c2.5,2.3,4.9,4.6,4.9,8.3c-2.9,4.6-6.4,5.4-11.1,1.5
		c-9.5-7.9-18.2-16.6-23.8-27.9c-10.5-21.8-15.6-44.6-16.3-68.9c-1-35.3,5.2-69.2,16.6-102.4c0.3-0.8,0.4-1.7,0.9-2.3
		c7.3-9.4,6.5-20.8,7.6-31.7c2.1-19.7,7.9-38.3,16.6-56.1c19-38.6,51.2-61.5,90.4-75.9c21.3-7.8,43.5-13.4,64.2-23.3
		c22.4-10.7,44.5-21.7,67-32.1c20.8-9.6,42.6-15,65.2-17.7c1.7-0.2,3.6,0.4,3.7-2.6c0.6-18,10.5-30.7,24.2-41
		c10.9-8.3,23.8-11.5,37-14.1c19.4-3.9,38.1-9.4,53.9-22.1c5.4-4.3,11.1-1.5,13,5.8c2.1,8.2,1.5,16.6,0.7,24.9
		c-1.8,18.9-8,36.3-19.1,51.8c-0.6,0.8-1.1,1.6-1.6,2.5c-0.1,0.3-0.1,0.6-0.1,1.2c4.2,1.2,8.5,0.8,12.7,0.3c8.3-1,16.5-1.9,24.7-3.5
		c8.4-1.6,12,1.9,10.9,10.5c-1,8.1-4.6,15.4-9.2,21.9c-18.2,25.7-40.9,46.4-69.4,60.3c-8.4,4.1-17.4,6.8-26.7,7.9
		c-2.2,0.2-3.1,1.1-3.8,3c-12.8,36.1-23.1,72.9-27.6,111.1c-1.7,14.2-1.7,28.6-0.4,42.9c0.2,2.6,1.4,3.3,3.4,3.9
		c24.3,6.3,49.1,10,74.2,7.9c51.5-4.3,102.4-12.4,152.4-25.6c22.2-5.9,43.9-13.3,66.6-17.4c9.6-1.8,19.2-2.8,28.8-0.9
		c23.2,4.5,43.9,29.1,45.7,53.3c1.3,17.3-3,33.2-10.6,48.6c-12.1,24.6-29.4,45-49.7,63.2c-18.5,16.6-36.7,33.5-56.6,48.4
		c-34.4,25.7-72.4,44.5-114,56c-20.1,5.5-40,11.2-60.9,12.7c-7.8,0.5-15.6,0.7-23.5,0.5c-3.6-0.1-6.4-1.5-7.8-5.1
		c1.4-3.6,4.5-3.9,7.7-4.2c14.1-1.2,28.3-1.6,42.3-4.5c0.8,0,1.7,0,2.5-0.1c28.3-7,56.3-14.6,82.8-27.1c1.2-0.6,2.1-1.4,3.1-2.3
		c10.2-9.5,17.6-21.3,25.9-32.3c8.7-11.4,15.9-23.8,19.8-37.8c2-7,1.3-12.9-4.8-17.9c-4.9-4-5-8-1-13c4.3-5.3,8.9-10.4,13.2-15.7
		c5.3-6.5,10-13.3,11.9-21.7c2.3-10.2-0.9-18.9-9-23.9c-5.5-3.4-5.8-4.8-2.4-10.4c5.2-8.7,10.8-17.2,14.5-26.7
		c1.6-4.2,3.1-8.4,2.5-13.1c-0.5-3.8-2.1-5.5-6.4-4c-15.8,5.7-32.1,10-48.6,13.3c-47.5,9.5-95,19.1-143.7,18.6
		c-19.1-1.6-38.2-3.9-56.9-10.2c0.8,7.8,1.8,14.8,3.4,21.8c6.5,27.9,18.8,54,26.3,81.6c4.3,16,6.8,32.2,5.8,48.8
		C694.7,1261.1,694.7,1262.1,693.5,1262.5z M730,911c23.8-15.4,42.1-35.5,55.2-62.2c-16.7,2.8-31.9,4.9-47.2,2.2
		c-4.3-1.6-8.6-3.3-13-4.7c-14.8-4.8-27.7-0.1-39.9,8.1c-2.3,1.6-2.6,3.4-1.5,5.9c1.8,4,2.4,8.4,1.6,12.7
		c-0.9,5.2-2.3,10.2,4.1,13.2c1.1,0.5,1.8,2.3,2.5,3.7c3.3,6.3,3.8,13.1,2.7,19.9c-0.9,5.4-2.2,10.7-3.4,16.1
		c-0.4,2-0.6,3.3,2.3,2.5C706.6,924.6,719.3,920.1,730,911z M649.2,820.9c-2.1,2.9-2.7,6.4-3.6,9.7c-0.7,2.7,0,3.5,2.7,3.6
		c8.4,0.5,15.8,3.9,22.2,9.2c2.3,1.9,4.2,5.1,6.8,5.7c3.1,0.7,4.9-3.4,7.5-4.9c14.8-8.9,30.3-12.8,47.2-6.4c1.5,0.6,3.2,1.9,4.5-0.8
		c3.5-7.2,8.6-13.4,11.3-21c6.9-15.7,10.1-32,8.8-50c-12.6,10.1-26.5,15.2-41.2,18.6c-8.7,2-17.6,3.3-26.3,5.5
		C671.4,794.5,657.2,803.7,649.2,820.9z M863.4,1293.6c14.4-7.4,28.7-14.9,41.2-25.3c24.3-20.3,48.8-40.4,71.2-62.7
		c17.9-17.8,31.1-38.7,39.1-62.5c4.7-13.8,4.9-28-1.5-41.4c-6.8-14.3-16.4-26-33.2-29.1c-8.3-1.5-16.6-0.4-24.8,1.4
		c-12.3,2.6-24.6,5.4-36,9c5.8,21.4-8.7,35.5-16.9,51.6c14.8,7.7,16.3,23.6,12.5,35.2c-1.9,5.9-4.8,11.4-8.5,16.3
		c-5,6.4-10.2,12.7-15.6,18.9c-1.9,2.2-2.1,3.6,0.4,5.6c7.4,5.6,9,13.1,7.1,21.9c-2.3,10.4-6.9,19.7-12.3,28.7
		c-6.8,11.3-15.8,21-23.4,31.7c-0.3,0.4-0.9,0.9-0.8,1C862.4,1294.7,862.9,1293.8,863.4,1293.6z M666.4,952.3
		c0.5-0.4,1.1-0.8,1.4-1.3c8.3-13.1,13.3-27.4,16-42.5c1-6,1.5-12.2-3.3-17.9c-2.4,4.2-4.8,7.9-7.8,11.2c-4.4,4.9-8.9,9.8-12.6,15.3
		c-4.4,4.1-7.4,9.4-11.3,13.9c-1.6,1.8-3.2,4-5,0.1c5-9.4,11.8-17.7,18-26.3c5.5-7.6,9.7-15.9,11.7-25.2
		c3.7-17.1-11.6-36.5-28.7-35.4c-17.8,1.2-35.5,3.5-52.4,9.7c-23.3,8.5-45.5,19.7-67.8,30.5c-21.2,10.2-42.7,19.3-65.3,25.9
		c-21.3,6.2-42.3,13.4-60.3,26.9c-14.4,10.9-29.8,21-36.8,38.9c-0.2,0.3-0.3,0.6-0.5,0.9c-0.7,0.1-0.8,0.5-0.7,1
		c-14.6,25.5-21.3,53.2-20.5,82.3c0.9,33,9.7,64.4,23.6,94.3c4.5,9.7,9.8,19,17.6,26.5c4.4,4.2,5.7,4,9.5-0.9
		c9.8-12.4,18.9-25.4,29.6-37.1c28.4-31.3,59.9-58.6,97.4-78.8c39.9-21.6,77.2-47.3,113.6-74.3C645.6,979.6,657.4,967.2,666.4,952.3
		z M666.8,973.4c-0.1-0.3-0.2-0.5-0.2-0.8c-0.1,0.1-0.3,0.1-0.3,0.2c-0.1,0.2,0,0.5-0.1,0.7C666.4,973.5,666.6,973.5,666.8,973.4z"
		/>
	<path class="st24" d="M693.5,1262.5c1.3-0.3,1.2-1.4,1.3-2.4c1-16.6-1.5-32.7-5.8-48.8c-7.4-27.6-19.8-53.7-26.3-81.6
		c-1.6-6.9-2.6-14-3.4-21.8c18.7,6.4,37.7,8.7,56.9,10.2c-0.6,4.6-1.1,9.2-1.7,13.8c-1.5,12-3.1,24.1-3.2,36.2
		c-0.3,23.7,3.1,47,8.4,70c6.7,29.4,18.3,56.9,31.8,83.7c1.7,3.4,4,6.6,4.6,10.4c-13.9,2.9-28.1,3.3-42.3,4.5
		c-3.2,0.3-6.3,0.6-7.7,4.2c-6.3,0-12.6,0.1-18.9,0.1c-3.2,0-6.4-0.5-9.2-1.8c-7.8-3.5-15.2-8.1-21.7-13.7
		c-2.9-2.5-6.4-5.9-2.8-10.6c14.5-4.5,27.2-11.4,35.4-25c2.7-4.5,3.7-9.1,4-14C693.2,1271.4,692.5,1266.9,693.5,1262.5z"/>
	<path class="st24" d="M365.5,1180.6c4.1,2.4,6.2,6.7,10,9.5c9.6,7.1,16.5,6.5,24-3c13.1-16.4,26.3-32.6,40.7-47.9
		c25.7-27.3,55.2-49.4,88-67.3c36.7-20.1,71-44,104.9-68.4c10.5-7.5,19.9-16,28.5-25.6c1.1-1.2,1.8-2.7,2.7-4
		c0.6,0.4,1.3,0.9,1.9,1.3c-1.9,6.7-3.9,13.3-5.8,20c-2.3-1.7-2.8,0.9-3.8,1.7c-7,6.8-13.1,14.6-20.6,21.1
		c-17.2,14.8-36.2,27.1-54.8,39.9c-19,13.1-38.7,25.3-56.7,39.9c-11.7,9.5-22.9,19.8-33.8,30.2c-17.9,17.2-36.2,33.9-53.2,52
		c-9.6,10.2-17.5,21.8-27.5,31.6c-8.5,8.3-11.7,8.8-20.8,1.1c-9.1-7.8-17.3-16.6-22.6-27.6C366,1183.8,364.6,1182.4,365.5,1180.6z"
		/>
	<path class="st121" d="M756,1332.3c-0.7-3.9-2.9-7-4.6-10.4c-13.5-26.8-25-54.3-31.8-83.7c-5.3-23-8.7-46.3-8.4-70
		c0.2-12.1,1.7-24.1,3.2-36.2c0.6-4.6,1.1-9.2,1.7-13.8c48.8,0.5,96.2-9.1,143.7-18.6c16.5-3.3,32.7-7.6,48.6-13.3
		c4.3-1.6,5.9,0.2,6.4,4c0.6,4.6-0.9,8.9-2.5,13.1c-3.7,9.5-9.3,18-14.5,26.7c-3.3,5.6-3,7,2.4,10.4c8,5,11.3,13.7,9,23.9
		c-1.9,8.4-6.6,15.2-11.9,21.7c-4.3,5.3-8.9,10.4-13.2,15.7c-4,5-3.9,9,1,13c6.1,5,6.8,10.9,4.8,17.9c-3.9,14-11.1,26.4-19.8,37.8
		c-8.3,11-15.7,22.8-25.9,32.3c-1,0.9-1.8,1.8-3.1,2.3c-26.5,12.5-54.5,20.1-82.8,27.1C757.7,1332.3,756.8,1332.2,756,1332.3z"/>
	<path class="st143" d="M361.1,978c-0.1-0.6,0-1,0.7-1c0.2-0.3,0.3-0.6,0.5-0.9c7.1-17.9,22.4-28,36.8-38.9
		c18-13.5,38.9-20.8,60.3-26.9c22.6-6.5,44.2-15.7,65.3-25.9c22.3-10.8,44.5-21.9,67.8-30.5c16.9-6.2,34.6-8.5,52.4-9.7
		c17-1.1,32.3,18.3,28.7,35.4c-2,9.3-6.2,17.5-11.7,25.2c-6.2,8.6-13,16.9-18,26.3c-1.7-0.5-2.8,0.7-4,1.5
		c-28.1,17.6-56.6,34.2-86.8,48.1c-36,16.6-72.8,30.8-112,38c-17.9,3.3-35.8,3.9-52.9-3.5c-14.3-6.1-24.6-15.7-25.3-32.7
		C362.6,980.9,362.9,979,361.1,978z M454.2,942.3c5.6-0.7,11.3-1.4,17.1-2.2c30.3-4.4,60-11.5,88.6-22.6c15.4-6,30-13.5,43.5-23.2
		c4.1-2.9,7.7-6.5,9.1-11.5c1.5-5.3-0.9-10.6-5.6-12.5c-3.4-1.3-7.6,0.9-6.3,3.5c3.3,6.8-1.3,10.1-5.5,13.2
		c-14,10.6-29.1,19.4-45.3,26c-31.2,12.8-63.9,20.3-97.2,24.9c-2,0.3-6-1.1-5.7,2C447.3,943.9,451.6,941.1,454.2,942.3z"/>
	<path class="st144" d="M361.1,978c1.8,1,1.5,3,1.6,4.4c0.7,16.9,11,26.5,25.3,32.7c17.1,7.4,35,6.8,52.9,3.5
		c39.2-7.2,76-21.4,112-38c30.1-13.9,58.7-30.5,86.8-48.1c1.3-0.8,2.3-1.9,4-1.5c1.8,3.9,3.4,1.7,5-0.1c3.9-4.5,6.9-9.8,11.3-13.9
		c6.6-1.2,9.1,0.6,9.9,7.4c0.4,3.5,0.2,7-1,10.3c-2,5.7-2.4,11.6-2.6,17.5c-9,14.9-20.8,27.3-34.6,37.6
		c-36.3,27.1-73.6,52.8-113.6,74.3c-37.4,20.2-68.9,47.6-97.4,78.8c-10.7,11.7-19.8,24.7-29.6,37.1c-3.8,4.8-5,5.1-9.5,0.9
		c-7.9-7.5-13.2-16.8-17.6-26.5c-13.9-29.9-22.7-61.3-23.6-94.3C339.8,1031.2,346.5,1003.5,361.1,978z M367.5,1079.3
		c-3.8-2.4-6.3-6.4-10.5-8.3c-2-1-4.1-2.1-6-0.3c-2,1.9-0.6,4,0.4,5.9c1.6,3.2,4.3,5.5,6.6,8.1c1.7,1.9,4.2,3.2,4.9,6.1
		c-3.8,0.4-7.2,0.7-10.6,1.2c-2.4,0.3-4.2,1.6-4.1,4.2c0.1,2.6,1.9,3.7,4.3,3.9c2.1,0.2,4.4,0.2,6.4,0.8c7.4,1.9,13.7,1.2,18.3-5.8
		c2.5-3.7,4.5-2.2,5.8,1.3c2.3,6.4,7,9.7,13.4,11.5c5.4,1.5,10.7,3.5,16.1,5.4c1.9,0.7,3.9,0.9,5.9,0.9c1.8,0,3.4-0.3,4.2-2.1
		c0.8-1.9,0.2-3.6-1.1-5.1c-2.4-2.7-5.6-4-8.9-5.3c-3.1-1.2-6.6-1.7-10-4.1c3.7-1.5,6.8-2.8,9.9-4c4-1.6,8.2-2.9,11.7-5.6
		c1.8-1.4,4.4-2.6,3.3-5.4c-1.1-2.6-3.7-1.7-5.8-1.5c-9.4,0.7-17.3,5.5-25.5,9.6c-0.9,0.5-2,1.9-3,0.7c-1.3-1.5,0.4-2.4,1.3-3.2
		c5.3-4.8,11.5-8.5,17.8-11.9c3-1.6,5.8-3.3,7.4-6.5c1.7-3.5,0.2-5.7-3.6-6c-4.2-0.3-7.8,1.5-11.3,3.5c-6.2,3.5-11.9,7.7-17.9,12.9
		c0.4-7,2.4-12.7,3.7-18.5c0.8-3.6,2.2-7.1,1.2-10.8c-0.4-1.6-0.7-3.4-2.7-3.8c-1.8-0.4-2.7,0.9-3.8,2c-3.3,3.4-3.8,8-5.2,12.3
		c-1.2,3.8-1.2,8-3,11.8c-1.5-1.4-1.8-2.9-2.3-4.3c-1.5-4.1-2.4-8.4-4.9-12c-1.4-2-3.4-3.6-5.9-2.6c-2.6,1-2.8,3.6-2.4,6
		c0.2,1.6,0.8,3.2,1.4,4.8c1.7,4.7,3.5,9.3,5.2,14C367.9,1079,367.7,1079.2,367.5,1079.3z"/>
	<path class="st29" d="M862.7,1292.7c7.6-10.7,16.6-20.3,23.4-31.7c5.4-9,10.1-18.4,12.3-28.7c1.9-8.7,0.3-16.3-7.1-21.9
		c-2.5-1.9-2.4-3.3-0.4-5.6c5.3-6.2,10.6-12.4,15.6-18.9c3.8-4.9,6.6-10.3,8.5-16.3c3.8-11.7,2.3-27.6-12.5-35.2
		c8.2-16.1,22.8-30.1,16.9-51.6c11.4-3.5,23.7-6.4,36-9c8.2-1.7,16.5-2.9,24.8-1.4c16.7,3.1,26.4,14.9,33.2,29.1
		c6.4,13.4,6.2,27.7,1.5,41.4c-8.1,23.8-21.3,44.7-39.1,62.5c-22.5,22.4-47,42.4-71.2,62.7c-12.5,10.4-26.8,17.9-41.2,25.3
		C863.2,1293.3,862.9,1293,862.7,1292.7z"/>
	<path class="st122" d="M649.2,820.9c8-17.1,22.2-26.4,40-30.8c8.7-2.2,17.6-3.5,26.3-5.5c14.7-3.4,28.6-8.5,41.2-18.6
		c1.3,18-1.9,34.3-8.8,50c-7.3-3.5-15-3.8-22.8-2.8c-5.4,0.7-10.7,2.2-16.1,3.2c-14.8,2.7-29.5,5.7-44.6,6.5
		C659.2,823.3,654.5,820.4,649.2,820.9z"/>
	<path class="st135" d="M730,911c-10.6,9-23.4,13.6-36.6,17.3c-2.9,0.8-2.7-0.5-2.3-2.5c1.2-5.4,2.5-10.7,3.4-16.1
		c1.1-6.9,0.6-13.6-2.7-19.9c-0.7-1.3-1.3-3.1-2.5-3.7c-6.5-2.9-5.1-8-4.1-13.2c0.8-4.3,0.1-8.7-1.6-12.7c-1.2-2.6-0.9-4.4,1.5-5.9
		c12.2-8.2,25.1-12.8,39.9-8.1c4.4,1.4,8.7,3.1,13,4.7c-0.6,0.8-1.2,1.6-1.8,2.3c-11.6,14.1-16.9,29.5-10,47.5
		C727.5,904.2,729.6,907.3,730,911z"/>
	<path class="st145" d="M730,911c-0.4-3.7-2.5-6.8-3.8-10.2c-6.9-18-1.6-33.4,10-47.5c0.6-0.8,1.2-1.5,1.8-2.3
		c15.4,2.8,30.5,0.6,47.2-2.2C772.1,875.5,753.8,895.7,730,911z"/>
	<path class="st135" d="M649.2,820.9c5.2-0.5,9.9,2.4,15.2,2.1c15.1-0.9,29.8-3.8,44.6-6.5c5.4-1,10.7-2.5,16.1-3.2
		c7.8-1.1,15.5-0.7,22.8,2.8c-2.7,7.6-7.8,13.9-11.3,21c-1.3,2.7-3,1.4-4.5,0.8c-16.9-6.4-32.3-2.5-47.2,6.4
		c-2.7,1.6-4.5,5.6-7.5,4.9c-2.5-0.6-4.4-3.8-6.8-5.7c-6.5-5.3-13.8-8.7-22.2-9.2c-2.7-0.2-3.4-0.9-2.7-3.6
		C646.6,827.2,647.1,823.8,649.2,820.9z"/>
	<path class="st124" d="M666.4,952.3c0.2-6,0.6-11.9,2.6-17.5c1.2-3.4,1.4-6.8,1-10.3c-0.8-6.8-3.3-8.6-9.9-7.4
		c3.7-5.5,8.2-10.4,12.6-15.3c3-3.3,5.4-7,7.8-11.2c4.8,5.7,4.4,12,3.3,17.9c-2.7,15.1-7.7,29.5-16,42.5
		C667.5,951.5,666.9,951.9,666.4,952.3z"/>
	<path class="st24" d="M666.8,973.4c-0.2,0.1-0.4,0.1-0.6,0.2c0-0.3,0-0.5,0.1-0.7c0-0.1,0.2-0.1,0.3-0.2
		C666.6,972.9,666.7,973.1,666.8,973.4z"/>
	<path class="st144" d="M362.2,976.1c-0.2,0.3-0.3,0.6-0.5,0.9C361.9,976.7,362.1,976.4,362.2,976.1z"/>
	<path class="st29" d="M863.4,1293.6c-0.5,0.2-1,1-1.5,0.1c-0.1-0.2,0.5-0.7,0.8-1C862.9,1293,863.2,1293.3,863.4,1293.6z"/>
	<path class="st35" d="M454.2,942.3c-2.6-1.2-6.9,1.6-7.3-2.5c-0.3-3.1,3.6-1.7,5.7-2c33.4-4.5,66-12.1,97.2-24.9
		c16.2-6.6,31.3-15.5,45.3-26c4.1-3.1,8.8-6.4,5.5-13.2c-1.3-2.6,2.9-4.8,6.3-3.5c4.7,1.8,7.1,7.2,5.6,12.5c-1.5,5.1-5,8.6-9.1,11.5
		c-13.5,9.6-28.1,17.2-43.5,23.2c-28.6,11.1-58.3,18.2-88.6,22.6C465.5,940.9,459.8,941.5,454.2,942.3z"/>
	<path class="st146" d="M368.1,1078.9c-1.7-4.7-3.5-9.3-5.2-14c-0.6-1.6-1.1-3.2-1.4-4.8c-0.4-2.4-0.2-5,2.4-6
		c2.5-1,4.5,0.6,5.9,2.6c2.5,3.6,3.4,7.9,4.9,12c0.5,1.4,0.7,2.9,2.3,4.3c1.9-3.8,1.8-8,3-11.8c1.4-4.2,1.9-8.9,5.2-12.3
		c1-1.1,2-2.4,3.8-2c2,0.4,2.3,2.2,2.7,3.8c0.9,3.7-0.5,7.2-1.2,10.8c-1.3,5.8-3.2,11.5-3.7,18.5c6-5.2,11.7-9.4,17.9-12.9
		c3.5-2,7-3.8,11.3-3.5c3.9,0.3,5.3,2.6,3.6,6c-1.5,3.1-4.4,4.9-7.4,6.5c-6.3,3.4-12.5,7-17.8,11.9c-0.9,0.8-2.6,1.7-1.3,3.2
		c1.1,1.2,2.1-0.2,3-0.7c8.1-4.2,16-8.9,25.5-9.6c2.1-0.2,4.7-1.1,5.8,1.5c1.2,2.9-1.4,4-3.3,5.4c-3.5,2.7-7.7,3.9-11.7,5.6
		c-3.1,1.2-6.1,2.5-9.9,4c3.5,2.4,6.9,2.9,10,4.1c3.3,1.3,6.5,2.6,8.9,5.3c1.3,1.5,1.9,3.2,1.1,5.1c-0.8,1.8-2.4,2.1-4.2,2.1
		c-2,0-3.9-0.2-5.9-0.9c-5.3-1.9-10.6-4-16.1-5.4c-6.4-1.7-11.1-5.1-13.4-11.5c-1.3-3.5-3.3-5-5.8-1.3c-4.7,7-10.9,7.7-18.3,5.8
		c-2.1-0.5-4.3-0.6-6.4-0.8c-2.4-0.2-4.2-1.3-4.3-3.9c-0.1-2.6,1.7-3.9,4.1-4.2c3.4-0.5,6.9-0.8,10.6-1.2c-0.7-2.9-3.2-4.2-4.9-6.1
		c-2.3-2.6-5.1-4.8-6.6-8.1c-0.9-2-2.3-4-0.4-5.9c1.9-1.9,4-0.7,6,0.3c4.2,2,6.7,6,10.5,8.3c0.5,0.6,0.2,2.2,1.2,1.8
		C369.5,1080.8,369.1,1079.5,368.1,1078.9z"/>
	<path class="st144" d="M368.1,1078.9c1,0.6,1.3,1.9,0.6,2.2c-1,0.4-0.7-1.2-1.2-1.8C367.7,1079.2,367.9,1079,368.1,1078.9z"/>
</g>
</svg>
