<?xml version="1.0" encoding="utf-8"?>
<!-- Generator: Adobe Illustrator 25.0.0, SVG Export Plug-In . SVG Version: 6.00 Build 0)  -->
<svg version="1.1" id="图层_1" xmlns="http://www.w3.org/2000/svg" xmlns:xlink="http://www.w3.org/1999/xlink" x="0px" y="0px"
	 viewBox="0 0 1200 1600" style="enable-background:new 0 0 1200 1600;" xml:space="preserve">
<style type="text/css">
	.st0{fill:#060604;}
	.st1{fill:#EDCF5D;}
	.st2{fill:#FBF1EE;}
	.st3{fill:#ECCF5D;}
	.st4{fill:#F4FB95;}
	.st5{fill:#A0918B;}
	.st6{fill:#FBFBFB;}
	.st7{fill:#927233;}
	.st8{fill:#935A40;}
	.st9{fill:#623C2A;}
	.st10{fill:#FEFEFE;}
	.st11{fill:#040302;}
	.st12{fill:#090805;}
	.st13{fill:#9C5B46;}
	.st14{fill:#070705;}
	.st15{fill:#ECCE5D;}
	.st16{fill:#F2F2F2;}
	.st17{fill:#93583F;}
	.st18{fill:#A1918B;}
	.st19{fill:#513123;}
	.st20{fill:#FAFAFA;}
	.st21{fill:#030202;}
	.st22{fill:#060605;}
	.st23{fill:#A0908A;}
	.st24{fill:#937234;}
	.st25{fill:#E6C95B;}
	.st26{fill:#864E37;}
	.st27{fill:#513124;}
	.st28{fill:#B0603E;}
	.st29{fill:#FAF0ED;}
	.st30{fill:#F9F9F9;}
	.st31{fill:#917133;}
	.st32{fill:#9E8F89;}
	.st33{fill:#E7CA5B;}
	.st34{fill:#92583F;}
	.st35{fill:#050503;}
	.st36{fill:#FCFBFB;}
	.st37{fill:#080704;}
	.st38{fill:#070605;}
	.st39{fill:#FAF1ED;}
	.st40{fill:#F4FA95;}
	.st41{fill:#F8F8F7;}
	.st42{fill:#90573E;}
	.st43{fill:#030302;}
	.st44{fill:#080805;}
	.st45{fill:#FBF1ED;}
	.st46{fill:#FBFBFA;}
	.st47{fill:#927234;}
	.st48{fill:#F69376;}
	.st49{fill:#7B2D2D;}
	.st50{fill:#FCFCFC;}
	.st51{fill:#EF5A2D;}
	.st52{fill:#F0CC2D;}
	.st53{fill:#9F8F8A;}
	.st54{fill:#FAFAF9;}
	.st55{fill:#F2A78E;}
	.st56{fill:#040403;}
	.st57{fill:#070604;}
	.st58{fill:#A0908B;}
	.st59{fill:#F7F7F7;}
	.st60{fill:#E8CB5B;}
	.st61{fill:#8F563E;}
	.st62{fill:#513224;}
	.st63{fill:#080705;}
	.st64{fill:#FCFCFB;}
	.st65{fill:#F9F8F8;}
	.st66{fill:#FAF0EC;}
	.st67{fill:#9F908A;}
	.st68{fill:#91573E;}
	.st69{fill:#070704;}
	.st70{fill:#F5FC96;}
	.st71{fill:#9C9C53;}
	.st72{fill:#9A9A52;}
	.st73{fill:#F2F994;}
	.st74{fill:#A17628;}
	.st75{fill:#90573F;}
	.st76{fill:#090806;}
	.st77{fill:#523123;}
	.st78{fill:#7C4031;}
	.st79{fill:#ED866D;}
	.st80{fill:#F3E9E6;}
	.st81{fill:#4F3023;}
	.st82{fill:#060606;}
	.st83{fill:#89533B;}
	.st84{fill:#050403;}
	.st85{fill:#090909;}
	.st86{fill:#EDCF5E;}
	.st87{fill:#050504;}
	.st88{fill:#060504;}
	.st89{fill:#955A41;}
	.st90{fill:#080703;}
	.st91{fill:#090807;}
	.st92{fill:#070603;}
	.st93{fill:#0A0905;}
	.st94{fill:#937335;}
	.st95{fill:#955A40;}
	.st96{fill:#955940;}
	.st97{fill:#EDD05E;}
	.st98{fill:#8F7032;}
	.st99{fill:#945940;}
	.st100{fill:#EED05E;}
	.st101{fill:#503123;}
	.st102{fill:#EEEEEE;}
	.st103{fill:#0D0C0A;}
	.st104{fill:#E3C659;}
	.st105{fill:#967535;}
	.st106{fill:#9D7D38;}
	.st107{fill:#745A29;}
	.st108{fill:#847334;}
	.st109{fill:#907134;}
	.st110{fill:#E5C85B;}
	.st111{fill:#503124;}
	.st112{fill:#927133;}
	.st113{fill:#E0DDD4;}
	.st114{fill:#987836;}
	.st115{fill:#977636;}
	.st116{fill:#CCC4A4;}
	.st117{fill:#523224;}
	.st118{fill:#0B0908;}
	.st119{fill:#8F7135;}
	.st120{fill:#050404;}
	.st121{fill:#EDD05D;}
	.st122{fill:#F3FA94;}
	.st123{fill:#9A9A51;}
	.st124{fill:#999951;}
	.st125{fill:#937334;}
	.st126{fill:#FAF0EE;}
	.st127{fill:#F3FA95;}
	.st128{fill:#989851;}
	.st129{fill:#A2792A;}
	.st130{fill:#F1F893;}
	.st131{fill:#A17729;}
	.st132{fill:#050502;}
	.st133{fill:#947335;}
	.st134{fill:#917233;}
	.st135{fill:#9B9B52;}
	.st136{fill:#F9EFEC;}
	.st137{fill:#9A782F;}
	.st138{fill:#979752;}
	.st139{fill:#F2F893;}
	.st140{fill:#8C8E4F;}
	.st141{fill:#B5B96E;}
	.st142{fill:#0F0F09;}
	.st143{fill:#9C9C52;}
	.st144{fill:#F5FB95;}
	.st145{fill:#F3F994;}
	.st146{fill:#A17728;}
	.st147{fill:#917134;}
	.st148{fill:#090706;}
	.st149{fill:#8E6F32;}
	.st150{fill:#93593F;}
	.st151{fill:#907033;}
	.st152{fill:#060505;}
	.st153{fill:#C8C3AF;}
	.st154{fill:#533324;}
	.st155{fill:#533426;}
	.st156{fill:#0E0C0A;}
	.st157{fill:#907133;}
	.st158{fill:#583627;}
	.st159{fill:#0A0907;}
	.st160{fill:#573526;}
	.st161{fill:#0C0B09;}
	.st162{fill:#503023;}
	.st163{fill:#543325;}
	.st164{fill:#B7B3A1;}
</style>
<g>
	<path class="st100" d="M592,1269c-43.6,0.6-87.2-1.9-130.8-1.4c-23.6,0.2-47.2-1.1-70.9-1.8c-11-0.3-22-0.1-32.9,1.1
		c-7.6-11.3-15.7-22.3-20.6-35.1c-4.4-11.6-10.5-22.6-13.7-34.8c-10.3-38.3-8-76.9-2.4-115.5c4.2-29,13.8-56.9,18.2-85.9
		c11.5,14.5,23.3,28.7,35.9,42.2c32.2,34.2,67.9,63.7,111,83.6c3.9,1.8,7.8,2.7,12.1,2.6c6.5-0.1,11.5-3.8,17.1-6.2
		c15.5-6.8,29.6-15.9,43.2-25.8c25.8-18.7,49.2-40.2,70.1-64.4c9.8-11.3,19-23.2,30.8-32.5c5.8,25.2,15.4,49.1,26.2,72.5
		c8.7,18.7,13.1,38.7,15.8,59c3.7,27.3,3,54.8,2.6,82.3c-0.3,18.7-4.3,36.9-7.4,55.2c-4.1-0.4-8.2,0-12.4,0.3
		c-5.9,0.5-11.8,1.8-17.8,1.3c-20.7-1.6-41.4-1.4-62.1,0.4C599.9,1266.5,595.5,1266.3,592,1269z"/>
	<path class="st22" d="M338.8,995.6c-4.4,29-14,56.9-18.2,85.9c-5.6,38.6-7.9,77.2,2.4,115.5c3.3,12.1,9.3,23.1,13.7,34.8
		c4.9,12.8,13,23.8,20.6,35.1c0.8,1.4,1.7,2.8,2.7,4.5c-4.9-0.4-9.5-0.9-14-1.2c-1.7-0.1-2.2-1.4-2.9-2.5
		c-18.8-31-33.7-63.4-37.3-100.1c-4.9-50,3.1-98.5,16.5-146.5c3.3-11.9,6.7-23.7,8.6-35.9c0.5-3.4-0.4-5.8-2.8-8.4
		c-11.1-12.3-21.4-25.3-25.4-41.8c-3.1-12.6-1.1-24.6,8.8-34c1.5-1.4,1.6-2.7,1.3-4.4c-3.8-21.5,3.4-38.9,20-52.7
		c27.5-22.9,59.2-36.7,94-44c12.7-2.7,25.5-5,38.4-6.2c2-0.2,2.8-0.8,3-3c1.3-18,11.6-30.5,25.6-40.2c13.4-9.3,27.9-17,40.3-27.7
		c4.3-3.7,8.7-2.1,11.8,3.6c6,10.9,7.1,22.8,5.6,34.9c-0.5,3.7-0.4,4.5,3.7,3.6c10.4-2.1,19.8-6.7,29.6-10.5
		c7.8-3,11.9-1.1,13.6,6.9c3.1,14.6,1.2,28.6-7.6,41c-2.3,3.2-1.1,3.5,1.6,4.4c23,7.5,44.3,18.2,63.4,33.1c2.1,1.6,4.1,3.4,6.1,5.1
		c16,13.5,22.2,30.7,19,51.3c-0.2,1.6-0.8,2.9,0.8,4.5c11.8,11.6,12.8,25.4,7.4,40.1c-4.7,12.8-12.8,23.7-21.7,33.9
		c-1.9,2.2-2.5,4-1.8,7c4.7,23.3,13.4,45.3,23.3,66.8c5.8,12.5,11.8,24.9,15.6,38.2c2.3-0.3,3.2-2.1,4.4-3.3
		c10.5-11.2,20.9-22.5,31.4-33.6c10.8-11.5,22.5-21.8,36.4-29.4c11.4-6.2,23.6-9.1,36.6-7.3c16.4,2.3,28,11.5,36,25.7
		c8.1,14.3,10.8,30,11.7,46.1c2.9,49.1-8.1,95.3-31.9,138.2c-14.9,26.9-36.3,48.4-59.1,68.5c-30.1,26.5-63.5,47.9-100.3,63.7
		c-7.2,3.1-14.4,6.1-22.4,6.7c-4.5,0.4-6.7-1.4-5.9-6.1c3.7-2.6,7.6-4.7,11.8-6.3c31.4-11.6,59.8-28.8,86.7-48.4
		c0.9-0.7,2.6-1,2.1-2.8c2.1,0.7,3-1.1,4.2-2.1c6.6-5.4,12.8-11.1,19.6-16.3c8.4-6.4,12.8-14.7,15.2-24.9
		c3.2-13.8,7.4-27.3,6.1-41.7c-0.7-7.9-2.9-14.9-10.9-18.8c-4.2-2.1-5.4-5.9-4.7-10.5c1.1-7.4,2.8-14.7,3.9-22.1
		c2.5-17.1-15.9-35.7-32-30.4c-1.1,0.4-2.3,0.3-3.5,0.3c-3.6,0.1-5.3-1.9-4.8-5.4c0.3-2.1,1.1-4.2,1.7-6.2c2.2-7,4.4-14,4.6-21.4
		c0.3-7.9-3.9-15.1-10.4-17.8c-2.5-1.1-4.6-1-6.7,1.2c-4.4,4.5-9,9-13.9,12.9c-2.6,2.1-2.5,3.9-1.2,6.3c-0.7,1.3-0.3,2.6,0,3.9
		c5.6,23,5.5,46.4,6.5,69.9c1.2,28.9-1.7,57.4-7.2,85.7c-0.9,4.6-1.3,9.2-2.4,13.7c-0.6,2.7-2.6,5.1-5.6,4.8
		c-3.4-0.3-4.4-3.2-4.5-6.2c-0.1-3.1,0.1-6.3,0.2-9.5c3.1-18.3,7.2-36.6,7.4-55.2c0.4-27.4,1.1-54.9-2.6-82.3
		c-2.8-20.3-7.2-40.3-15.8-59c-10.8-23.4-20.4-47.3-26.2-72.5c-0.4-2.8-0.8-5.7-1.2-8.9c-1,0.8-1.4,1-1.7,1.4
		c-22.6,24-48.6,44-75.3,63.1c-24.1,17.3-48.9,33.4-76.8,44.2c-4.8,1.9-9.1,2-13.9,0c-18.3-7.7-36-16.4-52.5-27.6
		c-33.8-22.9-67.3-46.2-95.6-76c-0.5-0.6-1.1-1.4-2.5-0.8C339.2,992.1,339,993.8,338.8,995.6z M650.7,930.9c-1.6-3.1,0.3-5.1,2.2-7
		c7.3-7.1,12.6-15.6,15.4-25.3c3.3-11.4,3-22.7-3.7-33.1c-5.8-9.1-14.1-15.4-22.7-21.5c-36.2-25.3-77.5-36.8-120.5-41.4
		c-36-3.8-71.7,0.6-106.5,11.6c-27.9,8.8-54.2,20.5-76.3,40.1c-15.8,14-19.3,30-11.5,49.6c3.2,7.9,8,14.6,13.9,20.5
		c1.9,2,2.9,4,1.9,6.7c-1.8-0.1-3.5,0-5.1-1.4c-4.7-4.1-9.6-8.1-13.4-13.1c-2.2-2.8-4.1-5.9-7.3-8.3c-3.2,4.5-4.8,9.5-5.2,14.8
		c-0.8,5.6,0.5,11,2.7,16c5.5,12.5,13.6,23.1,23.1,32.9c19.9,20.4,41.1,39.4,64.1,56.3c28.8,21.1,57.5,42.1,90.6,56.1
		c3,1.3,5.5,1.4,8.4,0c16.2-7.5,32-15.5,46.9-25.4c39.3-26,76.7-54.1,109.3-88.4c7.6-8,14.3-16.7,19.4-26.5
		c3.4-6.5,5.9-13.3,5.1-20.9c-0.3-3.8-1.6-7.4-2.9-11c-1.4-3.6-3-4.4-5.6-0.9c-4.7,6.4-9.9,12.4-16.3,17.4
		C655,930.2,653.2,931.3,650.7,930.9z M786.6,1257.9c0.4,0.3,0.7,0.5,1.1,0.8c1.8-1.9,3.6-3.7,5.3-5.7
		c41.8-47.3,58.4-103.2,56.5-165.3c-0.4-14.6-2.9-29.1-10-42.4c-9.3-17.3-25.7-24.9-44.5-19.4c-27.2,7.8-43.8,29.4-62.5,48.6
		c13.5,6.8,18.1,16,16,30.5c-0.9,6.4-2.8,12.6-4.4,19.2c1.1,0,1.9,0,2.7,0c19-0.8,35.3,14.9,35.5,34c0.1,8.8-2.5,17.1-4.5,25.5
		c-0.9,3.6,0,5.7,3.1,7.3c5.7,2.9,9,7.6,10.8,13.7c2.7,9.5,2.4,19.1,1,28.7C791.4,1241.7,788.7,1249.7,786.6,1257.9z M501.5,793.1
		c0,0.1,0,0.1,0,0.2c7.8,0,15.6-0.1,23.5,0.1c2.1,0,3.4-0.5,4.5-2.3c10.1-16.6,14-34.3,9.3-53.5c-1-4-2.6-3.7-5.3-1.5
		c-7.4,6.2-15.8,11.1-24.3,15.6c-6.9,3.7-13.5,7.9-19.3,13.1c-7.5,6.7-12.8,14.7-15.2,24.6c-0.8,3.1,0.1,3.6,3,3.6
		C485.5,793,493.5,793.1,501.5,793.1z M538.8,794.9c13.9,2.4,27.3,4.6,40.5,8c1.7,0.4,2.2-0.7,2.8-2c5-10.6,7.6-21.6,6.7-33.4
		c-0.2-2.7-0.7-4.2-3.8-2.6c-10.3,5-21.1,7.9-32.4,9.5c-1.8,0.3-3.9,0.6-4.7,3C545.8,783.4,542.8,789.2,538.8,794.9z M786.8,1259.4
		c-0.1-0.1-0.2-0.2-0.3-0.4c-0.1,0.1-0.3,0.2-0.3,0.3c0,0.1,0.2,0.2,0.3,0.4C786.6,1259.6,786.7,1259.5,786.8,1259.4z"/>
	<path class="st24" d="M696.2,1264.1c-0.1,3.2-0.3,6.3-0.2,9.5c0.1,3,1.2,5.9,4.5,6.2c3,0.3,5-2.1,5.6-4.8c1.1-4.5,1.5-9.2,2.4-13.7
		c5.5-28.3,8.4-56.8,7.2-85.7c-0.9-23.4-0.9-46.9-6.5-69.9c-0.3-1.3-0.6-2.6,0-3.9c4.4,4.5,5.9,10.6,7.6,16.3
		c9.1,29.6,12.6,60.4,18.1,90.8c3.8,20.9,6.8,42,7.7,63.2c0.4,8.8,1,17.6-0.7,26.4c0.4,1.8-1.2,2.2-2.1,2.8
		c-27,19.6-55.3,36.8-86.7,48.4c-4.2,1.6-8.2,3.6-11.8,6.3c-11.1-6.8-19.3-16.5-26.3-27.4c-9.1-14.2-15.9-29.4-20.1-45.8
		c-1.2-4.6-4.4-8.7-3-13.8c3.5-2.7,7.9-2.5,11.9-2.8c20.7-1.9,41.4-2.1,62.1-0.4c6,0.5,11.9-0.8,17.8-1.3
		C687.9,1264.1,692,1263.7,696.2,1264.1z"/>
	<path class="st24" d="M338.8,995.6c0.2-1.8,0.4-3.5,0.6-5.1c1.4-0.5,1.9,0.3,2.5,0.8c28.4,29.7,61.8,53.1,95.6,76
		c16.5,11.2,34.2,19.9,52.5,27.6c4.8,2,9.1,1.8,13.9,0c27.9-10.8,52.7-26.9,76.8-44.2c26.7-19.1,52.7-39.1,75.3-63.1
		c0.3-0.3,0.8-0.6,1.7-1.4c0.4,3.2,0.8,6.1,1.2,8.9c-11.8,9.4-21.1,21.2-30.8,32.5c-20.9,24.2-44.2,45.6-70.1,64.4
		c-13.6,9.9-27.7,19-43.2,25.8c-5.6,2.4-10.6,6.1-17.1,6.2c-4.3,0.1-8.2-0.9-12.1-2.6c-43-19.9-78.8-49.4-111-83.6
		C362,1024.3,350.3,1010.1,338.8,995.6z"/>
	<path class="st4" d="M681.8,923.1c0.8,7.6-1.7,14.4-5.1,20.9c-5.2,9.8-11.8,18.5-19.4,26.5c-32.6,34.3-70,62.4-109.3,88.4
		c-14.9,9.9-30.7,17.9-46.9,25.4c-3,1.4-5.5,1.3-8.4,0c-33.1-14.1-61.9-35-90.6-56.1c-23-16.9-44.2-35.9-64.1-56.3
		c-9.5-9.7-17.6-20.4-23.1-32.9c-2.2-5.1-3.5-10.4-2.7-16c1.7-0.1,2.5,1.4,3.7,2.2c8.1,5.7,17.1,9.2,27,9.9c1.3,0.1,2.9,0.2,3.1-1.6
		c0.1-1.8-1-2.7-2.8-2.5c1.1-2.7,0.1-4.7-1.9-6.7c-5.9-6-10.8-12.6-13.9-20.5c-7.8-19.6-4.4-35.6,11.5-49.6
		c22.1-19.6,48.4-31.3,76.3-40.1c34.8-11,70.5-15.4,106.5-11.6c43,4.6,84.3,16.1,120.5,41.4c8.6,6,16.9,12.4,22.7,21.5
		c6.7,10.5,7,21.7,3.7,33.1c-2.8,9.7-8.2,18.2-15.4,25.3c-1.9,1.9-3.8,3.9-2.2,7c-1.8,0-2.9,0.7-2.6,2.7c0.2,1.5,1.5,1.5,2.7,1.6
		c3,0.2,5.9-0.7,8.8-1.4C667.7,931.7,674.8,927.4,681.8,923.1z M496.6,982.3c14.2-0.3,28-2.2,41.1-6.5
		c31.7-10.3,61.3-24.4,86.2-47.6c15.3-14.3,20.7-30.8,16.4-50.8c-6.6-30.8-28.7-47.7-56.2-56.7c-22.7-7.5-46.9-8.7-70.9-9.7
		c-27.5-1.2-54.8,0.5-82,5.1c-11.9,2-23.8,3.8-34.7,9.9c-14.3,7.9-27,17-35.4,31.3c-12.8,21.6-14,51.1,8.7,71.3
		c19.3,17.2,41.2,29.7,64.8,39.6C454.6,976.6,475.3,981.4,496.6,982.3z M501.3,1034.9c-1.9-8.5,0.1-16.3-0.5-24.1
		c-0.2-3-0.1-6-4.2-6c-3.9,0.1-3.6,3.1-3.6,5.8c0,7.9,0,15.8,0,24.8c-5.6-7-9.4-13.5-12.3-20.6c-0.8-2-2.3-4.1-4.8-3.6
		c-3,0.6-2,3.5-1.9,5.4c0.1,1.9,0.8,3.9,1.5,5.8c2.5,6.2,5.8,12,9.9,17.3c1.7,2.2,2.2,3.6-0.1,5.8c-4.5,4.2-4.3,4.3-7.8-0.8
		c-1.1-1.7-2.1-3.4-3.2-5c-2.6-4.1-4.3-8.6-7.6-12.3c-1.1-1.2-2-3-4-2.1c-1.9,0.9-0.9,2.5-0.7,4c0.8,6.6,4.2,12.2,7.5,17.8
		c1.1,1.8,3,3.3,3.6,6.7c-4.6-2.7-8.4-4.7-12-7.1c-5.4-3.6-10.6-7.5-15.9-11.3c-1.4-1-3-1.8-4.5-0.1c-1.2,1.4-0.9,3.1,0.1,4.6
		c0.6,0.8,1.2,1.6,1.9,2.3c8.5,8.9,18.5,15.7,29.5,21c3.7,1.8,7,1.3,9.9-1.8c4-4.2,8.3-8.2,12.3-12.4c1.8-1.9,3.1-1.8,4.8,0
		c4,4.2,8.4,8.1,12.4,12.4c2.6,2.8,5.8,3.7,9,2.2c11.7-5.5,22.3-12.7,31.1-22.2c1.5-1.6,3.5-3.7,1.2-6.1c-2-2.1-4-0.3-5.7,0.9
		c-5.7,4-11.3,8.2-17.2,12c-2.7,1.8-5.5,3.9-9.6,4.5c4.9-7.4,9.6-14.1,11.2-22.3c0.3-1.7,1.3-3.9-0.6-5c-2.2-1.2-3.3,1.1-4.2,2.5
		c-3.8,5.8-7.3,11.9-11.2,17.7c-0.9,1.3-1.6,5.3-4.4,2.1c-1.8-2-7.2-2.7-3-7.8c5.1-6.2,9.1-13.2,11.2-21c0.7-2.6,2.2-6.2-1.3-7.4
		c-3-1.1-4.4,2.2-5.6,4.5c-0.5,0.9-0.9,1.8-1.3,2.7C508.8,1024.3,505.4,1029.4,501.3,1034.9z"/>
	<path class="st126" d="M786.6,1257.9c2.1-8.2,4.9-16.2,6-24.6c1.4-9.6,1.7-19.2-1-28.7c-1.8-6.1-5.1-10.8-10.8-13.7
		c-3.2-1.6-4-3.7-3.1-7.3c2-8.4,4.6-16.7,4.5-25.5c-0.2-19.2-16.4-34.9-35.5-34c-0.8,0-1.6,0-2.7,0c1.6-6.6,3.5-12.7,4.4-19.2
		c2.1-14.5-2.5-23.7-16-30.5c18.7-19.2,35.4-40.8,62.5-48.6c18.8-5.4,35.2,2.2,44.5,19.4c7.1,13.3,9.6,27.8,10,42.4
		c1.9,62.1-14.7,118.1-56.5,165.3c-1.7,1.9-3.6,3.8-5.3,5.7C787.3,1258.4,787,1258.2,786.6,1257.9z"/>
	<path class="st3" d="M742,1298.5c1.7-8.8,1.1-17.6,0.7-26.4c-1-21.3-4-42.3-7.7-63.2c-5.5-30.4-9-61.1-18.1-90.8
		c-1.8-5.7-3.2-11.8-7.6-16.3c-1.3-2.4-1.4-4.2,1.2-6.3c4.9-4,9.4-8.4,13.9-12.9c2.1-2.2,4.2-2.2,6.7-1.2
		c6.5,2.7,10.7,9.9,10.4,17.8c-0.3,7.4-2.4,14.4-4.6,21.4c-0.6,2.1-1.4,4.1-1.7,6.2c-0.5,3.5,1.2,5.4,4.8,5.4c1.2,0,2.4,0,3.5-0.3
		c16.1-5.4,34.5,13.3,32,30.4c-1.1,7.4-2.8,14.7-3.9,22.1c-0.7,4.6,0.5,8.5,4.7,10.5c8,3.9,10.2,10.9,10.9,18.8
		c1.3,14.4-2.9,27.9-6.1,41.7c-2.4,10.1-6.8,18.5-15.2,24.9c-6.7,5.1-13,10.9-19.6,16.3C745,1297.4,744,1299.2,742,1298.5z"/>
	<path class="st127" d="M501.5,793.1c-8,0-16-0.1-24,0.1c-2.9,0.1-3.7-0.5-3-3.6c2.4-9.9,7.7-17.9,15.2-24.6
		c5.9-5.2,12.4-9.4,19.3-13.1c8.5-4.6,16.9-9.4,24.3-15.6c2.7-2.3,4.3-2.5,5.3,1.5c4.8,19.2,0.8,36.9-9.3,53.5
		c-1.1,1.8-2.4,2.3-4.5,2.3c-7.8-0.2-15.6-0.1-23.5-0.1C501.5,793.2,501.5,793.2,501.5,793.1z"/>
	<path class="st130" d="M538.8,794.9c3.9-5.7,6.9-11.5,9-17.6c0.8-2.4,2.9-2.7,4.7-3c11.3-1.6,22.2-4.5,32.4-9.5
		c3.2-1.5,3.6,0,3.8,2.6c0.9,11.8-1.7,22.8-6.7,33.4c-0.6,1.3-1.1,2.5-2.8,2C566.2,799.4,552.7,797.3,538.8,794.9z"/>
	<path class="st72" d="M343,931c1.8-0.2,3,0.7,2.8,2.5c-0.1,1.9-1.8,1.7-3.1,1.6c-9.9-0.7-18.9-4.2-27-9.9c-1.2-0.8-2-2.3-3.7-2.2
		c0.5-5.3,2-10.3,5.2-14.8c3.2,2.4,5.1,5.5,7.3,8.3c3.8,5.1,8.7,9,13.4,13.1C339.5,931,341.2,930.9,343,931z"/>
	<path class="st72" d="M681.8,923.1c-7,4.3-14.1,8.6-22.2,10.6c-2.9,0.7-5.8,1.6-8.8,1.4c-1.2-0.1-2.5-0.1-2.7-1.6
		c-0.3-1.9,0.8-2.7,2.6-2.7c2.5,0.5,4.3-0.7,6.2-2.2c6.4-5,11.6-11,16.3-17.4c2.6-3.6,4.2-2.7,5.6,0.9
		C680.2,915.7,681.5,919.2,681.8,923.1z"/>
	<path class="st126" d="M786.8,1259.4c-0.1,0.1-0.2,0.2-0.3,0.3c-0.1-0.1-0.3-0.2-0.3-0.4c0-0.1,0.2-0.2,0.3-0.3
		C786.6,1259.2,786.7,1259.3,786.8,1259.4z"/>
	<path class="st71" d="M496.6,982.3c-21.3-0.9-42-5.7-62-14.1c-23.6-9.9-45.4-22.5-64.8-39.6c-22.7-20.2-21.5-49.7-8.7-71.3
		c8.4-14.3,21.1-23.4,35.4-31.3c11-6.1,22.8-7.9,34.7-9.9c27.1-4.5,54.5-6.3,82-5.1c23.9,1,48.2,2.2,70.9,9.7
		c27.6,9.1,49.6,25.9,56.2,56.7c4.2,19.9-1.1,36.5-16.4,50.8c-24.8,23.2-54.5,37.3-86.2,47.6C524.6,980,510.9,981.9,496.6,982.3z
		 M496.9,840.1c7.3,0.7,14.5,1.2,21.8,2c20.7,2.4,41.2,6,60.2,15.4c7,3.5,13.9,7.3,19.4,13c5.7,5.9,6.5,11.1,2.9,17.5
		c-1,1.8-2.4,3.8-0.6,5.4c1.7,1.6,4.1,1,6.1,0c4.8-2.3,7.7-8.3,6.9-14.4c-1.2-10-7.5-16.4-15.2-21.8c-12.1-8.3-25.5-13.7-39.6-17.3
		c-20.9-5.4-42-8.2-63.7-8c-24.3,0.2-47.8,3.8-70.7,11.3c-13.3,4.4-26.1,10.1-36.3,20.2c-5,5-8.1,11-8,18.2c0.1,6,4.3,11.4,9.1,12.4
		c1.7,0.4,3.4,0.4,4.5-1.2c1-1.4,0.2-2.8-0.6-4.2c-4.1-7.6-3.4-12.6,2.7-18.7c6.4-6.3,14.1-10.5,22.2-14.2
		C443.1,844.7,470,842.5,496.9,840.1z"/>
	<path class="st131" d="M501.3,1034.9c4.2-5.5,7.5-10.6,10-16.2c0.4-0.9,0.8-1.8,1.3-2.7c1.3-2.3,2.6-5.6,5.6-4.5
		c3.4,1.3,2,4.8,1.3,7.4c-2.2,7.8-6.2,14.8-11.2,21c-4.2,5.1,1.2,5.8,3,7.8c2.8,3.2,3.5-0.8,4.4-2.1c3.9-5.8,7.4-11.8,11.2-17.7
		c0.9-1.4,2.1-3.7,4.2-2.5c1.9,1.1,1,3.3,0.6,5c-1.6,8.2-6.3,14.9-11.2,22.3c4.1-0.6,6.9-2.7,9.6-4.5c5.8-3.8,11.5-8,17.2-12
		c1.8-1.2,3.7-3,5.7-0.9c2.3,2.3,0.3,4.4-1.2,6.1c-8.8,9.5-19.4,16.8-31.1,22.2c-3.3,1.5-6.4,0.6-9-2.2c-4-4.2-8.3-8.2-12.4-12.4
		c-1.8-1.9-3-1.9-4.8,0c-4,4.2-8.3,8.2-12.3,12.4c-3,3.1-6.3,3.6-9.9,1.8c-11-5.3-21-12.2-29.5-21c-0.7-0.7-1.4-1.5-1.9-2.3
		c-1-1.5-1.3-3.2-0.1-4.6c1.4-1.6,3-0.9,4.5,0.1c5.3,3.7,10.5,7.6,15.9,11.3c3.6,2.4,7.4,4.4,12,7.1c-0.6-3.4-2.5-4.8-3.6-6.7
		c-3.3-5.6-6.7-11.1-7.5-17.8c-0.2-1.4-1.2-3.1,0.7-4c2-1,2.9,0.9,4,2.1c3.3,3.6,5,8.2,7.6,12.3c1.1,1.7,2.1,3.4,3.2,5
		c3.4,5.1,3.3,5,7.8,0.8c2.3-2.2,1.9-3.5,0.1-5.8c-4.1-5.3-7.5-11-9.9-17.3c-0.7-1.8-1.3-3.8-1.5-5.8c-0.1-2-1.1-4.8,1.9-5.4
		c2.5-0.5,4,1.6,4.8,3.6c3,7,6.7,13.6,12.3,20.6c0-9.1,0-17,0-24.8c0-2.7-0.3-5.8,3.6-5.8c4-0.1,4,3,4.2,6
		C501.3,1018.6,499.4,1026.4,501.3,1034.9z"/>
	<path class="st132" d="M496.9,840.1c-26.9,2.4-53.8,4.5-78.9,15.9c-8.1,3.7-15.8,7.9-22.2,14.2c-6.2,6.1-6.8,11.1-2.7,18.7
		c0.7,1.4,1.6,2.7,0.6,4.2c-1.1,1.5-2.8,1.5-4.5,1.2c-4.8-1-9-6.4-9.1-12.4c-0.2-7.3,2.9-13.2,8-18.2c10.2-10.1,23-15.9,36.3-20.2
		c22.9-7.5,46.4-11.1,70.7-11.3c21.7-0.2,42.8,2.6,63.7,8c14.1,3.6,27.5,9,39.6,17.3c7.7,5.4,14,11.8,15.2,21.8
		c0.7,6.1-2.1,12-6.9,14.4c-2,1-4.4,1.7-6.1,0c-1.7-1.7-0.4-3.6,0.6-5.4c3.6-6.4,2.8-11.6-2.9-17.5c-5.5-5.7-12.4-9.5-19.4-13
		c-19-9.4-39.4-12.9-60.2-15.4C511.4,841.3,504.1,840.8,496.9,840.1z"/>
</g>
</svg>
