<?xml version="1.0" encoding="utf-8"?>
<!-- Generator: Adobe Illustrator 25.0.0, SVG Export Plug-In . SVG Version: 6.00 Build 0)  -->
<svg version="1.1" id="图层_1" xmlns="http://www.w3.org/2000/svg" xmlns:xlink="http://www.w3.org/1999/xlink" x="0px" y="0px"
	 viewBox="0 0 1200 1600" style="enable-background:new 0 0 1200 1600;" xml:space="preserve">
<style type="text/css">
	.st0{fill:#060604;}
	.st1{fill:#EDCF5D;}
	.st2{fill:#FBF1EE;}
	.st3{fill:#ECCF5D;}
	.st4{fill:#F4FB95;}
	.st5{fill:#A0918B;}
	.st6{fill:#FBFBFB;}
	.st7{fill:#927233;}
	.st8{fill:#935A40;}
	.st9{fill:#623C2A;}
	.st10{fill:#FEFEFE;}
	.st11{fill:#040302;}
	.st12{fill:#090805;}
	.st13{fill:#9C5B46;}
	.st14{fill:#070705;}
	.st15{fill:#ECCE5D;}
	.st16{fill:#F2F2F2;}
	.st17{fill:#93583F;}
	.st18{fill:#A1918B;}
	.st19{fill:#513123;}
	.st20{fill:#FAFAFA;}
	.st21{fill:#030202;}
	.st22{fill:#060605;}
	.st23{fill:#A0908A;}
	.st24{fill:#937234;}
	.st25{fill:#E6C95B;}
	.st26{fill:#864E37;}
	.st27{fill:#513124;}
	.st28{fill:#B0603E;}
	.st29{fill:#FAF0ED;}
	.st30{fill:#F9F9F9;}
	.st31{fill:#917133;}
	.st32{fill:#9E8F89;}
	.st33{fill:#E7CA5B;}
	.st34{fill:#92583F;}
	.st35{fill:#050503;}
	.st36{fill:#FCFBFB;}
	.st37{fill:#080704;}
	.st38{fill:#070605;}
	.st39{fill:#FAF1ED;}
	.st40{fill:#F4FA95;}
	.st41{fill:#F8F8F7;}
	.st42{fill:#90573E;}
	.st43{fill:#030302;}
	.st44{fill:#080805;}
	.st45{fill:#FBF1ED;}
	.st46{fill:#FBFBFA;}
	.st47{fill:#927234;}
	.st48{fill:#F69376;}
	.st49{fill:#7B2D2D;}
	.st50{fill:#FCFCFC;}
	.st51{fill:#EF5A2D;}
	.st52{fill:#F0CC2D;}
	.st53{fill:#9F8F8A;}
	.st54{fill:#FAFAF9;}
	.st55{fill:#F2A78E;}
	.st56{fill:#040403;}
	.st57{fill:#070604;}
	.st58{fill:#A0908B;}
	.st59{fill:#F7F7F7;}
	.st60{fill:#E8CB5B;}
	.st61{fill:#8F563E;}
	.st62{fill:#513224;}
	.st63{fill:#080705;}
	.st64{fill:#FCFCFB;}
	.st65{fill:#F9F8F8;}
	.st66{fill:#FAF0EC;}
	.st67{fill:#9F908A;}
	.st68{fill:#91573E;}
	.st69{fill:#070704;}
	.st70{fill:#F5FC96;}
	.st71{fill:#9C9C53;}
	.st72{fill:#9A9A52;}
	.st73{fill:#F2F994;}
	.st74{fill:#A17628;}
	.st75{fill:#90573F;}
	.st76{fill:#090806;}
	.st77{fill:#523123;}
	.st78{fill:#7C4031;}
	.st79{fill:#ED866D;}
	.st80{fill:#F3E9E6;}
	.st81{fill:#4F3023;}
	.st82{fill:#060606;}
	.st83{fill:#89533B;}
	.st84{fill:#050403;}
	.st85{fill:#090909;}
	.st86{fill:#EDCF5E;}
	.st87{fill:#050504;}
	.st88{fill:#060504;}
	.st89{fill:#955A41;}
	.st90{fill:#080703;}
	.st91{fill:#090807;}
	.st92{fill:#070603;}
	.st93{fill:#0A0905;}
	.st94{fill:#937335;}
	.st95{fill:#955A40;}
	.st96{fill:#955940;}
	.st97{fill:#EDD05E;}
	.st98{fill:#8F7032;}
	.st99{fill:#945940;}
	.st100{fill:#EED05E;}
	.st101{fill:#503123;}
	.st102{fill:#EEEEEE;}
	.st103{fill:#0D0C0A;}
	.st104{fill:#E3C659;}
	.st105{fill:#967535;}
	.st106{fill:#9D7D38;}
	.st107{fill:#745A29;}
	.st108{fill:#847334;}
	.st109{fill:#907134;}
	.st110{fill:#E5C85B;}
	.st111{fill:#503124;}
	.st112{fill:#927133;}
	.st113{fill:#E0DDD4;}
	.st114{fill:#987836;}
	.st115{fill:#977636;}
	.st116{fill:#CCC4A4;}
	.st117{fill:#523224;}
	.st118{fill:#0B0908;}
	.st119{fill:#8F7135;}
	.st120{fill:#050404;}
	.st121{fill:#EDD05D;}
	.st122{fill:#F3FA94;}
	.st123{fill:#9A9A51;}
	.st124{fill:#999951;}
	.st125{fill:#937334;}
	.st126{fill:#FAF0EE;}
	.st127{fill:#F3FA95;}
	.st128{fill:#989851;}
	.st129{fill:#A2792A;}
	.st130{fill:#F1F893;}
	.st131{fill:#A17729;}
	.st132{fill:#050502;}
	.st133{fill:#947335;}
	.st134{fill:#917233;}
	.st135{fill:#9B9B52;}
	.st136{fill:#F9EFEC;}
	.st137{fill:#9A782F;}
	.st138{fill:#979752;}
	.st139{fill:#F2F893;}
	.st140{fill:#8C8E4F;}
	.st141{fill:#B5B96E;}
	.st142{fill:#0F0F09;}
	.st143{fill:#9C9C52;}
	.st144{fill:#F5FB95;}
	.st145{fill:#F3F994;}
	.st146{fill:#A17728;}
	.st147{fill:#917134;}
	.st148{fill:#090706;}
	.st149{fill:#8E6F32;}
	.st150{fill:#93593F;}
	.st151{fill:#907033;}
	.st152{fill:#060505;}
	.st153{fill:#C8C3AF;}
	.st154{fill:#533324;}
	.st155{fill:#533426;}
	.st156{fill:#0E0C0A;}
	.st157{fill:#907133;}
	.st158{fill:#583627;}
	.st159{fill:#0A0907;}
	.st160{fill:#573526;}
	.st161{fill:#0C0B09;}
	.st162{fill:#503023;}
	.st163{fill:#543325;}
	.st164{fill:#B7B3A1;}
</style>
<g>
	<path class="st100" d="M612.8,1335.7c-8.2-5-8.8-7.5-3.3-15.4c1.4-2,3.4-3.7,5-5.6c3.2-3.8,6.1-7.6,3.6-13
		c-2.4-5.3-6.7-7.6-12.3-7.9c-11-0.7-21.9,0.8-32.8,2.6c-23.6,3.8-47.3,3.7-71.1,1.9c-17.1-1.3-34.2-2.5-51.1-5.4
		c-13.4-2.3-26.9-4.4-40.2-7.5c-7.2-1.7-14.2-1.2-21.2-0.2c-7.5,1.1-14.9,1-22.4,0.5c-7.6-13.5-11.6-28.2-14.2-43.4
		c-2-12-1.4-23.8,2-35.5c2.3-7.9,6.1-15.1,9.7-22.4c10.3-20.9,20-42.1,23.4-65.5c3.2,0.1,3.7,3.1,4.9,5
		c11.6,19.4,27.1,35.2,45.2,48.5c10.7,7.8,21.6,15.5,34.3,20.1c5.9,2.2,10.1,1,12-4.1c2.9-7.9,4.9-16.2,6.5-24.5
		c8.1,0.2,9.1-0.6,11.6-8.3c1.7-5.3,2.9-10.7,5.7-15.6c0.4-0.3,1-0.4,1.2-0.8c8.6-13.4,17.3-26.8,25.8-40.4
		c17.4-27.7,38.4-52.2,63.8-72.9c15.1-12.3,30.4-24.3,44.6-37.6c19.5-18.2,38-37.3,48.4-62.6c3.9,8.1,7.4,16.4,9.8,25
		c10,35.9,16.8,72.3,16.8,109.7c0,16.3,0.8,32.6-0.7,48.9c-1.2,12.9-4.2,25.7-4.8,38.6c-0.8,18-3.1,35.8-3.9,53.7
		c-0.8,20.7-3.9,41.4-10,61.5c-1.4,4.7-3.3,9.5-2.4,14.6c-1.1-0.1-1.8,0.7-2.5,1.4c-6.1,7.1-13.4,12.9-20.6,18.7
		c-15.8,12.6-33.5,22.1-51.6,31C618.9,1330.7,614.7,1331.6,612.8,1335.7z"/>
	<path class="st0" d="M508.4,1140.2c-2.9,4.8-4,10.3-5.7,15.6c-2.5,7.7-3.5,8.5-11.6,8.3c-0.9-0.4-1.7-0.9-2.7-1.3
		c-15.2-5.4-30.6-10-45.1-17.1c-17.9-8.8-35.9-17.3-52.6-28.4c-2.5-1.7-3.2-1-2.6,1.8c-3.5,23.4-13.1,44.6-23.4,65.5
		c-3.6,7.3-7.4,14.5-9.7,22.4c-3.5,11.7-4.1,23.5-2,35.5c2.6,15.2,6.5,29.9,14.2,43.4c0.6,3.5,2.6,6.4,4.1,9.5
		c0.9,1.9,1.8,3.9,0,5.4c-1.8,1.5-3.5,0-4.8-1.2c-7-6-11.9-13.6-15.4-21.8c-13.6-32.3-15-64.3,2.3-96.2c11.3-21,20.3-43,25.2-66.5
		c0.9-4.3,0-6.8-3.4-9.7c-24.6-21.4-38.6-48.8-44-80.7c-4-24.1-4.6-48.6,2.9-71.8c9.7-30,28-54.2,58.7-65.9
		c27-10.3,54.2-20.3,80.8-31.6c26.5-11.2,52.8-22.9,79.5-33.5c17.8-7,36.4-10.5,55.3-12.6c10.1-1.1,19.9,1.4,29.5,4.1
		c3.3,0.9,4.6,1,5.5-3.1c6.1-27.9,28.9-47.4,57.4-49.3c12.1-0.8,23-4.8,33.6-10.3c9.4-5,13.9-2.9,14.8,7.6
		c2.4,25.7-3.3,49.9-15.5,72.6c-1.5,2.8-1.6,4.5,0.2,7c9.6,13.5,21.6,22.4,39.2,21.4c6.8-0.4,10,4.2,7,10.5
		c-13.7,28.9-37.9,56.7-75.6,54.5c16.7,42.8,24.7,87.3,25.7,133.5c2.5-0.4,4.3-1.9,6.2-3.1c32.2-19.7,58.2-46.4,83.6-73.8
		c17.2-18.6,33.7-37.9,54.5-52.7c11.3-8,23.3-14.2,37.7-14.2c12.6,0,22.7,4.9,30.8,14.7c13.9,16.9,20.2,36.7,24,57.8
		c5.6,31.1-1.2,60.7-9.4,90.5c-11.2,40.7-32.4,75.6-59.3,107.5c-44.8,53.3-95.9,99.6-156,135.2c-33.7,20-70.5,31.8-109.6,36.2
		c-0.5,0.1-1,0.1-1.5,0.1c-3.4,0.1-7.1,0.2-8.4-3.8c-1.4-4.2,1.8-5.9,4.9-7.3c25.9-2.7,50.7-10.4,75-19
		c27.7-9.8,51.4-26.9,75.1-43.6c27.9-20.1,53.3-43,77.5-67.5c1.4-1.5,2.3-3.3,3.1-5.1c8-17.3,15-35,20-53.5c2.5-9.2,4.5-18.4,2.3-28
		c-0.8-3.6-2.4-6.3-6.2-7.7c-7.3-2.7-8.1-4.3-5.9-12c3.8-13.5,6.1-27.3,4.9-41.4c-0.8-9.4-3.3-18.2-10.1-25.4
		c-5.6-5.9-12.2-7.3-20-5.7c-3.6,0.7-4.9-2.1-4.6-5.4c0.5-5.3,1.2-10.6,1.6-15.9c0.5-5.7,0.1-11.4-2-16.7c-3-7.7-10.3-8.9-16-3
		c-8.1,8.4-16,17.1-24.6,25.2c-18.7,17.7-38.6,33.6-61.4,45.8c-4.9,1-6.5,3.7-6.2,8.8c0.8,15.3-0.2,30.6-1.9,45.9
		c-3.3,31.4-6.3,62.9-8.8,94.4c-1.6,19.9-5.3,39.6-11.4,58.7c-2.2,6.7-5.4,7.9-11.5,4.3c-0.8-5.2,1-9.9,2.4-14.6
		c6.1-20,9.2-40.7,10-61.5c0.7-18,3-35.8,3.9-53.7c0.6-12.9,3.6-25.7,4.8-38.6c1.5-16.3,0.7-32.6,0.7-48.9
		c0.1-37.4-6.8-73.8-16.8-109.7c-2.4-8.7-5.9-16.9-9.8-25c-2.2-6.6-5.8-12.6-9.5-18.8c-0.7,0.7-1.2,1.2-1.5,1.7
		c-30,45.7-66.4,86.2-103.8,125.8c-25.2,26.6-47.6,55.2-62.5,89.1C512.4,1129,509.3,1134.2,508.4,1140.2z M727.2,847.7
		c-2.8-4.5-5.3-9.3-8.4-13.5c-5.3-7.1-12-11.6-21.4-10c-6.4,1-12.3,3.5-18.5,6.6c14.6,8.8,19.8,21.6,18,37.6
		c-0.9,8.1-3.4,16-6.9,23.4c-2.1,4.5-3.8,8.4,1.7,11.7c1.5,0.9,2.3,2.8,3.4,4.3c4.7,6.9,6.5,7.5,15.3,5.7
		c11.4,0.3,21.4-3.8,30.3-10.6c11.1-8.5,19.2-19.6,26.8-31.2c0.5-0.7,0.9-1.4,0.3-2.1c-2.7-0.3-5.4-0.3-8-0.8
		C746.1,865.9,735.9,857.9,727.2,847.7z M720.5,820.4c1.7,1.6,3.4,3.1,5.5,5.1c9.7-20.6,13.5-41.9,13.2-65.1
		c-13.5,7.9-27,10.5-41.2,10.9c-8,0.2-15.8,2-22.4,7.3c-12.7,7-19.8,18.3-24.5,31.5c-2.1,5.9-1.6,6.7,4.5,8.3c1.4,0.4,3,0.4,4.4,0.4
		c3.6,0.1,7.3,0.6,9.9,3c3.2,2.9,5.6,1.9,8.8,0.2C692.3,814.4,706.2,811.1,720.5,820.4z M870.6,1198.7c6.2-5.8,11.5-12.4,17-18.9
		c26.5-31.5,48.3-65.5,59-105.9c6.7-25.3,14-50.4,10.3-77.1c-2.9-21.7-7.9-42.4-22.1-60.1c-7.5-9.3-16.7-12.7-28.2-10.9
		c-9.5,1.5-17.5,6.1-25.2,11.6c-19.2,13.6-34.3,31.5-50.3,48.4c-0.2,0.2-0.1,0.6-0.3,1.1c9.2,1.9,13.3,8.4,14,17.1
		c0.6,7.6,0.6,15.3-0.5,22.9c-0.3,2.3-0.9,4.6,2.9,3.6c6.9-1.7,12.7,0.7,18,5c10.9,8.8,13.9,21.1,14.6,34.2
		c0.8,13.6-1.5,26.9-5.7,39.7c-1.1,3.2-0.9,5.1,2.9,6.2c6.7,1.9,9.2,7.4,9.9,13.6c0.8,7.6,0.6,15.3-1.5,22.8
		c-4.2,15.6-9.7,30.6-15.9,45.4c-0.5,0.7-1.1,1.5-0.2,2.3C869.4,1199.9,870.1,1199.1,870.6,1198.7z M637.9,825.1
		c-9.1-2.6-18.3-5.4-27.9-4.5c-21.2,1.9-41.6,6.9-61.3,15.1c-47.9,19.9-94.8,42.3-144.1,58.6c-27,8.9-43.6,28.2-57.5,51.2
		c-0.8,1.3-1.3,2.7-1.6,4.2c-5.1,23.8-7.5,47.7-3.3,71.9c5.8,33.1,20.2,61.3,48.1,81.1c29.4,20.8,61.7,36,95.9,47.3
		c4.3,1.4,6,1.2,7.6-3.6c10.5-31.9,26.2-61,47.2-87.3c19.1-24,40.9-45.6,61.3-68.5c24.5-27.5,47.9-55.9,68.2-86.6
		c3.8-5.8,7.7-11.7,9.1-18.7c4.7-8,6.7-16.8,6.1-26c-0.4-5.8-3.1-10.8-7.4-14.8c-0.8-0.8-2.6-3-3.3-0.2c-1.9,8.2-7.7,14.1-11.7,21.1
		c-4.4,4.7-8.7,9.4-13.1,14c-2.2,2.3-4.7,4.1-8.1,4.1c-2.4-1.7-2.8-3.2-0.4-5.5c9.1-8.9,16.3-19.1,20.4-31.4c1.3-3.8,2-7.7,2.1-11.7
		c0.1-2.3-0.4-4.3-3.1-4.9C653.5,828.1,645.9,825.4,637.9,825.1z"/>
	<path class="st24" d="M697,1277.9c6.1,3.6,9.4,2.5,11.5-4.3c6.1-19.1,9.8-38.7,11.4-58.7c2.5-31.5,5.5-63,8.8-94.4
		c1.6-15.2,2.7-30.5,1.9-45.9c-0.3-5.1,1.3-7.9,6.2-8.8c0.6,6-0.5,12-1.1,17.9c-2.5,24.1-5.3,48.2-4.9,72.6
		c0.5,24.9,5.4,48.7,14.6,71.9c7.9,19.9,20.6,36.7,32.7,54c-23.7,16.8-47.4,33.9-75.1,43.6c-24.4,8.6-49.1,16.3-75,19
		c-4.6-3.8-10.2-5.8-15.1-9.1c1.8-4.1,6-5,9.4-6.7c18.1-8.9,35.8-18.4,51.6-31c7.3-5.8,14.5-11.6,20.6-18.7
		C695.1,1278.6,695.8,1277.9,697,1277.9z"/>
	<path class="st7" d="M508.4,1140.2c0.9-6,4-11.2,6.4-16.6c14.9-33.8,37.3-62.4,62.5-89.1c37.4-39.6,73.8-80,103.8-125.8
		c0.3-0.5,0.9-1,1.5-1.7c3.8,6.2,7.3,12.1,9.5,18.8c-10.4,25.3-28.8,44.4-48.4,62.6c-14.2,13.3-29.5,25.3-44.6,37.6
		c-25.4,20.7-46.4,45.2-63.8,72.9c-8.5,13.5-17.2,26.9-25.8,40.4C509.3,1139.7,508.8,1139.9,508.4,1140.2z"/>
	<path class="st125" d="M388.1,1119c-0.6-2.8,0.1-3.4,2.6-1.8c16.7,11,34.7,19.6,52.6,28.4c14.5,7.2,29.9,11.8,45.1,17.1
		c0.9,0.3,1.8,0.8,2.7,1.3c-1.6,8.3-3.6,16.5-6.5,24.5c-1.9,5.1-6.1,6.3-12,4.1c-12.6-4.6-23.5-12.3-34.3-20.1
		c-18.2-13.2-33.6-29.1-45.2-48.5C391.9,1122.1,391.3,1119.2,388.1,1119z"/>
	<path class="st40" d="M642.2,883.4c3.4,0,5.9-1.8,8.1-4.1c4.4-4.7,8.7-9.4,13.1-14c4.7-2.6,7.7-0.6,9.6,3.8c1.3,3.2,2.6,6.4,4,9.5
		c0.9,2.1,0.1,5,2.6,6.5c-1.4,7-5.3,12.9-9.1,18.7c-20.3,30.8-43.8,59.1-68.2,86.6c-20.4,22.9-42.2,44.5-61.3,68.5
		c-21,26.3-36.7,55.4-47.2,87.3c-1.6,4.8-3.2,5-7.6,3.6c-34.2-11.3-66.5-26.5-95.9-47.3c-27.9-19.7-42.4-47.9-48.1-81.1
		c-4.2-24.2-1.7-48.1,3.3-71.9c0.3-1.4,0.8-2.9,1.6-4.2c13.9-22.9,30.5-42.2,57.5-51.2c49.3-16.3,96.3-38.6,144.1-58.6
		c19.7-8.2,40.1-13.2,61.3-15.1c9.6-0.9,18.8,1.9,27.9,4.5c-10,2.9-19.2,9.5-30.5,6c-0.4-0.1-1,0.1-1.5,0.1
		c-15.3,0.9-29.7,5.4-43.8,11.1c-51.2,21-102.6,41.6-155.1,59.1c-22.2,7.4-39.8,21.1-44.8,46.5c-3.3,16.5,0.4,27.6,14,35.3
		c9.1,5.2,19.1,7.1,29.5,8.1c16.3,1.7,32.5,2.5,48.7,0.4c24.1-3.2,47.6-9.1,70.6-16.9c39-13.2,75.2-30.6,100.6-65
		C631.9,901.5,639.1,893.7,642.2,883.4z M438.1,1063.9c-6.1-3.7-9.5-10.1-14.5-15c-2.8-2.8-6.1-6.9-10-3.6
		c-3.8,3.2-0.7,7.5,1.6,10.7c6.1,8.6,12.9,16.7,22.3,21.9c3.2,1.7,2.2,3.7,1.1,5.7c-1.4,2.8-3.2,0.8-4.5-0.1
		c-4-2.7-7.9-5.6-11.7-8.5c-3.4-2.6-6.7-5.5-10.1-8.1c-2-1.5-4.4-1.6-6.7-0.5c-2,1-1.7,3-1.6,4.9c0.2,3,2.3,4.8,4.3,6.5
		c4.1,3.5,8.3,6.9,13.2,10.9c-6.2,0.7-11.1-1-16.1-1.8c-3.7-0.6-8.3-3-9.9,2.2c-1.6,5.2,3.4,6.5,7.1,7.9c12.2,4.5,24.8,4.2,37.5,3
		c2.9-0.3,5-1.9,6.2-4.5c1-2.3,2-4.6,2.9-6.9c3.1-7.8,3.4-8.2,9.4-2.6c7.8,7.3,15.7,7.2,24.7,2.9c13-6.2,24.2-14.5,34.2-24.8
		c1.5-1.6,2.8-3.3,3.6-5.4c1.1-2.6,1-5.1-1.2-6.8c-2.3-1.8-4.8-1-6.9,0.7c-1.5,1.3-2.9,2.7-4.3,4.1c-8.7,8.3-17.9,16-29,21
		c-1.6,0.7-3.5,2.4-5,1.1c-1.8-1.5,0.3-3.3,1-4.9c3.4-8,8.4-15.1,12.7-22.6c3.4-5.9,3.4-10,0.4-11.7c-2.9-1.7-6.7,0.4-10.3,5.8
		c-5.3,7.9-10,16.1-13.9,24.8c-0.6,1.2-0.9,3.3-3,2.6c-1.7-0.6-1.8-2.2-1.6-3.8c0.1-1.3,0.3-2.6,0.5-4c1.6-9.6,5.4-18.5,9.2-27.4
		c1.3-3.1,2.6-6.2,2.2-9.6c-0.2-1.9-0.6-3.8-2.6-4.5c-1.7-0.6-3.2,0.4-4.6,1.4c-4,3.2-5.6,7.8-7.5,12.2c-2.9,6.7-5.3,13.5-7.3,20.7
		c-2.3-1.3-2.3-3.3-2.8-5c-2.4-7-2.6-14.4-3.7-21.6c-0.6-3.6-1.5-8.6-6.5-7.9c-4.4,0.6-4.6,5.3-4.5,8.9c0.1,8.5,1.6,16.9,4.3,25
		C437.3,1059.4,438.6,1061.5,438.1,1063.9L438.1,1063.9z"/>
	<path class="st97" d="M778.1,1282.2c-12.1-17.3-24.8-34.1-32.7-54c-9.2-23.1-14.1-47-14.6-71.9c-0.5-24.4,2.3-48.4,4.9-72.6
		c0.6-5.9,1.8-11.9,1.1-17.9c22.8-12.1,42.7-28.1,61.4-45.7c8.5-8.1,16.4-16.8,24.6-25.2c5.6-5.8,13-4.7,16,3c2,5.3,2.5,11,2,16.7
		c-0.4,5.3-1.1,10.6-1.6,15.9c-0.3,3.3,1,6.2,4.6,5.4c7.8-1.6,14.4-0.2,20,5.7c6.8,7.2,9.3,16,10.1,25.4c1.1,14.1-1.1,27.8-4.9,41.4
		c-2.2,7.8-1.4,9.3,5.9,12c3.8,1.4,5.4,4.1,6.2,7.7c2.3,9.6,0.2,18.8-2.3,28c-4.9,18.5-11.9,36.2-20,53.5c-0.8,1.8-1.7,3.6-3.1,5.1
		C831.5,1239.1,806,1262,778.1,1282.2z"/>
	<path class="st71" d="M642.2,883.4c-3.1,10.3-10.2,18.1-16.4,26.5c-25.3,34.4-61.5,51.8-100.6,65c-23,7.8-46.5,13.7-70.6,16.9
		c-16.2,2.1-32.5,1.3-48.7-0.4c-10.4-1.1-20.4-2.9-29.5-8.1c-13.6-7.8-17.3-18.8-14-35.3c5-25.4,22.5-39.1,44.8-46.5
		c52.6-17.5,103.9-38.1,155.1-59.1c14-5.7,28.5-10.2,43.8-11.1c0.5,0,1-0.2,1.5-0.1c11.3,3.4,20.5-3.1,30.5-6c8,0.3,15.6,3,23.3,4.8
		c2.7,0.6,3.2,2.6,3.1,4.9c-0.1,4-0.9,7.9-2.1,11.7c-4.1,12.2-11.2,22.5-20.4,31.4C639.4,880.2,639.7,881.7,642.2,883.4z
		 M387.2,927.3c9.4-1.3,18.3-2.3,27.2-3.7c41.9-6.9,82.4-18.6,121.9-34c23.8-9.3,46.7-20.3,67.7-35c3-2.1,5.7-4.6,7.8-7.7
		c1.1-1.8,2.1-3.6,0.7-5.5c-1.6-2-3.6-1.1-5.4-0.2c-6.3,2.7-11.8,6.8-17.6,10.3C534.6,884.7,474.6,903,412.3,915
		c-8.5,1.6-17.2,2.2-25.4,5.2c-2.1,0.8-4.1,1.9-3.5,4.7C383.9,927.1,385.8,927.3,387.2,927.3z"/>
	<path class="st126" d="M869.5,1197.6c6.2-14.8,11.8-29.9,15.9-45.4c2-7.5,2.2-15.2,1.5-22.8c-0.6-6.2-3.1-11.8-9.9-13.6
		c-3.8-1.1-4-3-2.9-6.2c4.3-12.9,6.5-26.1,5.7-39.7c-0.8-13.1-3.8-25.4-14.6-34.2c-5.3-4.3-11.1-6.7-18-5c-3.8,1-3.2-1.3-2.9-3.6
		c1.1-7.6,1.1-15.3,0.5-22.9c-0.7-8.7-4.8-15.1-14-17.1c0.1-0.5,0.1-0.9,0.3-1.1c16.1-16.9,31.1-34.8,50.3-48.4
		c7.7-5.4,15.7-10.1,25.2-11.6c11.5-1.8,20.7,1.5,28.2,10.9c14.2,17.6,19.2,38.4,22.1,60.1c3.6,26.7-3.6,51.7-10.3,77.1
		c-10.7,40.4-32.5,74.4-59,105.9c-5.5,6.5-10.8,13.1-17,18.9C870.2,1198.3,869.9,1197.9,869.5,1197.6z"/>
	<path class="st127" d="M675.6,778.6c6.5-5.2,14.4-7.1,22.4-7.3c14.2-0.4,27.7-3,41.2-10.9c0.3,23.2-3.5,44.5-13.2,65.1
		c-2.2-2-3.8-3.6-5.5-5.1c-1-4.4-5.1-4.7-8.2-6.1c-8.6-3.8-18.2-4.8-26.6-9.4c-5.6-3.1-8.8-7.6-9.8-14
		C675.1,786.8,675.6,782.7,675.6,778.6z"/>
	<path class="st127" d="M727.2,847.7c8.7,10.3,18.8,18.2,32.4,20.9c2.6,0.5,5.3,0.6,8,0.8c0.6,0.7,0.2,1.4-0.3,2.1
		c-7.5,11.6-15.6,22.7-26.8,31.2c-8.9,6.8-18.8,10.9-30.3,10.6c-0.3-1.3-0.6-2.6-1-3.8c-4-13.4-3.5-26.5,3-39
		C716.6,862.4,721.5,854.8,727.2,847.7z"/>
	<path class="st72" d="M727.2,847.7c-5.8,7.1-10.7,14.8-14.9,22.8c-6.6,12.6-7.1,25.6-3,39c0.4,1.3,0.7,2.5,1,3.8
		c-8.8,1.8-10.6,1.1-15.3-5.7c-1-1.5-1.9-3.4-3.4-4.3c-5.5-3.4-3.8-7.2-1.7-11.7c3.5-7.4,6-15.2,6.9-23.4c1.8-16-3.4-28.8-18-37.6
		c6.2-3.1,12.1-5.5,18.5-6.6c9.4-1.5,16.1,3,21.4,10C722,838.4,724.5,843.1,727.2,847.7z"/>
	<path class="st72" d="M675.6,778.6c0,4.1-0.5,8.1,0.2,12.3c1.1,6.4,4.2,10.9,9.8,14c8.4,4.7,18,5.6,26.6,9.4
		c3.1,1.4,7.2,1.7,8.2,6.1c-14.3-9.4-28.2-6-41.8,1.6c-3.1,1.7-5.6,2.8-8.8-0.2c-2.6-2.4-6.3-2.8-9.9-3c-1.5-0.1-3-0.1-4.4-0.4
		c-6.1-1.6-6.6-2.3-4.5-8.3C655.8,796.9,662.9,785.7,675.6,778.6z"/>
	<path class="st128" d="M679.6,885.1c-2.6-1.5-1.7-4.3-2.6-6.5c-1.4-3.1-2.6-6.4-4-9.5c-1.9-4.5-4.9-6.4-9.6-3.8
		c4-7,9.8-12.9,11.7-21.1c0.7-2.8,2.4-0.6,3.3,0.2c4.3,4,7.1,9,7.4,14.8C686.3,868.3,684.3,877,679.6,885.1z"/>
	<path class="st126" d="M870.6,1198.7c-0.4,0.4-1.2,1.2-1.2,1.1c-0.9-0.8-0.3-1.5,0.2-2.3C869.9,1197.9,870.2,1198.3,870.6,1198.7z"
		/>
	<path class="st129" d="M438,1064c0.6-2.5-0.6-4.6-1.4-6.7c-2.7-8.1-4.2-16.4-4.3-25c0-3.6,0.2-8.3,4.5-8.9c5-0.7,5.9,4.2,6.5,7.9
		c1.1,7.2,1.3,14.6,3.7,21.6c0.6,1.6,0.5,3.7,2.8,5c2-7.2,4.4-14,7.3-20.7c1.9-4.4,3.5-9,7.5-12.2c1.3-1.1,2.8-2.1,4.6-1.4
		c2,0.7,2.4,2.6,2.6,4.5c0.3,3.4-0.9,6.5-2.2,9.6c-3.9,8.9-7.7,17.7-9.2,27.4c-0.2,1.3-0.4,2.6-0.5,4c-0.2,1.6,0,3.2,1.6,3.8
		c2.1,0.7,2.4-1.3,3-2.6c3.9-8.7,8.6-16.9,13.9-24.8c3.7-5.4,7.4-7.5,10.3-5.8c2.9,1.7,2.9,5.8-0.4,11.7
		c-4.3,7.5-9.3,14.6-12.7,22.6c-0.7,1.5-2.7,3.3-1,4.9c1.5,1.3,3.4-0.4,5-1.1c11.1-5,20.3-12.6,29-21c1.4-1.4,2.8-2.9,4.3-4.1
		c2.1-1.7,4.6-2.5,6.9-0.7c2.2,1.8,2.3,4.3,1.2,6.8c-0.8,2-2.1,3.8-3.6,5.4c-9.9,10.3-21.2,18.6-34.2,24.8c-9,4.3-17,4.3-24.7-2.9
		c-6-5.6-6.3-5.2-9.4,2.6c-0.9,2.3-1.9,4.6-2.9,6.9c-1.2,2.6-3.3,4.3-6.2,4.5c-12.7,1.1-25.3,1.5-37.5-3c-3.7-1.4-8.7-2.8-7.1-7.9
		c1.5-5.1,6.2-2.7,9.9-2.2c5,0.8,9.9,2.5,16.1,1.8c-4.9-4-9.1-7.3-13.2-10.9c-2-1.7-4.1-3.5-4.3-6.5c-0.1-1.8-0.4-3.9,1.6-4.9
		c2.2-1.1,4.7-1,6.7,0.5c3.5,2.6,6.7,5.5,10.1,8.1c3.8,2.9,7.8,5.8,11.7,8.5c1.3,0.9,3.1,2.9,4.5,0.1c1-2,2-4-1.1-5.7
		c-9.4-5.2-16.2-13.3-22.3-21.9c-2.3-3.2-5.4-7.5-1.6-10.7c3.9-3.3,7.3,0.8,10,3.6C428.5,1053.9,431.9,1060.2,438,1064
		c0.1,0.1,0.1,0.2,0.2,0.3c0,0.1,0.2,0,0.3,0.1C438.3,1064.2,438.1,1064.1,438,1064z"/>
	<path class="st35" d="M387.2,927.3c-1.4,0-3.3-0.2-3.9-2.4c-0.7-2.8,1.4-3.9,3.5-4.7c8.2-3,16.9-3.5,25.4-5.2
		c62.3-12,122.4-30.4,177.1-63.6c5.8-3.5,11.4-7.6,17.6-10.3c1.9-0.8,3.9-1.8,5.4,0.2c1.5,1.9,0.5,3.8-0.7,5.5
		c-2,3.1-4.7,5.6-7.8,7.7c-21,14.7-43.9,25.7-67.7,35c-39.5,15.5-80,27.2-121.9,34C405.6,925,396.7,926,387.2,927.3z"/>
	<path class="st40" d="M438,1064c0.2,0.1,0.3,0.2,0.5,0.4c-0.1,0-0.2,0-0.3-0.1C438.1,1064.2,438.1,1064.1,438,1064
		C438.1,1063.9,438,1064,438,1064z"/>
</g>
</svg>
