<?xml version="1.0" encoding="utf-8"?>
<!-- Generator: Adobe Illustrator 25.0.0, SVG Export Plug-In . SVG Version: 6.00 Build 0)  -->
<svg version="1.1" id="图层_1" xmlns="http://www.w3.org/2000/svg" xmlns:xlink="http://www.w3.org/1999/xlink" x="0px" y="0px"
	 viewBox="0 0 1200 1600" style="enable-background:new 0 0 1200 1600;" xml:space="preserve">
<style type="text/css">
	.st0{fill:#060604;}
	.st1{fill:#EDCF5D;}
	.st2{fill:#FBF1EE;}
	.st3{fill:#ECCF5D;}
	.st4{fill:#F4FB95;}
	.st5{fill:#A0918B;}
	.st6{fill:#FBFBFB;}
	.st7{fill:#927233;}
	.st8{fill:#935A40;}
	.st9{fill:#623C2A;}
	.st10{fill:#FEFEFE;}
	.st11{fill:#040302;}
	.st12{fill:#090805;}
	.st13{fill:#9C5B46;}
	.st14{fill:#070705;}
	.st15{fill:#ECCE5D;}
	.st16{fill:#F2F2F2;}
	.st17{fill:#93583F;}
	.st18{fill:#A1918B;}
	.st19{fill:#513123;}
	.st20{fill:#FAFAFA;}
	.st21{fill:#030202;}
	.st22{fill:#060605;}
	.st23{fill:#A0908A;}
	.st24{fill:#937234;}
	.st25{fill:#E6C95B;}
	.st26{fill:#864E37;}
	.st27{fill:#513124;}
	.st28{fill:#B0603E;}
	.st29{fill:#FAF0ED;}
	.st30{fill:#F9F9F9;}
	.st31{fill:#917133;}
	.st32{fill:#9E8F89;}
	.st33{fill:#E7CA5B;}
	.st34{fill:#92583F;}
	.st35{fill:#050503;}
	.st36{fill:#FCFBFB;}
	.st37{fill:#080704;}
	.st38{fill:#070605;}
	.st39{fill:#FAF1ED;}
	.st40{fill:#F4FA95;}
	.st41{fill:#F8F8F7;}
	.st42{fill:#90573E;}
	.st43{fill:#030302;}
	.st44{fill:#080805;}
	.st45{fill:#FBF1ED;}
	.st46{fill:#FBFBFA;}
	.st47{fill:#927234;}
	.st48{fill:#F69376;}
	.st49{fill:#7B2D2D;}
	.st50{fill:#FCFCFC;}
	.st51{fill:#EF5A2D;}
	.st52{fill:#F0CC2D;}
	.st53{fill:#9F8F8A;}
	.st54{fill:#FAFAF9;}
	.st55{fill:#F2A78E;}
	.st56{fill:#040403;}
	.st57{fill:#070604;}
	.st58{fill:#A0908B;}
	.st59{fill:#F7F7F7;}
	.st60{fill:#E8CB5B;}
	.st61{fill:#8F563E;}
	.st62{fill:#513224;}
	.st63{fill:#080705;}
	.st64{fill:#FCFCFB;}
	.st65{fill:#F9F8F8;}
	.st66{fill:#FAF0EC;}
	.st67{fill:#9F908A;}
	.st68{fill:#91573E;}
	.st69{fill:#070704;}
	.st70{fill:#F5FC96;}
	.st71{fill:#9C9C53;}
	.st72{fill:#9A9A52;}
	.st73{fill:#F2F994;}
	.st74{fill:#A17628;}
	.st75{fill:#90573F;}
	.st76{fill:#090806;}
	.st77{fill:#523123;}
	.st78{fill:#7C4031;}
	.st79{fill:#ED866D;}
	.st80{fill:#F3E9E6;}
	.st81{fill:#4F3023;}
	.st82{fill:#060606;}
	.st83{fill:#89533B;}
	.st84{fill:#050403;}
	.st85{fill:#090909;}
	.st86{fill:#EDCF5E;}
	.st87{fill:#050504;}
	.st88{fill:#060504;}
	.st89{fill:#955A41;}
	.st90{fill:#080703;}
	.st91{fill:#090807;}
	.st92{fill:#070603;}
	.st93{fill:#0A0905;}
	.st94{fill:#937335;}
	.st95{fill:#955A40;}
	.st96{fill:#955940;}
	.st97{fill:#EDD05E;}
	.st98{fill:#8F7032;}
	.st99{fill:#945940;}
	.st100{fill:#EED05E;}
	.st101{fill:#503123;}
	.st102{fill:#EEEEEE;}
	.st103{fill:#0D0C0A;}
	.st104{fill:#E3C659;}
	.st105{fill:#967535;}
	.st106{fill:#9D7D38;}
	.st107{fill:#745A29;}
	.st108{fill:#847334;}
	.st109{fill:#907134;}
	.st110{fill:#E5C85B;}
	.st111{fill:#503124;}
	.st112{fill:#927133;}
	.st113{fill:#E0DDD4;}
	.st114{fill:#987836;}
	.st115{fill:#977636;}
	.st116{fill:#CCC4A4;}
	.st117{fill:#523224;}
	.st118{fill:#0B0908;}
	.st119{fill:#8F7135;}
	.st120{fill:#050404;}
	.st121{fill:#EDD05D;}
	.st122{fill:#F3FA94;}
	.st123{fill:#9A9A51;}
	.st124{fill:#999951;}
	.st125{fill:#937334;}
	.st126{fill:#FAF0EE;}
	.st127{fill:#F3FA95;}
	.st128{fill:#989851;}
	.st129{fill:#A2792A;}
	.st130{fill:#F1F893;}
	.st131{fill:#A17729;}
	.st132{fill:#050502;}
	.st133{fill:#947335;}
	.st134{fill:#917233;}
	.st135{fill:#9B9B52;}
	.st136{fill:#F9EFEC;}
	.st137{fill:#9A782F;}
	.st138{fill:#979752;}
	.st139{fill:#F2F893;}
	.st140{fill:#8C8E4F;}
	.st141{fill:#B5B96E;}
	.st142{fill:#0F0F09;}
	.st143{fill:#9C9C52;}
	.st144{fill:#F5FB95;}
	.st145{fill:#F3F994;}
	.st146{fill:#A17728;}
	.st147{fill:#917134;}
	.st148{fill:#090706;}
	.st149{fill:#8E6F32;}
	.st150{fill:#93593F;}
	.st151{fill:#907033;}
	.st152{fill:#060505;}
	.st153{fill:#C8C3AF;}
	.st154{fill:#533324;}
	.st155{fill:#533426;}
	.st156{fill:#0E0C0A;}
	.st157{fill:#907133;}
	.st158{fill:#583627;}
	.st159{fill:#0A0907;}
	.st160{fill:#573526;}
	.st161{fill:#0C0B09;}
	.st162{fill:#503023;}
	.st163{fill:#543325;}
	.st164{fill:#B7B3A1;}
</style>
<g>
	<path class="st97" d="M361.6,1276.4c23.7-9.1,48.6-12.6,73.6-14.5c23.9-1.9,47.9-2.5,71.9-1.8c29.8,0.9,59.6,1.2,89.4,1.9
		c28.9,0.7,57.9,2,86.2,8.8c4.8,1.2,9.6,2.7,14.4,4.1c-0.4,6.3,2.7,11.5,5.4,16.8c8.5,16.6,17.1,33.3,25.6,49.9
		c0,3.2,0.1,6.5-1.4,9.5c-0.6,0.3-1.1,0.6-1.7,0.8c-20.4,6.9-41.5,10.7-63,11.7c-15.8,0.8-31.6,1.5-47.4-0.4c-2-0.2-3.6-0.7-5-2.5
		c-4.9-6.5-10.5-12.5-15.1-19.2c-5.1-7.4-11.5-9.3-20.2-8.3c-19,2-38.1,2.4-57.3,1c-16.9-1.2-33.7-3.3-50.5-6
		c-2.2-0.4-5-0.9-6.1,1.9c-1.3,3.2,1.9,3.6,3.7,4.9c-0.2,2.3,1,4.1,2.4,5.9c7.5,9.8,15.8,18.8,25.7,26.4c0.9,0.7,2.1,1.1,1.9,2.6
		c-13.9,7.1-28.8,5.6-43.5,4.5c-15.4-1.2-29.8-6.3-44.4-10.9c-7.1-2.2-11.1-5.3-13.9-12.3c-4.8-12.2-10.6-24-15.4-36.2
		C371.8,1302,367.5,1288.9,361.6,1276.4z"/>
	<path class="st88" d="M464,1334.9c-1.7-1.3-5-1.7-3.7-4.9c1.1-2.8,3.9-2.3,6.1-1.9c16.7,2.7,33.5,4.8,50.5,6
		c19.2,1.4,38.3,1.1,57.3-1c8.7-0.9,15.1,0.9,20.2,8.3c4.6,6.7,10.2,12.7,15.1,19.2c1.4,1.9,3,2.3,5,2.5c15.8,1.9,31.6,1.2,47.4,0.4
		c21.5-1,42.6-4.8,63-11.7c0.6-0.2,1.2-0.6,1.7-0.8c6.3-1.4,6.3-1.4,3.3-6.7c-0.6-1-1.3-1.9-1.9-2.8c-8.5-16.6-17.1-33.3-25.6-49.9
		c-2.7-5.3-5.9-10.4-5.4-16.8c4.4-4.6,7.8-4.1,10.7,1.5c11.4,22.4,22.9,44.7,34.3,67c0.5,1,0.6,2.4,2.2,2.4c4.7-0.1,6.4,3.3,8.3,6.8
		c3,5.4,6.1,10.7,7.9,16.6c1.2,4,1.4,7.6-2.6,10.1c-1.3,0.8-1.2,1.7-0.7,2.9c1.8,4.7,3.9,9,8.9,11.5c6.1,3,12,6.5,17.9,9.9
		c3.2,1.9,6.5,4.1,6,8.4c-0.5,4.2-4.1,5.8-7.7,7c-10.5,3.5-21.4,4.9-32.4,5.8c-20.9,1.7-41.9,2.9-62.8,3.2
		c-14.9,0.3-29.5-2.4-44.2-4.2c-3.8-0.5-6.9-2.2-9.1-5.5c-4.1-6.1-8.4-12-12.3-18.2c-1.4-2.2-2.8-3.3-5.4-3.5
		c-2.1-0.1-4.2-0.8-6.4-1.2c-6.6-1.3-11.1-4.8-13-11.5c-1.1-3.8-2.7-7.5-4-11.3c-1.1-3.1-1-6.1,1.9-8.1c2.1-1.5,1.7-2.7,0.3-4.4
		c-3.6-4.3-7.3-8.7-10.6-13.2c-1.9-2.6-4.2-3.4-7.3-3c-18.7,2.4-37.5,3.4-56.3,1.8c-2.3-0.2-3.2,0.7-3.9,2.7c-1.1,3.3-2.6,6.5-4,9.7
		c-1.2,2.8-3.3,5.2,0.3,8.1c1.6,1.4,0.7,4.1,0.1,6.2c-2,6.2-4.3,12.2-7.1,18.1c-1.8,3.8-4.1,6.9-8.3,8c-1.6,0.5-2.3,1.2-2.6,3
		c-1.2,6.3-4.1,11.9-6.9,17.6c-2.2,4.5-6,6.7-11.2,6.9c-34.5,1.6-68.9,0.6-103.3-2.3c-4.1-0.3-8.3-1.1-12.3-2.2
		c-6.3-1.7-7.9-7-3.5-11.8c5.4-6.1,11.5-11.6,18-16.6c2.2-1.7,3.3-2.8,0.4-5.1c-4.3-3.4-5.7-8.9-7.8-13.7c-2-4.7-3.6-9.7-5.4-14.5
		c-1.6-4.1-0.4-7.2,3.1-9.5c2.2-1.5,4.3-3.4,6.8-4.2c5.9-1.9,4.8-5,2.8-9.5c-7.4-16.7-14.1-33.7-18.7-51.5c-0.4-1.6-0.8-3.3-0.8-4.9
		c-0.2-4.7,0.8-5.3,5.7-4.2c6,12.4,10.2,25.6,15.2,38.4c4.8,12.3,10.6,24,15.4,36.2c2.8,7,6.8,10.1,13.9,12.3
		c14.6,4.5,29,9.7,44.4,10.9c14.7,1.2,29.6,2.6,43.5-4.5c1.6-0.2,2.8-1.1,3.4-2.5c2.8-6.6,5.4-13.2,8.2-19.7
		c1.1-2.5,0.2-3.7-2.3-4.1C490,1341.6,477.1,1337.8,464,1334.9z M774,1411.4c-2.5-3.2-6.1-4-9.2-5.5c-8.8-4.4-16.5-9.7-18.6-20.1
		c-0.6-2.9-1.9-3.9-4.7-3.8c-2.2,0.1-4.7-0.1-5.1-2.9c-0.3-2.5,2.3-2.9,3.9-3.9c3-1.8,8.3-1.3,9-4.9c0.7-3.3-3.2-6.4-4.6-9.7
		c-1.3-3.1-3.2-3.2-6-2.1c-4.8,1.9-9.6,3.8-14.5,5.3c-33.6,9.8-68,12.4-102.8,11.1c-6.1-0.2-12.1-1.7-19.1-2.8
		c3.1,5.2,2,11.9,8.5,14c8.4,2.7,16.7,5.6,25.7,5.9c1.4,0,3.3-0.3,3.4,1.9c0.1,2-1.7,2.5-3,2.7c-2.7,0.5-5.5,0.5-9.1,0.8
		c4.1,5.5,7.4,10.9,12.2,14.9c1.2,1,2.6,1.4,4.1,1.6c14.5,2,29,3.6,43.7,3.9c12.8,0.2,25.7-0.4,38.4-1.2
		C742.2,1415.7,758,1415.1,774,1411.4z M370.2,1412.7c19.3,2,37.8,1.9,56.3,2.5c14.6,0.5,29.3,0.8,43.9,0.6c2.9-0.1,6.4,0.2,7.9-3
		c1.7-3.4,3.5-6.7,4.2-10.8c-5-0.1-9.4-1.7-13.8-3c-2.5-0.8-4.2-2.2-3.8-5c0.4-2.8,2.5-3.2,4.8-3.2c5.8,0.1,11.7,0.2,17.5,0.2
		c11,0,11,0,14-10.7c0.4-1.2,1.4-2.6,0.2-3.7c-1-0.9-2.2,0.1-3.3,0.5c-6.9,2.1-13.7,3.7-21,4.1c-33.1,1.6-64.6-6.9-95.9-16
		c-2.4-0.7-4.7-1.8-7.9-3.1c2,5.1,3.6,9.3,5.2,13.5c4.3,10.7,8.2,13.2,20,13.1c1.1,0,2-0.2,2.3,1.1c0.2,1.1-0.5,1.8-1.4,2.4
		c-2,1.2-4.2,0.9-6.3,1.1c-1.5,0.1-3.2-0.6-4.3,0.7C383.6,1400.5,376.6,1405.7,370.2,1412.7z"/>
	<path class="st112" d="M464,1334.9c13.1,2.8,26,6.6,39.3,8.6c2.5,0.4,3.4,1.5,2.3,4.1c-2.8,6.5-5.4,13.2-8.2,19.7
		c-0.6,1.4-1.9,2.3-3.4,2.5c0.2-1.5-1-1.9-1.9-2.6c-9.8-7.5-18.2-16.6-25.7-26.4C465,1339.1,463.8,1337.3,464,1334.9z"/>
	<path class="st113" d="M728.1,1341.6c0.6,0.9,1.3,1.8,1.9,2.8c3,5.3,3,5.3-3.3,6.7C728.1,1348.1,728.1,1344.9,728.1,1341.6z"/>
	<path class="st99" d="M774,1411.4c-16,3.7-31.8,4.3-47.6,5.3c-12.8,0.8-25.6,1.4-38.4,1.2c-14.7-0.3-29.2-1.9-43.7-3.9
		c-1.5-0.2-3-0.6-4.1-1.6c-4.9-4.1-8.1-9.5-12.2-14.9c3.6-0.3,6.4-0.4,9.1-0.8c1.4-0.2,3.1-0.7,3-2.7c-0.1-2.2-1.9-1.9-3.4-1.9
		c-9-0.3-17.3-3.2-25.7-5.9c-6.5-2.1-5.4-8.8-8.5-14c7,1.1,13,2.6,19.1,2.8c34.8,1.3,69.2-1.3,102.8-11.1c4.9-1.4,9.8-3.3,14.5-5.3
		c2.8-1.1,4.7-1,6,2.1c1.4,3.4,5.3,6.4,4.6,9.7c-0.7,3.6-6,3.1-9,4.9c-1.6,1-4.2,1.4-3.9,3.9c0.3,2.8,2.9,3,5.1,2.9
		c2.8-0.1,4.1,0.8,4.7,3.8c2.1,10.4,9.8,15.7,18.6,20.1C767.9,1407.4,771.5,1408.2,774,1411.4z"/>
	<path class="st99" d="M370.2,1412.7c6.4-7,13.4-12.2,18.8-19c1-1.3,2.8-0.6,4.3-0.7c2.1-0.2,4.3,0.1,6.3-1.1
		c0.9-0.6,1.6-1.2,1.4-2.4c-0.3-1.3-1.2-1.1-2.3-1.1c-11.8,0.2-15.6-2.3-20-13.1c-1.7-4.1-3.2-8.3-5.2-13.5c3.2,1.3,5.5,2.4,7.9,3.1
		c31.3,9.2,62.7,17.6,95.9,16c7.2-0.3,14.1-2,21-4.1c1-0.3,2.3-1.3,3.3-0.5c1.2,1.1,0.2,2.5-0.2,3.7c-3.1,10.7-3.1,10.7-14,10.7
		c-5.8,0-11.7-0.1-17.5-0.2c-2.3,0-4.5,0.4-4.8,3.2c-0.4,2.8,1.3,4.2,3.8,5c4.4,1.4,8.8,3,13.8,3c-0.7,4.1-2.6,7.4-4.2,10.8
		c-1.6,3.2-5,2.9-7.9,3c-14.7,0.3-29.3-0.1-43.9-0.6C408,1414.6,389.5,1414.8,370.2,1412.7z"/>
</g>
</svg>
