<?xml version="1.0" encoding="utf-8"?>
<!-- Generator: Adobe Illustrator 25.0.0, SVG Export Plug-In . SVG Version: 6.00 Build 0)  -->
<svg version="1.1" id="图层_1" xmlns="http://www.w3.org/2000/svg" xmlns:xlink="http://www.w3.org/1999/xlink" x="0px" y="0px"
	 viewBox="0 0 1200 1600" style="enable-background:new 0 0 1200 1600;" xml:space="preserve">
<style type="text/css">
	.st0{fill:#060604;}
	.st1{fill:#EDCF5D;}
	.st2{fill:#FBF1EE;}
	.st3{fill:#ECCF5D;}
	.st4{fill:#F4FB95;}
	.st5{fill:#A0918B;}
	.st6{fill:#FBFBFB;}
	.st7{fill:#927233;}
	.st8{fill:#935A40;}
	.st9{fill:#623C2A;}
	.st10{fill:#FEFEFE;}
	.st11{fill:#040302;}
	.st12{fill:#090805;}
	.st13{fill:#9C5B46;}
	.st14{fill:#070705;}
	.st15{fill:#ECCE5D;}
	.st16{fill:#F2F2F2;}
	.st17{fill:#93583F;}
	.st18{fill:#A1918B;}
	.st19{fill:#513123;}
	.st20{fill:#FAFAFA;}
	.st21{fill:#030202;}
	.st22{fill:#060605;}
	.st23{fill:#A0908A;}
	.st24{fill:#937234;}
	.st25{fill:#E6C95B;}
	.st26{fill:#864E37;}
	.st27{fill:#513124;}
	.st28{fill:#B0603E;}
	.st29{fill:#FAF0ED;}
	.st30{fill:#F9F9F9;}
	.st31{fill:#917133;}
	.st32{fill:#9E8F89;}
	.st33{fill:#E7CA5B;}
	.st34{fill:#92583F;}
	.st35{fill:#050503;}
	.st36{fill:#FCFBFB;}
	.st37{fill:#080704;}
	.st38{fill:#070605;}
	.st39{fill:#FAF1ED;}
	.st40{fill:#F4FA95;}
	.st41{fill:#F8F8F7;}
	.st42{fill:#90573E;}
	.st43{fill:#030302;}
	.st44{fill:#080805;}
	.st45{fill:#FBF1ED;}
	.st46{fill:#FBFBFA;}
	.st47{fill:#927234;}
	.st48{fill:#F69376;}
	.st49{fill:#7B2D2D;}
	.st50{fill:#FCFCFC;}
	.st51{fill:#EF5A2D;}
	.st52{fill:#F0CC2D;}
	.st53{fill:#9F8F8A;}
	.st54{fill:#FAFAF9;}
	.st55{fill:#F2A78E;}
	.st56{fill:#040403;}
	.st57{fill:#070604;}
	.st58{fill:#A0908B;}
	.st59{fill:#F7F7F7;}
	.st60{fill:#E8CB5B;}
	.st61{fill:#8F563E;}
	.st62{fill:#513224;}
	.st63{fill:#080705;}
	.st64{fill:#FCFCFB;}
	.st65{fill:#F9F8F8;}
	.st66{fill:#FAF0EC;}
	.st67{fill:#9F908A;}
	.st68{fill:#91573E;}
	.st69{fill:#070704;}
	.st70{fill:#F5FC96;}
	.st71{fill:#9C9C53;}
	.st72{fill:#9A9A52;}
	.st73{fill:#F2F994;}
	.st74{fill:#A17628;}
	.st75{fill:#90573F;}
	.st76{fill:#090806;}
	.st77{fill:#523123;}
	.st78{fill:#7C4031;}
	.st79{fill:#ED866D;}
	.st80{fill:#F3E9E6;}
	.st81{fill:#4F3023;}
	.st82{fill:#060606;}
	.st83{fill:#89533B;}
	.st84{fill:#050403;}
	.st85{fill:#090909;}
	.st86{fill:#EDCF5E;}
	.st87{fill:#050504;}
	.st88{fill:#060504;}
	.st89{fill:#955A41;}
	.st90{fill:#080703;}
	.st91{fill:#090807;}
	.st92{fill:#070603;}
	.st93{fill:#0A0905;}
	.st94{fill:#937335;}
	.st95{fill:#955A40;}
	.st96{fill:#955940;}
	.st97{fill:#EDD05E;}
	.st98{fill:#8F7032;}
	.st99{fill:#945940;}
	.st100{fill:#EED05E;}
	.st101{fill:#503123;}
	.st102{fill:#EEEEEE;}
	.st103{fill:#0D0C0A;}
	.st104{fill:#E3C659;}
	.st105{fill:#967535;}
	.st106{fill:#9D7D38;}
	.st107{fill:#745A29;}
	.st108{fill:#847334;}
	.st109{fill:#907134;}
	.st110{fill:#E5C85B;}
	.st111{fill:#503124;}
	.st112{fill:#927133;}
	.st113{fill:#E0DDD4;}
	.st114{fill:#987836;}
	.st115{fill:#977636;}
	.st116{fill:#CCC4A4;}
	.st117{fill:#523224;}
	.st118{fill:#0B0908;}
	.st119{fill:#8F7135;}
	.st120{fill:#050404;}
	.st121{fill:#EDD05D;}
	.st122{fill:#F3FA94;}
	.st123{fill:#9A9A51;}
	.st124{fill:#999951;}
	.st125{fill:#937334;}
	.st126{fill:#FAF0EE;}
	.st127{fill:#F3FA95;}
	.st128{fill:#989851;}
	.st129{fill:#A2792A;}
	.st130{fill:#F1F893;}
	.st131{fill:#A17729;}
	.st132{fill:#050502;}
	.st133{fill:#947335;}
	.st134{fill:#917233;}
	.st135{fill:#9B9B52;}
	.st136{fill:#F9EFEC;}
	.st137{fill:#9A782F;}
	.st138{fill:#979752;}
	.st139{fill:#F2F893;}
	.st140{fill:#8C8E4F;}
	.st141{fill:#B5B96E;}
	.st142{fill:#0F0F09;}
	.st143{fill:#9C9C52;}
	.st144{fill:#F5FB95;}
	.st145{fill:#F3F994;}
	.st146{fill:#A17728;}
	.st147{fill:#917134;}
	.st148{fill:#090706;}
	.st149{fill:#8E6F32;}
	.st150{fill:#93593F;}
	.st151{fill:#907033;}
	.st152{fill:#060505;}
	.st153{fill:#C8C3AF;}
	.st154{fill:#533324;}
	.st155{fill:#533426;}
	.st156{fill:#0E0C0A;}
	.st157{fill:#907133;}
	.st158{fill:#583627;}
	.st159{fill:#0A0907;}
	.st160{fill:#573526;}
	.st161{fill:#0C0B09;}
	.st162{fill:#503023;}
	.st163{fill:#543325;}
	.st164{fill:#B7B3A1;}
</style>
<g>
	<path class="st100" d="M355.2,1265c13.8-1.9,27.6-0.5,41.4-1.2c12.6-0.7,25.3-0.7,37.9-0.8c30.4-0.2,60.8,1.9,91.3,2.4
		c44.1,0.7,88.2,0.3,132.3,0.8c12,0.1,23.9,0.3,35.9,0.5c-5.1,21.9-15,41.7-25.5,61.4c-4.5,8.4-11.1,12.1-19.4,14.1
		c-10.5,2.5-21.3,3.2-32.1,3.5c-0.9-1-2.2-0.6-3.3-0.7c-10.6-0.5-21.2,0.3-31.8-1c-14.2-1.7-27.7-4.9-39-14.2
		c1.2-1.7,2.1-3.6,0.6-5.4c-1.8-2-4.3-1.9-6.5-1.2c-7.4,2.2-15,3.2-22.7,2.7c-3.1-0.2-6.3-0.8-9.4-1.1c-3.1-0.3-4.7,0.8-2.8,4
		c-5.3,18-17.5,28.2-35.5,32.1c-5.2,1.1-10.6,1.9-15.5,4.2c-8.5,0.7-16.9,0.1-25.2-1.4c-12.1-2.1-23.9-5.1-31.4-16
		c-4.4-6.4-8.5-13-12.4-19.8C370.5,1308.2,361.7,1287.1,355.2,1265z"/>
	<path class="st87" d="M617,1345.7c10.8-0.3,21.6-1,32.1-3.5c8.3-2,15-5.7,19.4-14.1c10.4-19.7,20.4-39.5,25.5-61.4
		c2-1.1,4-2.6,6.4-0.9c2.4,1.8,1.9,4.4,1.5,6.9c-2.8,17.4-11.7,32.4-19.1,48c-2.4,5.1-5.6,9.8-8.3,14.8c-0.5,1-2.3,2.1-0.6,3.3
		c6.3,4.5,6.3,11.4,6.7,18c0.5,8.6-0.6,16.5-10.5,19.6c-2.5,0.8-2.1,1.9-0.5,3.5c7.9,7.6,15.8,15.3,23.7,22.9c2.1,2,4.5,3.8,3.6,7.1
		c-0.9,3.5-3.8,4.1-7,4.4c-9.8,1-19.6,1.7-29.4,1.9c-14.7,0.2-29.3-0.1-44,0.6c-14,0.7-27.9-1-41.9-2.1c-8.8-0.7-17.6-0.9-26.3-2.4
		c-11.9-2.1-14.1-4.1-15.6-16.2c-0.2-1.5-0.8-3.1-0.4-4.4c1.3-5.5-3.2-5.8-6.3-7.5c-1.3-0.7-1.7,0.2-2.2,1.2
		c-1.7,3.7-4.9,5.3-8.7,5.8c-2.7,0.4-3.2,1.6-3.2,4.3c0,6-0.4,12-1.7,17.8c-0.8,3.5-2.8,5.2-6.4,5c-23.5-1.7-46.8,1.8-70.2,3.1
		c-19,1-37.9,1.6-56.8-0.1c-1-0.1-2-0.2-3-0.4c-8.9-2.1-10.4-7-4.1-13.7c5.8-6,12.3-11.2,19-16.2c0.6-0.5,1.4-0.8,2.2-1.2
		c-2-2.2-4-1.9-5.7-2.5c-5.4-2.1-9.5-5.5-11.4-11.1c-2.5-7.3-4.2-14.7-5.8-22.2c-1.3-6,1.5-10,6.8-12.4c3.2-1.5,3.2-2.8,1.4-5.9
		c-11.9-20.3-22.4-41.2-27-64.5c-0.2-1-0.4-2-0.6-2.9c-0.3-1.8-0.6-3.9,1.3-4.9c2.2-1.2,3.8,0.1,5.1,1.8c6.5,22,15.3,43.1,26.8,63
		c3.9,6.7,8,13.4,12.4,19.8c7.5,10.9,19.3,14,31.4,16c8.4,1.4,16.8,2.1,25.2,1.4c4,1.5,7.9-0.1,11.7-0.5
		c15.1-1.6,29.6-5.5,43.2-12.4c1.9-0.9,4.1-1.7,4.7-4.1c1.1-3.8,2.1-7.7,3.1-11.5c0.7-2.5-0.1-3.5-2.7-4c-3.2-0.6-6.4-1.7-9.1-3.8
		c-1.9-3.3-0.3-4.3,2.8-4c3.1,0.3,6.3,0.9,9.4,1.1c7.7,0.4,15.3-0.5,22.7-2.7c2.2-0.7,4.8-0.8,6.5,1.2c1.6,1.8,0.7,3.7-0.6,5.4
		c-2.5,1.4-6.5,2.3-7.2,4.4c-0.9,2.5,0.8,6,1.5,9.1c0.2,1.1,0.8,2.3,0.8,3.4c0,3.8,2.2,4.5,5.5,4.5c18.1,0.1,36.2-0.4,54.1-2.6
		C604,1347.8,610.7,1347.9,617,1345.7z M497,1390.9c-2.7-5.9,2.6-4,4.9-5.1c8.1,0.1,12.2-2.3,12.8-8c0.5-5.4,0.2-11,0.2-16.4
		c0-1.9-1-3.2-2.8-2.3c-6.8,3.5-14.4,4.6-21.2,8.1c-3.1,0.5-6.3,0.7-9.3,1.4c-10.4,2.4-21.1,2.8-31.7,3
		c-21.9,0.5-42.5-6.1-62.9-12.8c-2.4-0.8-4.6-2.4-7.8-2.5c1.8,6.5,3.5,12.7,5.3,18.9c0.9,3,3.1,4.6,5.9,5.6
		c6.1,2.2,11.7,5.5,18.2,6.7c1.6,0.3,4.6,0.6,4,3.4c-0.5,2.1-2.9,1.7-4.7,1.8c-3.6,0.3-7.8-1.4-10.8,0.8c-7.6,5.8-15,12-21.6,19.6
		c9.1,0.9,18.2,1.7,27.2,1.4c12.9-0.4,25.9-1.5,38.8-2.7c13.7-1.2,27.6-1.2,41.2-3.4c2.9,1,5.9,0.5,8.8,0.5c11.3,0.1,11,0.1,11.6-11
		C503.4,1392.9,501.7,1390.9,497,1390.9z M548.8,1381.1c1.1,0.3,2.2,0.6,3.3,0.8c1.4,0.2,2.8,0.2,2.8,2c0,1.8-1.4,2-2.8,2.1
		c-0.7,0-1.3,0.1-2,0.2c-11.6-0.3-9-0.9-9.1,9c0,1.3,0.3,2.6,0.5,3.9c0.4,2.6,1.9,4.2,4.5,4.7c9.3,1.7,18.6,3.8,28.1,2.9
		c5.3,2,10.9,1.7,16.2,1.9c29.3,0.7,58.6,0.5,87.8-0.8c1.1-0.1,2.3-0.1,3.2-1.1c-5-7.8-12.3-13.4-18.5-20.1c-2.8-3-5.3-6-10.1-4.6
		c-1.5,0.4-3-0.3-3.5-2.1c-0.4-1.5,0.5-2.6,1.6-3.4c2.1-1.3,4.2-2.7,6.5-3.6c8.9-3.7,13.3-9.5,11.5-19.7c-1-5.6-0.7-5.7-6.3-4.9
		c-14.5,2.1-29,4.1-43.5,5.6c-19.6,2.1-39.3,3.6-59,5.4c-3.5-1.4-6.9,0.9-10.3,0.3c-6.6-1.3-13.2-0.4-19.8-0.8
		c-2.5-0.1-3.2,1.1-3,3.3c0.3,3,0.6,5.9,1.1,8.8c0.5,2.8,1.5,5.8,4.6,6.6C538.2,1379,543.2,1381.6,548.8,1381.1z M531.9,1348.4
		c-1-4.3-2-8.1-2.7-12c-0.3-2-1.3-2.4-3-2.3c-1.5,0.1-3.3-0.6-4,1.9c-1.1,4-2.5,7.9-3.9,11.8c-0.6,1.6-0.3,3.2,1.4,2.3
		C523.6,1348,527.6,1349.3,531.9,1348.4z"/>
	<path class="st31" d="M617,1345.7c-6.3,2.2-12.9,2.1-19.4,2.9c-18,2.3-36,2.7-54.1,2.6c-3.3,0-5.5-0.6-5.5-4.5
		c0-1.1-0.5-2.2-0.8-3.4c-0.6-3.1-2.4-6.6-1.5-9.1c0.7-2.1,4.7-3,7.2-4.4c11.4,9.3,24.9,12.5,39,14.2c10.6,1.3,21.2,0.5,31.8,1
		C614.8,1345.1,616,1344.7,617,1345.7z"/>
	<path class="st31" d="M502.1,1328.9c2.7,2.1,5.8,3.3,9.1,3.8c2.6,0.5,3.4,1.5,2.7,4c-1.1,3.8-2.1,7.7-3.1,11.5
		c-0.7,2.4-2.9,3.2-4.7,4.1c-13.6,6.8-28.1,10.8-43.2,12.4c-3.8,0.4-7.8,2-11.7,0.5c4.9-2.3,10.3-3.1,15.5-4.2
		C484.6,1357.1,496.8,1346.9,502.1,1328.9z"/>
	<path class="st95" d="M560.3,1359.4c19.7-1.8,39.4-3.3,59-5.4c14.5-1.5,29-3.6,43.5-5.6c5.6-0.8,5.3-0.7,6.3,4.9
		c1.8,10.2-2.6,16-11.5,19.7c-2.3,0.9-4.4,2.3-6.5,3.6c-1.1,0.7-2,1.8-1.6,3.4c0.5,1.7,2,2.5,3.5,2.1c4.8-1.4,7.3,1.6,10.1,4.6
		c6.2,6.7,13.5,12.3,18.5,20.1c-0.9,1-2.1,1.1-3.2,1.1c-29.3,1.4-58.6,1.5-87.8,0.8c-5.4-0.1-11,0.1-16.2-1.9
		c-0.2-2.5-2.3-3-4.2-3.6c-3.8-1.2-7.5-2.9-10.4-5.5c-3.6-3.3-8.6-5.7-9.4-11.4c0.7-0.1,1.3-0.1,2-0.2c1.4-0.1,2.8-0.2,2.8-2.1
		c0-1.9-1.4-1.9-2.8-2c-1.1-0.1-2.2-0.5-3.3-0.8c-0.5-0.8-1-1.7-1.6-2.4c-5-5.3-4.6-7.2,1.5-11.3
		C552.6,1364.8,557.6,1363.8,560.3,1359.4z"/>
	<path class="st99" d="M482.7,1408.4c-13.6,2.2-27.5,2.2-41.2,3.4c-12.9,1.2-25.8,2.2-38.8,2.7c-9,0.3-18.1-0.5-27.2-1.4
		c6.6-7.5,14-13.8,21.6-19.6c2.9-2.2,7.1-0.5,10.8-0.8c1.8-0.2,4.2,0.3,4.7-1.8c0.6-2.8-2.4-3.1-4-3.4c-6.5-1.2-12.1-4.5-18.2-6.7
		c-2.8-1-5-2.6-5.9-5.6c-1.8-6.2-3.5-12.4-5.3-18.9c3.2,0.2,5.4,1.7,7.8,2.5c20.5,6.7,41,13.3,62.9,12.8c10.6-0.2,21.2-0.6,31.7-3
		c3.1-0.7,6.2-0.9,9.3-1.4c0.1,0.9,0.5,1.6,1.4,1.8c8.7,2.5,10,9.2,9.6,16.8c-2.3,1.1-7.6-0.8-4.9,5.1c-0.2,0.8-0.4,1.6-0.7,2.3
		C494.1,1400.3,488,1404,482.7,1408.4z"/>
	<path class="st101" d="M560.3,1359.4c-2.6,4.4-7.7,5.4-11.6,8c-6.1,4.1-6.5,6-1.5,11.3c0.6,0.7,1.1,1.6,1.6,2.4
		c-5.7,0.5-10.7-2.1-15.9-3.5c-3.1-0.8-4.1-3.8-4.6-6.6c-0.6-2.9-0.8-5.9-1.1-8.8c-0.3-2.2,0.4-3.5,3-3.3c6.6,0.4,13.3-0.5,19.8,0.8
		C553.4,1360.3,556.8,1358,560.3,1359.4z"/>
	<path class="st101" d="M502,1385.9c0.4-7.6-0.8-14.4-9.6-16.8c-0.9-0.2-1.4-0.9-1.4-1.8c6.8-3.5,14.4-4.6,21.2-8.1
		c1.7-0.9,2.8,0.4,2.8,2.3c0,5.5,0.3,11-0.2,16.4C514.2,1383.6,510,1385.9,502,1385.9z"/>
	<path class="st101" d="M550.2,1386.2c0.8,5.7,5.8,8.1,9.4,11.4c2.9,2.6,6.6,4.3,10.4,5.5c1.8,0.6,3.9,1.1,4.2,3.6
		c-9.6,0.9-18.8-1.3-28.1-2.9c-2.6-0.5-4.1-2.1-4.5-4.7c-0.2-1.3-0.5-2.6-0.5-3.9C541.2,1385.3,538.6,1385.8,550.2,1386.2z"/>
	<path class="st81" d="M482.7,1408.4c5.2-4.4,11.3-8,13.6-15.1c0.3-0.8,0.4-1.6,0.7-2.3c4.7,0,6.4,2,6.1,7c-0.6,11-0.3,11.1-11.6,11
		C488.6,1408.8,485.6,1409.3,482.7,1408.4z"/>
	<path class="st102" d="M531.9,1348.4c-4.2,0.9-8.3-0.4-12.1,1.6c-1.7,0.9-2-0.7-1.4-2.3c1.4-3.9,2.8-7.8,3.9-11.8
		c0.7-2.4,2.4-1.7,4-1.9c1.7-0.1,2.7,0.3,3,2.3C529.8,1340.3,530.9,1344.2,531.9,1348.4z"/>
</g>
</svg>
