<?xml version="1.0" encoding="utf-8"?>
<!-- Generator: Adobe Illustrator 25.0.0, SVG Export Plug-In . SVG Version: 6.00 Build 0)  -->
<svg version="1.1" id="图层_1" xmlns="http://www.w3.org/2000/svg" xmlns:xlink="http://www.w3.org/1999/xlink" x="0px" y="0px"
	 viewBox="0 0 1200 1600" style="enable-background:new 0 0 1200 1600;" xml:space="preserve">
<style type="text/css">
	.st0{fill:#060604;}
	.st1{fill:#EDCF5D;}
	.st2{fill:#FBF1EE;}
	.st3{fill:#ECCF5D;}
	.st4{fill:#F4FB95;}
	.st5{fill:#A0918B;}
	.st6{fill:#FBFBFB;}
	.st7{fill:#927233;}
	.st8{fill:#935A40;}
	.st9{fill:#623C2A;}
	.st10{fill:#FEFEFE;}
	.st11{fill:#040302;}
	.st12{fill:#090805;}
	.st13{fill:#9C5B46;}
	.st14{fill:#070705;}
	.st15{fill:#ECCE5D;}
	.st16{fill:#F2F2F2;}
	.st17{fill:#93583F;}
	.st18{fill:#A1918B;}
	.st19{fill:#513123;}
	.st20{fill:#FAFAFA;}
	.st21{fill:#030202;}
	.st22{fill:#060605;}
	.st23{fill:#A0908A;}
	.st24{fill:#937234;}
	.st25{fill:#E6C95B;}
	.st26{fill:#864E37;}
	.st27{fill:#513124;}
	.st28{fill:#B0603E;}
	.st29{fill:#FAF0ED;}
	.st30{fill:#F9F9F9;}
	.st31{fill:#917133;}
	.st32{fill:#9E8F89;}
	.st33{fill:#E7CA5B;}
	.st34{fill:#92583F;}
	.st35{fill:#050503;}
	.st36{fill:#FCFBFB;}
	.st37{fill:#080704;}
	.st38{fill:#070605;}
	.st39{fill:#FAF1ED;}
	.st40{fill:#F4FA95;}
	.st41{fill:#F8F8F7;}
	.st42{fill:#90573E;}
	.st43{fill:#030302;}
	.st44{fill:#080805;}
	.st45{fill:#FBF1ED;}
	.st46{fill:#FBFBFA;}
	.st47{fill:#927234;}
	.st48{fill:#F69376;}
	.st49{fill:#7B2D2D;}
	.st50{fill:#FCFCFC;}
	.st51{fill:#EF5A2D;}
	.st52{fill:#F0CC2D;}
	.st53{fill:#9F8F8A;}
	.st54{fill:#FAFAF9;}
	.st55{fill:#F2A78E;}
	.st56{fill:#040403;}
	.st57{fill:#070604;}
	.st58{fill:#A0908B;}
	.st59{fill:#F7F7F7;}
	.st60{fill:#E8CB5B;}
	.st61{fill:#8F563E;}
	.st62{fill:#513224;}
	.st63{fill:#080705;}
	.st64{fill:#FCFCFB;}
	.st65{fill:#F9F8F8;}
	.st66{fill:#FAF0EC;}
	.st67{fill:#9F908A;}
	.st68{fill:#91573E;}
	.st69{fill:#070704;}
	.st70{fill:#F5FC96;}
	.st71{fill:#9C9C53;}
	.st72{fill:#9A9A52;}
	.st73{fill:#F2F994;}
	.st74{fill:#A17628;}
	.st75{fill:#90573F;}
	.st76{fill:#090806;}
	.st77{fill:#523123;}
	.st78{fill:#7C4031;}
	.st79{fill:#ED866D;}
	.st80{fill:#F3E9E6;}
	.st81{fill:#4F3023;}
	.st82{fill:#060606;}
	.st83{fill:#89533B;}
	.st84{fill:#050403;}
	.st85{fill:#090909;}
	.st86{fill:#EDCF5E;}
	.st87{fill:#050504;}
	.st88{fill:#060504;}
	.st89{fill:#955A41;}
	.st90{fill:#080703;}
	.st91{fill:#090807;}
	.st92{fill:#070603;}
	.st93{fill:#0A0905;}
	.st94{fill:#937335;}
	.st95{fill:#955A40;}
	.st96{fill:#955940;}
	.st97{fill:#EDD05E;}
	.st98{fill:#8F7032;}
	.st99{fill:#945940;}
	.st100{fill:#EED05E;}
	.st101{fill:#503123;}
	.st102{fill:#EEEEEE;}
	.st103{fill:#0D0C0A;}
	.st104{fill:#E3C659;}
	.st105{fill:#967535;}
	.st106{fill:#9D7D38;}
	.st107{fill:#745A29;}
	.st108{fill:#847334;}
	.st109{fill:#907134;}
	.st110{fill:#E5C85B;}
	.st111{fill:#503124;}
	.st112{fill:#927133;}
	.st113{fill:#E0DDD4;}
	.st114{fill:#987836;}
	.st115{fill:#977636;}
	.st116{fill:#CCC4A4;}
	.st117{fill:#523224;}
	.st118{fill:#0B0908;}
	.st119{fill:#8F7135;}
	.st120{fill:#050404;}
	.st121{fill:#EDD05D;}
	.st122{fill:#F3FA94;}
	.st123{fill:#9A9A51;}
	.st124{fill:#999951;}
	.st125{fill:#937334;}
	.st126{fill:#FAF0EE;}
	.st127{fill:#F3FA95;}
	.st128{fill:#989851;}
	.st129{fill:#A2792A;}
	.st130{fill:#F1F893;}
	.st131{fill:#A17729;}
	.st132{fill:#050502;}
	.st133{fill:#947335;}
	.st134{fill:#917233;}
	.st135{fill:#9B9B52;}
	.st136{fill:#F9EFEC;}
	.st137{fill:#9A782F;}
	.st138{fill:#979752;}
	.st139{fill:#F2F893;}
	.st140{fill:#8C8E4F;}
	.st141{fill:#B5B96E;}
	.st142{fill:#0F0F09;}
	.st143{fill:#9C9C52;}
	.st144{fill:#F5FB95;}
	.st145{fill:#F3F994;}
	.st146{fill:#A17728;}
	.st147{fill:#917134;}
	.st148{fill:#090706;}
	.st149{fill:#8E6F32;}
	.st150{fill:#93593F;}
	.st151{fill:#907033;}
	.st152{fill:#060505;}
	.st153{fill:#C8C3AF;}
	.st154{fill:#533324;}
	.st155{fill:#533426;}
	.st156{fill:#0E0C0A;}
	.st157{fill:#907133;}
	.st158{fill:#583627;}
	.st159{fill:#0A0907;}
	.st160{fill:#573526;}
	.st161{fill:#0C0B09;}
	.st162{fill:#503023;}
	.st163{fill:#543325;}
	.st164{fill:#B7B3A1;}
</style>
<g>
	<path class="st97" d="M354,1260.1c42.5-0.1,85,0.2,127.5-0.4c72-1.1,143.9-0.4,215.9-0.7c2.9,0,6.1-0.6,8.4,2.1c-2.5,4,0,6.5,2.7,9
		c16.4,15.1,31.7,31.3,46.6,47.9c7.2,8,13.9,16.6,22.7,23.7c-3.8,1.2-7.2,2.2-10.6,3.2c-23.5,6.9-47.8,7.4-72.1,8.2
		c-0.6-0.3-1.1-0.9-1.7-1c-22.7-2.8-44.5-9.4-66.1-16.5c-4.5-1.5-8.8-3.9-13.6-4.2c-11.6-5.9-23.3-11.8-34.9-17.7
		c-2.9-1.5-5.8-2.7-8.6,0.3c-1.2,0.1-2.3,0.1-3.5,0.4c-31.5,8-63.3,9.2-95.5,4.8c-3.6-0.5-7.4-3-11.3-0.6c-1.9,0.1-3.8,0.3-5.8,0.4
		c-2.7-0.6-4.8,0.7-6.8,2.2c-10.7,8.1-21.2,16.5-31.3,25.3c-5.2,4.5-11.2,8.3-15.1,14.1c-10.2,2.8-20.7,3.5-31.1,4
		c-17.5,0.8-34.9-0.5-52.3-2c-12-1-24.1-2.5-35.7-6.1c0.1-0.4,0.1-0.8,0.2-1c20-30.7,39.9-61.5,68-85.9
		C352.8,1267.2,354.9,1264.3,354,1260.1z"/>
	<path class="st88" d="M454.1,1319c1.9-0.1,3.8-0.3,5.8-0.4c6.2,2.6,12.9,2.6,19.4,3.8c28.8,5.5,57.4,5.2,85.9-2.1
		c3.8-1,5.5-2.5,4.9-6.3c2.8-3,5.7-1.8,8.6-0.3c11.6,5.9,23.3,11.8,34.9,17.7c0.5,1.4,2,1.7,3.1,2.3c11.6,7.1,25.2,10.7,35.3,20.3
		c0.5,0.5,1.5,0.6,2.3,0.7c13.6,0.4,27.2,0.8,40.7-1.6c24.2-0.9,48.5-1.3,72.1-8.2c3.4-1,6.9-2.1,10.6-3.2
		c-8.8-7.1-15.5-15.6-22.7-23.7c-14.9-16.6-30.2-32.8-46.6-47.9c-2.7-2.4-5.2-5-2.7-9c3.1-1.2,5.4,0.4,7.7,2.2
		c22.6,17.9,41.8,39.1,60.3,61c2.5,2.9,5,5.8,7.2,8.9c1.2,1.7,2.3,2.4,4.4,2.5c5.8,0.1,9.7,3.2,11.7,8.5c2.3,6.1,4.3,12.2,4.1,18.9
		c-0.3,9-2.1,12.1-10.4,16.2c5.4,4.8,10.8,9.4,16.1,14.1c2.5,2.2,5,4.5,7.1,7c5.6,6.4,4,11.9-4.3,14c-5.1,1.3-10.5,2.2-15.8,2.4
		c-38.3,1.8-76.6,0.3-114.8-0.9c-10-0.3-12.3-2.8-14.1-12.6c-0.1-0.8-0.4-1.6-0.4-2.5c-0.2-4.7-1.5-6.7-7.1-5.2
		c-6.6,1.8-12-1.1-15.4-7.3c-3.7-6.7-6.7-13.8-8.9-21.1c-1.8-6-1.2-8.3,3-13.4c-17.8-8.4-34.9-18-52.1-27.4
		c-2.2-1.2-4.1-0.6-6.2,0.1c-15.2,4.5-30.6,7.9-46.5,8.7c-18.4,0.9-36.6-0.7-54.6-4.6c-1.6-0.3-3-1.1-4.6,0.3
		c-11.3,10-24.9,16.6-36.9,25.5c-3.9,2.9-7.7,5.8-11.6,8.6c-2.1,1.5-2.8,3-1.7,5.8c1.9,4.9,1.6,10.1,0.7,15.3
		c-1.4,8.5-6.6,13.2-14.8,14.7c-2.3,0.4-3.2,1-3.9,3.4c-2.2,7.6-6.5,12.5-15.3,13.2c-25.8,2.2-51.5,2.5-77.3,1.9
		c-18.5-0.4-36.9-1.7-55.3-3.3c-3.8-0.3-7.6-0.7-11.4-1.5c-2.6-0.5-5.3-1.4-5.9-4.6c-0.7-3.4,1.5-5.3,3.8-7
		c4.6-3.3,9.2-6.4,14.3-9.9c-7.4-3.7-6.7-10.1-5.8-16.5c0.9-6.1,2.2-12.1,4.5-17.8c3-7.4,7.5-10.2,15.3-8.5c4,0.9,5.4-0.7,7.1-3.7
		c16.6-29.4,35.7-57,60.3-80.4c2.3-2.2,4.7-4.3,7.2-6.1c2.8-2,5.8-2.6,8.6,0.1c0.9,4.1-1.2,7-4.1,9.5c-28,24.4-47.9,55.2-68,85.9
		c-0.2,0.3-0.1,0.6-0.2,1c11.6,3.6,23.7,5,35.7,6.1c17.4,1.5,34.9,2.8,52.3,2c10.4-0.5,20.9-1.2,31.1-4c4.5,0.1,9,0,13.4,0.2
		c1.5,0.1,2.5-0.4,3.5-1.4c6.5-6.3,14-11.2,21.3-16.4c7.2-5.2,14.5-10.2,22-15.5C453.7,1323.8,453.7,1323.8,454.1,1319z
		 M806.9,1405.8c-7.8-7-14.9-12.6-21.1-19c-4.6-4.9-9.2-8.1-16.2-6.8c-1.5,0.3-3.1-0.2-3.5-2c-0.5-2,1-3,2.5-3.8
		c2.7-1.5,5.8-1.4,8.7-1.9c13.1-2.2,14.8-4.8,11.4-17.9c-0.2-0.6-0.5-1.3-0.6-1.9c-0.5-3.2-1.7-4.1-5.1-2.9
		c-5.1,1.9-10.5,3.3-15.8,4.7c-33.1,8.5-67,6.5-100.7,7.2c-6.5,0.1-13.3,0-19.9-1.3c-3.9-0.8-5.1,1-4,4.9c1.9,6.4,4.7,12.4,7.8,18.3
		c1.3,2.5,3.2,3.5,6,3.7c6,0.3,12,0.2,18-0.5c2.1-0.2,4.4-0.8,4.9,1.8c0.5,2.7-2.2,2.8-3.9,3.6c-1.5,0.7-3.9,0.2-4.4,2.4
		c-1.5,6.2,4,13.3,10.4,13.4c16.3,0.1,32.6-0.3,49,0.1c20.6,0.6,41.2,1.5,61.9-0.1C796.7,1407.5,801.1,1406.9,806.9,1405.8z
		 M250.1,1408.9c11.6,0.6,23.2,1.5,34.8,1.8c29.1,0.7,58.3,0.2,87.4-1c5.5-0.2,10.9-1.2,16.4-1.8c3-0.3,4.3-2.7,4.9-5.1
		c0.7-2.9-2.2-1.5-3.4-2.3c-1.4-0.9-2.9-1.7-2.9-3.7c0-1.9,1.2-3.3,2.8-3.7c3.7-0.9,7.5-1.6,11.2-2.2c9.1-1.5,11.6-4.4,11.6-13.7
		c0-1-0.1-2,0-3c0.5-3.9-1.2-4.9-4.9-4.5c-10.3,0.9-20.5,2.2-30.9,2.3c-13.8,0.2-27.6-0.7-41.4-2.1c-14.9-1.5-29.7-2.9-44.4-5.8
		c-5.7-1.1-11.3-2.5-17-3.8c-7.5-1.8-9.3-0.9-11.1,6.4c-1.1,4.3-1.6,8.8-2.7,13.2c-0.7,3,0.5,4.4,3.2,5.1c3.4,0.9,6.8,1.8,10,2.9
		c1.9,0.7,3.5,2.1,3.1,4.5c-0.3,2.1-1.8,3-3.8,3.4C264.3,1397.8,257.2,1403.1,250.1,1408.9z"/>
	<path class="st7" d="M454.1,1319c-0.3,4.8-0.3,4.8,7.1,8.6c-7.5,5.3-14.8,10.3-22,15.5c-7.3,5.2-14.8,10.1-21.3,16.4
		c-1,1-2.1,1.4-3.5,1.4c-4.5-0.2-9-0.2-13.4-0.2c3.9-5.9,9.9-9.6,15.1-14.1c10.1-8.9,20.5-17.3,31.3-25.3
		C449.3,1319.7,451.4,1318.4,454.1,1319z"/>
	<path class="st98" d="M570.1,1314c0.5,3.8-1.2,5.3-4.9,6.3c-28.5,7.2-57.2,7.5-85.9,2.1c-6.5-1.2-13.2-1.2-19.4-3.8
		c3.9-2.4,7.6,0.1,11.3,0.6c32.2,4.4,64,3.2,95.5-4.8C567.7,1314.1,568.9,1314.1,570.1,1314z"/>
	<path class="st31" d="M695,1353.1c-13.5,2.4-27.1,2-40.7,1.6c-0.8,0-1.8-0.2-2.3-0.7c-10.2-9.6-23.8-13.1-35.3-20.3
		c-1.1-0.7-2.6-0.9-3.1-2.3c4.9,0.3,9.1,2.7,13.6,4.2c21.6,7.1,43.4,13.7,66.1,16.5C693.9,1352.2,694.4,1352.8,695,1353.1z"/>
	<path class="st99" d="M806.9,1405.8c-5.8,1.1-10.2,1.7-14.7,2c-20.6,1.5-41.2,0.6-61.9,0.1c-16.3-0.5-32.6-0.1-49-0.1
		c-6.4,0-11.9-7.1-10.4-13.4c0.5-2.2,2.9-1.7,4.4-2.4c1.7-0.8,4.4-0.9,3.9-3.6c-0.5-2.6-2.8-2-4.9-1.8c-6,0.6-11.9,0.8-18,0.5
		c-2.8-0.2-4.7-1.2-6-3.7c-3.1-5.9-5.9-12-7.8-18.3c-1.2-3.9,0-5.7,4-4.9c6.6,1.3,13.3,1.5,19.9,1.3c33.7-0.7,67.6,1.3,100.7-7.2
		c5.3-1.4,10.6-2.8,15.8-4.7c3.4-1.2,4.6-0.3,5.1,2.9c0.1,0.7,0.4,1.3,0.6,1.9c3.4,13.1,1.7,15.6-11.4,17.9c-2.9,0.5-6,0.5-8.7,1.9
		c-1.5,0.8-2.9,1.8-2.5,3.8c0.4,1.8,2,2.3,3.5,2c7-1.3,11.6,2,16.2,6.8C792.1,1393.3,799.1,1398.9,806.9,1405.8z"/>
	<path class="st95" d="M250.1,1408.9c7.2-5.8,14.2-11.1,23.1-12.9c2-0.4,3.5-1.3,3.8-3.4c0.4-2.4-1.2-3.8-3.1-4.5
		c-3.3-1.2-6.7-2-10-2.9c-2.7-0.7-3.9-2.1-3.2-5.1c1.1-4.4,1.6-8.9,2.7-13.2c1.8-7.2,3.6-8.1,11.1-6.4c5.7,1.3,11.3,2.7,17,3.8
		c14.7,2.9,29.6,4.3,44.4,5.8c13.8,1.4,27.5,2.3,41.4,2.1c10.3-0.1,20.6-1.4,30.9-2.3c3.7-0.3,5.4,0.7,4.9,4.5c-0.1,1,0,2,0,3
		c0,9.3-2.6,12.2-11.6,13.7c-3.8,0.6-7.5,1.3-11.2,2.2c-1.7,0.4-2.8,1.8-2.8,3.7c0,2,1.5,2.7,2.9,3.7c1.2,0.8,4.1-0.6,3.4,2.3
		c-0.6,2.4-1.9,4.7-4.9,5.1c-5.5,0.6-10.9,1.6-16.4,1.8c-29.1,1.2-58.3,1.7-87.4,1C273.3,1410.4,261.7,1409.5,250.1,1408.9z"/>
</g>
</svg>
