<?xml version="1.0" encoding="utf-8"?>
<!-- Generator: Adobe Illustrator 25.0.0, SVG Export Plug-In . SVG Version: 6.00 Build 0)  -->
<svg version="1.1" id="图层_1" xmlns="http://www.w3.org/2000/svg" xmlns:xlink="http://www.w3.org/1999/xlink" x="0px" y="0px"
	 viewBox="0 0 1200 1600" style="enable-background:new 0 0 1200 1600;" xml:space="preserve">
<style type="text/css">
	.st0{fill:#060604;}
	.st1{fill:#EDCF5D;}
	.st2{fill:#FBF1EE;}
	.st3{fill:#ECCF5D;}
	.st4{fill:#F4FB95;}
	.st5{fill:#A0918B;}
	.st6{fill:#FBFBFB;}
	.st7{fill:#927233;}
	.st8{fill:#935A40;}
	.st9{fill:#623C2A;}
	.st10{fill:#FEFEFE;}
	.st11{fill:#040302;}
	.st12{fill:#090805;}
	.st13{fill:#9C5B46;}
	.st14{fill:#070705;}
	.st15{fill:#ECCE5D;}
	.st16{fill:#F2F2F2;}
	.st17{fill:#93583F;}
	.st18{fill:#A1918B;}
	.st19{fill:#513123;}
	.st20{fill:#FAFAFA;}
	.st21{fill:#030202;}
	.st22{fill:#060605;}
	.st23{fill:#A0908A;}
	.st24{fill:#937234;}
	.st25{fill:#E6C95B;}
	.st26{fill:#864E37;}
	.st27{fill:#513124;}
	.st28{fill:#B0603E;}
	.st29{fill:#FAF0ED;}
	.st30{fill:#F9F9F9;}
	.st31{fill:#917133;}
	.st32{fill:#9E8F89;}
	.st33{fill:#E7CA5B;}
	.st34{fill:#92583F;}
	.st35{fill:#050503;}
	.st36{fill:#FCFBFB;}
	.st37{fill:#080704;}
	.st38{fill:#070605;}
	.st39{fill:#FAF1ED;}
	.st40{fill:#F4FA95;}
	.st41{fill:#F8F8F7;}
	.st42{fill:#90573E;}
	.st43{fill:#030302;}
	.st44{fill:#080805;}
	.st45{fill:#FBF1ED;}
	.st46{fill:#FBFBFA;}
	.st47{fill:#927234;}
	.st48{fill:#F69376;}
	.st49{fill:#7B2D2D;}
	.st50{fill:#FCFCFC;}
	.st51{fill:#EF5A2D;}
	.st52{fill:#F0CC2D;}
	.st53{fill:#9F8F8A;}
	.st54{fill:#FAFAF9;}
	.st55{fill:#F2A78E;}
	.st56{fill:#040403;}
	.st57{fill:#070604;}
	.st58{fill:#A0908B;}
	.st59{fill:#F7F7F7;}
	.st60{fill:#E8CB5B;}
	.st61{fill:#8F563E;}
	.st62{fill:#513224;}
	.st63{fill:#080705;}
	.st64{fill:#FCFCFB;}
	.st65{fill:#F9F8F8;}
	.st66{fill:#FAF0EC;}
	.st67{fill:#9F908A;}
	.st68{fill:#91573E;}
	.st69{fill:#070704;}
	.st70{fill:#F5FC96;}
	.st71{fill:#9C9C53;}
	.st72{fill:#9A9A52;}
	.st73{fill:#F2F994;}
	.st74{fill:#A17628;}
	.st75{fill:#90573F;}
	.st76{fill:#090806;}
	.st77{fill:#523123;}
	.st78{fill:#7C4031;}
	.st79{fill:#ED866D;}
	.st80{fill:#F3E9E6;}
	.st81{fill:#4F3023;}
	.st82{fill:#060606;}
	.st83{fill:#89533B;}
	.st84{fill:#050403;}
	.st85{fill:#090909;}
	.st86{fill:#EDCF5E;}
	.st87{fill:#050504;}
	.st88{fill:#060504;}
	.st89{fill:#955A41;}
	.st90{fill:#080703;}
	.st91{fill:#090807;}
	.st92{fill:#070603;}
	.st93{fill:#0A0905;}
	.st94{fill:#937335;}
	.st95{fill:#955A40;}
	.st96{fill:#955940;}
	.st97{fill:#EDD05E;}
	.st98{fill:#8F7032;}
	.st99{fill:#945940;}
	.st100{fill:#EED05E;}
	.st101{fill:#503123;}
	.st102{fill:#EEEEEE;}
	.st103{fill:#0D0C0A;}
	.st104{fill:#E3C659;}
	.st105{fill:#967535;}
	.st106{fill:#9D7D38;}
	.st107{fill:#745A29;}
	.st108{fill:#847334;}
	.st109{fill:#907134;}
	.st110{fill:#E5C85B;}
	.st111{fill:#503124;}
	.st112{fill:#927133;}
	.st113{fill:#E0DDD4;}
	.st114{fill:#987836;}
	.st115{fill:#977636;}
	.st116{fill:#CCC4A4;}
	.st117{fill:#523224;}
	.st118{fill:#0B0908;}
	.st119{fill:#8F7135;}
	.st120{fill:#050404;}
	.st121{fill:#EDD05D;}
	.st122{fill:#F3FA94;}
	.st123{fill:#9A9A51;}
	.st124{fill:#999951;}
	.st125{fill:#937334;}
	.st126{fill:#FAF0EE;}
	.st127{fill:#F3FA95;}
	.st128{fill:#989851;}
	.st129{fill:#A2792A;}
	.st130{fill:#F1F893;}
	.st131{fill:#A17729;}
	.st132{fill:#050502;}
	.st133{fill:#947335;}
	.st134{fill:#917233;}
	.st135{fill:#9B9B52;}
	.st136{fill:#F9EFEC;}
	.st137{fill:#9A782F;}
	.st138{fill:#979752;}
	.st139{fill:#F2F893;}
	.st140{fill:#8C8E4F;}
	.st141{fill:#B5B96E;}
	.st142{fill:#0F0F09;}
	.st143{fill:#9C9C52;}
	.st144{fill:#F5FB95;}
	.st145{fill:#F3F994;}
	.st146{fill:#A17728;}
	.st147{fill:#917134;}
	.st148{fill:#090706;}
	.st149{fill:#8E6F32;}
	.st150{fill:#93593F;}
	.st151{fill:#907033;}
	.st152{fill:#060505;}
	.st153{fill:#C8C3AF;}
	.st154{fill:#533324;}
	.st155{fill:#533426;}
	.st156{fill:#0E0C0A;}
	.st157{fill:#907133;}
	.st158{fill:#583627;}
	.st159{fill:#0A0907;}
	.st160{fill:#573526;}
	.st161{fill:#0C0B09;}
	.st162{fill:#503023;}
	.st163{fill:#543325;}
	.st164{fill:#B7B3A1;}
</style>
<g>
	<path class="st97" d="M359,1256.3c25.6-14.4,53.9-19.6,82.4-24.1c27.7-4.4,55.6-6,83.5-5.8c42,0.3,83.7,3.4,124.5,14.5
		c14.9,4,29,9.7,42,18c0.3,4.3,2.3,7.9,4.1,11.7c2.1,4.4,4.5,8.6,6.2,13.1c10.2,26.7,22.4,52.4,39.2,75.6c1.6,2.2,1.4,3.4-0.7,4.8
		c-4,2.7-7.9,5.6-12,8.2c-14.9,9.2-30,18-46.8,23.2c-2.8-1-5.6-0.5-8.4-0.2c-24.1,2.3-47-1.4-68.6-12.5c-1.7-0.9-3.4-2.3-5.6-1.6
		c-9.4-5.4-17.7-12.3-26.1-19.1c-6.4-5.2-13-6.8-20.7-5.5c-27,4.3-52.5-1.5-77.5-11.2c-2-0.8-4.1-1.2-6.2-1.8
		c-8.3-8.2-17.9-14.6-28.5-19.3c-3.3-1.5-6.3,0.1-8.2,3.7c-2.7,5.1-5.9,10-8.8,15c-7.3,12.6-16.2,24.4-21.8,37.9
		c-1.3-1.3-2.6-2.5-3.8-3.9c-18.8-22.5-40.3-42-65.8-56.8c-3.8-2.2-3.7-3.7-1.9-7.3c8.2-16.2,18.3-31.3,27-47.2
		C358,1262.7,359.6,1259.8,359,1256.3z"/>
	<path class="st118" d="M681.4,1395.5c16.9-5.2,32-14,46.8-23.2c4.1-2.5,7.9-5.5,12-8.2c2.1-1.4,2.3-2.7,0.7-4.8
		c-16.8-23.3-29-49-39.2-75.6c-1.7-4.5-4.1-8.7-6.2-13.1c-1.8-3.7-3.8-7.4-4.1-11.7c3.3-5.1,7.5-5.1,10.6,0.4
		c4.1,7.2,7.8,14.7,11.2,22.3c10.1,23.1,20.7,45.9,35,66.7c2,2.9,3.5,6.3,8.2,6.1c2.4-0.1,3.9,2.3,5.1,4.4
		c4.5,7.5,7.7,15.6,10.3,23.8c1.8,5.6-0.4,10.9-3.6,15.5c-1.7,2.5-1.5,4,0.3,6.5c4.9,6.8,8.9,14.1,12.2,21.8
		c4.6,10.7,1.6,17-9.7,19.6c-23.7,5.4-47.8,8.9-71.9,12.2c-19.4,2.7-38.8,6.6-58.6,6c-3.2-0.1-6.3-0.4-9.4-1.2
		c-8.2-2.2-10.2-8.9-4.4-15.1c3.1-3.3,6.9-5.7,10.7-8.2c1.3-0.8,3.4-1.5,3.1-3.5c-0.3-2-2.5-1.1-3.8-1.6
		c-10.8-4-18.4-11.6-23.9-21.6c-0.7-1.3-1.2-3.1-0.4-4.3c2.6-4-0.1-5.4-2.9-7.2c-15.6-10.3-30.7-21.2-45.2-33
		c-1.5-1.2-2.8-2.5-5.3-1.8c-19.2,5-38.3,3.9-57.2-1.8c-5.7-1.8-11.4-3.6-17-5.9c-2.9-1.2-4.8-0.6-7.1,1.3
		c-12.9,10.8-25.9,21.5-39,32.1c-4.4,3.6-9.1,6.7-13.8,9.9c-2.5,1.7-5.9,2.6-7.4,4.9c-1.6,2.6,1.6,5.4,2.2,8.2
		c0.7,3.4,0,6.2-2.5,8.7c-6,5.8-12.5,11-19.5,15.6c-3.8,2.5-7.6,2.7-10.9-0.6c-1.8-1.7-2.9-1.2-4.6,0.1c-6.9,5.2-13.8,10.4-21,15.2
		c-9.4,6.3-14.7,5.6-22.5-2.3c-21.9-22.1-40.8-46.6-58.8-71.9c-5.7-8-11.5-16-17.2-24c-1.6-2.3-3.3-4.6-4.9-6.9
		c-2.4-3.7-5.1-7.7-2.4-12c2.7-4.3,7.6-3.7,11.9-2.9c6,1.1,12,2.6,18,4c2.9,0.7,4.5,0.8,4.2-3.3c-0.5-7.7,2.5-14.7,5.8-21.5
		c2.4-4.9,7.4-6.5,13.9-3.5c5.7,2.5,7.9,0.8,10.5-4.2c8.4-16.3,18.4-31.7,28.3-47.1c3.7-5.7,6.2-6.2,10.7-2.5c0.6,3.5-1,6.5-2.6,9.4
		c-8.7,15.9-18.8,31-27,47.2c-1.8,3.5-1.9,5.1,1.9,7.3c25.5,14.8,46.9,34.3,65.8,56.8c1.2,1.4,2.5,2.6,3.8,3.9
		c3.5,5.2,7,10.4,10.4,15.7c1.4,2.2,2.7,1.2,4.1,0.2c18.7-12.8,34.8-28.7,52.7-42.5c1.5-1.2,2.2-2.3,0.2-3.9
		c-2.7-2.1-2.3-4.5-0.2-6.9c2.1,0.6,4.2,1.1,6.2,1.8c25,9.7,50.5,15.5,77.5,11.2c7.8-1.2,14.4,0.4,20.7,5.5
		c8.4,6.8,16.7,13.8,26.1,19.1c9.5,8.4,20.2,14.9,30.7,21.9c1,0.7,2.5,0.8,3.8,0.9c8.5,0.8,16.9,0.7,25.2-1.3
		C666.2,1400.9,674.4,1400.2,681.4,1395.5z M641.1,1412.1c-3.6,0.3-7.2,0.5-10.8,0.8c-1.2,0.1-2.9,0.6-1.6,1.9
		c4.7,4.5,7.8,11.2,15.2,12c4.7,0.5,9.6,0.7,14.3-0.3c1.9-0.2,3.8-0.4,5.8-0.5c0.8,1.6,4.2,0,3.7,3c-0.4,2.1-2.5,2.2-4,2.4
		c-5.1,0.9-9.5,2.5-11.4,7.9c-0.5,1.3-1.7,1.9-2.7,2.9c-3.7,3.6-8.1,6.2-12.4,9.1c-0.9,0.6-2,1.4-1.8,2.7c0.1,0.8,0.9,0.8,1.5,1
		c8.7,1.8,17.3,0.5,25.9-0.8c5.2,0.1,10.2-1,15.2-1.9c19-3.3,38-6.2,57-9.3c9.7-1.6,19.3-3.3,28.9-5.5c8.4-1.9,8.6-2.8,4.7-10.2
		c-3-5.7-6.3-11.4-9.5-17c-0.5-0.8-1.1-1.8-1.9-2.2c-3.5-1.7-3.4-3.7-1.3-6.8c5.6-8.2,8.3-16.5,2.8-26.4c-5-8.9-4.3-9.3-12.5-3.1
		c-0.1,0.1-0.3,0.2-0.4,0.3c-16.9,12.2-35.7,20.6-55.1,27.8C674.7,1405.7,658.4,1410.9,641.1,1412.1z M312.1,1403.9
		c0.3,0.8,0.4,1.7,0.9,2.3c11,12.5,20.8,25.9,33,37.3c4.4,4.1,5.8,4.4,10.5,0.5c6.2-5.2,12.5-10.5,19.6-14.4c1.7-1,2.2-1.8,0.7-3.4
		c-3.8-4-6.5-8.8-9.7-13.2c1.9-3.5,4-2.4,5.8-0.1c3.9,4.9,8.6,9,13.1,13.2c5.5,5.6,5.5,5.7,11.6,1.1c2.1-1.6,4-3.4,6-5.1
		c6.5-5.5,6.5-5.5,1.7-13.1c-1.4-3-2.6-6.1-4.3-8.9c-5.9-9.5-12.7-18.4-20.1-26.6c-19.5-21.6-41.3-40-69.2-50.1
		c-2.6-1-5.7-3.7-8.3,0.6c-4.1,6.8-4.3,9.4-0.9,13.3c2.9,3.2,5.6,6.6,8.3,10c1.7,2.3,3.5,4.9,0.7,7.5c-2.7,2.5-5.2,0.6-7.6-1.1
		c-2-1.4-3.3-3.5-6.1-4c-8.8-1.5-17.8-2.7-26.3-5.4c-1.3-0.4-3.1-1.2-4.1,0.3c-0.8,1.3,0.6,2.5,1.4,3.5
		C283.4,1366.4,296.4,1386.2,312.1,1403.9z"/>
	<path class="st24" d="M468.2,1343.5c-2.1,2.4-2.5,4.8,0.2,6.9c2,1.6,1.3,2.7-0.2,3.9c-17.9,13.7-34,29.7-52.7,42.5
		c-1.4,1-2.7,1.9-4.1-0.2c-3.4-5.3-7-10.4-10.4-15.7c5.7-13.6,14.5-25.3,21.8-37.9c2.9-5,6.1-9.9,8.8-15c1.9-3.6,4.9-5.2,8.2-3.7
		C450.3,1328.9,459.9,1335.3,468.2,1343.5z"/>
	<path class="st119" d="M681.4,1395.5c-6.9,4.7-15.1,5.4-23,7.2c-8.3,1.9-16.7,2.1-25.2,1.3c-1.3-0.1-2.8-0.2-3.8-0.9
		c-10.4-7-21.2-13.5-30.7-21.9c2.2-0.6,3.9,0.7,5.6,1.6c21.6,11,44.6,14.8,68.6,12.5C675.7,1395,678.6,1394.5,681.4,1395.5z"/>
	<path class="st95" d="M385.9,1426.1c-4.5-4.3-9.2-8.4-13.1-13.2c-1.8-2.3-3.9-3.5-5.8,0.1c-2.4,2.9-0.3,5.9,0.3,8.5
		c0.9,3.5-0.4,4.7-3.1,6c-4.7,2.1-9.3,4.4-13.8,6.9c-2.8,1.6-4.5,1-6.8-1.1c-9.7-8.6-18.6-18-27.9-27c-1.1-1-2-2.3-3.7-2.3
		c-15.7-17.7-28.6-37.5-43.4-55.9c-0.8-1-2.2-2.2-1.4-3.5c1-1.5,2.8-0.8,4.1-0.3c8.6,2.8,17.5,3.9,26.3,5.4c2.8,0.5,4.1,2.7,6.1,4
		c2.4,1.6,4.8,3.6,7.6,1.1c2.8-2.6,1-5.3-0.7-7.5c-2.6-3.4-5.4-6.8-8.3-10c-3.5-3.9-3.3-6.5,0.9-13.3c2.6-4.3,5.7-1.5,8.3-0.6
		c27.8,10.1,49.7,28.5,69.2,50.1c7.5,8.3,14.3,17.1,20.1,26.6c1.7,2.8,2.9,5.9,4.3,8.9c-1,0.8-2,1.7-3.1,2.4
		C396.1,1415.5,391.7,1421.6,385.9,1426.1z"/>
	<path class="st99" d="M664,1426c-1.9,0.2-3.8,0.4-5.8,0.6c-4.8-3.4-9.6-6.8-14.3-10.3c-1.4-1-3.5-1.7-2.8-4.1
		c17.3-1.1,33.5-6.4,49.6-12.3c19.4-7.2,38.2-15.6,55.1-27.8c0.1-0.1,0.3-0.2,0.4-0.3c8.2-6.2,7.5-5.8,12.5,3.1
		c5.6,9.9,2.8,18.2-2.8,26.4c-2.1,3-2.1,5,1.3,6.8c0.8,0.4,1.5,1.3,1.9,2.2c3.2,5.6,6.5,11.3,9.5,17c3.9,7.5,3.7,8.4-4.7,10.2
		c-9.6,2.2-19.2,3.9-28.9,5.5c-19,3.2-38,6-57,9.3c-5.1,0.9-10,2-15.2,1.9c0.9-0.7,1.8-1.5,2.8-1.9c14-6.5,27.4-14.2,40.4-22.4
		c2.5-1.6,4.8-3.6,3.6-6.9c-1.3-3.5-4.7-4-7.9-3.7c-4.8,0.4-9.5,0.9-14.2,1.8C679.7,1422.4,671.6,1423.2,664,1426z"/>
	<path class="st62" d="M664,1426c7.6-2.8,15.7-3.5,23.6-5c4.7-0.9,9.5-1.4,14.2-1.8c3.2-0.3,6.6,0.2,7.9,3.7
		c1.2,3.2-1.1,5.3-3.6,6.9c-13.1,8.2-26.4,15.9-40.4,22.4c-1,0.5-1.9,1.3-2.8,1.9c-8.6,1.3-17.2,2.6-25.9,0.8
		c-0.6-0.1-1.4-0.2-1.5-1c-0.2-1.4,0.9-2.1,1.8-2.7c4.3-2.8,8.7-5.4,12.4-9.1c0.9-0.9,2.2-1.6,2.7-2.9c1.9-5.4,6.3-7,11.4-7.9
		c1.5-0.3,3.6-0.4,4-2.4C668.2,1426,664.8,1427.6,664,1426z"/>
	<path class="st101" d="M312.1,1403.9c1.7,0,2.6,1.3,3.7,2.3c9.2,9,18.2,18.4,27.9,27c2.3,2.1,4,2.7,6.8,1.1
		c4.5-2.5,9.1-4.8,13.8-6.9c2.8-1.3,4-2.5,3.1-6c-0.7-2.6-2.7-5.6-0.3-8.5c3.2,4.4,5.9,9.2,9.7,13.2c1.5,1.5,1,2.4-0.7,3.4
		c-7.1,4-13.4,9.2-19.6,14.4c-4.7,3.9-6.1,3.6-10.5-0.5c-12.2-11.4-22-24.8-33-37.3C312.4,1405.6,312.3,1404.7,312.1,1403.9z"/>
	<path class="st62" d="M641.1,1412.1c-0.6,2.4,1.4,3.1,2.8,4.1c4.7,3.5,9.5,6.9,14.3,10.3c-4.8,1-9.6,0.8-14.3,0.3
		c-7.3-0.8-10.5-7.5-15.2-12c-1.4-1.3,0.4-1.8,1.6-1.9C633.9,1412.6,637.5,1412.4,641.1,1412.1z"/>
	<path class="st101" d="M385.9,1426.1c5.8-4.5,10.1-10.6,16.2-14.7c1.1-0.7,2-1.6,3.1-2.4c4.8,7.6,4.8,7.6-1.7,13.1
		c-2,1.7-3.9,3.6-6,5.1C391.5,1431.8,391.4,1431.7,385.9,1426.1z"/>
</g>
</svg>
