<?xml version="1.0" encoding="utf-8"?>
<!-- Generator: Adobe Illustrator 25.0.0, SVG Export Plug-In . SVG Version: 6.00 Build 0)  -->
<svg version="1.1" id="图层_1" xmlns="http://www.w3.org/2000/svg" xmlns:xlink="http://www.w3.org/1999/xlink" x="0px" y="0px"
	 viewBox="0 0 1200 1600" style="enable-background:new 0 0 1200 1600;" xml:space="preserve">
<style type="text/css">
	.st0{fill:#060604;}
	.st1{fill:#EDCF5D;}
	.st2{fill:#FBF1EE;}
	.st3{fill:#ECCF5D;}
	.st4{fill:#F4FB95;}
	.st5{fill:#A0918B;}
	.st6{fill:#FBFBFB;}
	.st7{fill:#927233;}
	.st8{fill:#935A40;}
	.st9{fill:#623C2A;}
	.st10{fill:#FEFEFE;}
	.st11{fill:#040302;}
	.st12{fill:#090805;}
	.st13{fill:#9C5B46;}
	.st14{fill:#070705;}
	.st15{fill:#ECCE5D;}
	.st16{fill:#F2F2F2;}
	.st17{fill:#93583F;}
	.st18{fill:#A1918B;}
	.st19{fill:#513123;}
	.st20{fill:#FAFAFA;}
	.st21{fill:#030202;}
	.st22{fill:#060605;}
	.st23{fill:#A0908A;}
	.st24{fill:#937234;}
	.st25{fill:#E6C95B;}
	.st26{fill:#864E37;}
	.st27{fill:#513124;}
	.st28{fill:#B0603E;}
	.st29{fill:#FAF0ED;}
	.st30{fill:#F9F9F9;}
	.st31{fill:#917133;}
	.st32{fill:#9E8F89;}
	.st33{fill:#E7CA5B;}
	.st34{fill:#92583F;}
	.st35{fill:#050503;}
	.st36{fill:#FCFBFB;}
	.st37{fill:#080704;}
	.st38{fill:#070605;}
	.st39{fill:#FAF1ED;}
	.st40{fill:#F4FA95;}
	.st41{fill:#F8F8F7;}
	.st42{fill:#90573E;}
	.st43{fill:#030302;}
	.st44{fill:#080805;}
	.st45{fill:#FBF1ED;}
	.st46{fill:#FBFBFA;}
	.st47{fill:#927234;}
	.st48{fill:#F69376;}
	.st49{fill:#7B2D2D;}
	.st50{fill:#FCFCFC;}
	.st51{fill:#EF5A2D;}
	.st52{fill:#F0CC2D;}
	.st53{fill:#9F8F8A;}
	.st54{fill:#FAFAF9;}
	.st55{fill:#F2A78E;}
	.st56{fill:#040403;}
	.st57{fill:#070604;}
	.st58{fill:#A0908B;}
	.st59{fill:#F7F7F7;}
	.st60{fill:#E8CB5B;}
	.st61{fill:#8F563E;}
	.st62{fill:#513224;}
	.st63{fill:#080705;}
	.st64{fill:#FCFCFB;}
	.st65{fill:#F9F8F8;}
	.st66{fill:#FAF0EC;}
	.st67{fill:#9F908A;}
	.st68{fill:#91573E;}
	.st69{fill:#070704;}
	.st70{fill:#F5FC96;}
	.st71{fill:#9C9C53;}
	.st72{fill:#9A9A52;}
	.st73{fill:#F2F994;}
	.st74{fill:#A17628;}
	.st75{fill:#90573F;}
	.st76{fill:#090806;}
	.st77{fill:#523123;}
	.st78{fill:#7C4031;}
	.st79{fill:#ED866D;}
	.st80{fill:#F3E9E6;}
	.st81{fill:#4F3023;}
	.st82{fill:#060606;}
	.st83{fill:#89533B;}
	.st84{fill:#050403;}
	.st85{fill:#090909;}
	.st86{fill:#EDCF5E;}
	.st87{fill:#050504;}
	.st88{fill:#060504;}
	.st89{fill:#955A41;}
	.st90{fill:#080703;}
	.st91{fill:#090807;}
	.st92{fill:#070603;}
	.st93{fill:#0A0905;}
	.st94{fill:#937335;}
	.st95{fill:#955A40;}
	.st96{fill:#955940;}
	.st97{fill:#EDD05E;}
	.st98{fill:#8F7032;}
	.st99{fill:#945940;}
	.st100{fill:#EED05E;}
	.st101{fill:#503123;}
	.st102{fill:#EEEEEE;}
	.st103{fill:#0D0C0A;}
	.st104{fill:#E3C659;}
	.st105{fill:#967535;}
	.st106{fill:#9D7D38;}
	.st107{fill:#745A29;}
	.st108{fill:#847334;}
	.st109{fill:#907134;}
	.st110{fill:#E5C85B;}
	.st111{fill:#503124;}
	.st112{fill:#927133;}
	.st113{fill:#E0DDD4;}
	.st114{fill:#987836;}
	.st115{fill:#977636;}
	.st116{fill:#CCC4A4;}
	.st117{fill:#523224;}
	.st118{fill:#0B0908;}
	.st119{fill:#8F7135;}
	.st120{fill:#050404;}
	.st121{fill:#EDD05D;}
	.st122{fill:#F3FA94;}
	.st123{fill:#9A9A51;}
	.st124{fill:#999951;}
	.st125{fill:#937334;}
	.st126{fill:#FAF0EE;}
	.st127{fill:#F3FA95;}
	.st128{fill:#989851;}
	.st129{fill:#A2792A;}
	.st130{fill:#F1F893;}
	.st131{fill:#A17729;}
	.st132{fill:#050502;}
	.st133{fill:#947335;}
	.st134{fill:#917233;}
	.st135{fill:#9B9B52;}
	.st136{fill:#F9EFEC;}
	.st137{fill:#9A782F;}
	.st138{fill:#979752;}
	.st139{fill:#F2F893;}
	.st140{fill:#8C8E4F;}
	.st141{fill:#B5B96E;}
	.st142{fill:#0F0F09;}
	.st143{fill:#9C9C52;}
	.st144{fill:#F5FB95;}
	.st145{fill:#F3F994;}
	.st146{fill:#A17728;}
	.st147{fill:#917134;}
	.st148{fill:#090706;}
	.st149{fill:#8E6F32;}
	.st150{fill:#93593F;}
	.st151{fill:#907033;}
	.st152{fill:#060505;}
	.st153{fill:#C8C3AF;}
	.st154{fill:#533324;}
	.st155{fill:#533426;}
	.st156{fill:#0E0C0A;}
	.st157{fill:#907133;}
	.st158{fill:#583627;}
	.st159{fill:#0A0907;}
	.st160{fill:#573526;}
	.st161{fill:#0C0B09;}
	.st162{fill:#503023;}
	.st163{fill:#543325;}
	.st164{fill:#B7B3A1;}
</style>
<g>
	<path class="st1" d="M420.2,1234.6c8.5,5.3,18.3,5.7,27.7,7.3c26.8,4.7,54,5.2,81,3.9c22.9-1.2,45.6-4.8,67.2-13.2
		c3.5,1.9,6.6,1,9.7-1.2c9.1-6.5,18.9-11.7,29.5-15.4c0.5-0.2,1.1-0.5,1.6-0.7c0.3-0.1,0.6-0.2,0.9-0.3c14.3-1.8,28.5-4.6,43-2
		c6.8,1.3,12.8,4.5,18.4,8.6c23.8,17.6,34.6,54.5,24.3,83.7c-8.9,25.4-27.8,42.1-50,55.6c-6,3.6-6.3,3.4-9.2-2.8
		c-11.8-24.5-26.6-46.4-49.2-62.4c-10.6-7.5-21.4-13.5-34.8-13c0.8-3.7,2.7-6.7,5-9.6c2.9-3.7,5.8-7.2,8.6-11c1.3-1.8,2.1-4.1,0.4-6
		c-1.9-2.1-4-0.8-5.8,0.4c-10.6,7.1-16.8,17.2-19.2,29.6c-6.7,6.4-10.4,14.9-15.9,22.1c-1.8-0.6-2.8,0.8-4,1.5
		c-14.4,8.2-29.4,14.2-46.4,12.9c-14.2-1.1-28.4-2.6-40.8-10.9c-5.8-8.6-11.5-17.2-17.3-25.7c-1.7-10.7-7.2-18.9-15.9-25.1
		c-1.9-1.4-4.6-2.2-6.4-0.2c-1.7,1.9-0.2,4.1,1,5.9c0.5,0.7,1.1,1.2,1.6,1.9c3.4,5.1,6.8,10.2,7.9,16.3c-9.6,4.2-19.1,8.8-27.5,15
		c-22.9,17-41.4,38-55.6,62.7c-1.2,2.1-2,4-5.2,2.4c-32.2-16.1-52.3-41-54.9-77.6c-2.6-36,21-64.8,56.5-70
		c19.7-2.9,38,2.2,55.1,12.1c4.3,2.5,8.5,5.3,12.8,7.7C417.2,1239,419.7,1238.8,420.2,1234.6z"/>
	<path class="st91" d="M444.9,1286.1c5.8,8.6,11.5,17.2,17.3,25.7c3.2,9.8,9.4,18.2,13.4,27.7c0.6,1.4,2.2,1.2,3.4,1.7
		c10,3.9,20.5,3.9,30.9,4.5c8.5,0.5,16.9,0,25.2-2.2c1.7-0.5,3.6-0.8,4.5-2.7c4.6-10.8,9.2-21.6,13.8-32.5
		c5.4-7.3,9.2-15.8,15.9-22.1c3.5-1.7,7.1-3.1,11.1-3.4c13.4-0.5,24.2,5.5,34.8,13c22.6,16,37.5,37.9,49.2,62.4
		c3,6.2,3.3,6.4,9.2,2.8c22.2-13.5,41.1-30.1,50-55.6c10.2-29.2-0.5-66.1-24.3-83.7c-5.5-4.1-11.5-7.3-18.4-8.6
		c-14.6-5.1-29-4.6-43,2c-0.3,0.1-0.6,0.2-0.9,0.3c-0.7-0.1-1.3,0-1.6,0.7c-10.6,3.7-20.4,8.9-29.5,15.4c-3.1,2.2-6.2,3.1-9.7,1.2
		c-1.9-3.6-1.7-7.1,1.6-9.4c20.9-14.3,42.8-26.4,69.3-24.5c40.1,2.9,67.4,31.9,71.1,73.3c2.8,30.9-7.8,56.2-30,77.1
		c-10.2,9.6-20.8,18.8-34.3,23.6c-2.4,0.9-1.7,2.2-1.3,3.9c2.3,8.8,0.8,13.1-6.4,18.6c-4.8,3.7-10.1,6.5-15.7,8.6
		c-2.6,1-3.2,1.9-1.6,4.6c7,12.3,1.6,21.9-12.7,22.2c-14.6,0.3-28.5-3.3-41.6-9.4c-23.1-10.7-44.4-24.2-61.7-43.4
		c-3.1-3.4-3.2-6.5-2.1-10.4c1-3.6,4.3-8,2.3-10.6c-1.8-2.2-6.8,0.2-10.4,0.3c-12.3,0.3-24.6-0.2-36.9-1.9c-0.6-0.4-1.3-0.6-1.8-0.1
		c-0.2,0.2,0.1,0.8,0.2,1.3c1,3.5,2.1,7,3.1,10.5c1.4,4.9,0.3,9.1-3.1,12.9c-3.3,3.6-6.7,7-10.7,9.7c-24.8,16.4-51.1,29.2-80.5,35
		c-5.4,1.1-10.9,1.1-16.4-0.1c-11.1-2.5-14.7-10.6-8.6-20.1c2.3-3.5,2-4.7-1.9-6c-7.2-2.6-14-6.3-20-11.2c-2.9-2.3-5-5-3.2-9.1
		c1.5-3.3-1.5-3.2-3-3.8c-24-10.8-41.5-28.3-52.1-52.2c-11.9-26.9-12.2-53.8,3.1-79.6c17.3-29.1,52.6-42.3,87.5-33.1
		c16.4,4.3,31.3,11.4,42,25.3c-0.5,4.2-3,4.4-6,2.7c-4.3-2.5-8.5-5.2-12.8-7.7c-17.1-9.9-35.3-15-55.1-12.1
		c-35.5,5.2-59.1,34-56.5,70c2.6,36.6,22.6,61.6,54.9,77.6c3.2,1.6,4-0.3,5.2-2.4c14.2-24.7,32.7-45.7,55.6-62.7
		c8.5-6.3,17.9-10.8,27.5-15C437.2,1283.4,441.1,1283.6,444.9,1286.1z M390.2,1415.1c12.4-1.8,23.9-6.6,35.5-11.2
		c15.1-6.1,29.3-13.9,42.4-23.7c9.3-6.8,9.5-7.4,5.3-18c-5.4-13.6-12.9-26.3-19.3-39.4c-3.9-7.9-8.8-15.2-13.7-22.6
		c-2.5-3.6-4.6-3.6-8.2-2c-20.5,9-36.2,24-50.7,40.4c-9.7,11-18.3,22.8-25.2,35.9c-1.6,3.1-1.4,5,1.8,6.9c6.6,4,13.9,6.5,20.9,9.5
		c1.2,0.5,2.3,0.2,3.3-0.5c8-6.1,17.5-9.6,26.1-14.6c2.2-1.3,5.2-4.9,7.3-1.9c2.4,3.5-2.1,5.4-4.4,7.1c-7.4,5.4-15,10.4-22.6,15.6
		c-4.7,3.2-9.1,6.7-12.7,11.2c-3.4,4.3-2.2,7.2,3.1,7.9C382.6,1416.2,386.5,1416.4,390.2,1415.1z M621.9,1417c3,1.6,6.4,2,9.7,2
		c2.7,0,6.5,1.4,7.9-1.4c1.5-3-1.8-5.3-3.6-7.5c-6.9-8.6-15.5-15.6-22.8-23.8c-1.8-2-4.2-4.2-2.2-6.9c2.1-2.9,4.8-0.9,7.2,0.3
		c7.1,3.6,12.9,8.8,18.4,14.4c1.6,1.6,3.1,2.9,5.7,1.5c5.6-2.9,11.4-5.5,16.6-9.2c3-2.1,3.6-4.4,2.3-7.7
		c-2.9-7.3-6.4-14.3-10.1-21.2c-8.8-16.5-17.8-32.8-33.1-44.5c-7.9-6.1-15.1-13.1-24.7-16.7c-10.9-4-17.1-2.1-23,7.7
		c-7.6,12.6-13.6,25.9-19.1,39.5c-3.2,7.9-5.8,16-9.8,23.5c-2.6,4.8-1.1,6.5,2.9,8c0.6,0.8,1.1,1.7,1.9,2.3
		c17.5,14.4,36.2,26.8,57.3,35.2C609.2,1414.8,615.2,1417.4,621.9,1417z"/>
	<path class="st31" d="M553.3,1308.3c-4.6,10.8-9.2,21.6-13.8,32.5c-0.8,2-2.7,2.3-4.5,2.7c-8.3,2.2-16.7,2.7-25.2,2.2
		c-10.4-0.6-20.9-0.7-30.9-4.5c-1.2-0.5-2.8-0.3-3.4-1.7c-4-9.4-10.1-17.9-13.4-27.7c12.3,8.4,26.5,9.8,40.8,10.9
		c17,1.3,32-4.7,46.4-12.9C550.5,1309.1,551.5,1307.6,553.3,1308.3z"/>
	<path class="st114" d="M580.3,1282.7c-4,0.3-7.6,1.7-11.1,3.4c2.4-12.5,8.6-22.5,19.2-29.6c1.8-1.2,3.9-2.5,5.8-0.4
		c1.7,1.9,1,4.2-0.4,6c-2.7,3.7-5.7,7.3-8.6,11C583,1276,581,1279,580.3,1282.7z"/>
	<path class="st115" d="M444.9,1286.1c-3.7-2.5-7.7-2.7-11.9-1.2c-1.1-6.2-4.5-11.2-7.9-16.3c-0.5-0.7-1.1-1.2-1.6-1.9
		c-1.2-1.8-2.7-4-1-5.9c1.8-2,4.4-1.2,6.4,0.2C437.7,1267.2,443.2,1275.4,444.9,1286.1z"/>
	<path class="st116" d="M637.8,1214.9c14.1-6.5,28.4-7.1,43-2C666.4,1210.4,652.1,1213.2,637.8,1214.9z"/>
	<path class="st116" d="M635.3,1216c0.3-0.7,0.9-0.9,1.6-0.7C636.4,1215.5,635.8,1215.7,635.3,1216z"/>
	<path class="st99" d="M544,1375.1c-4.1-1.5-5.5-3.2-2.9-8c4-7.4,6.6-15.6,9.8-23.5c5.5-13.6,11.5-27,19.1-39.5
		c6-9.8,12.2-11.7,23-7.7c9.6,3.6,16.8,10.6,24.7,16.7c15.3,11.7,24.3,28,33.1,44.5c3.7,6.9,7.1,13.9,10.1,21.2
		c1.3,3.3,0.7,5.6-2.3,7.7c-5.2,3.7-11,6.3-16.6,9.2c-2.5,1.3-4,0.1-5.7-1.5c-5.5-5.6-11.3-10.8-18.4-14.4c-2.3-1.2-5.1-3.2-7.2-0.3
		c-2,2.7,0.5,5,2.2,6.9c7.3,8.2,15.9,15.2,22.8,23.8c1.8,2.2,5.2,4.5,3.6,7.5c-1.4,2.8-5.2,1.3-7.9,1.4c-3.3,0-6.6-0.4-9.7-2
		c0.1-2-1.1-3.4-2.2-4.9c-6.4-8.4-14.1-15.3-22.9-21c-11.9-7.7-23.8-15.1-37.7-18.5C554.1,1371.4,548.3,1369.7,544,1375.1z"/>
	<path class="st99" d="M390.2,1415.1c-3.7,1.3-7.6,1.2-11.4,0.7c-5.3-0.7-6.5-3.6-3.1-7.9c3.5-4.5,8-8,12.7-11.2
		c7.5-5.2,15.2-10.2,22.6-15.6c2.3-1.7,6.8-3.6,4.4-7.1c-2.1-3-5.1,0.6-7.3,1.9c-8.6,5-18.1,8.5-26.1,14.6c-1,0.7-2.1,1-3.3,0.5
		c-7-3.1-14.2-5.6-20.9-9.5c-3.2-1.9-3.4-3.9-1.8-6.9c6.9-13,15.5-24.9,25.2-35.9c14.5-16.4,30.2-31.4,50.7-40.4
		c3.6-1.6,5.8-1.6,8.2,2c4.9,7.3,9.9,14.6,13.7,22.6c6.4,13.2,13.9,25.8,19.3,39.4c4.2,10.6,4.1,11.2-5.3,18c-1-2.2-2.5-4.1-5.1-4.2
		c-4.5-0.2-9-0.7-13.4,0.3c-20.1,4.6-37.7,14.2-53.9,26.7C391.8,1405.9,389.4,1409.8,390.2,1415.1z"/>
	<path class="st62" d="M544,1375.1c4.3-5.4,10.1-3.7,15.1-2.5c13.9,3.4,25.8,10.8,37.7,18.5c8.9,5.7,16.6,12.6,22.9,21
		c1.1,1.5,2.2,2.9,2.2,4.9c-6.7,0.4-12.7-2.2-18.7-4.5c-21.1-8.4-39.8-20.8-57.3-35.2C545.2,1376.7,544.6,1375.8,544,1375.1z"/>
	<path class="st117" d="M390.2,1415.1c-0.8-5.2,1.7-9.1,5.5-12.1c16.2-12.5,33.8-22.1,53.9-26.7c4.4-1,8.9-0.5,13.4-0.3
		c2.6,0.1,4.1,2,5.1,4.2c-13.1,9.8-27.3,17.6-42.4,23.7C414.1,1408.5,402.6,1413.3,390.2,1415.1z"/>
	<path class="st10" d="M484,1356.4c-0.1-0.4-0.4-1.1-0.2-1.3c0.5-0.5,1.2-0.3,1.8,0.1C485,1355.6,484.5,1356,484,1356.4z"/>
</g>
</svg>
