<?xml version="1.0" encoding="utf-8"?>
<!-- Generator: Adobe Illustrator 25.0.0, SVG Export Plug-In . SVG Version: 6.00 Build 0)  -->
<svg version="1.1" id="图层_1" xmlns="http://www.w3.org/2000/svg" xmlns:xlink="http://www.w3.org/1999/xlink" x="0px" y="0px"
	 viewBox="0 0 1200 1600" style="enable-background:new 0 0 1200 1600;" xml:space="preserve">
<style type="text/css">
	.st0{fill:#060604;}
	.st1{fill:#EDCF5D;}
	.st2{fill:#FBF1EE;}
	.st3{fill:#ECCF5D;}
	.st4{fill:#F4FB95;}
	.st5{fill:#A0918B;}
	.st6{fill:#FBFBFB;}
	.st7{fill:#927233;}
	.st8{fill:#935A40;}
	.st9{fill:#623C2A;}
	.st10{fill:#FEFEFE;}
	.st11{fill:#040302;}
	.st12{fill:#090805;}
	.st13{fill:#9C5B46;}
	.st14{fill:#070705;}
	.st15{fill:#ECCE5D;}
	.st16{fill:#F2F2F2;}
	.st17{fill:#93583F;}
	.st18{fill:#A1918B;}
	.st19{fill:#513123;}
	.st20{fill:#FAFAFA;}
	.st21{fill:#030202;}
	.st22{fill:#060605;}
	.st23{fill:#A0908A;}
	.st24{fill:#937234;}
	.st25{fill:#E6C95B;}
	.st26{fill:#864E37;}
	.st27{fill:#513124;}
	.st28{fill:#B0603E;}
	.st29{fill:#FAF0ED;}
	.st30{fill:#F9F9F9;}
	.st31{fill:#917133;}
	.st32{fill:#9E8F89;}
	.st33{fill:#E7CA5B;}
	.st34{fill:#92583F;}
	.st35{fill:#050503;}
	.st36{fill:#FCFBFB;}
	.st37{fill:#080704;}
	.st38{fill:#070605;}
	.st39{fill:#FAF1ED;}
	.st40{fill:#F4FA95;}
	.st41{fill:#F8F8F7;}
	.st42{fill:#90573E;}
	.st43{fill:#030302;}
	.st44{fill:#080805;}
	.st45{fill:#FBF1ED;}
	.st46{fill:#FBFBFA;}
	.st47{fill:#927234;}
	.st48{fill:#F69376;}
	.st49{fill:#7B2D2D;}
	.st50{fill:#FCFCFC;}
	.st51{fill:#EF5A2D;}
	.st52{fill:#F0CC2D;}
	.st53{fill:#9F8F8A;}
	.st54{fill:#FAFAF9;}
	.st55{fill:#F2A78E;}
	.st56{fill:#040403;}
	.st57{fill:#070604;}
	.st58{fill:#A0908B;}
	.st59{fill:#F7F7F7;}
	.st60{fill:#E8CB5B;}
	.st61{fill:#8F563E;}
	.st62{fill:#513224;}
	.st63{fill:#080705;}
	.st64{fill:#FCFCFB;}
	.st65{fill:#F9F8F8;}
	.st66{fill:#FAF0EC;}
	.st67{fill:#9F908A;}
	.st68{fill:#91573E;}
	.st69{fill:#070704;}
	.st70{fill:#F5FC96;}
	.st71{fill:#9C9C53;}
	.st72{fill:#9A9A52;}
	.st73{fill:#F2F994;}
	.st74{fill:#A17628;}
	.st75{fill:#90573F;}
	.st76{fill:#090806;}
	.st77{fill:#523123;}
	.st78{fill:#7C4031;}
	.st79{fill:#ED866D;}
	.st80{fill:#F3E9E6;}
	.st81{fill:#4F3023;}
	.st82{fill:#060606;}
	.st83{fill:#89533B;}
	.st84{fill:#050403;}
	.st85{fill:#090909;}
	.st86{fill:#EDCF5E;}
	.st87{fill:#050504;}
	.st88{fill:#060504;}
	.st89{fill:#955A41;}
	.st90{fill:#080703;}
	.st91{fill:#090807;}
	.st92{fill:#070603;}
	.st93{fill:#0A0905;}
	.st94{fill:#937335;}
	.st95{fill:#955A40;}
	.st96{fill:#955940;}
	.st97{fill:#EDD05E;}
	.st98{fill:#8F7032;}
	.st99{fill:#945940;}
	.st100{fill:#EED05E;}
	.st101{fill:#503123;}
	.st102{fill:#EEEEEE;}
	.st103{fill:#0D0C0A;}
	.st104{fill:#E3C659;}
	.st105{fill:#967535;}
	.st106{fill:#9D7D38;}
	.st107{fill:#745A29;}
	.st108{fill:#847334;}
	.st109{fill:#907134;}
	.st110{fill:#E5C85B;}
	.st111{fill:#503124;}
	.st112{fill:#927133;}
	.st113{fill:#E0DDD4;}
	.st114{fill:#987836;}
	.st115{fill:#977636;}
	.st116{fill:#CCC4A4;}
	.st117{fill:#523224;}
	.st118{fill:#0B0908;}
	.st119{fill:#8F7135;}
	.st120{fill:#050404;}
	.st121{fill:#EDD05D;}
	.st122{fill:#F3FA94;}
	.st123{fill:#9A9A51;}
	.st124{fill:#999951;}
	.st125{fill:#937334;}
	.st126{fill:#FAF0EE;}
	.st127{fill:#F3FA95;}
	.st128{fill:#989851;}
	.st129{fill:#A2792A;}
	.st130{fill:#F1F893;}
	.st131{fill:#A17729;}
	.st132{fill:#050502;}
	.st133{fill:#947335;}
	.st134{fill:#917233;}
	.st135{fill:#9B9B52;}
	.st136{fill:#F9EFEC;}
	.st137{fill:#9A782F;}
	.st138{fill:#979752;}
	.st139{fill:#F2F893;}
	.st140{fill:#8C8E4F;}
	.st141{fill:#B5B96E;}
	.st142{fill:#0F0F09;}
	.st143{fill:#9C9C52;}
	.st144{fill:#F5FB95;}
	.st145{fill:#F3F994;}
	.st146{fill:#A17728;}
	.st147{fill:#917134;}
	.st148{fill:#090706;}
	.st149{fill:#8E6F32;}
	.st150{fill:#93593F;}
	.st151{fill:#907033;}
	.st152{fill:#060505;}
	.st153{fill:#C8C3AF;}
	.st154{fill:#533324;}
	.st155{fill:#533426;}
	.st156{fill:#0E0C0A;}
	.st157{fill:#907133;}
	.st158{fill:#583627;}
	.st159{fill:#0A0907;}
	.st160{fill:#573526;}
	.st161{fill:#0C0B09;}
	.st162{fill:#503023;}
	.st163{fill:#543325;}
	.st164{fill:#B7B3A1;}
</style>
<g>
	<path class="st100" d="M371.7,1262.2c20.5-1.8,41.1-1.8,61.7-2.6c29.9-1,59.8,1.1,89.7,0.6c9.3-0.1,18.6,0.8,27.8,1.2
		c-0.3,1.8-1.6,2.3-3.1,2.7c-6.9,1.9-13.1,5.4-19.4,8.6c-1.4,0.7-3.3,1-3.4,3.1c-0.2,0.1-0.5,0.2-0.8,0.2c-4.6,1.4-8.8,3.3-11.2,7.8
		c-0.2,0.1-0.5,0.2-0.7,0.2c-3.7,1.2-6.9,2.9-8.3,6.8l0,0c-5.7,0.8-8.3,5.7-11.4,9.5c-3.3,3.9-6.3,7.6-11.1,10.1
		c-4.2,2.2-8.7,4.8-9.4,10.5c-0.3,0.3-0.6,0.7-0.9,1c-2.1,0-2.1,1.5-2.1,3l0,0c-5.9,4.4-6.4,11.1-6.9,17.5c-0.2,2.1-1.7,5.1,1.7,6.5
		c0,0.7,0.1,1.3,0.1,2c-1.1,5.3,0.9,9.8,4,14c-4.1,6-10.3,9.7-15.8,14.1c-1.3-0.2-2,0.4-2.3,1.6c-0.2,0.2-0.4,0.3-0.7,0.4
		c-1.2-0.2-2,0.3-2.4,1.5c-3.8,1.9-7.7,3.8-11.5,5.7c-1.2-0.4-2,0-2.5,1.1c-2.1,0.7-4.2,1.5-6.4,2.2c-1.1-0.7-2-0.3-2.7,0.6
		c-1.8,0.5-3.6,0.9-5.3,1.4c-1.1-0.1-2.2-0.2-3.2-0.4c-1.5-1.7-1.9-0.6-2.1,0.8c-1,0.3-2,0.5-3,0.8c-0.8-1.1-1.9-0.5-2.9-0.7
		c-1.5-1.7-1.8-0.6-2.1,0.8c-4.3,1.2-8.7,0.8-13-0.1c-0.2-1.4-0.6-2.4-2.1-0.8c-1,0.1-2.1-0.4-2.9,0.6c-0.6-0.1-1.2-0.2-1.8-0.4
		c-1-0.9-2.1-1.5-3.5-0.8c-0.6-0.1-1.1-0.3-1.7-0.4c-0.6-1-1.4-1.1-2.3-0.6c-0.6-0.2-1.1-0.3-1.7-0.5c-1.5-1.5-3.3-1.9-5.3-1.7
		c-3.5-1.7-7.3-3-9.8-6.3c0.2-1.2-0.3-2-1.5-2.3c-1.2-1.9-2.4-3.7-3.5-5.6c0.3-1.2-0.3-2-1.5-2.4c-0.9-1.5-1.7-3.1-2.6-4.6
		c-0.5-3.3-1.9-6.1-4.2-8.5c-0.3-0.8-0.7-1.6-1-2.4c0.5-1.2,0.1-2-1.1-2.6c-0.3-0.8-0.6-1.6-0.9-2.4c0.3-2.2-0.2-4.1-1.8-5.6
		c-0.2-0.6-0.3-1.1-0.5-1.7c0.8-0.9,0.5-1.5-0.4-2c-0.1-0.6-0.3-1.1-0.4-1.7c0.7-1.4,0.6-2.7-0.7-3.7c-0.1-0.9-0.3-1.8-0.4-2.7
		c1.2-1.2,0.3-2.6,0.5-3.9c1.5-1,1.1-1.6-0.4-2.1c-0.2-0.2-0.5-0.3-0.8-0.3c-0.2-2.6-0.6-5.2,0.3-7.7c2.3-0.5,2.6-1.5,0.8-3.1
		c-0.1-1.4,0.4-2.9-0.4-4.3c0.1-0.3,0.2-0.5,0.5-0.7c1.3-0.2,2.6-0.4,1-2c-0.1-0.7,0.2-1.5-0.6-2c0.1-0.6,0.3-1.1,0.4-1.7
		c1-0.7,1.4-1.5,0.7-2.7c0.4-1.1,0.7-2.2,1.1-3.4c2.4-3.5,4.3-7.3,5.3-11.5c0.5-0.9,1-1.7,1.5-2.6c1.2-0.3,1.8-1.1,1.5-2.3
		c0.1-0.2,0.3-0.5,0.4-0.7c1.2-0.3,1.8-1,1.7-2.3c0.4-0.6,0.9-1.2,1.3-1.8c1.3-0.2,1.8-0.9,1.8-2.2c1.4-1.6,2.8-3.2,4.2-4.9
		c1.3-0.1,1.9-0.8,1.9-2.1C366,1268.7,368.9,1265.5,371.7,1262.2z"/>
	<path class="st100" d="M565.2,1261.4c3.7-0.1,7.3-0.3,11-0.4c10-0.3,20-0.5,29.9-0.7c29.3-0.7,58.5,2.3,87.7,3.9
		c1.3,0.1,2.7,0.1,3.5,1.4c-1.2,5.7-3.7,10.2-7.7,14.8c-7.4,8.6-14.3,17.8-19.1,28.3c-3.6,2.9-4.3,7.1-5.4,11.2
		c-1.7,1.6-1.7,3.3-0.2,5.1c0,0.7-0.1,1.3-0.1,2c-3.2,3.6-3.2,8.3-4.7,12.5c-0.1,0.8-0.2,1.7-0.3,2.5c-1.5,0.2-1.9,1.1-1.7,2.4
		c0,2.2-1.2,3.8-2.2,5.6c-2.5,0.5-2.8,2.3-2.8,4.4c0,1-0.1,2-1.2,2.6c-1.5,0.1-2.1,0.9-1.8,2.4c-0.3,1.5-0.9,2.7-2.1,3.7
		c-1.6,0-2.1,0.8-1.9,2.3c0.1,0.2,0,0.4-0.1,0.6c-1.5,0.1-2.1,0.9-1.9,2.3c0,0.8-0.3,1.4-1.1,1.7c-2.1,0.1-3.1,1.2-2.9,3.3
		c-0.3,0.6-0.7,1.1-1,1.7c-2.7,0-3.2,1.7-3.1,3.9c-2.1,4.2-6.9,5.8-9.2,9.7c-2.3,1.6-4.7,2.9-7.6,2.9c-0.2-0.6-0.7-1.3-1.3-1.1
		c-0.4,0.2-0.6,1-0.8,1.6c-1.2,0.9-2.6,0.9-4,0.6c-0.2-0.8-0.5-1.5-1.4-1.5c-1.2,0-1.5,0.8-1.6,1.8c-2.7,1.2-5.3,0.6-8,0
		c-1.1-3-2.4-2.9-4-0.4c-1.4,0.4-2.7,0-4-0.6c-0.3-0.5-0.5-1.4-0.9-1.5c-0.8-0.3-1,0.5-1.1,1.1c-3.8-0.3-7.5-1.1-11-2.7
		c-0.1-1.5-1.2-1.6-2.4-2c-9.9-3-19.3-6.8-26.2-15c-1-1.2-2.1-2.2-3.8-1.8c-0.2-0.3-0.5-0.6-0.7-0.9c0.2-1.8,0.1-3.3-2.4-3.1
		c-1.8-1.5-3.1-3.3-3.7-5.6c0.1-1.6,0.7-3.4-2-3.4l0,0c0.4-3.5-0.3-6.4-3.8-8.1c-0.6-0.6-0.9-1.3-0.6-2.2c-0.8-5.1-0.4-10.4-3.2-15
		c0.1-0.3,0.1-0.7,0.2-1c0.7-2.2,0.7-4.4,0-6.6c-0.1-0.3-0.1-0.7-0.2-1c3.2-1.9,1.6-5.4,2.4-8.1c1.7-5.7,5.1-10.7,6.1-16.6l0-0.3
		l0.3-0.1c1.6-0.1,2-1.2,1.7-2.6l0-0.3l0.3-0.1c1.5-0.1,2-1,1.8-2.4c0.3-1.2,0.9-2.1,2.1-2.6c3.9-1.4,6.6-4.1,8-8
		c0.4-1.1,1.1-1.7,2.2-1.9c2,0,3.6-0.5,3.8-2.9l0.1-0.3l0.4,0c1.4,0.2,2.4-0.2,2.5-1.8l0.1-0.3l0.3,0c1.4,0.3,2.4-0.1,2.6-1.7
		c1.3-1,2.6-2.1,3.9-3.1c1.3-0.1,2.5-0.2,1.2-1.9c-0.1-1.3-0.1-2.5-0.2-3.8C571.1,1259.8,567.1,1263.2,565.2,1261.4z"/>
	<path class="st103" d="M557.2,1280c-1.1,0.2-1.8,0.9-2.2,1.9c-3.4,1.9-6.1,4.6-8,8c-1.2,0.5-1.9,1.4-2.1,2.6
		c-1.1,0.4-1.8,1.2-1.8,2.4l-0.3,0.1c0,0,0,0.3,0,0.3c-1.1,0.5-1.7,1.3-1.7,2.6l-0.3,0.1c0,0,0,0.3,0,0.3
		c-5.4,7.3-8.4,15.5-8.5,24.7c0.1,0.3,0.1,0.7,0.2,1c-1.5,2.2-1.5,4.4,0,6.6c-0.1,0.3-0.1,0.7-0.2,1c-0.3,5.3,0.3,10.4,3.2,15
		c-0.3,0.9-0.1,1.6,0.6,2.2c0.4,3.1,1.6,5.8,3.8,8.1c0,0,0,0,0,0c0,1.5,0.7,2.6,2,3.4c0.6,2.3,1.9,4.1,3.7,5.6
		c0.3,1.4,1.1,2.4,2.4,3.1c0.2,0.3,0.5,0.6,0.7,0.9c7.7,11.6,19.7,15.8,32.4,18.8c3.5,1.6,7.1,2.4,11,2.7c0.7,0.1,1.3,0.2,2,0.4
		c1.3,0.6,2.6,1,4,0.6c1.3,0.6,2.6,0.8,4,0.4c2.7,0.6,5.3,1.2,8,0c1.1,0.4,2.1,0.3,3-0.3c1.4,0.3,2.8,0.4,4-0.6
		c0.8,0.3,1.6,0.1,2.2-0.5c2.9,0,5.3-1.3,7.6-2.9c1.8,0.8,3.2-0.3,4.7-0.9c7.6-2.9,14.9-6.6,22-10.6c8.6-4.9,16.1-11.2,22-19.3
		c2.3-3.2,3.8-6,0.3-9.6c-2.3-2.3-3.2-5.8-4-9.1c-2.5-10.1-4-20.1-1.2-30.4c4.8-10.5,11.8-19.7,19.1-28.3c4-4.7,6.5-9.2,7.7-14.8
		c0.4-0.5,0.8-1.1,1.2-1.6c1.3-1.8,2.1-4.8,5.1-3.7c3,1.1,3.2,4.2,2.9,6.8c-1,9.9-5.4,18.5-11.2,26.3c-3.7,4.9-7.1,10.1-9.9,15.6
		c-4.7,9.2-5.9,19-4.1,29.1c0.6,3.3,1.4,5.6,5.8,4.4c3.1-0.8,6.2,0.6,8.8,2.7c8,6.8,9.8,22.2,3.6,30.6c-0.6,0.8-1.2,1.6-1.9,2.3
		c-4.9,5.2-10.7,9.7-8.9,18.5c0.7,3.2-2.2,6.5-4.3,9.3c-13.6,18.1-28.1,35.5-43.7,52c-11.3,12.1-24.6,8.7-32.8-0.3
		c-9-9.8-17.6-19.9-23.2-32.2c-0.9-1.9-2.5-2-4.1-2.3c-4.8-0.9-9.4-2-14-3.6c-16.2-5.8-24.4-19.4-32.3-33.3c-1.6-2.9-1-6.2,1.1-9
		c1.7-2.2,1.6-3.9-0.1-6.2c-8.4-11-12.8-23.6-14.5-37.2c-0.3-2.5-1.1-4-4-3.8c-9.4,0.5-18.7-0.1-27.5-3.9c-0.6-0.3-1.5-0.5-1.9-0.3
		c-3.8,2.5-7.9,5-9.3,9.3c-1.5,4.5,1.1,8.7,3.1,12.7c0.6,1.2,2.1,0.8,3.2,1.1c7.3,2.1,13,6,15,13.8c1,3.9,2.3,7.7,3.1,11.6
		c1.5,7.5,0.1,14.4-6.1,19.4c-2.9,2.4-3.7,5-3.5,8.7c0.4,6.3-2.1,11.6-6.5,16.2c-17.9,18.7-37.2,35.8-56.4,53
		c-6.2,5.6-13.8,7.1-21.8,6.8c-6.2-0.2-10.1-3.8-12.7-9.1c-4.9-10.1-8.1-20.8-10.6-31.7c-1.3-5.8-3.7-8.7-9.6-10
		c-14.7-3.1-24.4-13.1-32-25.3c-3.3-5.4-3.2-11,0.5-15.9c2.7-3.5,1.9-5.9-0.2-9.2c-9.9-15.3-16.1-31.9-16.1-50.2
		c-0.1-28.5,12-51.1,34.5-68.1c5.3-4,8.2-2.8,9.6,3.1c-2.9,3.3-5.8,6.5-8.7,9.8c-1.3,0.1-1.9,0.8-1.9,2.1c-1.4,1.6-2.8,3.2-4.2,4.9
		c-1.3,0.2-1.9,0.9-1.8,2.2c-0.4,0.6-0.9,1.2-1.3,1.8c-1.3,0.2-1.9,1-1.7,2.3c-0.2,0.2-0.3,0.4-0.4,0.7c-1.3,0.3-1.8,1-1.5,2.3
		c-0.5,0.9-1,1.7-1.5,2.6c-3.3,3.1-4.9,7-5.3,11.5c-0.4,1.1-0.7,2.2-1.1,3.4c-1.1,0.7-1.4,1.5-0.7,2.7c-0.1,0.6-0.3,1.1-0.4,1.7
		c-1,0.5-1.3,1.1-0.4,2c0,0.7,0,1.3,0.1,2c-0.3,0.1-0.4,0.4-0.5,0.7c-1.4,1.3-1.6,2.7-0.6,4.4c0.1,1,0.1,2,0.2,3
		c-0.9,2.5-0.5,5.1-0.3,7.7c-0.5,0.5-0.4,1,0.1,1.5c0,0.3,0,0.6,0.1,0.8c-0.9,1.5-0.9,2.8,0.5,4c0.1,0.9,0.3,1.8,0.4,2.7
		c-0.8,1.4-0.6,2.7,0.7,3.6c0.1,0.6,0.3,1.1,0.4,1.7c-0.9,0.9-0.5,1.5,0.4,2c0.2,0.6,0.3,1.1,0.5,1.7c-0.5,2.2,0,4.1,1.8,5.6
		c0.3,0.8,0.6,1.6,0.9,2.4c-0.5,1.2-0.1,2,1.1,2.6c0.3,0.8,0.7,1.6,1,2.4c0.2,3.4,1.6,6.3,4.2,8.5c0.9,1.5,1.7,3.1,2.6,4.6
		c-0.3,1.3,0.2,2.1,1.5,2.4c1.2,1.9,2.4,3.7,3.5,5.6c-0.3,1.3,0.2,2.1,1.5,2.3c2.5,3.3,6.3,4.6,9.8,6.3c1.4,1.7,3.1,2.4,5.3,1.7
		c0.6,0.2,1.1,0.3,1.7,0.5c0.6,0.9,1.3,1.6,2.3,0.6c0.6,0.1,1.1,0.3,1.7,0.4c1,1.3,2.1,1.5,3.5,0.8c0.6,0.1,1.2,0.2,1.8,0.4
		c0.8,1.2,1.8,1.4,3,0.4c0.7-0.1,1.3-0.1,2-0.2c4.3,0.9,8.7,1.3,13,0.1c0.7,0.1,1.3,0.1,2,0.2c1.1,0.9,2.1,0.8,3-0.4
		c1-0.3,2-0.5,3-0.8c0.7,0.1,1.3,0.1,2,0.2c1.4,1,2.4,0.6,3.3-0.7c1.8-0.5,3.6-0.9,5.3-1.4c1.1,0.8,2,0.4,2.7-0.6
		c2.1-0.7,4.2-1.5,6.4-2.2c1.2,0.6,2,0.1,2.5-1.1c3.8-1.9,7.7-3.8,11.5-5.7c1.3,0.3,2.1-0.2,2.4-1.5c0.2-0.1,0.5-0.3,0.7-0.4
		c1.3,0.2,2.1-0.3,2.3-1.6c5.5-4.4,11.7-8.1,15.8-14.1c0.4-0.3,0.7-0.7,1.1-1c1.4,0,1.9-0.8,2-2c0.4-0.6,0.9-1.1,1.3-1.7
		c1.4-0.5,1.8-1.5,1-2.7c-2.5-3.9-3.5-8.5-5.4-12.6c-0.1-0.6-0.1-1.3-0.2-1.9c0.2-6.5,1-12.7,4.9-18.4c2.4-3.5,6-5.6,8.7-8.6
		c0.9-0.4,1.8-0.8,2.7-1.2c3.4-1.3,6.7-0.9,10.1,0.4c3.8,1.4,7.7,3,12,2.3c3.9,0.4,7.9,0.4,11.8,0c1.6,0.4,3.6,0.9,4-1.4
		c1.3-8.8,5.8-16.3,9.1-24.3c0.2-0.2,0.2-0.4,0.2-0.7c1.5-0.6,2.6-1.6,2.6-3.4c0.2-0.2,0.3-0.4,0.3-0.7c1.6-0.5,2.7-1.5,2.8-3.3
		c3-3,6-6,9-9c1.2,0,1.9-0.7,2.2-1.9c0.6-0.4,1.2-0.8,1.8-1.2c1.2,0,1.9-0.6,2.3-1.8c0.3,0,0.5-0.1,0.7-0.3c1.3,0.1,1.9-0.6,2.3-1.7
		c0.3,0,0.5-0.1,0.7-0.3c1.8-0.3,3.7-0.6,4-2.9c3.9-0.8,7.8-3.4,11.9-0.8c0.1,1.3,0.1,2.5,0.2,3.8c-1.3,0.1-1,1.2-1.2,1.9
		c-1.3,1-2.6,2.1-3.9,3.1c-1.2,0-2.1,0.7-2.6,1.7l-0.3,0c0,0-0.1,0.3-0.1,0.3c-1.2,0-2,0.7-2.5,1.8l-0.4,0c0,0-0.1,0.3-0.1,0.3
		C559.3,1277.4,558,1278.4,557.2,1280z M600.6,1435.9c3.6,6.2,7.8,12,13,17c7.2,7,14.1,6.9,21.1-0.2c8.9-9,17-18.6,24.6-28.7
		c8.2-7.5,13.3-17.2,19.6-26.1c0.5-0.7,1.4-1.8,0.3-2.6c-1.2-0.9-2.2,0.1-3,0.9c-3.7,3.5-8.4,5.3-13,7.1c-2.4,0.9-4.2,0.7-5.5-1.6
		c0.2-0.6,0.3-1.1,0.5-1.7c13.6-7.3,25.1-17.2,34.1-29.8c2.9-4.1,2.5-8.8,0.7-13.4c-0.6-1.4-0.9-3.6-3-3.6c-1.9,0-2.6,1.8-3.3,3.3
		c-3.1,5.9-7.5,10.7-12.6,15.1c-4.5,3.9-9.7,6.8-14.2,10.6c-5,2.5-10,5.1-15.1,7.3c-10.5,4.5-20.9,9.1-32.4,10.7
		c-0.9-0.5-1.7-0.4-2.3,0.5c-7,0-14,0-21,0c-0.6-0.9-1.3-1-2.3-0.6c-2.3-0.5-4.5-1-6.8-1.5c-12-2.5-21.6-9.9-32.3-15.2
		c-1-0.5-2-2.4-3.4-0.9c-1,1.2-0.1,2.5,0.5,3.7c10.5,18.4,25.5,30.3,47.2,32.5c0.6,0.9,1.3,1,2,0.1c13.8,0.6,27.5-0.1,40.1-6.6
		c1.5-0.8,3.2-1,4.8-0.7c-5.3,6.3-12.9,8.5-20.2,11c-7.5,2.6-15.4,1.9-23.2,2.1c-1.1,0-4.1-0.6-2.8,1.7
		C594.8,1430.1,597.9,1432.9,600.6,1435.9z M446.6,1443c2.4,0.3,3.5-1.6,4.9-3c8.8-8.8,17.6-17.6,26.4-26.4c1.8-1.9,5-4.1,3.7-6.4
		c-1.4-2.5-3.7,1-5.8,1.3c-1.3,0.2-2.7,0.9-3.4-0.8c-0.6-1.4,0-2.6,1.2-3.4c2.5-1.6,4.9-3.4,7.5-4.8c3-1.7,4.8-4.3,6.9-7
		c6.7-8.9,2.9-17.6,0-26.4c-0.7-2-1.9-2.8-3.5-0.8c-4.8,6.1-10.4,11.4-16.5,16.1c-15.8,10.3-32.7,17.5-51.5,19.9
		c-0.9-0.4-1.7-0.4-2.3,0.5c-1.9,0.1-3.8,0.3-5.7,0.4c-5.2-0.6-10.3-0.7-15.5,0.1c-2.6-0.2-5.2-0.3-7.7-0.5
		c-0.6-0.9-1.3-0.9-2.2-0.6c-8-1-15.7-3.2-22.8-7.1c-1.6-0.9-3.2-1.7-5.1-1.3c-1.9,1.3-3,2.7-0.2,4.3c10.1,15.3,23.7,25.4,42.4,27.8
		c2.3,1.5,4.6,1.4,7,0.2c3.9-0.2,7.8-0.4,11.7-0.6c0.9,0.4,1.7,0.4,2.3-0.5c2.1-0.4,4.2-0.9,6.3-1.2c2-0.2,4.5-2.5,6,0.9
		c-2,3.3-5.4,4.2-8.8,5.1c-8,2-16,4-24.4,3.1c-1.9-0.2-3.7,0.5-2.9,2.7c2,5.7,2.5,11.9,5.4,17.3c0.9,2.8,1.6,5.7,2.6,8.5
		c3.5,9.8,12.7,12.1,20.6,5.1c5.4-4.9,10.7-9.9,16.1-14.9C441.6,1448.2,444.9,1446.5,446.6,1443z"/>
	<path class="st104" d="M571.9,1264.2c-4.2-2.6-8-0.1-11.9,0.8c-0.3-1.1-1.1-0.9-1.9-0.8c-3.2-0.6-6.1,0.9-9.1,1.6
		c-8.6,2-15.8,7.2-24,10.1c0.2-2.1,2-2.4,3.4-3.1c6.3-3.2,12.5-6.7,19.4-8.6c1.5-0.4,2.9-0.9,3.1-2.7c4.7-0.6,9.5-0.5,14.2,0
		C567.1,1263.2,571.1,1259.8,571.9,1264.2z"/>
	<path class="st105" d="M525,1275.9c8.2-2.9,15.4-8.2,24-10.1c3-0.7,5.9-2.2,9.1-1.6c-0.7,1.2-1.4,2.5-2.1,3.7
		c-0.2,0.2-0.4,0.2-0.7,0.3c-1.4-0.2-2.2,0.3-2.3,1.7c-0.2,0.2-0.4,0.3-0.7,0.3c-1.4-0.2-2.2,0.4-2.3,1.8c-0.6,0.4-1.2,0.8-1.8,1.2
		c-1.4-0.2-2.2,0.4-2.2,1.9c-3,3-6,6-9,9c-2,0.2-3,1.2-2.8,3.3c0,0.3-0.1,0.5-0.3,0.7c-2,0.3-3,1.3-2.6,3.4c0,0.2-0.1,0.5-0.2,0.7
		c-4.5,2.7-5.1,7.8-7.1,12c-2.2,4.5-2.1,10-6,13.7c-3.9,0.4-7.9,0.4-11.8,0c-0.2-0.4-0.4-1.2-0.7-1.2c-5.2-0.8-10.3-2.2-15.3-4.1
		c-2.1-0.8-5-0.3-6.1,2.6c-0.9,0.4-1.8,0.8-2.7,1.2c-1.1-0.1-2.2-0.1-3.2-0.2c0.6-1.9,2.3-2.7,3.9-3.6c2.4-1.4,5.7-2.3,7.1-4.4
		c4.3-6.4,10.2-11.2,15-17c0,0,0,0,0,0c3.3-1.6,6.6-3.3,8.3-6.8c0.3,0,0.5-0.1,0.7-0.2c4.2-2,8.2-4.1,11.2-7.8
		C524.5,1276.1,524.8,1276,525,1275.9z"/>
	<path class="st106" d="M472.3,1360.3c-0.4,0.6-0.9,1.1-1.3,1.7c-0.8,0-1.7,0-2.5,0.1c-3.6-2.8-2.4-7.6-4.5-11c0-0.7-0.1-1.3-0.1-2
		c0.8-4-1.2-8.2,1.2-12c2.3,1.4-0.5,5.1,2.6,6.1c0.1,0.6,0.1,1.3,0.2,1.9c-1.3,1.1-0.6,2.3-0.1,3.5
		C469.3,1352.4,470.8,1356.3,472.3,1360.3z"/>
	<path class="st104" d="M504,1290.9c-4.8,5.8-10.7,10.7-15,17c-1.4,2.1-4.7,2.9-7.1,4.4c-1.5,0.9-3.2,1.8-3.9,3.6c-2,1.7-4,3.3-6,5
		c0.7-5.7,5.3-8.3,9.4-10.5c4.8-2.5,7.8-6.2,11.1-10.1C495.7,1296.7,498.3,1291.7,504,1290.9z"/>
	<path class="st107" d="M472,1321c2-1.7,4-3.3,6-5c1.1,0.1,2.2,0.1,3.2,0.2c-2.7,3-6.3,5.1-8.7,8.6c-3.9,5.6-4.7,11.9-4.9,18.4
		c-3.2-1-0.3-4.7-2.6-6.1c0.1-0.6,0.2-1.3,0.2-1.9c1.4-0.3,1.8-1.1,1.4-2.5c1.1-2.4,2.3-4.9,2.4-7.6c0,0,0,0,0,0
		c1.3-0.6,1.9-1.6,2.1-3C471.4,1321.6,471.7,1321.3,472,1321z"/>
	<path class="st104" d="M469.1,1325c-0.1,2.8-1.3,5.2-2.4,7.6c-1.1,0.4-1.8,1.2-1.4,2.5c-0.1,0.6-0.2,1.3-0.2,1.9
		c-2.3,3.8-0.4,8-1.2,12c-3.4-1.4-1.9-4.4-1.7-6.5C462.7,1336,463.2,1329.4,469.1,1325z"/>
	<path class="st104" d="M464,1351c2.2,3.4,1,8.2,4.6,11c0.2,0.6,0.3,1.3,0.5,1.9c-0.4,0.3-0.7,0.7-1.1,1
		C464.9,1360.7,462.9,1356.3,464,1351z"/>
	<path class="st104" d="M524.2,1276.1c-3,3.7-7.1,5.8-11.2,7.8C515.4,1279.4,519.6,1277.4,524.2,1276.1z"/>
	<path class="st108" d="M343.6,1302.2c0.4-4.5,2-8.3,5.3-11.5C347.8,1294.9,346,1298.7,343.6,1302.2z"/>
	<path class="st104" d="M512.3,1284.1c-1.7,3.5-5,5.2-8.3,6.8C505.4,1286.9,508.6,1285.2,512.3,1284.1z"/>
	<path class="st108" d="M351.9,1369.1c-2.7-2.2-4.1-5-4.2-8.5C349.9,1363,351.4,1365.8,351.9,1369.1z"/>
	<path class="st108" d="M376,1392c-2.2,0.8-3.9,0-5.3-1.7C372.8,1390.1,374.6,1390.6,376,1392z"/>
	<path class="st108" d="M344.7,1353.2c-1.8-1.5-2.4-3.4-1.8-5.6C344.4,1349.1,344.9,1351,344.7,1353.2z"/>
	<path class="st108" d="M339.9,1318.9c-1-1.6-0.8-3.1,0.6-4.4c0.8,1.4,0.3,2.8,0.4,4.3C340.5,1318.9,340.2,1318.9,339.9,1318.9z"/>
	<path class="st108" d="M340.3,1335.9c-1.4-1.2-1.4-2.5-0.5-4c0.3,0,0.7,0.1,1,0.1C340.7,1333.3,341.5,1334.8,340.3,1335.9z"/>
	<path class="st104" d="M339.9,1318.9c0.3,0,0.7-0.1,1-0.1c1.8,1.6,1.5,2.6-0.8,3.1C340,1320.9,339.9,1319.9,339.9,1318.9z"/>
	<path class="st108" d="M418.4,1393.5c-0.9,1.3-2,1.7-3.3,0.7c0-0.3,0.1-0.7,0.1-1C416.2,1393.2,417.3,1393.4,418.4,1393.5z"/>
	<path class="st108" d="M390,1395c-1.2,1-2.1,0.8-3-0.4c0.8-0.9,1.9-0.4,2.9-0.6C390,1394.4,390.1,1394.7,390,1395z"/>
	<path class="st108" d="M410,1394.7c-0.9,1.2-1.9,1.3-3,0.4c0-0.3,0.1-0.7,0.1-1C408.1,1394.2,409.2,1393.7,410,1394.7z"/>
	<path class="st108" d="M341.5,1342.3c-1.4-1-1.5-2.2-0.7-3.6C342.1,1339.6,342.2,1340.8,341.5,1342.3z"/>
	<path class="st104" d="M471.1,1322c-0.1,1.4-0.7,2.4-2.1,3C469,1323.5,469,1322,471.1,1322z"/>
	<path class="st108" d="M385.2,1394.2c-1.4,0.8-2.6,0.5-3.5-0.8C383.1,1392.7,384.2,1393.4,385.2,1394.2z"/>
	<path class="st104" d="M340.9,1313.9c0-0.7,0-1.3-0.1-2c0.3,0,0.7,0,1,0C343.6,1313.5,342.3,1313.7,340.9,1313.9z"/>
	<path class="st108" d="M341.9,1311.9c-0.3,0-0.7,0-1,0c-0.8-0.9-0.5-1.5,0.4-2C342.1,1310.4,341.9,1311.2,341.9,1311.9z"/>
	<path class="st108" d="M341.8,1308.3c-0.7-1.2-0.3-2,0.7-2.7C343.2,1306.7,342.8,1307.6,341.8,1308.3z"/>
	<path class="st108" d="M355.9,1376.1c-1.3-0.3-1.8-1.1-1.5-2.4C355.6,1374,356.1,1374.8,355.9,1376.1z"/>
	<path class="st108" d="M452.1,1379c-0.3,1.3-1,1.8-2.3,1.6C450.1,1379.4,450.9,1378.9,452.1,1379z"/>
	<path class="st108" d="M449.1,1381.1c-0.3,1.3-1.1,1.8-2.4,1.5C447.1,1381.4,447.9,1380.8,449.1,1381.1z"/>
	<path class="st108" d="M360.9,1384c-1.3-0.3-1.8-1-1.5-2.3C360.6,1382,361.2,1382.8,360.9,1384z"/>
	<path class="st108" d="M435.3,1388.2c-0.5,1.2-1.3,1.6-2.5,1.1C433.3,1388.2,434.1,1387.8,435.3,1388.2z"/>
	<path class="st108" d="M350.3,1288.2c-0.3-1.3,0.3-2.1,1.5-2.3C352.1,1287.1,351.6,1287.8,350.3,1288.2z"/>
	<path class="st108" d="M352.3,1285.1c-0.2-1.3,0.4-2,1.7-2.3C354.1,1284.1,353.5,1284.9,352.3,1285.1z"/>
	<path class="st108" d="M426.4,1391.5c-0.7,1.1-1.5,1.4-2.7,0.6C424.4,1391.1,425.3,1390.8,426.4,1391.5z"/>
	<path class="st108" d="M355.3,1281.1c-0.1-1.3,0.5-2,1.8-2.2C357.1,1280.2,356.5,1280.9,355.3,1281.1z"/>
	<path class="st108" d="M380,1393.1c-1.1,1-1.7,0.3-2.3-0.6C378.7,1391.9,379.4,1392.1,380,1393.1z"/>
	<path class="st104" d="M415.1,1393.1c0,0.3-0.1,0.7-0.1,1c-0.7-0.1-1.3-0.1-2-0.2C413.3,1392.5,413.6,1391.4,415.1,1393.1z"/>
	<path class="st104" d="M390,1395c0-0.3,0-0.7-0.1-1c1.4-1.6,1.8-0.6,2.1,0.8C391.4,1394.9,390.7,1395,390,1395z"/>
	<path class="st104" d="M407.1,1394.1c0,0.3-0.1,0.7-0.1,1c-0.7-0.1-1.3-0.1-2-0.2C405.3,1393.5,405.6,1392.4,407.1,1394.1z"/>
	<path class="st108" d="M361.2,1274.1c0-1.3,0.6-2,1.9-2.1C363.1,1273.3,362.4,1274,361.2,1274.1z"/>
	<path class="st104" d="M340.9,1332c-0.3,0-0.7-0.1-1-0.1c0-0.3-0.1-0.6-0.1-0.8c0.2-0.4,0.5-0.8,0.7-1.2
		C341.9,1330.4,342.4,1331,340.9,1332z"/>
	<path class="st108" d="M346.6,1358.2c-1.1-0.5-1.6-1.3-1.1-2.6C346.7,1356.2,347.1,1357,346.6,1358.2z"/>
	<path class="st108" d="M342.4,1345.9c-1-0.5-1.3-1.1-0.4-2C342.9,1344.4,343.2,1345,342.4,1345.9z"/>
	<path class="st108" d="M340.5,1329.9c-0.2,0.4-0.5,0.8-0.7,1.2c-0.5-0.5-0.6-0.9-0.1-1.5C340,1329.6,340.3,1329.7,340.5,1329.9z"/>
	<path class="st109" d="M670.6,1308.7c-2.8,10.3-1.3,20.4,1.2,30.4c0.8,3.3,1.7,6.7,4,9.1c3.5,3.6,2,6.4-0.3,9.6
		c-5.9,8.1-13.3,14.4-22,19.3c-7.1,4-14.4,7.7-22,10.6c-1.5,0.6-2.9,1.7-4.7,0.9c2.4-3.9,7.1-5.5,9.2-9.7c1.7-0.8,2.8-2,3.1-3.9
		c0.3-0.6,0.7-1.1,1-1.7c1.6-0.5,2.7-1.5,2.9-3.3c0.7-0.3,1-1,1.1-1.7c1.1-0.3,1.9-1,1.9-2.3c0.1-0.2,0.2-0.4,0.1-0.6
		c1.1-0.4,1.9-1.1,1.9-2.3c1.2-1,1.8-2.2,2.1-3.7c1.1-0.4,1.9-1.1,1.8-2.4c1-0.6,1.1-1.6,1.2-2.6c1.9-0.8,2.6-2.5,2.8-4.4
		c1-1.7,2.2-3.4,2.2-5.6c1.1-0.5,1.8-1.1,1.7-2.4c0.1-0.8,0.2-1.7,0.3-2.5c3.6-3.4,4.4-7.8,4.7-12.5c0-0.7,0.1-1.3,0.1-2
		c1.4-1.6,1.2-3.3,0.2-5.1C666.3,1315.8,667,1311.5,670.6,1308.7z"/>
	<path class="st110" d="M581,1388.8c-12.7-3-24.7-7.2-32.4-18.8c1.7-0.4,2.9,0.6,3.8,1.8c6.9,8.2,16.4,12,26.2,15
		C579.9,1387.2,580.9,1387.4,581,1388.8z"/>
	<path class="st104" d="M532.3,1323.1c0.1-9.2,3.1-17.4,8.5-24.7c-1,5.9-4.4,10.9-6.1,16.6C533.9,1317.7,535.6,1321.2,532.3,1323.1z
		"/>
	<path class="st104" d="M535.5,1346.8c-2.9-4.6-3.5-9.7-3.2-15C535.1,1336.4,534.7,1341.7,535.5,1346.8z"/>
	<path class="st110" d="M664.9,1326.9c-0.3,4.6-1,9.1-4.7,12.5C661.6,1335.2,661.7,1330.5,664.9,1326.9z"/>
	<path class="st104" d="M547,1289.9c1.9-3.5,4.6-6.1,8-8C553.5,1285.8,550.9,1288.5,547,1289.9z"/>
	<path class="st110" d="M539.8,1357.1c-2.1-2.3-3.3-5-3.8-8.1C539.5,1350.6,540.2,1353.6,539.8,1357.1z"/>
	<path class="st110" d="M665.2,1319.9c1,1.7,1.2,3.4-0.2,5.1C663.5,1323.2,663.4,1321.5,665.2,1319.9z"/>
	<path class="st104" d="M532.5,1330.7c-1.5-2.2-1.5-4.4,0-6.6C533.2,1326.3,533.2,1328.5,532.5,1330.7z"/>
	<path class="st110" d="M639.1,1375c-0.3,1.9-1.5,3.1-3.1,3.9C635.9,1376.7,636.4,1375,639.1,1375z"/>
	<path class="st110" d="M656,1349.9c-0.2,1.9-0.9,3.5-2.8,4.4C653.2,1352.3,653.5,1350.4,656,1349.9z"/>
	<path class="st110" d="M602,1392.9c-1.4,0.4-2.7,0.2-4-0.4C599.6,1390,600.9,1389.9,602,1392.9z"/>
	<path class="st104" d="M557.2,1280c0.8-1.6,2-2.6,3.8-2.9C560.8,1279.5,559.2,1280,557.2,1280z"/>
	<path class="st110" d="M643.1,1370c-0.2,1.8-1.3,2.8-2.9,3.3C639.9,1371.1,640.9,1370,643.1,1370z"/>
	<path class="st110" d="M613,1392.6c-1,0.6-2,0.7-3,0.3c0.1-1,0.4-1.8,1.6-1.8C612.5,1391.1,612.8,1391.8,613,1392.6z"/>
	<path class="st110" d="M541.8,1360.5c-1.3-0.8-2-1.9-2-3.4C542.5,1357.1,541.9,1358.9,541.8,1360.5z"/>
	<path class="st110" d="M547.9,1369.2c-1.3-0.6-2.1-1.7-2.4-3.1C548,1365.9,548.1,1367.4,547.9,1369.2z"/>
	<path class="st110" d="M652,1356.9c0,1.3-0.7,2-1.8,2.4C649.9,1357.9,650.5,1357,652,1356.9z"/>
	<path class="st110" d="M648.1,1363c-0.1,1.2-0.8,1.9-1.9,2.3C646,1363.8,646.5,1363,648.1,1363z"/>
	<path class="st110" d="M659.9,1341.9c0.1,1.3-0.6,2-1.7,2.4C657.9,1343,658.4,1342.1,659.9,1341.9z"/>
	<path class="st110" d="M646,1365.9c0,1.3-0.8,2-1.9,2.3C643.9,1366.8,644.5,1366,646,1365.9z"/>
	<path class="st110" d="M619.2,1391.5c-0.6,0.7-1.3,0.8-2.2,0.5c0.3-0.6,0.4-1.4,0.8-1.6C618.5,1390.1,618.9,1390.8,619.2,1391.5z"
		/>
	<path class="st104" d="M541.1,1297.9c0-1.3,0.7-2.1,1.7-2.6C543.1,1296.8,542.7,1297.8,541.1,1297.9z"/>
	<path class="st104" d="M543.1,1294.9c0-1.2,0.7-2,1.8-2.4C545.1,1293.9,544.6,1294.8,543.1,1294.9z"/>
	<path class="st110" d="M594,1391.9c-0.7-0.1-1.3-0.2-2-0.4c0.1-0.7,0.4-1.4,1.1-1.1C593.5,1390.6,593.7,1391.4,594,1391.9z"/>
	<path class="st104" d="M564.4,1274.7c0.5-1.1,1.3-1.7,2.6-1.7C566.9,1274.6,565.9,1275,564.4,1274.7z"/>
	<path class="st104" d="M570.9,1269.9c0.2-0.8-0.1-1.8,1.2-1.9C573.5,1269.7,572.2,1269.8,570.9,1269.9z"/>
	<path class="st104" d="M561.5,1276.8c0.5-1.1,1.3-1.7,2.5-1.8C563.9,1276.6,562.9,1277,561.5,1276.8z"/>
	<path class="st99" d="M416.3,1401.4c18.8-2.4,35.8-9.6,51.5-19.9c2.5,5.7,1,11.6,0.7,17.5c-0.5,8.9-5.7,13.6-13.5,16.4
		c-2.2,0.8-4.2,2-6.4,2.7c-6.1,1.9-11.6,5.7-18.3,5.7c-1.5-3.4-3.9-1.2-6-0.9c-2.1,0.3-4.2,0.8-6.3,1.2c-1.1-1.5-1.7-0.5-2.3,0.5
		c-3.9,0.2-7.8,0.4-11.7,0.6c-2.3-1.7-4.6-1.5-7-0.2c-18.6-2.4-32.2-12.4-42.4-27.8c0.1-1.4,0.2-2.9,0.2-4.3
		c1.9-0.4,3.4,0.4,5.1,1.3c7.1,3.9,14.8,6.1,22.8,7.1c0.5,1,1,2.1,2.2,0.6c2.6,0.2,5.2,0.3,7.7,0.5c5.2,2.3,10.4,2.4,15.5-0.1
		c1.9-0.1,3.8-0.3,5.7-0.4C415.2,1403.3,415.7,1402.4,416.3,1401.4z"/>
	<path class="st111" d="M430.3,1423.7c6.7,0,12.2-3.8,18.3-5.7c2.2-0.7,4.2-1.9,6.4-2.7c7.8-2.8,13-7.5,13.5-16.4
		c0.3-5.9,1.7-11.8-0.7-17.5c6.1-4.7,11.8-10,16.5-16.1c1.6-2.1,2.9-1.3,3.5,0.8c2.9,8.8,6.6,17.5,0,26.4c-2,2.7-3.9,5.3-6.9,7
		c-2.6,1.5-5,3.2-7.5,4.8c-1.2,0.8-1.8,2-1.2,3.4c0.7,1.6,2.1,1,3.4,0.8c2.1-0.3,4.4-3.8,5.8-1.3c1.3,2.4-1.9,4.6-3.7,6.4
		c-8.8,8.8-17.6,17.7-26.4,26.4c-1.4,1.3-2.4,3.3-4.9,3c-2.4-2-4,0.3-5.8,1.1c-13.1,5.8-26,12.6-41.1,7.8
		c-2.9-5.4-3.4-11.6-5.4-17.3c-0.8-2.2,1-2.9,2.9-2.7c8.4,0.9,16.4-1.1,24.4-3.1C424.9,1427.9,428.4,1427.1,430.3,1423.7z"/>
	<path class="st99" d="M612.3,1400.4c11.4-1.6,21.9-6.2,32.4-10.7c5.2-2.2,10.1-4.9,15.1-7.3c1.4,1.4,1.1,2.9,0.8,4.6
		c-0.9,4.3-1.6,8.7-2.4,13c-0.2,0.6-0.3,1.1-0.5,1.7c-1.9,0.3-2.3,2.2-3.4,3.3c-1.8,1.9-4.4,4.3-6.7,3.2c-3.9-2.1-5.6,0.2-7.8,2.4
		c-0.3,0.4-0.6,0.9-0.9,1.3c0,0,0,0,0,0c-1.7-0.3-3.4-0.1-4.8,0.7c-12.7,6.5-26.3,7.2-40.1,6.6c-0.6-1.1-1.3-1.2-2-0.1
		c-21.7-2.1-36.6-14.1-47.2-32.5c-0.7-1.2-1.6-2.5-0.5-3.7c1.3-1.5,2.3,0.3,3.4,0.9c10.7,5.2,20.3,12.7,32.3,15.2
		c2.3,0.5,4.5,1,6.8,1.5c0.5,1,1.1,2,2.3,0.6c7,0,14,0,21,0C611.1,1402.3,611.7,1401.4,612.3,1400.4z"/>
	<path class="st81" d="M639.9,1410.6c2.1-2.2,3.8-4.4,7.8-2.4c2.3,1.2,4.8-1.2,6.7-3.2c1.1-1.1,1.5-3,3.4-3.3
		c1.3,2.3,3.2,2.6,5.5,1.6c4.6-1.8,9.3-3.6,13-7.1c0.8-0.8,1.8-1.8,3-0.9c1.1,0.8,0.2,1.9-0.3,2.6c-6.3,8.9-11.5,18.6-19.6,26.1
		c-1.7-1.9-3-0.2-4.3,0.5c-2.4,1.5-4.5,3.3-7,4.7c-10.9,5.8-21.9,10.7-34.8,8.9c-4.3-0.6-8.3-2.2-12.6-2.2c-2.6-3-5.8-5.8-7.7-9.2
		c-1.4-2.3,1.6-1.7,2.8-1.7c7.8-0.1,15.7,0.5,23.2-2.1c7.3-2.5,14.9-4.7,20.2-11c0,0,0,0,0,0
		C639.8,1411.8,640.9,1411.9,639.9,1410.6z"/>
	<path class="st61" d="M600.6,1435.9c4.3,0,8.4,1.6,12.6,2.2c13,1.8,24-3.1,34.8-8.9c2.5-1.3,4.6-3.2,7-4.7c1.3-0.8,2.6-2.5,4.3-0.5
		c-7.6,10.1-15.7,19.7-24.6,28.7c-7,7.1-13.9,7.2-21.1,0.2C608.4,1447.9,604.2,1442.1,600.6,1435.9z"/>
	<path class="st81" d="M658.2,1400.1c0.8-4.4,1.5-8.7,2.4-13c0.4-1.7,0.6-3.2-0.8-4.6c4.5-3.8,9.7-6.7,14.2-10.6
		c5.1-4.4,9.5-9.2,12.6-15.1c0.8-1.5,1.5-3.3,3.3-3.3c2.1,0,2.4,2.1,3,3.6c1.8,4.5,2.2,9.3-0.7,13.4
		C683.2,1382.8,671.8,1392.7,658.2,1400.1z"/>
	<path class="st61" d="M399.6,1451.9c15.1,4.8,28-2.1,41.1-7.8c1.8-0.8,3.4-3.1,5.8-1.1c-1.6,3.5-5,5.2-7.6,7.7
		c-5.4,5-10.6,10-16.1,14.9c-7.8,7-17.1,4.7-20.6-5.1C401.3,1457.7,400.5,1454.8,399.6,1451.9z"/>
	<path class="st107" d="M517.9,1317.6c3.9-3.8,3.8-9.2,6-13.7c2-4.2,2.6-9.2,7.1-12c-3.3,8-7.8,15.5-9.1,24.3
		C521.6,1318.5,519.6,1318,517.9,1317.6z"/>
	<path class="st107" d="M484,1314.9c1.1-3,3.9-3.5,6.1-2.6c5,1.9,10,3.3,15.3,4.1c0.3,0,0.5,0.8,0.7,1.2c-4.3,0.7-8.2-0.9-12-2.3
		C490.7,1314.1,487.4,1313.6,484,1314.9z"/>
	<path class="st111" d="M408.3,1402.4c-5.2,2.5-10.3,2.4-15.5,0.1C397.9,1401.7,403.1,1401.8,408.3,1402.4z"/>
	<path class="st107" d="M472.3,1360.3c-1.5-3.9-3-7.8-4.6-11.8c-0.5-1.2-1.2-2.4,0.1-3.5c1.9,4.1,2.9,8.7,5.4,12.6
		C474.1,1358.8,473.7,1359.8,472.3,1360.3z"/>
	<path class="st111" d="M397,1424.9c2.4-1.4,4.7-1.6,7,0.2C401.7,1426.3,399.3,1426.5,397,1424.9z"/>
	<path class="st107" d="M556,1267.9c0.7-1.2,1.4-2.5,2.1-3.7c0.8-0.1,1.6-0.3,1.9,0.8C559.7,1267.3,557.8,1267.5,556,1267.9z"/>
	<path class="st111" d="M354.9,1392.8c-0.1,1.4-0.2,2.9-0.2,4.3C351.9,1395.6,353,1394.2,354.9,1392.8z"/>
	<path class="st107" d="M531.3,1291.3c-0.4-2.1,0.6-3.1,2.6-3.4C533.9,1289.7,532.8,1290.7,531.3,1291.3z"/>
	<path class="st107" d="M534.2,1287.2c-0.2-2.1,0.8-3.1,2.8-3.3C536.9,1285.7,535.8,1286.7,534.2,1287.2z"/>
	<path class="st107" d="M469,1363.9c-0.2-0.6-0.3-1.3-0.5-1.9c0.8,0,1.7,0,2.5-0.1C470.9,1363.2,470.3,1363.9,469,1363.9z"/>
	<path class="st107" d="M546,1275c0-1.4,0.8-2.1,2.2-1.9C547.9,1274.2,547.2,1274.9,546,1275z"/>
	<path class="st107" d="M550,1271.9c0.1-1.4,0.9-2,2.3-1.8C551.9,1271.2,551.2,1271.9,550,1271.9z"/>
	<path class="st81" d="M589,1401c-1.2,1.4-1.7,0.4-2.3-0.6C587.7,1400,588.4,1400,589,1401z"/>
	<path class="st81" d="M612.3,1400.4c-0.6,1-1.2,1.9-2.3,0.5C610.6,1400,611.4,1400,612.3,1400.4z"/>
	<path class="st111" d="M385,1401.9c-1.2,1.4-1.7,0.4-2.2-0.6C383.7,1401,384.5,1401,385,1401.9z"/>
	<path class="st111" d="M416.3,1401.4c-0.6,1-1.1,1.9-2.3,0.5C414.6,1401,415.4,1401,416.3,1401.4z"/>
	<path class="st107" d="M553,1269.8c0.2-1.4,0.9-1.9,2.3-1.7C554.9,1269.2,554.2,1269.9,553,1269.8z"/>
	<path class="st81" d="M592,1419c0.7-1,1.4-1,2,0.1C593.3,1420,592.6,1419.9,592,1419z"/>
	<path class="st111" d="M415.8,1424.5c0.6-1,1.1-2,2.3-0.5C417.4,1424.9,416.7,1424.9,415.8,1424.5z"/>
	<path class="st106" d="M465.3,1335c-0.4-1.3,0.3-2,1.4-2.5C467.1,1333.9,466.7,1334.8,465.3,1335z"/>
	<path class="st103" d="M639.9,1410.6c1,1.3-0.1,1.3-0.9,1.3C639.2,1411.5,639.5,1411,639.9,1410.6z"/>
</g>
</svg>
