<?xml version="1.0" encoding="utf-8"?>
<!-- Generator: Adobe Illustrator 25.0.0, SVG Export Plug-In . SVG Version: 6.00 Build 0)  -->
<svg version="1.1" id="图层_1" xmlns="http://www.w3.org/2000/svg" xmlns:xlink="http://www.w3.org/1999/xlink" x="0px" y="0px"
	 viewBox="0 0 1200 1600" style="enable-background:new 0 0 1200 1600;" xml:space="preserve">
<style type="text/css">
	.st0{fill:#060604;}
	.st1{fill:#EDCF5D;}
	.st2{fill:#FBF1EE;}
	.st3{fill:#ECCF5D;}
	.st4{fill:#F4FB95;}
	.st5{fill:#A0918B;}
	.st6{fill:#FBFBFB;}
	.st7{fill:#927233;}
	.st8{fill:#935A40;}
	.st9{fill:#623C2A;}
	.st10{fill:#FEFEFE;}
	.st11{fill:#040302;}
	.st12{fill:#090805;}
	.st13{fill:#9C5B46;}
	.st14{fill:#070705;}
	.st15{fill:#ECCE5D;}
	.st16{fill:#F2F2F2;}
	.st17{fill:#93583F;}
	.st18{fill:#A1918B;}
	.st19{fill:#513123;}
	.st20{fill:#FAFAFA;}
	.st21{fill:#030202;}
	.st22{fill:#060605;}
	.st23{fill:#A0908A;}
	.st24{fill:#937234;}
	.st25{fill:#E6C95B;}
	.st26{fill:#864E37;}
	.st27{fill:#513124;}
	.st28{fill:#B0603E;}
	.st29{fill:#FAF0ED;}
	.st30{fill:#F9F9F9;}
	.st31{fill:#917133;}
	.st32{fill:#9E8F89;}
	.st33{fill:#E7CA5B;}
	.st34{fill:#92583F;}
	.st35{fill:#050503;}
	.st36{fill:#FCFBFB;}
	.st37{fill:#080704;}
	.st38{fill:#070605;}
	.st39{fill:#FAF1ED;}
	.st40{fill:#F4FA95;}
	.st41{fill:#F8F8F7;}
	.st42{fill:#90573E;}
	.st43{fill:#030302;}
	.st44{fill:#080805;}
	.st45{fill:#FBF1ED;}
	.st46{fill:#FBFBFA;}
	.st47{fill:#927234;}
	.st48{fill:#F69376;}
	.st49{fill:#7B2D2D;}
	.st50{fill:#FCFCFC;}
	.st51{fill:#EF5A2D;}
	.st52{fill:#F0CC2D;}
	.st53{fill:#9F8F8A;}
	.st54{fill:#FAFAF9;}
	.st55{fill:#F2A78E;}
	.st56{fill:#040403;}
	.st57{fill:#070604;}
	.st58{fill:#A0908B;}
	.st59{fill:#F7F7F7;}
	.st60{fill:#E8CB5B;}
	.st61{fill:#8F563E;}
	.st62{fill:#513224;}
	.st63{fill:#080705;}
	.st64{fill:#FCFCFB;}
	.st65{fill:#F9F8F8;}
	.st66{fill:#FAF0EC;}
	.st67{fill:#9F908A;}
	.st68{fill:#91573E;}
	.st69{fill:#070704;}
	.st70{fill:#F5FC96;}
	.st71{fill:#9C9C53;}
	.st72{fill:#9A9A52;}
	.st73{fill:#F2F994;}
	.st74{fill:#A17628;}
	.st75{fill:#90573F;}
	.st76{fill:#090806;}
	.st77{fill:#523123;}
	.st78{fill:#7C4031;}
	.st79{fill:#ED866D;}
	.st80{fill:#F3E9E6;}
	.st81{fill:#4F3023;}
	.st82{fill:#060606;}
	.st83{fill:#89533B;}
	.st84{fill:#050403;}
	.st85{fill:#090909;}
	.st86{fill:#EDCF5E;}
	.st87{fill:#050504;}
	.st88{fill:#060504;}
	.st89{fill:#955A41;}
	.st90{fill:#080703;}
	.st91{fill:#090807;}
	.st92{fill:#070603;}
	.st93{fill:#0A0905;}
	.st94{fill:#937335;}
	.st95{fill:#955A40;}
	.st96{fill:#955940;}
	.st97{fill:#EDD05E;}
	.st98{fill:#8F7032;}
	.st99{fill:#945940;}
	.st100{fill:#EED05E;}
	.st101{fill:#503123;}
	.st102{fill:#EEEEEE;}
	.st103{fill:#0D0C0A;}
	.st104{fill:#E3C659;}
	.st105{fill:#967535;}
	.st106{fill:#9D7D38;}
	.st107{fill:#745A29;}
	.st108{fill:#847334;}
	.st109{fill:#907134;}
	.st110{fill:#E5C85B;}
	.st111{fill:#503124;}
	.st112{fill:#927133;}
	.st113{fill:#E0DDD4;}
	.st114{fill:#987836;}
	.st115{fill:#977636;}
	.st116{fill:#CCC4A4;}
	.st117{fill:#523224;}
	.st118{fill:#0B0908;}
	.st119{fill:#8F7135;}
	.st120{fill:#050404;}
	.st121{fill:#EDD05D;}
	.st122{fill:#F3FA94;}
	.st123{fill:#9A9A51;}
	.st124{fill:#999951;}
	.st125{fill:#937334;}
	.st126{fill:#FAF0EE;}
	.st127{fill:#F3FA95;}
	.st128{fill:#989851;}
	.st129{fill:#A2792A;}
	.st130{fill:#F1F893;}
	.st131{fill:#A17729;}
	.st132{fill:#050502;}
	.st133{fill:#947335;}
	.st134{fill:#917233;}
	.st135{fill:#9B9B52;}
	.st136{fill:#F9EFEC;}
	.st137{fill:#9A782F;}
	.st138{fill:#979752;}
	.st139{fill:#F2F893;}
	.st140{fill:#8C8E4F;}
	.st141{fill:#B5B96E;}
	.st142{fill:#0F0F09;}
	.st143{fill:#9C9C52;}
	.st144{fill:#F5FB95;}
	.st145{fill:#F3F994;}
	.st146{fill:#A17728;}
	.st147{fill:#917134;}
	.st148{fill:#090706;}
	.st149{fill:#8E6F32;}
	.st150{fill:#93593F;}
	.st151{fill:#907033;}
	.st152{fill:#060505;}
	.st153{fill:#C8C3AF;}
	.st154{fill:#533324;}
	.st155{fill:#533426;}
	.st156{fill:#0E0C0A;}
	.st157{fill:#907133;}
	.st158{fill:#583627;}
	.st159{fill:#0A0907;}
	.st160{fill:#573526;}
	.st161{fill:#0C0B09;}
	.st162{fill:#503023;}
	.st163{fill:#543325;}
	.st164{fill:#B7B3A1;}
</style>
<g>
	<path class="st100" d="M362,1266c11.6-3.7,23.6-5.1,35.6-7.1c24.1-3.9,48.5-5.8,72.8-7.8c11.3-0.9,22.6-1.5,33.9-2
		c30.1-1.4,60.3-1.9,90.4-1c28.7,0.9,57.5,2.1,85.8,7.8c7.8,1.6,15.7,3,22.4,7.9c-0.7,1-1.3,2-2,3c-2.5,0-5.2-0.1-6.4,2.7
		c-1.1,2.5-0.4,4.8,1.4,6.9c6.9,8.1,13.8,16.2,20.5,24.4c13.2,16.2,20.7,34.2,17.8,55.7c-3,22.6-19.4,41.6-41.5,47.4
		c-2.6,0.7-5.7,0.4-7.7,2.8c-8,1.1-15.8-0.5-23.5-2.4c-35.7-8.9-68.9-23.8-100.8-42c-13.3-7.6-25.6-16.6-38.4-24.9
		c-5.4-4.3-11.1-8.3-16.2-12.9c-11.8-10.5-24.1-20.5-34.8-32.1c-2.7-2.9-6-3.8-9.4-1.4c-2.8,2-2.5,6.5,0.6,9.8
		c4.3,4.8,8.7,9.5,13.5,13.9c5.2,4.7,11.1,8.8,16,15c-11.5,0.2-22.1,1.1-32.7,2.7c-21.7,3.3-42.6,10-64,14.8
		c-15,3.4-29.6,8.7-43.4,15.9c-1-1.1-2-2.2-3-3.4c-16.7-19.7-35-37.5-58.9-48.5c-3.1-1.4-1.6-2.5-0.2-3.8
		c5.5-5.1,11.5-9.7,17.8-13.6c15-9.4,30.5-17.7,48.1-21.3C359.1,1271.9,362.9,1271,362,1266z"/>
	<path class="st120" d="M522.3,1337.4c12.8,8.3,25.1,17.4,38.4,24.9c31.9,18.1,65.1,33.1,100.8,42c7.7,1.9,15.5,3.5,23.5,2.4
		c0.9,1.4,2.4,1,3.6,1c8-0.2,16-0.7,23.8-2.4c15.9-3.5,26.3-13.1,31.9-28.5c4.7-13,6-26.2,3.4-39.7c-3.1-15.8-9.7-29.6-23.8-38.9
		c-6.5-4.4-12-10-17.2-15.9c-3.9-4.4-6.4-9.3-5.8-15.4c0.7-1,1.3-2,2-3c3.3-0.9,5.8,0.3,7.8,3c1.3,1.7,2.8,3.3,4,5.1
		c2.9,4.2,5.3,7.2,11.7,4.1c7.6-3.7,17.2-0.2,22.4,6.5c2.3,3,3.9,4.4,8.3,2.7c7.3-2.8,20.3,3.1,25.8,10.8c5,6.9,8.8,14.5,12.6,22.1
		c10.1,20.3,18.6,41.2,25.7,62.7c5.7,17.1-1.3,26.6-19.3,26.3c-7.8-0.1-15.1-2.4-22.1-5.5c-2.5-1.1-3.6-0.6-5.3,1.3
		c-7,7.6-14.6,14.6-24.1,19.1c-9.9,4.7-15.8,4.4-23.6-3.3c-4.2-4.1-7.4-5-13.2-2.9c-15.4,5.6-31.2,3.8-46.8,0.5
		c-28.9-6.1-55.5-18.1-81.7-31.4c-4.3-2.2-8.7-4.1-12.5-7.1c-4.2-3.3-9-2.8-14-3.1c-17.2-0.9-34.3-0.8-51.4-0.7
		c-13,0-25.8,2-38.7,3.5c-15.7,1.8-31.4,3.5-47,6.4c-16.6,3.1-32.6,8.1-48.8,12.4c-1.9,0.5-2.5,1.6-3,3.4c-2.1,8.2-7.3,14.5-13.5,20
		c-2.9,2.6-6.4,3.3-9.7,1c-2.8-2-3.5-0.5-4.7,1.5c-3.4,5.4-7.9,9.8-13.1,13.6c-4.9,3.5-9.9,4.1-15.5,1.8
		c-22.4-9.1-42.9-21.3-61.7-36.4c-11.2-9-22.7-17.6-32.6-27.9c-10.5-10.9-8.9-16.3,5.6-20.5c4-1.1,7.9-2.5,11.9-3.7
		c4-1.2,8-2.4,12.4-3.7c-5.5-7.9-2.6-15.4,1.4-22.8c2.6-4.8,5.3-9.6,8.2-14.3c3-4.8,6.1-6.1,11.4-4.1c3.4,1.3,5.2,0.8,8-1.9
		c20.1-20.5,44.3-33.7,72.3-39.9c4.4-1,8.9-0.7,12.1,3.4c0.9,5-2.9,5.9-6.3,6.6c-17.6,3.6-33.1,11.9-48.1,21.3
		c-6.4,4-12.3,8.5-17.8,13.6c-1.4,1.3-2.9,2.4,0.2,3.8c23.8,11,42.1,28.8,58.9,48.5c1,1.1,2,2.2,3,3.4c4.6,7.1,10,13.7,13.6,21.5
		c1.5,3.2,3,2.9,5.7,1.8c10.9-4.6,22.1-8.4,33.5-11.6c30.4-8.5,61.7-8.9,92.8-12c15-1.5,29.9-0.9,44.9-1c0.7,0,1.7,0.4,2-1
		c-0.7-0.6-1.5-1.2-2.3-1.8c-6.8-5.1-13.7-10.1-20.3-15.4C519.3,1341.9,517.1,1339.1,522.3,1337.4z M771,1302
		c-0.4-0.5-0.7-1-1.1-1.5c-2.3-2.4-5.7-2.6-8.4-4.1c-0.9-0.5-2-0.7-2.8,0c-1.2,1.1,0,2.2,0.5,3.1c1.7,3.4,3.5,6.8,4.3,10.6
		c0.6,2.9,0.8,5.6-2.4,6.7c-3.1,1-4.2-1.4-5.3-3.8c-3.9-8.1-9-15.5-15.4-21.9c-1.9-1.9-4.1-3.5-7.6-2.6c2.8,3,5,5.4,7.2,7.8
		c8.2,8.9,11.1,20.2,13.7,31.5c0.1,2.3,0.2,4.7,0.4,7c2.5,26.9-1.5,51.8-22.8,71.2c-0.9,0.8-1.9,1.6-0.5,2.8c3.4,2.8,6.7,5.6,11.6,4
		c6.5-2.1,12.8-4.7,18.4-8.7c10.3-7.4,13-17.8,12.3-29.8c-0.5-7.8-4.3-14.6-5.4-22.2c1.7,0.1,2.5,1.1,3.1,2.7
		c3.9,10.4,7.7,20.8,7.9,32.1c0.1,2.2,0.5,3.7,2.9,4.5c6,1.9,11.9,4,18.2,4.7c1.8,0,3.7,0.3,5.5,0.1c6.3-0.6,7.7-2.8,6-9
		c-0.2-0.8-0.5-1.6-0.8-2.4c-8.1-24-18.4-47.1-30.3-69.4C777.9,1310.4,775.7,1305.2,771,1302L771,1302z M332.1,1400.2
		c0.6-0.1,1.2-0.3,1.8-0.4c5.6,0.1,8,5.5,12.5,7.5c1.4,0.6,2.4,2,4.3,0.4c5.4-4.7,7.9-12.3,5.6-19.1c-1.9-5.6-4.4-11-8.3-15.6
		c-4.3-8-10.9-14.2-16.9-20.9c-13.6-15.1-29.9-26.4-48.8-33.9c-8.9-3.6-14.2-1.7-19,6.6c-1.5,2.6-2.9,5.3-4.2,7.9
		c-3.7,7.3-3.6,7.5,3.8,11.2c5.8,2.9,11.8,5.5,17.6,8.3c1.5,0.7,3.1,1.9,2.3,3.9c-1,2.3-2.8,1-4.3,0.5c-5.5-1.8-11-3.6-16.6-5.4
		c-1.6-0.5-3.2-0.9-4.9-0.2c-10.5,3.7-21,7.4-31.6,11.1c-2.5,0.9-2.8,1.9-0.9,3.7c3.8,3.5,7.6,7,12.2,9.4c3.3,4.3,8,6.9,12.1,10.1
		c19.4,15.4,40.4,28.2,62.9,38.5c7.4,3.4,8.7,3.2,14.4-2.5c2-2,3.8-4.3,6-6c3.6-2.9,4.6-5.7,1.3-9.5
		C332.2,1404.3,332,1402.2,332.1,1400.2z"/>
	<path class="st24" d="M522.3,1337.4c-5.1,1.8-2.9,4.5-0.5,6.5c6.6,5.3,13.5,10.3,20.3,15.4c0.8,0.6,1.6,1.2,2.3,1.8
		c-0.3,1.3-1.3,0.9-2,1c-15,0.1-30-0.5-44.9,1c-31.1,3.1-62.5,3.5-92.8,12c-11.4,3.2-22.6,6.9-33.5,11.6c-2.7,1.2-4.3,1.5-5.7-1.8
		c-3.6-7.7-9.1-14.3-13.6-21.5c13.8-7.2,28.4-12.5,43.4-15.9c21.4-4.8,42.3-11.5,64-14.8c10.6-1.6,21.3-2.6,32.7-2.7
		c-4.9-6.2-10.8-10.3-16-15c-4.8-4.4-9.2-9.1-13.5-13.9c-3-3.3-3.3-7.8-0.6-9.8c3.3-2.4,6.7-1.5,9.4,1.4
		c10.8,11.6,23.1,21.6,34.8,32.1C511.2,1329.1,516.8,1333.1,522.3,1337.4z"/>
	<path class="st7" d="M700.9,1266.9c-0.6,6.1,1.9,11,5.8,15.4c5.2,5.8,10.7,11.5,17.2,15.9c14,9.4,20.7,23.1,23.8,38.9
		c2.6,13.5,1.3,26.7-3.4,39.7c-5.6,15.4-16,25-31.9,28.5c-7.8,1.7-15.8,2.2-23.8,2.4c-1.3,0-2.7,0.4-3.6-1c2-2.4,5.1-2.1,7.7-2.8
		c22.1-5.7,38.4-24.8,41.5-47.4c2.9-21.5-4.6-39.5-17.8-55.7c-6.7-8.3-13.6-16.3-20.5-24.4c-1.8-2.1-2.5-4.4-1.4-6.9
		C695.7,1266.7,698.3,1266.8,700.9,1266.9z"/>
	<path class="st95" d="M236.8,1375.2c-4.6-2.4-8.4-6-12.2-9.4c-2-1.8-1.7-2.9,0.9-3.7c10.5-3.6,21.1-7.3,31.6-11.1
		c1.7-0.6,3.3-0.3,4.9,0.2c5.5,1.8,11.1,3.6,16.6,5.4c1.5,0.5,3.3,1.8,4.3-0.5c0.9-2-0.8-3.2-2.3-3.9c-5.8-2.9-11.8-5.5-17.6-8.3
		c-7.4-3.7-7.5-3.9-3.8-11.2c1.3-2.7,2.7-5.3,4.2-7.9c4.8-8.3,10-10.2,19-6.6c18.9,7.5,35.2,18.8,48.8,33.9
		c6,6.7,12.6,12.9,16.9,20.9c-6.8,7.9-10.3,17.4-14.1,26.8c-0.6,0.1-1.2,0.3-1.8,0.4c-2.8-4.4-7-7.5-10.5-11.2
		c-0.7-0.8-1.7-1.2-2.7-0.6c-1.2,0.8-1.1,2.1-0.5,3.1c0.8,1.4,1.7,2.8,2.8,4.1c2.7,3.1,5.5,6.2,8.3,9.3c1.1,1.2,1.8,2.4-0.3,2.9
		c-7.2,1.6-14.4,3.8-21.9,0.4c-21.7-9.8-43.1-20.1-64.4-30.7C240.9,1376.4,239.2,1374.9,236.8,1375.2z"/>
	<path class="st27" d="M753.8,1327.7c-2.6-11.4-5.6-22.6-13.7-31.5c-2.2-2.4-4.5-4.8-7.2-7.8c3.5-0.9,5.6,0.6,7.6,2.6
		c6.4,6.4,11.5,13.8,15.4,21.9c1.2,2.4,2.3,4.9,5.3,3.8c3.2-1.1,3-3.8,2.4-6.7c-0.8-3.8-2.6-7.1-4.3-10.6c-0.5-0.9-1.7-2-0.5-3.1
		c0.8-0.7,2-0.5,2.8,0c2.7,1.5,6.1,1.7,8.4,4.1c0.4,0.5,0.7,1,1.1,1.5c0,0,0-0.1,0-0.1c-0.3,2.2,0.9,3.8,1.8,5.6
		c11.9,23,20.2,47.3,26.6,72.3c1.4,5.3,2.6,10.7,0.6,16.1c-6.3-0.7-12.2-2.8-18.2-4.7c-2.4-0.8-2.9-2.3-2.9-4.5
		c-0.3-11.3-4-21.7-7.9-32.1c-0.6-1.6-1.4-2.6-3.1-2.7c-3-5.1-3.6-11-5.1-16.5C761.4,1330.5,758.8,1328,753.8,1327.7z"/>
	<path class="st99" d="M753.8,1327.7c4.9,0.3,7.6,2.8,8.9,7.7c1.5,5.6,2.2,11.4,5.1,16.5c1.1,7.6,4.9,14.5,5.4,22.2
		c0.8,12-2,22.4-12.3,29.8c-5.6,4-11.9,6.6-18.4,8.7c-4.9,1.6-8.3-1.2-11.6-4c-1.4-1.2-0.4-2,0.5-2.8c21.3-19.3,25.2-44.2,22.8-71.2
		C754.1,1332.4,754,1330,753.8,1327.7z"/>
	<path class="st27" d="M236.8,1375.2c2.4-0.4,4.1,1.2,6,2.1c21.3,10.7,42.7,21,64.4,30.7c7.5,3.4,14.7,1.2,21.9-0.4
		c2.1-0.5,1.4-1.7,0.3-2.9c-2.8-3.1-5.6-6.1-8.3-9.3c-1.1-1.2-2-2.6-2.8-4.1c-0.6-1-0.7-2.4,0.5-3.1c1-0.6,2-0.1,2.7,0.6
		c3.5,3.8,7.8,6.8,10.5,11.2c-0.1,2,0.1,4.1,1.5,5.7c3.3,3.8,2.3,6.6-1.3,9.5c-2.2,1.7-4,4-6,6c-5.7,5.7-7,5.9-14.4,2.5
		c-22.5-10.3-43.5-23.1-62.9-38.5C244.9,1382.1,240.1,1379.5,236.8,1375.2z"/>
	<path class="st42" d="M800,1395.8c1.9-5.5,0.7-10.8-0.6-16.1c-6.4-25-14.7-49.3-26.6-72.3c-0.9-1.8-2.1-3.4-1.8-5.6
		c4.7,3.3,6.9,8.5,9.4,13.3c11.9,22.4,22.3,45.4,30.3,69.4c0.3,0.8,0.5,1.6,0.8,2.4c1.7,6.2,0.3,8.3-6,9
		C803.7,1396.1,801.9,1395.9,800,1395.8z"/>
	<path class="st19" d="M333.9,1399.8c3.8-9.4,7.4-19,14.1-26.8c4,4.6,6.4,10,8.3,15.6c2.3,6.9-0.2,14.5-5.6,19.1
		c-1.9,1.6-2.9,0.2-4.3-0.4C341.9,1405.3,339.5,1399.9,333.9,1399.8z"/>
	<path class="st42" d="M771,1302c-0.4-0.5-0.7-1-1.1-1.5C770.3,1300.9,770.7,1301.4,771,1302z"/>
</g>
</svg>
