<?xml version="1.0" encoding="utf-8"?>
<!-- Generator: Adobe Illustrator 25.0.0, SVG Export Plug-In . SVG Version: 6.00 Build 0)  -->
<svg version="1.1" id="图层_1" xmlns="http://www.w3.org/2000/svg" xmlns:xlink="http://www.w3.org/1999/xlink" x="0px" y="0px"
	 viewBox="0 0 1200 1600" style="enable-background:new 0 0 1200 1600;" xml:space="preserve">
<style type="text/css">
	.st0{fill:#060604;}
	.st1{fill:#EDCF5D;}
	.st2{fill:#FBF1EE;}
	.st3{fill:#ECCF5D;}
	.st4{fill:#F4FB95;}
	.st5{fill:#A0918B;}
	.st6{fill:#FBFBFB;}
	.st7{fill:#927233;}
	.st8{fill:#935A40;}
	.st9{fill:#623C2A;}
	.st10{fill:#FEFEFE;}
	.st11{fill:#040302;}
	.st12{fill:#090805;}
	.st13{fill:#9C5B46;}
	.st14{fill:#070705;}
	.st15{fill:#ECCE5D;}
	.st16{fill:#F2F2F2;}
	.st17{fill:#93583F;}
	.st18{fill:#A1918B;}
	.st19{fill:#513123;}
	.st20{fill:#FAFAFA;}
	.st21{fill:#030202;}
	.st22{fill:#060605;}
	.st23{fill:#A0908A;}
	.st24{fill:#937234;}
	.st25{fill:#E6C95B;}
	.st26{fill:#864E37;}
	.st27{fill:#513124;}
	.st28{fill:#B0603E;}
	.st29{fill:#FAF0ED;}
	.st30{fill:#F9F9F9;}
	.st31{fill:#917133;}
	.st32{fill:#9E8F89;}
	.st33{fill:#E7CA5B;}
	.st34{fill:#92583F;}
	.st35{fill:#050503;}
	.st36{fill:#FCFBFB;}
	.st37{fill:#080704;}
	.st38{fill:#070605;}
	.st39{fill:#FAF1ED;}
	.st40{fill:#F4FA95;}
	.st41{fill:#F8F8F7;}
	.st42{fill:#90573E;}
	.st43{fill:#030302;}
	.st44{fill:#080805;}
	.st45{fill:#FBF1ED;}
	.st46{fill:#FBFBFA;}
	.st47{fill:#927234;}
	.st48{fill:#F69376;}
	.st49{fill:#7B2D2D;}
	.st50{fill:#FCFCFC;}
	.st51{fill:#EF5A2D;}
	.st52{fill:#F0CC2D;}
	.st53{fill:#9F8F8A;}
	.st54{fill:#FAFAF9;}
	.st55{fill:#F2A78E;}
	.st56{fill:#040403;}
	.st57{fill:#070604;}
	.st58{fill:#A0908B;}
	.st59{fill:#F7F7F7;}
	.st60{fill:#E8CB5B;}
	.st61{fill:#8F563E;}
	.st62{fill:#513224;}
	.st63{fill:#080705;}
	.st64{fill:#FCFCFB;}
	.st65{fill:#F9F8F8;}
	.st66{fill:#FAF0EC;}
	.st67{fill:#9F908A;}
	.st68{fill:#91573E;}
	.st69{fill:#070704;}
	.st70{fill:#F5FC96;}
	.st71{fill:#9C9C53;}
	.st72{fill:#9A9A52;}
	.st73{fill:#F2F994;}
	.st74{fill:#A17628;}
	.st75{fill:#90573F;}
	.st76{fill:#090806;}
	.st77{fill:#523123;}
	.st78{fill:#7C4031;}
	.st79{fill:#ED866D;}
	.st80{fill:#F3E9E6;}
	.st81{fill:#4F3023;}
	.st82{fill:#060606;}
	.st83{fill:#89533B;}
	.st84{fill:#050403;}
	.st85{fill:#090909;}
	.st86{fill:#EDCF5E;}
	.st87{fill:#050504;}
	.st88{fill:#060504;}
	.st89{fill:#955A41;}
	.st90{fill:#080703;}
	.st91{fill:#090807;}
	.st92{fill:#070603;}
	.st93{fill:#0A0905;}
	.st94{fill:#937335;}
	.st95{fill:#955A40;}
	.st96{fill:#955940;}
	.st97{fill:#EDD05E;}
	.st98{fill:#8F7032;}
	.st99{fill:#945940;}
	.st100{fill:#EED05E;}
	.st101{fill:#503123;}
	.st102{fill:#EEEEEE;}
	.st103{fill:#0D0C0A;}
	.st104{fill:#E3C659;}
	.st105{fill:#967535;}
	.st106{fill:#9D7D38;}
	.st107{fill:#745A29;}
	.st108{fill:#847334;}
	.st109{fill:#907134;}
	.st110{fill:#E5C85B;}
	.st111{fill:#503124;}
	.st112{fill:#927133;}
	.st113{fill:#E0DDD4;}
	.st114{fill:#987836;}
	.st115{fill:#977636;}
	.st116{fill:#CCC4A4;}
	.st117{fill:#523224;}
	.st118{fill:#0B0908;}
	.st119{fill:#8F7135;}
	.st120{fill:#050404;}
	.st121{fill:#EDD05D;}
	.st122{fill:#F3FA94;}
	.st123{fill:#9A9A51;}
	.st124{fill:#999951;}
	.st125{fill:#937334;}
	.st126{fill:#FAF0EE;}
	.st127{fill:#F3FA95;}
	.st128{fill:#989851;}
	.st129{fill:#A2792A;}
	.st130{fill:#F1F893;}
	.st131{fill:#A17729;}
	.st132{fill:#050502;}
	.st133{fill:#947335;}
	.st134{fill:#917233;}
	.st135{fill:#9B9B52;}
	.st136{fill:#F9EFEC;}
	.st137{fill:#9A782F;}
	.st138{fill:#979752;}
	.st139{fill:#F2F893;}
	.st140{fill:#8C8E4F;}
	.st141{fill:#B5B96E;}
	.st142{fill:#0F0F09;}
	.st143{fill:#9C9C52;}
	.st144{fill:#F5FB95;}
	.st145{fill:#F3F994;}
	.st146{fill:#A17728;}
	.st147{fill:#917134;}
	.st148{fill:#090706;}
	.st149{fill:#8E6F32;}
	.st150{fill:#93593F;}
	.st151{fill:#907033;}
	.st152{fill:#060505;}
	.st153{fill:#C8C3AF;}
	.st154{fill:#533324;}
	.st155{fill:#533426;}
	.st156{fill:#0E0C0A;}
	.st157{fill:#907133;}
	.st158{fill:#583627;}
	.st159{fill:#0A0907;}
	.st160{fill:#573526;}
	.st161{fill:#0C0B09;}
	.st162{fill:#503023;}
	.st163{fill:#543325;}
	.st164{fill:#B7B3A1;}
</style>
<g>
	<path class="st3" d="M636.1,1051c0.6-20.8,7.7-39.5,17.8-57.4c6.5-11.5,15.3-20.4,26.5-27.1c10.6,12.1,20.9,24.6,30.5,37.6
		c28.9,39.6,52.4,82.6,79.1,123.6c2.2,3.4-0.2,3.9-2.3,4.9c-27.2,12.9-54.6,25.5-82.6,36.6c-2.1,0.8-3.2,0.8-4.2-1.5
		c-12.4-27.5-26.6-54.1-40.8-80.6C653.1,1074.3,644.9,1062.5,636.1,1051z"/>
	<path class="st161" d="M636.1,1051c8.8,11.5,17,23.3,23.9,36.1c14.3,26.5,28.4,53.1,40.8,80.6c1.1,2.3,2.1,2.3,4.2,1.5
		c28-11.1,55.4-23.7,82.6-36.6c2.1-1,4.5-1.5,2.3-4.9c-26.7-41-50.2-84.1-79.1-123.6c-9.5-13-19.8-25.4-30.5-37.6
		c-0.4-1.8-2.4-3.9,0.1-5.3c2.1-1.3,3.8,0.6,5.2,1.9c12.2,10.7,22.7,23,32.4,35.9c21,27.8,39.2,57.5,56.8,87.6
		c7.6,12.9,15.7,25.5,23.5,38.3c1.3,2.2,2.7,1.7,4.6,1.1c8.3-2.8,9.2-2.2,12.5,5.9c4.8,11.7,9.9,23.3,11.9,35.9
		c0.2,1.5,1.4,3,2.5,4.2c6.3,7.1,12.7,14.1,19.2,21c11.3,12,11,23.1-1.4,34c-2.5,2.2-4.1,4.4-4.7,7.7c-0.5,3-2.5,5.5-4.5,7.7
		c-7.9,8.6-15.5,17.6-28,19.6c-1.1,0.2-2,0.6-2.2,1.7c-1,5-4.9,7.4-8.7,9.7c-9.7,6.1-20.3,10-31.8,11.1c-12.3,1.2-18-3.2-20-15.3
		c-0.2-1.1,0.1-2.6-1.1-3.1c-1.6-0.8-2.3,0.9-3.2,1.8c-4.3,4.2-8.8,8.1-14.5,10.4c-7.2,3-13.9,2.6-20.4-1.8
		c-7.6-5.2-13.1-12.3-17.5-20.2c-2.6-4.7-2.4-9.5,0.3-14.3c3.6-6.6,8.3-12.5,12.5-18.7c1.7-2.6,2-4.4,0.1-7.1
		c-6-8.8-11-18.3-16.1-27.6c-4.1-7.4-4.1-8,3-12.8c2-1.4,2.6-2.2,1.4-4.7c-15.4-29.9-30.8-59.8-46-89.8c-3.9-7.6-9.4-14.2-12.6-22.1
		C632.4,1056.2,630.7,1052.4,636.1,1051z M824.4,1182.7c-0.5-1.2-1-2.5-1.4-3.7c-3.8-13.5-8.9-26.5-14.5-39.3
		c-1.3-3.1-2.7-3.8-5.9-2.3c-34.2,16.4-68.9,31.9-104.7,44.6c-2.8,1-3.7,2-1.8,5c5.8,9.1,11.2,18.5,17,27.7c2.7,4.2,2.8,8-0.2,12
		c-4,5.3-8,10.6-12,16c-4.1,5.6-4.2,7.8-0.2,13.5c2.2,3.1,4.9,5.9,7.4,8.8c8.9,10.3,20,7.8,29.4-4.6c6.1-3.2,8.9-8.6,9.6-15.2
		c4.3,0.2,5,3.7,6,6.8c2.3,6.6,0.8,13.9,3.9,20.3c0.8,2.9,3.3,2.8,5.6,2.9c12.5,0.5,23.3-4.1,33.5-10.7c3-1.9,3.4-4.6,2.7-7.8
		c-1-4.5-1.8-9-2.7-13.6c-0.2-1.3-0.1-2.7-1.8-3.1c-0.4-1.4,1-2.7,0.1-4.3c-0.9-1.5-0.1-2.9,1.7-3.4c1.7-0.5,2.6,0.4,3.2,2.1
		c1.8,5,3.8,9.8,5.8,14.7c2.3,5.8,4.8,6.7,10,3.3c4.6-3,9-6.3,12.5-10.6c2.7-3.3,7.3-6.1,6.5-11.2c-0.8-5.2-2.1-10.3-5.8-14.5
		c-0.2-1.5-0.2-3.1,1.5-3.8c1.7-0.6,2.8,0.3,3.8,1.6c0.7,0.9,1.6,1.7,2.4,2.5c1.8,1.8,2.3,6,6.2,3.9c6.3-3.4,7.7-13.5,2.3-18.3
		c-5.8-5.2-11-10.9-16.4-16.4C826.8,1184.4,825.5,1183.6,824.4,1182.7z"/>
	<path class="st95" d="M835.8,1216.3c-0.8-0.8-1.7-1.6-2.4-2.5c-1-1.3-2.1-2.2-3.8-1.6c-1.8,0.7-1.7,2.2-1.5,3.8
		c-3.9,2.6-2.3,5.8-0.7,8.6c1.4,2.5,1.2,4.2-0.7,6.5c-5.4,6.8-12.4,11.8-18.9,17.3c-0.6,0.5-1.9,0.3-2.8,0.5
		c-1.9-4.9-4-9.8-5.8-14.7c-0.6-1.7-1.5-2.6-3.2-2.1c-1.7,0.5-2.5,1.9-1.7,3.4c0.9,1.6-0.5,2.9-0.1,4.3c-0.1,3.8-0.4,7.7-0.2,11.5
		c0.2,3.2-0.9,5.1-3.8,6.7c-10.6,6-21.8,10.4-33.4,14.1c-3.1-6.4-1.6-13.7-3.9-20.3c-1.1-3.1-1.7-6.6-6-6.8c-5.3-2.6-7.8-1.5-8.7,4
		c-0.6,3.7-0.6,7.5-0.9,11.3c-9.4,12.4-20.4,14.9-29.4,4.6c-2.5-2.9-5.1-5.7-7.4-8.8c-4-5.6-4-7.8,0.2-13.5c3.9-5.4,8-10.7,12-16
		c3-4,2.9-7.7,0.2-12c-5.8-9.1-11.2-18.5-17-27.7c-1.9-3-1-4,1.8-5c35.8-12.7,70.5-28.1,104.7-44.6c3.2-1.6,4.6-0.8,5.9,2.3
		c5.6,12.8,10.7,25.8,14.5,39.3c0.4,1.3,0.9,2.5,1.4,3.7c-0.8,2.4,0.4,4.2,1.8,5.9c4.6,5.6,9.3,11.2,13.9,16.8
		C843.9,1210.1,842.2,1214.6,835.8,1216.3z"/>
	<path class="st101" d="M756.9,1272.1c11.6-3.6,22.8-8,33.4-14.1c2.9-1.7,3.9-3.5,3.8-6.7c-0.2-3.8,0.1-7.6,0.2-11.5
		c1.7,0.4,1.6,1.8,1.8,3.1c0.8,4.5,1.7,9.1,2.7,13.6c0.7,3.2,0.3,5.9-2.7,7.8c-10.2,6.5-21,11.2-33.5,10.7
		C760.2,1274.9,757.7,1275,756.9,1272.1z"/>
	<path class="st162" d="M805,1248.9c1-0.1,2.2,0.1,2.8-0.5c6.5-5.6,13.4-10.6,18.9-17.3c1.9-2.4,2.1-4,0.7-6.5
		c-1.6-2.9-3.2-6.1,0.7-8.6c3.7,4.1,4.9,9.3,5.8,14.5c0.8,5.1-3.7,7.9-6.5,11.2c-3.4,4.2-7.9,7.6-12.5,10.6
		C809.8,1255.6,807.3,1254.7,805,1248.9z"/>
	<path class="st81" d="M835.8,1216.3c6.4-1.6,8.1-6.2,4.3-10.9c-4.6-5.6-9.3-11.2-13.9-16.8c-1.4-1.7-2.6-3.5-1.8-5.9
		c1.2,0.9,2.4,1.7,3.5,2.8c5.4,5.5,10.6,11.2,16.4,16.4c5.4,4.8,4,14.9-2.3,18.3C838.1,1222.3,837.6,1218,835.8,1216.3z"/>
	<path class="st27" d="M737.4,1260.2c0.3-3.8,0.3-7.6,0.9-11.3c0.9-5.5,3.4-6.5,8.7-4C746.2,1251.6,743.5,1257,737.4,1260.2z"/>
</g>
</svg>
