<?xml version="1.0" encoding="utf-8"?>
<!-- Generator: Adobe Illustrator 25.0.0, SVG Export Plug-In . SVG Version: 6.00 Build 0)  -->
<svg version="1.1" id="图层_1" xmlns="http://www.w3.org/2000/svg" xmlns:xlink="http://www.w3.org/1999/xlink" x="0px" y="0px"
	 viewBox="0 0 1200 1600" style="enable-background:new 0 0 1200 1600;" xml:space="preserve">
<style type="text/css">
	.st0{fill:#060604;}
	.st1{fill:#EDCF5D;}
	.st2{fill:#FBF1EE;}
	.st3{fill:#ECCF5D;}
	.st4{fill:#F4FB95;}
	.st5{fill:#A0918B;}
	.st6{fill:#FBFBFB;}
	.st7{fill:#927233;}
	.st8{fill:#935A40;}
	.st9{fill:#623C2A;}
	.st10{fill:#FEFEFE;}
	.st11{fill:#040302;}
	.st12{fill:#090805;}
	.st13{fill:#9C5B46;}
	.st14{fill:#070705;}
	.st15{fill:#ECCE5D;}
	.st16{fill:#F2F2F2;}
	.st17{fill:#93583F;}
	.st18{fill:#A1918B;}
	.st19{fill:#513123;}
	.st20{fill:#FAFAFA;}
	.st21{fill:#030202;}
	.st22{fill:#060605;}
	.st23{fill:#A0908A;}
	.st24{fill:#937234;}
	.st25{fill:#E6C95B;}
	.st26{fill:#864E37;}
	.st27{fill:#513124;}
	.st28{fill:#B0603E;}
	.st29{fill:#FAF0ED;}
	.st30{fill:#F9F9F9;}
	.st31{fill:#917133;}
	.st32{fill:#9E8F89;}
	.st33{fill:#E7CA5B;}
	.st34{fill:#92583F;}
	.st35{fill:#050503;}
	.st36{fill:#FCFBFB;}
	.st37{fill:#080704;}
	.st38{fill:#070605;}
	.st39{fill:#FAF1ED;}
	.st40{fill:#F4FA95;}
	.st41{fill:#F8F8F7;}
	.st42{fill:#90573E;}
	.st43{fill:#030302;}
	.st44{fill:#080805;}
	.st45{fill:#FBF1ED;}
	.st46{fill:#FBFBFA;}
	.st47{fill:#927234;}
	.st48{fill:#F69376;}
	.st49{fill:#7B2D2D;}
	.st50{fill:#FCFCFC;}
	.st51{fill:#EF5A2D;}
	.st52{fill:#F0CC2D;}
	.st53{fill:#9F8F8A;}
	.st54{fill:#FAFAF9;}
	.st55{fill:#F2A78E;}
	.st56{fill:#040403;}
	.st57{fill:#070604;}
	.st58{fill:#A0908B;}
	.st59{fill:#F7F7F7;}
	.st60{fill:#E8CB5B;}
	.st61{fill:#8F563E;}
	.st62{fill:#513224;}
	.st63{fill:#080705;}
	.st64{fill:#FCFCFB;}
	.st65{fill:#F9F8F8;}
	.st66{fill:#FAF0EC;}
	.st67{fill:#9F908A;}
	.st68{fill:#91573E;}
	.st69{fill:#070704;}
	.st70{fill:#F5FC96;}
	.st71{fill:#9C9C53;}
	.st72{fill:#9A9A52;}
	.st73{fill:#F2F994;}
	.st74{fill:#A17628;}
	.st75{fill:#90573F;}
	.st76{fill:#090806;}
	.st77{fill:#523123;}
	.st78{fill:#7C4031;}
	.st79{fill:#ED866D;}
	.st80{fill:#F3E9E6;}
	.st81{fill:#4F3023;}
	.st82{fill:#060606;}
	.st83{fill:#89533B;}
	.st84{fill:#050403;}
	.st85{fill:#090909;}
	.st86{fill:#EDCF5E;}
	.st87{fill:#050504;}
	.st88{fill:#060504;}
	.st89{fill:#955A41;}
	.st90{fill:#080703;}
	.st91{fill:#090807;}
	.st92{fill:#070603;}
	.st93{fill:#0A0905;}
	.st94{fill:#937335;}
	.st95{fill:#955A40;}
	.st96{fill:#955940;}
	.st97{fill:#EDD05E;}
	.st98{fill:#8F7032;}
	.st99{fill:#945940;}
	.st100{fill:#EED05E;}
	.st101{fill:#503123;}
	.st102{fill:#EEEEEE;}
	.st103{fill:#0D0C0A;}
	.st104{fill:#E3C659;}
	.st105{fill:#967535;}
	.st106{fill:#9D7D38;}
	.st107{fill:#745A29;}
	.st108{fill:#847334;}
	.st109{fill:#907134;}
	.st110{fill:#E5C85B;}
	.st111{fill:#503124;}
	.st112{fill:#927133;}
	.st113{fill:#E0DDD4;}
	.st114{fill:#987836;}
	.st115{fill:#977636;}
	.st116{fill:#CCC4A4;}
	.st117{fill:#523224;}
	.st118{fill:#0B0908;}
	.st119{fill:#8F7135;}
	.st120{fill:#050404;}
	.st121{fill:#EDD05D;}
	.st122{fill:#F3FA94;}
	.st123{fill:#9A9A51;}
	.st124{fill:#999951;}
	.st125{fill:#937334;}
	.st126{fill:#FAF0EE;}
	.st127{fill:#F3FA95;}
	.st128{fill:#989851;}
	.st129{fill:#A2792A;}
	.st130{fill:#F1F893;}
	.st131{fill:#A17729;}
	.st132{fill:#050502;}
	.st133{fill:#947335;}
	.st134{fill:#917233;}
	.st135{fill:#9B9B52;}
	.st136{fill:#F9EFEC;}
	.st137{fill:#9A782F;}
	.st138{fill:#979752;}
	.st139{fill:#F2F893;}
	.st140{fill:#8C8E4F;}
	.st141{fill:#B5B96E;}
	.st142{fill:#0F0F09;}
	.st143{fill:#9C9C52;}
	.st144{fill:#F5FB95;}
	.st145{fill:#F3F994;}
	.st146{fill:#A17728;}
	.st147{fill:#917134;}
	.st148{fill:#090706;}
	.st149{fill:#8E6F32;}
	.st150{fill:#93593F;}
	.st151{fill:#907033;}
	.st152{fill:#060505;}
	.st153{fill:#C8C3AF;}
	.st154{fill:#533324;}
	.st155{fill:#533426;}
	.st156{fill:#0E0C0A;}
	.st157{fill:#907133;}
	.st158{fill:#583627;}
	.st159{fill:#0A0907;}
	.st160{fill:#573526;}
	.st161{fill:#0C0B09;}
	.st162{fill:#503023;}
	.st163{fill:#543325;}
	.st164{fill:#B7B3A1;}
</style>
<g>
	<path class="st1" d="M639.6,1007.1c10.1-16.7,24.8-27.3,43.7-31.4c8.4-1.8,17.5-2.8,25.6,2.4c-1.8,4.4,0.2,8.1,1.9,11.9
		c10.7,24.6,13.7,50,8.1,76.2c-6.7,31.5-22.2,57.3-50.4,74.1c-29.5,17.6-67,14.4-90.3-7c-0.5-0.4-1-0.8-1.5-1.3l0.1,0.1
		c-0.1-0.7-0.5-1-1.2-1l0.1,0.1c0-0.7-0.4-1.1-1.1-1l-0.1-0.3l0,0.3c0-1.4-0.5-2.2-2-1.9l-0.1-0.1c0.3-1.5-0.3-2.1-1.9-1.9l-0.1-0.2
		c0.2-0.8,0-1-0.8-0.8l-0.2-0.2c0.3-0.8-0.1-1.1-0.8-0.9l0-0.1c0.1-0.8-0.2-1.1-0.9-1l0.2-0.3l-0.1,0.3c0.1-0.7-0.3-1.1-1-1.1
		l0.1,0.1c0-0.7-0.3-1.1-1-1.2l0.1,0.1c-0.4-0.5-0.8-1-1.2-1.5c-6.2-7-10.8-14.9-14-23.6c14.9-6.9,29.8-14,44.8-20.7
		c13-5.9,26.2-11.5,39.3-17.2c3.2-1.4,5.8-3.3,6-7.2c6.2-3.2,7.2-5.5,5.7-12.4C644.3,1028,641.9,1017.6,639.6,1007.1z"/>
	<path class="st87" d="M550.7,1096c3.2,8.7,7.8,16.7,14,23.6c0.1,0.8,0.3,1.4,1.2,1.5c0,0-0.1-0.1-0.1-0.1c0,0.7,0.3,1.1,1,1.2
		c0,0-0.1-0.1-0.1-0.1c0,0.6,0.3,1,1,1.1l0.1-0.3c0,0-0.2,0.3-0.2,0.3c0.3,0.3,0.6,0.7,0.9,1c0,0,0,0.1,0,0.1
		c0.3,0.3,0.5,0.6,0.8,0.9c0,0,0.2,0.2,0.2,0.2c0.3,0.3,0.5,0.5,0.8,0.8c0,0,0.1,0.2,0.2,0.2c0.3,1,0.9,1.6,1.9,1.9
		c0,0,0.1,0.1,0.1,0.1c0.3,1,1,1.6,2,1.9l0-0.3c0,0,0.1,0.3,0.1,0.3c0.4,0.3,0.7,0.6,1.1,1c0,0-0.1-0.1-0.1-0.1
		c0.4,0.3,0.8,0.7,1.2,1c0,0-0.1-0.1-0.1-0.1c0.2,0.8,0.8,1.1,1.5,1.3c23.3,21.5,60.8,24.6,90.3,7c28.2-16.8,43.7-42.7,50.4-74.1
		c5.6-26.2,2.6-51.6-8.1-76.2c-1.7-3.8-3.6-7.6-1.9-11.9c5-3.1,7.8,0.2,10.1,3.9c4.9,8,8.3,16.7,10.4,25.8
		c10.7,46.5,1.7,88.7-30.9,123.9c-47.8,51.5-123.8,39.3-154.5-24c-5.8-12-9.4-24.5-10.5-37.7c-0.2-2.9-1.1-4.2-4.2-4.7
		c-8.5-1.4-10.8-4.3-11.4-13c-0.4-6-0.7-12-1-18c-0.4-7.7-1.8-15-5.4-22c-7-13.8-14.6-27.3-17.8-42.7c-2.2-10.3-3.1-20.4,0.8-30.8
		c3.6-9.6,10.4-14.8,19.6-17.5c2.5-0.7,3.7-1.7,4.4-4.4c2.8-11.1,11.5-16.3,21.3-19.8c3.5-1.3,4.6-2,2.5-5.9
		c-7.9-14.6-14.7-29.8-18.6-46.1c-3.3-13.5,0.1-24.2,10.6-33c5.3-4.4,11.1-8,17.6-10.2c13.9-4.7,26-0.1,33.1,12.7
		c4.8,8.6,7.3,18.2,10,27.6c0.4,1.3,0.3,2.7,1.8,3.9c1.8-5.3,3.5-10.4,5.2-15.5c2.1-6.3,4.9-12.4,8.4-18c5-8,12.3-12.4,21.5-13.8
		c6.8-1.1,13.6-0.5,20.3,0.9c9.8,2.1,15.1,8.4,17,18c2.2,11-0.1,21.5-2.7,32.1c-3.5,14.1-9.9,27.2-14.7,40.8c-0.5,1.4-1,2.8-1.8,5
		c2.9-0.4,5.2-0.8,7.5-1.1c9.2-1,18.3-0.7,26.9,3.4c19.5,9.4,25.1,34.4,11.7,51.3c-4.7,5.9-11.1,8.2-18.3,8.9
		c-6.5,0.6-12.9,1.2-19.4,1.8c-6.5,0.6-11,4.1-14.4,9.6c-4.7,7.6-6.6,16.3-9.7,24.5c-0.6,1.5,0,2.6,0.8,3.7c2,2.9,3.3,6.1,4.5,9.4
		c2.3,10.5,4.7,20.9,7,31.4c1.5,6.9,0.4,9.2-5.7,12.4c-1.1,0.2-2.3,0.3-3.4,0.5c-19.3,3.4-38.2,8.9-57.7,10.9
		c-11.7,1.2-23.5,2.3-35.2,3.5c-1.8,0.2-3.9-0.3-3.1,2.9C544,1078,546,1087.4,550.7,1096z M683,943.8c6.1-2.6,7.5-8.3,8-13.8
		c1.3-13.3-8.4-23.2-23-23.9c-9.4-0.5-18.3,0.9-26,6.8c-2.6,2-5.5,2.7-8.2,0.3c-2.8-2.4-2.2-5.3-1.1-8.3c0.6-1.6,1.5-3,2.1-4.5
		c7.5-20.3,17.1-39.8,21.6-61.1c1.4-6.9,2.5-13.8,0.4-20.7c-0.8-2.9-2.1-5.5-5.2-6.3c-13.2-3.5-27.9-4.3-35.1,12.3
		c-7.9,18.1-13.9,36.7-13.6,56.8c0,2.8-0.5,5.3-2.3,7.4c-2.1,0.9-4.2,1.3-6.4,1.1c-2.5-2.2-3.4-5.1-4-8.3c-1.4-8-2.7-16.1-4.3-24
		c-2.6-12.6-5.3-25.1-11.3-36.6c-4.2-8-10.7-10.5-19.2-7.8c-6.6,2.1-12.3,5.7-17.2,10.7c-4.4,4.6-5.9,9.7-4.6,16
		c3.8,19.3,12.8,36.3,22.9,52.9c4.3,7.1,3,11-5.1,13c-5.5,1.4-10.9,3-15.7,6.3c-3.4,2.3-6,5.2-6.5,9.6c-0.9,7.7-1.3,7.9-8.9,9.4
		c-5.8,1.1-11.6,2.5-14.9,8c-4.3,7-6.4,14.1-3.9,22.9c5,17.6,13.5,33.6,21.4,49.9c2.4,4.9,3.8,9.9,4.2,15.3
		c0.5,6.6,0.8,13.3,1.1,19.9c0.3,7.1,0.7,7.4,8,7.3c11-0.2,21.8-2.6,32.8-3.2c21.6-1.1,42.2-7.6,63.4-10.9c2.2-0.3,2.6-1.2,2.1-3.4
		c-1.5-6.6-2.8-13.3-4.1-20c-0.9-4.7-0.5-10.3-2.9-14c-2.6-3.9-2.6-7.5-2-11.2c2.1-12.6,3.8-25.3,4.9-38c0.3-3,1.2-5.2,4.7-5.1
		c2,2.5,0.9,5.4,1.3,8.1c0.1,0.9-0.3,2.2,0.7,2.7c1.4,0.7,2.1-0.7,2.7-1.5c3.3-3.7,7.1-6.5,11.9-7.8c6.2-1.7,12.6-2.3,19-3.2
		C674.6,946.2,679.3,946.9,683,943.8z"/>
	<path class="st7" d="M550.7,1096c-4.7-8.5-6.7-18-9.2-27.3c-0.8-3.1,1.3-2.7,3.1-2.9c11.7-1.2,23.5-2.3,35.2-3.5
		c19.6-2,38.5-7.5,57.7-10.9c1.1-0.2,2.3-0.3,3.4-0.5c-0.2,3.9-2.8,5.8-6,7.2c-13.1,5.7-26.3,11.3-39.3,17.2
		C580.5,1082,565.6,1089,550.7,1096z"/>
	<path class="st164" d="M572.5,1128.4c-1-0.3-1.6-0.9-1.9-1.9C572.1,1126.2,572.7,1126.9,572.5,1128.4z"/>
	<path class="st164" d="M574.6,1130.4c-1-0.2-1.7-0.9-2-1.9C574.1,1128.2,574.6,1129,574.6,1130.4z"/>
	<path class="st164" d="M565.9,1121.1c-0.9-0.1-1.1-0.7-1.2-1.5C565.1,1120.1,565.5,1120.6,565.9,1121.1z"/>
	<path class="st164" d="M566.8,1122.2c-0.7-0.1-1-0.5-1-1.2C566.5,1121.2,566.8,1121.5,566.8,1122.2z"/>
	<path class="st164" d="M567.7,1123.3c-0.7-0.1-1-0.5-1-1.1C567.4,1122.2,567.8,1122.6,567.7,1123.3z"/>
	<path class="st164" d="M568.6,1124.3c-0.3-0.3-0.6-0.7-0.9-1C568.4,1123.2,568.7,1123.6,568.6,1124.3z"/>
	<path class="st164" d="M569.5,1125.3c-0.3-0.3-0.5-0.6-0.8-0.9C569.4,1124.3,569.7,1124.5,569.5,1125.3z"/>
	<path class="st164" d="M570.4,1126.3c-0.3-0.3-0.5-0.5-0.8-0.8C570.4,1125.3,570.7,1125.6,570.4,1126.3z"/>
	<path class="st164" d="M575.7,1131.3c-0.4-0.3-0.7-0.6-1.1-1C575.4,1130.3,575.7,1130.6,575.7,1131.3z"/>
	<path class="st164" d="M576.8,1132.3c-0.4-0.3-0.8-0.7-1.2-1C576.4,1131.2,576.7,1131.6,576.8,1132.3z"/>
	<path class="st164" d="M578.2,1133.4c-0.7-0.2-1.3-0.5-1.5-1.3C577.2,1132.5,577.7,1133,578.2,1133.4z"/>
	<path class="st95" d="M634.8,948.5c-3.5-0.1-4.5,2.2-4.7,5.1c-1.1,12.7-2.8,25.4-4.9,38c-0.6,3.7-0.6,7.3,2,11.2
		c2.4,3.7,2,9.3,2.9,14c1.3,6.7,2.6,13.4,4.1,20c0.5,2.2,0.1,3-2.1,3.4c-21.2,3.3-41.8,9.7-63.4,10.9c-11,0.6-21.8,2.9-32.8,3.2
		c-7.3,0.2-7.6-0.2-8-7.3c-0.3-6.6-0.6-13.3-1.1-19.9c-0.4-5.3-1.8-10.4-4.2-15.3c-7.9-16.3-16.4-32.3-21.4-49.9
		c-2.5-8.8-0.4-15.9,3.9-22.9c3.3-5.5,9.2-6.9,14.9-8c7.6-1.4,8-1.7,8.9-9.4c0.5-4.4,3.1-7.2,6.5-9.6c4.7-3.3,10.1-4.9,15.7-6.3
		c8.1-2,9.4-5.9,5.1-13c-10-16.6-19.1-33.6-22.9-52.9c-1.2-6.3,0.2-11.4,4.6-16c4.8-5.1,10.5-8.6,17.2-10.7
		c8.6-2.7,15.1-0.2,19.2,7.8c6,11.5,8.8,24,11.3,36.6c1.6,8,3,16,4.3,24c0.5,3.2,1.5,6.1,4,8.3c-4.5,0.2-8.3,2.2-11.5,5.1
		c-1.5,1.3-2.5,3.4-1.3,5.4c1.4,2.3,3.4,1.5,5.2,0.6c3.5-1.8,7.2-2.1,11.1-2.2c4.2-0.1,8.2,0.8,12.2,1.9c2.2,0.6,4.4,0.2,5.6-2.1
		c1.1-2.2-0.6-3.4-1.9-4.6c-2.6-2.5-5.6-4.2-9.3-4.1c-1.3,0-2.7,0.1-3.6-1.1c1.8-2.2,2.3-4.6,2.3-7.4c-0.4-20.1,5.7-38.7,13.6-56.8
		c7.2-16.6,21.9-15.8,35.1-12.3c3,0.8,4.3,3.4,5.2,6.3c2.1,7,1,13.9-0.4,20.7c-4.5,21.3-14.1,40.8-21.6,61.1c-0.6,1.6-1.5,3-2.1,4.5
		c-1.1,2.9-1.7,5.9,1.1,8.3c2.8,2.4,5.7,1.6,8.2-0.3c7.7-5.9,16.6-7.2,26-6.8c14.6,0.7,24.3,10.6,23,23.9c-0.5,5.6-1.9,11.2-8,13.8
		c-1.6-2.3-4-2.7-6.5-2.8c-9.6-0.4-19.2,0-28.6,2.3C643.3,944.4,638.1,944.3,634.8,948.5z M534,1027.1c-0.1,2.1,0.5,3.9,2.5,4.4
		c2.3,0.6,3-1.5,3.8-3.1c1.3-2.5,0.1-5.3,1-7.8c0.5-1.5,0.5-2.7-1.1-3.3c-1.5-0.6-2.6,0.4-3.4,1.5
		C535.2,1021.2,534.2,1024,534,1027.1z"/>
	<path class="st101" d="M634.8,948.5c3.3-4.2,8.4-4.2,13-5.3c9.4-2.3,19-2.7,28.6-2.3c2.6,0.1,5,0.5,6.5,2.8
		c-3.7,3.2-8.4,2.5-12.6,3.1c-6.3,1-12.8,1.5-19,3.2c-4.7,1.3-8.6,4.1-11.9,7.8c-0.7,0.8-1.3,2.2-2.7,1.5c-1-0.5-0.6-1.8-0.7-2.7
		C635.8,953.9,636.8,951,634.8,948.5z"/>
	<path class="st163" d="M600.7,888.8c1,1.2,2.3,1.1,3.6,1.1c3.7,0,6.7,1.7,9.3,4.1c1.3,1.2,3,2.4,1.9,4.6c-1.2,2.3-3.3,2.7-5.6,2.1
		c-4-1.1-8-1.9-12.2-1.9c-3.9,0.1-7.6,0.4-11.1,2.2c-1.9,0.9-3.9,1.7-5.2-0.6c-1.2-2-0.2-4.1,1.3-5.4c3.2-3,7-4.9,11.5-5.1
		C596.5,890.1,598.7,889.7,600.7,888.8z"/>
	<path class="st163" d="M534,1027.1c0.3-3,1.2-5.8,2.9-8.3c0.8-1.1,1.9-2.1,3.4-1.5c1.6,0.6,1.6,1.8,1.1,3.3c-0.9,2.5,0.3,5.3-1,7.8
		c-0.9,1.6-1.6,3.7-3.8,3.1C534.5,1031,533.8,1029.1,534,1027.1z"/>
</g>
</svg>
