<?xml version="1.0" encoding="utf-8"?>
<!-- Generator: Adobe Illustrator 25.0.0, SVG Export Plug-In . SVG Version: 6.00 Build 0)  -->
<svg version="1.1" id="图层_1" xmlns="http://www.w3.org/2000/svg" xmlns:xlink="http://www.w3.org/1999/xlink" x="0px" y="0px"
	 viewBox="0 0 1200 1600" style="enable-background:new 0 0 1200 1600;" xml:space="preserve">
<style type="text/css">
	.st0{fill:#060604;}
	.st1{fill:#EDCF5D;}
	.st2{fill:#FBF1EE;}
	.st3{fill:#ECCF5D;}
	.st4{fill:#F4FB95;}
	.st5{fill:#A0918B;}
	.st6{fill:#FBFBFB;}
	.st7{fill:#927233;}
	.st8{fill:#935A40;}
	.st9{fill:#623C2A;}
	.st10{fill:#FEFEFE;}
	.st11{fill:#040302;}
	.st12{fill:#090805;}
	.st13{fill:#9C5B46;}
	.st14{fill:#070705;}
	.st15{fill:#ECCE5D;}
	.st16{fill:#F2F2F2;}
	.st17{fill:#93583F;}
	.st18{fill:#A1918B;}
	.st19{fill:#513123;}
	.st20{fill:#FAFAFA;}
	.st21{fill:#030202;}
	.st22{fill:#060605;}
	.st23{fill:#A0908A;}
	.st24{fill:#937234;}
	.st25{fill:#E6C95B;}
	.st26{fill:#864E37;}
	.st27{fill:#513124;}
	.st28{fill:#B0603E;}
	.st29{fill:#FAF0ED;}
	.st30{fill:#F9F9F9;}
	.st31{fill:#917133;}
	.st32{fill:#9E8F89;}
	.st33{fill:#E7CA5B;}
	.st34{fill:#92583F;}
	.st35{fill:#050503;}
	.st36{fill:#FCFBFB;}
	.st37{fill:#080704;}
	.st38{fill:#070605;}
	.st39{fill:#FAF1ED;}
	.st40{fill:#F4FA95;}
	.st41{fill:#F8F8F7;}
	.st42{fill:#90573E;}
	.st43{fill:#030302;}
	.st44{fill:#080805;}
	.st45{fill:#FBF1ED;}
	.st46{fill:#FBFBFA;}
	.st47{fill:#927234;}
	.st48{fill:#F69376;}
	.st49{fill:#7B2D2D;}
	.st50{fill:#FCFCFC;}
	.st51{fill:#EF5A2D;}
	.st52{fill:#F0CC2D;}
	.st53{fill:#9F8F8A;}
	.st54{fill:#FAFAF9;}
	.st55{fill:#F2A78E;}
	.st56{fill:#040403;}
	.st57{fill:#070604;}
	.st58{fill:#A0908B;}
	.st59{fill:#F7F7F7;}
	.st60{fill:#E8CB5B;}
	.st61{fill:#8F563E;}
	.st62{fill:#513224;}
	.st63{fill:#080705;}
	.st64{fill:#FCFCFB;}
	.st65{fill:#F9F8F8;}
	.st66{fill:#FAF0EC;}
	.st67{fill:#9F908A;}
	.st68{fill:#91573E;}
	.st69{fill:#070704;}
	.st70{fill:#F5FC96;}
	.st71{fill:#9C9C53;}
	.st72{fill:#9A9A52;}
	.st73{fill:#F2F994;}
	.st74{fill:#A17628;}
	.st75{fill:#90573F;}
	.st76{fill:#090806;}
	.st77{fill:#523123;}
	.st78{fill:#7C4031;}
	.st79{fill:#ED866D;}
	.st80{fill:#F3E9E6;}
	.st81{fill:#4F3023;}
	.st82{fill:#060606;}
	.st83{fill:#89533B;}
	.st84{fill:#050403;}
	.st85{fill:#090909;}
	.st86{fill:#EDCF5E;}
	.st87{fill:#050504;}
	.st88{fill:#060504;}
	.st89{fill:#955A41;}
	.st90{fill:#080703;}
	.st91{fill:#090807;}
	.st92{fill:#070603;}
	.st93{fill:#0A0905;}
	.st94{fill:#937335;}
	.st95{fill:#955A40;}
	.st96{fill:#955940;}
	.st97{fill:#EDD05E;}
	.st98{fill:#8F7032;}
	.st99{fill:#945940;}
	.st100{fill:#EED05E;}
	.st101{fill:#503123;}
	.st102{fill:#EEEEEE;}
	.st103{fill:#0D0C0A;}
	.st104{fill:#E3C659;}
	.st105{fill:#967535;}
	.st106{fill:#9D7D38;}
	.st107{fill:#745A29;}
	.st108{fill:#847334;}
	.st109{fill:#907134;}
	.st110{fill:#E5C85B;}
	.st111{fill:#503124;}
	.st112{fill:#927133;}
	.st113{fill:#E0DDD4;}
	.st114{fill:#987836;}
	.st115{fill:#977636;}
	.st116{fill:#CCC4A4;}
	.st117{fill:#523224;}
	.st118{fill:#0B0908;}
	.st119{fill:#8F7135;}
	.st120{fill:#050404;}
	.st121{fill:#EDD05D;}
	.st122{fill:#F3FA94;}
	.st123{fill:#9A9A51;}
	.st124{fill:#999951;}
	.st125{fill:#937334;}
	.st126{fill:#FAF0EE;}
	.st127{fill:#F3FA95;}
	.st128{fill:#989851;}
	.st129{fill:#A2792A;}
	.st130{fill:#F1F893;}
	.st131{fill:#A17729;}
	.st132{fill:#050502;}
	.st133{fill:#947335;}
	.st134{fill:#917233;}
	.st135{fill:#9B9B52;}
	.st136{fill:#F9EFEC;}
	.st137{fill:#9A782F;}
	.st138{fill:#979752;}
	.st139{fill:#F2F893;}
	.st140{fill:#8C8E4F;}
	.st141{fill:#B5B96E;}
	.st142{fill:#0F0F09;}
	.st143{fill:#9C9C52;}
	.st144{fill:#F5FB95;}
	.st145{fill:#F3F994;}
	.st146{fill:#A17728;}
	.st147{fill:#917134;}
	.st148{fill:#090706;}
	.st149{fill:#8E6F32;}
	.st150{fill:#93593F;}
	.st151{fill:#907033;}
	.st152{fill:#060505;}
	.st153{fill:#C8C3AF;}
	.st154{fill:#533324;}
	.st155{fill:#533426;}
	.st156{fill:#0E0C0A;}
	.st157{fill:#907133;}
	.st158{fill:#583627;}
	.st159{fill:#0A0907;}
	.st160{fill:#573526;}
	.st161{fill:#0C0B09;}
	.st162{fill:#503023;}
	.st163{fill:#543325;}
	.st164{fill:#B7B3A1;}
</style>
<g>
	<path class="st88" d="M593.5,1003.7c9.7-2.1,18.6-5.8,26.4-12.2c3.6-3,7.7-5.2,11.7-7.5c3.2-1.8,5.4-1.2,5.8,2.9
		c-2.3,4.5-5.9,7.9-9.5,11.3c-10.6,9.9-23.8,13.8-37.7,15.9c-3.2-0.8-4.4,1.2-5.5,3.7c-6.6,14.7-12,30-19.4,44.3
		c-4.1,8-8.7,15.6-15.3,22c-11.4,11-25.6,15.3-40.7,18.2c0.9,1.3,2.3,1.4,3.6,1.7c12.3,2.9,24.6,5.7,37.1,7.1
		c24.2,2.8,48.1,2.4,71.6-4.5c11.8-3.4,23.4-7.4,33.8-14.1c0.8-0.3,1.6-0.7,2.4-1c2,0.3,3.8-0.8,5.7-1.2c2.3,0.1,5-0.3,6,2.5
		c1.1,3.1-1.4,4.7-3.4,6c-12.7,8.6-26.7,14.2-41.4,18.1c-39.4,10.5-78.2,6-116.6-5.5c-15.5-4.6-30.2-11-45.1-17.2
		c-16.6-7-26.7-20.5-34.8-35.7c-3-5.7-5.6-11.7-8.4-17.5c-3.8-7.7-8.6-14.5-15.7-19.6c-7.9-5.7-9.7-12.2-6.8-21.5
		c2-6.4,4.8-12.4,8.7-17.9c4.3-6,8.8-7.3,15.6-4.4c6.6,2.8,12.7,6.7,18.3,11c3.6,2.8,4.8,1.8,6.6-1.9c4.6-9.1,5.7-19.1,7.5-28.9
		c1.9-10.6,4.2-21.2,8.8-31.1c3.7-8,9.5-13,17.9-15.3c8.5-2.2,16.9-3.7,25.6-1.8c9.1,2,11.9,5.6,11.3,15c0,0.6,0.1,1.2,0.3,2
		c2.5-0.7,3.2-2.7,4.4-4.1c5.4-6.6,12.2-10.1,20.9-9.8c7.9,0.2,15.5,2.1,22.6,5.5c7.9,3.7,10.4,10.8,10.1,19
		c26.2-4.7,35.1,23.7,28.5,39.8c-2.4,6-5.9,11.6-8.7,17.4c-1.3,2.7-2.4,5.4-3.6,8.2c-0.1,0.4-0.2,0.8-0.3,1.2
		C592.3,1003.8,592.9,1003.7,593.5,1003.7z M502.1,1094.1c15.7-1.5,31.6-5.1,43.5-18.2c6.1-6.6,9.8-14.7,13.2-22.8
		c10.8-26,20.5-52.4,34.6-76.9c2.6-4.5,3.3-9.4,2.7-14.5c-0.8-7-3.8-12.4-10.7-15c-6.4-2.4-10.4,2.1-14.4,5.7
		c-6.9,6.2-11.6,14.1-15.4,22.5c-1.2,2.7-2.9,5.9-6.7,4.2c-3.9-1.7-3.1-5.1-1.8-8.2c2.7-6.5,6.4-12.4,10.4-18.2
		c2.8-4,5.5-8,7.8-12.2c2.9-5.3,2.2-11.2-2.1-13.4c-14.1-7.3-28.4-10.6-38,5.1c-6.2,10.2-12.9,20.2-18.2,31c-1.5,3-3.3,5.9-7.2,4.4
		c-3.5-1.4-3.3-4.6-2.3-7.7c1.4-4.6,2.8-9.2,4.3-13.8c2.2-6.8,4.7-13.5,6.7-20.4c1.6-5.4,0.4-6.9-5-7.9c-8.5-1.6-16.5,0.4-24.4,3.3
		c-2.9,1.1-5,3.1-6.5,5.9c-3.8,6.9-6.3,14.3-7.6,22.1c-3.1,19.1-7.3,37.9-17.5,54.8c-1.9,3.1-2.9,6.7-2.6,10.5
		c0.2,1.6,0.5,3.7-1.9,3.9c-2,0.2-2.7-1.6-3.3-3.2c-1.5-4.1-0.9-8.2-0.1-12.3c0.4-2.1,1.2-4.2-1.3-5.7c-5.9-3.7-11.7-7.6-18.1-10.6
		c-3.4-1.6-5.6-0.7-7.3,2.5c-2.2,4.3-4.3,8.7-5.6,13.3c-1.3,4.3-0.6,7.8,3.5,10.3c8.5,5.3,13.9,13.2,18.1,22.1
		c3.2,6.8,6.3,13.6,9.5,20.4C450.8,1081.8,473.3,1092.1,502.1,1094.1z"/>
	<path class="st97" d="M657.8,1091.6c-0.8,0.3-1.6,0.7-2.4,1c-3-0.7-5.4,1-8,1.9c-29.9,10.3-60.5,13-91.7,7.5
		c-1.1-0.2-2.6,0-3.1-1.2c-0.5-1.4,1-1.9,1.8-2.6c5.3-3.9,9.5-8.9,13.1-14.3c14.1-21.1,19.8-45.1,22.6-69.9
		c13.9-2.2,27.1-6.1,37.7-15.9c3.6-3.4,7.3-6.7,9.5-11.3c3.6-0.3,5.9,1.8,7.9,4.4c10.7,14,15.5,30.5,19.6,47.1
		c3.5,14.4,3,29,1.3,43.7c-0.3,2.5-1.1,4.9-2.4,7C661.5,1089.5,659.2,1089.4,657.8,1091.6z"/>
	<path class="st147" d="M657.8,1091.6c1.4-2.2,3.8-2.1,5.9-2.4c-0.1,0.4-0.2,0.8-0.2,1.2C661.6,1090.8,659.8,1091.8,657.8,1091.6z"
		/>
	<path class="st95" d="M502.1,1094.1c-28.9-1.9-51.3-12.3-63.8-38.9c-3.2-6.8-6.3-13.6-9.5-20.4c-4.2-8.9-9.6-16.8-18.1-22.1
		c-4.1-2.6-4.8-6.1-3.5-10.3c1.4-4.7,3.4-9,5.6-13.3c1.7-3.3,3.9-4.2,7.3-2.5c6.4,3,12.1,6.9,18.1,10.6c2.5,1.6,1.7,3.6,1.3,5.7
		c-0.8,4.1-1.3,8.2,0.1,12.3c0.6,1.6,1.3,3.4,3.3,3.2c2.4-0.2,2-2.3,1.9-3.9c-0.4-3.8,0.6-7.4,2.6-10.5
		c10.3-16.9,14.4-35.6,17.5-54.8c1.3-7.7,3.8-15.1,7.6-22.1c1.5-2.8,3.6-4.8,6.5-5.9c7.9-2.9,15.9-4.9,24.4-3.3c5.4,1,6.6,2.5,5,7.9
		c-2,6.9-4.5,13.6-6.7,20.4c-1.5,4.6-2.9,9.2-4.3,13.8c-0.9,3.1-1.2,6.3,2.3,7.7c3.9,1.5,5.7-1.4,7.2-4.4c5.3-10.8,12-20.7,18.2-31
		c9.6-15.8,23.9-12.4,38-5.1c4.3,2.2,5,8.2,2.1,13.4c-2.3,4.2-5.1,8.2-7.8,12.2c-4,5.8-7.7,11.7-10.4,18.2c-1.3,3.1-2.1,6.5,1.8,8.2
		c3.8,1.7,5.5-1.5,6.7-4.2c3.8-8.4,8.5-16.3,15.4-22.5c4-3.6,8-8.1,14.4-5.7c6.9,2.6,9.9,8,10.7,15c0.6,5.1-0.1,10-2.7,14.5
		c-14.1,24.5-23.9,50.9-34.6,76.9c-3.4,8.2-7.1,16.2-13.2,22.8C533.7,1089,517.8,1092.5,502.1,1094.1z"/>
	<path class="st147" d="M590.1,1014.2c-2.9,24.8-8.5,48.7-22.6,69.9c-3.6,5.4-7.8,10.4-13.1,14.3c-0.9,0.6-2.4,1.2-1.8,2.6
		c0.5,1.2,2,1,3.1,1.2c31.2,5.5,61.8,2.8,91.7-7.5c2.6-0.9,5-2.6,8-1.9c-10.4,6.7-22,10.7-33.8,14.1c-23.5,6.9-47.4,7.3-71.6,4.5
		c-12.6-1.5-24.9-4.2-37.1-7.1c-1.3-0.3-2.6-0.4-3.6-1.7c15-2.9,29.2-7.3,40.7-18.2c6.6-6.4,11.2-14,15.3-22
		c7.4-14.4,12.7-29.6,19.4-44.3C585.8,1015.4,586.9,1013.4,590.1,1014.2z"/>
	<path class="st10" d="M593.5,1003.7c-0.6,0-1.2,0.1-1.8,0.1c0.1-0.4,0.2-0.8,0.3-1.2C592.5,1002.9,593,1003.3,593.5,1003.7z"/>
</g>
</svg>
