<?xml version="1.0" encoding="utf-8"?>
<!-- Generator: Adobe Illustrator 25.0.0, SVG Export Plug-In . SVG Version: 6.00 Build 0)  -->
<svg version="1.1" id="图层_1" xmlns="http://www.w3.org/2000/svg" xmlns:xlink="http://www.w3.org/1999/xlink" x="0px" y="0px"
	 viewBox="0 0 1200 1600" style="enable-background:new 0 0 1200 1600;" xml:space="preserve">
<style type="text/css">
	.st0{fill:#060604;}
	.st1{fill:#EDCF5D;}
	.st2{fill:#FBF1EE;}
	.st3{fill:#ECCF5D;}
	.st4{fill:#F4FB95;}
	.st5{fill:#A0918B;}
	.st6{fill:#FBFBFB;}
	.st7{fill:#927233;}
	.st8{fill:#935A40;}
	.st9{fill:#623C2A;}
	.st10{fill:#FEFEFE;}
	.st11{fill:#040302;}
	.st12{fill:#090805;}
	.st13{fill:#9C5B46;}
	.st14{fill:#070705;}
	.st15{fill:#ECCE5D;}
	.st16{fill:#F2F2F2;}
	.st17{fill:#93583F;}
	.st18{fill:#A1918B;}
	.st19{fill:#513123;}
	.st20{fill:#FAFAFA;}
	.st21{fill:#030202;}
	.st22{fill:#060605;}
	.st23{fill:#A0908A;}
	.st24{fill:#937234;}
	.st25{fill:#E6C95B;}
	.st26{fill:#864E37;}
	.st27{fill:#513124;}
	.st28{fill:#B0603E;}
	.st29{fill:#FAF0ED;}
	.st30{fill:#F9F9F9;}
	.st31{fill:#917133;}
	.st32{fill:#9E8F89;}
	.st33{fill:#E7CA5B;}
	.st34{fill:#92583F;}
	.st35{fill:#050503;}
	.st36{fill:#FCFBFB;}
	.st37{fill:#080704;}
	.st38{fill:#070605;}
	.st39{fill:#FAF1ED;}
	.st40{fill:#F4FA95;}
	.st41{fill:#F8F8F7;}
	.st42{fill:#90573E;}
	.st43{fill:#030302;}
	.st44{fill:#080805;}
	.st45{fill:#FBF1ED;}
	.st46{fill:#FBFBFA;}
	.st47{fill:#927234;}
	.st48{fill:#F69376;}
	.st49{fill:#7B2D2D;}
	.st50{fill:#FCFCFC;}
	.st51{fill:#EF5A2D;}
	.st52{fill:#F0CC2D;}
	.st53{fill:#9F8F8A;}
	.st54{fill:#FAFAF9;}
	.st55{fill:#F2A78E;}
	.st56{fill:#040403;}
	.st57{fill:#070604;}
	.st58{fill:#A0908B;}
	.st59{fill:#F7F7F7;}
	.st60{fill:#E8CB5B;}
	.st61{fill:#8F563E;}
	.st62{fill:#513224;}
	.st63{fill:#080705;}
	.st64{fill:#FCFCFB;}
	.st65{fill:#F9F8F8;}
	.st66{fill:#FAF0EC;}
	.st67{fill:#9F908A;}
	.st68{fill:#91573E;}
	.st69{fill:#070704;}
	.st70{fill:#F5FC96;}
	.st71{fill:#9C9C53;}
	.st72{fill:#9A9A52;}
	.st73{fill:#F2F994;}
	.st74{fill:#A17628;}
	.st75{fill:#90573F;}
	.st76{fill:#090806;}
	.st77{fill:#523123;}
	.st78{fill:#7C4031;}
	.st79{fill:#ED866D;}
	.st80{fill:#F3E9E6;}
	.st81{fill:#4F3023;}
	.st82{fill:#060606;}
	.st83{fill:#89533B;}
	.st84{fill:#050403;}
	.st85{fill:#090909;}
	.st86{fill:#EDCF5E;}
	.st87{fill:#050504;}
	.st88{fill:#060504;}
	.st89{fill:#955A41;}
	.st90{fill:#080703;}
	.st91{fill:#090807;}
	.st92{fill:#070603;}
	.st93{fill:#0A0905;}
	.st94{fill:#937335;}
	.st95{fill:#955A40;}
	.st96{fill:#955940;}
	.st97{fill:#EDD05E;}
	.st98{fill:#8F7032;}
	.st99{fill:#945940;}
	.st100{fill:#EED05E;}
	.st101{fill:#503123;}
	.st102{fill:#EEEEEE;}
	.st103{fill:#0D0C0A;}
	.st104{fill:#E3C659;}
	.st105{fill:#967535;}
	.st106{fill:#9D7D38;}
	.st107{fill:#745A29;}
	.st108{fill:#847334;}
	.st109{fill:#907134;}
	.st110{fill:#E5C85B;}
	.st111{fill:#503124;}
	.st112{fill:#927133;}
	.st113{fill:#E0DDD4;}
	.st114{fill:#987836;}
	.st115{fill:#977636;}
	.st116{fill:#CCC4A4;}
	.st117{fill:#523224;}
	.st118{fill:#0B0908;}
	.st119{fill:#8F7135;}
	.st120{fill:#050404;}
	.st121{fill:#EDD05D;}
	.st122{fill:#F3FA94;}
	.st123{fill:#9A9A51;}
	.st124{fill:#999951;}
	.st125{fill:#937334;}
	.st126{fill:#FAF0EE;}
	.st127{fill:#F3FA95;}
	.st128{fill:#989851;}
	.st129{fill:#A2792A;}
	.st130{fill:#F1F893;}
	.st131{fill:#A17729;}
	.st132{fill:#050502;}
	.st133{fill:#947335;}
	.st134{fill:#917233;}
	.st135{fill:#9B9B52;}
	.st136{fill:#F9EFEC;}
	.st137{fill:#9A782F;}
	.st138{fill:#979752;}
	.st139{fill:#F2F893;}
	.st140{fill:#8C8E4F;}
	.st141{fill:#B5B96E;}
	.st142{fill:#0F0F09;}
	.st143{fill:#9C9C52;}
	.st144{fill:#F5FB95;}
	.st145{fill:#F3F994;}
	.st146{fill:#A17728;}
	.st147{fill:#917134;}
	.st148{fill:#090706;}
	.st149{fill:#8E6F32;}
	.st150{fill:#93593F;}
	.st151{fill:#907033;}
	.st152{fill:#060505;}
	.st153{fill:#C8C3AF;}
	.st154{fill:#533324;}
	.st155{fill:#533426;}
	.st156{fill:#0E0C0A;}
	.st157{fill:#907133;}
	.st158{fill:#583627;}
	.st159{fill:#0A0907;}
	.st160{fill:#573526;}
	.st161{fill:#0C0B09;}
	.st162{fill:#503023;}
	.st163{fill:#543325;}
	.st164{fill:#B7B3A1;}
</style>
<g>
	<path class="st62" d="M422.2,972.2c-0.2,3.1-0.1,6.3-0.6,9.4c-0.4,2.6-1.4,5.3-4.9,5.3c-3.2,0-4.7-2-5.7-4.7
		c-3.1-9-5.2-18.2-6.9-27.5c-1.7-9.2-2.5-18.4-2.1-27.7c3.2-0.4,4,1.2,4,4.1c0,5.8-0.2,11.6,1,17.2c1.9,8.8,6.4,16.2,12.5,22.6
		C420.2,971.7,421.3,971.8,422.2,972.2z"/>
	<g>
		<path class="st1" d="M654.3,980.1c10.1-1.4,20.4-3.6,30.4-0.1c10.3,3.5,20.1,7.9,24.7,19c-0.5,2.4-1.1,4.9-1.5,7.3
			c-3,22-10.2,42.6-22,61.5c-31.7,50.7-89.4,76.6-145.4,65c-21-4.4-40-13.2-56-27.8c13.1-4.4,24.1-11.6,32.7-22.6
			c11.1-14.3,17.7-30.3,19.7-48.3c8.1,2.8,16.4,4.1,25,3.4c17.4-1.4,32.7-8.1,47.3-17.2c1.7-1.1,3.2-2.9,5.5-2.9
			c0.4-0.5,0.8-0.9,1.2-1.4l0,0c0.9,0,1.7-0.2,2-1.2l-0.1,0.1c0.4-0.3,0.8-0.7,1.1-1l-0.1,0c1.5,0.1,3,0,3-2.1l0,0
			c1,0.1,1.8,0,1.7-1.3l0-0.1c2.3,0.7,3.1-0.6,3.3-2.6l0,0c1,0.1,1.8-0.1,1.7-1.4l0,0c0.8,0.2,1.1-0.2,1.1-1l-0.1,0
			c2.2,0.4,3.1-0.7,3.2-2.8l0,0.1c0.4-0.3,0.7-0.7,1.1-1c0,0-0.1,0.1-0.1,0.1c0.4-0.4,0.7-0.7,1.1-1.1c0,0-0.1,0.1-0.1,0.1
			c0.4-0.4,0.7-0.7,1.1-1.1c0,0-0.1,0.1-0.1,0.1c0.4-0.4,0.7-0.7,1.1-1.1l-0.1,0.1c0.4-0.3,0.7-0.7,1.1-1L638,998
			c0.4-0.4,0.8-0.7,1.3-1.1C644.2,991.2,649.9,986.3,654.3,980.1z"/>
		<path class="st152" d="M614.9,1017.4c-2.4,0-3.8,1.8-5.5,2.9c-14.6,9.1-29.9,15.8-47.3,17.2c-8.6,0.7-16.9-0.6-25-3.4
			c-3.6-2.5-3.6,0.4-4.2,2.7c-4.5,19-15.2,33.2-32.4,42.5c-10,5.4-20.7,8.5-33.3,9.1c6.3,6.1,11,12.2,17.5,16.5
			c16,14.6,35,23.5,56,27.8c56,11.6,113.7-14.3,145.4-65c11.8-18.9,18.9-39.5,22-61.5c0.3-2.5,1-4.9,1.5-7.3c2-1.4,4.1-2.6,6.4-0.8
			c2.5,1.9,2.2,4.7,2,7.3c-2.6,28.6-12.6,54.4-29.7,77.3c-25.6,34.3-59.4,55.9-102.1,60.9c-50.8,5.9-93-10.8-124.3-52.3
			c-1.2-1.6-2.5-2.3-4.5-2.3c-10.5,0.1-17.4-4.5-19.5-15.3c-1.6-8.4-6.3-14.4-13.3-19.4c-10.3-7.4-20.7-14.5-31.1-21.8
			c-7.6-5.3-13.5-12.3-19.6-19.1c-0.6-0.7-1.5-1.7-1.4-2.5c0.4-7.7-1.2-15.7,3.5-22.8c0.7-1.1,1.9-2,1-3.6
			c-4.8-8.8-2.7-17.8-0.7-26.8c2.5-10.9,5.8-21.5,10-31.9c3.2-7.8,7.2-10,15.3-7.6c3.3,1,3.9,0.2,3.4-2.8c-0.9-4.8-0.7-9.6-0.7-14.5
			c0-7.8,3.4-13.7,9.9-18c5.1-3.3,10.7-5.3,16.8-6c8.2-1,15.2,3.2,19.7,11.7c4.5,8.4,6.2,17.7,6.6,27c0.9,20.6,12.1,35,26.3,48.1
			c1.8,1.6,3.1,1.9,5.1,0.3c2.6-2.1,5.1-4.3,7.3-6.8c5-5.8,10.4-11.3,16.1-16.4c5.8-5.3,12.2-9.5,20.2-6.2
			c8.5,3.5,11.4,11.2,12.3,19.7c1.1,10.1-2.4,18.7-9,26.1c-5.1,5.7-10.7,10.9-15.9,16.6c-4.6,5.1-3.9,7.1,2.6,9.4
			c1.4,0.5,2.9,0.9,4.3,1.4c7.3,2.7,9.2,5.2,8.9,13c-0.1,3.6,1.2,5,4.3,5.9c17.5,5.5,33.9,1.7,49.8-5.7
			c20.4-9.5,37.1-23.9,52.3-40.3c1.4-1.5,2.7-2.9,4-4.5c1.8-2,3.9-3.4,6.6-2.3c2.7,1.1,2.5,3.6,2.2,6c-4.3,6.2-10.1,11.1-15.1,16.8
			c-0.4,0.4-0.8,0.7-1.3,1.1c0,0,0.1-0.1,0.1-0.1c-0.4,0.3-0.7,0.7-1.1,1c0,0,0.1-0.1,0.1-0.1c-0.4,0.4-0.7,0.7-1.1,1.1
			c0,0,0.1-0.1,0.1-0.1c-0.4,0.4-0.7,0.7-1.1,1.1c0,0,0.1-0.1,0.1-0.1c-0.6,0.1-1,0.4-1.1,1.1c0,0,0.1-0.1,0.1-0.1
			c-0.7,0-1.1,0.3-1.1,1c0,0,0-0.1,0-0.1c-1.4,0.5-2.6,1.4-3.2,2.8c0,0,0.1,0,0.1,0c-0.7,0-1.1,0.2-1.1,1c0,0,0,0,0,0
			c-0.9,0.1-1.5,0.5-1.7,1.4c0,0,0,0,0,0c-1.4,0.4-2.5,1.3-3.3,2.6c0,0,0,0.1,0,0.1c-0.9,0.1-1.5,0.4-1.7,1.3c0,0,0,0,0,0
			c-1.3,0.3-2.2,1-3,2.1c0,0,0.1,0,0.1,0c-0.6,0.1-1.1,0.3-1.1,1c0,0,0.1-0.1,0.1-0.1c-0.9,0-1.5,0.5-2,1.2c0,0,0,0,0,0
			C615.3,1016.1,614.8,1016.6,614.9,1017.4z M442,1062C442,1062,441.9,1062,442,1062c1.4,3.8,3.1,7.7,4.2,11.6
			c1.3,4.4,4.3,6,8.5,6.1c6.3,0.1,12.6-0.8,18.8-1.8c27.1-4.6,44.5-21.6,49.7-48.5c0.5-2.8,0.7-5.6,1-8.4c0.4-4.1-3.1-5.6-5.8-6.5
			c-2.2-0.7-2.2,2.6-2.9,4.3c-1.3,2.9-2.3,5.9-3.5,8.8c-0.6,1.4-1.7,2.1-3.2,1.8c-1.6-0.3-2-1.7-1.8-3.1c0.1-1.2,0.4-2.3,0.6-3.4
			c0.7-5.1,2.8-10.2,1.2-15.3c-1.9-5.9-0.5-10.8,3.4-15.3c5.6-6.6,11.5-13,16.7-19.9c5.4-7.2,7.3-15.3,3-23.9
			c-2.5-5.1-6-6.1-10.4-2.6c-4,3.2-7.8,6.8-11.5,10.3c-5,4.6-8.8,10.5-14.4,14.5c-7.5,5.4-11.4,5.6-18.3-0.1
			c-15.6-12.9-26.9-28.4-29.4-49.3c-1-8.6-2.5-17.1-5.9-25.2c-1.7-4.1-3.8-8-8.6-8.9c-10.1-2.1-20.8,6.8-20.5,17
			c0.2,7,0.9,13.9,1.3,20.9c0.8,14.2,0,28.8,9.1,41.2c1.3,1.8,2,4.4-1.1,5.8c-0.9-0.4-2-0.6-2.6-1.2c-6.2-6.4-10.6-13.9-12.5-22.6
			c-1.3-5.7-1.1-11.5-1-17.2c0-2.8-0.9-4.5-4-4.1c-4.7-1.1-7.3,0.6-8.8,5.3c-3.4,10.4-6.6,20.8-9.3,31.5c-2.2,8.9-1.1,16.7,4.8,23.8
			c4.2,5.1,8.4,10.3,12.4,15.5c1.7,2.2,3.1,4.6-0.1,6.8c-2.3,0.3-4.1-0.5-5.7-2.2c-2.7-2.9-5.4-5.9-8.4-8.3c-2-1.6-1.7-6.1-4.8-5.1
			c-1.5,0.5-2,4.5-2.9,6.9c-1,3.1-2.6,6.2,0.4,9.2c11.2,11,24,19.6,37.5,27.5c2.7,3.5,6.8,5.2,9.9,8.1c5.1,4.8,11.8,8.1,15,14.9
			C441.3,1061.2,441.2,1061.6,442,1062z"/>
		<path class="st31" d="M484.7,1105c-6.5-4.3-11.2-10.5-17.5-16.5c12.6-0.6,23.3-3.7,33.3-9.1c17.2-9.3,27.9-23.6,32.4-42.5
			c0.6-2.3,0.6-5.2,4.2-2.7c-2,18-8.6,34-19.7,48.3C508.8,1093.4,497.8,1100.6,484.7,1105z"/>
		<path class="st153" d="M629.7,1005.6c0.6-1.4,1.8-2.3,3.2-2.8C632.8,1004.9,631.9,1006,629.7,1005.6z"/>
		<path class="st153" d="M623.7,1010.5c0.7-1.3,1.8-2.1,3.3-2.6C626.8,1009.9,626,1011.1,623.7,1010.5z"/>
		<path class="st153" d="M618.9,1014c0.7-1.1,1.7-1.8,3-2.1C621.9,1014,620.5,1014,618.9,1014z"/>
		<path class="st153" d="M626.9,1007.9c0.2-0.9,0.8-1.3,1.7-1.4C628.7,1007.9,627.9,1008,626.9,1007.9z"/>
		<path class="st153" d="M621.9,1011.9c0.2-0.9,0.9-1.3,1.7-1.3C623.7,1011.9,622.9,1012,621.9,1011.9z"/>
		<path class="st153" d="M616,1016c0.5-0.7,1.1-1.2,2-1.2C617.7,1015.9,616.9,1016,616,1016z"/>
		<path class="st153" d="M638,998c0.4-0.4,0.8-0.7,1.3-1.1C638.8,997.3,638.4,997.6,638,998z"/>
		<path class="st153" d="M636.9,999c0.4-0.3,0.7-0.7,1.1-1C637.7,998.3,637.3,998.6,636.9,999z"/>
		<path class="st153" d="M635.9,1000c0.4-0.4,0.7-0.7,1.1-1.1C636.6,999.3,636.3,999.6,635.9,1000z"/>
		<path class="st153" d="M634.9,1001c0.4-0.4,0.7-0.7,1.1-1.1C635.6,1000.3,635.3,1000.6,634.9,1001z"/>
		<path class="st153" d="M633.9,1001.9c0-0.7,0.4-1,1.1-1.1C634.6,1001.2,634.3,1001.6,633.9,1001.9z"/>
		<path class="st153" d="M632.9,1002.9c0-0.7,0.4-1,1.1-1C633.6,1002.2,633.2,1002.6,632.9,1002.9z"/>
		<path class="st153" d="M628.7,1006.6c0-0.7,0.4-1,1.1-1C629.8,1006.4,629.4,1006.8,628.7,1006.6z"/>
		<path class="st153" d="M617.9,1014.9c0.1-0.7,0.5-0.9,1.1-1C618.6,1014.3,618.3,1014.6,617.9,1014.9z"/>
		<path class="st153" d="M614.9,1017.4c-0.1-0.9,0.4-1.3,1.2-1.4C615.6,1016.5,615.3,1016.9,614.9,1017.4z"/>
		<path class="st95" d="M417.1,1037.9c-13.4-7.9-26.3-16.6-37.5-27.5c-3-3-1.4-6.1-0.4-9.2c5.1,3.7,8.8,9,14,12.6
			c2,1.4,3.7,3,6.2,1.9c2.6-1.1,1.5-3.7,1.7-5.7c3.2-2.2,1.8-4.6,0.1-6.8c-4.1-5.2-8.2-10.4-12.4-15.5c-5.8-7.1-7-15-4.8-23.8
			c2.7-10.6,5.8-21.1,9.3-31.5c1.6-4.7,4.1-6.5,8.8-5.3c-0.4,9.3,0.4,18.6,2.1,27.7c1.7,9.3,3.8,18.5,6.9,27.5
			c0.9,2.7,2.5,4.7,5.7,4.7c3.5,0,4.5-2.7,4.9-5.3c0.5-3.1,0.5-6.3,0.6-9.4c3.1-1.4,2.4-4,1.1-5.8c-9.2-12.4-8.3-27-9.1-41.2
			c-0.4-7-1.1-13.9-1.3-20.9c-0.3-10.3,10.4-19.1,20.5-17c4.8,1,6.9,4.9,8.6,8.9c3.4,8,4.9,16.6,5.9,25.2
			c2.5,20.9,13.8,36.4,29.4,49.3c7,5.8,10.9,5.5,18.3,0.1c5.6-4.1,9.4-9.9,14.4-14.5c3.8-3.5,7.5-7.1,11.5-10.3
			c4.4-3.5,7.9-2.6,10.4,2.6c4.2,8.6,2.4,16.7-3,23.9c-5.2,6.9-11.1,13.3-16.7,19.9c-3.8,4.5-5.3,9.4-3.4,15.3
			c1.6,5.1-0.5,10.2-1.2,15.3c-0.2,1.1-0.5,2.3-0.6,3.4c-0.1,1.4,0.2,2.8,1.8,3.1c1.5,0.3,2.6-0.4,3.2-1.8c1.2-2.9,2.2-5.9,3.5-8.8
			c0.7-1.6,0.8-5,2.9-4.3c2.7,0.9,6.2,2.4,5.8,6.5c-0.3,2.8-0.4,5.6-1,8.4c-5.1,26.9-22.6,43.9-49.7,48.5
			c-6.2,1.1-12.5,1.9-18.8,1.8c-4.2-0.1-7.2-1.7-8.5-6.1c-1.2-4-2.9-7.8-4.3-11.7c8.2,0.7,14.3-4.8,21.4-7.3c3-1,5.7-2.7,8.4-4.3
			c1.4-0.8,2.8-2.1,1.7-4.1c-1-1.7-2.4-1.2-3.9-0.6c-3,1.1-6.1,1.8-9,3c-9.8,4.1-18.9,3.5-27.6-2.8c-2.1-1.6-4.4-2.9-6.8-4.2
			C423.3,1040.2,420.6,1038,417.1,1037.9z"/>
		<path class="st154" d="M417.1,1037.9c3.5,0.1,6.2,2.3,9.1,3.8c2.3,1.3,4.6,2.6,6.8,4.2c8.7,6.3,17.9,6.9,27.6,2.8
			c2.9-1.2,6-1.9,9-3c1.5-0.6,3-1,3.9,0.6c1.1,2-0.3,3.3-1.7,4.1c-2.7,1.6-5.5,3.3-8.4,4.3c-7.1,2.5-13.2,8-21.4,7.3
			c0,0,0.1,0,0.1,0c0-0.4,0-0.8,0-1.2c-3.3-6.7-9.9-10-15-14.9C423.9,1043.1,419.8,1041.4,417.1,1037.9z"/>
	</g>
	<path class="st155" d="M401,1010c-0.2,2,1,4.6-1.7,5.7c-2.5,1.1-4.2-0.5-6.2-1.9c-5.2-3.7-8.9-8.9-14-12.6c0.9-2.4,1.4-6.4,2.9-6.9
		c3.1-1,2.8,3.5,4.8,5.1c3.1,2.4,5.7,5.5,8.4,8.3C396.9,1009.5,398.7,1010.3,401,1010z"/>
	<path class="st95" d="M442,1060.8c0,0.4,0,0.8,0,1.2C441.2,1061.6,441.3,1061.2,442,1060.8z"/>
</g>
</svg>
