<?xml version="1.0" encoding="utf-8"?>
<!-- Generator: Adobe Illustrator 25.0.0, SVG Export Plug-In . SVG Version: 6.00 Build 0)  -->
<svg version="1.1" id="图层_1" xmlns="http://www.w3.org/2000/svg" xmlns:xlink="http://www.w3.org/1999/xlink" x="0px" y="0px"
	 viewBox="0 0 1200 1600" style="enable-background:new 0 0 1200 1600;" xml:space="preserve">
<style type="text/css">
	.st0{fill:#060604;}
	.st1{fill:#EDCF5D;}
	.st2{fill:#FBF1EE;}
	.st3{fill:#ECCF5D;}
	.st4{fill:#F4FB95;}
	.st5{fill:#A0918B;}
	.st6{fill:#FBFBFB;}
	.st7{fill:#927233;}
	.st8{fill:#935A40;}
	.st9{fill:#623C2A;}
	.st10{fill:#FEFEFE;}
	.st11{fill:#040302;}
	.st12{fill:#090805;}
	.st13{fill:#9C5B46;}
	.st14{fill:#070705;}
	.st15{fill:#ECCE5D;}
	.st16{fill:#F2F2F2;}
	.st17{fill:#93583F;}
	.st18{fill:#A1918B;}
	.st19{fill:#513123;}
	.st20{fill:#FAFAFA;}
	.st21{fill:#030202;}
	.st22{fill:#060605;}
	.st23{fill:#A0908A;}
	.st24{fill:#937234;}
	.st25{fill:#E6C95B;}
	.st26{fill:#864E37;}
	.st27{fill:#513124;}
	.st28{fill:#B0603E;}
	.st29{fill:#FAF0ED;}
	.st30{fill:#F9F9F9;}
	.st31{fill:#917133;}
	.st32{fill:#9E8F89;}
	.st33{fill:#E7CA5B;}
	.st34{fill:#92583F;}
	.st35{fill:#050503;}
	.st36{fill:#FCFBFB;}
	.st37{fill:#080704;}
	.st38{fill:#070605;}
	.st39{fill:#FAF1ED;}
	.st40{fill:#F4FA95;}
	.st41{fill:#F8F8F7;}
	.st42{fill:#90573E;}
	.st43{fill:#030302;}
	.st44{fill:#080805;}
	.st45{fill:#FBF1ED;}
	.st46{fill:#FBFBFA;}
	.st47{fill:#927234;}
	.st48{fill:#F69376;}
	.st49{fill:#7B2D2D;}
	.st50{fill:#FCFCFC;}
	.st51{fill:#EF5A2D;}
	.st52{fill:#F0CC2D;}
	.st53{fill:#9F8F8A;}
	.st54{fill:#FAFAF9;}
	.st55{fill:#F2A78E;}
	.st56{fill:#040403;}
	.st57{fill:#070604;}
	.st58{fill:#A0908B;}
	.st59{fill:#F7F7F7;}
	.st60{fill:#E8CB5B;}
	.st61{fill:#8F563E;}
	.st62{fill:#513224;}
	.st63{fill:#080705;}
	.st64{fill:#FCFCFB;}
	.st65{fill:#F9F8F8;}
	.st66{fill:#FAF0EC;}
	.st67{fill:#9F908A;}
	.st68{fill:#91573E;}
	.st69{fill:#070704;}
	.st70{fill:#F5FC96;}
	.st71{fill:#9C9C53;}
	.st72{fill:#9A9A52;}
	.st73{fill:#F2F994;}
	.st74{fill:#A17628;}
	.st75{fill:#90573F;}
	.st76{fill:#090806;}
	.st77{fill:#523123;}
	.st78{fill:#7C4031;}
	.st79{fill:#ED866D;}
	.st80{fill:#F3E9E6;}
	.st81{fill:#4F3023;}
	.st82{fill:#060606;}
	.st83{fill:#89533B;}
	.st84{fill:#050403;}
	.st85{fill:#090909;}
	.st86{fill:#EDCF5E;}
	.st87{fill:#050504;}
	.st88{fill:#060504;}
	.st89{fill:#955A41;}
	.st90{fill:#080703;}
	.st91{fill:#090807;}
	.st92{fill:#070603;}
	.st93{fill:#0A0905;}
	.st94{fill:#937335;}
	.st95{fill:#955A40;}
	.st96{fill:#955940;}
	.st97{fill:#EDD05E;}
	.st98{fill:#8F7032;}
	.st99{fill:#945940;}
	.st100{fill:#EED05E;}
	.st101{fill:#503123;}
	.st102{fill:#EEEEEE;}
	.st103{fill:#0D0C0A;}
	.st104{fill:#E3C659;}
	.st105{fill:#967535;}
	.st106{fill:#9D7D38;}
	.st107{fill:#745A29;}
	.st108{fill:#847334;}
	.st109{fill:#907134;}
	.st110{fill:#E5C85B;}
	.st111{fill:#503124;}
	.st112{fill:#927133;}
	.st113{fill:#E0DDD4;}
	.st114{fill:#987836;}
	.st115{fill:#977636;}
	.st116{fill:#CCC4A4;}
	.st117{fill:#523224;}
	.st118{fill:#0B0908;}
	.st119{fill:#8F7135;}
	.st120{fill:#050404;}
	.st121{fill:#EDD05D;}
	.st122{fill:#F3FA94;}
	.st123{fill:#9A9A51;}
	.st124{fill:#999951;}
	.st125{fill:#937334;}
	.st126{fill:#FAF0EE;}
	.st127{fill:#F3FA95;}
	.st128{fill:#989851;}
	.st129{fill:#A2792A;}
	.st130{fill:#F1F893;}
	.st131{fill:#A17729;}
	.st132{fill:#050502;}
	.st133{fill:#947335;}
	.st134{fill:#917233;}
	.st135{fill:#9B9B52;}
	.st136{fill:#F9EFEC;}
	.st137{fill:#9A782F;}
	.st138{fill:#979752;}
	.st139{fill:#F2F893;}
	.st140{fill:#8C8E4F;}
	.st141{fill:#B5B96E;}
	.st142{fill:#0F0F09;}
	.st143{fill:#9C9C52;}
	.st144{fill:#F5FB95;}
	.st145{fill:#F3F994;}
	.st146{fill:#A17728;}
	.st147{fill:#917134;}
	.st148{fill:#090706;}
	.st149{fill:#8E6F32;}
	.st150{fill:#93593F;}
	.st151{fill:#907033;}
	.st152{fill:#060505;}
	.st153{fill:#C8C3AF;}
	.st154{fill:#533324;}
	.st155{fill:#533426;}
	.st156{fill:#0E0C0A;}
	.st157{fill:#907133;}
	.st158{fill:#583627;}
	.st159{fill:#0A0907;}
	.st160{fill:#573526;}
	.st161{fill:#0C0B09;}
	.st162{fill:#503023;}
	.st163{fill:#543325;}
	.st164{fill:#B7B3A1;}
</style>
<g>
	<path class="st148" d="M669.8,970.6c-1.6-6.7,1-9.3,8.4-8.5c36.9,3.6,66.5,28.8,75.9,64.7c11.3,43-7.1,92.3-44.7,119.5
		c-6.1,4.4-11.5,10.2-19.4,11.9c-1.9,0.4-2.7,2.2-3,4.2c-0.8,4.6-2.8,8.9-4.5,13.2c-1.9,5-5.5,6.9-10.5,6.5
		c-10.8-0.9-21.6-2.5-31.8-5.9c-4.9-1.7-7.3,0.2-9,4.1c-2.4,5.3-3.4,10.7-1.4,16.5c1.3,3.8,2.5,7.6,3.2,11.5
		c2.2,11.4-2.5,19.4-13.6,23.2c-20.1,6.9-47.2-4-47.5-33.6c0-4.8,0.4-9.7,1.7-14.3c1-3.6,0-4.5-3.6-4.9c-17-1.6-27.8-12.3-28.7-27.8
		c0-0.2-0.1-0.4,0-0.5c3.1-8.1-1-14.4-4.4-21.3c-4.4-8.9-6.6-18.6-1.6-28.4c0.7-1.4,0.2-2.4-0.5-3.7c-5.4-10.5-3.2-28.8,4.3-37.8
		c5.3-6.4,12.7-8.3,20.2-8.1c8.7,0.2,17.3-0.3,25.9-0.8c13.1-0.8,25.5,1.9,37.7,6c8.1,2.7,16.2,3.4,24.6,2.2
		c6,0.4,11.8-0.8,17.5-2.6c6.3-2,9.2-0.7,11.8,5.5c1.5,3.7,2.6,7.5,4,11.2c1.7,4.6,2.1,9.7,4.5,14c-0.6,1.2,0,2.3,0.3,3.4
		c3.1,13.9,4.8,28,4.4,42.3c-0.1,3.4,0,6.8,0,11.1c5.5-3.4,10.2-6.4,14.9-9.3c5.9-3.8,11.7-7.7,16.1-13.2
		c16-19.5,25.3-41.6,25.9-67.1c0.9-40.6-24.9-72.6-64.9-80.1C678.1,972.9,673.6,973.2,669.8,970.6z M593,1145
		c-3.1-2.2-6.1-4.8-10.3-3.8c-8.8,2.1-17.7,1.9-26.6,1.7c-6.2-0.2-6.2-0.3-6.1,6.1c0.2,4.5,1,8.9,4.2,12.4
		c11.3,12.6,33.2,10.8,42.4-3.4C601.1,1151.1,600.4,1148.6,593,1145z M586,1108.9c-4-3.9-8.3-5.6-14.2-4.6c-7.3,1.2-14.8,1.4-22.2,0
		c-5.4-1-6.6-0.2-6.7,5.2c0,1.2,0.1,2.3,0.1,3.5c0,1.2-0.1,2.3,0,3.5c0.8,8.9,5.9,15.6,12.5,16.4c10,1.2,19.9,0.2,29.7-1.9
		c4.6-1,8.2-3,8.5-8.3C594.1,1115.4,591.6,1110.9,586,1108.9z M596.9,1068.1c2.5,10.5,2.2,20.6-4.3,29.9c-1.3,1.9,0.6,2.5,1.7,3.3
		c9.5,7.2,12.1,22.9,5,32.5c-2.2,3-1.3,3.3,1.4,4.5c6.8,2.8,9.6,9,7.7,15.8c-0.5,1.9-1.1,3.8-1.6,5.7c-3.9,5.4-8.2,10.5-13.1,15
		c-3.1,1.6-7.9,0.6-8.7,5.8c-0.5,3.3-1.2,6.5-1.6,9.8c-2.7,18.8,9,34.5,29.9,31.5c3.8-0.6,7.9-1.7,8.9-6.5c2.2-5-0.4-9.5-2-13.8
		c-3.1-8.4-2.1-16.4,1.4-24.2c3.2-7.1,9.8-13.5,20.5-10.5c7.8,2.2,15.9,3.4,23.9,5c8.4,1.7,8.9,1.4,11.1-7.3
		c2.9-11.4,3.3-22.9,3.3-34.6c0-21.6-4.8-42.2-11.2-62.6c-0.6-1.8-1-3.9-3.6-3.1c-8.4,2.7-17.1,2-25.6,3.4c-5.8,0.9-11.2,0.7-16.7-1
		c-8-2.4-15.8-5.1-24.1-6.5c-2.5-0.4-6.5-1.6-7.6,0.2c-1.4,2.4,2.6,4,3.9,6.1C596.1,1067,596.5,1067.5,596.9,1068.1z M560.5,1095.9
		c4.9-0.5,11.9-1.2,18.8-2.1c2.5-0.3,5-1.2,6.4-3.5c4.2-7.1,5.2-17.3-3-23.9c-5.3-4.3-11.7-6.5-18.3-7.3c-12.8-1.6-18,2.2-21.1,14.4
		c-0.2,1-0.5,1.9-0.6,2.9C540.7,1091.6,542.5,1095.6,560.5,1095.9z"/>
	<path class="st1" d="M685.6,1086.7c-2.5-4.4-2.8-9.4-4.5-14c-1.4-3.7-2.5-7.6-4-11.2c-2.6-6.1-5.5-7.4-11.8-5.5
		c-5.7,1.8-11.5,3-17.5,2.6c3.4-2,6.7-4.1,10-6.1c-0.3-0.7-0.4-1.1-0.6-1.2c-9.6-5.5-9.7-5.5-5.1-15.8c7.9-17.7,10.7-36.5,12.9-55.5
		c0.4-3.8,0.1-7.9,4.9-9.3c3.8,2.5,8.3,2.2,12.5,3c40,7.6,65.8,39.5,64.9,80.1c-0.6,25.5-10,47.6-25.9,67.1
		c-4.5,5.5-10.3,9.4-16.1,13.2c-3.7-3.5-3.5-8.6-5.1-13C695.8,1109.4,692.6,1097.3,685.6,1086.7z"/>
	<path class="st99" d="M593.7,1174.7c4.9-4.5,9.2-9.6,13.1-15c1.7,0.4,3-0.5,4.1-1.4c5.9-4.5,12.2-8.7,17.7-13.7
		c6.5-5.9,13.3-11.7,18.1-19.1c5.2-8.1,4.5-14.1-2.3-20.9c-14.3-14.2-31.3-24.9-47.5-36.7c-0.4-0.5-0.8-1-1.2-1.6
		c-1.4-2.1-5.3-3.7-3.9-6.1c1.1-1.9,5-0.6,7.6-0.2c8.2,1.3,16.1,4.1,24.1,6.5c5.5,1.6,10.9,1.9,16.7,1c8.5-1.3,17.3-0.6,25.6-3.4
		c2.5-0.8,3,1.3,3.6,3.1c6.3,20.4,11.2,41,11.2,62.6c0,11.7-0.4,23.2-3.3,34.6c-2.2,8.7-2.7,9-11.1,7.3c-8-1.6-16.1-2.8-23.9-5
		c-10.6-3-17.3,3.4-20.5,10.5c-3.5,7.8-4.5,15.8-1.4,24.2c1.6,4.4,4.2,8.8,2,13.8c-3-0.8-6.1-1.7-9.1-2.5c-8.1-2.2-14.3-6.8-18-14.6
		C591.5,1190.6,593,1182.6,593.7,1174.7z"/>
	<path class="st62" d="M596.9,1068.1c16.2,11.8,33.2,22.5,47.5,36.7c6.8,6.7,7.5,12.8,2.3,20.9c-4.8,7.5-11.6,13.2-18.1,19.1
		c-5.5,5-11.7,9.2-17.7,13.7c-1.2,0.9-2.5,1.8-4.1,1.4c0.5-1.9,1.1-3.8,1.6-5.7c1.9-6.8-0.9-12.9-7.7-15.8c-2.7-1.1-3.7-1.5-1.4-4.5
		c7.1-9.5,4.5-25.2-5-32.5c-1.2-0.9-3.1-1.5-1.7-3.3C599.1,1088.7,599.4,1078.6,596.9,1068.1z"/>
	<path class="st34" d="M560.5,1095.9c-17.9-0.3-19.8-4.3-17.8-19.5c0.1-1,0.4-2,0.6-2.9c3-12.2,8.3-16,21.1-14.4
		c6.6,0.8,13,3.1,18.3,7.3c8.2,6.6,7.3,16.8,3,23.9c-1.4,2.3-3.9,3.1-6.4,3.5C572.4,1094.7,565.4,1095.4,560.5,1095.9z"/>
	<path class="st17" d="M586,1108.9c5.6,2,8.1,6.4,7.7,13.8c-0.3,5.3-3.9,7.3-8.5,8.3c-9.8,2.2-19.7,3.1-29.7,1.9
		c-6.6-0.8-11.7-7.5-12.5-16.4c-0.1-1.2,0-2.3,0-3.5c6.4,1.3,12.9,2.8,19.5,1.9C570.6,1113.8,579,1114,586,1108.9z"/>
	<path class="st34" d="M593,1145c7.4,3.6,8.1,6.1,3.7,13c-9.2,14.3-31.1,16.1-42.4,3.4c-3.2-3.5-3.9-7.9-4.2-12.4
		c1.6,0,3.4-0.2,4.9,0.2c10.6,2.4,21.3,2.3,32,0.7C589.8,1149.5,592.5,1148.4,593,1145z"/>
	<path class="st101" d="M593.7,1174.7c-0.7,7.9-2.2,15.9,1.4,23.5c3.7,7.7,9.9,12.3,18,14.6c3,0.8,6.1,1.7,9.1,2.5
		c-1,4.8-5.1,6-8.9,6.5c-20.9,3-32.6-12.7-29.9-31.5c0.5-3.3,1.2-6.5,1.6-9.8C585.8,1175.4,590.6,1176.3,593.7,1174.7z"/>
	<path class="st149" d="M685.6,1086.7c7,10.6,10.2,22.7,14.4,34.5c1.6,4.4,1.4,9.5,5.1,13c-4.7,2.9-9.4,5.9-14.9,9.3
		c0-4.3-0.1-7.7,0-11.1c0.4-14.3-1.3-28.4-4.4-42.3C685.6,1088.9,685,1087.9,685.6,1086.7z"/>
	<path class="st81" d="M586,1108.9c-7,5.1-15.4,4.9-23.4,6c-6.6,0.9-13.1-0.6-19.5-1.9c0-1.2-0.1-2.3-0.1-3.5
		c0.1-5.4,1.2-6.2,6.7-5.2c7.4,1.4,14.9,1.2,22.2,0C577.7,1103.3,582,1105,586,1108.9z"/>
	<path class="st81" d="M593,1145c-0.5,3.4-3.2,4.5-6,4.9c-10.7,1.6-21.3,1.7-32-0.7c-1.6-0.4-3.3-0.1-4.9-0.2
		c-0.1-6.4-0.1-6.3,6.1-6.1c8.9,0.2,17.8,0.4,26.6-1.7C586.9,1140.2,589.9,1142.8,593,1145z"/>
</g>
</svg>
