<?xml version="1.0" encoding="utf-8"?>
<!-- Generator: Adobe Illustrator 25.0.0, SVG Export Plug-In . SVG Version: 6.00 Build 0)  -->
<svg version="1.1" id="图层_1" xmlns="http://www.w3.org/2000/svg" xmlns:xlink="http://www.w3.org/1999/xlink" x="0px" y="0px"
	 viewBox="0 0 1200 1600" style="enable-background:new 0 0 1200 1600;" xml:space="preserve">
<style type="text/css">
	.st0{fill:#060604;}
	.st1{fill:#EDCF5D;}
	.st2{fill:#FBF1EE;}
	.st3{fill:#ECCF5D;}
	.st4{fill:#F4FB95;}
	.st5{fill:#A0918B;}
	.st6{fill:#FBFBFB;}
	.st7{fill:#927233;}
	.st8{fill:#935A40;}
	.st9{fill:#623C2A;}
	.st10{fill:#FEFEFE;}
	.st11{fill:#040302;}
	.st12{fill:#090805;}
	.st13{fill:#9C5B46;}
	.st14{fill:#070705;}
	.st15{fill:#ECCE5D;}
	.st16{fill:#F2F2F2;}
	.st17{fill:#93583F;}
	.st18{fill:#A1918B;}
	.st19{fill:#513123;}
	.st20{fill:#FAFAFA;}
	.st21{fill:#030202;}
	.st22{fill:#060605;}
	.st23{fill:#A0908A;}
	.st24{fill:#937234;}
	.st25{fill:#E6C95B;}
	.st26{fill:#864E37;}
	.st27{fill:#513124;}
	.st28{fill:#B0603E;}
	.st29{fill:#FAF0ED;}
	.st30{fill:#F9F9F9;}
	.st31{fill:#917133;}
	.st32{fill:#9E8F89;}
	.st33{fill:#E7CA5B;}
	.st34{fill:#92583F;}
	.st35{fill:#050503;}
	.st36{fill:#FCFBFB;}
	.st37{fill:#080704;}
	.st38{fill:#070605;}
	.st39{fill:#FAF1ED;}
	.st40{fill:#F4FA95;}
	.st41{fill:#F8F8F7;}
	.st42{fill:#90573E;}
	.st43{fill:#030302;}
	.st44{fill:#080805;}
	.st45{fill:#FBF1ED;}
	.st46{fill:#FBFBFA;}
	.st47{fill:#927234;}
	.st48{fill:#F69376;}
	.st49{fill:#7B2D2D;}
	.st50{fill:#FCFCFC;}
	.st51{fill:#EF5A2D;}
	.st52{fill:#F0CC2D;}
	.st53{fill:#9F8F8A;}
	.st54{fill:#FAFAF9;}
	.st55{fill:#F2A78E;}
	.st56{fill:#040403;}
	.st57{fill:#070604;}
	.st58{fill:#A0908B;}
	.st59{fill:#F7F7F7;}
	.st60{fill:#E8CB5B;}
	.st61{fill:#8F563E;}
	.st62{fill:#513224;}
	.st63{fill:#080705;}
	.st64{fill:#FCFCFB;}
	.st65{fill:#F9F8F8;}
	.st66{fill:#FAF0EC;}
	.st67{fill:#9F908A;}
	.st68{fill:#91573E;}
	.st69{fill:#070704;}
	.st70{fill:#F5FC96;}
	.st71{fill:#9C9C53;}
	.st72{fill:#9A9A52;}
	.st73{fill:#F2F994;}
	.st74{fill:#A17628;}
	.st75{fill:#90573F;}
	.st76{fill:#090806;}
	.st77{fill:#523123;}
	.st78{fill:#7C4031;}
	.st79{fill:#ED866D;}
	.st80{fill:#F3E9E6;}
	.st81{fill:#4F3023;}
	.st82{fill:#060606;}
	.st83{fill:#89533B;}
	.st84{fill:#050403;}
	.st85{fill:#090909;}
	.st86{fill:#EDCF5E;}
	.st87{fill:#050504;}
	.st88{fill:#060504;}
	.st89{fill:#955A41;}
	.st90{fill:#080703;}
	.st91{fill:#090807;}
	.st92{fill:#070603;}
	.st93{fill:#0A0905;}
	.st94{fill:#937335;}
	.st95{fill:#955A40;}
	.st96{fill:#955940;}
	.st97{fill:#EDD05E;}
	.st98{fill:#8F7032;}
	.st99{fill:#945940;}
	.st100{fill:#EED05E;}
	.st101{fill:#503123;}
	.st102{fill:#EEEEEE;}
	.st103{fill:#0D0C0A;}
	.st104{fill:#E3C659;}
	.st105{fill:#967535;}
	.st106{fill:#9D7D38;}
	.st107{fill:#745A29;}
	.st108{fill:#847334;}
	.st109{fill:#907134;}
	.st110{fill:#E5C85B;}
	.st111{fill:#503124;}
	.st112{fill:#927133;}
	.st113{fill:#E0DDD4;}
	.st114{fill:#987836;}
	.st115{fill:#977636;}
	.st116{fill:#CCC4A4;}
	.st117{fill:#523224;}
	.st118{fill:#0B0908;}
	.st119{fill:#8F7135;}
	.st120{fill:#050404;}
	.st121{fill:#EDD05D;}
	.st122{fill:#F3FA94;}
	.st123{fill:#9A9A51;}
	.st124{fill:#999951;}
	.st125{fill:#937334;}
	.st126{fill:#FAF0EE;}
	.st127{fill:#F3FA95;}
	.st128{fill:#989851;}
	.st129{fill:#A2792A;}
	.st130{fill:#F1F893;}
	.st131{fill:#A17729;}
	.st132{fill:#050502;}
	.st133{fill:#947335;}
	.st134{fill:#917233;}
	.st135{fill:#9B9B52;}
	.st136{fill:#F9EFEC;}
	.st137{fill:#9A782F;}
	.st138{fill:#979752;}
	.st139{fill:#F2F893;}
	.st140{fill:#8C8E4F;}
	.st141{fill:#B5B96E;}
	.st142{fill:#0F0F09;}
	.st143{fill:#9C9C52;}
	.st144{fill:#F5FB95;}
	.st145{fill:#F3F994;}
	.st146{fill:#A17728;}
	.st147{fill:#917134;}
	.st148{fill:#090706;}
	.st149{fill:#8E6F32;}
	.st150{fill:#93593F;}
	.st151{fill:#907033;}
	.st152{fill:#060505;}
	.st153{fill:#C8C3AF;}
	.st154{fill:#533324;}
	.st155{fill:#533426;}
	.st156{fill:#0E0C0A;}
	.st157{fill:#907133;}
	.st158{fill:#583627;}
	.st159{fill:#0A0907;}
	.st160{fill:#573526;}
	.st161{fill:#0C0B09;}
	.st162{fill:#503023;}
	.st163{fill:#543325;}
	.st164{fill:#B7B3A1;}
</style>
<g>
	<path class="st84" d="M667.3,951.8c0.7-5.5,3.4-6.7,8-3.1c12.4,9.4,23.1,20.6,32.7,32.9c25.9,33,43,69.9,48.7,111.6
		c4.2,30.7,2,60.8-11.7,89.3c-7.4,15.3-17.8,28.1-32.4,37.1c-0.8,0.5-1.8,1-2.4,1.8c-10.2,13-25.3,15.6-40.1,18.7
		c-4.4,0.9-8.3-0.9-9.9-5c-3.6-9.3-9.7-14.4-19.7-17.2c-14.1-3.9-18.5-16.7-21.4-29.5c-1.8-7.9-2.7-16.1-3.8-24.1
		c-0.4-3.2-1.8-5.4-4.5-7.2c-13.9-9.3-16.2-25-5.8-38.3c1.3-1.6,2-2.3,0-4.2c-9.2-8.9-10.8-23.5-3.6-34.3c2.5-3.7,1.3-4.5-1.8-6.2
		c-17.9-9.7-25.6-27.1-20.7-45.6c3.5-13.1,12.6-18.2,25.8-14.6c10.4,2.9,19.6,8.2,28.7,13.8c2.8,1.7,4,2.7,4.8-1.9
		c1.7-10.3,6.6-18.4,17.4-21.5c0.7,0.1,1.3,0.1,2,0.2c13.3,1.3,23.9,7.1,30.6,18.8c6.1,10.8,2.9,20.9-4.1,30.1
		c-2.6,3.4-4,6.6-1.3,10.8c1.2,1.8,1.1,4.5,1.4,6.8c1.6,13.5,3.1,27.1,4.7,40.6c0.2,1.4,0,2.8,1.5,4c9.9,7.6,17.4,17.2,23.6,28
		c2.9,13,4.7,26.1,4.3,39.5c-0.2,6.5-1.3,12.9-2,20.1c13.8-13,22.7-27.9,27.8-45.2c7.4-25.2,6.6-50.6,1.4-76.1
		c-1.8-8.9-3.4-17.9-7.8-26.1c-8.9-30.2-25.3-56.1-45.9-79.6C684.1,967.4,675.2,960.1,667.3,951.8z M651.9,1021
		c-1.9,3.8-3.8,7.7-5.6,11.6c-0.9,2-0.1,3.5,1.6,4.7c7.5,5.2,15.3,9.9,23.3,14.2c1.6,0.9,3.4,1,4.3-0.8c1.4-3,4.2-5.2,4.3-8.8
		c3.1-3,2.6-6.6,1.6-10.2c-2.3-8-13.2-16.4-21.6-16.7C655.6,1014.9,653.1,1017,651.9,1021z M674.7,1198.8c-3.7,4-7.3,8.1-10.9,12.1
		c-1,1.1-1,2.6-0.6,3.8c1.3,4.7,4.5,8.4,6.9,12.5c0.8,1.4,2.7,0.6,4.2,0.2c6.4-1.4,12.4-3.7,18.4-6.1c5.7-2.3,9.2-6.2,11.1-11.9
		c2.7-8.1,4.3-16.5,4.9-24.8c0.5-6.8,1.5-13.9-0.9-20.7c0.7-15.7-5.8-28.1-17.5-38.2c1.1,3.6,0.8,7.3,1.3,10.9
		c2.1,17,1.3,33.5-8.9,48.4C679.6,1189.3,676.2,1193.5,674.7,1198.8z M672.1,1183.1c9-11.8,11.2-25.3,9.6-39.6
		c-2.6-23.8-5.3-47.5-7.7-71.3c-0.5-4.9-2.3-8.6-6.7-10.8c-12.7-6.3-24.1-14.8-36-22.3c-9.5-6.1-19.3-11.8-30.4-14.7
		c-3.8-1-7.3-0.6-8.8,3.4c-3.3,8.4-3.6,16.8,1.6,24.7c0.1,2.2,1.6,3.6,3.1,4.9c10,8.6,21.9,14.2,33.3,20.6c0.7,0.7,1.5,1.3,2.2,2
		c2.2,2.1,3.9,4.4,1.7,7.4c-1.9,2.6-4.6,2.2-7.2,1c-2-0.9-3.9-1.9-5.8-2.9c-8.3-4.5-11.4-3.1-12.8,6.3c-0.5,3.1-0.9,6.3,0.8,9.3
		c1.9,8.5,9.1,11.1,15.8,14.2c2,1.9,3.7,4.1,2,7c-1.7,3-4.8,2.3-7.2,1.7c-5.4-1.5-7.7,0.8-8.9,5.7c-0.6,2.4-1.2,4.8-0.7,7.3
		c-1,6.2,3.7,8.9,7.6,11.8c4.1,3.1,6.6,6.9,7.3,11.9c1.3,8.5,2.3,17.1,4.1,25.5c2.4,11.5,7.6,20.9,20.1,24.2
		c1.7,0.4,3.2,0.9,4.5-0.7C660.8,1201.4,667.7,1193.2,672.1,1183.1z"/>
	<path class="st15" d="M713.9,1143.3c-6.2-10.8-13.7-20.4-23.6-28c-1.5-1.1-1.3-2.6-1.5-4c-1.6-13.5-3.1-27.1-4.7-40.6
		c-0.3-2.3-0.2-5-1.4-6.8c-2.7-4.2-1.3-7.4,1.3-10.8c7-9.2,10.2-19.3,4.1-30.1c-6.6-11.7-17.3-17.6-30.6-18.8
		c-0.7-0.1-1.3-0.1-2-0.2c2.2-15.3,4.3-30.6,6.7-45.8c0.4-2.9,1-6.1,5.1-6.3c7.9,8.3,16.8,15.6,24.4,24.2
		c20.6,23.5,37,49.4,45.9,79.6c-0.8,5.2,1.3,10.1,1.3,15.2c0.2,20.1-5.3,38.6-14.9,56.1C721,1132.5,717.3,1137.8,713.9,1143.3z"/>
	<path class="st95" d="M593.7,1052.3c-5.3-7.9-4.9-16.3-1.6-24.7c1.6-4,5-4.3,8.8-3.4c11.1,2.9,20.9,8.6,30.4,14.7
		c11.9,7.6,23.3,16,36,22.3c4.5,2.2,6.2,6,6.7,10.8c2.5,23.8,5.1,47.5,7.7,71.3c1.6,14.4-0.6,27.8-9.6,39.6c-5.3,0.2-9.3,4-14.3,5.1
		c-6.9,1.6-12.6,0.3-16.2-5.5c-4.4-7.1-8.7-14.3-11.5-22.1c-2.8-8.1-7.3-14.8-13.5-20.6c-1.9-1.8-3.8-3.2-6.5-3.2
		c-0.6-2.5,0.1-4.9,0.7-7.3c1.1-4.9,3.5-7.2,8.9-5.7c2.4,0.7,5.5,1.3,7.2-1.7c1.6-2.9,0-5-2-7c-4-6.1-7.9-12.4-15.8-14.2
		c-1.7-3-1.2-6.2-0.8-9.3c1.4-9.4,4.4-10.8,12.8-6.3c1.9,1,3.8,2.1,5.8,2.9c2.6,1.1,5.3,1.6,7.2-1c2.1-2.9,0.4-5.3-1.7-7.4
		c-0.7-0.7-1.5-1.3-2.2-2c-3.1-5.8-8.3-9.8-13.4-13.6C609.7,1059.1,602.8,1053.7,593.7,1052.3z"/>
	<path class="st31" d="M713.9,1143.3c3.4-5.5,7-10.8,10.1-16.5c9.6-17.4,15-36,14.9-56.1c0-5.1-2.1-10-1.3-15.2
		c4.4,8.2,5.9,17.2,7.8,26.1c5.2,25.4,6,50.9-1.4,76.1c-5,17.3-14,32.2-27.8,45.2c0.7-7.2,1.7-13.6,2-20.1
		C718.6,1169.4,716.8,1156.3,713.9,1143.3z"/>
	<path class="st150" d="M674.7,1198.8c1.5-5.2,4.9-9.4,7.9-13.8c10.2-14.9,11-31.4,8.9-48.4c-0.4-3.6-0.1-7.3-1.3-10.9
		c11.7,10.1,18.3,22.5,17.5,38.2c-1.8,0.4-1.5,1.8-1.8,3.1c-2.3,13.6-5.3,26.6-17.7,35.3C682.3,1206.5,677.5,1205.7,674.7,1198.8z"
		/>
	<path class="st101" d="M674.7,1198.8c2.8,6.9,7.6,7.7,13.6,3.5c12.4-8.7,15.4-21.7,17.7-35.3c0.2-1.3,0-2.7,1.8-3.1
		c2.5,6.8,1.4,13.9,0.9,20.7c-0.6,8.4-2.3,16.8-4.9,24.8c-1.9,5.7-5.4,9.6-11.1,11.9c-6,2.4-12,4.8-18.4,6.1
		c-1.5,0.3-3.3,1.2-4.2-0.2c-2.4-4.1-5.6-7.8-6.9-12.5c-0.3-1.2-0.4-2.7,0.6-3.8C667.4,1206.8,671.1,1202.8,674.7,1198.8z"/>
	<path class="st19" d="M610.2,1136.8c2.7,0,4.7,1.5,6.5,3.2c6.1,5.8,10.7,12.5,13.5,20.6c2.7,7.8,7.1,15,11.5,22.1
		c3.6,5.8,9.2,7.1,16.2,5.5c5-1.1,9-4.9,14.3-5.1c-4.4,10-11.4,18.2-18.4,26.4c-1.3,1.5-2.8,1.1-4.5,0.7
		c-12.5-3.2-17.7-12.7-20.1-24.2c-1.7-8.4-2.8-17-4.1-25.5c-0.8-5-3.2-8.8-7.3-11.9C613.9,1145.8,609.2,1143,610.2,1136.8z"/>
	<path class="st150" d="M651.9,1021c1.2-4,3.7-6.1,8-6c8.4,0.3,19.3,8.6,21.6,16.7c1,3.6,1.5,7.2-1.6,10.2c-1.1,0.1-2.3,0.2-3.4,0.4
		c-11.5,2.6-20.2-2.9-23-14.3C652.8,1025.7,654,1023,651.9,1021z"/>
	<path class="st101" d="M651.9,1021c2.1,2,0.9,4.7,1.5,7c2.8,11.4,11.5,16.9,23,14.3c1.1-0.3,2.3-0.3,3.4-0.4
		c-0.1,3.6-3,5.8-4.3,8.8c-0.9,1.9-2.7,1.7-4.3,0.8c-8-4.4-15.8-9-23.3-14.2c-1.7-1.2-2.5-2.8-1.6-4.7
		C648.1,1028.6,650.1,1024.8,651.9,1021z"/>
	<path class="st19" d="M593.7,1052.3c9,1.3,16,6.8,23,11.9c5.1,3.8,10.3,7.7,13.4,13.6c-11.4-6.4-23.3-12-33.3-20.6
		C595.3,1056,593.8,1054.6,593.7,1052.3z"/>
	<path class="st101" d="M609.1,1100.9c7.8,1.9,11.8,8.1,15.8,14.2C618.1,1112,610.9,1109.4,609.1,1100.9z"/>
</g>
</svg>
