<?xml version="1.0" encoding="utf-8"?>
<!-- Generator: Adobe Illustrator 25.0.0, SVG Export Plug-In . SVG Version: 6.00 Build 0)  -->
<svg version="1.1" id="图层_1" xmlns="http://www.w3.org/2000/svg" xmlns:xlink="http://www.w3.org/1999/xlink" x="0px" y="0px"
	 viewBox="0 0 1200 1600" style="enable-background:new 0 0 1200 1600;" xml:space="preserve">
<style type="text/css">
	.st0{fill:#060604;}
	.st1{fill:#EDCF5D;}
	.st2{fill:#FBF1EE;}
	.st3{fill:#ECCF5D;}
	.st4{fill:#F4FB95;}
	.st5{fill:#A0918B;}
	.st6{fill:#FBFBFB;}
	.st7{fill:#927233;}
	.st8{fill:#935A40;}
	.st9{fill:#623C2A;}
	.st10{fill:#FEFEFE;}
	.st11{fill:#040302;}
	.st12{fill:#090805;}
	.st13{fill:#9C5B46;}
	.st14{fill:#070705;}
	.st15{fill:#ECCE5D;}
	.st16{fill:#F2F2F2;}
	.st17{fill:#93583F;}
	.st18{fill:#A1918B;}
	.st19{fill:#513123;}
	.st20{fill:#FAFAFA;}
	.st21{fill:#030202;}
	.st22{fill:#060605;}
	.st23{fill:#A0908A;}
	.st24{fill:#937234;}
	.st25{fill:#E6C95B;}
	.st26{fill:#864E37;}
	.st27{fill:#513124;}
	.st28{fill:#B0603E;}
	.st29{fill:#FAF0ED;}
	.st30{fill:#F9F9F9;}
	.st31{fill:#917133;}
	.st32{fill:#9E8F89;}
	.st33{fill:#E7CA5B;}
	.st34{fill:#92583F;}
	.st35{fill:#050503;}
	.st36{fill:#FCFBFB;}
	.st37{fill:#080704;}
	.st38{fill:#070605;}
	.st39{fill:#FAF1ED;}
	.st40{fill:#F4FA95;}
	.st41{fill:#F8F8F7;}
	.st42{fill:#90573E;}
	.st43{fill:#030302;}
	.st44{fill:#080805;}
	.st45{fill:#FBF1ED;}
	.st46{fill:#FBFBFA;}
	.st47{fill:#927234;}
	.st48{fill:#F69376;}
	.st49{fill:#7B2D2D;}
	.st50{fill:#FCFCFC;}
	.st51{fill:#EF5A2D;}
	.st52{fill:#F0CC2D;}
	.st53{fill:#9F8F8A;}
	.st54{fill:#FAFAF9;}
	.st55{fill:#F2A78E;}
	.st56{fill:#040403;}
	.st57{fill:#070604;}
	.st58{fill:#A0908B;}
	.st59{fill:#F7F7F7;}
	.st60{fill:#E8CB5B;}
	.st61{fill:#8F563E;}
	.st62{fill:#513224;}
	.st63{fill:#080705;}
	.st64{fill:#FCFCFB;}
	.st65{fill:#F9F8F8;}
	.st66{fill:#FAF0EC;}
	.st67{fill:#9F908A;}
	.st68{fill:#91573E;}
	.st69{fill:#070704;}
	.st70{fill:#F5FC96;}
	.st71{fill:#9C9C53;}
	.st72{fill:#9A9A52;}
	.st73{fill:#F2F994;}
	.st74{fill:#A17628;}
	.st75{fill:#90573F;}
	.st76{fill:#090806;}
	.st77{fill:#523123;}
	.st78{fill:#7C4031;}
	.st79{fill:#ED866D;}
	.st80{fill:#F3E9E6;}
	.st81{fill:#4F3023;}
	.st82{fill:#060606;}
	.st83{fill:#89533B;}
	.st84{fill:#050403;}
	.st85{fill:#090909;}
	.st86{fill:#EDCF5E;}
	.st87{fill:#050504;}
	.st88{fill:#060504;}
	.st89{fill:#955A41;}
	.st90{fill:#080703;}
	.st91{fill:#090807;}
	.st92{fill:#070603;}
	.st93{fill:#0A0905;}
	.st94{fill:#937335;}
	.st95{fill:#955A40;}
	.st96{fill:#955940;}
	.st97{fill:#EDD05E;}
	.st98{fill:#8F7032;}
	.st99{fill:#945940;}
	.st100{fill:#EED05E;}
	.st101{fill:#503123;}
	.st102{fill:#EEEEEE;}
	.st103{fill:#0D0C0A;}
	.st104{fill:#E3C659;}
	.st105{fill:#967535;}
	.st106{fill:#9D7D38;}
	.st107{fill:#745A29;}
	.st108{fill:#847334;}
	.st109{fill:#907134;}
	.st110{fill:#E5C85B;}
	.st111{fill:#503124;}
	.st112{fill:#927133;}
	.st113{fill:#E0DDD4;}
	.st114{fill:#987836;}
	.st115{fill:#977636;}
	.st116{fill:#CCC4A4;}
	.st117{fill:#523224;}
	.st118{fill:#0B0908;}
	.st119{fill:#8F7135;}
	.st120{fill:#050404;}
	.st121{fill:#EDD05D;}
	.st122{fill:#F3FA94;}
	.st123{fill:#9A9A51;}
	.st124{fill:#999951;}
	.st125{fill:#937334;}
	.st126{fill:#FAF0EE;}
	.st127{fill:#F3FA95;}
	.st128{fill:#989851;}
	.st129{fill:#A2792A;}
	.st130{fill:#F1F893;}
	.st131{fill:#A17729;}
	.st132{fill:#050502;}
	.st133{fill:#947335;}
	.st134{fill:#917233;}
	.st135{fill:#9B9B52;}
	.st136{fill:#F9EFEC;}
	.st137{fill:#9A782F;}
	.st138{fill:#979752;}
	.st139{fill:#F2F893;}
	.st140{fill:#8C8E4F;}
	.st141{fill:#B5B96E;}
	.st142{fill:#0F0F09;}
	.st143{fill:#9C9C52;}
	.st144{fill:#F5FB95;}
	.st145{fill:#F3F994;}
	.st146{fill:#A17728;}
	.st147{fill:#917134;}
	.st148{fill:#090706;}
	.st149{fill:#8E6F32;}
	.st150{fill:#93593F;}
	.st151{fill:#907033;}
	.st152{fill:#060505;}
	.st153{fill:#C8C3AF;}
	.st154{fill:#533324;}
	.st155{fill:#533426;}
	.st156{fill:#0E0C0A;}
	.st157{fill:#907133;}
	.st158{fill:#583627;}
	.st159{fill:#0A0907;}
	.st160{fill:#573526;}
	.st161{fill:#0C0B09;}
	.st162{fill:#503023;}
	.st163{fill:#543325;}
	.st164{fill:#B7B3A1;}
</style>
<g>
	<path class="st1" d="M631.5,1003.1c13.7-16.6,29.6-30.6,49.8-38.9c5.6-2.3,11.4-3.5,17.5-3.2c-0.3,2.7,0.1,5.2,1.6,7.6
		c30,50,13.8,114.9-23.3,149.7c-22.3,20.9-48.3,32.1-79.3,26.4c-27.2-5-46.4-21.2-58.7-45.7c1.1-0.4,2.2-0.7,3.2-1.3
		c25.6-13.8,49.3-30.6,72.9-47.5c5.5-3.9,11.6-7.1,15.8-12.6c7,0.9,14,1.5,19.9-3.5c2.4-2,4.3-4.6,2.6-7.8c-1.5-2.8-4.5-2.4-7.1-1.7
		c-1.3,0.3-2.6,0.7-3.8,1c-3.4,1-5.5,0.8-4-3.8c0.9-3-0.5-5.9-1.7-8.6C635.1,1009.8,633.3,1006.5,631.5,1003.1z"/>
	<path class="st87" d="M539.1,1099c12.3,24.5,31.5,40.8,58.7,45.7c30.9,5.7,57-5.6,79.3-26.4c37.2-34.8,53.4-99.7,23.3-149.7
		c-1.5-2.4-1.9-4.9-1.6-7.6c4.5-3.8,7-3.5,10.5,1.7c9.2,13.6,14.6,28.9,16.5,45.1c5.9,49.9-9.2,92.2-47.4,125.2
		c-24.9,21.5-54.3,30.7-86.9,22.6c-36.2-8.9-57.2-33.9-67.3-68.9c-0.9-3.1-1.5-5-5.3-4.5c-3.6,0.4-6.2-2-6.8-5.4
		c-2-10.8-3.2-21.8-1.4-32.7c0.6-4-0.5-4.3-3.5-4.7c-12.2-1.7-24.3-4.1-34.8-11.2c-9.5-6.4-12.9-15.2-10.7-26.4
		c0.9-4.4,1.9-8.8,3.6-12.9c1-2.3,0.8-4.1-0.8-5.9c-11.3-12.5-10.8-26.6-4.9-41.1c2.2-5.3,2.8-10.2,0.9-15.8
		c-1.9-5.5-2.4-11.4-2.2-17.3c0.4-10.1,3.7-14.5,13.2-17.5c7.3-2.3,14.9-3.6,22.6-4.1c13.3-0.8,26.5-3.2,39.9-1.4
		c2.8,0.4,2.8-1.4,3.2-3.3c2-11.2,4.8-22.1,9.1-32.6c5.3-13,13.3-23.8,26.1-30.3c8.2-4.1,16.7-5.6,25.6-3
		c15.3,4.5,23.8,21,19.9,38.6c-1,4.7-2.8,9.2-4.9,13.6c-1.9,3.9-3.6,8-6,11.5c-13.1,19.2-12.7,39.4-5.4,60.6
		c6.4,18.7,16.6,35.5,25.1,53.2c1.5,3.1,3.3,6.1,5,9.2c1.8,3.4,3.6,6.7,5.3,10.2c1.3,2.7,2.7,5.6,1.7,8.6c-1.4,4.6,0.6,4.7,4,3.8
		c1.3-0.4,2.6-0.7,3.8-1c2.7-0.7,5.6-1.1,7.1,1.7c1.7,3.2-0.3,5.8-2.6,7.8c-5.9,5-12.9,4.4-19.9,3.5c-2.6-1.5-4.9-0.8-7.4,0.6
		c-9.4,5.6-19.4,10.2-29.3,14.9c-19.7,9.2-39.8,17.6-60.3,25c-1.7,0.6-3.6,1.1-2.6,3.8C533.7,1087.7,535.4,1093.8,539.1,1099z
		 M521.4,1064.2c-0.3,7.2-0.3,7.2,6,4.8c25-9.2,49.2-20.4,73.1-32c7.9-3.8,15.9-7.6,22.7-13.5c2.8-2.5,3.1-4.6,1.2-7.7
		c-3.4-5.7-6.5-11.6-9.5-17.6c-10-19.9-21.5-39.1-27.3-61c-4.1-15.6-6.3-31.1,0.3-46.5c2.7-6.3,6-12.3,9.1-18.3
		c3.2-6.2,6.6-12.3,8.3-19.2c4.1-16-6.2-28.3-21.3-25.2c-3.1,0.6-6,1.8-8.8,3.5c-9.6,6-15.6,14.8-19.5,25.2
		c-3.7,9.7-6,19.7-8.1,29.8c-1.6,7.4-3.7,9.2-11.3,9.3c-10,0.1-20,0.2-29.9,1.3c-10.4,1.2-20.9,1.4-31,4.6c-4,1.3-5.7,3.6-5.5,7.7
		c0.2,5.9,1.2,11.6,2.9,17.2c1.6,5.3,1.6,10.4-0.7,15.6c-5.6,12.5-7.1,24.5,3.4,35.6c3.8,4,3.7,9,1.3,14c-1.6,3.3-2.6,6.8-3.2,10.5
		c-1.7,9.1,0.1,13.1,8.4,17.5c6.4,3.4,13.3,5.5,20.4,6.4c14.1,1.7,28,5.7,42.4,3c3-0.6,6,0.7,6,4.9c-4.7,5.1-11.5,6.2-17.3,9.3
		c-4.2,2.2-10.9,0.7-12.4,6.2C520,1054,521.2,1059.3,521.4,1064.2z"/>
	<path class="st7" d="M539.1,1099c-3.7-5.2-5.4-11.3-7.7-17.1c-1.1-2.6,0.8-3.1,2.6-3.8c20.5-7.4,40.5-15.8,60.3-25
		c9.9-4.6,19.9-9.3,29.3-14.9c2.5-1.5,4.8-2.1,7.4-0.6c-4.2,5.6-10.3,8.7-15.8,12.6c-23.6,16.9-47.3,33.7-72.9,47.5
		C541.3,1098.2,540.2,1098.6,539.1,1099z"/>
	<path class="st95" d="M550.9,1034c0-4.1-3-5.4-6-4.9c-14.4,2.7-28.3-1.4-42.4-3c-7.1-0.9-14-3-20.4-6.4c-8.3-4.3-10.1-8.4-8.4-17.5
		c0.7-3.6,1.7-7.1,3.2-10.5c2.3-5,2.4-10-1.3-14c-10.5-11.1-9-23.1-3.4-35.6c2.3-5.1,2.3-10.3,0.7-15.6c-1.7-5.6-2.7-11.3-2.9-17.2
		c-0.2-4.1,1.5-6.4,5.5-7.7c10.1-3.2,20.6-3.5,31-4.6c9.9-1.1,19.9-1.2,29.9-1.3c7.6-0.1,9.7-1.8,11.3-9.3
		c2.1-10.1,4.4-20.2,8.1-29.8c4-10.3,9.9-19.2,19.5-25.2c2.7-1.7,5.7-2.9,8.8-3.5c15-3,25.4,9.2,21.3,25.2c-1.8,6.8-5.1,13-8.3,19.2
		c-3.2,6-6.4,12.1-9.1,18.3c-6.6,15.4-4.4,30.9-0.3,46.5c5.8,21.8,17.3,41,27.3,61c3,5.9,6.1,11.8,9.5,17.6c1.8,3.1,1.6,5.3-1.2,7.7
		c-6.7,6-14.8,9.7-22.7,13.5c-23.9,11.7-48.1,22.8-73.1,32c-6.4,2.3-6.4,2.3-6-4.8c8.8-3.5,16.1-9.6,23.8-14.9
		c3.3-2.2,6.4-4.7,8.6-8C556.3,1037.4,555.2,1034.9,550.9,1034z"/>
	<path class="st62" d="M550.9,1034c4.3,0.9,5.4,3.5,2.9,7.3c-2.2,3.3-5.4,5.8-8.6,8c-7.7,5.3-14.9,11.4-23.8,14.9
		c-0.1-4.9-1.4-10.2-0.2-14.8c1.5-5.5,8.2-4,12.4-6.2C539.4,1040.2,546.2,1039.1,550.9,1034z"/>
</g>
</svg>
