<?xml version="1.0" encoding="utf-8"?>
<!-- Generator: Adobe Illustrator 25.0.0, SVG Export Plug-In . SVG Version: 6.00 Build 0)  -->
<svg version="1.1" id="图层_1" xmlns="http://www.w3.org/2000/svg" xmlns:xlink="http://www.w3.org/1999/xlink" x="0px" y="0px"
	 viewBox="0 0 1200 1600" style="enable-background:new 0 0 1200 1600;" xml:space="preserve">
<style type="text/css">
	.st0{fill:#060604;}
	.st1{fill:#EDCF5D;}
	.st2{fill:#FBF1EE;}
	.st3{fill:#ECCF5D;}
	.st4{fill:#F4FB95;}
	.st5{fill:#A0918B;}
	.st6{fill:#FBFBFB;}
	.st7{fill:#927233;}
	.st8{fill:#935A40;}
	.st9{fill:#623C2A;}
	.st10{fill:#FEFEFE;}
	.st11{fill:#040302;}
	.st12{fill:#090805;}
	.st13{fill:#9C5B46;}
	.st14{fill:#070705;}
	.st15{fill:#ECCE5D;}
	.st16{fill:#F2F2F2;}
	.st17{fill:#93583F;}
	.st18{fill:#A1918B;}
	.st19{fill:#513123;}
	.st20{fill:#FAFAFA;}
	.st21{fill:#030202;}
	.st22{fill:#060605;}
	.st23{fill:#A0908A;}
	.st24{fill:#937234;}
	.st25{fill:#E6C95B;}
	.st26{fill:#864E37;}
	.st27{fill:#513124;}
	.st28{fill:#B0603E;}
	.st29{fill:#FAF0ED;}
	.st30{fill:#F9F9F9;}
	.st31{fill:#917133;}
	.st32{fill:#9E8F89;}
	.st33{fill:#E7CA5B;}
	.st34{fill:#92583F;}
	.st35{fill:#050503;}
	.st36{fill:#FCFBFB;}
	.st37{fill:#080704;}
	.st38{fill:#070605;}
	.st39{fill:#FAF1ED;}
	.st40{fill:#F4FA95;}
	.st41{fill:#F8F8F7;}
	.st42{fill:#90573E;}
	.st43{fill:#030302;}
	.st44{fill:#080805;}
	.st45{fill:#FBF1ED;}
	.st46{fill:#FBFBFA;}
	.st47{fill:#927234;}
	.st48{fill:#F69376;}
	.st49{fill:#7B2D2D;}
	.st50{fill:#FCFCFC;}
	.st51{fill:#EF5A2D;}
	.st52{fill:#F0CC2D;}
	.st53{fill:#9F8F8A;}
	.st54{fill:#FAFAF9;}
	.st55{fill:#F2A78E;}
	.st56{fill:#040403;}
	.st57{fill:#070604;}
	.st58{fill:#A0908B;}
	.st59{fill:#F7F7F7;}
	.st60{fill:#E8CB5B;}
	.st61{fill:#8F563E;}
	.st62{fill:#513224;}
	.st63{fill:#080705;}
	.st64{fill:#FCFCFB;}
	.st65{fill:#F9F8F8;}
	.st66{fill:#FAF0EC;}
	.st67{fill:#9F908A;}
	.st68{fill:#91573E;}
	.st69{fill:#070704;}
	.st70{fill:#F5FC96;}
	.st71{fill:#9C9C53;}
	.st72{fill:#9A9A52;}
	.st73{fill:#F2F994;}
	.st74{fill:#A17628;}
	.st75{fill:#90573F;}
	.st76{fill:#090806;}
	.st77{fill:#523123;}
	.st78{fill:#7C4031;}
	.st79{fill:#ED866D;}
	.st80{fill:#F3E9E6;}
	.st81{fill:#4F3023;}
	.st82{fill:#060606;}
	.st83{fill:#89533B;}
	.st84{fill:#050403;}
	.st85{fill:#090909;}
	.st86{fill:#EDCF5E;}
	.st87{fill:#050504;}
	.st88{fill:#060504;}
	.st89{fill:#955A41;}
	.st90{fill:#080703;}
	.st91{fill:#090807;}
	.st92{fill:#070603;}
	.st93{fill:#0A0905;}
	.st94{fill:#937335;}
	.st95{fill:#955A40;}
	.st96{fill:#955940;}
	.st97{fill:#EDD05E;}
	.st98{fill:#8F7032;}
	.st99{fill:#945940;}
	.st100{fill:#EED05E;}
	.st101{fill:#503123;}
	.st102{fill:#EEEEEE;}
	.st103{fill:#0D0C0A;}
	.st104{fill:#E3C659;}
	.st105{fill:#967535;}
	.st106{fill:#9D7D38;}
	.st107{fill:#745A29;}
	.st108{fill:#847334;}
	.st109{fill:#907134;}
	.st110{fill:#E5C85B;}
	.st111{fill:#503124;}
	.st112{fill:#927133;}
	.st113{fill:#E0DDD4;}
	.st114{fill:#987836;}
	.st115{fill:#977636;}
	.st116{fill:#CCC4A4;}
	.st117{fill:#523224;}
	.st118{fill:#0B0908;}
	.st119{fill:#8F7135;}
	.st120{fill:#050404;}
	.st121{fill:#EDD05D;}
	.st122{fill:#F3FA94;}
	.st123{fill:#9A9A51;}
	.st124{fill:#999951;}
	.st125{fill:#937334;}
	.st126{fill:#FAF0EE;}
	.st127{fill:#F3FA95;}
	.st128{fill:#989851;}
	.st129{fill:#A2792A;}
	.st130{fill:#F1F893;}
	.st131{fill:#A17729;}
	.st132{fill:#050502;}
	.st133{fill:#947335;}
	.st134{fill:#917233;}
	.st135{fill:#9B9B52;}
	.st136{fill:#F9EFEC;}
	.st137{fill:#9A782F;}
	.st138{fill:#979752;}
	.st139{fill:#F2F893;}
	.st140{fill:#8C8E4F;}
	.st141{fill:#B5B96E;}
	.st142{fill:#0F0F09;}
	.st143{fill:#9C9C52;}
	.st144{fill:#F5FB95;}
	.st145{fill:#F3F994;}
	.st146{fill:#A17728;}
	.st147{fill:#917134;}
	.st148{fill:#090706;}
	.st149{fill:#8E6F32;}
	.st150{fill:#93593F;}
	.st151{fill:#907033;}
	.st152{fill:#060505;}
	.st153{fill:#C8C3AF;}
	.st154{fill:#533324;}
	.st155{fill:#533426;}
	.st156{fill:#0E0C0A;}
	.st157{fill:#907133;}
	.st158{fill:#583627;}
	.st159{fill:#0A0907;}
	.st160{fill:#573526;}
	.st161{fill:#0C0B09;}
	.st162{fill:#503023;}
	.st163{fill:#543325;}
	.st164{fill:#B7B3A1;}
</style>
<g>
	<path class="st0" d="M691.3,698.7c17.3-5.4,33.8-5.6,50.2-5.8c9-0.1,12.4,4,11.1,12.9c-2,13.4-8.2,24.8-16.2,35.5
		c-1.6,2.1-3.3,4.1-5.5,6.7c2.9,0.6,5.4,0.8,7.8,1.6c14.6,4.4,24.6,14.2,31.4,27.4c3.2,6.2,1.8,10.4-3.4,15.1
		c-18.7,16.7-40.7,24.7-65.7,24.4c-1.6,0-2.1,0.5-2.3,1.8c-0.2,1.8-0.7,3.7-0.5,5.4c1.1,8.3-1.7,15.2-6.2,22
		c-8.8,13.6-19.3,25.9-29.1,38.7c-6.6,8.7-16.2,13.7-25.6,18.8c-20.9,11.4-43.8,17.7-66.2,24.9c-32.6,10.4-64.6,21.9-93.7,40.3
		c-34.9,22.1-64.4,49.4-84.5,86c-5.6,10.2-9.9,11.2-19.5,4.1c-30.9-22.9-57-50.5-79.7-81.5c-17.1-23.4-30-48.5-37.4-76.6
		c-6.1-23.4-8.4-47.1-7.9-71.2c0.1-3.5,2.2-5.5,4.9-7c2.7-1.5,3.4-3.5,3.4-6.5c-0.1-12.8,1.4-25.6,0.1-38.4c-0.5-5-0.9-9.2-7.2-10.3
		c-3.4-0.6-6.2-3.2-7.8-6.5c-1.1-2.1-1-4.2,0.7-6c1.7-1.9,3.9-1.9,6-0.9c2.4,1.1,4.6,2.5,7.3,3.9c0.4-5.7,0.7-10.7,1-15.8
		c0-0.8-0.1-1.8-0.6-2.3c-11.5-12.6-17-28.5-23.3-43.8c-26-63-38.4-128.6-36.7-196.8c1.7-69.9,19-136.1,46.3-200.1
		c13.8-32.4,29.4-63.7,49.5-92.7c7.6-10.9,16.1-20.8,27.9-27.4c20.3-11.5,41.8-5.9,53.7,14.3c8,13.5,12.4,28.3,15.4,43.6
		c7.6,38.2,12.2,76.9,16.3,115.7c5.4,50.6,9.5,101.5,24.7,150.5c4.4,14.3,9.9,28.2,16.1,41.9c2,4.4,5.9,5.2,9.6,6.2
		c2.2,0.6,2.7-2.1,3.6-3.5c18.3-31,38.6-60.7,59-90.3c35-51.1,70.3-102,108.7-150.7c16.3-20.7,33.4-40.7,51.3-60
		c13.2-14.3,28.1-26.5,44.2-37.3c13.2-8.9,27.9-13.1,43.6-14.3c11.6-0.9,20.8,4.7,26.1,15.6c5.1,10.7,6.8,22.2,8,33.8
		c4.1,38.4,1.9,76.5-3.7,114.6c-6.2,42.3-12.3,84.7-19.2,126.9c-11.9,73-36.9,140.7-78.8,202C696.2,690.7,694.2,694.1,691.3,698.7z
		 M306.2,529.2c-0.6-0.4-1.1-0.2-1.6,0.2c-3.4,0.9-6.7,2.2-10.1,2.8c-17.9,3.3-28-6.9-25-24.8c2.1-12.6,6.2-24.4,12.3-35.6
		c9.9-18,21.4-34.9,34.5-50.7c1.2-1.5,2.9-2.7,2.9-5c0.1-12.4,3-24.4,4.3-36.6c3-28.1,6.7-56.1,5.7-84.5c-0.3-8-0.4-16-2.4-23.8
		c-1.8-6.8-6.1-8.8-12.5-6c-4,1.8-7.4,4.4-10.2,7.7c-8.3,8.3-14.9,17.7-20,28.4c-17.1,35.7-30.2,72.9-40.5,111.1
		c-10.2,37.9-16.6,76.3-15.4,115.7c0.6,20.5,4.1,40.6,6.8,60.9c3,21.9,8.5,42.9,17.2,63.2c1,2.3,1.9,4.5,4.4,5.5
		c6-13,11-26.2,18.4-38.2c2.6-4.3,6.1-5.2,10.6-3.9c4.8,1.4,9.1,4.1,13.6,6.1c2.9,1.9,5.9,3.6,8.8,5.6c1.4,0.9,2.4,1.3,3.8-0.2
		c1.5-1.6,0.7-2.4-0.5-3.6c-2.9-2.8-4.1-6.3-4.4-10.3c-0.4-5.7,0.1-11.3,2.4-16.6c0.6-1.5,1.9-3-1.1-3.5
		c-12.3-2.2-17.2-14.8-15.5-25.8c2-13.1,7.2-25.1,12.7-37.1C305.5,529.8,305.8,529.5,306.2,529.2
		C306.2,529.1,306.2,529.2,306.2,529.2z M306.1,732.7c0.5-1.7,1.1-3.5,1.6-5.2c0.4-1.4,1.5-3.1-0.2-4.1c-2.2-1.2-3,1.1-3.6,2.4
		c-4.6,9.9-7.5,20.2-7.9,31.2c-0.1,2.1,0.4,3.8,2.8,3.8c2.5,0,1.9-2.2,2.2-3.7c1.3-5.8,1.5-11.8,4-17.3c2.2,1.4,4.5,3.7,7,1.2
		c2.3-2.3-0.1-4.6-1.1-6.7C310.1,732.3,307.9,732.8,306.1,732.7z M273.9,717.8c-7,11-11.7,32-8.9,41.2c1.2-3.9,2.4-7.5,3.5-11
		c2.9-9.2,7.8-17.5,12.4-25.9c2.6-1.2,3.9-3.9,6-5.6c0.6-0.5,1.6-1.5,0.7-2c-3.4-1.9-6.9-4.3-10.6-5.1c-2.4-0.5-0.3,3.3-1.7,4.8
		C274.6,715.1,274.4,716.6,273.9,717.8z M274.9,708.4c-0.1-0.1-0.2-0.3-0.4-0.3c-0.5-0.2-0.6-0.1-0.4,0.4c0.1,0.1,0.3,0.2,0.4,0.2
		c0.1,0,0.2-0.2-0.5-0.7c-6.6-5-14.2-8.7-19.9-15c-4.8-7.9-5.6-16.2-1.8-24.7c0.4-0.9,0.7-1.7-0.1-2.7c-6.1-7.7-9.1-17-12.2-26
		c-11.4-33.3-15-68.1-17.8-102.8c-2.2-26.8,0.3-53.5,5-80c9.2-51.9,25.3-101.8,47-149.8c6.9-15.2,15.4-29.1,27.2-40.9
		c3.9-4,8.4-7,13.9-8.4c7.4-1.8,13.9,1.5,16.3,8.7c1.2,3.6,1.9,7.4,2.2,11.2c2.4,32.1,0.7,64.2-2.4,96.2
		c-1.1,11.3-2.7,22.5-4.1,33.3c3.1-2.8,6.4-5.8,9.7-8.9c1.1-1,2.3-1.7,3.5-0.8c1.4,1,0.8,2.6,0.1,3.6c-1.7,2.6-3.6,5.2-5.6,7.6
		C318,429,302.1,450.3,289,473.6c-6.1,10.8-10.5,22.2-12.4,34.5c-2,13.3,3.6,19,16.8,16.9c4.4-0.7,8.7-2.4,13.1-2.8
		c3-0.3,4.7-1.3,6.2-3.8c4.9-8.2,10.8-15.6,17.1-22.7c0.9-1,1.7-2.3,3.3-1.6c1.5,0.7,1.1,2.3,0.9,3.6c-0.3,2.8-2.2,4.8-3.8,6.9
		c-8.9,12.1-16.8,24.8-22.7,38.7c-3.9,9.4-7.4,18.9-7.3,29.3c0.1,8.1,5.3,13.5,13.3,14c7.4,0.5,8.1,2.1,4.3,8.4
		c-4.9,7.9-6.8,16.1-1.3,25.3c5.8-8,12.5-14.7,19.7-21c3.7-3.3,7.8-6.2,10.7-10.4c1.4,0.3,2.1-0.7,3-1.4c8.1-6.7,17.1-12.1,26.4-17
		c17.8-9.3,36.2-16.7,56.5-18.3c3-0.2,3.9-1,2.3-3.9c-2.3-4.4-4.3-9-6.5-13.4c-3.3-9.6-6.7-19.1-9.8-28.8
		c-13.4-42.7-18.2-86.9-22.9-131.1c-4.4-41.9-8.7-83.8-16.2-125.2c-3.1-17.1-6.9-34-15.3-49.4c-9.2-16.8-24.5-20.8-40.8-10.8
		c-9.6,5.9-16.5,14.4-22.8,23.5c-20.3,29.3-35.8,61.1-49.6,93.8c-38.2,90.6-54.3,184.2-37.3,282.1c7.7,44.5,20.8,87.3,41,127.8
		c1.3,2.6,2.6,5.2,4.2,8.4c2.7-5,4.9-9.4,7.8-13.4C268.9,709.5,270.9,707.8,274.9,708.4z M454.9,706.7c-3.6,0.4-7.5,0.6-8.8,4.8
		c-0.6,2-0.7,4.2,1.6,5.7c3.4,2.2,6.6,2.8,10,0.3c2.2,4.1,2.8,8.5,1.6,13.5c3.5-1.8,6.4-3.4,9.3-4.9c1.3-0.6,2.2-1.3,1.9-3
		c-1.9-8.5-3.6-16.9-10.6-23.1c-3.3-2.9-6.7-3.8-11.1-2.1C451.4,700.8,453.7,703.4,454.9,706.7z M274.2,796.4c4-1.3,4,2.1,5.4,4.3
		c0.7,1.1,0.3,4.2,2.9,2.8c3.5-1.8,6.8-4.2,10.2-6.3c1.5-0.9,1.3-2,0.7-3.4c-3.1-7.4-2.5-14.3,3.6-20c3.4-3.2,1.5-4.5-1.8-5.5
		c-4-1.1-7.4-3.3-6.8-7.9c1.6-13.9,4.1-27.6,11.7-39.8c-4.3-3-4.5-3.1-7.4-0.2c-11.7,11.7-17.4,26-18,42.4c-0.1,3.5-0.8,6.2-4.2,7.6
		c-1.9,0-3.9,0-6.3,0c4.7,14.1,2.9,28.1,3.4,42c8-3.1,8.2-3.4,7-11C274.1,799.7,274.2,798,274.2,796.4z M734.9,703.2
		c-9.3-0.1-18.6,0.7-27.7,2.2c-15.6,2.6-26.2,12.2-35.3,26.1c7.2-2.2,12.7-1.5,17.3,3.1c4.1,4.2,6.5,9.1,6.4,15.1
		c-0.4,2.9-0.8,5.7-1.3,9.1c2.2-1.1,4-1.9,5.7-3c1.4-0.9,2.6-3.2,4.5-1.1c1.6,1.8,0.8,3.9-0.5,5.4c-2.1,2.3-4.5,4.2-7.1,6.6
		c4.8,2.5,6,7.1,7.8,11.3c1.2,9,0.1,17.8-2.3,27c19.5-1,37.1-5.7,52.1-18.1c6.5-5.4,6.7-6.2,0.4-12.4c-0.1-0.1-0.3-0.2-0.4-0.3
		c-6.7-11.3-19.1-16.4-33.6-13.8c-3.1,0.6-6.6,1.4-8.5-2.2c-1.7-3.4,0.3-5.9,2.6-8.3c11-11.6,20.5-24.1,25.4-39.6
		C742.6,703,742.7,703,734.9,703.2z M351,1025c8.4,9.3,18.1,17.1,28.4,24.2c1.7,1.2,2.8,1.2,4-0.7c5.1-8.5,10.3-17,15.5-25.5
		c0.8-0.8,1.8-1.5,2.5-2.4c30.9-38.7,70.8-65.1,115.9-84.4c27.7-11.8,57-19.3,85.4-29.2c9.4-3.2,19.1-5.9,27.3-11.9
		c0.6-0.1,1.4-0.1,1.9-0.4c10.8-5.8,20.7-12.6,27.5-23.3c3-4.8,6.7-9.1,10.3-13.5c5.6-6.8,11.1-13.7,15.9-21.1c2-3.1,3.8-6.3,3-10.3
		c-1.3-6-0.5-11.8,1-17.7c1.9-7.1,4.1-14.1,4.5-21.4c0.2-2.9-0.7-4.1-3.8-4.2c-7.5-0.4-15-0.2-22.2,2.2c-3.8,1.2-6.5,0.5-7.8-3.5
		c0.8-3.3,3.8-4.5,6.1-6.4c3.1-1.4,6.3-2.9,9.4-4.3c8-3.6,12.6-15.7,9-23.7c-2.1-4.8-4.6-5.9-9.7-4.4c-4.8,0.7-9.2,2.3-13.7,3.9
		c-24.6,8.7-49,18.1-73.9,25.8c-28.3,8.8-57.6,11.9-87,14.6c-21.2,1.9-41.8-0.2-62.3-5.7c-13.3-3.6-26.8-6.9-40.7-7.3
		c-25.5-0.7-49.3,6-72,17.3c-22.4,11.2-43.5,24.4-64.6,37.7c-2,1.3-3,2.6-2.9,5.2c0.4,10.6-0.2,21.3,1.4,31.9
		c4.1,27.7,10.8,54.6,25.2,78.9c14.6,24.6,32.3,46.9,52.4,67.2C341.3,1017,345.6,1021.6,351,1025z M401.2,697.9
		c-1.6-2.8-2.3-5.9-3.1-8.9c-3.9-15-5.8-30.3-8.9-45.4c-1.3-6.3,0.3-8.3,6.7-9.6c29.4-5.9,59.1-10.7,88.3-17.9
		c14.6-3.6,14.6-3.5,19.7,10.1c3.1,14.2,4.6,28.7,5.9,43.2c0.5,5.6,1.5,11.4-0.7,16.7c-1.5,3.8-1.2,6.5,1.7,9.1
		c3,5.4,4.8,11.3,6.4,17.3c0.8,2.7,1.9,3.8,5,2.8c4.1-1.3,8.1-2.9,11.9-5c2-1.1,4.3-2.9,6.2-0.4c1.9,2.5-0.4,4.5-2,5.9
		c-6.3,5.6-13.3,10-21.6,12c-5.1-0.8-6.9-3.7-7.1-9c-0.4-8.4-3.2-16.2-8.1-23.2c-1.1-1.5-2.2-2.7-4.4-2.5
		c-9.9,0.9-19.7,1.6-30.7,2.5c8.2,7.8,9.9,17.6,12,27.3c1.1,5.2-0.4,8.2-5,10.5c-3.5,1.7-7.3,3-10.4,5.8c2.8,1.4,5.2,2.8,7.8,3.8
		c6,2.3,8,7,8.2,12.9c0.2,5.9-0.6,11.7-3.3,16.9c-1.7,3.3-0.7,4,2.5,3.9c7.3-0.4,14.6-0.5,21.9-1c9.3-0.6,9.3-0.7,11-10.2
		c0.2-1.3,0.6-2.6,0.7-3.9c0.3-3.1,1.7-4.9,4.9-5.3c3.1,1.7,3.1,4.5,2.4,7.4c-0.9,3.3-1.9,6.6-3,10.3c10.4-0.6,20.2-2.1,30.1-3.6
		c39.9-6.4,76.8-22.8,114.7-35.7c1.9-0.6,3-1.6,2.2-3.6c-1.6-4.1,0.4-7.6,2.2-10.8c7.7-13.6,15.3-27.3,24.1-40.3
		c39.7-58.4,64-122.8,75.6-192.2c7.4-43.8,13.6-87.8,20.1-131.8c5.4-36.4,7.6-72.9,3.7-109.6c-1.1-10.3-2.4-20.5-6.6-30.1
		c-3.5-7.9-8-10.9-16.4-10.3c-12.8,0.9-24.9,4.4-35.7,11.5c-15.1,9.9-29.1,21.2-41.5,34.3c-16.9,18-33,36.7-48.3,56
		C581.8,382.2,528.7,460.5,477,539.7c-5,7.7-9.7,15.5-16,22.3c-1.9,2.1-4.1,3.8-7,2.9c-10.6-3-21.2-1.8-31.7,0.2
		c-42.8,8.3-77.8,29.1-103.7,64.7c-2.1,2.9-1.6,4.3,1.1,6.2c7.8,5.5,15,11.6,21.9,18.2c7.3,6.9,10.3,15,6.8,24.8
		c-2.5,6.3-4.8,12.7-7.7,18.9c-3.9,8.4-7.1,17.3-13.4,24.3c-1.7,1.9-2.2,3.3-0.7,5.5c0.9,1.3,1.3,3,2,4.5
		c3.7,12.3,6.9,24.6,6.7,37.6c-0.1,3.9,1.2,4.7,5,3.2c9.9-3.9,20.1-6.8,30.7-8.4c10.1-1.5,20.2-2,30.3-1.7c1.3,0,3.5,1.1,3.1-2.1
		c-2.2-18.6,1.3-36.4,7.2-53.8c1.3-2,2.6-4,3.1-6.7C409.8,700.2,405.2,700.5,401.2,697.9z M417,690.9c24.1-2.1,49.9-4.2,75.8-6.6
		c8.9-0.8,9.2-1.3,8.8-10.4c-0.7-16-2.4-31.8-5.6-47.5c-0.9-4.2-2.6-4.9-6.5-3.9c-13.2,3.4-26.7,5.4-40.1,7.8
		c-16.3,2.9-32.8,5.4-48.8,10c-1.7,0.5-3.8,0.3-3.1,3.7c2.8,13,5,26.2,7.9,39.1C407.5,692.1,405.5,690.8,417,690.9z M341.9,671.6
		c0-4.6-1.9-7.5-4.2-9.8c-15.2-15.1-31.6-28.6-51-38.1c-4.3-2.1-6.7-1.1-8.6,3.1c-6.6,14.1-13.4,28.2-19.1,42.7
		c-4.2,10.6-3.4,16,7.3,23.4c14.4,10,30.3,17.4,46.5,23.9c4.2,1.7,7.1,1,9.5-3.3c6.2-11.4,12.7-22.7,17.4-34.8
		C340.6,676.1,341.3,673.3,341.9,671.6z M470.1,756.6c0-1.3,0.3-2.7-0.1-4c-1-3.5-4.3-4.3-7.1-4.4c-3.1-0.1-1.7,3-1.7,4.7
		c0,5.9-1.7,11.4-3.5,16.9c-0.5,1.5-3,4.2,0.5,4.5c2.9,0.2,7.2,4.6,9-1.6C468.8,767.4,469.9,762.1,470.1,756.6z M302,779.6
		c-3.5,3-4.5,6.1-3.2,9.8c0.4,1.2-0.6,4.2,2.4,2.9c1.7-0.7,4.6-1,3.4-4.3C303.7,785.5,303,783,302,779.6z"/>
	<path class="st1" d="M516.8,727.8c8.3-2,15.3-6.4,21.6-12c1.7-1.5,3.9-3.5,2-5.9c-1.9-2.5-4.2-0.7-6.2,0.4c-3.8,2.1-7.8,3.7-11.9,5
		c-3.1,1-4.2-0.1-5-2.8c-1.6-5.9-3.5-11.8-6.4-17.3c5.8-2.6,10.9-5.8,10-13.5c-0.6-5.4-1-10.9-1.9-16.2c-1.7-10.6-2.6-21.3-6-31.6
		c-1.5-4.5-3.9-7.7-9.1-7.7c-5.1-13.7-5.1-13.7-19.7-10.1c-29.2,7.2-58.9,12-88.3,17.9c-6.5,1.3-8.1,3.3-6.7,9.6
		c3.2,15.1,5.1,30.5,8.9,45.4c0.8,3.1,1.5,6.1,3.1,8.9c0.1,5.5,3.3,8.3,10.4,9.1c-6,17.5-9.5,35.3-7.2,53.8c0.4,3.2-1.8,2.2-3.1,2.1
		c-10.2-0.4-20.3,0.1-30.3,1.7c-10.6,1.6-20.8,4.6-30.7,8.4c-3.8,1.5-5,0.7-5-3.2c0.2-13-3-25.3-6.7-37.6
		c11.9-12,17.7-27.5,24.2-42.5c2.3-5.2,0.7-8.4-4.4-10.7c3.5-9.9,0.5-17.9-6.8-24.8c-6.9-6.6-14.1-12.7-21.9-18.2
		c-2.7-1.9-3.2-3.3-1.1-6.2c25.9-35.5,61-56.3,103.7-64.7c10.5-2,21.1-3.3,31.7-0.2c2.9,0.8,5.1-0.9,7-2.9c6.3-6.7,11-14.6,16-22.3
		c51.7-79.3,104.8-157.5,163.4-231.8c15.3-19.4,31.4-38,48.3-56c12.4-13.2,26.4-24.4,41.5-34.3c10.8-7.1,23-10.5,35.7-11.5
		c8.4-0.6,12.9,2.4,16.4,10.3c4.2,9.6,5.5,19.8,6.6,30.1c3.8,36.7,1.7,73.2-3.7,109.6c-6.5,44-12.7,88-20.1,131.8
		c-11.7,69.4-36,133.8-75.6,192.2c-8.8,13-16.4,26.7-24.1,40.3c-1.9,3.3-3.8,6.7-2.2,10.8c0.8,2-0.4,3-2.2,3.6
		c-37.9,12.9-74.7,29.3-114.7,35.7c-9.8,1.6-19.7,3-30.1,3.6c1.1-3.7,2.2-7,3-10.3c0.8-2.9,0.7-5.7-2.4-7.4
		C517.2,746.8,517.2,737.3,516.8,727.8z M658.5,684.7c3-0.1,4.7-2.1,6.6-4c14.9-15.3,24.3-34.1,33.7-52.8
		c24.2-48.5,37.3-100.7,51-152.6c10.9-41.4,17.2-83.8,24.4-126c3.6-21.2,6.8-42.4,6.6-64c-0.1-9.6-0.2-19.4-4.9-28.3
		c-5.1-9.8-11.8-12-21.3-6.3c-23.1,14-42,32.6-57.5,54.7c-1.1,1.6-2.3,3.4-2.7,5.3c-0.6,2.7-0.5,5.5,3.4,5.5
		c7.8,0,14.7,2.5,20.4,7.8c6.3,5.9,8.4,12.9,5.3,21.3c-2.8,7.5-7.2,13.8-13,19.2c-7.1,6.6-14.7,12.5-23.3,17c-2,1.1-3.7,2.5-3,5.1
		c0.6,2.5,2.8,2.5,4.8,2.5c3.5,0,6.9,0.6,10.3,1.5c13.3,3.8,16.8,11.7,10.6,24.2c-0.6,1.2-1.3,2.3-2,3.5c-7.5,12.9-18,23-30,31.7
		c-9.1,6.6-19.2,11.3-29.6,15.4c-1.9,0.8-3.7,1.7-4,4c-0.4,2.5,1.5,3.5,3.3,4.4c4.4,2.2,5.8,6.2,6.3,10.6c0.6,5.7-0.7,10.9-3.6,15.8
		c-7.1,12.4-16.2,23.2-27.3,32.2c-17.6,14.4-38.2,22.6-59.6,29.5c-19.5,6.3-39.6,8.6-59.6,11.8c-1.8,0.3-4.2,0.1-3.8,2.8
		c0.3,2.3,2.5,2.4,4.4,2.3c7.8-0.4,15.7-0.3,23.4-1.5c7.7-1.2,14.4,0.1,20.9,4.2c18,11.1,33.4,24.8,45.2,42.4
		c3.8,5.7,8,11.1,11.9,16.6c1.6,2.2,3.2,3.6,5.5,0.8c0.8,0.6,1.7,1.1,2.3,1.9c9.3,12.3,18.7,24.6,27.8,37.1
		C647.2,688.2,650,689.2,658.5,684.7z"/>
	<path class="st70" d="M666.3,775.3c-2.2,1.9-5.2,3.2-6.1,6.4c-10.6,4-20.9,8.7-31.8,11.7c-5.3,1.5-10.5,3.3-15.3,6
		c-3.5,2-8.4,3.3-6.8,8.9c1.5,5.5,6.4,3.7,10.1,3.7c12.8-0.3,25.7-0.6,38.1,3.1c8,2.4,15.6,5.7,20.6,13.2c2.1,3.2,2.2,5.7-0.2,9
		c-8.1,10.8-15.7,21.9-23.7,32.8c-6.1,8.2-10.6,17.8-20.3,22.8c-0.8,0.4-1.1,1.2-0.9,2.2c-8.2,6-17.9,8.7-27.3,11.9
		c-28.4,9.8-57.7,17.3-85.4,29.2c-45.1,19.2-84.9,45.7-115.9,84.4c-0.7,0.9-1.7,1.6-2.5,2.4c-1.9-0.3-3.6,0.3-5.3,0.8
		c-8.8,2.4-17.7,4-26.9,3.3c-5.2-0.4-10.4-1.3-15.7-2c-5.4-3.4-9.8-8-14.2-12.5c-20.2-20.3-37.8-42.6-52.4-67.2
		c-14.4-24.3-21-51.3-25.2-78.9c-1.6-10.6-1-21.3-1.4-31.9c-0.1-2.6,0.9-3.9,2.9-5.2c21.1-13.4,42.3-26.5,64.6-37.7
		c22.7-11.4,46.5-18.1,72-17.3c13.9,0.4,27.4,3.7,40.7,7.3c20.5,5.5,41.1,7.6,62.3,5.7c29.4-2.7,58.6-5.7,87-14.6
		c24.9-7.7,49.3-17.1,73.9-25.8c4.5-1.6,9-3.2,13.7-3.9c1.9,7.1-0.6,13.3-3.5,19.6C669.5,766.6,666.2,770.3,666.3,775.3z
		 M356.1,878.2c-0.1-5.5-0.2-9.6,0.6-13.8c0.7-3.9,1.4-7.9,1.8-11.8c0.2-2.9-0.5-5.8-4-6.6c-3.2-0.8-5.6,0.7-6.7,3.8
		c-0.9,2.5-1.4,5.1-1.8,7.7c-0.8,5.3-1.3,10.7-1.9,16.1c-1.9-0.3-2.1-1.7-2.8-2.5c-4.4-5.2-9-10.4-15-13.8c-4.1-2.4-8.4-1.9-9.7,1.2
		c-1.8,4,0.4,6.6,3.7,8.6c7.3,4.5,12.3,11,16.4,18.4c3.2,5.8,2.9,10.6-2.2,15.3c-0.9-1.1-1.8-2.3-2.7-3.4
		c-6.1-6.8-11.7-14.2-20.1-18.4c-3.2-1.6-6.7-2.4-8.8,1.3c-2.1,3.6-0.1,6.4,3,8.3c6.5,4,11.4,9.7,16.3,15.3c2.4,2.7,2.8,4.1-1.5,5
		c-5.2,1.1-10.2,2.9-15.2,4.7c-2.7,1-4.5,3.1-3.8,6.2c0.7,3.4,3.3,4.3,6.5,4.1c1.2-0.1,2.4-0.2,3.4-0.5c7.4-2.5,15.1-4.2,22.8-5.5
		c4.4-0.7,7.2-3,8.9-7c1.8-4.1,3.9-8,6.6-11.7c2.4-3.4,3.9-2.7,5.7,0.3c1.5,2.6,3.3,5,4.5,7.7c1.9,4.4,5.2,6.3,9.8,6.4
		c7,0.1,13.9,1.6,20.7,2.8c7.8,1.4,15,4.3,22.4,6.8c3.3,1.2,7.4,1.8,9-2.6c1.5-4.1-1.4-6.6-4.9-8c-4.6-1.8-9.3-3.5-14.1-5.1
		c-8.5-2.7-17.4-3.8-27.1-5.5c9-7.8,18.2-13.6,28.6-17.4c6-2.2,8-4.9,6.7-8.7c-1.2-3.5-5-4.2-10.9-2.1
		c-11.5,4.1-21.4,10.6-30.8,18.1c-1.2,0.9-2.3,3.1-4.1,1c-1.5-1.7-3.4-3.5-1.3-6.1c1.2-1.4,2.2-2.9,3.4-4.3
		c5.9-6.9,13.3-12.1,20.5-17.4c2.8-2.1,5.8-4.9,3.3-8.8c-2.6-4.1-6.3-2.5-9.7-0.6c-1.2,0.7-2.2,1.4-3.3,2.2
		C370.2,863.9,362.9,869.8,356.1,878.2z"/>
	<path class="st15" d="M255.2,716.9c-20.2-40.5-33.3-83.3-41-127.8c-16.9-97.9-0.9-191.5,37.3-282.1c13.8-32.7,29.3-64.6,49.6-93.8
		c6.3-9.1,13.2-17.6,22.8-23.5c16.3-10,31.6-6,40.8,10.8c8.4,15.4,12.2,32.3,15.3,49.4c7.5,41.5,11.8,83.4,16.2,125.2
		c4.7,44.2,9.4,88.4,22.9,131.1c3,9.7,6.5,19.2,9.8,28.8c-2.2-0.1-4.2,0.8-6.2,1.5c-23.8,8.3-44.9,21.1-63.8,37.7
		c-4.7,4.2-10.1,8.1-11.8,14.8c-2.9,4.1-7,7.1-10.7,10.4c-7.1,6.3-13.8,13-19.7,21c-5.5-9.2-3.6-17.4,1.3-25.3
		c3.9-6.3,3.2-7.8-4.3-8.4c-8-0.5-13.2-5.9-13.3-14c-0.1-10.4,3.4-19.9,7.3-29.3c5.8-13.9,13.8-26.5,22.7-38.7
		c1.6-2.1,3.5-4.1,3.8-6.9c0.1-1.3,0.6-2.8-0.9-3.6c-1.6-0.8-2.4,0.6-3.3,1.6c-6.3,7.1-12.2,14.5-17.1,22.7
		c-1.5,2.5-3.2,3.6-6.2,3.8c-4.4,0.4-8.7,2.1-13.1,2.8c-13.2,2.1-18.9-3.6-16.8-16.9c1.9-12.3,6.3-23.7,12.4-34.5
		c13.1-23.3,29-44.6,46.1-65.1c2-2.4,3.9-5,5.6-7.6c0.7-1.1,1.3-2.7-0.1-3.6c-1.3-0.9-2.5-0.1-3.5,0.8c-3.3,3-6.6,6.1-9.7,8.9
		c1.3-10.7,3-22,4.1-33.3c3.1-32,4.8-64.1,2.4-96.2c-0.3-3.8-1-7.6-2.2-11.2c-2.4-7.2-8.9-10.5-16.3-8.7c-5.5,1.3-10,4.4-13.9,8.4
		c-11.7,11.9-20.3,25.8-27.2,40.9c-21.8,48-37.8,97.9-47,149.8c-4.7,26.5-7.2,53.2-5,80c2.8,34.7,6.4,69.5,17.8,102.8
		c3.1,9,6.1,18.3,12.2,26c0.8,1,0.5,1.8,0.1,2.7c-3.8,8.5-3,16.8,1.8,24.7c-3.7,2.8-3.6,5.3,0.2,9.7
		C259.8,709.1,259.8,709.7,255.2,716.9z"/>
	<path class="st2" d="M299.1,621.6c-4.6-2-8.8-4.7-13.6-6.1c-4.5-1.3-8-0.4-10.6,3.9c-7.5,12-12.4,25.3-18.4,38.2
		c-2.5-1-3.4-3.2-4.4-5.5c-8.7-20.3-14.2-41.3-17.2-63.2c-2.7-20.3-6.3-40.4-6.8-60.9c-1.1-39.4,5.2-77.8,15.4-115.7
		c10.3-38.2,23.4-75.4,40.5-111.1c5.1-10.6,11.7-20,20-28.4c5.2,0.4,6.5,4.6,7.8,8.5c6.7,19.7,7.5,40.2,7.9,60.6
		c0.4,21.6-0.9,43.2-1.8,64.8c-0.1,3.5,0.7,7.8-1.8,10.6c-7.9,8.4-14.1,18.2-21.6,26.8c-16.4,18.8-27.8,40.2-31.8,65.1
		c-1.3,8.2-2.3,16.7,2,24.4c4.8,8.7,13.1,11.9,22.4,13.1c3.1,0.4,3.4,1.5,2.6,4.2c-1.4,4.8-2.6,9.6-3.8,14.5
		c-3.5,13.9-2.6,26.3,11.8,33.9c1.7,0.9,1.7,2.4,1.4,3.9C297.7,609.4,298,615.5,299.1,621.6z"/>
	<path class="st4" d="M417,690.9c-11.5-0.1-9.6,1.2-11.6-7.9c-2.9-13-5-26.1-7.9-39.1c-0.7-3.4,1.4-3.2,3.1-3.7
		c16-4.6,32.5-7.1,48.8-10c13.4-2.4,26.9-4.4,40.1-7.8c3.9-1,5.6-0.3,6.5,3.9c3.2,15.7,4.9,31.6,5.6,47.5c0.4,9.2,0.1,9.6-8.8,10.4
		C467,686.7,441.1,688.8,417,690.9z"/>
	<path class="st4" d="M341.9,671.6c-0.5,1.8-1.2,4.5-2.3,7.1c-4.8,12.1-11.2,23.4-17.4,34.8c-2.4,4.3-5.3,5-9.5,3.3
		c-16.3-6.5-32.1-13.9-46.5-23.9c-10.7-7.4-11.5-12.8-7.3-23.4c5.8-14.5,12.5-28.6,19.1-42.7c1.9-4.2,4.3-5.2,8.6-3.1
		c19.4,9.5,35.8,23,51,38.1C340,664.1,341.8,667,341.9,671.6z"/>
	<path class="st5" d="M299.1,621.6c-1-6.1-1.4-12.2-0.1-18.3c0.3-1.5,0.3-3-1.4-3.9c-14.4-7.6-15.3-20-11.8-33.9
		c1.2-4.8,2.4-9.7,3.8-14.5c0.8-2.7,0.5-3.8-2.6-4.2c-9.2-1.2-17.6-4.3-22.4-13.1c-4.3-7.8-3.3-16.3-2-24.4
		c4-24.8,15.3-46.2,31.8-65.1c7.5-8.7,13.8-18.4,21.6-26.8c2.5-2.7,1.6-7.1,1.8-10.6c0.9-21.6,2.3-43.2,1.8-64.8
		c-0.4-20.4-1.2-40.9-7.9-60.6c-1.3-3.9-2.6-8.1-7.8-8.5c2.8-3.3,6.2-6,10.2-7.7c6.4-2.8,10.7-0.9,12.5,6c2,7.8,2.1,15.8,2.4,23.8
		c1,28.4-2.7,56.4-5.7,84.5c-1.3,12.2-4.2,24.3-4.3,36.6c0,2.3-1.7,3.6-2.9,5c-13.1,15.8-24.6,32.7-34.5,50.7
		c-6.1,11.2-10.2,23-12.3,35.6c-3,17.9,7.1,28.1,25,24.8c3.4-0.6,6.7-1.8,10.1-2.8c0.2,0.3,0.4,0.5,0.6,0.8
		c-5.5,11.9-10.7,23.9-12.7,37.1c-1.7,10.9,3.3,23.6,15.5,25.8c3,0.6,1.7,2,1.1,3.5c-2.2,5.3-2.8,10.9-2.4,16.6
		c0.3,4,1.5,7.5,4.4,10.3c1.2,1.2,1.9,2,0.5,3.6c-1.4,1.5-2.4,1.2-3.8,0.2C305,625.3,302,623.5,299.1,621.6z"/>
	<path class="st20" d="M516.8,727.8c0.4,9.5,0.4,19.1,0,28.6c-3.2,0.3-4.6,2.2-4.9,5.3c-0.1,1.3-0.5,2.6-0.7,3.9
		c-1.7,9.5-1.7,9.6-11,10.2c-7.3,0.5-14.6,0.6-21.9,1c-3.2,0.2-4.2-0.5-2.5-3.9c2.7-5.3,3.5-11,3.3-16.9c-0.2-6-2.2-10.6-8.2-12.9
		c-2.6-1-5-2.4-7.8-3.8c3.1-2.9,6.9-4.1,10.4-5.8c4.5-2.3,6.1-5.3,5-10.5c-2.1-9.7-3.7-19.5-12-27.3c10.9-0.9,20.8-1.6,30.7-2.5
		c2.3-0.2,3.4,1,4.4,2.5c4.9,6.9,7.7,14.8,8.1,23.2C509.9,724.1,511.7,726.9,516.8,727.8z"/>
	<path class="st71" d="M630,895c-0.2-0.9,0.1-1.8,0.9-2.2c9.7-5,14.3-14.6,20.3-22.8c8-10.8,15.6-22,23.7-32.8
		c2.4-3.2,2.3-5.8,0.2-9c-4.9-7.5-12.5-10.8-20.6-13.2c-12.5-3.8-25.3-3.4-38.1-3.1c-3.8,0.1-8.6,1.8-10.1-3.7
		c-1.6-5.6,3.3-6.9,6.8-8.9c4.8-2.7,10-4.6,15.3-6c10.9-3,21.2-7.8,31.8-11.7c1.3,4,4,4.8,7.8,3.5c7.2-2.3,14.7-2.6,22.2-2.2
		c3.1,0.2,4,1.3,3.8,4.2c-0.4,7.4-2.6,14.4-4.5,21.4c-1.6,5.9-2.3,11.7-1,17.7c0.8,3.9-1,7.2-3,10.3c-4.8,7.4-10.3,14.3-15.9,21.1
		c-3.6,4.4-7.3,8.7-10.3,13.5c-6.7,10.7-16.7,17.5-27.5,23.3C631.3,894.9,630.6,894.9,630,895z"/>
	<path class="st72" d="M704.5,778.2c-1.8-4.3-3-8.9-7.8-11.3c2.6-2.4,5-4.4,7.1-6.6c1.4-1.5,2.2-3.6,0.5-5.4
		c-1.9-2.1-3.1,0.2-4.5,1.1c-1.6,1.1-3.5,1.8-5.7,3c0.5-3.4,0.9-6.3,1.3-9.1c0.7-0.3,1.6-0.5,2.2-1c15.4-11.8,26.2-27.5,36.8-43.2
		c0.4-0.6,0.3-1.6,0.4-2.4c7.8-0.2,7.8-0.2,5.3,7.4c-4.9,15.5-14.4,28.1-25.4,39.6c-2.3,2.5-4.4,5-2.6,8.3c1.9,3.6,5.4,2.7,8.5,2.2
		c14.5-2.6,26.9,2.5,33.6,13.8c-4.8,0.6-9.4-1.3-14.2-1.6C727.8,772.2,716.1,774.4,704.5,778.2z"/>
	<path class="st73" d="M734.9,703.2c-0.1,0.8,0,1.8-0.4,2.4c-10.7,15.8-21.4,31.5-36.8,43.2c-0.6,0.5-1.5,0.6-2.2,1
		c0.2-6-2.2-10.9-6.4-15.1c-4.6-4.7-10.1-5.3-17.3-3.1c9.1-13.9,19.7-23.5,35.3-26.1C716.3,704,725.6,703.1,734.9,703.2z"/>
	<path class="st20" d="M270.3,770.4c3.5-1.4,4.1-4,4.2-7.6c0.6-16.4,6.2-30.7,18-42.4c2.9-2.9,3.1-2.8,7.4,0.2
		c-7.5,12.2-10,25.9-11.7,39.8c-0.5,4.6,2.8,6.8,6.8,7.9c3.3,0.9,5.3,2.3,1.8,5.5c-6.2,5.8-6.7,12.6-3.6,20c0.6,1.4,0.8,2.5-0.7,3.4
		c-3.4,2.1-6.6,4.4-10.2,6.3c-2.6,1.4-2.2-1.7-2.9-2.8c-1.3-2.1-1.4-5.5-5.4-4.3C271.3,787.9,271.2,779.1,270.3,770.4z"/>
	<path class="st73" d="M704.5,778.2c11.6-3.8,23.3-6,35.6-5.3c4.8,0.3,9.3,2.1,14.2,1.6c0.1,0.1,0.3,0.1,0.4,0.3
		c6.3,6.2,6.2,7-0.4,12.4c-15,12.4-32.6,17-52.1,18.1C704.6,796.1,705.7,787.2,704.5,778.2z"/>
	<path class="st7" d="M346.9,588.9c1.7-6.7,7.1-10.6,11.8-14.8c18.8-16.6,40-29.4,63.8-37.7c2-0.7,4-1.7,6.2-1.5
		c2.1,4.5,4.1,9.1,6.5,13.4c1.5,2.9,0.6,3.7-2.3,3.9c-20.3,1.6-38.7,9-56.5,18.3c-9.3,4.9-18.3,10.2-26.4,17
		C349.1,588.2,348.3,589.3,346.9,588.9z"/>
	<path class="st7" d="M503.9,626.1c5.2,0,7.6,3.2,9.1,7.7c3.4,10.3,4.3,21,6,31.6c0.9,5.4,1.2,10.8,1.9,16.2
		c0.9,7.7-4.2,10.8-10,13.5c-3-2.6-3.3-5.3-1.7-9.1c2.2-5.3,1.2-11.1,0.7-16.7C508.5,654.8,507.1,640.3,503.9,626.1z"/>
	<path class="st72" d="M351,1025c5.2,0.7,10.4,1.5,15.7,2c9.2,0.8,18.1-0.8,26.9-3.3c1.8-0.5,3.5-1.1,5.3-0.8
		c-5.2,8.5-10.4,17-15.5,25.5c-1.2,2-2.3,1.9-4,0.7C369.2,1042,359.5,1034.2,351,1025z"/>
	<path class="st7" d="M348.4,679.1c5.1,2.3,6.7,5.5,4.4,10.7c-6.6,15-12.4,30.5-24.2,42.5c-0.6-1.5-1.1-3.2-2-4.5
		c-1.5-2.2-1-3.5,0.7-5.5c6.3-7,9.5-15.9,13.4-24.3C343.6,691.8,345.9,685.4,348.4,679.1z"/>
	<path class="st72" d="M666.3,775.3c-0.1-5,3.3-8.6,5.2-12.8c3-6.3,5.4-12.5,3.5-19.6c5.1-1.5,7.6-0.4,9.7,4.4
		c3.5,8-1.1,20.1-9,23.7C672.5,772.4,669.4,773.8,666.3,775.3z"/>
	<path class="st42" d="M454.9,706.7c-1.2-3.3-3.5-5.9-6.2-8.8c4.5-1.7,7.8-0.8,11.1,2.1c7,6.2,8.7,14.6,10.6,23.1
		c0.4,1.7-0.6,2.4-1.9,3c-2.9,1.5-5.9,3.1-9.3,4.9c1.3-5,0.6-9.4-1.6-13.5C460.6,712,460,709.8,454.9,706.7z"/>
	<path class="st7" d="M255.2,716.9c4.7-7.3,4.7-7.8-0.8-14.2c-3.8-4.4-3.8-6.9-0.2-9.7c5.6,6.3,13.2,10,19.9,15
		c-3.2-0.2-5.2,1.5-6.9,3.9c-2.9,4-5.1,8.4-7.8,13.4C257.7,722.1,256.5,719.5,255.2,716.9z"/>
	<path class="st15" d="M270.3,770.4c0.9,8.7,1.1,17.6,3.9,26c0.1,1.7-0.1,3.3,0.2,5c1.2,7.6,1,7.9-7,11c-0.5-13.9,1.3-27.9-3.4-42
		C266.4,770.4,268.3,770.4,270.3,770.4z"/>
	<path class="st42" d="M470.1,756.6c-0.1,5.5-1.3,10.8-2.8,16.1c-1.8,6.2-6.1,1.8-9,1.6c-3.6-0.2-1-3-0.5-4.5
		c1.9-5.5,3.6-11,3.5-16.9c0-1.6-1.4-4.8,1.7-4.7c2.7,0.1,6.1,0.9,7.1,4.4C470.4,753.8,470.1,755.2,470.1,756.6z"/>
	<path class="st15" d="M280.9,722.2c-4.6,8.4-9.5,16.7-12.4,25.9c-1.1,3.6-2.3,7.1-3.5,11c-2.8-9.2,1.8-30.2,8.9-41.2
		C276.3,719.2,278,721.6,280.9,722.2z"/>
	<path class="st42" d="M305,739.8c-2.5,5.5-2.7,11.5-4,17.3c-0.3,1.5,0.3,3.7-2.2,3.7c-2.4,0-2.9-1.7-2.8-3.8
		c0.4-11,3.3-21.3,7.9-31.2c0.6-1.3,1.4-3.6,3.6-2.4c1.7,0.9,0.5,2.7,0.2,4.1c-0.5,1.8-1,3.5-1.6,5.2
		C303.4,734.7,303.6,737.2,305,739.8z"/>
	<path class="st20" d="M454.9,706.7c5.1,3,5.7,5.3,2.8,10.7c-3.4,2.5-6.7,1.9-10-0.3c-2.3-1.5-2.2-3.7-1.6-5.7
		C447.4,707.3,451.3,707.1,454.9,706.7z"/>
	<path class="st7" d="M280.9,722.2c-2.9-0.5-4.6-3-7-4.3c0.5-1.2,0.7-2.7,1.5-3.6c1.3-1.5-0.8-5.3,1.7-4.8c3.7,0.8,7.2,3.2,10.6,5.1
		c0.8,0.5-0.1,1.5-0.7,2C284.8,718.2,283.5,720.9,280.9,722.2z"/>
	<path class="st7" d="M411.6,707c-7.2-0.8-10.4-3.6-10.4-9.1c4,2.6,8.7,2.3,13.5,2.4C414.2,703,412.9,705,411.6,707z"/>
	<path class="st2" d="M305,739.8c-1.5-2.6-1.6-5.1,1.1-7.1c1.8,0.1,4-0.4,4.9,1.6c0.9,2.1,3.4,4.4,1.1,6.7
		C309.6,743.5,307.2,741.2,305,739.8z"/>
	<path class="st42" d="M302,779.6c1,3.3,1.7,5.9,2.6,8.3c1.2,3.4-1.7,3.6-3.4,4.3c-3,1.3-2-1.7-2.4-2.9
		C297.5,785.8,298.5,782.6,302,779.6z"/>
	<path class="st7" d="M274.9,708.4c-0.1,0.1-0.2,0.3-0.3,0.3c-0.1,0-0.3-0.1-0.4-0.2c-0.2-0.5-0.1-0.6,0.4-0.4
		C274.7,708.1,274.8,708.3,274.9,708.4z"/>
	<path class="st5" d="M306.1,529.1c-0.3,0.4-0.6,0.7-0.9,1.1c-0.2-0.2-0.5-0.5-0.6-0.8C305.1,529,305.6,528.7,306.1,529.1
		L306.1,529.1z"/>
	<path class="st5" d="M306.2,529.2C306.2,529.2,306.2,529.1,306.2,529.2C306.1,529.1,306.2,529.2,306.2,529.2z"/>
	<path class="st2" d="M658.5,684.7c-8.5,4.4-11.3,3.5-17-4.3c-9.1-12.5-18.5-24.7-27.8-37.1c-0.6-0.8-1.5-1.3-2.3-1.9
		c0-2.2-1-4.1-2-6.1c-10.3-21.2-24.8-38.9-43.5-53.2c4.6-0.5,9.3-0.7,13.8-1.7c31.1-6.6,57-21.3,75.3-48.2
		c11.1-16.4,17.4-33.6,11.7-53.5c-0.8-2.7,0.5-3.1,2.4-3.7c11.1-3.6,20.7-9.7,30.2-16.3c12-8.4,21.4-18.8,27.4-32.3
		c6.4-14.4,2.6-30.7-9.8-39.2c-3.9-2.7-4.2-3.6,0-6.3c13.7-9,21.6-21.7,20.9-38.4c-0.3-8.2-3.5-15.7-10.8-20.5
		c-1.7-1.7-3.4-3.3-5.1-5c0-0.5,0.1-1.2-0.2-1.4c-7.9-4-5.3-10.2-3.2-16.1c1.3-3.6,1.9-7,0.2-10.6c11.4-11.6,23-23.1,37.2-31.5
		c8.1-4.8,11.6-3.5,14.9,5.4c0.5,1.4,0.8,2.9,1.1,4.3c3.4,18.8,2.3,37.6-0.9,56.1c-6.6,37.1-12.6,74.4-20.2,111.4
		c-11,53.8-25.7,106.6-45.3,158c-11.8,31.1-27,60.7-47.7,87.2C656.2,682,656.7,683.3,658.5,684.7z"/>
	<path class="st63" d="M722,317c1.7,1.7,3.4,3.3,5.1,5c-0.4,1.2,0.5,1.9,1,2.7c4.8,7.4,5.3,15.1,2.2,23.3
		c-2.9,7.8-7.4,14.5-13.2,20.4c-5.5,5.5-11.4,10.5-18.2,15.2c1.6,0.5,2.5,0.8,3.4,1.1c15.6,4.6,21.1,14.9,15.2,30.2
		c-5.8,14.9-16.3,26.6-28.5,36.7c-9.9,8.2-20.5,15.1-32.8,19.8c2.8,3.3,4.4,6.7,5,10.6c1.5,8.7-0.9,16.5-5.5,23.7
		c-6.8,10.7-15,20.4-24.4,28.9c-18.9,17.2-41.8,26.9-65.8,34.5c-4.4,1.4-8.9,2.8-13.9,4.4c5.3,3.2,9.8,6,14.3,8.7
		c18.7,14.3,33.2,32,43.5,53.2c1,2,1.9,3.9,2,6.1c-2.3,2.8-3.9,1.4-5.5-0.8c-4-5.5-8.1-11-11.9-16.6c-11.8-17.6-27.2-31.3-45.2-42.4
		c-6.5-4-13.2-5.3-20.9-4.2c-7.7,1.2-15.6,1.1-23.4,1.5c-1.8,0.1-4.1,0-4.4-2.3c-0.4-2.7,2-2.5,3.8-2.8c20-3.1,40.2-5.5,59.6-11.8
		c21.4-6.9,42-15.1,59.6-29.5c11.1-9,20.1-19.8,27.3-32.2c2.8-4.9,4.2-10.1,3.6-15.8c-0.5-4.5-1.9-8.4-6.3-10.6
		c-1.8-0.9-3.7-1.9-3.3-4.4c0.3-2.3,2.1-3.3,4-4c10.4-4.1,20.5-8.8,29.6-15.4c12-8.7,22.5-18.8,30-31.7c0.7-1.1,1.4-2.3,2-3.5
		c6.2-12.5,2.8-20.4-10.6-24.2c-3.4-1-6.8-1.5-10.3-1.5c-2.1,0-4.2,0-4.8-2.5c-0.7-2.6,1-4.1,3-5.1c8.6-4.5,16.2-10.4,23.3-17
		c5.8-5.4,10.2-11.8,13-19.2c3.2-8.4,1-15.4-5.3-21.3c-5.7-5.3-12.6-7.8-20.4-7.8c-3.9,0-4-2.8-3.4-5.5c0.4-1.9,1.6-3.7,2.7-5.3
		c15.5-22.1,34.4-40.6,57.5-54.7c9.5-5.8,16.1-3.6,21.3,6.3c4.6,8.9,4.7,18.7,4.9,28.3c0.3,21.5-3,42.8-6.6,64
		c-7.2,42.2-13.4,84.6-24.4,126c-13.7,51.9-26.9,104.1-51,152.6c-9.4,18.8-18.8,37.5-33.7,52.8c-1.9,1.9-3.6,3.9-6.6,4
		c-1.8-1.5-2.3-2.8-0.5-5c20.7-26.4,35.9-56,47.7-87.2c19.5-51.3,34.2-104.1,45.3-158c7.6-37,13.6-74.2,20.2-111.4
		c3.3-18.5,4.3-37.3,0.9-56.1c-0.3-1.5-0.6-2.9-1.1-4.3c-3.3-8.9-6.8-10.2-14.9-5.4c-14.2,8.4-25.8,19.9-37.2,31.5
		c-6.4,6.5-11.9,13.7-17.7,22.2C710.1,309.9,715.8,314.2,722,317z"/>
	<path class="st74" d="M356.1,878.2c6.8-8.4,14.1-14.3,21.9-19.8c1.1-0.8,2.2-1.5,3.3-2.2c3.4-1.9,7-3.5,9.7,0.6
		c2.5,3.9-0.4,6.7-3.3,8.8c-7.2,5.3-14.6,10.5-20.5,17.4c-1.2,1.4-2.3,2.9-3.4,4.3c-2.1,2.6-0.2,4.4,1.3,6.1c1.8,2.1,2.9-0.1,4.1-1
		c9.4-7.5,19.4-14.1,30.8-18.1c5.9-2.1,9.7-1.3,10.9,2.1c1.3,3.8-0.7,6.5-6.7,8.7c-10.4,3.8-19.5,9.5-28.6,17.4
		c9.7,1.7,18.6,2.7,27.1,5.5c4.7,1.5,9.4,3.2,14.1,5.1c3.5,1.4,6.4,3.8,4.9,8c-1.6,4.4-5.7,3.7-9,2.6c-7.4-2.6-14.6-5.5-22.4-6.8
		c-6.9-1.2-13.7-2.7-20.7-2.8c-4.6-0.1-7.8-2.1-9.8-6.4c-1.2-2.7-3-5.2-4.5-7.7c-1.7-3-3.2-3.7-5.7-0.3c-2.6,3.7-4.8,7.6-6.6,11.7
		c-1.8,4-4.5,6.3-8.9,7c-7.7,1.2-15.3,2.9-22.8,5.5c-1.1,0.4-2.3,0.5-3.4,0.5c-3.2,0.2-5.7-0.7-6.5-4.1c-0.7-3.1,1.2-5.3,3.8-6.2
		c5-1.8,10.1-3.6,15.2-4.7c4.4-0.9,3.9-2.3,1.5-5c-4.9-5.7-9.8-11.4-16.3-15.3c-3.2-1.9-5.1-4.7-3-8.3c2.1-3.7,5.6-2.9,8.8-1.3
		c8.4,4.2,14,11.6,20.1,18.4c1,1.1,1.8,2.2,2.7,3.4c5.1-4.7,5.4-9.5,2.2-15.3c-4.1-7.5-9.1-13.9-16.4-18.4c-3.3-2.1-5.5-4.6-3.7-8.6
		c1.4-3,5.6-3.5,9.7-1.2c6,3.4,10.6,8.6,15,13.8c0.7,0.8,1,2.2,2.8,2.5c0.6-5.4,1.2-10.8,1.9-16.1c0.4-2.6,0.9-5.3,1.8-7.7
		c1.1-3.1,3.4-4.5,6.7-3.8c3.4,0.8,4.2,3.7,4,6.6c-0.3,4-1,7.9-1.8,11.8C355.9,868.6,356,872.7,356.1,878.2z"/>
	<path class="st5" d="M566,582.2c-4.5-2.7-9-5.5-14.3-8.7c5-1.6,9.4-2.9,13.9-4.4c24-7.6,46.9-17.3,65.8-34.5
		c9.4-8.6,17.6-18.2,24.4-28.9c4.6-7.2,7-15,5.5-23.7c-0.7-3.9-2.2-7.3-5-10.6c12.3-4.6,22.9-11.6,32.8-19.8
		c12.2-10.1,22.7-21.8,28.5-36.7c6-15.3,0.5-25.6-15.2-30.2c-0.9-0.3-1.9-0.6-3.4-1.1c6.8-4.7,12.7-9.7,18.2-15.2
		c5.8-5.9,10.3-12.6,13.2-20.4c3.1-8.2,2.6-15.9-2.2-23.3c-0.5-0.8-1.4-1.5-1-2.7c7.4,4.9,10.5,12.3,10.8,20.5
		c0.7,16.8-7.3,29.4-20.9,38.4c-4.2,2.8-3.8,3.7,0,6.3c12.3,8.5,16.2,24.8,9.8,39.2c-6,13.4-15.5,23.9-27.4,32.3
		c-9.4,6.6-19.1,12.7-30.2,16.3c-1.9,0.6-3.2,1-2.4,3.7c5.7,19.9-0.5,37.1-11.7,53.5c-18.2,26.9-44.1,41.6-75.3,48.2
		C575.3,581.5,570.6,581.6,566,582.2z"/>
	<path class="st5" d="M722,317c-6.2-2.8-11.9-7.2-20.8-5.8c5.8-8.6,11.4-15.7,17.7-22.2c1.6,3.6,1.1,7-0.2,10.6
		c-2.1,5.9-4.7,12.1,3.2,16.1C722.1,315.8,722,316.6,722,317z"/>
</g>
</svg>
