<?xml version="1.0" encoding="utf-8"?>
<!-- Generator: Adobe Illustrator 25.0.0, SVG Export Plug-In . SVG Version: 6.00 Build 0)  -->
<svg version="1.1" id="图层_1" xmlns="http://www.w3.org/2000/svg" xmlns:xlink="http://www.w3.org/1999/xlink" x="0px" y="0px"
	 viewBox="0 0 1200 1600" style="enable-background:new 0 0 1200 1600;" xml:space="preserve">
<style type="text/css">
	.st0{fill:#060604;}
	.st1{fill:#EDCF5D;}
	.st2{fill:#FBF1EE;}
	.st3{fill:#ECCF5D;}
	.st4{fill:#F4FB95;}
	.st5{fill:#A0918B;}
	.st6{fill:#FBFBFB;}
	.st7{fill:#927233;}
	.st8{fill:#935A40;}
	.st9{fill:#623C2A;}
	.st10{fill:#FEFEFE;}
	.st11{fill:#040302;}
	.st12{fill:#090805;}
	.st13{fill:#9C5B46;}
	.st14{fill:#070705;}
	.st15{fill:#ECCE5D;}
	.st16{fill:#F2F2F2;}
	.st17{fill:#93583F;}
	.st18{fill:#A1918B;}
	.st19{fill:#513123;}
	.st20{fill:#FAFAFA;}
	.st21{fill:#030202;}
	.st22{fill:#060605;}
	.st23{fill:#A0908A;}
	.st24{fill:#937234;}
	.st25{fill:#E6C95B;}
	.st26{fill:#864E37;}
	.st27{fill:#513124;}
	.st28{fill:#B0603E;}
	.st29{fill:#FAF0ED;}
	.st30{fill:#F9F9F9;}
	.st31{fill:#917133;}
	.st32{fill:#9E8F89;}
	.st33{fill:#E7CA5B;}
	.st34{fill:#92583F;}
	.st35{fill:#050503;}
	.st36{fill:#FCFBFB;}
	.st37{fill:#080704;}
	.st38{fill:#070605;}
	.st39{fill:#FAF1ED;}
	.st40{fill:#F4FA95;}
	.st41{fill:#F8F8F7;}
	.st42{fill:#90573E;}
	.st43{fill:#030302;}
	.st44{fill:#080805;}
	.st45{fill:#FBF1ED;}
	.st46{fill:#FBFBFA;}
	.st47{fill:#927234;}
	.st48{fill:#F69376;}
	.st49{fill:#7B2D2D;}
	.st50{fill:#FCFCFC;}
	.st51{fill:#EF5A2D;}
	.st52{fill:#F0CC2D;}
	.st53{fill:#9F8F8A;}
	.st54{fill:#FAFAF9;}
	.st55{fill:#F2A78E;}
	.st56{fill:#040403;}
	.st57{fill:#070604;}
	.st58{fill:#A0908B;}
	.st59{fill:#F7F7F7;}
	.st60{fill:#E8CB5B;}
	.st61{fill:#8F563E;}
	.st62{fill:#513224;}
	.st63{fill:#080705;}
	.st64{fill:#FCFCFB;}
	.st65{fill:#F9F8F8;}
	.st66{fill:#FAF0EC;}
	.st67{fill:#9F908A;}
	.st68{fill:#91573E;}
	.st69{fill:#070704;}
	.st70{fill:#F5FC96;}
	.st71{fill:#9C9C53;}
	.st72{fill:#9A9A52;}
	.st73{fill:#F2F994;}
	.st74{fill:#A17628;}
	.st75{fill:#90573F;}
	.st76{fill:#090806;}
	.st77{fill:#523123;}
	.st78{fill:#7C4031;}
	.st79{fill:#ED866D;}
	.st80{fill:#F3E9E6;}
	.st81{fill:#4F3023;}
	.st82{fill:#060606;}
	.st83{fill:#89533B;}
	.st84{fill:#050403;}
	.st85{fill:#090909;}
	.st86{fill:#EDCF5E;}
	.st87{fill:#050504;}
	.st88{fill:#060504;}
	.st89{fill:#955A41;}
	.st90{fill:#080703;}
	.st91{fill:#090807;}
	.st92{fill:#070603;}
	.st93{fill:#0A0905;}
	.st94{fill:#937335;}
	.st95{fill:#955A40;}
	.st96{fill:#955940;}
	.st97{fill:#EDD05E;}
	.st98{fill:#8F7032;}
	.st99{fill:#945940;}
	.st100{fill:#EED05E;}
	.st101{fill:#503123;}
	.st102{fill:#EEEEEE;}
	.st103{fill:#0D0C0A;}
	.st104{fill:#E3C659;}
	.st105{fill:#967535;}
	.st106{fill:#9D7D38;}
	.st107{fill:#745A29;}
	.st108{fill:#847334;}
	.st109{fill:#907134;}
	.st110{fill:#E5C85B;}
	.st111{fill:#503124;}
	.st112{fill:#927133;}
	.st113{fill:#E0DDD4;}
	.st114{fill:#987836;}
	.st115{fill:#977636;}
	.st116{fill:#CCC4A4;}
	.st117{fill:#523224;}
	.st118{fill:#0B0908;}
	.st119{fill:#8F7135;}
	.st120{fill:#050404;}
	.st121{fill:#EDD05D;}
	.st122{fill:#F3FA94;}
	.st123{fill:#9A9A51;}
	.st124{fill:#999951;}
	.st125{fill:#937334;}
	.st126{fill:#FAF0EE;}
	.st127{fill:#F3FA95;}
	.st128{fill:#989851;}
	.st129{fill:#A2792A;}
	.st130{fill:#F1F893;}
	.st131{fill:#A17729;}
	.st132{fill:#050502;}
	.st133{fill:#947335;}
	.st134{fill:#917233;}
	.st135{fill:#9B9B52;}
	.st136{fill:#F9EFEC;}
	.st137{fill:#9A782F;}
	.st138{fill:#979752;}
	.st139{fill:#F2F893;}
	.st140{fill:#8C8E4F;}
	.st141{fill:#B5B96E;}
	.st142{fill:#0F0F09;}
	.st143{fill:#9C9C52;}
	.st144{fill:#F5FB95;}
	.st145{fill:#F3F994;}
	.st146{fill:#A17728;}
	.st147{fill:#917134;}
	.st148{fill:#090706;}
	.st149{fill:#8E6F32;}
	.st150{fill:#93593F;}
	.st151{fill:#907033;}
	.st152{fill:#060505;}
	.st153{fill:#C8C3AF;}
	.st154{fill:#533324;}
	.st155{fill:#533426;}
	.st156{fill:#0E0C0A;}
	.st157{fill:#907133;}
	.st158{fill:#583627;}
	.st159{fill:#0A0907;}
	.st160{fill:#573526;}
	.st161{fill:#0C0B09;}
	.st162{fill:#503023;}
	.st163{fill:#543325;}
	.st164{fill:#B7B3A1;}
</style>
<g>
	<path class="st22" d="M719.5,758.6c2.6-0.5,5.2-1.3,7.8-1.6c8.8-0.9,14.7,4.9,14.2,13.7c-0.3,5.6-2.4,10.7-4.7,15.7
		c-4.5,9.5-9.7,18.6-15.8,27.2c-22.4,31.9-46.1,62.9-74.5,89.7c-28.3,26.6-61.5,45.1-97.7,58.7c-36.9,13.8-74.7,20.2-114,18.1
		c-27.9-1.5-54.7-7.4-79.9-19.5c-6.7-3.2-13.8-5.7-20.3-9.6c-18.6-11.2-31.5-27.4-41.3-46.4c-0.8-1.6-1.5-2.4-3.4-2.9
		c-4.2-1-8.2-2.6-11.9-5c-8.8-5.6-11.2-13-7.2-22.7c0.7-1.7,1.3-3.6,2.5-4.9c3.7-4,3.6-6.7-1.1-10.3c-4.5-3.5-4.4-9.2-0.5-14.4
		c4.9-6.6,10.6-12.4,17.4-17.1c2.2-1.5,2.4-2.7,2-4.8c-2.7-13.6-4.9-27.2-4-41.1c0.2-2.4-1.4-2.6-3-3.2c-3.1-1.1-6.3-2-9.4-3.3
		c-3.8-1.5-6.9-4.1-9.3-7.4c-1.6-2.2-2.4-4.7-0.4-6.8c2.2-2.4,4.6-0.9,6.6,0.8c3.7,3.3,7.6,5.9,13.3,7c-1.6-6-1.3-11.6-7-16.2
		c-9.8-7.7-18-17.3-25-27.7c-1.4-2.1-2.6-3.6-5.4-3.3c-3.3,0.3-5.4-1.4-5.5-4.9c-0.1-7.6-3.2-13.5-7.3-20.1
		c-14.7-23.4-23.7-49.4-29.3-76.4c-3.7-17.9-8.2-35.7-10.6-53.8c-1.4-10.8-1.9-21.6-2-32.4c-0.2-49.9,2.3-99.5,11.2-148.7
		c10.9-59.9,36.8-112.9,73.6-160.9c12.3-16,25.5-31.2,41.1-44.2c9.4-7.8,19.4-14.7,31.6-17.4c14.6-3.2,26,1.9,33,15.1
		c5.8,10.8,7.9,22.6,8.8,34.6c5.4,67.6,13.4,134.8,22.3,202c6,45.2,18.4,88.5,38.1,129.7c0.6,1.2,1,2.5,1.6,3.6c1.2,2,0,5.5,2.4,6
		c3.1,0.8,6.6,0.2,9.9,0.1c1.3,0,1.6-1,2-1.9c12.6-30.1,32.5-55.7,50.2-82.6C557,411.1,596.3,353.5,637.3,297
		c25-34.5,51.8-67.7,81.3-98.6c10.2-10.7,21.6-19.8,34.6-26.9c18.4-10,34.1-7,47.6,9.1c11.8,14.1,16.4,31.1,19.2,48.6
		c5,30.9,4.9,62,5.4,93.2c1.1,66.1-11.8,130-26.7,193.9c-11,47.3-25.8,93.2-48.6,136.3c-12.4,23.4-26.6,45.7-42.3,67.1
		c-0.8,1-2,1.8-1.9,3.6c2-0.2,4-0.5,5.9-0.7c9.6-1.1,14.1,3.7,13,13.2c-0.9,7.7-3.7,14.8-6.7,21.8c-0.1,0.4-0.3,0.8-0.4,1.2
		C718.3,758.7,718.9,758.7,719.5,758.6z M343.3,849.9c-0.1,1-0.2,2-0.1,3c0.6,6.4,2.9,7.6,8.2,4.1c3.3-2.2,6.4-4.6,8.5-8.1
		c3.2-5.1,3-5.8-3-7.5C345.4,840.7,343.9,841.6,343.3,849.9z M307.1,734c6.3-3.4,12.7-3.7,19.1-0.1c5.5,4,9.5,9.3,12.4,15.4
		c4.4,9.3,8.3,18.9,10.5,29c3.7,16.4,6,33,4.9,50.4c10.9-2.3,21.4-4.5,31.9-6.7c0.7,1.7,4.2,0,3.7,2.9c-0.4,2.3-2.7,2.1-4.3,2.8
		c-0.9,0.4-1.9,0.5-2.8,0.8c-7.1,1.8-14.2,3.6-21.3,5.4c6.3,1.8,8.9,5.9,8.8,12c-3.5,7.9-8.8,14.2-16.4,18.6
		c-2.6,1.5-5.6,3.3-8.4,2.2c-6.1-2.3-5.1,1.1-4.3,4.7c0.2,1.1,0.3,2.3,0.5,3.4c1.5,7.9,5.2,15.1,7.6,22.6c0.6,1.9,1.9,4-0.8,5.1
		c-2.4,1-3.5-1.1-4.5-2.8c-3.5-6-6.9-12.2-8.7-18.9c-0.6-2.3-1.4-3.3-4.1-2.8c-6.5,1.1-12.2-1-17.1-5.1c-2.6-2.2-4.8-4.9-7.8-7.9
		c-1.4,5.9-2.9,11.1-3.9,16.3c-1.4,7-1.3,14.2,2.3,20.5c10.3,18,22.6,34.2,42,43.4c7.7,3.6,15.3,7.3,23.2,10.4
		c15.8,6.3,32.3,10.6,49.2,12.1c40.2,3.6,79.5-0.3,118-13.6c33.3-11.5,64.2-27.1,91.1-49.5c28.8-24,51.6-53.7,73.9-83.6
		c0.6-0.8,0.9-1.8,1.4-2.6c10.6-13.2,19.5-27.4,26.1-43c0.3-0.8,0.4-1.6,0.6-2.4c1-4.4,0.1-5.4-4.5-4.7c-3.2,0.5-6.4,1.4-9.6,2.2
		c-4.3,1.6-8.7,3-13,4.8c-3.5,1.5-5.8,1.3-6.2-3.1c2.8-3.3,5.7-6.5,8.4-9.8c6.3-7.7,9.2-16.8,10.6-26.5c0.5-3.4-0.6-5.1-4.4-4.1
		c-4.1,1.1-8.5,1.3-12.4,3.4c-3.3,0.9-6.7,1.8-10,2.8c-6.9,2-13.8,3.9-20.7,5.9c-2.2-3.9,0.4-5.5,3.3-6.8c5.3-2.4,10.7-4.4,16.1-6.7
		c1.3-0.5,3.1-0.6,2.9-2.7c-0.4-4.1,2.1-6.9,4.3-9.8c17.1-22.2,32-45.8,45.2-70.6c22.2-41.8,36.4-86.3,47.2-132.2
		c8.3-35.5,15.9-71.2,21.4-107.2c5.4-35.2,5.7-70.7,5.2-106.2c-0.3-25.1-1.2-50.3-6-75.1c-2.6-13.5-6.3-26.6-15.2-37.6
		c-10.3-12.8-20.3-14.7-34.6-6.7c-11.6,6.5-21.8,14.7-31,24.2c-28.4,29.5-53.5,61.7-78.1,94.2c-31.3,41.5-60.1,84.8-89.1,127.9
		c-29,43.1-60.6,84.5-83.4,131.4c-1.8,3.8-4.7,5.2-8.8,5.2c-8.7,0-17.4-0.7-26,0.5c-41.4,5.6-75.9,24.7-104.7,54.5
		c-2.2,2.3-4.7,4.5-5.8,8.1c1.9-0.1,3.4-0.2,4.9-0.2c5.6-0.2,6.7,0.9,6.8,6.6c0.1,2.5,0.2,5,0.2,7.5c0,1.3-0.1,2.7-0.1,4
		c0.6,22.9,1.3,45.9,1.9,68.8c0.1,5.4-1.5,7.3-6.1,6.9c-13.6-1.2-27.3-0.4-40.9-0.4c-9.8,0-9.8,0-8.5,9.9c0,0.1,0.2,0.3,0.3,0.4
		c-1.5,6.8,0.1,13.5,0.8,21.4C295.4,744.9,299.7,738.1,307.1,734z M306.9,629.8c2.5,0.1,5.4,0.9,7.3-0.5c2.1-1.6-0.9-4.2-0.3-6.4
		c0.1-0.5,0-1,0-1.5c-0.8-9.1,2-17.4,5.4-25.6c0.8-1.9,1.4-3-1.6-3.7c-13.2-2.9-18.2-9.6-18.8-23.1c-0.6-14,3.1-27,8-39.8
		c1.5-3.9,1-4.8-3.3-5.3c-12.9-1.5-17.8-6.6-19.1-19.5c-0.9-9.3,1.1-18.3,4-27c8-23.9,20.8-45.3,36.2-65.1c1.4-1.7,2.5-3.3,2.3-5.8
		c-0.9-11,0.9-21.9,0.9-32.9c0.2-30.6,0.9-61.3-1.2-91.9c-0.5-7.5-1.8-14.9-4.6-21.9c-2.9-7.2-5.9-8.2-12.6-4.3
		c-4.3,2.5-8.5,5.3-11.6,9.3c-1,0.8-2.1,1.6-3,2.6c-15.4,16-27.4,34.4-36.1,54.7c-22.1,51.5-32.8,105.4-32.7,161.5
		c0,26.2,2.1,52.2,5.2,78.1c2.8,23.7,8.4,46.7,19.5,68.1c1.1,2.2,2.1,3.2,4.7,3C272.7,631.8,289.8,630.8,306.9,629.8z M445.3,554.6
		c-2.3-4.3-4.5-8.2-6.4-12.2c-18.3-39.9-30.1-81.8-35.8-125.3c-8.9-67-17.1-134.1-22.3-201.5c-0.8-10.9-2.3-21.9-7.5-31.9
		c-4.8-9.3-11.3-12.3-21.5-9.9c-9.5,2.2-17.3,7.7-24.7,13.7c-16.4,13.3-30.1,29.2-42.8,46c-38.5,50.6-64.5,106.6-73.4,170
		c-3.7,25.9-5.9,51.9-7.2,78c-1.9,37.8-1.9,75.5,6.3,112.9c6.4,29.3,13.4,58.4,26.1,85.7c0.7,1.5,1,3.4,3,4.8
		c-1-15.1-1.8-29.7-2.9-44.3c-0.5-6.1-0.3-6.9,5.9-6.8c4.2,0.1,4.3-1.1,2.5-4.3c-9.5-17.1-14.5-35.7-17.5-54.8
		c-5.7-37.4-8-75-6.4-112.9c1.3-30.1,5.7-59.5,13.5-88.5c8.3-30.6,18.4-60.5,36.6-86.9C280,272.9,290,260,304,251
		c12.2-7.8,20.8-4.6,25,9.3c2.9,9.6,3.8,19.5,4.4,29.5c1.8,35.8,2.4,71.6,0.4,107.4c-0.4,7.3-0.4,15-5.3,21.4
		c-8.4,10.8-15,22.8-21.5,34.8c-7.3,13.6-13.4,27.6-14.6,43.2c-1.1,13.8,0.9,19.1,15.9,20.9c3.1,0.4,4.4-0.2,5.9-2.6
		c1.9-3.1,4.3-5.9,6.5-8.8c1.2-1.5,2.9-2.9,4.7-1.8c2.2,1.4,0.4,3.2-0.4,4.7c-0.3,0.6-0.7,1.1-1.1,1.7
		c-8.5,12.1-13.2,25.6-16.3,39.9c-1.7,8.1-2.4,16.2-0.3,24.3c1.4,5.4,5,8.3,10.3,9.8c4.6,1.3,7.9,0.5,10.3-3.7
		c0.3-0.6,0.9-1,1.5-1.4c1.3-1,2.7-2.2,4.4-0.5c1.4,1.4,0.5,2.6-0.3,4c-4,7.5-7.7,15.1-10.6,23.1c-2.4,6.5-3.1,13.2-2.5,20.1
		c0.1,1.3,0.2,2.8,2.2,2.6c1.1-0.1,2.3,0.3,2.6-1.5c0.6-4.7,3.9-8.1,6.9-11.3c19.2-20.5,41.2-37.2,67.4-48.1
		C413.9,561.7,429.1,557.1,445.3,554.6z M293,713.8c0,0.1,0,0.3,0,0.4c13.3,0,26.6-0.1,40,0.1c3.5,0.1,4.4-0.9,4.3-4.4
		c-0.6-23.5-1-46.9-1.3-70.4c0-3.6-1.1-4.7-4.5-4.3c-1.5,0.2-3,0-4.5,0.1c-26.9,1.6-53.8,3.3-80.7,4.9c-3,0.2-3.6,1.2-3.3,3.9
		c0.6,4.8,0.9,9.6,1.3,14.4c1.4,16.9,2.8,33.8,4.1,50.7c0.3,3.4,1.3,4.8,5.1,4.7C266.7,713.6,279.9,713.8,293,713.8z M307.4,851.1
		c3.4,10.6,11.5,17.7,21,19.3c3.4,0.6,5,0.1,4.5-3.8c-0.4-3.6-0.9-7.3-0.7-10.9c0.6-7.7,0.3-16.3,8.1-20.9c4.5-2.6,5.8-5.3,5.8-10.2
		c0.3-24.1-3.4-47.3-14.3-69.1c-2-4-4.2-7.9-7.6-11.1c-6-5.7-11.1-5.3-17,1.2c12,0.4,17,8.6,21,18.2c4.4,10.7,0.6,19.8-5.7,28.7
		c2.3,0.7,4.2,1.2,6.1,1.8c2,0.7,3.3,1.9,3.5,4.3c1.4,12.9,0.3,25.6-3.7,37.9C325.1,847.3,319,851.5,307.4,851.1z M291.9,832.1
		c-3.9,4.5-7.9,8.9-11.8,13.4c-5.5,6.2-5.6,7.4,0.9,12.6c3.7,3,4.2,6.1,1.5,9.9c-0.8,1.1-1.5,2.2-2.1,3.4c-6.5,11.3-3,19.4,10,23
		c-0.3-8.6,1.5-16.9,4.9-24.7c2.9-6.8,4.2-13.9,5.3-21.2c0.2-1.4-0.1-2.2-0.8-3.1C296.9,841.7,295.2,837.5,291.9,832.1z
		 M280.9,744.9c0.1-7.8-0.3-14.7,0.7-21.6c0.2-1.5-0.3-2.2-1.8-2.2c-6.3,0-12.7,0-19.8,0C266.6,730.1,273,737.5,280.9,744.9z
		 M325.2,799.6c-2.5,4.3-2,8-2.1,11.6c-0.3,7.3-2.3,14.1-6.8,19.9c-1.6,2.1-3.6,5.9-7.4,2.1c-0.8-0.8-2.6-0.7-3.1,0.4
		c-0.7,1.7-2.1,3.4-1,5.5c2,3.7,6,5,9.8,3.1c3-1.5,4.7-4.1,5.9-7.1c2.8-7,4.6-14.2,5.3-21.7C326.3,809.2,326.7,804.7,325.2,799.6z
		 M303.2,754.6c12.5,3.3,15.1,13.9,18.6,24.2c3.6-7.5-1.1-18.6-6.4-23C311.7,752.7,308,752,303.2,754.6z M306.5,769.3
		c-0.2-1.5-0.6-3-2.6-2.7c-1.6,0.2-2.7,1.3-2.7,2.9c-0.1,1.8,1,2.7,2.7,2.7C305.9,772.2,306.3,770.9,306.5,769.3z"/>
	<path class="st1" d="M343.2,641.9c-0.1-2.5-0.2-5-0.2-7.5c-0.1-5.7-1.2-6.7-6.8-6.6c-1.5,0-3,0.1-4.9,0.2c1.1-3.5,3.6-5.8,5.8-8.1
		c28.8-29.8,63.3-48.9,104.7-54.5c8.5-1.2,17.3-0.5,26-0.5c4.1,0,7-1.4,8.8-5.2c22.9-46.9,54.5-88.4,83.4-131.4
		c29-43.1,57.8-86.4,89.1-127.9c24.6-32.6,49.7-64.7,78.1-94.2c9.2-9.6,19.4-17.8,31-24.2c14.3-8,24.3-6,34.6,6.7
		c8.9,11,12.6,24.1,15.2,37.6c4.8,24.8,5.7,50,6,75.1c0.5,35.5,0.2,71-5.2,106.2c-5.5,36-13.1,71.7-21.4,107.2
		c-10.7,45.9-24.9,90.4-47.2,132.2c-13.2,24.8-28.1,48.3-45.2,70.6c-2.2,2.9-4.8,5.7-4.3,9.8c0.2,2.2-1.6,2.2-2.9,2.7
		c-5.4,2.3-10.8,4.3-16.1,6.7c-2.8,1.3-5.5,3-3.3,6.8c-6.8,2.6-12.8,6.5-18.3,11c-28.6,23.2-55.9,47.8-83.9,71.6
		c-2.4,2.1-4.2,4.6-6,7.3c-4.5,7-8.4,14.3-14.1,20.5c-0.8-0.7-1.7-1.3-2.5-2c2.3-6.9,4.8-13.8,6.8-20.9c5.6-20,8.2-40.4,5.9-61.1
		c14.2-1.7,22.1-11.5,29.3-22.4c0.4-0.6,0.6-1.6,0.6-2.4c0-1.3,0.5-2.9-1.3-3.3c-1.5-0.4-2.1,0.6-2.9,1.9
		c-4.4,7.2-10.7,12-18.4,15.2c-3.3,1.3-4.6,0.6-5.5-2.9c-2-8.2-5-16.1-10.1-23.1c1.6-4,2.4-8.1,2.3-12.5
		c-0.2-11.4-1.1-22.8-2.3-34.2c-1-10.2-2.5-20.3-4-30.5c-1.1-7.9-4.6-10.9-12.1-10.8c-3.3-11.1-3.6-11.3-15.4-9.4
		c-1.3,0.2-2.6,0.4-3.9,0.6c-22.8,4.3-44.4,12.6-66.3,20.1c-12.9,4.4-25.8,8.8-38.7,13.2c-3.4,1.2-5.9,2.9-5.3,7.2
		c2.6,19.9,5.2,39.9,10.8,59.3c1.8,6.1,4.5,10.2,11.1,10.8c1.1,4.9,5.2,5.3,9.1,6c1.7,0.3,3.7-0.7,5,1.1
		c-6.1,16.4-9.1,33.2-7.4,50.8c0.7,7.7,2.8,15,4.3,22.5c-2.1-1-4.2-1.9-6.3-2.9c-14-6.6-28.4-5.5-42.9-2.4
		c-10.5,2.2-21,4.4-31.9,6.7c1-17.4-1.2-34-4.9-50.4c-2.3-10.1-6.1-19.7-10.5-29c-2.9-6.1-7-11.3-12.4-15.4c5.3-1,10.7-1.8,16-3
		c6-1.4,8.4-4.2,8.9-10.4c0.5-6.5,0.7-12.9,1-19.4c0.4-8.6,0.1-17.3,0.7-25.9c0.5-8.6,1.2-17.3-0.5-25.9
		C351.2,644.5,348.6,641.5,343.2,641.9z M665.9,673.7c5.1,7.6,8.4,16.2,12.4,24.4c1.4,3,2.9,4.1,5.8,4.1c0,3.5,1.4,4.5,4.2,2.1
		c1.6-1.4,3.3-2.9,4.4-4.7c16.1-24.3,30.8-49.4,42.2-76.3c12.7-30.2,21-62,28.8-93.8c8.7-35.6,16.6-71.3,20.9-107.7
		c3.1-25.8,5.6-51.6,7.9-77.5c2.3-26.6,4.2-53.1,1.7-79.8c-1-10.8-2.6-21.5-7.8-31.3c-5-9.3-12.2-11.5-21.8-7.3
		c-5.7,2.5-10.6,6.3-15,10.6c-16.2,16.2-29.6,34.6-41,54.5c-2.9,5.1-1.3,7.9,4.6,8.1c5,0.1,10-0.2,15,0.1c6.7,0.5,8.7,2.9,8.7,9.6
		c0,3.6-0.7,7-1.9,10.3c-7,20-17.5,37.4-36.9,47.8c-2.2,1.2-4.1,2.8-2.7,5.5c1.2,2.4,3.7,1.9,5.8,1.3c1-0.3,2-0.6,2.7-1.2
		c7.1-6,15.2-4.5,23.3-3.4c6.7,0.9,8.8,4,7.9,10.7c-0.4,3-1.6,5.8-2.8,8.5c-3.7,8.6-8.3,16.7-14.2,24c-20,24.7-46,40.5-76.3,49.6
		c-2.5,0.8-5.2,1.3-7.7,2.1c-1.7,0.5-3,1.8-2.8,3.7c0.2,2.1,1.7,3.3,3.7,3.4c1.8,0.1,3.7,0,5.5-0.4c6.2-1.1,12.3-3,18.2-5.3
		c1.5-0.6,2.9-1.2,4.7-0.2c3.2,1.7,6.7,2.9,10.1,4.3c13.2,5.5,15.9,11.9,10.2,25.1c-1.4,3.3-3.4,6.5-5.4,9.6
		c-8.4,13-20.6,21.5-33.6,29.2c-27.9,16.5-58.3,25.7-89.7,32.4c-7.3,1.6-14.5,3.7-21.7,5.6c-1.8,0.5-3.6,1.2-3.3,3.6
		c0.4,2.6,2.4,2.9,4.5,2.8c1,0,2-0.2,3-0.4c9.4-2,18.9-3.7,28.3-6.1c5.1-1.3,9.2-0.6,13.7,2c36.2,21.1,61.6,51.3,76.5,90.4
		c1.3,3.5,3.1,6.6,5.2,9.6C662.6,675.5,664.2,675.6,665.9,673.7z"/>
	<path class="st3" d="M445.3,554.6c-16.2,2.5-31.4,7.1-46.1,13.3c-26.1,11-48.1,27.6-67.4,48.1c-3,3.2-6.2,6.6-6.9,11.3
		c-0.2,1.8-1.5,1.4-2.6,1.5c-2,0.1-2.1-1.3-2.2-2.6c-0.6-6.9,0.1-13.6,2.5-20.1c2.9-8,6.6-15.6,10.6-23.1c0.7-1.4,1.7-2.6,0.3-4
		c-1.7-1.6-3-0.4-4.4,0.5c-0.5,0.4-1.1,0.8-1.5,1.4c-2.4,4.2-5.7,5.1-10.3,3.7c-5.3-1.5-8.9-4.5-10.3-9.8
		c-2.1-8.1-1.4-16.2,0.3-24.3c3.1-14.3,7.8-27.8,16.3-39.9c0.4-0.5,0.8-1.1,1.1-1.7c0.8-1.5,2.5-3.4,0.4-4.7
		c-1.8-1.2-3.5,0.2-4.7,1.8c-2.2,2.9-4.6,5.8-6.5,8.8c-1.5,2.4-2.7,2.9-5.9,2.6c-15-1.8-17-7.1-15.9-20.9
		c1.3-15.6,7.3-29.6,14.6-43.2c6.5-12,13.1-23.9,21.5-34.8c5-6.4,4.9-14.1,5.3-21.4c1.9-35.8,1.4-71.6-0.4-107.4
		c-0.5-10-1.5-19.9-4.4-29.5c-4.2-13.9-12.8-17.1-25-9.3c-14,9-24,21.9-33.3,35.4c-18.2,26.4-28.3,56.3-36.6,86.9
		c-7.8,29-12.3,58.4-13.5,88.5c-1.6,37.9,0.7,75.5,6.4,112.9c2.9,19.1,7.9,37.7,17.5,54.8c1.8,3.2,1.8,4.4-2.5,4.3
		c-6.2-0.1-6.4,0.7-5.9,6.8c1.1,14.6,2,29.2,2.9,44.3c-2-1.4-2.3-3.2-3-4.8c-12.7-27.4-19.7-56.4-26.1-85.7
		c-8.2-37.4-8.2-75-6.3-112.9c1.3-26.1,3.6-52.1,7.2-78c9-63.4,35-119.4,73.4-170c12.7-16.7,26.4-32.6,42.8-46
		c7.4-6,15.1-11.5,24.7-13.7c10.1-2.4,16.7,0.6,21.5,9.9c5.1,10,6.6,20.9,7.5,31.9c5.2,67.4,13.4,134.5,22.3,201.5
		c5.8,43.5,17.6,85.3,35.8,125.3C440.8,546.4,443,550.3,445.3,554.6z"/>
	<path class="st2" d="M385.9,822.1c14.5-3.2,28.9-4.2,42.9,2.4c2.1,1,4.2,1.9,6.3,2.9c3.9,8.8,7.7,17.6,13.5,25.4
		c23.9,31.7,64.9,35.5,93.8,8.5c2.1-2,4.2-3.9,3.6-7.2c5.7-6.2,9.6-13.5,14.1-20.5c1.7-2.7,3.6-5.3,6-7.3
		c28-23.8,55.3-48.4,83.9-71.6c5.6-4.5,11.5-8.5,18.3-11c6.9-2,13.8-3.9,20.7-5.9c3.3-0.9,6.7-1.8,10-2.8c3.3-0.4,4.4,0.5,3,4
		c-3.2,8.4-6.4,16.8-8.2,25.6c-0.6,3.2-0.4,6,3,7.5c0.4,4.4,2.7,4.6,6.2,3.1c4.3-1.8,8.7-3.2,13-4.8c0.4,2.3-0.7,4.2-1.4,6.2
		c-2.6,7.3-5.5,14.5-7.8,22c-1.9,6.4-4.3,12.8-3.5,19.8c-0.5,0.9-0.8,1.9-1.4,2.6c-22.3,29.9-45.1,59.6-73.9,83.6
		c-26.9,22.4-57.8,38-91.1,49.5c-38.5,13.3-77.8,17.2-118,13.6c-17-1.5-33.4-5.8-49.2-12.1c-7.9-3.2-15.5-6.8-23.2-10.4
		c-19.4-9.2-31.8-25.4-42-43.4c-3.6-6.3-3.7-13.4-2.3-20.5c1-5.2,2.5-10.3,3.9-16.3c2.9,3,5.1,5.7,7.8,7.9
		c4.9,4.2,10.7,6.2,17.1,5.1c2.7-0.4,3.4,0.5,4.1,2.8c1.8,6.8,5.2,12.9,8.7,18.9c1,1.8,2.1,3.9,4.5,2.8c2.6-1.1,1.4-3.2,0.8-5.1
		c-2.4-7.6-6.1-14.7-7.6-22.6c7.6,1.2,13.9-1.2,19-7.1c4.3-4.9,7.6-10.4,9.9-16.5c0.7-1.8,1.7-3.7-0.3-5.4c0.1-6.1-2.5-10.1-8.8-12
		c7.1-1.8,14.2-3.6,21.3-5.4c1-0.2,2-0.4,2.8-0.8c1.5-0.7,3.9-0.6,4.3-2.8C390.1,822.1,386.6,823.8,385.9,822.1z M397,920.6
		c0,1.2-0.1,2.3,0,3.5c0.9,7.8,8.2,16.5,14.1,16.9c5.7,0.4,11.7-5.3,13.6-13.2c0.5-2.2,0.6-4.6,0.4-6.9
		c-0.7-7.2-10.3-14.5-18.1-14.1C400.1,907.3,396.9,911.7,397,920.6z"/>
	<path class="st2" d="M306.9,629.8c-17.1,1-34.2,2-51.3,3.2c-2.7,0.2-3.6-0.8-4.7-3c-11-21.4-16.6-44.5-19.5-68.1
		c-3.1-25.9-5.2-51.9-5.2-78.1c0-56.1,10.6-110,32.7-161.5c8.7-20.3,20.7-38.7,36.1-54.7c0.9-0.9,2-1.7,3-2.6
		c4.5,6.1,7.4,12.9,9.3,20.2c3.4,13.4,5.3,27,7,40.7c2.7,22.3,5.1,44.6,5.6,67c0.1,4.7-0.2,9.4,0.5,13.9c0.6,3.4-0.2,5.8-2.1,8.2
		c-5.9,7.3-10.9,15.1-15.6,23.1c-10.8,18.3-19.8,37.4-25.9,57.7c-5.2,17.1,0.2,29.1,15.5,37.3c2.3,1.2,2.1,2.6,1.4,4.5
		c-2.8,7.5-4.2,15.3-5.2,23.3c-1.8,14.2,0.4,30.9,19,37.3c2.1,0.7,2.8,1.7,1.9,4.1C306.1,611.2,304.9,620.4,306.9,629.8z"/>
	<path class="st4" d="M293,713.8c-13.2,0-26.3-0.2-39.5,0.1c-3.8,0.1-4.9-1.3-5.1-4.7c-1.3-16.9-2.7-33.8-4.1-50.7
		c-0.4-4.8-0.7-9.6-1.3-14.4c-0.3-2.7,0.3-3.8,3.3-3.9c26.9-1.5,53.8-3.2,80.7-4.9c1.5-0.1,3,0.1,4.5-0.1c3.4-0.5,4.5,0.6,4.5,4.3
		c0.2,23.5,0.7,46.9,1.3,70.4c0.1,3.5-0.8,4.5-4.3,4.4c-13.3-0.2-26.6-0.1-40-0.1C293,714.1,293,713.9,293,713.8z"/>
	<path class="st58" d="M306.9,629.8c-2-9.4-0.8-18.5,2.5-27.4c0.9-2.4,0.2-3.4-1.9-4.1c-18.6-6.4-20.8-23-19-37.3
		c1-7.9,2.4-15.8,5.2-23.3c0.7-1.9,0.8-3.3-1.4-4.5c-15.3-8.2-20.7-20.2-15.5-37.3c6.1-20.3,15.2-39.4,25.9-57.7
		c4.7-8,9.8-15.9,15.6-23.1c2-2.4,2.7-4.8,2.1-8.2c-0.8-4.5-0.4-9.3-0.5-13.9c-0.5-22.5-2.9-44.7-5.6-67c-1.7-13.7-3.6-27.3-7-40.7
		c-1.9-7.4-4.8-14.1-9.3-20.2c3.1-4,7.3-6.8,11.6-9.3c6.8-3.9,9.7-2.9,12.6,4.3c2.8,7,4.1,14.4,4.6,21.9c2.1,30.6,1.4,61.2,1.2,91.9
		c-0.1,11-1.8,21.9-0.9,32.9c0.2,2.4-1,4-2.3,5.8c-15.4,19.8-28.2,41.2-36.2,65.1c-2.9,8.7-4.9,17.7-4,27
		c1.3,12.8,6.2,17.9,19.1,19.5c4.2,0.5,4.7,1.4,3.3,5.3c-4.9,12.8-8.6,25.8-8,39.8c0.6,13.5,5.5,20.2,18.8,23.1
		c3,0.7,2.4,1.8,1.6,3.7c-3.5,8.2-6.2,16.5-5.4,25.6c0,0.5,0.1,1,0,1.5c-0.6,2.2,2.4,4.8,0.3,6.4
		C312.3,630.7,309.4,629.8,306.9,629.8z"/>
	<path class="st59" d="M307.4,851.1c11.6,0.3,17.7-3.8,21.2-14.5c4-12.4,5.1-25,3.7-37.9c-0.3-2.4-1.5-3.6-3.5-4.3
		c-1.8-0.6-3.7-1.1-6.1-1.8c6.3-8.9,10.1-18,5.7-28.7c-4-9.6-9-17.8-21-18.2c5.9-6.5,11-6.8,17-1.2c3.3,3.1,5.6,7,7.6,11.1
		c10.8,21.8,14.6,45,14.3,69.1c-0.1,4.9-1.4,7.6-5.8,10.2c-7.8,4.5-7.5,13.1-8.1,20.9c-0.3,3.6,0.2,7.3,0.7,10.9
		c0.5,3.9-1.1,4.3-4.5,3.8C318.9,868.8,310.8,861.7,307.4,851.1z"/>
	<path class="st47" d="M343.2,641.9c5.3-0.4,7.9,2.5,8.9,7.4c1.8,8.6,1.1,17.3,0.5,25.9c-0.5,8.7-0.3,17.3-0.7,25.9
		c-0.3,6.5-0.5,13-1,19.4c-0.5,6.2-2.8,9-8.9,10.4c-5.3,1.2-10.7,2-16,3c-6.4-3.7-12.7-3.4-19.1,0.1c-1.3-1.6-3.2-1.5-4.9-1.7
		c-4.1-0.5-8.2,0.2-12.3-0.7c-0.1-0.1-0.3-0.3-0.3-0.4c-1.4-9.9-1.4-9.9,8.5-9.9c13.6,0,27.3-0.8,40.9,0.4c4.5,0.4,6.2-1.5,6.1-6.9
		c-0.6-22.9-1.2-45.9-1.9-68.8C343.1,644.6,343.2,643.2,343.2,641.9z"/>
	<path class="st60" d="M291.9,832.1c3.4,5.5,5,9.6,7.8,13.2c0.7,0.9,1,1.8,0.8,3.1c-1.1,7.2-2.4,14.4-5.3,21.2
		c-3.4,7.8-5.2,16.1-4.9,24.7c-13-3.6-16.4-11.7-10-23c0.7-1.2,1.4-2.3,2.1-3.4c2.7-3.8,2.2-6.9-1.5-9.9c-6.4-5.2-6.4-6.4-0.9-12.6
		C284,841,287.9,836.5,291.9,832.1z"/>
	<path class="st58" d="M703.3,818.3c-0.8-6.9,1.6-13.4,3.5-19.8c2.2-7.4,5.2-14.6,7.8-22c0.7-2,1.8-3.9,1.4-6.2
		c3.2-0.7,6.4-1.6,9.6-2.2c4.6-0.7,5.4,0.3,4.5,4.7c-0.2,0.8-0.3,1.6-0.6,2.4C722.9,790.9,713.9,805.1,703.3,818.3z"/>
	<path class="st58" d="M696.8,772.1c-3.4-1.5-3.6-4.4-3-7.5c1.8-8.8,5-17.2,8.2-25.6c1.4-3.6,0.3-4.4-3-4c3.9-2.1,8.3-2.3,12.4-3.4
		c3.8-1,4.9,0.7,4.4,4.1c-1.4,9.7-4.3,18.8-10.6,26.5C702.5,765.6,699.6,768.8,696.8,772.1z"/>
	<path class="st60" d="M280.9,744.9c-7.9-7.4-14.3-14.9-20.9-23.7c7.2,0,13.5,0,19.8,0c1.5,0,2,0.6,1.8,2.2
		C280.6,730.2,281,737.2,280.9,744.9z"/>
	<path class="st58" d="M370.1,846c1.9,1.7,0.9,3.6,0.3,5.4c-2.3,6.1-5.6,11.5-9.9,16.5c-5.1,5.9-11.3,8.2-19,7.1
		c-0.2-1.1-0.3-2.3-0.5-3.4c-0.8-3.6-1.8-7,4.3-4.7c2.9,1.1,5.8-0.7,8.4-2.2C361.2,860.2,366.6,853.9,370.1,846z"/>
	<path class="st61" d="M325.2,799.6c1.5,5.2,1.1,9.6,0.7,13.8c-0.7,7.4-2.6,14.7-5.3,21.7c-1.2,3-2.9,5.6-5.9,7.1
		c-3.8,1.9-7.8,0.6-9.8-3.1c-1.1-2.1,0.3-3.8,1-5.5c0.5-1.1,2.3-1.2,3.1-0.4c3.8,3.8,5.8-0.1,7.4-2.1c4.5-5.8,6.4-12.6,6.8-19.9
		C323.2,807.6,322.6,803.9,325.2,799.6z"/>
	<path class="st60" d="M289.8,731.5c4.1,1,8.2,0.2,12.3,0.7c1.7,0.2,3.7,0.1,4.9,1.7c-7.3,4.1-11.7,10.9-16.5,18.9
		C289.9,745,288.4,738.4,289.8,731.5z"/>
	<path class="st62" d="M356.9,841.3c6,1.7,6.2,2.4,3,7.5c-2.2,3.5-5.2,5.9-8.5,8.1c-5.3,3.5-7.6,2.3-8.2-4.1c-0.1-1,0.1-2,0.1-3
		C349.4,849.6,354.3,847.3,356.9,841.3z"/>
	<path class="st61" d="M303.2,754.6c4.8-2.6,8.5-1.9,12.2,1.2c5.3,4.4,10,15.5,6.4,23C318.3,768.5,315.7,757.9,303.2,754.6z"/>
	<path class="st61" d="M356.9,841.3c-2.5,6-7.4,8.3-13.6,8.6C343.9,841.6,345.4,840.7,356.9,841.3z"/>
	<path class="st2" d="M306.5,769.3c-0.2,1.6-0.7,2.9-2.6,2.9c-1.7,0-2.8-0.9-2.7-2.7c0.1-1.7,1.2-2.7,2.7-2.9
		C305.9,766.3,306.4,767.8,306.5,769.3z"/>
	<path class="st10" d="M719.5,758.6c-0.6,0-1.1,0.1-1.7,0.1c0.1-0.4,0.3-0.8,0.4-1.2C718.6,757.9,719,758.3,719.5,758.6z"/>
	<path class="st2" d="M684.2,702.2c-2.9,0-4.4-1.1-5.8-4.1c-4-8.2-7.3-16.8-12.4-24.4c-1.4-10.4-6.3-19.5-9.6-29.3
		c0.9-1.4,0.6-2.9,0.3-4.4c-1.7-10.6-5.4-20.5-10.9-29.8c-8.5-14.4-19.2-27.2-30-39.8c-3.9-4.5-4-4.4,1.9-6.2
		c14.7-4.5,29-9.7,42.5-17.2c19.2-10.6,34.7-24.4,40.9-46.2c4.1-14.2,3.3-27.8-8.4-38.7c-2.8-2.6-0.4-3.1,1.3-4.1
		c12.8-7.6,25-16.1,34.8-27.4c10.5-12,19.8-25,22.6-41c2.3-12.8,0.4-25.1-10.5-34c-2.7-2.2-2.4-3.4-0.8-5.9
		c6.1-9.6,11.6-19.4,12.5-31.2c1.2-17.3-4.5-34.3-28.3-32.6c-1.3,0.1-2.7,0.6-3.5-1.1c1-1.5,1.9-3.1,3-4.6
		c10.8-15.6,21.7-31.2,36.8-43.1c12.3-9.7,18.3-7.5,22.4,7.7c2.9,10.7,3.9,21.6,4.2,32.6c0.7,26.8-1.8,53.5-3.9,80.2
		c-1.9,24.7-4.1,49.4-7.6,73.9c-6.8,47.8-17.7,94.7-30.4,141.2c-8.8,32.2-20.5,63.1-38.3,91.5C699.1,676.7,691.7,689.5,684.2,702.2z
		"/>
	<path class="st56" d="M546,854.1c0.7,3.3-1.4,5.2-3.6,7.2c-29,26.9-70,23.2-93.8-8.5c-5.9-7.8-9.7-16.6-13.5-25.4
		c-1.5-7.5-3.5-14.8-4.3-22.5c-1.7-17.6,1.3-34.4,7.4-50.8c1.2-2.5,2.3-5,3.6-7.9c-6.3,0.3-12,0.5-17.8,0.8
		c-6.6-0.6-9.3-4.7-11.1-10.8c-5.7-19.4-8.2-39.3-10.8-59.3c-0.6-4.3,1.9-6,5.3-7.2c12.9-4.4,25.8-8.8,38.7-13.2
		c21.9-7.5,43.5-15.8,66.3-20.1c1.3-0.2,2.6-0.4,3.9-0.6c11.8-1.9,12.2-1.6,15.4,9.4c2,19.2,5.8,38.1,8.8,57.1
		c1.1,7.2,4.7,14.3,3.4,21.5c-0.9,4.7,0.8,6.9,3.9,9.3c5.1,6.9,8.1,14.8,10.1,23.1c0.9,3.5,2.2,4.2,5.5,2.9
		c7.8-3.1,14.1-8,18.4-15.2c0.8-1.3,1.4-2.3,2.9-1.9c1.7,0.5,1.3,2.1,1.3,3.3c0,0.8-0.2,1.7-0.6,2.4c-7.2,10.8-15.1,20.7-29.3,22.4
		c-3.5-1.2-4.4-4.1-5.1-7.3c-1.8-8-3.7-15.9-7.9-23c-2.5-4.2-5.9-8.9-10.8-8.5c-9.1,0.8-18,3.2-27.4,5c0.7,1.3,1.2,2,1.6,2.7
		c9.3,16.9,12.6,34.8,9.6,53.9c-0.6,4.1-2.5,6.7-6.6,7.7c-3.3,0.9-6.6,1.8-10,2.8c0.7,1.9,2.3,3.2,3.8,3.9
		c10.1,4.5,9.2,12.4,6.9,20.8c0,0.2-0.1,0.3-0.1,0.5c-5.4,23.4-27.4,37.4-48.5,25.8c-0.8-0.3-1.5-0.6-2.3,0.1
		c0.6,0.2,1.1,0.4,1.7,0.6c0.5,0.6,0.9,1.3,1.5,1.9c21.4,20.1,52.5,19.9,74.2-0.3c2.1-1.9,3.9-4.1,6.9-4.6
		C544.3,852.8,545.2,853.4,546,854.1z M502.8,759.7c1.6,1.6,1.1,3.7,1.4,5.7c1.4,8.5-0.2,16.9,0,25.3c0,1.3-1.2,3.4,0.9,3.8
		c1.8,0.3,3.5-0.7,3.9-3c3-18.2,0.6-35.4-9.4-51.2c-1.1-1.8-2.5-3.3-4.9-1.9c0.2,2.3,2.2,3.6,3,5.6c0.8,2.2,2.3,4.1,2.5,6.5
		c-1.8-0.3-3.6-0.4-5.4,0.1c-2.9,0.7-4.8,2.3-5.4,5.2c-0.6,2.7,0.6,4.9,2.8,6.5c2.4,1.7,5.1,1.8,7.6,0.5
		C500.8,762,501.7,760.7,502.8,759.7z M429.7,738.8c6.3-0.4,13-0.4,19.5-1.3c28-3.9,55.6-10,83.4-15.3c3.6-0.7,3.7-2.2,3.2-5
		c-1.4-7.2-2.7-14.4-3.8-21.6c-2.5-16.3-4.9-32.5-7.1-48.8c-0.6-4.5-2.5-5.4-6.5-4.3c-5,1.3-10.1,1.9-15.1,3.3
		c-31.2,8.3-61,20.7-91.7,30.4c-2.5,0.8-2.8,2.2-2.4,4.5c2.5,17.1,4.8,34.2,10,50.8C421.4,738.8,421.3,738.9,429.7,738.8z
		 M462.6,846.4c9.8,6.3,18.9,6.2,27.8,0c7.1-4.9,10.9-11.9,13-20c2.4-9.1,2.4-9.3-5.9-14.8C491,828,486.1,846.1,462.6,846.4z
		 M472.2,831c0.1-1.3-0.6-2.8-3.2-3.1c-4-0.5-8.7,2.8-8.9,6.3c-0.1,3.2,1.8,4.9,4.7,5.4C468.1,840,471.7,836.1,472.2,831z"/>
	<path class="st63" d="M684.2,702.2c7.6-12.7,14.9-25.5,22.7-37.9c17.8-28.4,29.6-59.3,38.3-91.5c12.7-46.5,23.5-93.5,30.4-141.2
		c3.5-24.5,5.7-49.2,7.6-73.9c2.1-26.7,4.5-53.4,3.9-80.2c-0.3-11-1.3-21.9-4.2-32.6c-4.1-15.1-10.1-17.4-22.4-7.7
		c-15.1,11.9-26,27.5-36.8,43.1c-1,1.5-2,3.1-3,4.6c-1.8,1.8-2.6,4.1-3.7,6.3c3.8,0,7.2-0.1,10.6,0c13.5,0.6,18.9,7.3,16.7,20.6
		c-2.4,15-9.3,28-17.9,40.2c-1.8,2.5-3.7,5-5.8,7.6c2.9,1.3,5.5,1,8.1,1.3c9.6,1.2,15.1,7.8,14.6,17.5c-0.2,4.9-1.9,9.4-4,13.8
		c-10.2,21.9-25,39.9-45,53.6c-7.1,4.8-14.1,9.7-21.9,13.6c1.2,2,2.7,2.1,4.1,2.7c16.1,6.9,20.4,16.1,14.7,32.6
		c-4,11.6-11.2,21.2-20.3,29.2c-19.7,17.3-42.9,28.4-67.4,37.1c-6.3,2.3-12.8,4.1-19.7,6.3c1,0.7,1.5,1.2,2.1,1.5
		c20.2,11.6,37.3,26.6,51.1,45.4c7.1,9.7,13,20,19.3,30.2c3.3,9.7,8.3,18.9,9.6,29.3c-1.8,1.8-3.4,1.7-4.9-0.4
		c-2.1-3-3.9-6.1-5.2-9.6c-14.9-39.1-40.3-69.3-76.5-90.4c-4.5-2.6-8.6-3.3-13.7-2c-9.3,2.4-18.8,4.1-28.3,6.1c-1,0.2-2,0.4-3,0.4
		c-2.1,0.1-4.2-0.2-4.5-2.8c-0.4-2.4,1.5-3.2,3.3-3.6c7.2-1.9,14.4-4,21.7-5.6c31.4-6.8,61.8-15.9,89.7-32.4
		c13-7.7,25.2-16.3,33.6-29.2c2-3.1,3.9-6.2,5.4-9.6c5.7-13.2,3-19.6-10.2-25.1c-3.4-1.4-6.8-2.6-10.1-4.3c-1.8-0.9-3.2-0.3-4.7,0.2
		c-5.9,2.3-11.9,4.1-18.2,5.3c-1.8,0.3-3.6,0.4-5.5,0.4c-2.1-0.1-3.5-1.3-3.7-3.4c-0.2-1.9,1.1-3.1,2.8-3.7c2.5-0.8,5.1-1.4,7.7-2.1
		c30.2-9.1,56.2-24.8,76.3-49.6c5.9-7.3,10.5-15.4,14.2-24c1.2-2.8,2.3-5.5,2.8-8.5c1-6.7-1.2-9.8-7.9-10.7
		c-8-1.1-16.2-2.6-23.3,3.4c-0.7,0.6-1.8,0.9-2.7,1.2c-2.1,0.6-4.6,1.1-5.8-1.3c-1.4-2.7,0.5-4.3,2.7-5.5
		c19.4-10.5,29.9-27.8,36.9-47.8c1.2-3.3,1.9-6.7,1.9-10.3c0-6.6-1.9-9.1-8.7-9.6c-5-0.4-10,0-15-0.1c-5.9-0.2-7.5-3-4.6-8.1
		c11.3-19.9,24.7-38.3,41-54.5c4.4-4.4,9.2-8.1,15-10.6c9.6-4.3,16.8-2,21.8,7.3c5.3,9.7,6.8,20.5,7.8,31.3
		c2.5,26.6,0.6,53.2-1.7,79.8c-2.3,25.9-4.8,51.7-7.9,77.5c-4.3,36.4-12.2,72.2-20.9,107.7c-7.8,31.8-16,63.6-28.8,93.8
		c-11.3,26.9-26.1,52-42.2,76.3c-1.2,1.8-2.8,3.3-4.4,4.7C685.5,706.7,684.2,705.7,684.2,702.2z"/>
	<path class="st64" d="M461.5,854.4c21.1,11.6,43-2.4,48.5-25.8c0-0.2,0-0.3,0.1-0.5c2.3-8.5,3.2-16.4-6.9-20.8
		c-1.5-0.7-3.1-1.9-3.8-3.9c3.4-0.9,6.7-1.9,10-2.8c4.1-1,6-3.7,6.6-7.7c3-19.1-0.3-37-9.6-53.9c-0.4-0.7-0.8-1.4-1.6-2.7
		c9.3-1.8,18.3-4.2,27.4-5c5-0.4,8.3,4.3,10.8,8.5c4.2,7.1,6.2,15,7.9,23c0.7,3.2,1.6,6.1,5.1,7.3c2.3,20.8-0.3,41.1-5.9,61.1
		c-2,7-4.5,13.9-6.8,20.9c-3,0.4-4.8,2.6-6.9,4.6c-21.7,20.3-52.8,20.4-74.2,0.3c-0.6-0.5-1-1.3-1.5-1.9
		C461.1,854.9,461.3,854.6,461.5,854.4z"/>
	<path class="st47" d="M547.8,733.2c-3.1-2.4-4.7-4.5-3.9-9.3c1.3-7.2-2.2-14.3-3.4-21.5c-3-19-6.8-37.9-8.8-57.1
		c7.5-0.2,11,2.9,12.1,10.8c1.4,10.1,2.9,20.3,4,30.5c1.2,11.4,2,22.7,2.3,34.2C550.2,725.1,549.4,729.1,547.8,733.2z"/>
	<path class="st47" d="M424,747c5.8-0.3,11.5-0.5,17.8-0.8c-1.3,2.9-2.5,5.4-3.6,7.9c-1.4-1.8-3.3-0.8-5-1.1
		C429.2,752.3,425.2,751.9,424,747z"/>
	<path class="st63" d="M397,920.6c-0.1-8.9,3.2-13.3,10.1-13.8c7.8-0.5,17.4,6.8,18.1,14.1c0.2,2.3,0.2,4.7-0.4,6.9
		c-1.9,7.9-8,13.6-13.6,13.2c-6-0.4-13.2-9.1-14.1-16.9C396.9,923,397,921.8,397,920.6z M403,920.1c0.1,3.9,2.2,8.3,5.7,12.1
		c2.6,2.9,4.8,2.1,7-0.6c5.4-6.7,4-12.4-4.4-17.4C405.3,910.8,403.1,912,403,920.1z"/>
	<path class="st58" d="M656.3,644.5c-6.3-10.1-12.2-20.5-19.3-30.2c-13.8-18.9-30.9-33.9-51.1-45.4c-0.6-0.3-1.1-0.7-2.1-1.5
		c6.9-2.2,13.3-4.1,19.7-6.3c24.5-8.7,47.7-19.8,67.4-37.1c9.1-8,16.3-17.6,20.3-29.2c5.7-16.5,1.4-25.7-14.7-32.6
		c-1.3-0.6-2.9-0.7-4.1-2.7c7.8-3.9,14.8-8.8,21.9-13.6c20.1-13.7,34.9-31.7,45-53.6c2-4.4,3.7-8.9,4-13.8c0.5-9.7-5-16.3-14.6-17.5
		c-2.6-0.3-5.3-0.1-8.1-1.3c2-2.7,4-5.1,5.8-7.6c8.7-12.2,15.5-25.2,17.9-40.2c2.2-13.3-3.3-20-16.7-20.6c-3.4-0.2-6.8,0-10.6,0
		c1.1-2.2,1.9-4.5,3.7-6.3c0.7,1.7,2.2,1.2,3.5,1.1c23.8-1.7,29.5,15.2,28.3,32.6c-0.8,11.7-6.3,21.6-12.5,31.2
		c-1.6,2.5-1.9,3.7,0.8,5.9c10.9,8.9,12.8,21.2,10.5,34c-2.9,16.1-12.2,29-22.6,41c-9.8,11.3-22,19.7-34.8,27.4
		c-1.6,1-4.1,1.4-1.3,4.1c11.6,10.9,12.5,24.6,8.4,38.7c-6.2,21.8-21.7,35.6-40.9,46.2c-13.5,7.4-27.8,12.7-42.5,17.2
		c-5.9,1.8-5.7,1.7-1.9,6.2c10.8,12.6,21.5,25.4,30,39.8c5.5,9.3,9.2,19.2,10.9,29.8C656.9,641.6,657.2,643.1,656.3,644.5z"/>
	<path class="st4" d="M429.7,738.8c-8.4,0.1-8.3,0-10.6-7.5c-5.2-16.6-7.5-33.7-10-50.8c-0.3-2.3-0.1-3.7,2.4-4.5
		c30.7-9.7,60.5-22.1,91.7-30.4c5-1.3,10.1-2,15.1-3.3c4-1,5.9-0.2,6.5,4.3c2.2,16.3,4.6,32.6,7.1,48.8c1.1,7.2,2.5,14.4,3.8,21.6
		c0.5,2.8,0.5,4.3-3.2,5c-27.8,5.3-55.3,11.4-83.4,15.3C442.6,738.4,435.9,738.4,429.7,738.8z"/>
	<path class="st61" d="M462.6,846.4c23.5-0.2,28.4-18.4,34.9-34.8c8.3,5.5,8.3,5.7,5.9,14.8c-2.2,8.1-5.9,15.1-13,20
		C481.6,852.6,472.4,852.7,462.6,846.4z"/>
	<path class="st61" d="M500.1,750.4c-0.2-2.4-1.7-4.3-2.5-6.5c-0.8-2-2.8-3.3-3-5.6c2.5-1.4,3.8,0.1,4.9,1.9
		c10,15.8,12.5,33,9.4,51.2c-0.4,2.3-2.1,3.3-3.9,3c-2.1-0.4-0.9-2.5-0.9-3.8c-0.1-8.4,1.5-16.9,0-25.3c-0.3-1.9,0.2-4-1.4-5.7
		C503.6,756.1,503.8,752.7,500.1,750.4z"/>
	<path class="st59" d="M500.1,750.4c3.7,2.2,3.6,5.6,2.8,9.2c-1.1,1-2,2.4-3.3,3c-2.5,1.3-5.2,1.2-7.6-0.5c-2.2-1.6-3.4-3.8-2.8-6.5
		c0.6-2.9,2.5-4.5,5.4-5.2C496.5,750.1,498.2,750.1,500.1,750.4z"/>
	<path class="st61" d="M472.2,831c-0.5,5.1-4.1,9-7.3,8.5c-2.9-0.4-4.8-2.1-4.7-5.4c0.1-3.5,4.9-6.7,8.9-6.3
		C471.6,828.2,472.3,829.7,472.2,831z"/>
	<path class="st64" d="M460.9,855.1c-0.6-0.2-1.1-0.4-1.7-0.6c0.7-0.7,1.5-0.4,2.3-0.1C461.3,854.6,461.1,854.9,460.9,855.1z"/>
	<path class="st59" d="M403,920.1c0.1-8.1,2.3-9.3,8.3-5.8c8.4,5,9.9,10.6,4.4,17.4c-2.2,2.7-4.4,3.4-7,0.6
		C405.2,928.4,403.1,924.1,403,920.1z"/>
</g>
</svg>
