<?xml version="1.0" encoding="utf-8"?>
<!-- Generator: Adobe Illustrator 25.0.0, SVG Export Plug-In . SVG Version: 6.00 Build 0)  -->
<svg version="1.1" id="图层_1" xmlns="http://www.w3.org/2000/svg" xmlns:xlink="http://www.w3.org/1999/xlink" x="0px" y="0px"
	 viewBox="0 0 1200 1600" style="enable-background:new 0 0 1200 1600;" xml:space="preserve">
<style type="text/css">
	.st0{fill:#060604;}
	.st1{fill:#EDCF5D;}
	.st2{fill:#FBF1EE;}
	.st3{fill:#ECCF5D;}
	.st4{fill:#F4FB95;}
	.st5{fill:#A0918B;}
	.st6{fill:#FBFBFB;}
	.st7{fill:#927233;}
	.st8{fill:#935A40;}
	.st9{fill:#623C2A;}
	.st10{fill:#FEFEFE;}
	.st11{fill:#040302;}
	.st12{fill:#090805;}
	.st13{fill:#9C5B46;}
	.st14{fill:#070705;}
	.st15{fill:#ECCE5D;}
	.st16{fill:#F2F2F2;}
	.st17{fill:#93583F;}
	.st18{fill:#A1918B;}
	.st19{fill:#513123;}
	.st20{fill:#FAFAFA;}
	.st21{fill:#030202;}
	.st22{fill:#060605;}
	.st23{fill:#A0908A;}
	.st24{fill:#937234;}
	.st25{fill:#E6C95B;}
	.st26{fill:#864E37;}
	.st27{fill:#513124;}
	.st28{fill:#B0603E;}
	.st29{fill:#FAF0ED;}
	.st30{fill:#F9F9F9;}
	.st31{fill:#917133;}
	.st32{fill:#9E8F89;}
	.st33{fill:#E7CA5B;}
	.st34{fill:#92583F;}
	.st35{fill:#050503;}
	.st36{fill:#FCFBFB;}
	.st37{fill:#080704;}
	.st38{fill:#070605;}
	.st39{fill:#FAF1ED;}
	.st40{fill:#F4FA95;}
	.st41{fill:#F8F8F7;}
	.st42{fill:#90573E;}
	.st43{fill:#030302;}
	.st44{fill:#080805;}
	.st45{fill:#FBF1ED;}
	.st46{fill:#FBFBFA;}
	.st47{fill:#927234;}
	.st48{fill:#F69376;}
	.st49{fill:#7B2D2D;}
	.st50{fill:#FCFCFC;}
	.st51{fill:#EF5A2D;}
	.st52{fill:#F0CC2D;}
	.st53{fill:#9F8F8A;}
	.st54{fill:#FAFAF9;}
	.st55{fill:#F2A78E;}
	.st56{fill:#040403;}
	.st57{fill:#070604;}
	.st58{fill:#A0908B;}
	.st59{fill:#F7F7F7;}
	.st60{fill:#E8CB5B;}
	.st61{fill:#8F563E;}
	.st62{fill:#513224;}
	.st63{fill:#080705;}
	.st64{fill:#FCFCFB;}
	.st65{fill:#F9F8F8;}
	.st66{fill:#FAF0EC;}
	.st67{fill:#9F908A;}
	.st68{fill:#91573E;}
	.st69{fill:#070704;}
	.st70{fill:#F5FC96;}
	.st71{fill:#9C9C53;}
	.st72{fill:#9A9A52;}
	.st73{fill:#F2F994;}
	.st74{fill:#A17628;}
	.st75{fill:#90573F;}
	.st76{fill:#090806;}
	.st77{fill:#523123;}
	.st78{fill:#7C4031;}
	.st79{fill:#ED866D;}
	.st80{fill:#F3E9E6;}
	.st81{fill:#4F3023;}
	.st82{fill:#060606;}
	.st83{fill:#89533B;}
	.st84{fill:#050403;}
	.st85{fill:#090909;}
	.st86{fill:#EDCF5E;}
	.st87{fill:#050504;}
	.st88{fill:#060504;}
	.st89{fill:#955A41;}
	.st90{fill:#080703;}
	.st91{fill:#090807;}
	.st92{fill:#070603;}
	.st93{fill:#0A0905;}
	.st94{fill:#937335;}
	.st95{fill:#955A40;}
	.st96{fill:#955940;}
	.st97{fill:#EDD05E;}
	.st98{fill:#8F7032;}
	.st99{fill:#945940;}
	.st100{fill:#EED05E;}
	.st101{fill:#503123;}
	.st102{fill:#EEEEEE;}
	.st103{fill:#0D0C0A;}
	.st104{fill:#E3C659;}
	.st105{fill:#967535;}
	.st106{fill:#9D7D38;}
	.st107{fill:#745A29;}
	.st108{fill:#847334;}
	.st109{fill:#907134;}
	.st110{fill:#E5C85B;}
	.st111{fill:#503124;}
	.st112{fill:#927133;}
	.st113{fill:#E0DDD4;}
	.st114{fill:#987836;}
	.st115{fill:#977636;}
	.st116{fill:#CCC4A4;}
	.st117{fill:#523224;}
	.st118{fill:#0B0908;}
	.st119{fill:#8F7135;}
	.st120{fill:#050404;}
	.st121{fill:#EDD05D;}
	.st122{fill:#F3FA94;}
	.st123{fill:#9A9A51;}
	.st124{fill:#999951;}
	.st125{fill:#937334;}
	.st126{fill:#FAF0EE;}
	.st127{fill:#F3FA95;}
	.st128{fill:#989851;}
	.st129{fill:#A2792A;}
	.st130{fill:#F1F893;}
	.st131{fill:#A17729;}
	.st132{fill:#050502;}
	.st133{fill:#947335;}
	.st134{fill:#917233;}
	.st135{fill:#9B9B52;}
	.st136{fill:#F9EFEC;}
	.st137{fill:#9A782F;}
	.st138{fill:#979752;}
	.st139{fill:#F2F893;}
	.st140{fill:#8C8E4F;}
	.st141{fill:#B5B96E;}
	.st142{fill:#0F0F09;}
	.st143{fill:#9C9C52;}
	.st144{fill:#F5FB95;}
	.st145{fill:#F3F994;}
	.st146{fill:#A17728;}
	.st147{fill:#917134;}
	.st148{fill:#090706;}
	.st149{fill:#8E6F32;}
	.st150{fill:#93593F;}
	.st151{fill:#907033;}
	.st152{fill:#060505;}
	.st153{fill:#C8C3AF;}
	.st154{fill:#533324;}
	.st155{fill:#533426;}
	.st156{fill:#0E0C0A;}
	.st157{fill:#907133;}
	.st158{fill:#583627;}
	.st159{fill:#0A0907;}
	.st160{fill:#573526;}
	.st161{fill:#0C0B09;}
	.st162{fill:#503023;}
	.st163{fill:#543325;}
	.st164{fill:#B7B3A1;}
</style>
<g>
	<path class="st22" d="M259.7,642.3c-6,13.4-12.9,25.3-23.1,35c-9.6,9.2-21,11.9-33.7,8.6c-9.9-2.6-16.9-9-22.1-17.6
		c-10.3-17-16.4-35.6-19.7-55.1c-5.2-31-7.8-62.1-5.2-93.5c1.7-20.5,5.7-40.5,12.3-60c3.7-11,9.9-20.7,16.6-30
		c14.9-20.7,32.3-39,53-54c28.1-20.4,59.3-25.9,93.3-21.5c25.7,3.4,42.7,16.9,53.6,39.5c1.9,3.9,3.7,7.8,5.4,11.8
		c10,22.9,16.3,47.1,23.9,70.9c5.7,17.6,11.4,35.1,17,52.7c2.4,7.6,6.3,14.3,11.9,20c4.6,4.6,9.7,3.8,12.5-1.9
		c15.9-32.2,30.9-64.9,48.6-96.2c16.9-29.9,38-56.5,64.4-78.3c25.1-20.7,54-31.9,87.3-28.9c23.9,2.1,42.8,11.9,54.3,34.2
		c9.9,19.2,14.7,39.9,19.9,60.5c6.8,26.7,8.8,54.2,12,81.4c2.7,23.5,5.4,47,7.5,70.5c2.1,23.2,4.4,46.4,5.5,69.7
		c1.4,29.3-22.7,48.9-40.5,55.6c-5.5,2.1-11.2,1.1-16.8-0.2c-4.1-0.9-8.1-2.1-12.7-3.3c1.5,8.5,3.5,16.7,3,25.3
		c6.3-1.6,12.2-3.3,18.4-3.1c8.3,0.3,13.2,4.9,13.8,13.2c0.5,7.1-1.6,13.5-4.9,19.6c-1.2,2.3-1.1,3.4,1.3,5.1
		c5.3,3.6,7.8,8.8,7.7,15.4c-0.1,7.3-1.6,14.1-5.6,20.4c-20.2,31.3-44.9,58.7-73.2,82.8c-34.3,29.2-71.2,54.3-113.6,70.3
		c-27,10.2-54.9,15.5-83.8,17c-26.9,1.4-52.8-2.3-78.2-10.5c-27.1-8.8-52-22-71.3-43.3c-7.4-8.2-15-13.5-25.8-14.6
		c-3.4-0.3-6.8-1.7-9.8-3.5c-6.2-3.7-7.3-10.2-2-14.9c3.2-2.8,1.7-3.6-0.8-5.2c-3.4-2.1-7.1-3.7-10-6.5c-6-5.7-6.1-11.9,0.3-16.9
		c6.1-4.9,12.5-9.5,19.1-13.5c4.9-2.9,3.2-8,4.9-11.8c0.7-1.5-1.6-0.9-2.6-0.9c-6.6,0.1-12.3-2.6-17.8-5.7c-1-0.6-1.9-1.4-2.6-2.3
		c-0.9-1.2-1.9-2.5-0.7-4c1.2-1.4,2.7-1.1,4.1-0.4c3.7,2,7.9,2.6,12,3.3c3.2,0.5,6.3,0.1,9.3-1c6.2-2.4,6.9-4.5,3.7-10.2
		c-6-10.8-7.9-22.5-7.9-34.8c-1.1,0.2-2,0.4-3,0.7c-5.9,1.8-7.9,1.2-10.5-4.2c-9.5-19.2-18.5-38.7-25.8-58.9c-2.2-6-1-8.3,4.6-11.1
		c11.7-5.8,23.4-11.8,35.2-17.6c2.2-1.1,3.2-2.2,2.3-4.5C269.7,671.8,266.5,656.9,259.7,642.3z M338,899c-0.1-0.2-0.1-0.3-0.2-0.5
		c0,0.1,0,0.2,0,0.2C337.8,898.9,338,898.9,338,899c1,2.5,2.3,4.8,3.9,6.9c0.9,3.4,2.6,6.5,4.4,9.4c1.3,2.1,3.5,4.5,0.5,6.5
		c-2.7,1.8-4.5-0.7-6.2-2.6c-0.6-0.6-1.2-1.2-1.5-2c-4.4-8.4-10.2-16-13.3-25.1c-0.3-1-0.4-3-1.8-2.6c-5.1,1.4-10.3-0.8-15.5,1.9
		c-7.8,4.2-14.5,3.8-20.7-3.2c-0.6-0.6-0.9-2-2.3-1.2c1.4,6.4,3.5,12.6,6.7,18.4c8.6,16,22,27.2,37.2,36
		c45.1,26,93.7,33.5,144.9,25.7c48.8-7.5,91.3-29,130.5-57.9c35.4-26.1,67.6-55.4,93-91.6c4.2-3.2,6.3-7.9,9.1-12.1
		c3.6-5.4,7.1-10.8,8.1-17.5c0.9-5.9-2.6-11.2-9.1-9.1c-5.6,0.5-10.4,3.3-15.5,5.2c-4,1.5-5.7,0.3-6-3.9c6.3-2.2,11-7.3,17.4-9.4
		c0.4-0.1,0.7-0.7,0.9-1.1c2.3-4.8,4.9-9.4,6.7-14.4c4.2-11,1.1-14.7-10.7-13.3c-2.5-0.2-4.9,0.7-7.2,1.4
		c-10.8,3.2-20.8,8.2-30.5,13.9c-2.4,1.4-5,3.3-7-0.6c0.8-2.1,2.5-3.5,4.3-4.7c5.6-3.9,11.6-7.2,17.9-9.8c2.8-1.2,3.6-2.5,2.9-5.6
		c-1.1-4.7-1.8-9.5-2.2-14.3c-0.7-8-2.7-13.8-11.3-18.2c-18.7-9.7-32.5-25.3-43.7-42.9c-14.3-22.6-23.4-47.4-29.6-73.2
		c-1.6-6.5-4.9-10-10.7-12.3c-18.3-7.2-36.9-11.8-56.9-9.4c-6.1,0.7-12.6,2.1-18.5-1.8c-0.7-2.3-0.2-4.5,1-6.5
		c2.3-0.5,4.5-1.1,6.8-1.4c11.2-1.5,21.6-4.9,30-12.9c5.7-2.9,9.7-8,13.9-12.6c12.9-13.9,23.4-29.2,25.6-48.8
		c0.5-4.2,1.6-8.4,2.5-12.6c0.8-1.4,2-2.4,3.6-1.7c1.1,0.5,1.3,1.6,1.1,2.9c-1.9,13.4-2.7,26.9-1.3,40.3
		c4.3,42.5,11.7,84.5,29.6,123.7c16.8,36.9,41.6,64.5,84.2,71c4,0.6,7.7,0.6,11.1-1.4c17.5-10.1,29.3-23.7,28.8-45.4
		c-0.6-21.2-3-42.2-4.9-63.3c-3-32.3-7.1-64.6-10.3-96.9c-3.3-32.7-9.7-64.8-19.7-96.1c-3.4-10.5-8.4-20.3-14.8-29.3
		c-4.1-5.8-9.4-9.8-15.7-12.7c-16.5-7.5-33.8-7.6-51-4.5c-20.3,3.6-37.8,13.7-53.3,26.9c-18,15.3-33.4,33-46.6,52.6
		c-24.9,37.2-41.7,78.8-63.9,117.5c-2.2,3.8-3.8,4.7-7.3,4.5c-21.1-1.3-41.4,1.9-61,9.8c-45.5,18.4-80.6,48.1-100.8,93.7
		c-3,6.7-5.4,13.7-6.6,22.1c7.4-3.4,13.9-6.4,20.4-9.5c9.6-4.6,19.2-9.3,29.3-12.7c4.9-1.7,7.1-0.6,8.8,4.2c0.8,2.3,1.5,4.7,2.3,7.1
		c1.5,7,2.9,14,4.5,20.9c2.9,12.5,5.9,24.9,7.7,37.6c1,7.1-1.5,11.3-8,14.6c-21.7,11-43.6,21.3-66.3,29.8c-7.4,2.8-7.5,3.1-6.4,10.8
		c0.2,1.1,0.5,2.3,0.8,3.4c0.1,8,2.8,15.3,5.7,22.6c2.3,5.8,2.3,5.8,7.3,2.4c12-8.3,25.3-11.7,39.8-10.1
		c12.8,1.4,23.5,6.9,31.2,17.6c6.9,9.5,7.6,20.1,4.6,31.2c2.3,0,4.4,0.2,6.6,0c4.8-0.6,9.5-1.5,14.3,0.3c1.6,4-1.2,4-3.8,4.1
		c-9.1,0.4-18.2,1.8-27.4,3.5c7.7,2.9,14,6.7,13.1,16.2C364.3,891.2,353.8,899.3,338,899z M305.9,875.1c-4.4-1-8.8-1.9-13,0.6
		c-1.3,0.7-2.7,1.3-2.9,3.1c-0.6,4.7,2,9,6.4,10.6c4.3,1.6,11.7,0.2,13.3-3c2.1-4.4,0.2-8-3.5-10.8C306,875.5,306,875.3,305.9,875.1
		c1.2,0,2.3-0.1,3.4-0.1c2.8,0,3.9-1.5,3.8-4.1c-0.1-2.4-1.5-3.7-3.8-3.7c-2.7-0.1-3.6,1.9-4,4.2
		C305.2,872.7,306.8,873.7,305.9,875.1z M365.3,872.8c-4.7-6-11.6-7.1-17.9-5.5c-5.8,1.5-11.7,4.7-13.7,11.6
		c-2.7,4.3-0.5,7.6,2.4,10.5c2.4,2.4,4.6,5.5,8.9,4c6-2.1,11.7-5,16.2-9.5C364.1,881.2,367.7,877.9,365.3,872.8z M321.6,846.1
		c15.3-3.9,30-5.2,41.8,8.8c1.8-4.7-1.3-6.6-3.9-8.6c-20.3-15.5-51.3-6.5-63.5,7c-1.2,1.4-2.2,2.3-0.2,4c1.7,1.5,2.9,1.8,4.5-0.1
		c3.6-4.3,8.3-7.1,13.5-9.1c0.6,3.2,2.6,4.6,5.6,3.9C322.6,851.2,322.5,848.7,321.6,846.1z M276.8,654.3c1.5,5.3,3,10.7,4.7,16.8
		c3.2-7.6,5.6-14.7,9.5-21c2.8-4.5,3.2-8-1.5-11.1c-6.3-9.5-11.1-19.7-13.6-30.9c-0.6-2.5-0.8-5.2-2.6-8c-1.9,5.6-3.8,10.6-5.3,15.8
		c-1.1,3.7-3.5,7.2-2.6,11.3C269.6,636.1,273.8,644.9,276.8,654.3z M585.5,556.3c-0.8-15.5-3.8-30.8-3.7-47.1
		c-12,19-25.7,35.4-42.8,49.2c6.5,0.1,12.3,2.6,18.6,2.8c10.1,4,20.1,8,30.7,12.2C587.2,567.3,587.1,561.7,585.5,556.3z M277.9,595
		c3.1,16,7.6,31.4,18.8,44.6c10.1-15.8,22.2-29.1,35.6-41.4c3.1-2.5,6.2-5,9.4-7.6c-5.4-3.9-6.8-9.4-6.8-15.5
		c0-4.5,0.8-8.9,1.6-13.3c1.3-7.3,4.2-14.2,7-21.7c-2.2,0.4-3.6,0.7-5.1,0.9c-8.1,1-14.2-2.6-17.5-10.2c-1.6-3.7-2.2-7.6-2.1-11.7
		c0.1-5,0-10,0-15.2c-17.4,26.5-29.8,55-40.9,84.1C277.1,590.3,276.2,592.7,277.9,595z M394.7,554.8c-0.3-5.6-0.3-11.2-1.1-16.7
		c-2.5-19.7-6.9-39-11.7-58.3c-2.7-10.7-5.1-21.5-10.5-31.3c-1.4-4.2-4.5-7.3-7.1-10.7c-1.7-2.1-2.8-1.9-4.5,0.3
		c-9.2,12.2-18.3,24.4-25.8,37.8c-7.1,12.6-8.2,26.3-8.5,40.3c-0.7,3.5,0.2,7,1,10.3c1.6,6.3,5.2,9.1,11.8,9.4
		c1.5,0.1,3.1-0.2,4.5,0.3c2.1,0.7,2.9-0.2,3.7-2c2.5-5,5.1-10,7.9-14.9c0.8-1.4,1.2-4.3,3.5-3.3c2.5,1.2,0.6,3.6-0.1,5.2
		c-1.2,3.2-2.8,6.4-4.2,9.6c-4.5,10.3-8.9,20.7-11.2,31.8c-1.4,7-3.4,14.3,0.4,21.3c1.6,3.2,3.5,3.2,6.3,1.1
		c12.5-9,25.9-16.3,40.3-21.4C394.5,562.1,396.2,559.6,394.7,554.8z M400.2,550.9c0,1.5,0.1,3,0,4.5c-0.4,3.6,0.7,4.6,4.3,3.4
		c5-1.6,10.2-2.7,15.4-3.7c7-1.4,7.1-1.3,5.9-8.3c-0.2-6.2-4-11.2-5.9-16.8c-9.6-28.7-19-57.5-28-86.4c-6-19.2-12.8-38.2-23.8-55.3
		c-6.5-10.1-15.3-17.2-27-20.1c-33.8-8.2-65.7-4.6-94.9,15.9c-14.9,10.4-27.8,22.9-39.5,36.6c-11.4,13.3-22.1,27.2-27.9,44.1
		c-6.5,18.8-9.9,38.3-11.7,58.1c-2.5,27.4,0.2,54.6,4.2,81.6c2.9,19.6,8.1,38.4,18.1,55.7c10.9,19,28.8,21.2,44,5.4
		c9.6-10,16.5-21.8,20.5-35.1c13-43,28.6-84.8,53-122.9c1.1-1.7,1.9-3.5,2.8-5.3c13.1-24,25.8-48.2,45.7-67.6
		c0.3-0.3,0.2-0.9,0.3-1.6c-2.5-0.2-4.8-0.3-7.1-0.5c-2.2-0.2-4.7-0.2-4.7-3.2c0-2.8,2.2-3.4,4.5-3.6c10.7-1.2,16.5,1.8,21.8,11.2
		c6.2,11.1,10.2,23,13.7,35.1C391.3,498,397.8,524,400.2,550.9z M353.1,735.5c-0.3-1.9-0.4-2.7-0.5-3.5
		c-3.2-19.9-8.7-39.2-12.7-58.9c-0.7-3.3-1.9-3.7-4.9-2.3c-16.5,7.6-33,14.9-49.5,22.4c-14.5,6.6-28.9,13.4-43.3,20.2
		c-1.8,0.8-3.5,1.3-2.3,4.3c7.4,18.5,15.6,36.6,24,54.7c1.4,3,3,3.3,5.8,2.3c27.9-9.9,54.6-22.7,80.8-36.3
		C352.1,737.4,353.3,736.5,353.1,735.5z M364.7,841.4c-0.3-11.4-7.1-21.3-17.5-26.2c-22.5-10.6-53.4,0.5-63.8,23.1
		c-5,10.9-5,21.6,2.4,31.6c4.1,5.6,4.3,5.4,9.2,0.8c2.2-2,3.1-3.6,0.2-5.7c-1.5-1.1-2.6-2.6-3.9-3.8c-4.4-4-4.6-5.9-0.6-10.4
		c11-12.4,25.4-17.6,41.5-18.7C343.9,831.2,354.7,834.5,364.7,841.4z M272,855.7c-5.9,4.1-11.4,7.9-16.7,11.8
		c-4.4,3.2-4.6,5.9-0.4,9.6c3.3,2.8,7,5.1,10.5,7.6c6.2,4.3,6.2,4.4,1.5,10.1c-1.3,1.5-3.1,3.3-0.3,4.8c5.6,3,11.5,5.3,18.1,6.5
		c-3.7-9.7-8.6-18.5-8.6-28.1C276.1,870.3,274,863.5,272,855.7z M321.6,882.5c-0.1-2.2-1.1-3.9-3.5-3.9c-2.4,0-3.7,1.5-3.6,3.7
		c0.1,2.2,1.3,3.7,3.7,3.7C320.4,885.9,321.3,884.4,321.6,882.5z"/>
	<path class="st1" d="M389.5,854c-4.7-1.8-9.5-0.9-14.3-0.3c-2.1,0.3-4.3,0-6.6,0c3.1-11.1,2.3-21.6-4.6-31.2
		c-7.7-10.6-18.4-16.2-31.2-17.6c-14.4-1.6-27.7,1.8-39.8,10.1c-5,3.4-5,3.4-7.3-2.4c-2.9-7.3-5.5-14.6-5.7-22.6
		c12.1-3.4,23.2-9.1,34.1-15c15-8.2,30.4-15.8,45.3-24.1c4.3-2.4,5.6-4.6,5.6-9.1c0-9.2-0.5-18.3-1.3-27.4c-1-10.9-3-21.7-5.5-32.4
		c-1.6-6.8-4.5-9.1-10.4-9.1c-0.7-2.4-1.4-4.7-2.3-7.1c-1.7-4.9-3.9-5.9-8.8-4.2c-10.1,3.4-19.7,8.1-29.3,12.7
		c-6.4,3.1-12.9,6-20.4,9.5c1.2-8.4,3.6-15.4,6.6-22.1c20.2-45.6,55.3-75.3,100.8-93.7c19.6-7.9,39.9-11.2,61-9.8
		c3.4,0.2,5.1-0.7,7.3-4.5c22.3-38.7,39-80.3,63.9-117.5c13.2-19.6,28.6-37.3,46.6-52.6c15.5-13.2,33.1-23.3,53.3-26.9
		c17.2-3.1,34.5-3,51,4.5c6.4,2.9,11.6,6.9,15.7,12.7c6.4,9,11.4,18.8,14.8,29.3c10.1,31.3,16.5,63.4,19.7,96.1
		c3.2,32.3,7.3,64.5,10.3,96.9c1.9,21,4.3,42.1,4.9,63.3c0.6,21.7-11.2,35.4-28.8,45.4c-3.4,2-7.2,2-11.1,1.4
		c-42.6-6.5-67.4-34.1-84.2-71c-17.9-39.3-25.3-81.2-29.6-123.7c-1.3-13.4-0.6-26.9,1.3-40.3c0.2-1.4,0-2.4-1.1-2.9
		c-1.7-0.7-2.8,0.3-3.6,1.7c-6.4-1.6-9-0.8-9.8,3.7c-1.8,11-5.7,21.4-9.4,31.9c-4.3,12.2-9.7,24-19.2,33.3c-1.5,1.4-3.5,2.6-3.7,5.1
		c-8.4,8-18.8,11.4-30,12.9c-2.3,0.3-4.5,0.9-6.8,1.4c-2.9-0.4-6-0.8-6.2,3.3c-0.1,3.4,2.4,3.8,5.2,3.2c5.8,3.9,12.4,2.5,18.5,1.8
		c20-2.4,38.6,2.2,56.9,9.4c5.8,2.3,9.1,5.7,10.7,12.3c6.2,25.8,15.3,50.6,29.6,73.2c11.2,17.7,25,33.3,43.7,42.9
		c8.5,4.4,10.5,10.2,11.3,18.2c0.4,4.8,1.1,9.6,2.2,14.3c0.7,3.1-0.1,4.4-2.9,5.6c-6.3,2.6-12.3,5.9-17.9,9.8
		c-1.8,1.2-3.5,2.6-4.3,4.7c-9.6,5.6-16.8,13.7-22.2,23.1c-14,24.2-33.7,42.6-56.7,58c-8.7,5.8-17.8,11.8-24.1,20
		c-6.1,8.1-13.4,14.7-20.5,21.7c-2.1,2.1-4.1,5-7.9,4.2c1.3-1.1,2.6-2.3,4-3.4c2-1.7,4.3-3.1,3.3-6.3c12.9-11,20.2-24.5,18.8-41.9
		c13.8-0.3,31.3-15.8,33.2-29.4c0.2-1.4,0.8-3.3-1.2-3.8c-2.1-0.5-2.2,1.7-2.7,2.9c-4,9.4-10.6,15.8-20.6,18.8c-3.3,1-4.8,0.9-6-2.9
		c-3.4-11.2-10.3-20-19.7-26.9c-27.4-20.1-70.9-17.2-97.1,6.7c-13.2,12-20.3,26.8-20,45.1c0.2,10.8,4.4,20,9.5,29
		c-4.4-0.7-6.8-4.2-9.8-6.8C407.2,858.7,400,852.7,389.5,854z M549.8,687c0.5-2.6,1-5.2,1.6-7.8c0.8-3.6-0.3-5.8-4.1-6.4
		c-1.3-0.2-2.6-0.5-3.9-0.8c-26.1-4.3-52.2-8.7-78.3-12.8c-9.3-1.5-18.5-3.8-28.1-4.3c-4.8-0.2-6.3,1.9-7.1,6.1
		c-4.6,23.8-8.2,47.9-12.4,71.8c-0.8,4.5,0.1,7.1,4.6,8.2c-0.3,5.9,4,7.5,8.4,8.9c28.5,9.3,57.6,15.5,87.1,20.3
		c14.9,2.4,16.1,2.2,20.4-12.1c5.6-18.6,10.1-37.5,16.9-55.7c0.8-2.1,1.1-4.5,1.4-6.8C556.9,690.5,555,688,549.8,687z"/>
	<path class="st1" d="M400.2,550.9c-2.3-26.9-8.8-53-16.4-78.8c-3.5-12.1-7.5-24-13.7-35.1c-5.3-9.4-11.1-12.4-21.8-11.2
		c-2.3,0.3-4.5,0.8-4.5,3.6c0,3,2.6,3,4.7,3.2c2.3,0.2,4.6,0.3,7.1,0.5c-0.1,0.7,0,1.4-0.3,1.6c-19.9,19.4-32.6,43.6-45.7,67.6
		c-1,1.8-1.8,3.6-2.8,5.3c-24.4,38.1-39.9,79.9-53,122.9c-4,13.3-10.9,25-20.5,35.1c-15.2,15.8-33.1,13.5-44-5.4
		c-10-17.3-15.2-36.1-18.1-55.7c-4-27.1-6.7-54.2-4.2-81.6c1.8-19.8,5.2-39.3,11.7-58.1c5.8-16.9,16.5-30.7,27.9-44.1
		c11.7-13.7,24.6-26.2,39.5-36.6c29.2-20.4,61.1-24,94.9-15.9c11.7,2.8,20.5,10,27,20.1c11.1,17.1,17.9,36.1,23.8,55.3
		c9,28.9,18.4,57.7,28,86.4c1.9,5.6,5.7,10.6,5.9,16.8c-2.6,0.1-5.2,0.6-7.8,0.9C411.9,548.4,406.4,551.6,400.2,550.9z"/>
	<path class="st2" d="M389.5,854c10.5-1.3,17.7,4.7,25,10.9c3,2.6,5.5,6.1,9.8,6.8c0,0-0.1,0.1-0.1,0.1c0,0.9,0.5,1.2,1.2,1.3
		c2.3,2.4,4.5,4.9,7,7c3.6,3,6.5,6,8.3,10.6c2.2,5.4,7,8.3,13,8.4c4.8,0.1,9.5,0.2,14.2-1.7c3.1-1.2,6.2-0.9,9.1,1.9
		c6.6,6.2,13.7,5.3,19.1-2c0.8-1.2,1.2-2.7,3-3.1c8.5-1.9,16-6,23.5-10.3c3.8,0.8,5.8-2.1,7.9-4.2c7-7,14.3-13.6,20.5-21.7
		c6.2-8.2,15.3-14.2,24.1-20c22.9-15.4,42.7-33.8,56.7-58c5.5-9.4,12.7-17.5,22.2-23.1c2,3.9,4.6,2,7,0.6
		c9.7-5.6,19.7-10.6,30.5-13.9c2.4-0.7,4.7-1.7,7.2-1.4c0.7,12.6-3.4,23.4-11.9,32.5c-1.5,1.6-3.1,3.1-2.5,5.6c0.3,4.2,2,5.4,6,3.9
		c5.1-1.9,9.9-4.7,15.5-5.2c2.6,10.9,0.1,20.9-4.7,30.7c-1.3,2.6-3.5,4.9-3.5,8.1c-25.4,36.2-57.7,65.6-93,91.6
		c-39.2,28.9-81.7,50.4-130.5,57.9c-51.2,7.9-99.8,0.4-144.9-25.7c-15.2-8.8-28.6-20-37.2-36c-3.2-5.9-5.2-12-6.7-18.4
		c1.4-0.8,1.7,0.6,2.3,1.2c6.2,7,12.9,7.4,20.7,3.2c5.2-2.8,10.4-0.6,15.5-1.9c1.4-0.4,1.5,1.6,1.8,2.6c3.1,9.1,9,16.7,13.3,25.1
		c0.4,0.7,1,1.3,1.5,2c1.7,1.9,3.6,4.4,6.2,2.6c2.9-2,0.8-4.3-0.5-6.5c-1.8-3-3.5-6-4.4-9.4c13.6,0.1,27.5-10.5,30.7-23.5
		c0.4-1.7,1.2-3.7-1.2-4.7c0.9-9.5-5.4-13.3-13.1-16.2c9.2-1.7,18.3-3,27.4-3.5C388.3,858,391.1,858,389.5,854z M409,952.9
		c7.7-2,15.6-2.2,23.6-1.9c1.8,0.1,4,0.9,5.5-1.1c2-0.2,4.7,1.1,5.7-1.6c1-2.7-0.8-4.8-2.7-6.5c-1.3-1.2-2.9-2.3-4.6-2.9
		c-9.5-3.8-18.5-2.1-27,3.2c-2.2,1.4-4.1,3.4-5.2,5.9c-0.7,1.5-1,3.3,0.2,4.7C405.8,954.5,407.4,953.8,409,952.9z M497.7,936.6
		c4.2-7.5,3.8-15.2,1-22.9c-1.9-5.1-6-7.8-10.7-6.6c-4.9,1.2-3.7,5.5-4,8.9c-3.5,3.8-3.9,12.2-0.8,18.5
		C486.6,941.5,492.2,942.3,497.7,936.6z"/>
	<path class="st4" d="M353.1,735.5c0.2,1-1,1.9-2.6,2.8c-26.2,13.6-52.9,26.4-80.8,36.3c-2.8,1-4.4,0.7-5.8-2.3
		c-8.4-18.1-16.7-36.2-24-54.7c-1.2-3,0.5-3.4,2.3-4.3c14.4-6.7,28.8-13.6,43.3-20.2c16.5-7.5,33-14.8,49.5-22.4
		c3-1.4,4.3-1,4.9,2.3c4,19.7,9.5,39.1,12.7,58.9C352.7,732.8,352.8,733.6,353.1,735.5z"/>
	<path class="st1" d="M343,584.1c-3.9-7-1.8-14.2-0.4-21.3c2.2-11.1,6.7-21.5,11.2-31.8c1.4-3.2,2.9-6.3,4.2-9.6
		c0.6-1.7,2.6-4,0.1-5.2c-2.3-1.1-2.7,1.9-3.5,3.3c-2.8,4.9-5.4,9.9-7.9,14.9c-0.9,1.7-1.6,2.6-3.7,2c-1.4-0.4-3-0.2-4.5-0.3
		c-6.6-0.3-10.2-3.1-11.8-9.4c-0.8-3.4-1.6-6.8-1-10.3c4-1.4,4.1-5.4,5.3-8.5c8.5-20.4,19.1-39.4,34.3-55.7c1.8-1.9,3.6-3.3,6.3-3.6
		c5.5,9.8,7.8,20.6,10.5,31.3c4.9,19.2,9.2,38.6,11.7,58.3c0.7,5.5,0.7,11.1,1.1,16.7c-1.7-0.1-3.3,0.6-4.8,1.3
		C373.3,563.7,357.4,572.6,343,584.1z"/>
	<path class="st29" d="M332.3,598.2c-13.4,12.2-25.5,25.6-35.6,41.4c-11.2-13.2-15.6-28.6-18.8-44.6c1.8-1.2,2.2-3.3,3-5
		c8.1-16.6,14.2-34.2,24.8-49.4c2.8-4,5.3-8.3,9.5-11.6c0.3,0.8,0.6,1.2,0.7,1.6c1.2,11.2,4.8,15.7,15.6,18.4
		c2.7,0.7,2.2,1.7,1.6,3.4c-2.7,7.2-4.7,14.6-5.5,22.2C326.6,582.8,324.5,591.6,332.3,598.2z"/>
	<path class="st30" d="M364.7,841.4c-9.9-6.9-20.8-10.1-32.5-9.3c-16.1,1.1-30.5,6.3-41.5,18.7c-4,4.5-3.8,6.4,0.6,10.4
		c1.3,1.2,2.5,2.7,3.9,3.8c2.9,2.1,2,3.6-0.2,5.7c-4.9,4.6-5.1,4.7-9.2-0.8c-7.3-10-7.4-20.7-2.4-31.6
		c10.4-22.6,41.3-33.7,63.8-23.1C357.6,820.1,364.4,830,364.7,841.4z"/>
	<path class="st31" d="M348,673c5.9,0,8.8,2.3,10.4,9.1c2.5,10.7,4.5,21.4,5.5,32.4c0.8,9.1,1.3,18.2,1.3,27.4
		c0,4.5-1.3,6.7-5.6,9.1c-15,8.3-30.3,15.9-45.3,24.1c-10.9,6-22,11.7-34.1,15c-0.3-1.1-0.6-2.2-0.8-3.4c-1.1-7.7-1-8,6.4-10.8
		c22.7-8.6,44.7-18.9,66.3-29.8c6.5-3.3,9-7.5,8-14.6c-1.8-12.7-4.8-25.1-7.7-37.6C350.9,687,349.5,680,348,673z"/>
	<path class="st32" d="M332.3,598.2c-7.8-6.6-5.6-15.4-4.7-23.6c0.9-7.6,2.8-15,5.5-22.2c0.6-1.7,1.1-2.8-1.6-3.4
		c-10.8-2.7-14.4-7.2-15.6-18.4c0-0.4-0.3-0.8-0.7-1.6c-4.2,3.3-6.7,7.6-9.5,11.6c-10.6,15.3-16.7,32.9-24.8,49.4
		c-0.9,1.7-1.2,3.8-3,5c-1.7-2.4-0.9-4.7,0-7c11.1-29.1,23.5-57.5,40.9-84.1c0,5.2,0.1,10.2,0,15.2c-0.1,4.1,0.6,8,2.1,11.7
		c3.2,7.6,9.3,11.1,17.5,10.2c1.4-0.2,2.9-0.5,5.1-0.9c-2.8,7.5-5.7,14.4-7,21.7c-0.8,4.4-1.5,8.8-1.6,13.3
		c-0.1,6.1,1.3,11.5,6.8,15.5C338.5,593.2,335.4,595.7,332.3,598.2z"/>
	<path class="st31" d="M371.4,448.6c-2.6,0.3-4.5,1.7-6.3,3.6c-15.2,16.2-25.8,35.3-34.3,55.7c-1.3,3.1-1.3,7.1-5.3,8.5
		c0.3-14,1.4-27.7,8.5-40.3c7.5-13.4,16.6-25.6,25.8-37.8c1.7-2.2,2.8-2.5,4.5-0.3C366.9,441.3,370,444.4,371.4,448.6z"/>
	<path class="st32" d="M557.6,561.1c-6.3-0.2-12.1-2.7-18.6-2.8c17.1-13.8,30.9-30.1,42.8-49.2c-0.1,16.4,2.9,31.7,3.7,47.1
		c-4.4-6.1-5.8-13.5-8.2-20.8c-3.1,4.7-5.7,9.2-8.8,13.2C565.1,553,562.8,558.4,557.6,561.1z"/>
	<path class="st33" d="M272,855.7c2,7.8,4,14.6,4.1,22.3c0,9.7,4.9,18.5,8.6,28.1c-6.6-1.2-12.5-3.5-18.1-6.5
		c-2.8-1.5-1-3.3,0.3-4.8c4.7-5.7,4.7-5.8-1.5-10.1c-3.5-2.5-7.2-4.8-10.5-7.6c-4.2-3.6-4-6.3,0.4-9.6
		C260.7,863.6,266.2,859.9,272,855.7z"/>
	<path class="st31" d="M544,544.1c0.1-2.5,2.2-3.6,3.7-5.1c9.5-9.4,14.8-21.1,19.2-33.3c3.7-10.4,7.6-20.8,9.4-31.9
		c0.7-4.5,3.4-5.3,9.8-3.7c-0.8,4.2-2,8.4-2.5,12.6c-2.2,19.7-12.7,34.9-25.6,48.8C553.7,536,549.8,541.1,544,544.1z"/>
	<path class="st29" d="M557.6,561.1c5.3-2.7,7.6-8.1,11-12.4c3.1-4,5.7-8.5,8.8-13.2c2.4,7.3,3.8,14.7,8.2,20.8
		c1.6,5.4,1.7,11.1,2.8,17C577.7,569,567.6,565,557.6,561.1z"/>
	<path class="st33" d="M275.9,608.1c2.5,11.2,7.3,21.4,13.6,30.9c-2.8,0.5-3.9,2.8-5.4,4.8c-2.6,3.4-3.9,7.7-7.3,10.5
		c-3-9.3-7.2-18.2-11.4-27c1.9-0.5,2-2.4,2.8-3.8C271.3,618.6,272.6,612.8,275.9,608.1z"/>
	<path class="st32" d="M684.5,780.4c-0.6-2.5,1-4,2.5-5.6c8.5-9.2,12.6-20,11.9-32.5c11.8-1.4,14.9,2.4,10.7,13.3
		c-1.9,4.9-4.5,9.6-6.7,14.4c-0.2,0.4-0.5,1-0.9,1.1C695.5,773.1,690.8,778.2,684.5,780.4z"/>
	<path class="st34" d="M313.7,848.1c-5.2,2-9.8,4.9-13.5,9.1c-1.6,1.9-2.7,1.6-4.5,0.1c-1.9-1.7-1-2.6,0.2-4
		c12.2-13.5,43.2-22.5,63.5-7c2.6,1.9,5.7,3.9,3.9,8.6c-11.7-14-26.5-12.7-41.8-8.8C317.6,842.4,315.6,842.9,313.7,848.1z"/>
	<path class="st31" d="M343,584.1c14.3-11.5,30.3-20.4,46.9-28c1.5-0.7,3.1-1.3,4.8-1.3c1.5,4.8-0.2,7.3-5.1,9
		c-14.5,5.1-27.9,12.4-40.3,21.4C346.5,587.2,344.6,587.2,343,584.1z"/>
	<path class="st27" d="M365.3,872.8c2.3,5.1-1.3,8.3-4.2,11.2c-4.5,4.5-10.2,7.4-16.2,9.5c-4.2,1.5-6.5-1.6-8.9-4
		c-2.9-2.9-5.1-6.2-2.4-10.5c1.3,0.3,2.7,0.2,3.8,0.9c4.7,2.9,9.2,2.2,14.2,0.5C356.7,878.6,360.7,875.2,365.3,872.8z"/>
	<path class="st34" d="M365.3,872.8c-4.7,2.3-8.7,5.8-13.7,7.5c-4.9,1.7-9.5,2.4-14.2-0.5c-1-0.6-2.5-0.6-3.8-0.9
		c2-6.9,7.9-10.1,13.7-11.6C353.8,865.7,360.6,866.8,365.3,872.8z"/>
	<path class="st30" d="M305.9,875.1c0,0.2,0,0.4,0.1,0.5c3.7,2.8,5.6,6.4,3.5,10.8c-1.6,3.3-9,4.6-13.3,3c-4.4-1.6-7-6-6.4-10.6
		c0.2-1.8,1.7-2.3,2.9-3.1C297.1,873.2,301.5,874.1,305.9,875.1L305.9,875.1z"/>
	<path class="st32" d="M371.4,877.8c2.5,1,1.7,3,1.2,4.7c-3.1,13-17.1,23.6-30.7,23.5c-1.7-2.1-3-4.4-3.9-7L338,899
		C353.8,899.3,364.3,891.2,371.4,877.8z"/>
	<path class="st31" d="M276.8,654.3c3.4-2.8,4.7-7.1,7.3-10.5c1.5-2,2.7-4.3,5.4-4.8c4.7,3.1,4.4,6.6,1.5,11.1
		c-4,6.3-6.3,13.4-9.5,21C279.8,664.9,278.3,659.6,276.8,654.3z"/>
	<path class="st32" d="M697.8,817.8c0-3.2,2.2-5.4,3.5-8.1c4.8-9.8,7.3-19.8,4.7-30.7c6.4-2.1,10,3.2,9.1,9.1
		c-1,6.6-4.5,12.1-8.1,17.5C704.1,809.9,702,814.6,697.8,817.8z"/>
	<path class="st31" d="M400.2,550.9c6.2,0.7,11.7-2.6,17.8-3.2c2.6-0.3,5.2-0.8,7.8-0.9c1.2,7,1.2,6.8-5.9,8.3
		c-5.2,1-10.3,2.2-15.4,3.7c-3.7,1.1-4.7,0.1-4.3-3.4C400.3,553.9,400.2,552.4,400.2,550.9z"/>
	<path class="st31" d="M275.9,608.1c-3.3,4.7-4.6,10.5-7.6,15.4c-0.8,1.3-0.9,3.2-2.8,3.8c-0.9-4.2,1.5-7.6,2.6-11.3
		c1.5-5.2,3.4-10.2,5.3-15.8C275.1,603,275.3,605.6,275.9,608.1z"/>
	<path class="st30" d="M313.7,848.1c1.8-5.2,3.9-5.7,7.9-2c0.8,2.6,1,5.1-2.3,5.9C316.3,852.7,314.3,851.3,313.7,848.1z"/>
	<path class="st34" d="M305.9,875.1c0.9-1.4-0.7-2.5-0.5-3.8c0.3-2.3,1.2-4.3,4-4.2c2.3,0.1,3.7,1.3,3.8,3.7c0.1,2.6-1,4.1-3.8,4.1
		C308.2,875,307.1,875.1,305.9,875.1C305.9,875.1,305.9,875.1,305.9,875.1z"/>
	<path class="st29" d="M321.6,882.5c-0.3,2-1.1,3.5-3.4,3.5c-2.4,0-3.7-1.4-3.7-3.7c-0.1-2.3,1.2-3.8,3.6-3.7
		C320.5,878.6,321.4,880.2,321.6,882.5z"/>
	<path class="st31" d="M506.2,564.8c-2.8,0.6-5.3,0.3-5.2-3.2c0.1-4.1,3.3-3.7,6.2-3.3C506.1,560.3,505.6,562.5,506.2,564.8z"/>
	<path class="st32" d="M338.1,899c-0.1-0.1-0.2-0.1-0.3-0.2c0,0,0-0.2,0-0.2C337.8,898.7,337.9,898.9,338.1,899
		C338,899,338.1,899,338.1,899z"/>
	<path class="st35" d="M522.7,883.9c-7.4,4.3-15,8.5-23.5,10.3c-1.8,0.4-2.1,1.9-3,3.1c-5.3,7.3-12.5,8.2-19.1,2
		c-2.9-2.7-6-3.1-9.1-1.9c-4.7,1.9-9.4,1.8-14.2,1.7c-6-0.1-10.9-3-13-8.4c-1.8-4.6-4.8-7.6-8.3-10.6c-2.5-2.1-4.7-4.7-7-7
		c-0.2-0.7-0.4-1.2-1.2-1.3c0,0,0.1-0.1,0.1-0.1c-5.1-9-9.3-18.2-9.5-29c-0.3-18.2,6.8-33,20-45.1c26.2-23.9,69.8-26.8,97.1-6.7
		c9.4,6.9,16.3,15.7,19.7,26.9c1.2,3.9,2.7,3.9,6,2.9c10-3,16.6-9.4,20.6-18.8c0.5-1.2,0.6-3.4,2.7-2.9c2,0.5,1.3,2.5,1.2,3.8
		c-1.9,13.7-19.4,29.2-33.2,29.4c-1.5-1.1-2.7-2.4-2.8-4.5c-0.3-13.1-7.5-22.6-17.3-30c-30.6-23.2-79.8-13.1-99.1,20.2
		c-3.4,5.9-5.7,12.2-5.8,19.9c4.7-4,9.2-6.9,14.3-8.9c15.5-6.1,31.5-8.3,47.9-5.8c13.4,2,26.3,5.5,37.4,14c4.7,3.6,4.9,4.9,0.6,8.8
		c-4,3.6-8.3,7-11.8,11.4c15.2,5.2,15.2,5.2,12.1,17.9c2-0.9,3.8-1.8,5.7-1.1c0.9,3.2-1.4,4.7-3.3,6.3
		C525.3,881.6,524,882.7,522.7,883.9z M484.8,837c0.2,2.5,0.4,5.2,3.8,5.3c2.7,0.1,3.6-1.8,3.6-4.3c7.7,1.3,14.3,4.7,19.8,11
		c0.8-1,1.4-1.9,2.1-2.6c6-5.9,6.2-6.2-1.5-9.7c-22.7-10.1-45.9-12.9-69.6-3.7c-6.4,2.5-12.4,5.7-16.5,11.6
		c-1.7,2.3-2.4,4.5-0.6,7.1C443,836.1,463.3,834.1,484.8,837z M456.6,876.7c-0.7,0-2.4,0-4,0.3c-3.8,0.8-7.7,1.6-8.5,6.3
		c-0.9,5.1,1.8,8.4,6.1,10.2c6.3,2.7,12.3,2.6,18.4-1.4c5-3.2,6-7.6,1.6-11.7C466.6,877.2,462.1,876.8,456.6,876.7z M484.1,887.1
		c-3,0.1-6.4,1.1-7.6,5c-0.7,2.5,5.3,6.8,9.4,6.5c3.3-0.2,6.8-1.2,7.1-5.4C493.4,889.7,489.8,887.2,484.1,887.1z M502.6,883.7
		c8.7-0.3,16.4-8.4,16.5-16.1c0-1.6-0.9-2-2-2.4c-1.6-0.5-2.9-0.2-3.4,1.7C511.9,873.5,508.6,879.1,502.6,883.7z M499.2,866.6
		c0-3.5-1.9-5.3-5.1-5.5c-3.2-0.2-4.9,1.6-5,4.8c-0.1,3.4,1.6,5.2,5.1,5.3C497.2,871.3,499,869.7,499.2,866.6z M495.7,876.4
		c0-1.7-1-2.4-2.5-2.4c-1.9,0-3.2,0.9-3.3,2.9c-0.1,1.7,0.8,2.9,2.6,2.9C494.6,879.7,495.2,878,495.7,876.4z"/>
	<path class="st36" d="M530,874.1c-2-0.6-3.8,0.2-5.7,1.1c3-12.7,3-12.7-12.1-17.9c3.6-4.4,7.8-7.8,11.8-11.4
		c4.3-3.9,4.1-5.2-0.6-8.8c-11-8.5-24-11.9-37.4-14c-16.4-2.5-32.4-0.3-47.9,5.8c-5.1,2-9.6,4.9-14.3,8.9c0-7.7,2.3-14,5.8-19.9
		c19.3-33.3,68.5-43.4,99.1-20.2c9.8,7.5,17,16.9,17.3,30c0,2.1,1.2,3.3,2.8,4.5C550.2,849.6,542.9,863.1,530,874.1z"/>
	<path class="st37" d="M422.1,741c-4.5-1-5.4-3.6-4.6-8.2c4.2-23.9,7.8-47.9,12.4-71.8c0.8-4.2,2.2-6.4,7.1-6.1
		c9.5,0.5,18.7,2.8,28.1,4.3c26.1,4.1,52.2,8.5,78.3,12.8c1.3,0.2,2.6,0.6,3.9,0.8c3.8,0.6,5,2.8,4.1,6.4c-0.6,2.6-1.1,5.2-1.6,7.8
		c-0.3,0.6-0.6,1.2-0.7,1.8c-4.9,20.8-9.8,41.7-14.8,62.5c-3.5,14.6-3.5,14.5-18,11.1C484.9,755.2,453.5,748.1,422.1,741z
		 M523.5,756.2c3.1,1.5,2.8-1.2,3.1-2.4c5.6-23.6,11-47.2,16.6-70.8c0.6-2.6,0.3-3.5-2.5-3.9c-33.7-5.8-67.4-11.7-101.1-17.7
		c-2.3-0.4-3.1,0.1-3.5,2.5c-3.6,22-7.3,44-11.2,65.9c-0.7,3.7,0.3,4.7,3.9,5.4c11.3,2.2,22.4,4.8,33.6,7.3
		C482.9,747.1,503.3,751.7,523.5,756.2z"/>
	<path class="st31" d="M422.1,741c31.4,7.2,62.8,14.3,94.2,21.5c14.6,3.3,14.6,3.4,18-11.1c4.9-20.8,9.8-41.7,14.8-62.5
		c0.1-0.6,0.5-1.2,0.7-1.8c5.2,0.9,7.2,3.5,6.5,8.5c-0.3,2.3-0.6,4.7-1.4,6.8c-6.8,18.2-11.3,37.1-16.9,55.7
		c-4.3,14.3-5.5,14.5-20.4,12.1c-29.5-4.8-58.7-11-87.1-20.3C426.1,748.4,421.8,746.8,422.1,741z"/>
	<path class="st36" d="M484,916c0.4-3.4-0.8-7.8,4-8.9c4.7-1.1,8.9,1.5,10.7,6.6c2.8,7.7,3.1,15.4-1,22.9c-6.7,1.6-9.6,0.2-11.7-5.8
		c-1-2.7-1-5.4-1.1-8.2C484.9,920.4,485.9,918,484,916z"/>
	<path class="st37" d="M409,952.9c-1.5,0.9-3.1,1.5-4.5-0.1c-1.2-1.4-0.9-3.2-0.2-4.7c1.1-2.5,3-4.5,5.2-5.9c8.4-5.3,17.4-7,27-3.2
		c1.7,0.7,3.2,1.7,4.6,2.9c1.9,1.7,3.7,3.8,2.7,6.5c-1,2.7-3.7,1.4-5.7,1.6C427.3,943.5,416.8,944.5,409,952.9z"/>
	<path class="st37" d="M484,916c1.9,2,0.9,4.4,0.9,6.6c0.1,2.8,0.2,5.6,1.1,8.2c2.1,5.9,4.9,7.3,11.7,5.8
		c-5.6,5.7-11.1,4.9-14.5-2.1C480.1,928.2,480.5,919.8,484,916z"/>
	<path class="st32" d="M409,952.9c7.9-8.4,18.3-9.5,29.1-3c-1.5,2-3.7,1.1-5.5,1.1C424.6,950.7,416.7,950.9,409,952.9z"/>
	<path class="st1" d="M424.2,871.7c0.8,0,1.1,0.6,1.2,1.3C424.7,872.9,424.2,872.6,424.2,871.7z"/>
	<path class="st34" d="M484.8,837c-21.5-2.9-41.8-0.9-58.9,14.8c-1.8-2.5-1.1-4.7,0.6-7.1c4.2-5.8,10.1-9.1,16.5-11.6
		c23.7-9.2,47-6.5,69.6,3.7c7.7,3.4,7.5,3.8,1.5,9.7c-0.7,0.7-1.3,1.5-2.1,2.6c-5.6-6.3-12.1-9.7-19.8-11
		C489.3,833.6,488.3,833.5,484.8,837z"/>
	<path class="st30" d="M456.6,876.7c5.5,0.1,10,0.5,13.6,3.8c4.4,4.1,3.4,8.5-1.6,11.7c-6.1,3.9-12.1,4.1-18.4,1.4
		c-4.3-1.9-7-5.1-6.1-10.2c0.8-4.8,4.8-5.5,8.5-6.3C454.2,876.6,455.9,876.7,456.6,876.7z"/>
	<path class="st30" d="M484.1,887.1c5.7,0.1,9.3,2.7,9,6.1c-0.4,4.3-3.9,5.2-7.1,5.4c-4.2,0.3-10.2-4.1-9.4-6.5
		C477.7,888.2,481.1,887.2,484.1,887.1z"/>
	<path class="st34" d="M502.6,883.7c6-4.6,9.3-10.2,11-16.8c0.5-1.9,1.8-2.2,3.4-1.7c1.1,0.4,2,0.8,2,2.4
		C519,875.3,511.3,883.4,502.6,883.7z"/>
	<path class="st34" d="M499.2,866.6c-0.2,3.1-2,4.7-5.1,4.6c-3.4-0.1-5.2-2-5.1-5.3c0.1-3.1,1.9-4.9,5-4.8
		C497.3,861.2,499.2,863.1,499.2,866.6z"/>
	<path class="st30" d="M484.8,837c3.5-3.6,4.5-3.4,7.5,1c0,2.4-0.9,4.3-3.6,4.3C485.2,842.3,485,839.6,484.8,837z"/>
	<path class="st27" d="M495.7,876.4c-0.6,1.6-1.2,3.3-3.1,3.3c-1.8,0.1-2.7-1.1-2.6-2.9c0.1-2,1.3-2.9,3.3-2.9
		C494.7,874,495.8,874.7,495.7,876.4z"/>
	<path class="st4" d="M523.5,756.2c-20.2-4.5-40.6-9.1-61-13.7c-11.2-2.5-22.4-5.1-33.6-7.3c-3.6-0.7-4.5-1.7-3.9-5.4
		c3.9-21.9,7.6-43.9,11.2-65.9c0.4-2.5,1.2-3,3.5-2.5c33.7,6,67.4,11.9,101.1,17.7c2.7,0.5,3.1,1.4,2.5,3.9
		c-5.6,23.6-11.1,47.2-16.6,70.8C526.3,755,526.6,757.7,523.5,756.2z"/>
</g>
</svg>
