<?xml version="1.0" encoding="utf-8"?>
<!-- Generator: Adobe Illustrator 25.0.0, SVG Export Plug-In . SVG Version: 6.00 Build 0)  -->
<svg version="1.1" id="图层_1" xmlns="http://www.w3.org/2000/svg" xmlns:xlink="http://www.w3.org/1999/xlink" x="0px" y="0px"
	 viewBox="0 0 1200 1600" style="enable-background:new 0 0 1200 1600;" xml:space="preserve">
<style type="text/css">
	.st0{fill:#060604;}
	.st1{fill:#EDCF5D;}
	.st2{fill:#FBF1EE;}
	.st3{fill:#ECCF5D;}
	.st4{fill:#F4FB95;}
	.st5{fill:#A0918B;}
	.st6{fill:#FBFBFB;}
	.st7{fill:#927233;}
	.st8{fill:#935A40;}
	.st9{fill:#623C2A;}
	.st10{fill:#FEFEFE;}
	.st11{fill:#040302;}
	.st12{fill:#090805;}
	.st13{fill:#9C5B46;}
	.st14{fill:#070705;}
	.st15{fill:#ECCE5D;}
	.st16{fill:#F2F2F2;}
	.st17{fill:#93583F;}
	.st18{fill:#A1918B;}
	.st19{fill:#513123;}
	.st20{fill:#FAFAFA;}
	.st21{fill:#030202;}
	.st22{fill:#060605;}
	.st23{fill:#A0908A;}
	.st24{fill:#937234;}
	.st25{fill:#E6C95B;}
	.st26{fill:#864E37;}
	.st27{fill:#513124;}
	.st28{fill:#B0603E;}
	.st29{fill:#FAF0ED;}
	.st30{fill:#F9F9F9;}
	.st31{fill:#917133;}
	.st32{fill:#9E8F89;}
	.st33{fill:#E7CA5B;}
	.st34{fill:#92583F;}
	.st35{fill:#050503;}
	.st36{fill:#FCFBFB;}
	.st37{fill:#080704;}
	.st38{fill:#070605;}
	.st39{fill:#FAF1ED;}
	.st40{fill:#F4FA95;}
	.st41{fill:#F8F8F7;}
	.st42{fill:#90573E;}
	.st43{fill:#030302;}
	.st44{fill:#080805;}
	.st45{fill:#FBF1ED;}
	.st46{fill:#FBFBFA;}
	.st47{fill:#927234;}
	.st48{fill:#F69376;}
	.st49{fill:#7B2D2D;}
	.st50{fill:#FCFCFC;}
	.st51{fill:#EF5A2D;}
	.st52{fill:#F0CC2D;}
	.st53{fill:#9F8F8A;}
	.st54{fill:#FAFAF9;}
	.st55{fill:#F2A78E;}
	.st56{fill:#040403;}
	.st57{fill:#070604;}
	.st58{fill:#A0908B;}
	.st59{fill:#F7F7F7;}
	.st60{fill:#E8CB5B;}
	.st61{fill:#8F563E;}
	.st62{fill:#513224;}
	.st63{fill:#080705;}
	.st64{fill:#FCFCFB;}
	.st65{fill:#F9F8F8;}
	.st66{fill:#FAF0EC;}
	.st67{fill:#9F908A;}
	.st68{fill:#91573E;}
	.st69{fill:#070704;}
	.st70{fill:#F5FC96;}
	.st71{fill:#9C9C53;}
	.st72{fill:#9A9A52;}
	.st73{fill:#F2F994;}
	.st74{fill:#A17628;}
	.st75{fill:#90573F;}
	.st76{fill:#090806;}
	.st77{fill:#523123;}
	.st78{fill:#7C4031;}
	.st79{fill:#ED866D;}
	.st80{fill:#F3E9E6;}
	.st81{fill:#4F3023;}
	.st82{fill:#060606;}
	.st83{fill:#89533B;}
	.st84{fill:#050403;}
	.st85{fill:#090909;}
	.st86{fill:#EDCF5E;}
	.st87{fill:#050504;}
	.st88{fill:#060504;}
	.st89{fill:#955A41;}
	.st90{fill:#080703;}
	.st91{fill:#090807;}
	.st92{fill:#070603;}
	.st93{fill:#0A0905;}
	.st94{fill:#937335;}
	.st95{fill:#955A40;}
	.st96{fill:#955940;}
	.st97{fill:#EDD05E;}
	.st98{fill:#8F7032;}
	.st99{fill:#945940;}
	.st100{fill:#EED05E;}
	.st101{fill:#503123;}
	.st102{fill:#EEEEEE;}
	.st103{fill:#0D0C0A;}
	.st104{fill:#E3C659;}
	.st105{fill:#967535;}
	.st106{fill:#9D7D38;}
	.st107{fill:#745A29;}
	.st108{fill:#847334;}
	.st109{fill:#907134;}
	.st110{fill:#E5C85B;}
	.st111{fill:#503124;}
	.st112{fill:#927133;}
	.st113{fill:#E0DDD4;}
	.st114{fill:#987836;}
	.st115{fill:#977636;}
	.st116{fill:#CCC4A4;}
	.st117{fill:#523224;}
	.st118{fill:#0B0908;}
	.st119{fill:#8F7135;}
	.st120{fill:#050404;}
	.st121{fill:#EDD05D;}
	.st122{fill:#F3FA94;}
	.st123{fill:#9A9A51;}
	.st124{fill:#999951;}
	.st125{fill:#937334;}
	.st126{fill:#FAF0EE;}
	.st127{fill:#F3FA95;}
	.st128{fill:#989851;}
	.st129{fill:#A2792A;}
	.st130{fill:#F1F893;}
	.st131{fill:#A17729;}
	.st132{fill:#050502;}
	.st133{fill:#947335;}
	.st134{fill:#917233;}
	.st135{fill:#9B9B52;}
	.st136{fill:#F9EFEC;}
	.st137{fill:#9A782F;}
	.st138{fill:#979752;}
	.st139{fill:#F2F893;}
	.st140{fill:#8C8E4F;}
	.st141{fill:#B5B96E;}
	.st142{fill:#0F0F09;}
	.st143{fill:#9C9C52;}
	.st144{fill:#F5FB95;}
	.st145{fill:#F3F994;}
	.st146{fill:#A17728;}
	.st147{fill:#917134;}
	.st148{fill:#090706;}
	.st149{fill:#8E6F32;}
	.st150{fill:#93593F;}
	.st151{fill:#907033;}
	.st152{fill:#060505;}
	.st153{fill:#C8C3AF;}
	.st154{fill:#533324;}
	.st155{fill:#533426;}
	.st156{fill:#0E0C0A;}
	.st157{fill:#907133;}
	.st158{fill:#583627;}
	.st159{fill:#0A0907;}
	.st160{fill:#573526;}
	.st161{fill:#0C0B09;}
	.st162{fill:#503023;}
	.st163{fill:#543325;}
	.st164{fill:#B7B3A1;}
</style>
<g>
	<path class="st22" d="M716.5,773.6c2.8-1.2,5.4-2.6,8.3-3.4c4.8-1.4,9.7-1.7,13.5,2.4c3.9,4.2,4.8,9.4,3.2,14.9
		c-3.4,11.9-8.6,23-14.9,33.7c-25,42.3-60.3,74.3-101.7,99.7c-45.8,28-95.2,46.7-148.6,53.9c-41.4,5.6-82.4,4.6-122-10.8
		c-21-8.1-39.7-20.1-56.2-35.4c-5.6-5.1-9.8-11.3-12.2-18.6c-0.7-2.2-2.1-3.6-4-4.8c-5.2-3.2-9.6-7.2-12.7-12.5
		c-5.1-8.6-4.5-14.8,2.1-22.2c0.9-1,1.8-2,2.8-3c-5.5-3.7-10.4-8-13.8-13.7c-3.8-6.5-2.6-11.2,3.8-15.2c4.6-2.9,9.7-4.4,14.8-5.7
		c2.4-0.6,3.5-1.6,2.7-4.2c-0.4-1.4-0.6-2.9-0.7-4.4c-0.4-6-2.4-10.8-8-13.9c-2.9-1.6-4.9-4.5-6.5-7.5c-0.6-1.2-1-2.7,0.1-3.7
		c1.3-1.1,2.5-0.2,3.4,0.9c0.9,1.1,2.1,1.5,3.8,1.3c-1-4.2-3.3-7.4-4.9-11c-12.3-26.2-26.3-51.5-36.3-78.7
		c-26.4-71.9-39.7-145.9-35.2-222.3c4-68,13.9-135.1,41.9-198.2c14.1-31.8,30.2-62.3,54.8-87.5c11-11.3,23.3-20.8,38-26.9
		c15.7-6.6,29.6-2.8,39.7,11c9.8,13.5,14.4,29.2,18.4,45c7.1,27.6,10.2,56,15.2,84c7.5,42.1,10.8,84.9,18,127.1
		c5.7,33.2,10.5,66.8,21.6,98.8c4.9,14.1,5,14,19.7,13.6c2.3-0.1,2.7-1.5,3.5-2.9c56.6-93.8,117.8-184.6,180.5-274.4
		c21.4-30.7,46.4-58.5,75.4-82.3c12.8-10.5,26.5-19.6,41.3-27c5.7-2.8,11.6-5,18-5.6c17.1-1.6,30,6.4,35.7,22.5
		c5.3,14.8,6.1,30.3,6.8,45.8c2.5,56.2-2.4,111.8-12.3,167.1c-4.4,24.6-6.1,49.7-11.6,74c-16.3,70.9-35,141.1-69.7,205.8
		c-8.5,15.7-17.7,30.9-29.8,44.1c-2.1,2.3-2.9,11.4-1.5,14.1c0.8,1.7,2,0.7,2.9,0.6c11.8-0.9,16.9,4,16.7,15.9
		c-0.1,6.7-2.6,12.6-5.1,18.6c-0.2,0.4-0.6,1.1-0.5,1.2C715.4,774.4,715.9,773.9,716.5,773.6z M336.1,860.9c0.1,0.2,0.3,0.4,0.4,0.5
		c0-0.1,0-0.2-0.1-0.3C336.3,861.1,336.1,861.1,336.1,860.9c-0.4-0.3-0.6-0.7-0.9-1.1c-4.3-7.1-7-15-9.8-23.4
		c-1.9,6.8,3.3,19.3,9.4,23.8C335.2,860.5,335.6,860.7,336.1,860.9z M695.8,843l0.1-0.2c0.8-0.2,1.3-0.7,1.1-1.6l0.1-0.2
		c0.9-0.2,1.3-0.7,1-1.6l0.2-0.3c0.7,0,0.9-0.3,0.6-0.9l0.1-0.1c0.3-0.1,0.8,0,0.9-0.2c10.8-15.4,22.9-30,28.7-48.3
		c1-3,3.6-6.7,0.8-9.4c-2.9-2.8-6.9-0.8-10.3,0.4c-0.1,0-0.2,0.2-0.3,0.4c-6,1.9-11.3,5.1-17,7.5c-4.5,2-6.1,0.7-6-4.4
		c2.5-0.9,3.8-3.1,5-5.3c4-7.2,6-15,7.2-23c1.3-8.5-0.7-10.1-9-7.7c-2.4-0.1-4.5,0.8-6.7,1.5c-13.1,3.9-26.2,7.9-39.3,11.8
		c-2.5,0.8-5,1.8-7.7,0.5c-0.4-1.5,0.3-2.7,1-3.8c14-3.8,27.3-9.4,40.8-14.3c6-2.2,6-2.5,4-9.1c-4.7,3-9.2,7.1-15.3,3.4
		c-0.2-3.3,1.6-5.6,4-7.5c13.6-11.1,23.9-25,32.7-40c24.8-42,42.4-86.9,55.4-133.8c8.4-30.5,17.9-60.7,23.3-91.9
		c4.4-25.1,7.1-50.5,11.3-75.6c9.4-55.7,13.8-111.7,10.2-168.2c-0.7-10.8-1.7-21.6-5.7-31.8c-4.4-11.3-14.1-16.1-25.7-13.2
		c-5.1,1.2-9.7,3.4-14.3,5.8c-28.3,14.6-51.2,35.9-72.5,59c-24.5,26.5-45,56.1-65,86c-38.6,57.7-77.5,115.2-114.9,173.7
		c-13.4,20.9-27.1,41.5-40.2,62.6c-1.6,2.6-3.4,5.8-6.9,4.4c-9.4-3.7-19-1.7-28,0c-50.7,9.2-91.7,35.1-124.2,74.9
		c-2.4,2.9-1.8,4.1,1,6c12.2,8.2,23.7,17.3,34.9,26.6c2.1,1.7,4.2,3.3,5.1,6c-0.1,1.3,0.1,2.7-0.3,4c-5.6,19.1-10.8,38.3-18.4,56.8
		c-2.4,5.7-4.7,6.4-10.6,4.2c-13.8-5.3-26.9-12.2-40.1-18.9c-6.3-3.2-6.3-3.2-7.4,3.4c-2.6,20.6-1.9,40.9,4.9,60.7
		c0.3-6,1.2-11.9,3.7-17.4c6.9-15.1,20.6-17.5,31.8-5.4c2.2,2.4,4.2,5.2,6.1,7.9c5.2,7.6,9.1,15.9,12.4,24.4
		c8.5,21.6,17.9,43.2,10.5,67.4l0,0c-0.8,0.1-0.9,0.7-0.9,1.3c-2.2,2.8-5,5-8.1,6.9c-0.7-0.1-1.4,0-1.6,0.8c0,0,0-0.1,0-0.1
		c-14-0.2-25.1-7.8-28.9-19.8c-0.6-1.9-2-4.2,1.4-5.1c3.3,2.6,5.4,6.3,8,9.4c5.2,6.2,11.5,9.4,17.9,8.7
		c-9.2-3.6-13.3-10.9-15.9-19.4c-0.4-1.4-0.8-2.9-1.2-4.3c-1.9-5.7-1.8-11.1,3-15.5c3.5-3.2,2.1-4.8-2-5.4c-3.5-0.5-7.2-0.8-8.4-4.9
		c-4.4-15.2-7.2-30.5,1.3-45.3c0.8-1.3,0.9-2.2-0.1-3.4c-3.7-4.4-9.4-4.9-13.6-0.9c-4.8,4.7-6.7,10.6-6.8,17.1
		c-0.1,8.5,0.8,16.9,1.9,25.3c0.1,2.8-2.7,4.9-2,8c1.9,8.4,2.4,17,3.3,25.5c0.6,13.5,1.6,27,0,40.4c-1.7,14.5,3.2,26.3,13.8,35.7
		c26.4,23.3,57.5,36.8,92.1,42c26.9,4,53.7,2.3,80.4-2.7c31.5-6,62.3-13.9,91.8-26.5c31.4-13.5,60.3-31.2,85.2-54.7
		c12.3-11.6,25.4-22.6,35-36.8C695.7,843.9,696,843.6,695.8,843z M322.1,795.7c1.7,0.4,3.6,1.1,5-0.6c1.3-1.7-0.3-3-0.9-4.4
		c-0.8-1.8-1.3-3.7-2.9-5c-0.6-2.4-1.9-4.4-3.8-6.4c-4.8,8.9-4.9,18.1-3.8,27.4c0.4,3.6,1.5,7.1,2.4,10.6c0.5,1.9,2.5,2.5,3.9,2.3
		c2.3-0.3,1.1-2.5,0.9-3.6C321.3,809.2,322.1,802.5,322.1,795.7z M314.1,246.1c-4.9,3.1-8.4,7.6-11.9,12
		c-21.6,27.1-36.5,58.1-49,90.1c-12.9,33-21.8,67.2-25.3,102.8c-2.5,25.6-3.4,51.2,0.6,76.5c5.5,34.7,13.2,68.9,26.1,101.8
		c2.9,7.3,5.1,15,8.8,22.4c4.2-7.8,7.5-15.4,12-22.4c3.4-5.2,5.8-5.9,11.1-2.4c6,3.9,11.6,8.3,17.4,12.5c1.6,1.1,3.3,4.1,5.1,2.1
		c2-2.3,5.7-4.3,4.4-8.7c-2.9-9.9-2.8-19.7,1.3-29.3c0.3-0.7,0.8-1.5-0.2-2.4c-0.7,0.1-1.5,0.2-2.3,0.4
		c-11.4,2.4-19.3-3.2-20.9-14.7c-0.5-3.8-0.5-7.7,0.1-11.4c2.5-15.5,7.6-30.2,15.4-43.9c0.7-1.3,1.4-2.7,2.4-4.8
		c-3.7,1.3-6.5,2.3-9.3,3.1c-13.3,4-21.9,0.7-28.8-10.7c-0.6-12.7,2.6-24.6,7.7-36.1c10.6-24,24-46.4,40.5-66.8
		c2.9-1.8,4.2-5.1,6.8-7.1c4-3.2,4.7-7,4.2-12c-1.2-12.2,1.4-24.5,0.9-36.8c-0.4-8.8-0.3-17.7,0.2-26.4c1.5-24.4,3.7-48.7,1.9-73.2
		c-0.3-4.4-1.1-8.6-2.9-12.5C326.1,239.3,320.6,238.6,314.1,246.1z M318.3,620.9c-0.4,2.3,0.6,4.3,1,7c1-0.9,1.5-1.3,1.9-1.8
		c19.6-22.9,43.4-40.1,71.1-51.8c13.4-5.6,27.1-10.1,41.3-12.9c1.4-0.3,4.4,0.4,3.1-2.9c-2.1-5.2-4.3-10.3-6.5-15.5
		c-1.7-6.7-3.7-13.5-5.2-20.2c-12.7-56.3-19.8-113.4-27.1-170.6c-4.8-37.3-10.5-74.5-18.9-111.2c-3.5-15.2-8-30.3-16.4-43.7
		c-6.9-11-15.1-13.3-26.9-8.3c-13.1,5.6-24,14-33.9,24.2c-25.5,26.3-41.7,58.4-55.7,91.6c-25.4,60.6-33.4,124.9-36.7,189.8
		c-2.3,46.2,2.1,92.2,12.8,137.4c8.9,37.9,19.9,75.2,36,110.9c4.5,9.2,9.1,18.4,13.6,27.6c-0.5-15.4-0.3-30.3,2.2-45.1
		c0.7-4.3-0.6-6.7-4.8-7.5c-5.6-3.5-11.1-7.3-16.9-10.5c-6-3.2-6.7-3.7-4.9-10.1c3.4-12.7,6.9-25.3,12.3-37.4c1-2.2,0.9-4,0-6.1
		c-11.6-29.2-22-58.6-28.3-89.5c-3.8-18.7-8.3-37.3-9.3-56.4c-1.6-30.5,1.2-60.7,6.8-90.8c8.9-47.8,26.4-92.3,50.4-134.3
		c8.3-14.6,17.8-28.5,30.7-39.7c14.5-12.6,21.5-3.2,24.9,8.2c0.1,0.3,0.1,0.7,0.2,1c2.9,11.5,1.9,23.2,2.1,34.8
		c0.4,24.3-2.2,48.6-2.2,72.9c0,8.1,0.2,16.3-0.7,24.4c-0.6,5-2.3,10.1,0.3,15.4c1.9-1.8,3.6-3.5,5.4-5.2c0.9-0.9,2.1-1.3,3.1-0.2
		c0.9,0.9,0,1.8-0.6,2.6c-0.7,0.9-1.6,1.7-2.4,2.6c-19.8,20.9-36.3,44.2-49.5,69.8c-6.8,13.2-12.7,26.7-13.7,41.8
		c-0.7,10.7,5.7,14.4,16.1,13.1c2.3-0.3,4.5-1.1,6.7-1.8c3.6-1.2,7.1-3.1,10.8-3.6c3.1-0.4,4.9-1.8,6.8-4
		c5.1-5.7,10.5-11.2,15.8-16.7c1-1.1,2.4-3.1,4.1-1.5c1.5,1.4-0.5,2.6-1.3,3.7c-1.8,2.2-3.6,4.4-5.5,6.5
		c-15.8,16.7-25.6,36.7-31,58.9c-1.7,6.7-3.3,13.6-1.6,20.7c1.7,7.5,6.5,10.5,14,8.7c5.4-1.3,9.8-3.9,12.9-8.6
		c0.7-1.1,1.9-2.2,3.4-1.4c1.7,0.9,1.4,2.6,0.8,4c-0.8,2-2,3.8-3.1,5.7C321.4,603,317.5,611.3,318.3,620.9z M348.4,684.7
		c0.4-2.1-1.1-3.1-2.4-4.2c-19.3-16.9-40.9-30.9-60.7-47.1c-2.8-2.3-4.2-1.8-6,1.3c-11.4,20-19.8,41.3-25.1,63.7
		c-0.7,2.9,0.5,3.6,2.7,4.7c15.4,7.9,30.7,15.9,46,23.8c7.5,3.9,15.2,7.6,23,10.7c3,1.2,4.4,0.5,5.4-2.5c3.5-10,7.3-20,10.8-30
		C344.4,698.5,346.3,691.6,348.4,684.7z M282.5,896c1.5-15.1,1.9-28.5,1.2-42c-0.2-4.2,1.2-10.8-1.7-12c-3.8-1.5-9.2,1.5-13.6,3.4
		c-2.8,1.3-3.2,3-1.6,5.5c3,4.7,6.9,8.4,11.6,11.5c4.6,3.1,4.7,4,0.8,7.8c-7.9,7.5-8.1,12.1-1,20.4
		C279.3,892.1,280.5,893.5,282.5,896z"/>
	<path class="st1" d="M646.3,758.1c-0.8,1.2-1.4,2.4-1,3.8c-3.1,3.9-7.6,6.4-10.6,10.5c-7.8,10.6-14.3,22-20.6,33.5
		c-9.6,17.4-20.3,33.9-36,46.6c-7.2,5.8-15.2,9.8-24.4,11.1c1-1.9,1.9-3.8,3-5.6c1.4-2.3,2.2-4.5-0.3-6.6c0.2-2.2,2.9-4.5-0.2-6.6
		c2.9-5.8,5.1-11.8,6.8-18.1c2.4-9.1,2-18.5,2.7-27.8c0.2-2.4,0.5-3.6,3.1-4.5c14.2-5.2,22.2-16.3,27-30.1c0.3-0.9,0.3-2,0.4-3
		c0-1.4-0.3-2.7-1.8-3.2c-1.5-0.5-2.6,0.2-3.4,1.4c-0.5,0.8-0.9,1.8-1.4,2.6c-3.7,6-7.8,11.7-13.8,15.5c-6.1,3.9-10.7,2.3-13.1-4.3
		c-5.8-16-15-29.6-28.1-40.5c-23.8-19.6-54-19.9-77.8-0.4c-20.2,16.5-28.6,39-30.6,64.3c-1.6,19.8,2.8,38.6,11.5,56.5
		c-4.9-1.2-9.2-3.8-13.4-6.3c-11.2-6.7-22.7-6.8-34.4-2.2c-12.9,5-24.3,12.8-35.7,20.6c-1.6,1.1-2.9,2.9-5.1,2.7
		c7.4-24.1-2-45.8-10.5-67.4c-3.3-8.5-7.3-16.8-12.4-24.4c-1.9-2.7-3.8-5.5-6.1-7.9c-11.2-12.1-25-9.8-31.8,5.4
		c-2.5,5.5-3.4,11.3-3.7,17.4c-6.8-19.8-7.4-40.1-4.9-60.7c15.8,7.1,30.3,16.7,46.7,22.5c10.5,3.8,15.4,2.3,20.8-7.7
		c5-9.1,8.8-18.7,11.6-28.6c2.3-8.5,5.4-16.8,5.4-25.8c0-5.8-2.1-8.3-7.8-9.8c-0.9-2.7-3.1-4.3-5.1-6c-11.3-9.4-22.8-18.5-34.9-26.6
		c-2.8-1.9-3.4-3.1-1-6c32.5-39.8,73.5-65.7,124.2-74.9c9-1.6,18.6-3.7,28,0c3.5,1.4,5.3-1.8,6.9-4.4c13.1-21.1,26.9-41.7,40.2-62.6
		c37.5-58.5,76.4-116,114.9-173.7c20-30,40.5-59.5,65-86c21.3-23.1,44.2-44.4,72.5-59c4.6-2.4,9.3-4.5,14.3-5.8
		c11.6-2.9,21.3,1.9,25.7,13.2c4,10.2,5.1,21,5.7,31.8c3.6,56.5-0.8,112.5-10.2,168.2c-4.2,25.1-7,50.5-11.3,75.6
		c-5.4,31.2-14.9,61.4-23.3,91.9c-13,46.9-30.6,91.8-55.4,133.8c-8.9,15-19.1,28.9-32.7,40c-2.3,1.9-4.2,4.2-4,7.6
		c-9.6,5.2-19.3,10.3-28.8,15.7C645.5,754.5,644,756.2,646.3,758.1z M400.7,658.6c-1.9,3.6-0.1,7.2,0.4,10.7c1.8,13,3,26.1,7.2,38.6
		c3.6,10.8,5.4,12,16.9,12.1c18.3,0.2,36.4-3.1,54.6-4.5c11.6-0.9,23.1-2.5,34.5-4.5c15.9-2.9,21-8.6,21.8-24.7c0.1-1,0.2-2,0.3-3
		c1.6-20.7,0.3-41.2-4.8-61.3c-1.3-5.1-3.7-10.7-10.8-10.8c-1.8-3.8-4.5-4.8-8.6-3.5c-6.2,2-12.4,3.6-18.6,5.4
		c-29.7,8.6-59.2,17.8-87.6,30c-7.5,3.2-7.3,3.5-5.7,11.1C400.6,655.6,400.6,657.1,400.7,658.6z M641.3,651.9c1.3,2.4,3,4.5,5.2,6.1
		c5.5,9.4,10.9,18.9,16.6,28.2c3.3,5.5,5.6,11.7,10.5,16.1c-0.1,3.8,1.9,3,3.7,1.5c2.7-2.2,5.5-4.5,7.5-7.3
		c14.1-18.8,27.6-37.9,37.4-59.4c10.7-23.6,19.1-48.2,26.8-72.9c12.2-39,21.9-78.7,29.3-118.9c5.2-28,9.7-56,12.9-84.2
		c1.8-16.3,3.6-32.7,5.5-49c2.7-23.1,6.6-46.1,5.5-69.5c-0.1-2.8-0.2-5.6-1.1-8.4c-2.2-7-6.6-9.4-13.8-7.4
		c-5.9,1.6-10.8,5.1-15.5,8.9c-21.4,17.4-37.7,39.4-54.5,61c-0.9,1.2-1.6,2.6-2,4c-0.5,1.9,0.5,3.6,2.5,3.3
		c8.9-1.7,15.8,2.7,22.2,7.5c6.1,4.6,8.7,11,7,18.9c-1.7,8.1-6.2,14.6-11.5,20.6c-10.9,12.2-24.5,20.9-38.6,28.9
		c-1.7,1-5.1,1.7-3.7,4.3c1.5,2.7,4.2,0.5,6.1-0.4c6.4-3.1,12.5-6.9,18.4-10.9c1.1-0.7,2-1.8,3.5-1.7c10.1,0.4,19.6,10.3,19.6,20.5
		c0,9.5-4.3,17.4-9.8,24.6c-18,23.4-42.2,37.6-69.8,46.7c-8.5,2.8-17.3,4.9-26.3,5.2c-1.8,0.1-4.1,0.2-4,2.8
		c0.1,2.7,2.4,2.2,4.2,2.2c4,0,8,0.2,11.9-0.8c6.5-1.7,12.8-0.9,18.9,1.8c6.8,3,11.4,11.1,10.5,18.2c-1.5,12.4-6.9,22.9-16,31.2
		c-14.8,13.6-31.2,25-50,32.4c-29,11.5-59,19.2-90.2,21.8c-1.8,0.1-4.2-0.1-4.2,2.4c0,2.2,2.1,2.7,4.1,2.8c0.7,0,1.3,0.1,2,0
		c10-1.3,20.2-1.4,30.2-3.6c1.6-0.4,3.2-0.6,4.9,0.1c7.1,3.3,14.4,6.1,21,10.4c16.8,11,31.8,24.1,44.8,39.5
		C629.4,636.8,635.3,644.4,641.3,651.9z"/>
	<path class="st3" d="M258.2,742.9c-16.1-35.6-27.1-72.9-36-110.9c-10.6-45.2-15.1-91.2-12.8-137.4c3.3-64.8,11.3-129.1,36.7-189.8
		c14-33.3,30.1-65.3,55.7-91.6c9.9-10.2,20.8-18.6,33.9-24.2c11.8-5,20-2.7,26.9,8.3c8.4,13.4,12.9,28.5,16.4,43.7
		c8.5,36.7,14.1,73.9,18.9,111.2c7.4,57.1,14.4,114.3,27.1,170.6c1.5,6.8,3.5,13.5,5.2,20.2c-5.4,0.5-10.2,2.9-14.8,5.5
		c-34.5,19.2-66.7,41.4-93.8,70.4c-0.9,1-1.7,2.1-3.3,1.9c-0.8-9.6,3.1-17.8,7.5-25.9c1-1.9,2.3-3.7,3.1-5.7c0.6-1.3,0.9-3.1-0.8-4
		c-1.5-0.7-2.7,0.4-3.4,1.4c-3.1,4.7-7.5,7.3-12.9,8.6c-7.5,1.8-12.2-1.2-14-8.7c-1.6-7.1,0-14,1.6-20.7c5.5-22.2,15.2-42.1,31-58.9
		c1.9-2.1,3.7-4.3,5.5-6.5c0.9-1.1,2.8-2.3,1.3-3.7c-1.7-1.6-3,0.4-4.1,1.5c-5.4,5.5-10.7,11-15.8,16.7c-1.9,2.2-3.7,3.5-6.8,4
		c-3.7,0.5-7.2,2.4-10.8,3.6c-2.2,0.7-4.4,1.6-6.7,1.8c-10.4,1.2-16.8-2.4-16.1-13.1c1-15.1,6.9-28.7,13.7-41.8
		c13.1-25.6,29.6-48.9,49.5-69.8c0.8-0.8,1.6-1.7,2.4-2.6c0.6-0.8,1.5-1.6,0.6-2.6c-1-1-2.2-0.6-3.1,0.2c-1.8,1.7-3.6,3.4-5.4,5.2
		c-2.5-5.3-0.8-10.5-0.3-15.4c0.9-8.2,0.7-16.3,0.7-24.4c0-24.3,2.6-48.6,2.2-72.9c-0.2-11.6,0.7-23.3-2.1-34.8
		c-0.1-0.3-0.1-0.7-0.2-1c-3.5-11.4-10.4-20.8-24.9-8.2c-12.9,11.2-22.4,25.2-30.7,39.7c-24,42-41.5,86.5-50.4,134.3
		c-5.6,30-8.4,60.2-6.8,90.8c1,19.1,5.5,37.7,9.3,56.4c6.2,30.9,16.7,60.3,28.3,89.5c0.8,2.1,0.9,3.9,0,6.1
		c-5.4,12-8.9,24.7-12.3,37.4c-1.7,6.4-1,6.9,4.9,10.1c5.8,3.1,11.3,7,16.9,10.5c-3.2,6.7-6.1,13.5-8.5,20.5
		C260.2,739.9,260.3,742.1,258.2,742.9z"/>
	<path class="st2" d="M553.7,863.6c9.2-1.3,17.2-5.3,24.4-11.1c15.7-12.7,26.4-29.2,36-46.6c6.3-11.5,12.8-22.9,20.6-33.5
		c3-4.1,7.5-6.6,10.6-10.5c2.6,1.3,5.2,0.3,7.7-0.5c13.1-3.9,26.2-7.9,39.3-11.8c2.2-0.7,4.3-1.6,6.7-1.5
		c2.2,11.4,0.5,22.5-3.4,33.3c-0.3,0.9-0.9,1.9,0.3,2.6c-0.1,5.1,1.5,6.4,6,4.4c5.7-2.5,11.1-5.7,17-7.5c2.4,1.5,1.1,3.6,0.7,5.3
		c-2.4,10.1-6,19.9-9.7,29.6c-2.9,7.7-8,14.4-10.7,22.2c0,0-0.1,0.1-0.1,0.1c-0.7,0-0.9,0.3-0.6,0.9c0,0-0.2,0.3-0.2,0.3
		c-1,0.1-1.3,0.7-1,1.6c0,0-0.1,0.2-0.1,0.2c-0.9,0.2-1.3,0.7-1.1,1.6c0,0-0.1,0.2-0.1,0.2c-0.7,0.1-0.9,0.4-0.8,1.1
		c-9.6,14.3-22.7,25.2-35,36.8c-24.9,23.5-53.8,41.3-85.2,54.7c-29.4,12.6-60.3,20.5-91.8,26.5c-26.7,5.1-53.5,6.8-80.4,2.7
		c-34.7-5.2-65.7-18.8-92.1-42c-10.6-9.4-15.5-21.1-13.8-35.7c1.6-13.4,0.5-26.9,0-40.4c1.4,0.4,2,1.4,2.5,2.8
		c4.6,14.2,14,24.2,27.1,31c7.3,3.8,7.8,3.7,12.2-3.7c0,0,0,0.1,0,0.1c0.7,0.1,1.2-0.2,1.6-0.8c3.1-1.8,5.9-4,8.1-6.9
		c0.6-0.2,1.1-0.6,0.9-1.3c0,0,0,0,0,0c2.3,0.2,3.6-1.6,5.1-2.7c11.4-7.8,22.8-15.5,35.7-20.6c11.7-4.6,23.2-4.5,34.4,2.2
		c4.2,2.5,8.5,5.2,13.4,6.3c5.4,9.6,11.9,18.4,20.5,25.4c19.3,15.7,40.7,20.1,64.2,11c12.7-4.9,22.2-14.2,30.5-24.8
		C553.5,864.7,553.9,864.4,553.7,863.6L553.7,863.6z M354.8,919.1c0.5-0.8,1.2-0.9,2.1-0.8c16,2.6,25.5-18,21.3-28.4
		c-0.1-4.4-0.4-8.6-4.6-11.4c-3.8-2.6-8.2-2.8-12.8-3.4c1.1-1.9,2.8-2.4,4.1-3.2c5.4-3.3,10.8-6.5,16.2-9.8c1.4-0.8,3.2-1.8,2.3-3.8
		c-0.8-2-2.9-1.8-4.3-1.1c-11.8,5.9-24.2,11-34.1,20.3c-5.5,5.2-7.5,11.9-5.8,19.2c3.2,13.9,8.7,26.8,18.1,37.8c2.5,3,5.6,5.2,9,6.9
		c1.4,0.7,3,1.1,4.1-0.3c1.3-1.7-0.3-2.7-1.4-3.6C362.9,932.5,358.5,926.1,354.8,919.1z M436.9,943c6.3-1.8,11.4-6.4,14.9-12.7
		c1.2-2.1,1.6-4.6,2.2-7c0.3-1.2-0.4-2.5-1.5-2.9c-1.4-0.5-1.8,0.7-2.3,1.9c-2.9,7.2-8.2,11.9-15.4,14.4c-1.8,0.6-3,1.5-2.8,3.5
		C432.3,942.5,434,943,436.9,943z"/>
	<path class="st2" d="M319.1,416.1c-16.5,20.4-29.9,42.8-40.5,66.8c-5.1,11.4-8.3,23.4-7.7,36.1c-0.7-0.1-1.4,0.2-1.5,0.9
		c-0.9,8.1-0.7,15.9,5.3,22.4c5.1,5.6,11.7,7.1,19.1,6.6c-0.1,0.9,0.1,1.4-0.1,1.8c-6,13.2-7.7,27.1-6.6,41.3
		c0.8,10.6,2.6,21.1,14.3,25.8c1.1,0.4,1.6,1.1,1.6,2.2c-0.4,5.9,0.6,11.6,2.1,17.2c0.2,0.9-0.3,1.6-1.2,1.9
		c-5.8-4.2-11.5-8.5-17.4-12.5c-5.3-3.5-7.7-2.8-11.1,2.4c-4.5,7-7.8,14.6-12,22.4c-3.7-7.5-5.9-15.1-8.8-22.4
		c-12.9-32.9-20.6-67.1-26.1-101.8c-4-25.3-3.1-50.9-0.6-76.5c3.5-35.5,12.3-69.8,25.3-102.8c12.5-32,27.4-62.9,49-90.1
		c3.5-4.4,7-8.9,11.9-12c8.2-0.1,9.6,0.9,11,9.2c0.9,4.9,1.5,9.8,1.8,14.8c1.1,18.5-1.1,36.8-2.1,55.2c-0.5,9.4-1.3,18.9-2,28.3
		C321.1,374.4,318.2,395.2,319.1,416.1z"/>
	<path class="st4" d="M348.4,684.7c-2.1,6.8-4,13.7-6.3,20.5c-3.4,10.1-7.2,20-10.8,30c-1,2.9-2.4,3.7-5.4,2.5
		c-7.9-3.2-15.5-6.9-23-10.7c-15.4-7.9-30.6-15.9-46-23.8c-2.1-1.1-3.3-1.9-2.7-4.7c5.3-22.5,13.7-43.7,25.1-63.7
		c1.8-3.1,3.2-3.6,6-1.3c19.9,16.2,41.4,30.2,60.7,47.1C347.3,681.7,348.8,682.6,348.4,684.7z"/>
	<path class="st65" d="M295.3,813.2c-1.1-8.4-2-16.8-1.9-25.3c0.1-6.5,1.9-12.5,6.8-17.1c4.1-4,9.9-3.5,13.6,0.9
		c1,1.3,0.9,2.1,0.1,3.4c-8.6,14.8-5.8,30.1-1.3,45.3c1.2,4.1,5,4.4,8.4,4.9c4.1,0.6,5.4,2.2,2,5.4c-4.9,4.5-4.9,9.8-3,15.5
		c0.5,1.4,0.8,2.9,1.2,4.3c2.6,8.5,6.7,15.8,15.9,19.4c-6.4,0.7-12.7-2.5-17.9-8.7c-2.6-3.2-4.7-6.8-8-9.4
		C303.3,840,299,826.7,295.3,813.2z"/>
	<path class="st23" d="M303.9,639.3c0.9-0.3,1.4-1,1.2-1.9c-1.5-5.6-2.5-11.3-2.1-17.2c0.1-1.1-0.5-1.8-1.6-2.2
		c-11.7-4.7-13.5-15.2-14.3-25.8c-1.1-14.2,0.6-28.2,6.6-41.3c0.2-0.4,0.1-0.9,0.1-1.8c-7.3,0.5-13.9-1-19.1-6.6
		c-6-6.5-6.1-14.4-5.3-22.4c0.1-0.7,0.8-1,1.5-0.9c6.9,11.5,15.5,14.7,28.8,10.7c2.8-0.8,5.6-1.9,9.3-3.1c-1.1,2.1-1.7,3.5-2.4,4.8
		c-7.8,13.7-12.9,28.4-15.4,43.9c-0.6,3.8-0.6,7.6-0.1,11.4c1.6,11.5,9.5,17,20.9,14.7c0.8-0.2,1.6-0.3,2.3-0.4
		c1.1,0.9,0.5,1.7,0.2,2.4c-4,9.6-4.1,19.4-1.3,29.3c1.3,4.4-2.3,6.4-4.4,8.7C307.2,643.4,305.5,640.4,303.9,639.3z"/>
	<path class="st23" d="M319.1,416.1c-0.9-21,2-41.7,3.7-62.5c0.7-9.4,1.5-18.9,2-28.3c1-18.4,3.2-36.8,2.1-55.2
		c-0.3-4.9-0.9-9.9-1.8-14.8c-1.5-8.3-2.9-9.3-11-9.2c6.6-7.5,12.1-6.8,16.2,2c1.8,4,2.6,8.2,2.9,12.5c1.8,24.5-0.5,48.8-1.9,73.2
		c-0.5,8.8-0.6,17.6-0.2,26.4c0.5,12.3-2.1,24.5-0.9,36.8c0.5,5-0.2,8.8-4.2,12C323.3,411,322,414.3,319.1,416.1z"/>
	<path class="st24" d="M318.3,620.9c1.6,0.2,2.4-1,3.3-1.9c27.1-29,59.3-51.2,93.8-70.4c4.6-2.6,9.4-5,14.8-5.5
		c2.2,5.2,4.4,10.3,6.5,15.5c1.3,3.3-1.7,2.6-3.1,2.9c-14.2,2.8-27.9,7.2-41.3,12.9c-27.7,11.7-51.5,28.9-71.1,51.8
		c-0.4,0.5-0.9,0.9-1.9,1.8C319,625.2,317.9,623.2,318.3,620.9z"/>
	<path class="st24" d="M356.2,680.9c5.7,1.5,7.8,4,7.8,9.8c0,9-3.1,17.3-5.4,25.8c-2.8,10-6.6,19.5-11.6,28.6
		c-5.4,10-10.3,11.4-20.8,7.7c-16.4-5.9-30.9-15.5-46.7-22.5c1.1-6.6,1-6.6,7.4-3.4c13.2,6.7,26.2,13.6,40.1,18.9
		c5.9,2.3,8.2,1.5,10.6-4.2c7.6-18.4,12.8-37.7,18.4-56.8C356.3,683.6,356.1,682.2,356.2,680.9z"/>
	<path class="st3" d="M295.3,813.2c3.7,13.5,8.1,26.8,15.7,38.7c-3.4,0.9-2,3.2-1.4,5.1c3.8,12.1,14.9,19.6,28.9,19.8
		c-4.4,7.4-4.9,7.5-12.2,3.7c-13.2-6.8-22.5-16.8-27.1-31c-0.4-1.4-1.1-2.4-2.5-2.8c-1-8.5-1.4-17.1-3.3-25.5
		C292.6,818.1,295.3,816,295.3,813.2z"/>
	<path class="st3" d="M282.5,896c-2.1-2.5-3.2-3.9-4.4-5.3c-7.1-8.4-6.8-12.9,1-20.4c3.9-3.7,3.8-4.7-0.8-7.8
		c-4.6-3.1-8.5-6.8-11.6-11.5c-1.6-2.5-1.2-4.2,1.6-5.5c4.4-2,9.7-5,13.6-3.4c3,1.2,1.5,7.8,1.7,12C284.4,867.4,284,880.8,282.5,896
		z"/>
	<path class="st24" d="M258.2,742.9c2.1-0.8,2-2.9,2.5-4.6c2.4-7,5.3-13.8,8.5-20.5c4.2,0.9,5.5,3.3,4.8,7.5
		c-2.5,14.8-2.7,29.7-2.2,45.1C267.3,761.3,262.8,752.1,258.2,742.9z"/>
	<path class="st23" d="M699.1,838c2.7-7.8,7.8-14.4,10.7-22.2c3.7-9.7,7.3-19.5,9.7-29.6c0.4-1.8,1.8-3.8-0.7-5.3
		c0.1-0.1,0.2-0.3,0.3-0.4c3.4-1.2,7.4-3.2,10.3-0.4c2.8,2.7,0.1,6.4-0.8,9.4c-5.8,18.3-17.9,32.9-28.7,48.3
		C699.9,837.9,699.4,837.9,699.1,838z"/>
	<path class="st24" d="M646.3,758.1c-2.2-1.8-0.7-3.6,0.7-4.4c9.5-5.4,19.2-10.5,28.8-15.7c6.1,3.7,10.6-0.4,15.3-3.4
		c2.1,6.7,2,7-4,9.1C673.5,748.7,660.2,754.3,646.3,758.1z"/>
	<path class="st23" d="M695.8,784c-1.2-0.8-0.6-1.7-0.3-2.6c4-10.8,5.6-21.9,3.4-33.3c8.3-2.5,10.3-0.9,9,7.7
		c-1.2,8-3.2,15.9-7.2,23C699.6,780.8,698.3,783,695.8,784z"/>
	<path class="st75" d="M322.1,795.7c0,6.8-0.7,13.6,0.8,20.3c0.2,1.1,1.4,3.3-0.9,3.6c-1.5,0.2-3.4-0.4-3.9-2.3
		c-0.9-3.5-2-7-2.4-10.6c-1.1-9.3-0.9-18.5,3.8-27.4c1.9,2,3.2,4,3.8,6.4C318.8,787.7,318.5,790.5,322.1,795.7z"/>
	<path class="st75" d="M334.7,860.3c-6.1-4.6-11.3-17-9.4-23.8c2.9,8.4,5.5,16.3,9.8,23.4C335,860,334.9,860.2,334.7,860.3z"/>
	<path class="st2" d="M322.1,795.7c-3.6-5.2-3.3-8,1.2-10c1.5,1.3,2.1,3.3,2.9,5c0.6,1.4,2.3,2.7,0.9,4.4
		C325.7,796.8,323.8,796,322.1,795.7z"/>
	<path class="st23" d="M697.1,841c-0.2-0.9,0-1.5,1-1.6C698.4,840.3,698.1,840.8,697.1,841z"/>
	<path class="st23" d="M695.9,842.8c-0.2-0.9,0.2-1.5,1.1-1.6C697.2,842.1,696.8,842.6,695.9,842.8z"/>
	<path class="st23" d="M698.4,839.1c-0.3-0.6,0-0.9,0.6-0.9C699.3,838.8,699.1,839.1,698.4,839.1z"/>
	<path class="st75" d="M336.1,860.9c-0.5-0.2-0.9-0.4-1.4-0.6c0.1-0.1,0.3-0.3,0.5-0.4C335.5,860.3,335.7,860.6,336.1,860.9
		L336.1,860.9z"/>
	<path class="st75" d="M336,861c0.1,0.1,0.3,0.1,0.4,0.2c0.1,0,0,0.2,0.1,0.3C336.3,861.3,336.2,861.1,336,861
		C336.1,860.9,336,861,336,861z"/>
	<path class="st1" d="M349,867.9c0.2,0.8-0.3,1.1-0.9,1.3C348.1,868.6,348.2,868,349,867.9z"/>
	<path class="st3" d="M340,876.1c-0.4,0.6-0.9,0.9-1.6,0.8C338.7,876.1,339.3,876,340,876.1z"/>
	<path class="st23" d="M695,844c-0.1-0.6,0.1-1,0.8-1.1C696,843.6,695.7,843.9,695,844z"/>
	<path class="st2" d="M673.6,702.4c-4.9-4.4-7.2-10.6-10.5-16.1c-5.7-9.3-11.1-18.8-16.6-28.2c2.2-2.9-0.9-4.2-2-6.1
		c-4-3.6-5.8-8.7-9-12.8c-14.1-18.4-29.8-35.3-48.5-49.2c0.6-1.2,1.8-1.4,2.9-1.8c31.8-10.4,57.8-29,78.1-55.6
		c10.6-14,20-28.3,16.1-47.3c-0.3-1.5,0.5-2.4,1.8-3.2c18.7-11.6,32.3-28.1,43.6-46.6c3.5-5.8,7.4-11.5,8.6-18.3
		c1-1.7,2-3.4,2.9-5.2c5.5-11.2,8.3-22.5,2.3-34.5c1.3-1.7,0.3-3.5-0.4-4.7c-2.5-4.1-0.7-6.9,1.7-10.2c5.1-7.1,8.5-15.1,10.1-23.7
		c0.8-4.3,2.2-9.1-1.2-13.2c0-7.7-3.6-13.6-9.2-18.7c-3.3-3-7.5-4.8-11.3-7.1c1.2-3.9,2.7-7.9,3.7-11.9c0.6-2.5,2.4-4.9,0.8-7.7
		c3.9-4.9,7.7-10,11.8-14.8c10.4-12,21.2-23.6,35.1-31.6c8.3-4.8,12.2-2.8,12.5,6.7c0.4,9.5,0.6,19.1-0.4,28.5
		c-2.8,27.7-6.3,55.4-9.3,83.1c-3.4,31.7-8.7,63.1-14.5,94.5c-7.4,40.2-18.1,79.6-29.7,118.7C728.2,615.5,707.6,662.3,673.6,702.4z"
		/>
	<path class="st43" d="M552.8,864.8c-8.2,10.6-17.7,19.9-30.5,24.8c-23.5,9.1-44.9,4.7-64.2-11c-8.6-7-15.1-15.8-20.5-25.4
		c-8.6-17.8-13-36.6-11.5-56.5c2-25.3,10.4-47.8,30.6-64.3c23.8-19.5,54-19.2,77.8,0.4c13.2,10.8,22.3,24.5,28.1,40.5
		c2.4,6.6,6.9,8.2,13.1,4.3c6-3.8,10.1-9.6,13.8-15.5c0.5-0.8,0.9-1.8,1.4-2.6c0.8-1.2,1.9-1.9,3.4-1.4c1.5,0.5,1.8,1.8,1.8,3.2
		c0,1,0,2-0.4,3c-4.8,13.8-12.7,24.9-27,30.1c-2.6,1-3,2.2-3.1,4.5c-0.6,9.3-0.2,18.6-2.7,27.8c-1.7,6.3-3.8,12.3-6.8,18.1
		c-5.2,8-11.4,14.8-21.1,17.2c-24.9,6-44.9-8.6-58-27.1c-1.9-2.7-1.2-5.4,0.6-7.9c2.6-3.8,5.3-7.5,8.1-11.5
		c-4.1-0.9-7.6,0.3-11.2,0.3c-4.7,0-7.6-1.7-10-6.3c-6.3-11.8-6.5-24.3-5.3-36.9c1.5-15.7,7.3-29.6,19-40.6c1.6-1.5,3.4-3,5.3-4.6
		c-1.7-0.5-2.8-0.1-3.9,0.3c-15.2,4.6-26.4,14.4-34.5,27.8c-12.2,20.1-15.4,41.9-11.4,64.8c3.8,21.8,13.3,40.8,31,54.7
		c18,14.2,37.9,18.1,59.2,7.9c12.3-5.8,20.9-15.6,27.6-27.3c1.2-2.1,2.3-4.1,5.1-4.1c2.5,2.1,1.7,4.3,0.3,6.6c-1.1,1.8-2,3.7-3,5.6
		c0,0,0,0.1,0,0.1C553,863.7,552.9,864.2,552.8,864.8z M496.8,737c-0.1,4,0.8,7.4,5.3,8.4c3.1,0.7,5.5-0.6,7.2-3.3
		c1.5-2.3,1.2-4.8,0.4-7.2c1.8-2,4.1-1.2,6.1-0.9c3.8,0.4,7.5,1.3,11.2,1.9c0.1,0.2,0.3,0.3,0.4,0.5c0-0.1,0-0.2-0.1-0.3
		c-0.1-0.1-0.3-0.1-0.4-0.2c-6.3-5.2-13.9-7.5-21.7-9.5c-5.4-1.3-10-0.3-14.7,2.6c-26.9,16.7-31,58.4-20.7,76.6
		c1.1,2,2.1,4.3,4.7,3.3c3.2-1.2,0.4-3.5,0.1-4.9c-4.4-16.3-4.3-32.3,2.6-47.9C481.1,747.3,486.7,739.8,496.8,737z M544.9,848
		c-5.3,0.8-9.1,1.9-13.1,1.7c-17.1-0.9-31-7.9-41.8-21.2c-2.8-3.4-4.3-3-6.5,0.9c-1.3,2.3-0.1,4,1.2,5.4c9.9,11,20.7,20.5,36.3,21.8
		C529.5,857.3,537.7,855.9,544.9,848z M533.1,843.2c4.3,0,7-2,6.9-5.4c-0.1-4-2.9-5.4-6.3-5.6c-4-0.3-7.6,2.4-7.4,5.7
		C526.5,842,529.4,843.2,533.1,843.2z M537,826.6c-0.6-1.5-1.9-2.4-3.7-2.2c-1.5,0.1-2.4,1.2-2.2,2.8c0.1,1.8,1.3,2.8,3,2.6
		C535.5,829.5,536.9,828.8,537,826.6z"/>
	<path class="st76" d="M743.2,377.5c6.1,11.9,3.2,23.3-2.3,34.5c-0.9,1.8-1.9,3.4-2.9,5.2c-0.5,0.3-1.2,0.6-1.5,1.1
		c-8.8,12.6-20.1,22.5-32.7,31.2c-11.1,7.7-23.3,13.1-35.8,18c0.3,1.2,1.2,1.4,1.9,1.8c0.7,0.4,1.5,0.8,2.2,1.3
		c7.4,5.2,10.9,12.1,10.3,21.3c-0.8,13.6-6.5,25-16.1,34.4c-18.3,18-39.6,31.2-63.8,39.8c-11.9,4.3-24.3,7.3-36.6,11
		c7.7,3.4,14.6,7.9,21.1,12.9c18.7,13.9,34.4,30.8,48.5,49.2c3.2,4.2,5,9.3,9,12.8c-1.1,0-2.2,0-3.3,0c-6-7.5-11.9-15.1-18.1-22.5
		c-13-15.4-28-28.5-44.8-39.5c-6.6-4.3-13.9-7.1-21-10.4c-1.6-0.8-3.2-0.5-4.9-0.1c-9.9,2.2-20.1,2.3-30.2,3.6c-0.7,0.1-1.3,0-2,0
		c-1.9-0.1-4.1-0.6-4.1-2.8c0-2.5,2.3-2.2,4.2-2.4c31.2-2.6,61.2-10.3,90.2-21.8c18.8-7.4,35.2-18.8,50-32.4
		c9.1-8.4,14.5-18.8,16-31.2c0.8-7.1-3.7-15.2-10.5-18.2c-6.1-2.7-12.4-3.4-18.9-1.8c-3.9,1-7.9,0.8-11.9,0.8
		c-1.7,0-4.1,0.5-4.2-2.2c-0.1-2.5,2.2-2.7,4-2.8c9.1-0.3,17.8-2.4,26.3-5.2c27.6-9.1,51.8-23.3,69.8-46.7
		c5.5-7.2,9.7-15.1,9.8-24.6c0-10.2-9.5-20-19.6-20.5c-1.5-0.1-2.4,1-3.5,1.7c-5.9,4-12,7.8-18.4,10.9c-1.9,0.9-4.6,3.1-6.1,0.4
		c-1.4-2.6,2-3.4,3.7-4.3c14.1-8,27.6-16.8,38.6-28.9c5.4-6,9.8-12.5,11.5-20.6c1.7-8-0.9-14.3-7-18.9c-6.4-4.8-13.3-9.2-22.2-7.5
		c-2,0.4-3-1.3-2.5-3.3c0.4-1.4,1.1-2.8,2-4c16.8-21.5,33-43.6,54.5-61c4.6-3.8,9.5-7.2,15.5-8.9c7.2-2,11.6,0.4,13.8,7.4
		c0.9,2.8,0.9,5.5,1.1,8.4c1.1,23.4-2.8,46.4-5.5,69.5c-1.9,16.3-3.7,32.7-5.5,49c-3.2,28.2-7.7,56.3-12.9,84.2
		c-7.5,40.2-17.2,79.9-29.3,118.9c-7.7,24.7-16.1,49.3-26.8,72.9c-9.7,21.5-23.2,40.7-37.4,59.4c-2.1,2.8-4.9,5-7.5,7.3
		c-1.8,1.5-3.8,2.3-3.7-1.5c34-40,54.6-86.8,69.4-136.7c11.6-39.1,22.3-78.5,29.7-118.7c5.8-31.4,11.1-62.8,14.5-94.5
		c3-27.7,6.5-55.4,9.3-83.1c0.9-9.4,0.7-19,0.4-28.5c-0.4-9.5-4.2-11.6-12.5-6.7c-13.9,8.1-24.7,19.7-35.1,31.6
		c-4.1,4.8-7.9,9.8-11.8,14.8c-3.2,2.4-5.2,5.8-7.8,8.8c-6.4,7.7-6.4,7.7,3.3,10.7c3.8,2.3,7.9,4,11.3,7.1c5.5,5,9.2,10.9,9.2,18.7
		c-1.9,18-14,29.5-27.1,41.2C733.7,368.8,738.6,373.1,743.2,377.5z"/>
	<path class="st6" d="M556.4,851.4c-2.8,0-3.9,2.1-5.1,4.1c-6.7,11.7-15.3,21.5-27.6,27.3c-21.3,10.1-41.2,6.3-59.2-7.9
		c-17.7-13.9-27.1-32.9-31-54.7c-4-22.9-0.8-44.7,11.4-64.8c8.1-13.4,19.3-23.1,34.5-27.8c1.1-0.3,2.2-0.8,3.9-0.3
		c-1.9,1.7-3.6,3.1-5.3,4.6c-11.7,11-17.5,24.9-19,40.6c-1.2,12.7-1,25.1,5.3,36.9c2.4,4.6,5.3,6.4,10,6.3c3.6,0,7.1-1.2,11.2-0.3
		c-2.8,4-5.4,7.8-8.1,11.5c-1.8,2.5-2.4,5.2-0.6,7.9c13.2,18.5,33.2,33.1,58,27.1c9.7-2.3,15.9-9.2,21.1-17.2
		C559.3,846.9,556.6,849.2,556.4,851.4z"/>
	<path class="st22" d="M400.7,658.6c-0.1-1.5-0.1-3-0.4-4.4c-1.6-7.6-1.7-7.9,5.7-11.1c28.4-12.2,57.9-21.4,87.6-30
		c6.2-1.8,12.5-3.5,18.6-5.4c4.1-1.3,6.8-0.2,8.6,3.5c0.6,2.8,1.2,5.5,1.8,8.3c4.5,22.7,7.9,45.5,7.4,68.7c-0.1,4.2-1.6,6.4-5.9,7
		c-20.7,3.1-41.3,6.3-62,9.5c-12.1,1.9-24.2,4.3-36.5,5.1c-6.9,0.5-9.4-1.2-11.4-7.7c-2-6.7-3.9-13.4-6.2-20
		C405.4,674.3,404.3,666.1,400.7,658.6z M429.3,702.1c8-0.3,15.8-1.9,23.7-3.2c21.3-3.5,42.9-5.5,64-10c1.6-0.4,4.6,0.1,4.3-2.2
		c-0.5-4.6,1.1-8.9,0.6-13.4c-2.1-17.8-3-35.8-7.2-53.3c-0.9-3.9-2.3-4.4-5.9-3.6c-34.2,8.1-67,20.3-100.1,32c-2.8,1-2.8,2.1-2,4.7
		c4.3,13.8,8.2,27.7,12.3,41.5C421.4,702.5,421.4,702.5,429.3,702.1z"/>
	<path class="st24" d="M400.7,658.6c3.6,7.5,4.7,15.7,7.4,23.5c2.3,6.6,4.2,13.3,6.2,20c2,6.5,4.5,8.1,11.4,7.7
		c12.3-0.8,24.4-3.2,36.5-5.1c20.6-3.2,41.3-6.4,62-9.5c4.4-0.6,5.8-2.9,5.9-7c0.5-23.2-2.9-46-7.4-68.7c-0.5-2.8-1.2-5.5-1.8-8.3
		c7,0.1,9.5,5.7,10.8,10.8c5.1,20.1,6.4,40.6,4.8,61.3c-0.1,1-0.3,2-0.3,3c-0.9,16.1-5.9,21.8-21.8,24.7
		c-11.4,2.1-22.9,3.7-34.5,4.5c-18.2,1.3-36.3,4.7-54.6,4.5c-11.5-0.1-13.3-1.3-16.9-12.1c-4.1-12.5-5.4-25.6-7.2-38.6
		C400.6,665.8,398.8,662.2,400.7,658.6z"/>
	<path class="st77" d="M641.3,651.9c1.1,0,2.2,0,3.3,0c1.1,1.9,4.1,3.2,2,6.1C644.3,656.4,642.6,654.3,641.3,651.9z"/>
	<path class="st22" d="M354.8,919.1c3.6,7,8,13.4,14.2,18.4c1.1,0.9,2.7,1.8,1.4,3.6c-1.1,1.4-2.7,1-4.1,0.3c-3.4-1.7-6.5-4-9-6.9
		c-9.3-11-14.9-23.9-18.1-37.8c-1.7-7.3,0.4-14,5.8-19.2c9.8-9.3,22.2-14.3,34.1-20.3c1.4-0.7,3.5-0.9,4.3,1.1
		c0.9,2.1-0.9,3-2.3,3.8c-5.4,3.3-10.8,6.5-16.2,9.8c-1.4,0.8-3,1.3-4.1,3.2c4.5,0.6,8.9,0.8,12.8,3.4c4.2,2.8,4.5,7,4.6,11.4
		c-0.8,0.1-0.9,0.7-1.1,1.4c-3.8,12.3-12.1,19.4-25.1,21.1C352.6,914.9,353.4,917.1,354.8,919.1z M347.3,893.8
		c0.1,3.3,1.5,6.1,3.2,8.7c1.2,1.8,2.8,3.4,5.3,3c7.3-1.1,14.7-9.6,15.3-17.5c0.7-2.3-0.3-3.6-2.5-4.5c-6.5-2.6-12.3-0.8-17.9,2.4
		C347.7,887.6,346.2,890.2,347.3,893.8z"/>
	<path class="st23" d="M354.8,919.1c-1.4-2-2.3-4.3-2.9-6.7c13-1.7,21.3-8.8,25.1-21.1c0.2-0.7,0.3-1.3,1.1-1.4
		c4.2,10.4-5.3,31-21.3,28.4C356.1,918.2,355.4,918.3,354.8,919.1z"/>
	<path class="st76" d="M436.9,943c-2.9,0.1-4.6-0.5-4.9-2.7c-0.3-2,0.9-2.8,2.8-3.5c7.2-2.6,12.5-7.2,15.4-14.4
		c0.5-1.2,0.9-2.4,2.3-1.9c1.1,0.4,1.8,1.6,1.5,2.9c-0.6,2.4-1.1,4.9-2.2,7C448.2,936.6,443.2,941.2,436.9,943z"/>
	<path class="st1" d="M552.8,864.8c0.1-0.6,0.2-1.1,1-1.1C553.9,864.4,553.5,864.7,552.8,864.8z"/>
	<path class="st23" d="M587.1,589.9c-6.5-5-13.3-9.6-21.1-12.9c12.4-3.7,24.7-6.7,36.6-11c24.1-8.7,45.5-21.8,63.8-39.8
		c9.5-9.4,15.2-20.8,16.1-34.4c0.6-9.2-2.9-16.1-10.3-21.3c-0.7-0.5-1.4-0.9-2.2-1.3c-0.7-0.4-1.6-0.5-1.9-1.8
		c12.4-4.9,24.7-10.3,35.8-18c12.5-8.7,23.9-18.6,32.7-31.2c0.3-0.5,1-0.7,1.5-1.1c-1.3,6.9-5.1,12.6-8.6,18.3
		c-11.3,18.5-24.8,35-43.6,46.6c-1.3,0.8-2.1,1.6-1.8,3.2c3.9,18.9-5.4,33.3-16.1,47.3c-20.3,26.6-46.3,45.2-78.1,55.6
		C588.9,588.5,587.6,588.7,587.1,589.9z"/>
	<path class="st23" d="M743.2,377.5c-4.7-4.5-9.5-8.7-17-10.4c13.2-11.7,25.3-23.3,27.1-41.2c3.4,4.1,2,8.9,1.2,13.2
		c-1.6,8.5-5,16.6-10.1,23.7c-2.4,3.3-4.1,6.1-1.7,10.2C743.5,374,744.5,375.9,743.2,377.5z"/>
	<path class="st23" d="M732.9,300.2c-9.7-3-9.8-3-3.3-10.7c2.5-3,4.6-6.4,7.8-8.8c1.6,2.7-0.1,5.2-0.8,7.7
		C735.6,292.3,734.1,296.2,732.9,300.2z"/>
	<path class="st75" d="M527,736c-3.7-0.7-7.5-1.5-11.2-1.9c-2-0.2-4.3-1-6.1,0.9c-2-2.6-3.9-5.3-7.9-4.4c-3.4,0.8-4.6,3.4-5.1,6.5
		c-10,2.8-15.7,10.2-19.6,19.2c-6.8,15.6-7,31.6-2.6,47.9c0.4,1.4,3.1,3.7-0.1,4.9c-2.6,1-3.6-1.3-4.7-3.3
		c-10.4-18.1-6.2-59.9,20.7-76.6c4.7-2.9,9.3-3.9,14.7-2.6C513.1,728.5,520.6,730.8,527,736L527,736z"/>
	<path class="st75" d="M544.9,848c-7.2,7.9-15.4,9.3-24,8.6c-15.6-1.2-26.4-10.8-36.3-21.8c-1.3-1.5-2.4-3.1-1.2-5.4
		c2.1-3.9,3.7-4.3,6.5-0.9c10.8,13.3,24.7,20.3,41.8,21.2C535.8,849.9,539.6,848.8,544.9,848z"/>
	<path class="st65" d="M496.8,737c0.5-3.1,1.6-5.7,5.1-6.5c4-0.9,5.9,1.8,7.9,4.4c0.7,2.5,1,4.9-0.4,7.2c-1.7,2.6-4.1,4-7.2,3.3
		C497.6,744.4,496.7,741,496.8,737z"/>
	<path class="st75" d="M533.1,843.2c-3.8,0-6.7-1.2-6.9-5.4c-0.2-3.3,3.4-6,7.4-5.7c3.4,0.3,6.2,1.6,6.3,5.6
		C540.1,841.2,537.5,843.2,533.1,843.2z"/>
	<path class="st75" d="M537,826.6c-0.1,2.3-1.4,3-3,3.1c-1.7,0.2-2.9-0.8-3-2.6c-0.1-1.6,0.7-2.7,2.2-2.8
		C535,824.2,536.4,825.1,537,826.6z"/>
	<path class="st75" d="M527,736c0.1,0.1,0.3,0.1,0.4,0.2c0.1,0,0.1,0.2,0.1,0.3C527.3,736.3,527.2,736.1,527,736
		C527,736,527,736,527,736z"/>
	<path class="st4" d="M429.3,702.1c-7.9,0.4-7.9,0.4-10.2-7.4c-4.1-13.9-8.1-27.7-12.3-41.5c-0.8-2.6-0.8-3.7,2-4.7
		c33-11.7,65.9-23.9,100.1-32c3.6-0.9,5-0.3,5.9,3.6c4.2,17.6,5.1,35.5,7.2,53.3c0.5,4.5-1.1,8.8-0.6,13.4c0.3,2.3-2.7,1.8-4.3,2.2
		c-21.2,4.5-42.7,6.5-64,10C445.2,700.2,437.4,701.8,429.3,702.1z"/>
	<path class="st75" d="M347.3,893.8c-1.1-3.6,0.5-6.2,3.4-7.9c5.6-3.2,11.4-5,17.9-2.4c2.2,0.9,3.2,2.2,2.5,4.5
		C364.1,893.9,356.5,897.3,347.3,893.8z"/>
	<path class="st77" d="M347.3,893.8c9.3,3.5,16.8,0,23.8-5.8c-0.6,7.9-8,16.4-15.3,17.5c-2.5,0.4-4.1-1.2-5.3-3
		C348.8,899.9,347.4,897.1,347.3,893.8z"/>
</g>
</svg>
