<?xml version="1.0" encoding="utf-8"?>
<!-- Generator: Adobe Illustrator 25.0.0, SVG Export Plug-In . SVG Version: 6.00 Build 0)  -->
<svg version="1.1" id="图层_1" xmlns="http://www.w3.org/2000/svg" xmlns:xlink="http://www.w3.org/1999/xlink" x="0px" y="0px"
	 viewBox="0 0 1200 1600" style="enable-background:new 0 0 1200 1600;" xml:space="preserve">
<style type="text/css">
	.st0{fill:#060604;}
	.st1{fill:#EDCF5D;}
	.st2{fill:#FBF1EE;}
	.st3{fill:#ECCF5D;}
	.st4{fill:#F4FB95;}
	.st5{fill:#A0918B;}
	.st6{fill:#FBFBFB;}
	.st7{fill:#927233;}
	.st8{fill:#935A40;}
	.st9{fill:#623C2A;}
	.st10{fill:#FEFEFE;}
	.st11{fill:#040302;}
	.st12{fill:#090805;}
	.st13{fill:#9C5B46;}
	.st14{fill:#070705;}
	.st15{fill:#ECCE5D;}
	.st16{fill:#F2F2F2;}
	.st17{fill:#93583F;}
	.st18{fill:#A1918B;}
	.st19{fill:#513123;}
	.st20{fill:#FAFAFA;}
	.st21{fill:#030202;}
	.st22{fill:#060605;}
	.st23{fill:#A0908A;}
	.st24{fill:#937234;}
	.st25{fill:#E6C95B;}
	.st26{fill:#864E37;}
	.st27{fill:#513124;}
	.st28{fill:#B0603E;}
	.st29{fill:#FAF0ED;}
	.st30{fill:#F9F9F9;}
	.st31{fill:#917133;}
	.st32{fill:#9E8F89;}
	.st33{fill:#E7CA5B;}
	.st34{fill:#92583F;}
	.st35{fill:#050503;}
	.st36{fill:#FCFBFB;}
	.st37{fill:#080704;}
	.st38{fill:#070605;}
	.st39{fill:#FAF1ED;}
	.st40{fill:#F4FA95;}
	.st41{fill:#F8F8F7;}
	.st42{fill:#90573E;}
	.st43{fill:#030302;}
	.st44{fill:#080805;}
	.st45{fill:#FBF1ED;}
	.st46{fill:#FBFBFA;}
	.st47{fill:#927234;}
	.st48{fill:#F69376;}
	.st49{fill:#7B2D2D;}
	.st50{fill:#FCFCFC;}
	.st51{fill:#EF5A2D;}
	.st52{fill:#F0CC2D;}
	.st53{fill:#9F8F8A;}
	.st54{fill:#FAFAF9;}
	.st55{fill:#F2A78E;}
	.st56{fill:#040403;}
	.st57{fill:#070604;}
	.st58{fill:#A0908B;}
	.st59{fill:#F7F7F7;}
	.st60{fill:#E8CB5B;}
	.st61{fill:#8F563E;}
	.st62{fill:#513224;}
	.st63{fill:#080705;}
	.st64{fill:#FCFCFB;}
	.st65{fill:#F9F8F8;}
	.st66{fill:#FAF0EC;}
	.st67{fill:#9F908A;}
	.st68{fill:#91573E;}
	.st69{fill:#070704;}
	.st70{fill:#F5FC96;}
	.st71{fill:#9C9C53;}
	.st72{fill:#9A9A52;}
	.st73{fill:#F2F994;}
	.st74{fill:#A17628;}
	.st75{fill:#90573F;}
	.st76{fill:#090806;}
	.st77{fill:#523123;}
	.st78{fill:#7C4031;}
	.st79{fill:#ED866D;}
	.st80{fill:#F3E9E6;}
	.st81{fill:#4F3023;}
	.st82{fill:#060606;}
	.st83{fill:#89533B;}
	.st84{fill:#050403;}
	.st85{fill:#090909;}
	.st86{fill:#EDCF5E;}
	.st87{fill:#050504;}
	.st88{fill:#060504;}
	.st89{fill:#955A41;}
	.st90{fill:#080703;}
	.st91{fill:#090807;}
	.st92{fill:#070603;}
	.st93{fill:#0A0905;}
	.st94{fill:#937335;}
	.st95{fill:#955A40;}
	.st96{fill:#955940;}
	.st97{fill:#EDD05E;}
	.st98{fill:#8F7032;}
	.st99{fill:#945940;}
	.st100{fill:#EED05E;}
	.st101{fill:#503123;}
	.st102{fill:#EEEEEE;}
	.st103{fill:#0D0C0A;}
	.st104{fill:#E3C659;}
	.st105{fill:#967535;}
	.st106{fill:#9D7D38;}
	.st107{fill:#745A29;}
	.st108{fill:#847334;}
	.st109{fill:#907134;}
	.st110{fill:#E5C85B;}
	.st111{fill:#503124;}
	.st112{fill:#927133;}
	.st113{fill:#E0DDD4;}
	.st114{fill:#987836;}
	.st115{fill:#977636;}
	.st116{fill:#CCC4A4;}
	.st117{fill:#523224;}
	.st118{fill:#0B0908;}
	.st119{fill:#8F7135;}
	.st120{fill:#050404;}
	.st121{fill:#EDD05D;}
	.st122{fill:#F3FA94;}
	.st123{fill:#9A9A51;}
	.st124{fill:#999951;}
	.st125{fill:#937334;}
	.st126{fill:#FAF0EE;}
	.st127{fill:#F3FA95;}
	.st128{fill:#989851;}
	.st129{fill:#A2792A;}
	.st130{fill:#F1F893;}
	.st131{fill:#A17729;}
	.st132{fill:#050502;}
	.st133{fill:#947335;}
	.st134{fill:#917233;}
	.st135{fill:#9B9B52;}
	.st136{fill:#F9EFEC;}
	.st137{fill:#9A782F;}
	.st138{fill:#979752;}
	.st139{fill:#F2F893;}
	.st140{fill:#8C8E4F;}
	.st141{fill:#B5B96E;}
	.st142{fill:#0F0F09;}
	.st143{fill:#9C9C52;}
	.st144{fill:#F5FB95;}
	.st145{fill:#F3F994;}
	.st146{fill:#A17728;}
	.st147{fill:#917134;}
	.st148{fill:#090706;}
	.st149{fill:#8E6F32;}
	.st150{fill:#93593F;}
	.st151{fill:#907033;}
	.st152{fill:#060505;}
	.st153{fill:#C8C3AF;}
	.st154{fill:#533324;}
	.st155{fill:#533426;}
	.st156{fill:#0E0C0A;}
	.st157{fill:#907133;}
	.st158{fill:#583627;}
	.st159{fill:#0A0907;}
	.st160{fill:#573526;}
	.st161{fill:#0C0B09;}
	.st162{fill:#503023;}
	.st163{fill:#543325;}
	.st164{fill:#B7B3A1;}
</style>
<g>
	<path class="st38" d="M283.2,785.8c0-5.6-2.7-10.4-2.2-15.7c0.2-2-1.8-1.6-2.9-1.8c-4.2-0.8-8.5-1.5-12.8-2.3
		c-3.1-0.6-4.8-2.5-5.4-5.7c-2.8-14.4-4-29-5-43.6c-0.6-8.7-2.9-17.1-2.9-25.7c-0.1-6.2-2.2-11.6-4.2-17.2
		c-12-33.5-19.8-68-23.9-103.3c-3.3-27.8-6.8-55.5-6.2-83.6c1.3-56.3,10.7-111,28.5-164.6c12.8-38.6,30.5-74.1,56.1-105.6
		c15.3-18.8,33.6-33.2,57.3-39.8c20.9-5.8,37.9,1.3,48.7,20.2c10.6,18.4,15.9,38.4,17.7,59.3c3.9,46.4,3.6,92.9,4.1,139.4
		c0.5,46.9,4.2,93.5,15.9,139.1c1.9,7.4,4.9,14.5,7.2,21.8c0.6,1.8,1.6,2.1,3.4,1.9c7.6-1.1,15.3-1.5,22.9-0.8
		c2.8,0.3,4.2-1,5.7-3.1c68.1-92.6,144-178.6,221.9-263c23.3-25.2,48.5-48.6,75.9-69.4c11.2-8.5,22.7-16.4,36.7-19.5
		c13.3-2.9,23.2,1.6,29.5,13.7c5.6,10.7,7.4,22.4,8.8,34.1c6,49.6,0.1,98.3-11,146.7c-18.7,81.3-46.8,159.5-79.5,236.1
		c-16.9,39.6-41,74.6-70.9,105.6c-0.8,0.8-2.1,1.3-1.6,2.8c0.6,1.5,1.9,1,3,1c15.1-0.1,20.4,9.5,17.2,23.4
		c-1.1,4.8-2.9,9.2-5.4,13.4c-0.9,1.6-1.7,2.6,0.4,4c4.3,2.8,5.4,7.3,5.7,12.1c0.9,15.3-4.3,28.8-11.9,41.6
		c-17.9,30.2-42.1,54.2-72.9,70.9c-45,24.3-92,43.4-142.4,53.4c-19,3.8-38.3,4.8-57.7,4.4c-28.2-0.6-56.1-3.3-83-12.9
		c-16.3-5.8-31.7-13.1-45.2-23.9c-11.8-9.4-20.3-21.3-24-35.9c-1.5-6-3.7-10.5-9-13.8c-2.3-1.4-4.1-3.9-5.8-6.1
		c-5.6-7.6-4.6-15.3,3.1-20.9c3-2.2,2.6-3.2,0.3-5.4c-3.1-3-6.1-6.2-8.1-10.1c-3.2-6.1-2.2-10.9,3.3-14.8
		c6.9-4.9,13.9-9.7,21.8-12.9c0.6-0.2,1.4-0.3,1.7-0.8c1.7-2.1-1.8-13.5-4.4-14.3c-4.8-1.5-9.3-3.6-12.8-7.4
		c-1.5-1.7-2.7-3.7-1.1-5.8c1.7-2.1,3.9-1.3,5.8,0C276.7,783,279.3,785,283.2,785.8z M326.9,781c-0.1-1.5,0.5-2.9,0.8-4.3
		c0.3-1.4,3.1-3.3-0.1-4.3c-2.1-0.6-4.2-0.9-5.7,2.1c-3.4,6.8-4.5,14.1-5.8,21.4c-0.5,2.9-1.2,5.8-0.3,8.8c0.6,1.9,1.7,3,3.3,3.1
		c2.3,0.2,1.7-1.9,1.9-3.2c0.7-3.9,1.4-7.8,2-11.7c3.3,2.1,6.5,3.2,10,0.3c2.4-1.9,2.7-4.6,2-7.2C333.9,782.1,330.8,780.9,326.9,781
		z M302.3,840c2.2-0.4,3.3,0.9,4.4,2.5c2.5,3.9,5.3,7.7,9,10.6c4.8,3.7,10.1,5.7,16.3,4.6c-9.5-3.3-15.7-9.8-19.8-18.6
		c-3.6-7.8-5.8-15.5,2.7-21.9c2.4-1.8,1.5-3.3-0.9-4.1c-3.4-1.2-4.2-3.5-4.3-6.9c-0.1-12.1,1.3-23.7,7.3-34.9
		c-4.6-0.4-8.8-0.7-13.1-1c-0.9-0.1-1.6,0.1-1.7,1.3c-0.2,6.1-4.5,11.5-3.1,18c0.7,3.3-0.9,5.8-4.4,6.8c-2.3-0.3-1.8,1.2-1.8,2.5
		c0.3,4.3,0.7,8.6,0.8,12.9c0.3,9.8-1.3,19.5-1.7,29.2c-1.3,6.3-2.1,12.8-4.1,19c-6.3,19.9-1.4,37,11.5,52.5
		c6.8,8.2,15.4,14.2,24.6,19.2c24.1,12.9,50,19.9,77.1,22.2c27.1,2.3,54.2,2.6,81.1-2.7c50.5-9.9,97.8-28.8,143-53.1
		c28-15.1,50.1-36.7,66.9-63.6c7.2-11.5,13.3-23.5,13.7-37.5c0.2-6.8-1.8-8.5-8-5.8c-6.6,3-12.9,6.8-19.4,10.2
		c-2.2,1.2-4.5,2.3-7.1,1.9c-1.2-0.2-2.3-0.7-2.6-2c-0.2-1.1,0.4-1.9,1.4-2.4c8.1-3.6,14.5-10.1,22.4-14
		c10.4-5.2,12.8-14.6,14.1-24.7c0.6-5.1-1.5-6.9-6.6-7.2c-6-0.4-11.5,1.2-17,3.2c-12.1,4.5-22.6,11.9-33.5,18.6
		c-2,1.2-3.9,2.6-6.4,2.5c-3.6-3.4-1.3-6,1.2-8.4c9.2-8.3,19.4-15.1,30.7-20.4c1-0.5,3.7-0.4,2.6-2.7c-2.2-4.8,1.2-7.3,4.1-9.6
		c5.6-4.5,10.6-9.6,15.4-15c25-28.5,45.8-59.8,60.5-94.7c28.7-68.3,54.4-137.7,73.1-209.5c13.4-51.5,23.2-103.3,17.8-156.9
		c-1.2-12.1-2.5-24.2-7-35.6c-4.9-12.4-11.9-15.4-24.5-10.9c-10.5,3.7-19.5,10-28.2,16.8c-33.5,26-63.6,55.8-92.5,86.8
		c-40.7,43.6-78.8,89.5-117.2,135.2c-29.1,34.7-59.7,68.2-85.8,105.3c-1,1.5-2.4,2.7-2.5,4.8c-0.1,3.7-2.6,4.7-5.8,4.6
		c-7.5-0.2-15,0.4-22.5,0.8c-32.3,1.7-62.1,11.1-89.5,28.2C337,619,311.1,649.9,299.7,692c-0.9,3.4-0.7,4.9,3,6.1
		c15.2,5,29.7,11.6,45.1,16.1c7.2,2.1,9.1,5.4,9.3,12.9c0.1,3.6,0.7,7.2,1.1,10.8c-1.7,6.7-0.6,13.6-1.2,20.3
		c-0.4,3.9,0.2,8.6-1.7,11.6c-2.6,4-1.9,6.9,0.1,10.3c3.1,17.2,6.7,34.4,3,52.7c3.7-1.1,6.6-2,9.6-2.8c3,0,6-0.1,9-0.1
		c1.5,0,2.5,1,2.8,2.4c0.2,1.5-0.6,2.6-2.1,2.9c-1.3,0.3-2.6,0.6-3.9,0.8c-7.8,1.4-15.3,3.8-22.4,8.1c2.4,2.3,4.8,0.8,7,0.9
		c8.5,0,11.8,3.6,11,12c-1.9,1.9-3.7,4.1-5.9,5.7c-6.9,5.2-14.6,7-23.4,4.1c0.2,3.2,0.3,5.8,0.5,8.4c0.8,2.2-1,5.7,4,5.7
		c10.3-0.2,17.9,5.4,24.1,13.1c1,1.2,2.5,2.8,1.1,4.4c-1.7,1.8-3.3,0.3-4.8-0.9c-4.2-3.3-8.4-6.7-13.6-8.2c-2.9-0.8-6.5-3-8.9,0
		c-2.5,3.2-0.7,7.1,1,10.3c0.7,1.3,1.9,2.3,2.9,3.4c3.7,3.5,8.2,5.5,13,7.1c4.5,1.5,5.1,5,1.1,7.6c-3.9,2.5-5,5.5-3.2,9.7
		c1.8,4.1,5.6,5.8,10.3,4.9c4.6-0.9,8.2-3.5,11.4-6.7c1.1-1.1,2.1-2.5,3.8-1.3c1.5,1.1,0.9,2.8,0.3,4.1c-1.3,2.7-3.6,4.8-5.9,6.7
		c-6.8,6-15.3,6.8-21.4,2.1c-6.6-5-8.1-13.5-3.7-21.9c-1.6-0.8-3.3-1.5-4.9-2.4c-11.5-6.3-15.1-14.3-12.1-26.9
		c0.2-0.8,0.4-1.7,0.1-2.4c-1.7-5.1-2.5-10.3-2.2-15.7c0.1-1.8-0.4-2.7-2.5-2.7c-15.3,0-23.7-9.4-29.5-22.1
		C301.4,842,301.8,841,302.3,840z M336,267c-18.1,17.2-31.2,38-41.9,60.2c-18.4,38.1-31.2,78-37.4,119.9c-4.3,29.5-6.2,59-2.2,88.6
		c5.6,41,14.4,81.3,26.8,120.8c3.3,10.3,7.1,20.4,12.4,30.6c2.8-10.3,6.4-19.6,10.8-28.6c4.4-9,10-17.3,15.7-25.4
		c2-2.4,3.9-4.9,6-7.3c1.2-1.5,2.1-2.9,1.7-4.9c-2.1-10-0.3-19.5,4.2-28.7c-1.2-0.2-2.2-0.4-3.1-0.5c-15-2.9-20.5-11.5-17-26.3
		c1.7-7,4.3-13.7,7.6-20c2-3.7,1.4-5.1-2.8-6.2c-12.1-3.1-18.3-10.3-18.8-21.5c-1-21.8,3.1-42.5,14.2-61.4c10-17.1,20.4-34,32-50
		c1.3-1.8,2.2-3.7,2.4-5.9c1.1-9.4,2.4-18.8,3.4-28.2c1.7-16.2,2.7-32.5,4.7-48.6c2-16.2,4.1-32.4,3.2-48.7
		c-0.2-3.8-0.8-7.6-2.2-11.2c-2-5.1-5-6.3-9.8-3.9C342.1,261.4,338.8,263.9,336,267z M290.5,693.5c0.4,0.4,0.8,0.5,1.2,0
		c-0.2-0.2-0.5-0.4-0.7-0.6c-3-6.6-6.7-13-9-19.9c-17.6-51-30-103.2-35.2-157c-2.7-28.2-0.1-56.2,4.7-84
		c5.8-33.7,17.3-65.5,31.3-96.5c11.9-26.3,26.5-50.7,46.6-71.5c4.2-4.3,8.7-8.3,14.2-10.8c8-3.6,14.5-1,17.9,7
		c2.4,5.8,3.1,11.9,3.3,18.1c0.4,15.4-1,30.6-2.7,45.8c-2.6,22.8-3.5,45.8-7.4,68.5c-0.9,5.5-0.5,11.5-3.9,16.3
		c-10.4,15.1-19.4,31.1-29,46.7c-10,16.3-15.3,33.8-16,52.9c-0.6,14.8,2.1,18.7,15.8,23.6c3.1,1.1,4.3,0.4,5.9-2.1
		c4.4-7.1,9.9-13.4,15.6-19.4c1.6-1.7,3.9-2.9,5.7-1.2c2.1,1.8-0.5,3.2-1.5,4.5c-11.5,14.8-21.5,30.4-26.7,48.7
		c-4.1,14.5-2.6,17.3,11.7,21.4c0.2,0,0.4,0,0.5,0.1c2.6,1.8,4.1,0.3,5.7-1.7c4.3-5.2,9.5-9.4,14.9-13.2c1.6-1.1,3.8-2.7,5.3-0.8
		c1.6,2-1.1,3.1-2.3,4.2c-7.3,6.4-13.7,13.6-18.5,22.1c-3.8,6.8-5.4,14-4.9,23c6.4-6.3,12.1-11.8,18.3-16.7
		c26-20.5,55.7-32.9,87.9-39.7c3.7-0.8,4.8-1.5,2.9-5.3c-2.9-5.6-4.9-11.6-6.6-17.8c-12.3-44.6-16.7-90.3-16.9-136.4
		c-0.2-44-0.2-88-3.1-131.9c-1.5-22.4-5.1-44.3-15.6-64.6c-9.6-18.5-22.9-24-42.6-17.5c-20.5,6.8-36.1,20.2-49.3,36.8
		c-24.5,30.7-40.9,65.3-53,102.7c-16.4,50.3-24.9,101.8-27.1,154.4c-1.6,36.6,2.5,72.9,8.2,108.9c5,31.1,12.4,61.7,23.8,91.1
		c0.9,2.3,1.5,4.5,4.6,5.2C273.5,689,282,691.4,290.5,693.5z M349.9,740.9c0-3.8,0-6.5,0-9.1c-0.1-8.3-0.5-8.4-8.3-11.1
		c-17-6-33.9-12.3-50.9-18.4c-8.5-3-17.3-4.9-26-6.9c-2.6-0.6-4.9,0.2-4,4.1c0.9,4,1.2,8.2,1.6,12.3c1.4,13.9,2.8,27.8,4.2,41.7
		c0.3,3.5,1.7,5.3,5.7,5.9c16.4,2.5,33,3.5,49.6,5.3c7.8,0.8,15.5,1.6,23.3,2.5c2.7,0.3,4-0.5,3.9-3.5
		C348.6,755.7,350.4,747.8,349.9,740.9z M286.5,815.4c-6.3,4.2-12.1,8.2-17.9,12c-3,1.9-3.4,4.3-1.6,7.2c2.3,3.5,4.6,6.9,6.9,10.4
		c4.3,6.4,4.3,6.4-1.3,11.9c-2.3,2.2-4.9,4.5-3.8,8.1c1.4,4.6,4.7,8,8.2,11.4C282.6,856.1,289.4,836.9,286.5,815.4z M344.2,857.1
		c-0.3,1.9-0.1,3.6,2.6,4.1c4,0.8,12.3-2.3,14.8-5.6c1.6-2.1,1.1-3.1-1.4-3.8c-3.3-0.9-6.6-0.5-9.9-0.8
		C345.9,850.4,344.4,852.8,344.2,857.1z M317.9,823.4c-3.8,3.6-2.5,10.2,3.2,18.2c4.9,6.8,11.3,10.2,15.8,8
		C327,843.5,321.1,834.5,317.9,823.4z"/>
	<path class="st1" d="M367.9,830c-3,0.9-5.9,1.8-9.6,2.8c3.7-18.3,0.1-35.5-3-52.7c3-1,3.9-3.7,4.3-6.2c1.8-9.8,2.6-19.7,2.2-29.7
		c-0.1-2.4-0.2-5.5-3.6-6.4c-0.4-3.6-1-7.2-1.1-10.8c-0.2-7.5-2.1-10.8-9.3-12.9c-15.4-4.5-29.9-11.2-45.1-16.1
		c-3.7-1.2-3.9-2.8-3-6.1c11.4-42.1,37.3-73,73.7-95.7c27.4-17.1,57.2-26.5,89.5-28.2c7.5-0.4,15-1.1,22.5-0.8
		c3.2,0.1,5.7-0.9,5.8-4.6c0.1-2.1,1.4-3.3,2.5-4.8c26.2-37.1,56.7-70.6,85.8-105.3c38.3-45.7,76.5-91.6,117.2-135.2
		c28.9-31,58.9-60.8,92.5-86.8c8.7-6.8,17.7-13.1,28.2-16.8c12.6-4.5,19.5-1.5,24.5,10.9c4.5,11.4,5.8,23.6,7,35.6
		c5.4,53.6-4.3,105.4-17.8,156.9c-18.7,71.8-44.4,141.2-73.1,209.5c-14.7,35-35.5,66.2-60.5,94.7c-4.7,5.4-9.8,10.4-15.4,15
		c-2.8,2.3-6.3,4.7-4.1,9.6c1,2.2-1.6,2.2-2.6,2.7c-11.2,5.3-21.5,12.1-30.7,20.4c-2.6,2.4-4.8,5-1.3,8.4c-10,10.4-17,23-25.4,34.5
		c-9.6,13-19.1,26-32.6,35.4c-10.5,7.3-22.6,10.4-34.4,14.1c-0.6-0.8-1.3-1.6-1.9-2.4c3.1-8,4.1-16.3,4-24.8
		c6.2-13.4,8.2-27.6,7.2-42.2c-0.2-3.5,0.4-5.2,4.5-5.8c8.6-1.4,13.6-7.7,17.9-14.6c0.9-1.5,1.7-3.7-0.2-5c-1.9-1.3-2.9,0.7-4,1.9
		c-3.1,3.3-6.4,6.2-10.7,7.9c-3.4,1.3-4.6,0.3-5.5-2.9c-3.8-13.2-10.3-24.8-19.3-35.1c-26.5-30.1-67.8-30.1-93,0.3
		c-19.2,23.2-24.3,50.4-20.4,79.7c2,14.9,7.6,28.5,15,41.4c-3.1-0.3-5.5-2.1-7.9-3.8c-7.3-5.1-14.7-10.2-21.7-15.7
		C400.7,829,384.9,826.8,367.9,830z M738,446.1L738,446.1c-0.7-0.1-1,0.3-1,1l0.1-0.1c-0.7,0-1.1,0.3-1.1,1.1l0.1-0.1
		c-0.7,0-1.1,0.3-1.1,1c0,0,0.1-0.1,0.1-0.1c-0.4,0.4-0.7,0.7-1.1,1.1c0,0,0.1-0.1,0.1-0.1c-0.4,0.4-0.7,0.7-1.1,1.1l0.1-0.1
		c-0.4,0.3-0.7,0.7-1.1,1c0,0,0,0,0,0c-0.3,0.2-0.6,0.5-0.9,0.7c-17.7,14.5-36.9,26-59.7,30.5c-1.9,0.4-4.3,0.6-4.3,3.3
		c0,2.8,2.5,2.8,4.4,3c5.1,0.7,10.3,0.9,15.2,2.5c6.2,2,8.9,5.8,8.3,12.4c-0.5,5.5-3,10.2-6.3,14.4c-6.6,8.5-14.7,15.5-23.4,21.7
		c-27.7,19.8-56.8,37-87.4,51.9c-1.2,0.6-2.4,1.3-3.3,2.2c-1,1-2.1,2.3-1.3,4c0.6,1.5,2,1.6,3.4,1.7c3.1,0.3,6.2-0.4,9.4,0.5
		c17.6,4.6,32.1,14.3,44.3,27.5c9.7,10.6,17.9,22.3,24.7,34.9c0.9,1.7,1.6,3.5,3.9,1.7c4.7,9.2,7.3,19.1,10.3,28.9
		c0.9,2.8,0.7,6.5,4.7,7.5c-0.3,0.6-0.5,1.2-0.8,1.8c-0.9,1.8-2.2,3.6,0.1,5.3c2,1.5,3.5,0,4.8-1.2c2.4-2.3,4.9-4.6,6.8-7.3
		c10-13.7,20.1-27.4,28.4-42.2c37-65.7,65.9-135,89.7-206.4c14.6-43.9,26.1-88.4,26.4-135.1c0.1-12,0.7-24-2.5-35.7
		c-2.7-10-10.2-14.9-20.3-13.3c-3.3,0.5-6.4,1.9-9.3,3.5c-24.6,13.8-42.8,34-57.7,57.5c-3.9,6.2-2.3,8.8,5.1,9.9
		c6.5,1,12.5,3.3,17.9,7.1c7,4.8,8.1,9.7,3.8,17.1c-3.2,5.6-7.9,9.8-13,13.6c-12,8.9-25.3,15.2-39,21c-1.9,0.8-4.7,1.4-3.7,4.3
		c1.1,3.1,3.6,2,5.9,1.3c8.9-2.9,17-7.7,25.6-11.1c9.9-4,17.3,0,17.8,10c0.1,2.8,0.2,5.8-0.6,8.4c-3,10.9-8.3,20.6-15.2,29.4
		c-1.2,0.7-2.2,1.5-2.3,3.1c0,0,0.1-0.1,0.1-0.1c-0.4,0.4-0.7,0.7-1.1,1.1l0.1-0.1c-0.7,0-1,0.4-1.1,1.1l0.1-0.1
		c-0.7,0-1.1,0.3-1.1,1.1l0.1-0.1C738.3,445,738,445.4,738,446.1z M439.9,699.3c0.6,5.7,4.6,6.7,9.4,6.6c18-0.2,35.9,0.8,53.9-0.9
		c12.9-1.2,25.8-2,38.7-3.1c4.8-0.4,8.3-2.5,10.4-7.2c3.8-8.5,6.9-17.3,9.1-26.3c4.2-16.7,8.8-33.4,11.2-50.5c0.7-5-1.2-8.9-5.6-9.5
		c-4-0.5-8.2-1.9-12.3-0.2c0.5-5.6,1.1-11.3,1.5-16.9c0.7-8.6-0.7-9.8-9.2-7.8c-23.8,5.6-47.6,11.2-71.4,16.8
		c-13.9,3.3-27.8,6.6-41.8,9.9c-3.5,0.8-5.9,2-5.1,6.8c1,5.7,0.8,11.6,1.2,17.4c1.1,19.4,2.3,38.9,3.4,58.3
		C433.5,696.9,435.1,699.6,439.9,699.3z"/>
	<path class="st3" d="M290.5,693.6c-8.5-2.2-17-4.5-25.6-6.5c-3.1-0.7-3.7-2.9-4.6-5.2c-11.4-29.5-18.8-60-23.8-91.1
		c-5.8-36-9.8-72.3-8.2-108.9c2.2-52.6,10.7-104,27.1-154.4c12.2-37.4,28.6-72,53-102.7c13.2-16.6,28.8-30,49.3-36.8
		c19.7-6.5,33-1,42.6,17.5c10.5,20.2,14.1,42.2,15.6,64.6c2.8,43.9,2.9,87.9,3.1,131.9c0.2,46.1,4.6,91.7,16.9,136.4
		c1.7,6.1,3.7,12.1,6.6,17.8c1.9,3.8,0.9,4.5-2.9,5.3c-32.2,6.8-61.9,19.2-87.9,39.7c-6.2,4.9-11.9,10.4-18.3,16.7
		c-0.5-8.9,1.1-16.2,4.9-23c4.8-8.5,11.2-15.7,18.5-22.1c1.2-1.1,3.9-2.2,2.3-4.2c-1.5-2-3.7-0.4-5.3,0.8c-5.5,3.8-10.7,8-14.9,13.2
		c-1.6,2-3.1,3.5-5.7,1.7c-0.1-0.1-0.3-0.1-0.5-0.1c-14.3-4.1-15.8-6.9-11.7-21.4c5.1-18.3,15.2-33.9,26.7-48.7
		c1-1.2,3.6-2.6,1.5-4.5c-1.9-1.6-4.1-0.5-5.7,1.2c-5.8,6-11.2,12.3-15.6,19.4c-1.6,2.5-2.8,3.2-5.9,2.1
		c-13.7-4.9-16.4-8.8-15.8-23.6c0.7-19.1,6-36.6,16-52.9c9.6-15.6,18.6-31.6,29-46.7c3.3-4.9,2.9-10.8,3.9-16.3
		c3.9-22.7,4.7-45.7,7.4-68.5c1.8-15.2,3.2-30.5,2.7-45.8c-0.2-6.2-0.8-12.3-3.3-18.1c-3.4-8.1-9.9-10.6-17.9-7
		c-5.6,2.5-10.1,6.5-14.2,10.8c-20.1,20.9-34.8,45.3-46.6,71.5c-14,31-25.5,62.8-31.3,96.5c-4.8,27.8-7.4,55.8-4.7,84
		c5.1,53.8,17.6,106,35.2,157c2.4,6.9,6,13.3,9,19.9C290.9,693.2,290.7,693.3,290.5,693.6z"/>
	<path class="st39" d="M367.9,830c17-3.2,32.8-1,46.8,10.1c7,5.5,14.4,10.6,21.7,15.7c2.4,1.7,4.8,3.5,7.9,3.8c0,0,0,0,0,0
		c-0.1,0.7,0.3,1,0.9,1.1c6.4,8.5,13.3,16.5,22.4,22.4c31.4,20.3,66.4,6.9,83.3-21.8c11.9-3.7,23.9-6.8,34.4-14.1
		c13.6-9.4,23.1-22.4,32.6-35.4c8.5-11.5,15.4-24.1,25.4-34.5c2.5,0.1,4.4-1.2,6.4-2.5c10.9-6.7,21.4-14.1,33.5-18.6
		c5.5-2,11.1-3.7,17-3.2c5.1,0.4,7.2,2.2,6.6,7.2c-1.3,10-3.7,19.5-14.1,24.7c-7.9,3.9-14.2,10.4-22.4,14c-1,0.4-1.7,1.2-1.4,2.4
		c0.3,1.3,1.4,1.9,2.6,2c2.6,0.4,4.9-0.7,7.1-1.9c6.5-3.4,12.7-7.2,19.4-10.2c6.1-2.8,8.2-1,8,5.8c-0.4,14-6.5,26-13.7,37.5
		c-16.9,26.9-38.9,48.6-66.9,63.6c-45.2,24.3-92.4,43.1-143,53.1c-26.9,5.3-54,5-81.1,2.7c-27.1-2.3-53-9.3-77.1-22.2
		c-9.3-5-17.8-11-24.6-19.2c-12.9-15.6-17.9-32.7-11.5-52.5c2-6.1,2.7-12.6,4.1-19c3.2-0.7,5.9,1,8.7,2
		c5.8,12.7,14.2,22.1,29.5,22.1c2.1,0,2.6,0.9,2.5,2.7c-0.3,5.4,0.5,10.6,2.2,15.7c0.2,0.7,0,1.6-0.1,2.4
		c-3,12.6,0.6,20.5,12.1,26.9c1.6,0.9,3.3,1.6,4.9,2.4c-4.4,8.4-2.9,16.9,3.7,21.9c6.2,4.7,14.6,3.9,21.4-2.1c2.3-2,4.5-4,5.9-6.7
		c0.6-1.3,1.2-3-0.3-4.1c-1.6-1.2-2.7,0.2-3.8,1.3c-3.2,3.3-6.8,5.8-11.4,6.7c-4.7,0.9-8.4-0.8-10.3-4.9c-1.9-4.2-0.8-7.1,3.2-9.7
		c4-2.6,3.4-6.1-1.1-7.6c-4.8-1.6-9.3-3.6-13-7.1c-1.1-1-2.3-2.1-2.9-3.4c-1.7-3.3-3.5-7.1-1-10.3c2.3-3,6-0.8,8.9,0
		c5.2,1.5,9.4,4.9,13.6,8.2c1.4,1.1,3.1,2.7,4.8,0.9c1.4-1.6-0.1-3.2-1.1-4.4c-6.2-7.7-13.7-13.3-24.1-13.1c-5,0.1-3.2-3.4-4-5.7
		c11.9,1.9,21.3-2.2,28.1-12.1c1.3-1.8,2.7-3.9,0.7-6.1c0.9-8.4-2.5-12-11-12c-2.2,0-4.5,1.4-7-0.9c7.1-4.3,14.5-6.7,22.4-8.1
		c1.3-0.2,2.6-0.4,3.9-0.8c1.5-0.4,2.3-1.4,2.1-2.9c-0.2-1.4-1.2-2.4-2.8-2.4C373.9,829.9,370.9,830,367.9,830z"/>
	<path class="st2" d="M320.3,633.2c-5.8,8.1-11.3,16.5-15.7,25.4c-4.4,9-8,18.3-10.8,28.6c-5.3-10.2-9.2-20.3-12.4-30.6
		c-12.5-39.5-21.3-79.8-26.8-120.8c-4-29.5-2.2-59.1,2.2-88.6c6.2-42,19.1-81.8,37.4-119.9c10.7-22.3,23.8-43,41.9-60.2
		c5.6,2.3,6.9,7.5,7.8,12.6c4.3,25.3,3.2,50.7,0.8,76.1c-1.5,15.7-3.7,31.3-5.7,47c-0.4,3-0.7,5.9-2.7,8.4
		c-9.8,12.1-17.8,25.3-26,38.4c-11.4,18.1-21.5,36.7-24.9,58.3c-3.2,20.4,2.6,33.1,20.4,41.8c2.6,1.3,2.4,2.4,1.5,4.6
		c-2,5.3-4,10.6-5.6,16c-3.9,13.3,0.6,26.5,15.3,30.2c2.5,0.6,2.8,1.8,2.3,4.3C317.5,614.2,316.9,623.8,320.3,633.2z"/>
	<path class="st40" d="M349.9,740.9c0.6,6.9-1.2,14.8-1,22.8c0.1,3-1.2,3.8-3.9,3.5c-7.8-0.9-15.5-1.6-23.3-2.5
		c-16.5-1.8-33.1-2.8-49.6-5.3c-4-0.6-5.3-2.3-5.7-5.9c-1.4-13.9-2.8-27.8-4.2-41.7c-0.4-4.1-0.7-8.3-1.6-12.3
		c-0.9-3.9,1.4-4.7,4-4.1c8.7,2,17.5,3.8,26,6.9c17,6.1,33.9,12.4,50.9,18.4c7.8,2.7,8.2,2.8,8.3,11.1
		C349.9,734.5,349.9,737.2,349.9,740.9z"/>
	<path class="st23" d="M320.3,633.2c-3.4-9.4-2.7-19-1-28.6c0.5-2.5,0.2-3.6-2.3-4.3c-14.8-3.8-19.3-16.9-15.3-30.2
		c1.6-5.4,3.6-10.7,5.6-16c0.8-2.2,1.1-3.3-1.5-4.6c-17.9-8.7-23.6-21.4-20.4-41.8c3.4-21.6,13.5-40.2,24.9-58.3
		c8.2-13.1,16.2-26.4,26-38.4c2-2.5,2.4-5.4,2.7-8.4c1.9-15.7,4.2-31.3,5.7-47c2.4-25.4,3.5-50.8-0.8-76.1c-0.9-5-2.2-10.2-7.8-12.6
		c2.8-3.1,6.1-5.6,9.9-7.5c4.8-2.4,7.8-1.2,9.8,3.9c1.4,3.6,2,7.4,2.2,11.2c0.9,16.4-1.1,32.6-3.2,48.7c-2,16.2-3.1,32.4-4.7,48.6
		c-1,9.4-2.2,18.8-3.4,28.2c-0.3,2.2-1.1,4.1-2.4,5.9c-11.6,16.1-22,32.9-32,50c-11.1,18.9-15.2,39.7-14.2,61.4
		c0.5,11.2,6.7,18.4,18.8,21.5c4.2,1.1,4.7,2.5,2.8,6.2c-3.3,6.3-5.9,13-7.6,20c-3.6,14.9,2,23.5,17,26.3c1,0.2,1.9,0.3,3.1,0.5
		c-4.4,9.3-6.3,18.8-4.2,28.7c0.4,2-0.4,3.5-1.7,4.9C324.2,628.3,322.2,630.8,320.3,633.2z"/>
	<path class="st41" d="M294.9,796.4c3.5-1,5.1-3.5,4.4-6.8c-1.4-6.5,2.8-11.9,3.1-18c0-1.1,0.7-1.3,1.7-1.3c4.3,0.3,8.5,0.7,13.1,1
		c-6,11.1-7.4,22.8-7.3,34.9c0,3.4,0.9,5.8,4.3,6.9c2.5,0.8,3.4,2.3,0.9,4.1c-8.5,6.4-6.4,14.1-2.7,21.9
		c4.1,8.8,10.3,15.3,19.8,18.6c-6.2,1.1-11.5-0.9-16.3-4.6c-3.7-2.9-6.5-6.6-9-10.6c-1.1-1.7-2.2-2.9-4.4-2.5
		C295.6,826.2,294.6,811.4,294.9,796.4z"/>
	<path class="st3" d="M286.5,815.4c2.8,21.5-4,40.7-9.5,60.9c-3.5-3.5-6.8-6.8-8.2-11.4c-1.1-3.6,1.6-5.9,3.8-8.1
		c5.6-5.5,5.6-5.5,1.3-11.9c-2.3-3.5-4.7-6.9-6.9-10.4c-1.9-2.9-1.4-5.2,1.6-7.2C274.4,823.6,280.2,819.6,286.5,815.4z"/>
	<path class="st23" d="M369.2,857c2,2.3,0.6,4.3-0.7,6.1c-6.8,9.9-16.2,13.9-28.1,12.1c-0.2-2.6-0.3-5.2-0.5-8.4
		c8.8,2.9,16.5,1.1,23.4-4.1C365.5,861.1,367.3,858.9,369.2,857z"/>
	<path class="st42" d="M323.1,792.9c-0.7,3.9-1.4,7.8-2,11.7c-0.2,1.3,0.4,3.4-1.9,3.2c-1.7-0.1-2.8-1.2-3.3-3.1
		c-0.9-3.1-0.2-5.9,0.3-8.8c1.3-7.3,2.4-14.6,5.8-21.4c1.5-3,3.6-2.8,5.7-2.1c3.2,1,0.5,2.9,0.1,4.3c-0.4,1.4-1,2.8-0.8,4.3
		C321.4,784.1,320.7,786.5,323.1,792.9z"/>
	<path class="st24" d="M358.2,737.9c3.4,0.9,3.5,3.9,3.6,6.4c0.4,10-0.4,19.9-2.2,29.7c-0.5,2.5-1.3,5.3-4.3,6.2
		c-2-3.4-2.7-6.3-0.1-10.3c1.9-3,1.3-7.7,1.7-11.6C357.7,751.5,356.5,744.6,358.2,737.9z"/>
	<path class="st3" d="M294.9,796.4c-0.3,15,0.7,29.8,7.4,43.6c-0.5,1-0.9,2-1.4,3.1c-2.8-1.1-5.5-2.7-8.7-2c0.4-9.7,2-19.4,1.7-29.2
		c-0.1-4.3-0.5-8.6-0.8-12.9C293.1,797.6,292.6,796.1,294.9,796.4z"/>
	<path class="st42" d="M344.2,857.1c0.2-4.2,1.7-6.7,6.1-6.2c3.3,0.4,6.6-0.1,9.9,0.8c2.5,0.7,3,1.7,1.4,3.8
		c-2.5,3.3-10.8,6.4-14.8,5.6C344.2,860.7,343.9,859,344.2,857.1z"/>
	<path class="st41" d="M323.1,792.9c-2.4-6.4-1.7-8.8,3.9-11.9c3.8-0.1,6.9,1.2,8.1,5.1c0.8,2.6,0.4,5.3-2,7.2
		C329.6,796.1,326.3,795,323.1,792.9z"/>
	<path class="st42" d="M317.9,823.4c3.2,11,9.1,20,19,26.2c-4.5,2.2-10.9-1.2-15.8-8C315.4,833.6,314.1,827.1,317.9,823.4z"/>
	<path class="st3" d="M291.1,693c0.2,0.2,0.5,0.4,0.7,0.6c-0.4,0.5-0.8,0.3-1.3,0C290.7,693.3,290.9,693.2,291.1,693z"/>
	<path class="st2" d="M673.9,701.2c-4-1-3.9-4.7-4.7-7.5c-3-9.8-5.6-19.7-10.3-28.9c0.4-2.8-1.1-5.1-2.3-7.5
		c-7.6-16-16.8-30.9-29.6-43.4c0.2-3-2-4.8-3.5-6.9c-1.5-2.1-1.5-3.3,0.8-4.7c5-3.2,9.8-6.9,14.9-10.1c23.6-14.9,43.2-33.9,58.6-57
		c9-13.5,15-28.2,6-44.4c-1.1-2-0.2-2.5,1.5-3.1c16.6-6.4,30.5-17,43.6-28.6c15.6-13.8,24.1-31.2,24.1-52.3c0-7.1-2-13.5-7.3-18.5
		c-2.3-2.1-2-3.5,0-5.7c4.5-5,7.8-10.7,8.2-17.7c4.8-13.7,2-21-10.6-28.2c-5.4-3.1-11.3-4.6-17.3-6.1c0.8-2.8,2.4-5,3.9-7.1
		c9.5-12.9,20.5-24.6,32.5-35.1c7-6.1,14.8-11.3,23.7-14.4c5.6-1.9,10.3,0.2,12.7,5.6c1.9,4.2,2.4,8.6,2.7,13.1
		c2.4,31.7-1.4,62.8-8.2,93.6c-10.9,48.8-27.9,95.7-46.4,142C742.4,589.5,715,649.1,673.9,701.2z"/>
	<path class="st43" d="M550.9,861.4c-17,28.7-52,42.1-83.3,21.8c-9.1-5.9-15.9-13.9-22.4-22.4c0-0.6-0.2-1-0.9-1.1c0,0,0,0,0,0
		c-7.3-13-13-26.6-15-41.4c-3.9-29.3,1.2-56.5,20.4-79.7c25.2-30.4,66.5-30.4,93-0.3c9,10.2,15.6,21.9,19.3,35.1
		c0.9,3.2,2.1,4.3,5.5,2.9c4.4-1.7,7.7-4.6,10.7-7.9c1.1-1.2,2.1-3.2,4-1.9c1.9,1.3,1.2,3.5,0.2,5c-4.3,6.9-9.4,13.2-17.9,14.6
		c-4,0.7-4.7,2.4-4.5,5.8c1,14.6-1,28.8-7.2,42.2c-4,6.9-8.4,13.2-16.6,15.6c-22.7,6.8-43.1-1.8-56.3-22.1
		c-2.5-3.8-2.6-7.6-0.1-11.7c3-4.9,5.6-10,8.9-15.9c-6.9,1.4-12.7,2.7-18.5,3.8c-6.5,1.2-7.7,0.2-10.3-5.6
		c-8.2-18.4-7.6-36.8-0.5-55.2c0.4-1,1.2-2.1-0.5-3.2c-3,2.4-5.2,5.4-7.3,8.5c-22.2,31.8-20.6,83.1,3.6,113.4
		c10.5,13.1,23.4,22.4,40.4,24.1c20.4,2,36-7,48-22.9c1.4-1.8,2.2-4.2,5.2-3.9C549.6,859.8,550.3,860.6,550.9,861.4z M470.2,757.6
		c4.5,2.8,7.9,0.4,10.9-2.5c2.4-2.3,2.8-5.3,1.3-8.2c-2.1-4-5.8-3.7-9.5-2.9c-0.3,0.1-0.7,0.1-1,0.1c-0.9-3.5,2.2-6.5,1.7-10.4
		c-3.1,1.6-4.4,4.4-5.6,7c-8.1,17.3-9.5,34.9-2.4,53c2.1,5.2,5.3,2.9,8,2.2c3.7-1.1,0.4-3.3,0.1-4.9c-0.5-2.4-1.8-4.7-2.3-7.1
		C469.8,775.2,467.5,766.5,470.2,757.6z M489.1,815.4c-5,6.2-5,6.4-0.3,12.2c0.5,0.6,1,1.3,1.6,2c11.8,13.8,28.8,19,44.3,13.7
		c4.8-1.6,6.8-3.3,8.3-7.2C520.8,840.4,504.2,830.3,489.1,815.4z M526.4,828c2.4,0,4.3-1,4.3-3.6c0.1-2.7-6.4-9.1-9-9
		c-3.3,0.1-5.3,1.9-5.5,5.2C516,824.4,520.9,828,526.4,828z M534.8,815.4c-0.3-2.2-1.5-3.6-3.6-4.1c-1.7-0.4-3,0.5-3.1,2.3
		c-0.3,2.9,1.9,3.5,4.1,4C533.7,817.9,534.6,817,534.8,815.4z M474.5,732.9c0.1-0.1,0.2-0.2,0.3-0.3c0-0.1-0.1-0.2-0.2-0.3
		c-0.1,0.1-0.2,0.2-0.3,0.3C474.3,732.7,474.4,732.8,474.5,732.9z"/>
	<path class="st44" d="M627,614c12.8,12.5,22,27.4,29.6,43.4c1.1,2.4,2.7,4.6,2.3,7.5c-2.3,1.8-3,0-3.9-1.7
		c-6.8-12.6-15-24.3-24.7-34.9c-12.1-13.3-26.7-22.9-44.3-27.5c-3.2-0.8-6.3-0.1-9.4-0.5c-1.3-0.1-2.7-0.2-3.4-1.7
		c-0.7-1.7,0.3-2.9,1.3-4c0.9-0.9,2.1-1.6,3.3-2.2c30.6-14.9,59.7-32.2,87.4-51.9c8.7-6.2,16.8-13.2,23.4-21.7
		c3.3-4.3,5.8-9,6.3-14.4c0.6-6.5-2.1-10.4-8.3-12.4c-4.9-1.6-10.1-1.8-15.2-2.5c-1.9-0.3-4.4-0.2-4.4-3c0-2.7,2.4-2.9,4.3-3.3
		c22.8-4.5,42-16,59.7-30.5c0.3-0.2,0.6-0.5,0.9-0.7c0,0,0,0,0,0c0.4-0.3,0.7-0.7,1.1-1c0,0-0.1,0.1-0.1,0.1
		c0.4-0.4,0.7-0.7,1.1-1.1c0,0-0.1,0.1-0.1,0.1c0.6-0.1,1-0.4,1.1-1.1c0,0-0.1,0.1-0.1,0.1c0.7,0,1.1-0.3,1.1-1c0,0-0.1,0.1-0.1,0.1
		c0.7,0,1.1-0.3,1.1-1.1c0,0-0.1,0.1-0.1,0.1c0.7,0,1.1-0.3,1.1-1.1c0,0-0.1,0.1-0.1,0.1c0.7,0,1-0.4,1.1-1.1c0,0-0.1,0.1-0.1,0.1
		c0.7,0,1-0.4,1.1-1.1c0,0-0.1,0.1-0.1,0.1c0.7,0,1-0.5,1.1-1.1c0,0-0.1,0.1-0.1,0.1c0.4-0.4,0.7-0.7,1.1-1.1c0,0-0.1,0.1-0.1,0.1
		c0.8-1,1.5-2,2.3-3.1c6.9-8.8,12.3-18.5,15.2-29.4c0.7-2.7,0.7-5.6,0.6-8.4c-0.5-10-7.9-14-17.8-10c-8.6,3.4-16.7,8.3-25.6,11.1
		c-2.3,0.7-4.9,1.8-5.9-1.3c-1-2.9,1.8-3.5,3.7-4.3c13.7-5.8,27-12.1,39-21c5.1-3.8,9.8-8,13-13.6c4.2-7.4,3.1-12.3-3.8-17.1
		c-5.4-3.8-11.4-6.1-17.9-7.1c-7.5-1.1-9.1-3.7-5.1-9.9c14.8-23.5,33.1-43.7,57.7-57.5c2.9-1.6,6-3,9.3-3.5
		c10.1-1.6,17.6,3.3,20.3,13.3c3.2,11.7,2.6,23.8,2.5,35.7c-0.3,46.7-11.8,91.2-26.4,135.1c-23.8,71.5-52.7,140.7-89.7,206.4
		c-8.3,14.8-18.4,28.5-28.4,42.2c-1.9,2.7-4.4,5-6.8,7.3c-1.3,1.2-2.8,2.7-4.8,1.2c-2.2-1.7-1-3.5-0.1-5.3c0.3-0.6,0.5-1.2,0.8-1.8
		c41.1-52.2,68.5-111.8,92.9-172.8c18.6-46.3,35.6-93.2,46.4-142c6.9-30.8,10.7-62,8.2-93.6c-0.3-4.5-0.9-9-2.7-13.1
		c-2.4-5.4-7.1-7.5-12.7-5.6c-8.9,3.1-16.7,8.3-23.7,14.4c-12.1,10.5-23,22.1-32.5,35.1c-1.6,2.1-3.1,4.2-3.9,7.1
		c6,1.5,11.9,3,17.3,6.1c12.6,7.2,15.4,14.5,10.6,28.2c-5.5,6.8-11.2,13.4-18.9,18.3c7.3,3.3,11.2,7.9,11.9,14.7
		c0.6,5.1,0.8,10.3-0.9,15.3c-6,17.3-15.2,32.5-29.6,44.2c-14.5,11.7-30.2,21.4-48.6,28.1c10.3,3.7,15,10.4,13.8,20.6
		c-0.7,5.9-2.9,11.2-6.4,16c-6,8.1-13.1,15.1-20.9,21.3c-23.1,18.5-48.5,33.4-74.5,47.2c-2.6,1.4-5.4,2.2-7.5,4.5
		c4.4,1.8,8.5,3.5,12.7,5.2C613,603.9,619.7,609.4,627,614z"/>
	<path class="st6" d="M549,859c-2.9-0.3-3.8,2.1-5.2,3.9c-12,15.9-27.6,24.9-48,22.9c-17-1.7-30-11-40.4-24.1
		c-24.2-30.3-25.9-81.6-3.6-113.4c2.2-3.1,4.4-6.2,7.3-8.5c1.7,1.1,0.9,2.2,0.5,3.2c-7.1,18.5-7.7,36.9,0.5,55.2
		c2.6,5.8,3.7,6.8,10.3,5.6c5.8-1,11.6-2.3,18.5-3.8c-3.3,5.9-5.9,11-8.9,15.9c-2.5,4.1-2.3,7.9,0.1,11.7
		c13.2,20.3,33.6,28.8,56.3,22.1c8.1-2.4,12.6-8.7,16.6-15.6C553.1,842.7,552.1,851,549,859z"/>
	<path class="st38" d="M439.9,699.3c-4.8,0.3-6.4-2.4-6.6-6.8c-1.1-19.4-2.2-38.9-3.4-58.3c-0.3-5.8-0.2-11.7-1.2-17.4
		c-0.8-4.8,1.6-5.9,5.1-6.8c13.9-3.3,27.8-6.6,41.8-9.9c23.8-5.6,47.6-11.2,71.4-16.8c8.5-2,9.9-0.8,9.2,7.8
		c-0.4,5.6-1,11.3-1.5,16.9c-1.2,11.2-2.4,22.4-3.5,33.7c-1.5,15.4-2.9,30.8-4.4,46.1c-0.4,4-2.3,6.2-6.7,6.4
		c-10.5,0.4-20.9,1.3-31.4,1.8C485.7,697.2,462.8,698.2,439.9,699.3z M548.2,591.8c-1.1,0.1-1.6,0-2.1,0.1
		c-36.1,8.3-72.2,16.7-108.3,25c-2.1,0.5-2.4,1.4-2.3,3.5c1.7,22,3.3,44.1,4.7,66.1c0.2,3.5,1.1,4.7,5,4.5
		c29.9-1.9,59.8-3.5,89.7-5.1c2.9-0.2,3.8-0.8,4.1-3.9c1.7-17.9,3.8-35.7,5.7-53.5C545.9,616.5,547,604.4,548.2,591.8z"/>
	<path class="st24" d="M439.9,699.3c22.9-1.1,45.9-2.1,68.8-3.3c10.5-0.5,20.9-1.4,31.4-1.8c4.4-0.2,6.4-2.3,6.7-6.4
		c1.5-15.4,2.9-30.8,4.4-46.1c1.1-11.2,2.3-22.4,3.5-33.7c4.1-1.7,8.3-0.3,12.3,0.2c4.4,0.6,6.4,4.5,5.6,9.5
		c-2.5,17.1-7.1,33.8-11.2,50.5c-2.2,9.1-5.3,17.8-9.1,26.3c-2.1,4.7-5.7,6.8-10.4,7.2c-12.9,1.1-25.8,1.9-38.7,3.1
		c-17.9,1.7-35.9,0.7-53.9,0.9C444.5,706,440.5,705,439.9,699.3z"/>
	<path class="st39" d="M744.2,439c-0.8,1-1.5,2-2.3,3.1C742,440.6,743,439.7,744.2,439z"/>
	<path class="st39" d="M742,442c-0.4,0.4-0.7,0.7-1.1,1.1C741.3,442.8,741.7,442.4,742,442z"/>
	<path class="st39" d="M741.1,443c-0.1,0.6-0.4,1-1.1,1.1C740,443.4,740.4,443.1,741.1,443z"/>
	<path class="st39" d="M740.1,444.1c0,0.7-0.3,1.1-1.1,1.1C739,444.4,739.3,444,740.1,444.1z"/>
	<path class="st39" d="M731.9,452c-0.3,0.2-0.6,0.5-0.9,0.7C731.3,452.5,731.6,452.2,731.9,452z"/>
	<path class="st39" d="M733,451c-0.4,0.3-0.7,0.7-1.1,1C732.3,451.7,732.7,451.3,733,451z"/>
	<path class="st39" d="M734.1,450c-0.4,0.4-0.7,0.7-1.1,1.1C733.3,450.7,733.7,450.4,734.1,450z"/>
	<path class="st39" d="M735.1,449.1c0,0.7-0.5,1-1.1,1.1C734.3,449.8,734.7,449.4,735.1,449.1z"/>
	<path class="st39" d="M736.1,448.1c0,0.7-0.4,1-1.1,1C735,448.4,735.3,448,736.1,448.1z"/>
	<path class="st39" d="M737.1,447.1c0,0.7-0.4,1-1.1,1.1C736,447.4,736.3,447,737.1,447.1z"/>
	<path class="st39" d="M738.1,446.1c0,0.7-0.3,1.1-1.1,1.1C737,446.4,737.3,446,738.1,446.1z"/>
	<path class="st39" d="M739.1,445.1c0,0.7-0.3,1.1-1.1,1.1C738,445.4,738.3,445,739.1,445.1z"/>
	<path class="st1" d="M444.3,859.7c0.7,0.1,0.9,0.5,0.9,1.1C444.6,860.7,444.2,860.3,444.3,859.7z"/>
	<path class="st23" d="M627,614c-7.3-4.6-14-10.1-22.1-13.4c-4.1-1.7-8.3-3.4-12.7-5.2c2.1-2.3,5-3.2,7.5-4.5
		c26-13.9,51.5-28.7,74.5-47.2c7.8-6.3,15-13.2,20.9-21.3c3.5-4.8,5.7-10.2,6.4-16c1.2-10.2-3.5-16.9-13.8-20.6
		c18.4-6.8,34.1-16.4,48.6-28.1c14.4-11.7,23.6-26.9,29.6-44.2c1.7-5,1.5-10.2,0.9-15.3c-0.8-6.9-4.6-11.4-11.9-14.7
		c7.7-4.9,13.4-11.5,18.9-18.3c-0.4,7-3.8,12.6-8.2,17.7c-2,2.2-2.3,3.5,0,5.7c5.3,5,7.3,11.4,7.3,18.5c0,21.1-8.4,38.5-24.1,52.3
		c-13.1,11.6-27.1,22.2-43.6,28.6c-1.7,0.6-2.6,1.1-1.5,3.1c9,16.3,3,30.9-6,44.4c-15.4,23.1-35.1,42.1-58.6,57
		c-5.1,3.2-9.8,6.9-14.9,10.1c-2.3,1.5-2.3,2.7-0.8,4.7C625,609.1,627.2,611,627,614z"/>
	<path class="st42" d="M489.1,815.4c15.1,14.9,31.7,25,53.8,20.7c-1.5,3.8-3.5,5.5-8.3,7.2c-15.5,5.3-32.5,0-44.3-13.7
		c-0.5-0.6-1-1.3-1.6-2C484.1,821.8,484.1,821.6,489.1,815.4z"/>
	<path class="st42" d="M470.2,757.6c-2.7,9-0.4,17.6,1.4,26.3c0.5,2.4,1.8,4.7,2.3,7.1c0.3,1.6,3.6,3.9-0.1,4.9
		c-2.7,0.8-6,3.1-8-2.2c-7.1-18.1-5.7-35.7,2.4-53c1.2-2.6,2.4-5.4,5.6-7c0.5,3.9-2.6,6.8-1.7,10.4c0,0,0.1-0.1,0.1-0.1
		c-0.3,0.3-0.7,0.6-1,1C468.2,749,466.7,753.1,470.2,757.6z"/>
	<path class="st41" d="M470.2,757.6c-3.5-4.5-2-8.6,0.9-12.7c0.3-0.3,0.7-0.6,1-1c0,0-0.1,0.1-0.1,0.1c0.3,0,0.7-0.1,1-0.1
		c3.7-0.8,7.4-1.1,9.5,2.9c1.5,2.9,1,5.9-1.3,8.2C478.1,758,474.7,760.4,470.2,757.6z"/>
	<path class="st42" d="M526.4,828c-5.5-0.1-10.4-3.6-10.1-7.5c0.2-3.2,2.2-5.1,5.5-5.2c2.6-0.1,9,6.4,9,9
		C530.7,827,528.9,828,526.4,828z"/>
	<path class="st42" d="M534.8,815.4c-0.3,1.6-1.2,2.5-2.7,2.2c-2.1-0.4-4.3-1.1-4.1-4c0.2-1.7,1.4-2.7,3.1-2.3
		C533.4,811.8,534.6,813.3,534.8,815.4z"/>
	<path class="st42" d="M474.5,732.9c-0.1-0.1-0.2-0.2-0.2-0.3c0-0.1,0.2-0.2,0.3-0.3c0.1,0.1,0.2,0.2,0.2,0.3
		C474.7,732.7,474.6,732.8,474.5,732.9z"/>
	<path class="st4" d="M548.2,591.8c-1.2,12.6-2.3,24.6-3.5,36.7c-1.9,17.8-3.9,35.7-5.7,53.5c-0.3,3.1-1.2,3.7-4.1,3.9
		c-29.9,1.6-59.8,3.2-89.7,5.1c-3.9,0.2-4.8-1-5-4.5c-1.5-22.1-3.1-44.1-4.7-66.1c-0.2-2.1,0.1-3,2.3-3.5
		c36.1-8.3,72.2-16.7,108.3-25C546.6,591.9,547.1,591.9,548.2,591.8z"/>
	<path class="st43" d="M472.1,744c-0.3,0.3-0.7,0.6-1,1C471.4,744.6,471.7,744.3,472.1,744z"/>
</g>
</svg>
