<?xml version="1.0" encoding="utf-8"?>
<!-- Generator: Adobe Illustrator 25.0.0, SVG Export Plug-In . SVG Version: 6.00 Build 0)  -->
<svg version="1.1" id="图层_1" xmlns="http://www.w3.org/2000/svg" xmlns:xlink="http://www.w3.org/1999/xlink" x="0px" y="0px"
	 viewBox="0 0 1200 1600" style="enable-background:new 0 0 1200 1600;" xml:space="preserve">
<style type="text/css">
	.st0{fill:#060604;}
	.st1{fill:#EDCF5D;}
	.st2{fill:#FBF1EE;}
	.st3{fill:#ECCF5D;}
	.st4{fill:#F4FB95;}
	.st5{fill:#A0918B;}
	.st6{fill:#FBFBFB;}
	.st7{fill:#927233;}
	.st8{fill:#935A40;}
	.st9{fill:#623C2A;}
	.st10{fill:#FEFEFE;}
	.st11{fill:#040302;}
	.st12{fill:#090805;}
	.st13{fill:#9C5B46;}
	.st14{fill:#070705;}
	.st15{fill:#ECCE5D;}
	.st16{fill:#F2F2F2;}
	.st17{fill:#93583F;}
	.st18{fill:#A1918B;}
	.st19{fill:#513123;}
	.st20{fill:#FAFAFA;}
	.st21{fill:#030202;}
	.st22{fill:#060605;}
	.st23{fill:#A0908A;}
	.st24{fill:#937234;}
	.st25{fill:#E6C95B;}
	.st26{fill:#864E37;}
	.st27{fill:#513124;}
	.st28{fill:#B0603E;}
	.st29{fill:#FAF0ED;}
	.st30{fill:#F9F9F9;}
	.st31{fill:#917133;}
	.st32{fill:#9E8F89;}
	.st33{fill:#E7CA5B;}
	.st34{fill:#92583F;}
	.st35{fill:#050503;}
	.st36{fill:#FCFBFB;}
	.st37{fill:#080704;}
	.st38{fill:#070605;}
	.st39{fill:#FAF1ED;}
	.st40{fill:#F4FA95;}
	.st41{fill:#F8F8F7;}
	.st42{fill:#90573E;}
	.st43{fill:#030302;}
	.st44{fill:#080805;}
	.st45{fill:#FBF1ED;}
	.st46{fill:#FBFBFA;}
	.st47{fill:#927234;}
	.st48{fill:#F69376;}
	.st49{fill:#7B2D2D;}
	.st50{fill:#FCFCFC;}
	.st51{fill:#EF5A2D;}
	.st52{fill:#F0CC2D;}
	.st53{fill:#9F8F8A;}
	.st54{fill:#FAFAF9;}
	.st55{fill:#F2A78E;}
	.st56{fill:#040403;}
	.st57{fill:#070604;}
	.st58{fill:#A0908B;}
	.st59{fill:#F7F7F7;}
	.st60{fill:#E8CB5B;}
	.st61{fill:#8F563E;}
	.st62{fill:#513224;}
	.st63{fill:#080705;}
	.st64{fill:#FCFCFB;}
	.st65{fill:#F9F8F8;}
	.st66{fill:#FAF0EC;}
	.st67{fill:#9F908A;}
	.st68{fill:#91573E;}
	.st69{fill:#070704;}
	.st70{fill:#F5FC96;}
	.st71{fill:#9C9C53;}
	.st72{fill:#9A9A52;}
	.st73{fill:#F2F994;}
	.st74{fill:#A17628;}
	.st75{fill:#90573F;}
	.st76{fill:#090806;}
	.st77{fill:#523123;}
	.st78{fill:#7C4031;}
	.st79{fill:#ED866D;}
	.st80{fill:#F3E9E6;}
	.st81{fill:#4F3023;}
	.st82{fill:#060606;}
	.st83{fill:#89533B;}
	.st84{fill:#050403;}
	.st85{fill:#090909;}
	.st86{fill:#EDCF5E;}
	.st87{fill:#050504;}
	.st88{fill:#060504;}
	.st89{fill:#955A41;}
	.st90{fill:#080703;}
	.st91{fill:#090807;}
	.st92{fill:#070603;}
	.st93{fill:#0A0905;}
	.st94{fill:#937335;}
	.st95{fill:#955A40;}
	.st96{fill:#955940;}
	.st97{fill:#EDD05E;}
	.st98{fill:#8F7032;}
	.st99{fill:#945940;}
	.st100{fill:#EED05E;}
	.st101{fill:#503123;}
	.st102{fill:#EEEEEE;}
	.st103{fill:#0D0C0A;}
	.st104{fill:#E3C659;}
	.st105{fill:#967535;}
	.st106{fill:#9D7D38;}
	.st107{fill:#745A29;}
	.st108{fill:#847334;}
	.st109{fill:#907134;}
	.st110{fill:#E5C85B;}
	.st111{fill:#503124;}
	.st112{fill:#927133;}
	.st113{fill:#E0DDD4;}
	.st114{fill:#987836;}
	.st115{fill:#977636;}
	.st116{fill:#CCC4A4;}
	.st117{fill:#523224;}
	.st118{fill:#0B0908;}
	.st119{fill:#8F7135;}
	.st120{fill:#050404;}
	.st121{fill:#EDD05D;}
	.st122{fill:#F3FA94;}
	.st123{fill:#9A9A51;}
	.st124{fill:#999951;}
	.st125{fill:#937334;}
	.st126{fill:#FAF0EE;}
	.st127{fill:#F3FA95;}
	.st128{fill:#989851;}
	.st129{fill:#A2792A;}
	.st130{fill:#F1F893;}
	.st131{fill:#A17729;}
	.st132{fill:#050502;}
	.st133{fill:#947335;}
	.st134{fill:#917233;}
	.st135{fill:#9B9B52;}
	.st136{fill:#F9EFEC;}
	.st137{fill:#9A782F;}
	.st138{fill:#979752;}
	.st139{fill:#F2F893;}
	.st140{fill:#8C8E4F;}
	.st141{fill:#B5B96E;}
	.st142{fill:#0F0F09;}
	.st143{fill:#9C9C52;}
	.st144{fill:#F5FB95;}
	.st145{fill:#F3F994;}
	.st146{fill:#A17728;}
	.st147{fill:#917134;}
	.st148{fill:#090706;}
	.st149{fill:#8E6F32;}
	.st150{fill:#93593F;}
	.st151{fill:#907033;}
	.st152{fill:#060505;}
	.st153{fill:#C8C3AF;}
	.st154{fill:#533324;}
	.st155{fill:#533426;}
	.st156{fill:#0E0C0A;}
	.st157{fill:#907133;}
	.st158{fill:#583627;}
	.st159{fill:#0A0907;}
	.st160{fill:#573526;}
	.st161{fill:#0C0B09;}
	.st162{fill:#503023;}
	.st163{fill:#543325;}
	.st164{fill:#B7B3A1;}
</style>
<g>
	<path class="st14" d="M752.5,767.2c3,0.1,5.4-0.4,7.9,0.1c7.9,1.6,10.1,13.1,7.8,20.1c-5.3,16.4-13.2,31.6-22.6,46
		c-28.8,43.8-67.8,76.1-113.7,100.5c-43.2,23.1-89.3,37.4-138.1,41.8c-52.3,4.8-103.1-1.1-150.7-24.8c-17.9-8.9-33.6-20.6-47.8-34.9
		c-6.5-6.6-12.1-13.1-14-22.2c-0.4-2-2.1-2-3.3-2.5c-9-4.4-16.8-10.3-21.8-19.1c-5.4-9.4-4.4-15.6,4-22.4c3.3-2.7,2.7-3.8-0.2-5.9
		c-4.1-3-7.2-6.9-8.9-11.8c-2.8-7.5-1.5-12.9,4.8-17.8c8.7-6.7,17.7-13,28.8-15.3c1.9-0.4,2.5-1.2,2.2-3c-1.3-9-2.6-18.1-4.6-27
		c-0.5-2.3-1.4-2.3-3.4-2.2c-10.3,0.7-20.5-7.6-22.6-18c-0.3-1.4-0.4-2.9,1.1-3.4c1.6-0.6,2.3,0.7,2.9,1.9c1.4,2.7,3,5.2,5.1,7.3
		c2.3,2.2,4.9,4,8.2,4.5c4.6,0.7,5.7-0.6,4.2-4.9c-0.3-0.9-0.8-1.8-1.4-2.6c-17.8-23.8-27.6-51.5-37.3-79.1
		c-13.4-38.2-21-77.6-25.3-117.8c-3.8-36-6.8-72-5.7-108.2c2.3-74.2,18.9-144.9,54.1-210.8c9.8-18.2,22.3-34.3,38.1-47.8
		c9.8-8.3,20.8-14.4,33.7-16.4c9.9-1.6,18.9,0.8,26.6,7.1c10.3,8.4,16.5,19.4,20.5,31.9c6.5,20.2,9.3,41.2,11.9,62.2
		c6.5,53.4,14.7,106.4,25.3,159.2c7.6,38.2,21.1,74.1,38.2,108.9c1.6,3.3,3.5,4.2,6.9,3.8c17.2-1.8,34.3-1.2,51.2,2
		c4.1,0.8,3.8-1.9,4.3-4.1c7.3-31.4,15-62.7,26.1-93.1c22.2-60.9,47.4-120.4,83.2-174.8c20.7-31.5,42.5-62.2,70.4-87.9
		c11.9-11,24.5-21.2,39.6-27.4c16.4-6.8,30-3.4,41.8,10c6.3,7.1,10.4,15.4,13.1,24.5c3.7,12.5,5.2,25.4,6.1,38.4
		c2.7,38.8,0,77.6-1.8,116.3c-1.8,39.1-5.5,78-8.3,117c-2.5,35.2-4.2,70.5-8.1,105.5c-5.2,46.6-17.8,91-44.4,130.5
		c-4.8,7.2-10.2,14-16,20.4c-0.7,0.8-2.1,1.6-1.1,2.8c0.7,0.9,1.9,0.1,2.8-0.2c4.3-1.6,8.7-3.3,13-5.1c4.6-1.9,9.3-3.4,14.3-4.1
		c9.1-1.2,16.1,4.3,16.6,13.5c0.8,11.6-3.2,21.9-9.3,31.5C755.6,762.7,754.2,764.7,752.5,767.2z M382.8,843
		c-3.5,4.2-1.3,8.1,0.8,11.9c1.4,2.6,3.4,3.4,6.5,1.8c6.4-3.4,11.6-8.2,16.1-13.7c1.7-2.1,4.1-4.7,1.9-8
		C401,829.5,387.3,833.8,382.8,843z M327.2,752c8-1.2,14.3,2,19.6,7.6c3.4,3.7,6.2,7.9,8.1,12.5c5.6,13.4,7.2,27.3,4.9,41.5
		c-1.6,9.8-4.9,19-12.2,26.2c-10,9.8-21.8,9.6-31.7-0.2c-3.2-3.2-5.7-6.9-7.7-11c-4.1-8.3-6.2-17.1-6.4-26.4c0-1.4,0.3-3.9-2-3.9
		c-2,0-3.8,1.4-3.8,3.9c0,0.8-0.1,1.7-0.1,2.5c0.5,15.8,4.6,30.8,16.1,41.9c16.6,16,33.7,16,46.8-3.9c6.8-10.3,9-21.9,10.6-33.9
		c2.8-20.7-1.2-39.7-15-55.5c-13.1-15-30-15.4-42.9-1.4c-5.5,6-9.1,13-12.2,20.5c-1.6,3.9-0.4,6.3,3.3,8.1
		c2.6-9.7,6.3-18.7,14.7-24.7c1.6,2.4,3.1,5.4,6.8,3.8C327.6,758.2,328.3,755.4,327.2,752z M305.7,483.9c0-12.9,2.8-25.3,7.3-37.3
		c4.4-11.8,11.3-22.1,18-32.5c6.4-5.6,8.8-12.4,8-21.1c-1-10.6-0.9-21.3-0.8-31.9c0.1-21.8,0-43.5-3.3-65.1
		c-1.4-9.5-2.9-19.1-6.1-28.2c-2.6-7.4-8.1-9.7-15.5-6.8c-3.3,1.3-6,3.4-8.4,6c-12.1,11.4-20.2,25.5-26.7,40.4
		c-23.2,53.8-34.3,110.3-36,168.7c-0.8,29.9,0,59.8,3.6,89.6c3.3,27.3,7.4,54.5,15.3,80.9c5,16.6,9.8,33.3,18.9,48.3
		c0.9,2.1,1.7,4.2,4,6.1c2.5-7.3,5.1-14.2,8.9-20.5c2.1-3.6,0.8-4.7-2.8-4.5c-2.8-1.9-3.4-4.5-3.2-7.8c0.6-7.1-0.1-14.2-0.5-21.4
		c-0.8-14.7-2.3-29.4-2.3-44.2c0-4,1.3-6.6,5.7-7.1c9-1.1,18.1-2.4,27.1-3.6c1-0.1,2-0.3,2.9-0.3c3.2-0.3,5.1-0.8,4.2-5.2
		c-1.2-5.9-0.2-12,2.4-17.5c1.2-2.4,1.6-3.8-1.8-4.8c-8-2.5-11.4-8.5-11.9-16.6c-0.5-8.2,0.6-16.2,3.3-24c2.6-7.6,6.4-14.8,10-22.1
		c-11-1.2-16.6-5.4-19.1-14.3C306.8,485.9,306.8,484.7,305.7,483.9z M278.4,701c-0.2-0.6-0.3-1.3-0.7-1.9
		c-12.5-20.4-18.9-43-24.5-65.9c-8.2-33.6-12.7-67.8-14.4-102.3c-1.6-34.8-1.6-69.6,2.4-104.2c3.4-29.4,10.1-58.2,19-86.4
		c7.5-23.8,16.5-47.1,31.8-67.2c4.7-6.3,9.9-12.1,16.8-16.2c10.6-6.3,21-3,25.7,8.4c1.1,2.6,1.9,5.3,2.6,8.1
		c7.1,29.2,8.1,58.9,7.4,88.8c-0.3,11.9,0,23.7,0,36c2-1.8,3.5-3.3,5.3-4.6c1.1-0.8,2.4-2.4,3.9-0.8c1.2,1.3-0.2,2.5-1,3.4
		c-3.2,3.9-6.4,7.6-9.6,11.5c-15.9,19.3-28,40.4-31.4,65.7c-0.7,5.4-0.5,10.7,2.1,15.5c4.4,8,14.6,8.5,19.7,1.1
		c4.7-6.9,10.3-13.1,15.6-19.4c2.5-2.9,5-5.8,7.7-8.6c1.4-1.4,2.8-4.4,5.1-2.4c1.9,1.7-0.6,3.5-1.7,5c-1.2,1.6-2.4,3.2-3.7,4.7
		c-11.7,14.3-23.7,28.4-30.7,45.8c-4.5,11.1-9,22.2-6.7,34.7c0.9,5.3,4.1,8.1,9,9.5c2,0.6,3.4,0.4,4.6-1.5c2.7-4.4,6.4-8.1,9.8-11.9
		c1.1-1.2,2.2-3.8,4.2-2.2c1.7,1.3,0.3,3.4-0.7,4.9c-3.5,5.7-7.2,11.2-10.4,17c-3.8,6.9-7,14-5.7,22.2c0.3,2,1.1,2.5,2.9,2.1
		c5.7-1,11.5-2,17.2-3c4.8-0.9,10.1,0.2,14.1-3.6c7.9-7.3,16.9-12.9,26.3-17.9c16.4-8.8,33.9-14.6,52.1-18c3.4-0.6,3.7-1.6,2.2-4.4
		c-2.8-5.3-5.3-10.7-8-16.1c-0.5-1.4-0.9-2.8-1.5-4.2c-12.8-28-21.8-57-28-87.2c-10.9-52.8-19-106.1-25.4-159.6
		c-2.5-21-5.3-41.9-11.9-62.2c-2.9-9-7.3-17.1-14.1-23.8c-6.8-6.7-14.8-8.6-23.9-6.1c-9.5,2.6-17.7,7.5-25.1,13.9
		c-15,13.1-26.7,28.7-35.9,46.3c-36.2,69.4-52.1,143.5-51.5,221.4c0.3,34.1,3.3,68.1,7.4,102.1c6.5,53.3,21.3,104.2,42.1,153.5
		c2.5,6.1,5.3,12,9.5,17.2c0.1-9.3,0.8-18.4,2.9-27.3C282.4,706.6,281.7,703.6,278.4,701z M744.9,724.1c-11.1,3.1-21.8,7.4-33.2,9.2
		c-1.7,0.3-3.2,0.8-4.6-0.6c-1.1-7.8,4-12.6,8.4-17.7c17-19.6,29.8-41.6,38.6-66c10.7-29.6,17.7-59.9,19.9-91.4
		c1.5-21.2,3.2-42.5,4.7-63.7c1.5-21.2,2.6-42.5,4.5-63.7c2.3-26.4,4-52.8,5.4-79.2c1.3-24.4,1.7-48.9,2.4-73.4
		c0.7-23.5,0-46.9-4.1-70.2c-2.3-12.7-6.2-24.5-15.5-34c-8.2-8.3-17.8-10.6-28.8-6.3c-5.3,2.1-10.3,4.7-15.1,7.7
		c-13.1,8.5-24.6,18.8-35.2,30.1c-27,29-50.1,61.1-70,95.2c-39.7,67.8-69.5,140-89.2,216.1c-3.2,12.2-7.7,24.1-8.4,36.8
		c-0.1,2.2-1.5,3.8-3.8,3.9c-2.3,0.1-4.7,0.2-7-0.1c-20.4-3-40.7-3.6-61.2-0.8c-25.6,3.5-50.2,10.2-72.3,24.1
		c-1.4,0.9-3.3,1.4-3.9,3.6c1.8,0,3.3-0.1,4.8,0c7,0.4,8.5,2.1,8.1,9c-0.2,4-0.6,8-0.8,11.9c-0.8,13.9-1.6,27.9-2.5,41.8
		c-0.4,6.1-0.9,12.3-1.4,18.4c-0.4,4.4-2.7,6.6-7.3,7.2c-23,3.3-46.1,2.7-69.2,3.7c-5.1,0.2-7.8,1.4-8.3,6.5
		c-8.2,18.5-11.4,37.9-11.2,59.2c1.9-2.3,2.9-3.5,3.9-4.8c22.3-28.7,58.2-29.7,81.9-2.3c14.4,16.7,20.6,36.6,21.8,58.3
		c0.6,9.9-0.4,19.8-2,29.9c6.5-2.3,12.4-4.7,18.4-6.5c6.3-1.9,12.6-4.3,19.5-3.1c0.7,4.3-3.1,3.9-5.2,4.5c-8.6,2.3-17,5.3-25.8,8.9
		c6.5,1.4,12.5,2.6,13.5,10.2c-3.4,9.9-10.5,16.5-19,22.1c-4.5,2.9-9,4.9-14.5,0.7c0.4,4.7,1.7,8.2,4.1,11.4
		c2.3,5.7,6,10.7,9.5,15.7c0.6,0.8,1.3,1.7,0.3,2.6c-1,1-1.9,0.1-2.6-0.5c-1.1-0.8-2-1.7-2.9-2.7c-5.7-6.5-10.8-13.4-14.2-23.2
		c-1.4,2-2.2,3.6-3.3,4.8c-19.6,20.8-50,26.2-75.1,2.8c-0.7-0.7-1.3-1.8-2.4-1.5c-1.5,0.4-1,1.9-1.1,3c-0.6,8-1.7,15.9-0.3,23.9
		c0.4,2.5,1.2,4.3,3,6.1c17.4,17.5,37,32,59.5,42.3c45.2,20.8,92.8,25.5,141.6,20.4c57.8-6.1,111-25.5,159.2-58
		c22.6-15.2,43.6-32.3,60.5-54c0.5-0.3,1.2-0.5,1.6-0.9c13.8-16.3,25.6-33.9,34.7-53.2c2.4-5.1,4.8-10.2,6.3-15.7
		c1.4-5.2-0.5-7.4-5.7-6.4c-2.6,0.5-5.1,1.4-7.6,2.2c-10.8,3.7-21.5,7.3-32.6,10.1c-3,0.8-6,1.8-9.2,1.6c-1.1-0.1-2.5,0.1-3-1.3
		c-0.6-1.5,0.5-2.4,1.6-3.2c11.7-2.6,22.7-6.9,33.4-12.2c0.6-0.3,1.2-0.7,1.5-1.2c5.7-8.8,12.6-16.7,16.5-26.6
		c1.8-4.7,3.1-9.5,3.2-14.5c0.2-5.9-2.8-8.6-8.6-7.8C747.5,723.5,746.2,723.9,744.9,724.1z M301.9,668.9c4.1-0.3,8.3-0.7,12.4-0.8
		c17.3-0.8,34.6-1.5,51.8-2.3c11.6-0.5,12.1-1.2,12.8-11.9c1.2-19.7,2.5-39.4,4-59.1c0.2-3.1-0.6-4-3.7-3.9
		c-6.7,0.2-13.2,0.8-19.8,1.8c-20.9,3-41.8,5.8-62.7,8.6c-6.5,0.9-6.8,1.3-6.3,8.6c1.3,17.1,2.5,34.1,3.5,51.2
		C294.4,668.8,294.1,668.8,301.9,668.9z M295.1,829.8c0,10.3,0,19.1,0,27.8c0,1.8,1,3.1,2,4.4c20.2,25.8,58.2,21.6,75.8-5
		c0.5-0.8,1-1.8,1-2.7c0.8-9.3,3.5-17.8,10.1-24.8c0.7-0.8,1-2,1.4-3.1c4.7-13.8,5.6-28,3.5-42.3c-2.8-18.9-9.6-36-23.9-49.3
		c-12.3-11.3-26.7-15.6-42.9-10.5c-12,3.8-21,11.8-28.3,22c-3.8,5.3-5.9,10.6-4.9,17.5c1.5,10.2,1.9,20.6,3.7,31.1
		c2.7-1.2,4.9-2.5,7.2-3.3c3.2-1.2,2.8-2.6,0.6-4.4c-1.3-1.1-2.5-2.2-3.6-3.4c-2.7-3.1-4.7-6.6-3.4-10.9
		c3.3-10.6,7.9-20.6,16.3-28.2c4.1-3.7,8.6-6.7,14.2-8c16.6-3.9,28.7,3.6,38.1,16c14.6,19.3,16.7,41.6,13.4,64.6
		c-2.1,14.9-7.8,28.3-19.5,38.4c-12,10.3-27.1,11-40.1,2c-8-5.6-13.5-13.2-17.7-21.9C297.2,834.2,296.5,832.6,295.1,829.8z
		 M280.7,884.3c1.1-11.7,3-22.5,5-33.2c2.5-13.3,1.2-26.9,1.2-40.4c0-2.8-0.8-3.1-3.2-2.1c-7.6,3.3-14.1,8.1-20.7,12.9
		c-3.9,2.9-4.1,6-2.2,10c2.3,4.9,6.5,7.9,10.8,10.8c5,3.4,5,7.6,0.2,11.3c-1.2,0.9-2.5,1.6-3.7,2.5c-6.1,4.4-6.6,6.7-2.9,13.3
		C268.7,875.7,274.6,879.6,280.7,884.3z M322.6,831.7c-0.5-2.5-1-4.7-3.9-4.5c-1.7,0.1-2.7,1.4-2.5,3.1c0.3,2.4,1.8,3.9,4.3,3.9
		C322.2,834.1,322.7,832.9,322.6,831.7z M327.3,825.2c-1.1,0.1-1.8,0.8-2,1.9c-0.2,1.2,0.6,1.8,1.7,2c1.2,0.1,1.9-0.5,1.9-1.7
		C329,826.2,328.6,825.4,327.3,825.2z"/>
	<path class="st1" d="M431.9,813.2c-6.8-1.2-13.2,1.2-19.5,3.1c-6,1.8-11.8,4.2-18.4,6.5c1.6-10.1,2.5-20,2-29.9
		c-1.2-21.7-7.4-41.6-21.8-58.3c-23.7-27.5-59.6-26.4-81.9,2.3c-1,1.3-2,2.5-3.9,4.8c-0.2-21.4,3-40.7,11.2-59.2
		c1.6,0.2,3.3,0.6,4.9,0.5c10.6-0.2,21.2,0.3,31.9-0.8c14.8-1.6,29.8-2.3,44.7-3.3c4.8-0.3,7.8-2.5,8.4-7.4c0.4-3.3,0.6-6.6,0.7-9.9
		c0.6-16.9,1.2-33.9,1.7-50.8c0.1-2.6-1-4.9-3.6-6c0.3-4,0.6-8,0.8-11.9c0.4-6.9-1.1-8.6-8.1-9c-1.5-0.1-3,0-4.8,0
		c0.7-2.1,2.5-2.7,3.9-3.6c22.2-13.9,46.7-20.6,72.3-24.1c20.4-2.8,40.8-2.2,61.2,0.8c2.3,0.3,4.7,0.2,7,0.1
		c2.3-0.1,3.7-1.6,3.8-3.9c0.7-12.8,5.2-24.7,8.4-36.8c19.8-76.1,49.5-148.3,89.2-216.1c20-34.1,43-66.2,70-95.2
		c10.6-11.4,22.1-21.7,35.2-30.1c4.8-3.1,9.8-5.6,15.1-7.7c11-4.4,20.6-2.1,28.8,6.3c9.3,9.4,13.2,21.3,15.5,34
		c4.2,23.2,4.8,46.7,4.1,70.2c-0.7,24.5-1,49-2.4,73.4c-1.4,26.4-3.1,52.8-5.4,79.2c-1.9,21.2-3,42.5-4.5,63.7
		c-1.5,21.2-3.2,42.5-4.7,63.7c-2.2,31.4-9.3,61.8-19.9,91.4c-8.8,24.4-21.5,46.4-38.6,66c-4.4,5.1-9.5,9.9-8.4,17.7
		c-5.6,0.9-10.2,3.7-14.3,7.7c-5.4,5.3-9.8,11.3-13.9,17.6c-15,22.9-31.2,44.8-52.3,62.7c-10.9,9.3-20,19.9-27,32.5
		c-0.3-0.1-0.6-0.3-0.9-0.4c0.1-0.6,0.2-1.3,0.4-1.9c6.9-20.9,11.2-42.2,8.8-64.4c-0.6-5.8-1.5-11.5-2.3-17.2
		c14.2,3,20.6-2.5,28.4-16.8c0.7-1.3,1.4-3.1-0.4-3.9c-2-0.9-2.3,1.3-3,2.4c-3.4,4.9-7.8,8.6-13.6,10.4c-5.6,1.7-9.1-0.1-11.3-5.4
		c-3.7-9-8.7-17.2-15.1-24.5c-24.4-28-61.1-29.5-87.5-3.4c-19.7,19.5-27.8,44-29.3,71.1c-0.7,12.5,1.1,24.8,3.9,37
		c-4.3-1.9-7.7-5.1-11.3-8C456.4,819.8,446.2,811.7,431.9,813.2z M601.4,590.8c-0.1-1-0.1-2-0.2-3c-0.1-8.1-0.1-8.3-8-8
		c-9.3,0.4-18.6,1.3-27.9,1.9c-22.4,1.6-44.8,3.2-67.2,5c-7.2,0.6-8.2,1.3-8.3,8.7c-0.4,23.3,0.8,46.6,1.5,69.9
		c0.1,2.8,1.2,4.8,4.4,5c0.5,5.9,1.7,7.2,7.5,7.6c1,0.1,2,0,3,0c21.4,0.2,42.8-1.8,64.2-3.1c10.9-0.7,21.9-0.7,32.7-2.6
		c6.1-1,8.4-3.4,8.7-9.5c1.2-20.9,1-41.8-0.8-62.7C610.5,593.3,608.6,591.4,601.4,590.8z M707.7,691.2c-0.6,1.5-1.6,3.3,0.4,4.4
		c2,1.1,2.9-0.8,3.9-2.1c0.5-0.7,0.8-1.5,1.2-2.2c8.9-15.7,15.6-32.3,19.8-49.8c6.1-25.5,11.6-51.1,15.3-77.1
		c3.2-22.2,7.2-44.3,9.8-66.5c2.7-23.6,5.1-47.3,8.3-70.8c4.2-30.3,6.1-60.8,8.6-91.3c1-12.9,0.9-25.9,1.4-38.9
		c0.7-20.3,1.7-40.6-0.3-60.9c-0.9-9.1-2.9-18.1-7.2-26.3c-6.5-12.5-17.9-15.9-30.2-9c-9.5,5.4-17.9,12.3-25,20.5
		c-17.4,19.8-32.6,41.3-45.3,64.4c-1.6,2.9-3,5.9-4.1,9.1c-1.4,4.3,0,6.3,4.6,6.5c3.5,0.2,6.9,0,10.4,0.7c8.4,1.6,11.7,6.5,10.1,15
		c-1.7,8.6-6,15.8-11.8,22.2c-4.8,5.4-10.5,9.7-16.4,13.9c-1.4,1-3,2-1.7,3.9c1.2,1.8,2.9,1.3,4.4,0.4c2.9-1.9,5.8-3.9,8.7-5.8
		c1-0.7,1.8-1.7,3.5-1c4.5,1.9,7.9,6.6,8,11.7c0.1,6.3-2.1,12.1-4.7,17.6c-11,23.2-28.7,40.2-50.1,53.6c-2,1.3-6.1,2.4-4.3,5.5
		c2,3.4,5.2,0.5,7.3-0.9c6.9-4.8,14.3-7.2,22.8-7c14.8,0.4,24,9.7,23.2,24.5c-0.8,13.8-6.7,25.7-14.7,36.5
		c-21.2,28.7-47.7,50.8-80.6,65c-4.1,1.8-8.2,3.7-12.2,5.6c-1.4,0.7-2.7,1.7-1.8,3.5c0.8,1.5,2.4,1.2,3.6,0.8
		c3.6-1.3,7.3-2.5,10.5-4.4c8.4-4.8,17.1-4.6,26.1-2.8c15.9,3.1,28.8,11.6,40.4,22.4c13.7,12.7,24.4,27.7,32.8,44.3
		c1.2,2.3,2.1,5.2,5.7,4.5c7.2,13.4,11.4,27.8,15.1,42.4C704.6,679.2,703.6,685.9,707.7,691.2z"/>
	<path class="st2" d="M599.7,853.1c6.9-12.5,16-23.2,27-32.5c21.1-17.8,37.3-39.7,52.3-62.7c4.1-6.3,8.5-12.3,13.9-17.6
		c4.1-4,8.6-6.7,14.3-7.7c1.4,1.3,2.8,0.8,4.6,0.6c11.4-1.8,22.2-6,33.2-9.2c0.5,2.2-0.1,4.2-0.6,6.4c-6,23.4-19.5,41-40.2,53.2
		c-0.8,0.4-1.3,1-1.3,2c-1.1,0.8-2.2,1.7-1.6,3.2c0.5,1.3,1.8,1.2,3,1.3c3.2,0.2,6.2-0.8,9.2-1.6c11-2.8,21.8-6.4,32.6-10.1
		c-0.1,1.2,0,2.3-0.2,3.5c-4.3,20.4-11.3,39.7-21.9,57.8c-2.5,4.2-6,7.9-7.2,12.9c-16.9,21.7-37.9,38.8-60.5,54
		c-48.2,32.5-101.5,51.9-159.2,58c-48.8,5.1-96.4,0.4-141.6-20.4c-22.5-10.4-42.1-24.8-59.5-42.3c-1.7-1.7-2.5-3.6-3-6.1
		c-1.4-8-0.3-15.9,0.3-23.9c0.1-1.1-0.3-2.5,1.1-3c1.1-0.3,1.7,0.9,2.4,1.5c25.1,23.5,55.5,18,75.1-2.8c1.1-1.2,1.9-2.7,3.3-4.8
		c3.4,9.7,8.5,16.6,14.2,23.2c0.9,1,1.8,1.9,2.9,2.7c0.7,0.5,1.6,1.5,2.6,0.5c1-1,0.2-1.8-0.3-2.6c-3.5-5-7.2-10-9.5-15.7
		c13.2,0.5,28.6-11.9,31.1-25.3c0.6-3.1,2.1-6.5-1.7-8.8c-1-7.6-7-8.9-13.5-10.2c8.7-3.6,17.1-6.5,25.8-8.9c2.1-0.6,5.9-0.2,5.2-4.5
		c14.3-1.5,24.5,6.6,34.7,14.9c3.6,2.9,7,6.1,11.3,8c3.2,8.9,6.2,17.8,11.4,25.8c11.5,17.9,26.7,30.7,48.5,32.9
		c28,2.9,50.2-15.7,62-36.5C600.8,856.6,600.7,854.8,599.7,853.1z M423.2,940c3.6,0.5,7.9-1.1,12.5-1.1c4.5,0,9-0.3,13.4-1.1
		c5.5-0.9,11.2-1.5,16.2-4.4c8-4.6,10.8-12.8,7.1-21.2c-4.8-11-14.8-17.2-27.2-16.1c-11.1,1-21.9,3.3-31.9,8.5
		c-8.4,4.4-10.1,7.6-8.8,17.1c0.1,1,0.3,2,0.4,3C406,935.3,411.7,940.4,423.2,940z"/>
	<path class="st15" d="M269.1,721c-20.8-49.3-35.6-100.2-42.1-153.5c-4.1-33.9-7.2-67.9-7.4-102.1c-0.6-77.9,15.2-152,51.5-221.4
		c9.2-17.6,20.9-33.2,35.9-46.3c7.4-6.5,15.6-11.4,25.1-13.9c9.1-2.5,17.1-0.6,23.9,6.1c6.8,6.7,11.2,14.8,14.1,23.8
		c6.6,20.2,9.3,41.2,11.9,62.2c6.5,53.5,14.5,106.8,25.4,159.6c6.2,30.2,15.2,59.2,28,87.2c0.6,1.3,1,2.8,1.5,4.2
		c-22.1,7.6-42.7,17.8-60.7,32.8c-9.7,8.1-19.4,16.2-26.2,27.1c-5.7,1-11.5,1.9-17.2,3c-1.8,0.3-2.6-0.1-2.9-2.1
		c-1.3-8.3,1.9-15.4,5.7-22.2c3.2-5.8,6.9-11.3,10.4-17c1-1.6,2.4-3.6,0.7-4.9c-2.1-1.6-3.1,1-4.2,2.2c-3.5,3.8-7.1,7.5-9.8,11.9
		c-1.2,1.9-2.6,2.1-4.6,1.5c-4.9-1.4-8-4.2-9-9.5c-2.2-12.5,2.2-23.5,6.7-34.7c7-17.4,19.1-31.5,30.7-45.8c1.3-1.5,2.5-3.1,3.7-4.7
		c1.1-1.5,3.6-3.3,1.7-5c-2.3-2-3.7,1-5.1,2.4c-2.7,2.7-5.2,5.6-7.7,8.6c-5.4,6.4-10.9,12.5-15.6,19.4c-5.1,7.4-15.3,6.9-19.7-1.1
		c-2.6-4.8-2.8-10.1-2.1-15.5c3.3-25.3,15.5-46.4,31.4-65.7c3.2-3.9,6.4-7.6,9.6-11.5c0.8-1,2.2-2.1,1-3.4c-1.4-1.6-2.8-0.1-3.9,0.8
		c-1.7,1.3-3.2,2.8-5.3,4.6c0-12.3-0.2-24.1,0-36c0.7-29.9-0.3-59.6-7.4-88.8c-0.7-2.7-1.5-5.5-2.6-8.1
		c-4.7-11.3-15.1-14.7-25.7-8.4c-6.9,4.1-12,10-16.8,16.2c-15.3,20.2-24.3,43.4-31.8,67.2c-8.8,28.2-15.5,57-19,86.4
		c-4.1,34.6-4.1,69.4-2.4,104.2c1.6,34.6,6.1,68.7,14.4,102.3c5.6,22.8,12,45.5,24.5,65.9c0.3,0.6,0.5,1.2,0.7,1.9
		c-3.7,4.8-5,10.7-7,16.2C270.9,718.6,271.7,720.9,269.1,721z"/>
	<path class="st2" d="M317,591.9c-9,1.2-18,2.6-27.1,3.6c-4.5,0.5-5.8,3.1-5.7,7.1c0,14.8,1.5,29.5,2.3,44.2
		c0.4,7.1,1.1,14.2,0.5,21.4c-0.3,3.3,0.3,5.9,3.2,7.8c-3.7,6.2-5.8,13.1-10,19c-9.1-15-13.9-31.7-18.9-48.3
		c-7.9-26.4-11.9-53.6-15.3-80.9c-3.6-29.8-4.4-59.7-3.6-89.6c1.6-58.4,12.8-114.9,36-168.7c6.5-15,14.6-29.1,26.7-40.4
		c1.2,0,2.3,0,3.5,0c8.1-0.2,9.6,0.8,12.5,8.5c2.7,7,5,14.1,6,21.5c4.9,34.5,4.7,69.2,3.2,103.9c-0.2,4.4-0.9,8.9,0.7,13.2
		c-6.7,10.4-13.6,20.8-18,32.5c-4.5,12.1-7.3,24.4-7.3,37.3c-0.4,0.3-1.1,0.6-1.1,0.8c0,8.1,1.7,18.6,11.3,22.4
		c3.2,1.3,3.4,2.5,2,5.4c-5.4,11.5-8.6,23.6-8.2,36.6c0.3,7.8,2.1,14.4,8.2,19.4c1.7,1.4,2.5,2.9,1.8,5.2
		C318.1,579.7,317.6,585.8,317,591.9z"/>
	<path class="st4" d="M301.9,668.9c-7.8-0.1-7.5-0.2-7.9-7.9c-1-17.1-2.2-34.2-3.5-51.2c-0.6-7.2-0.3-7.7,6.3-8.6
		c20.9-2.7,41.8-5.6,62.7-8.6c6.6-0.9,13.2-1.6,19.8-1.8c3.1-0.1,3.9,0.8,3.7,3.9c-1.5,19.7-2.8,39.4-4,59.1
		c-0.7,10.7-1.2,11.4-12.8,11.9c-17.3,0.8-34.6,1.5-51.8,2.3C310.1,668.3,306,668.6,301.9,668.9z"/>
	<path class="st16" d="M295.1,829.8c1.4,2.8,2.1,4.4,2.9,6c4.2,8.7,9.7,16.3,17.7,21.9c13,9.1,28,8.4,40.1-2
		c11.7-10.1,17.5-23.5,19.5-38.4c3.2-23,1.2-45.4-13.4-64.6c-9.4-12.4-21.5-19.8-38.1-16c-5.5,1.3-10.1,4.3-14.2,8
		c-8.5,7.6-13,17.6-16.3,28.2c-1.3,4.3,0.7,7.8,3.4,10.9c1.1,1.3,2.3,2.4,3.6,3.4c2.2,1.9,2.6,3.2-0.6,4.4c-2.3,0.8-4.5,2.1-7.2,3.3
		c-1.7-10.5-2.2-20.9-3.7-31.1c-1-6.9,1.1-12.2,4.9-17.5c7.3-10.2,16.2-18.2,28.3-22c16.3-5.1,30.7-0.9,42.9,10.5
		c14.3,13.2,21.1,30.4,23.9,49.3c2.1,14.3,1.2,28.5-3.5,42.3c-0.4,1.1-0.7,2.3-1.4,3.1c-6.6,7-9.4,15.5-10.1,24.8
		c-0.1,0.9-0.5,1.9-1,2.7c-17.6,26.6-55.6,30.8-75.8,5c-1-1.3-2-2.6-2-4.4C295.1,848.8,295.1,840.1,295.1,829.8z"/>
	<path class="st17" d="M317.3,755.7c-8.4,6.1-12.1,15-14.7,24.7c-3.7-1.9-4.9-4.2-3.3-8.1c3.1-7.4,6.7-14.5,12.2-20.5
		c12.9-14,29.8-13.6,42.9,1.4c13.8,15.8,17.8,34.8,15,55.5c-1.6,12-3.8,23.6-10.6,33.9c-13.1,19.9-30.2,19.9-46.8,3.9
		c-11.4-11-15.6-26-16.1-41.9c0-0.8,0.1-1.7,0.1-2.5c0.1-2.5,1.8-3.8,3.8-3.9c2.3,0,2,2.5,2,3.9c0.2,9.3,2.3,18.1,6.4,26.4
		c2,4.1,4.5,7.7,7.7,11c9.9,9.9,21.7,10,31.7,0.2c7.3-7.2,10.6-16.4,12.2-26.2c2.3-14.2,0.7-28.1-4.9-41.5
		c-1.9-4.7-4.7-8.8-8.1-12.5c-5.3-5.7-11.6-8.9-19.6-7.6C321.7,747.4,318.7,748.5,317.3,755.7z"/>
	<path class="st7" d="M349.9,586.9c6.8-10.9,16.5-19.1,26.2-27.1c18-15,38.6-25.3,60.7-32.8c2.6,5.4,5.2,10.8,8,16.1
		c1.5,2.9,1.2,3.8-2.2,4.4c-18.3,3.3-35.7,9.1-52.1,18c-9.4,5-18.5,10.6-26.3,17.9C360,587,354.7,585.9,349.9,586.9z"/>
	<path class="st15" d="M280.7,884.3c-6.1-4.7-12-8.6-15.5-14.9c-3.7-6.7-3.2-9,2.9-13.3c1.2-0.9,2.5-1.6,3.7-2.5
		c4.8-3.7,4.7-7.9-0.2-11.3c-4.3-2.9-8.5-5.9-10.8-10.8c-1.9-4-1.7-7.1,2.2-10c6.6-4.9,13.1-9.7,20.7-12.9c2.4-1,3.2-0.7,3.2,2.1
		c0.1,13.5,1.3,27.1-1.2,40.4C283.7,861.8,281.8,872.6,280.7,884.3z"/>
	<path class="st18" d="M331,414.1c-1.6-4.3-0.9-8.8-0.7-13.2c1.4-34.7,1.7-69.4-3.2-103.9c-1.1-7.4-3.3-14.5-6-21.5
		c-3-7.6-4.5-8.6-12.5-8.5c-1.2,0-2.3,0-3.5,0c2.4-2.6,5.1-4.7,8.4-6c7.4-2.9,12.9-0.6,15.5,6.8c3.2,9.1,4.6,18.6,6.1,28.2
		c3.2,21.6,3.3,43.3,3.3,65.1c0,10.6-0.2,21.3,0.8,31.9C339.8,401.7,337.4,408.5,331,414.1z"/>
	<path class="st7" d="M388.5,604.8c2.6,1.2,3.7,3.4,3.6,6c-0.5,16.9-1.1,33.9-1.7,50.8c-0.1,3.3-0.3,6.6-0.7,9.9
		c-0.6,4.9-3.6,7.1-8.4,7.4c-14.9,1-29.8,1.7-44.7,3.3c-10.6,1.1-21.3,0.6-31.9,0.8c-1.6,0-3.3-0.3-4.9-0.5c0.5-5.1,3.3-6.3,8.3-6.5
		c23.1-1,46.3-0.4,69.2-3.7c4.6-0.7,6.9-2.8,7.3-7.2c0.5-6.1,1.1-12.3,1.4-18.4C386.9,632.7,387.7,618.8,388.5,604.8z"/>
	<path class="st18" d="M702.8,785.7c0-0.9,0.5-1.5,1.3-2c20.8-12.2,34.2-29.9,40.2-53.2c0.5-2.1,1.1-4.2,0.6-6.4
		c1.3-0.3,2.6-0.7,3.9-0.8c5.8-0.8,8.9,1.9,8.6,7.8c-0.2,5-1.4,9.8-3.2,14.5c-3.8,9.9-10.8,17.8-16.5,26.6c-0.3,0.5-1,0.9-1.5,1.2
		C725.5,778.8,714.5,783.1,702.8,785.7z"/>
	<path class="st18" d="M716.7,852.6c1.1-5,4.7-8.6,7.2-12.9c10.5-18,17.6-37.4,21.9-57.8c0.2-1.1,0.2-2.3,0.2-3.5
		c2.5-0.7,5-1.7,7.6-2.2c5.2-1,7.1,1.2,5.7,6.4c-1.5,5.5-3.9,10.6-6.3,15.7c-9.1,19.3-20.9,37-34.7,53.2
		C718,852.1,717.3,852.3,716.7,852.6z"/>
	<path class="st18" d="M317,591.9c0.7-6.1,1.1-12.2,2.9-18.1c0.7-2.2,0-3.8-1.8-5.2c-6.2-5-8-11.6-8.2-19.4c-0.5-13,2.8-25,8.2-36.6
		c1.4-2.9,1.2-4.2-2-5.4c-9.7-3.8-11.4-14.4-11.3-22.4c0-0.3,0.7-0.6,1.1-0.8c1.1,0.8,1,2,1.4,3.1c2.5,8.9,8.1,13.2,19.1,14.3
		c-3.6,7.4-7.4,14.5-10,22.1c-2.7,7.8-3.7,15.8-3.3,24c0.5,8.1,3.9,14.1,11.9,16.6c3.4,1,3,2.4,1.8,4.8c-2.7,5.5-3.6,11.6-2.4,17.5
		c0.9,4.4-1,4.9-4.2,5.2C318.9,591.6,318,591.8,317,591.9z"/>
	<path class="st18" d="M414.4,836.8c3.8,2.3,2.3,5.7,1.7,8.8c-2.6,13.4-17.9,25.8-31.1,25.3c-2.4-3.2-3.8-6.7-4.1-11.4
		c5.5,4.2,10,2.2,14.5-0.7C403.9,853.3,411,846.7,414.4,836.8z"/>
	<path class="st7" d="M269.1,721c2.6-0.1,1.8-2.4,2.3-3.8c2-5.6,3.2-11.4,7-16.2c3.4,2.6,4.1,5.6,3,10c-2.1,8.8-2.7,17.9-2.9,27.3
		C274.4,733,271.6,727.1,269.1,721z"/>
	<path class="st19" d="M408.2,835c2.2,3.3-0.2,5.9-1.9,8c-4.5,5.5-9.7,10.3-16.1,13.7c-3.1,1.7-5.1,0.8-6.5-1.8
		c-2.1-3.7-4.3-7.7-0.8-11.9c2.8,3.8,6.4,4.7,10.6,2.7c1.8-0.8,3.7-1.6,5.2-2.8C401.9,840.3,405,837.6,408.2,835z"/>
	<path class="st17" d="M408.2,835c-3.2,2.6-6.3,5.4-9.5,7.9c-1.6,1.2-3.4,2-5.2,2.8c-4.2,2-7.8,1.1-10.6-2.7
		C387.3,833.8,401,829.5,408.2,835z"/>
	<path class="st7" d="M280.1,695c4.2-5.9,6.3-12.9,10-19c3.6-0.2,4.9,0.9,2.8,4.5c-3.8,6.4-6.4,13.3-8.9,20.5
		C281.8,699.2,281,697.1,280.1,695z"/>
	<path class="st16" d="M317.3,755.7c1.4-7.2,4.4-8.4,9.9-3.8c1.1,3.4,0.3,6.2-3.1,7.6C320.4,761.1,318.9,758.2,317.3,755.7z"/>
	<path class="st17" d="M322.6,831.7c0.1,1.2-0.4,2.4-2,2.4c-2.5,0-4-1.5-4.3-3.9c-0.2-1.7,0.8-2.9,2.5-3.1
		C321.6,827,322.1,829.2,322.6,831.7z"/>
	<path class="st17" d="M327.3,825.2c1.3,0.2,1.7,1,1.7,2.1c0,1.2-0.7,1.9-1.9,1.7c-1.1-0.1-1.9-0.7-1.7-2
		C325.5,826,326.2,825.3,327.3,825.2z"/>
	<path class="st2" d="M707.7,691.2c-4.1-5.3-3.1-12-4.6-18c-3.7-14.6-8-29-15.1-42.4c1.9-2.2,0.9-4.3-0.3-6.4
		c-8.5-15.5-18.5-30-31.1-42.5c-7.2-7.2-15.5-12.9-23.7-18.8c4-3.5,8.3-6.6,11.8-10.4c15.7-16.8,29.4-35.1,39.4-56
		c7.5-15.6,8-31.7,2.8-48c-0.7-2.3-0.8-5.6-4.4-6c-2.3-5.5-6.3-9.6-10.9-13.3c11.1-17.1,18-35.9,22.2-55.7c1.7-8.2,1.9-16.6-3-24.1
		c-1.2-1.8-0.1-2.7,0.9-3.8c7.2-7.9,10.4-17.5,11-27.8c0.5-9.6-2.3-18.2-12.4-20.8c-3.4-0.9-2.3-3.3-2-5.2
		c1.6-11.9,4.2-23.5,8.1-34.9c0.5-1.6,2-3.2,0.5-5c3.8-7.1,9.2-13,14.2-19.2c8.8-10.7,18.8-20.3,30.9-27.3
		c8.5-4.9,15.2-3.1,20.5,5.1c1.4,2.2,2.5,4.7,3.5,7.1c4.1,10.7,5.3,21.9,5.8,33.2c1,22-0.4,43.9-1,65.9c-0.4,16.3-1.6,32.5-3,48.7
		c-2.4,26.3-5.1,52.5-8.6,78.7c-3.2,23.8-4.8,47.9-8.5,71.6c-5.5,36-10.4,72.2-18.6,107.7C726.5,647.3,719.7,670.1,707.7,691.2z"/>
	<path class="st20" d="M605.8,769.2c0.8,5.7,1.7,11.5,2.3,17.2c2.3,22.2-2,43.4-8.8,64.4c-0.2,0.6-0.3,1.3-0.4,1.9
		c-2.3-0.2-3.7,1.1-4.8,2.9c-1.5,2.4-3,4.8-4.7,7.1c-10.3,13.9-23.2,24-40.8,26c-20.1,2.3-35.6-6.7-47.6-22
		c-18-23-23.2-49.6-19.3-78.1c2.4-17.4,8.3-33.6,19.3-47.4c13.8-17.3,31.2-27.5,53.9-23c24,4.8,37.4,22.1,46.1,43.6
		C602.1,764.7,602.5,767.8,605.8,769.2z M579.5,793.1c3-2.4,5.7-4.9,8.6-6.9c3.5-2.4,4.6-5.5,3.8-9.5c-1.7-8.3-4.2-16.3-8.8-23.6
		c-15.7-25.2-43.7-28.5-64.4-7.2c-16.1,16.6-22.3,37.4-22.8,60c-0.4,18.6,3.6,36,15.9,50.6c15.4,18.1,38,19.9,56,4.4
		c13.3-11.4,20.7-26.5,23.9-43.2C595.3,798.9,595.4,801.1,579.5,793.1z"/>
	<path class="st12" d="M671.6,429.4c4.5,3.7,8.6,7.8,10.9,13.3c0.3,3.5,1.7,6.7,1.6,10.3c-0.4,12.8-4.6,24.5-11.4,35.1
		c-16.8,26.1-38.9,46.7-65.4,62.7c-1.3,0.8-3.3,0.9-3.6,3c1.9,0.3,3.6,0.7,5.4,0.9c8.5,1.1,15.9,5.4,23.8,8.4
		c8.2,5.9,16.5,11.6,23.7,18.8c12.6,12.6,22.6,27,31.1,42.5c1.1,2.1,2.1,4.2,0.3,6.4c-3.6,0.7-4.5-2.2-5.7-4.5
		c-8.4-16.6-19.1-31.6-32.8-44.3c-11.6-10.8-24.6-19.2-40.4-22.4c-9-1.8-17.7-2-26.1,2.8c-3.3,1.9-7,3.1-10.5,4.4
		c-1.1,0.4-2.8,0.7-3.6-0.8c-0.9-1.8,0.4-2.8,1.8-3.5c4-1.9,8.1-3.9,12.2-5.6c32.9-14.2,59.5-36.3,80.6-65
		c8-10.8,13.9-22.7,14.7-36.5c0.8-14.8-8.4-24.1-23.2-24.5c-8.5-0.2-15.9,2.2-22.8,7c-2,1.4-5.3,4.3-7.3,0.9
		c-1.7-3.1,2.3-4.2,4.3-5.5c21.4-13.5,39.1-30.5,50.1-53.6c2.6-5.6,4.9-11.3,4.7-17.6c-0.1-5.1-3.5-9.8-8-11.7
		c-1.7-0.7-2.5,0.3-3.5,1c-2.9,1.9-5.7,4-8.7,5.8c-1.5,0.9-3.3,1.4-4.4-0.4c-1.3-2,0.3-2.9,1.7-3.9c5.8-4.2,11.5-8.5,16.4-13.9
		c5.8-6.4,10.1-13.6,11.8-22.2c1.7-8.5-1.6-13.4-10.1-15c-3.5-0.7-7-0.5-10.4-0.7c-4.5-0.3-6-2.2-4.6-6.5c1-3.1,2.5-6.2,4.1-9.1
		c12.7-23.1,27.9-44.6,45.3-64.4c7.2-8.2,15.6-15.1,25-20.5c12.2-6.9,23.6-3.6,30.2,9c4.3,8.2,6.3,17.2,7.2,26.3
		c2,20.3,1.1,40.6,0.3,60.9c-0.5,13-0.4,26-1.4,38.9c-2.4,30.5-4.4,61-8.6,91.3c-3.3,23.5-5.7,47.2-8.3,70.8
		c-2.5,22.3-6.6,44.4-9.8,66.5c-3.7,26-9.2,51.6-15.3,77.1c-4.2,17.5-10.9,34.1-19.8,49.8c-0.4,0.7-0.7,1.5-1.2,2.2
		c-1,1.3-1.9,3.2-3.9,2.1c-2-1.1-1-2.9-0.4-4.4c12.1-21.1,18.8-43.9,24.3-67.5c8.3-35.6,13.1-71.7,18.6-107.7
		c3.7-23.8,5.3-47.8,8.5-71.6c3.6-26.2,6.3-52.4,8.6-78.7c1.5-16.2,2.6-32.5,3-48.7c0.6-22,2-43.9,1-65.9
		c-0.5-11.3-1.7-22.5-5.8-33.2c-1-2.5-2-4.9-3.5-7.1c-5.4-8.2-12.1-10-20.5-5.1c-12.1,7-22.1,16.5-30.9,27.3
		c-5,6.1-10.4,12.1-14.2,19.2c-9.7,11.9-17.7,24.9-24.7,38.5c-2.8,5.5-2.7,5.5,3.4,5.5c15.6,0,22.7,9.4,18.7,24.6
		c-2.5,9.6-7.9,17.4-14.5,24.6c11,8.7,12.6,14.2,8.4,27.9c-4,12.9-11.2,24-19.9,34.2c-5.2,6-10.7,11.6-17.5,17.6
		C658.8,425.4,665.6,425.9,671.6,429.4z"/>
	<path class="st12" d="M605.8,769.2c-3.3-1.4-3.7-4.5-4.9-7.5c-8.7-21.5-22.1-38.8-46.1-43.6c-22.6-4.5-40.1,5.7-53.9,23
		c-11.1,13.9-16.9,30.1-19.3,47.4c-3.9,28.5,1.3,55.1,19.3,78.1c11.9,15.3,27.5,24.3,47.6,22c17.6-2,30.6-12.1,40.8-26
		c1.7-2.3,3.2-4.7,4.7-7.1c1.1-1.8,2.5-3.1,4.8-2.9c0.3,0.1,0.6,0.3,0.9,0.4c1,1.7,1,3.5,0.1,5.2c-11.9,20.8-34,39.4-62,36.5
		c-21.8-2.2-37-15-48.5-32.9c-5.2-8-8.2-16.9-11.4-25.8c-2.7-12.2-4.5-24.5-3.9-37c1.5-27.1,9.5-51.6,29.3-71.1
		c26.4-26.1,63.1-24.6,87.5,3.4c6.4,7.3,11.4,15.5,15.1,24.5c2.2,5.2,5.7,7.1,11.3,5.4c5.8-1.7,10.2-5.5,13.6-10.4
		c0.8-1.1,1-3.3,3-2.4c1.8,0.8,1.2,2.6,0.4,3.9C626.4,766.7,620,772.2,605.8,769.2z"/>
	<path class="st14" d="M495.9,670.3c-3.2-0.1-4.3-2.1-4.4-5c-0.7-23.3-2-46.6-1.5-69.9c0.1-7.4,1.1-8.1,8.3-8.7
		c22.4-1.7,44.8-3.3,67.2-5c9.3-0.7,18.6-1.5,27.9-1.9c7.9-0.4,7.9-0.1,8,8c0,1,0.1,2,0.2,3c1.6,21.8-0.3,43.6,1.5,65.4
		c0.5,5.5-1,6.7-6.6,7c-10,0.7-19.9,1.4-29.8,2.1C543,666.9,519.4,668.6,495.9,670.3z M496.9,627.5c0.5,0,0.9,0,1.4,0
		c0,10.5,0,21,0,31.5c0,1.6-0.8,3.9,2.4,3.6c9.3-0.8,18.6-1.5,27.9-2.2c20.7-1.6,41.5-3.2,62.2-4.5c3.8-0.2,5.1-1,5-5
		c-0.5-20.1-0.9-40.3-1-60.5c0-3.7-1.7-3.5-4.3-3.3c-30.4,2.1-60.8,4.1-91.1,6c-2.7,0.2-2.7,1.2-2.7,3.4
		C497,606.8,496.9,617.2,496.9,627.5z"/>
	<path class="st7" d="M495.9,670.3c23.5-1.7,47.1-3.3,70.6-5c9.9-0.7,19.9-1.4,29.8-2.1c5.5-0.4,7-1.5,6.6-7
		c-1.8-21.8,0.1-43.6-1.5-65.4c7.2,0.6,9.1,2.5,9.7,9.2c1.9,20.9,2,41.8,0.8,62.7c-0.3,6.1-2.7,8.4-8.7,9.5
		c-10.8,1.8-21.8,1.9-32.7,2.6c-21.4,1.3-42.7,3.3-64.2,3.1c-1,0-2,0-3,0C497.6,677.4,496.3,676.2,495.9,670.3z"/>
	<path class="st12" d="M423.2,940c-11.5,0.3-17.2-4.7-18.3-15.4c-0.1-1-0.3-2-0.4-3c-1.4-9.5,0.4-12.7,8.8-17.1
		c10-5.2,20.8-7.5,31.9-8.5c12.3-1.1,22.3,5.1,27.2,16.1c3.7,8.4,0.9,16.7-7.1,21.2c-5,2.9-10.7,3.5-16.2,4.4
		c-4.4,0.7-8.9,1-13.4,1.1C431.2,939,426.8,940.5,423.2,940z M424.2,935.2c3.3-0.3,6.6-0.8,9.9-1c3.5-0.2,7,0,10.5-0.4
		c5.7-0.8,11.6-1.2,16.8-3.9c6.5-3.3,8.6-9.9,5.5-16.4c-4.2-8.7-12.8-13.4-23-12.3c-10.6,1.2-20.8,4-30.4,8.8
		c-1.5,0.8-2.8,1.6-3.5,3.3C405.4,924.5,412.4,935.2,424.2,935.2z"/>
	<path class="st18" d="M632.8,563.1c-7.8-3.1-15.2-7.3-23.8-8.4c-1.8-0.2-3.6-0.6-5.4-0.9c0.3-2,2.3-2.2,3.6-3
		c26.5-16,48.7-36.6,65.4-62.7c6.8-10.6,11.1-22.3,11.4-35.1c0.1-3.6-1.2-6.8-1.6-10.3c3.7,0.4,3.7,3.7,4.4,6
		c5.2,16.3,4.7,32.3-2.8,48c-10,20.9-23.7,39.2-39.4,56C641.1,556.5,636.8,559.6,632.8,563.1z"/>
	<path class="st18" d="M671.6,429.4c-6-3.4-12.8-3.9-20.8-4.3c6.8-6,12.3-11.6,17.5-17.6c8.8-10.2,15.9-21.3,19.9-34.2
		c4.2-13.7,2.6-19.1-8.4-27.9c6.5-7.2,12-15.1,14.5-24.6c3.9-15.2-3.2-24.6-18.7-24.6c-6.1,0-6.2-0.1-3.4-5.5
		c7-13.6,15-26.6,24.7-38.5c1.6,1.8,0.1,3.5-0.5,5c-3.9,11.4-6.5,23-8.1,34.9c-0.3,1.8-1.4,4.3,2,5.2c10.1,2.6,12.9,11.2,12.4,20.8
		c-0.6,10.3-3.8,19.9-11,27.8c-1,1.1-2.1,2-0.9,3.8c4.9,7.5,4.7,15.9,3,24.1C689.7,393.4,682.7,412.3,671.6,429.4z"/>
	<path class="st21" d="M579.5,793.1c15.9,7.9,15.8,5.8,12.3,24.5c-3.2,16.7-10.6,31.8-23.9,43.2c-18,15.5-40.7,13.8-56-4.4
		c-12.4-14.6-16.3-32.1-15.9-50.6c0.5-22.6,6.7-43.4,22.8-60c20.7-21.3,48.7-17.9,64.4,7.2c4.5,7.3,7.1,15.3,8.8,23.6
		c0.8,4-0.3,7.1-3.8,9.5C585.1,788.3,582.5,790.7,579.5,793.1z M525.3,761.4c3.1,3.8,6.6,3.5,10,0.7c3-2.4,2.6-5.8-0.9-9.9
		c17.2-10,31.5-1.2,38.8,11c3.2,5.3,5.5,11,6.6,17.1c0.6,3.3,1.6,3.4,4.1,1.7c2.3-1.5,2.9-2.9,2.1-5.7c-2.6-8.5-6-16.7-11.6-23.6
		c-8.1-10-18.2-16.2-31.7-13.4c-9.9,2-17.5,7.9-23.6,15.7c-10.2,13-15.1,27.9-16.5,44.2c-1.5,17.9,1.4,34.9,11.5,50
		c13,19.6,35.2,21.5,52.1,5.2c9.5-9.2,15.3-20.4,18.6-33c1.3-4.8,2.5-9.6,2.2-14.7c-0.2-2.8-2-4-4.1-4.2c-3-0.3-1.8,2.5-1.9,4
		c-1.8,14.3-6.4,27.5-15.8,38.6c-10.6,12.6-27,14.7-38.6,5c-5.6-4.7-9.1-10.9-11.8-17.7c-4.8-11.9-5.1-24.5-3.6-36.9
		C512.8,783,516.6,771.1,525.3,761.4z M532.2,842c4.6,0.1,5.8-2.2,5.9-5.4c0-2.7-1.3-4.8-4.1-4.5c-3,0.3-6.4,1.6-6.6,5
		C527.2,840.3,529.9,841.9,532.2,842z M541.4,833.8c1.4,0,1.7-0.8,1.7-1.9c0-1.3,0-2.7-1.9-2.8c-1.4-0.1-2.1,0.7-2.1,2.1
		C539.2,832.6,540,833.5,541.4,833.8z"/>
	<path class="st4" d="M496.9,627.5c0-10.3,0.1-20.6-0.1-31c0-2.2,0-3.2,2.7-3.4c30.4-1.9,60.8-4,91.1-6c2.6-0.2,4.3-0.4,4.3,3.3
		c0.1,20.2,0.5,40.3,1,60.5c0.1,4.1-1.2,4.8-5,5c-20.8,1.3-41.5,3-62.2,4.5c-9.3,0.7-18.6,1.4-27.9,2.2c-3.3,0.3-2.4-2-2.4-3.6
		c-0.1-10.5,0-21,0-31.5C497.8,627.5,497.3,627.5,496.9,627.5z"/>
	<path class="st20" d="M424.2,935.2c-11.8,0.1-18.7-10.7-14.1-21.9c0.7-1.7,1.9-2.6,3.5-3.3c9.6-4.8,19.8-7.6,30.4-8.8
		c10.2-1.1,18.8,3.6,23,12.3c3.1,6.5,1,13.1-5.5,16.4c-5.3,2.7-11.1,3.1-16.8,3.9c-3.4,0.5-7,0.2-10.5,0.4
		C430.8,934.4,427.5,934.8,424.2,935.2z"/>
	<path class="st17" d="M525.3,761.4c-8.7,9.7-12.5,21.6-14,34c-1.5,12.4-1.1,24.9,3.6,36.9c2.7,6.7,6.2,13,11.8,17.7
		c11.6,9.7,27.9,7.6,38.6-5c9.5-11.2,14-24.3,15.8-38.6c0.2-1.5-1-4.3,1.9-4c2,0.2,3.9,1.4,4.1,4.2c0.3,5.1-0.9,9.9-2.2,14.7
		c-3.4,12.6-9.2,23.8-18.6,33c-16.9,16.4-39.1,14.4-52.1-5.2c-10-15.1-13-32.1-11.5-50c1.4-16.3,6.3-31.3,16.5-44.2
		c6.1-7.8,13.8-13.7,23.6-15.7c13.5-2.8,23.6,3.4,31.7,13.4c5.6,6.9,8.9,15.1,11.6,23.6c0.9,2.8,0.2,4.2-2.1,5.7
		c-2.6,1.7-3.5,1.7-4.1-1.7c-1.2-6.1-3.4-11.7-6.6-17.1c-7.3-12.1-21.6-21-38.8-11C526.8,751.5,524.3,754.1,525.3,761.4z"/>
	<path class="st16" d="M525.3,761.4c-1.1-7.3,1.5-9.9,9.1-9.2c3.4,4.1,3.9,7.5,0.9,9.9C531.9,764.9,528.4,765.1,525.3,761.4z"/>
	<path class="st17" d="M532.2,842c-2.3-0.2-5-1.7-4.8-4.9c0.2-3.4,3.6-4.7,6.6-5c2.8-0.3,4.1,1.8,4.1,4.5
		C538,839.9,536.8,842.1,532.2,842z"/>
	<path class="st17" d="M541.4,833.8c-1.3-0.3-2.2-1.2-2.2-2.6c0-1.4,0.7-2.1,2.1-2.1c1.8,0.1,1.8,1.5,1.9,2.8
		C543.1,833,542.8,833.8,541.4,833.8z"/>
</g>
</svg>
