<?xml version="1.0" encoding="utf-8"?>
<!-- Generator: Adobe Illustrator 25.0.0, SVG Export Plug-In . SVG Version: 6.00 Build 0)  -->
<svg version="1.1" id="图层_1" xmlns="http://www.w3.org/2000/svg" xmlns:xlink="http://www.w3.org/1999/xlink" x="0px" y="0px"
	 viewBox="0 0 1200 1600" style="enable-background:new 0 0 1200 1600;" xml:space="preserve">
<style type="text/css">
	.st0{fill:#060604;}
	.st1{fill:#EDCF5D;}
	.st2{fill:#FBF1EE;}
	.st3{fill:#ECCF5D;}
	.st4{fill:#F4FB95;}
	.st5{fill:#A0918B;}
	.st6{fill:#FBFBFB;}
	.st7{fill:#927233;}
	.st8{fill:#935A40;}
	.st9{fill:#623C2A;}
	.st10{fill:#FEFEFE;}
	.st11{fill:#040302;}
	.st12{fill:#090805;}
	.st13{fill:#9C5B46;}
	.st14{fill:#070705;}
	.st15{fill:#ECCE5D;}
	.st16{fill:#F2F2F2;}
	.st17{fill:#93583F;}
	.st18{fill:#A1918B;}
	.st19{fill:#513123;}
	.st20{fill:#FAFAFA;}
	.st21{fill:#030202;}
	.st22{fill:#060605;}
	.st23{fill:#A0908A;}
	.st24{fill:#937234;}
	.st25{fill:#E6C95B;}
	.st26{fill:#864E37;}
	.st27{fill:#513124;}
	.st28{fill:#B0603E;}
	.st29{fill:#FAF0ED;}
	.st30{fill:#F9F9F9;}
	.st31{fill:#917133;}
	.st32{fill:#9E8F89;}
	.st33{fill:#E7CA5B;}
	.st34{fill:#92583F;}
	.st35{fill:#050503;}
	.st36{fill:#FCFBFB;}
	.st37{fill:#080704;}
	.st38{fill:#070605;}
	.st39{fill:#FAF1ED;}
	.st40{fill:#F4FA95;}
	.st41{fill:#F8F8F7;}
	.st42{fill:#90573E;}
	.st43{fill:#030302;}
	.st44{fill:#080805;}
	.st45{fill:#FBF1ED;}
	.st46{fill:#FBFBFA;}
	.st47{fill:#927234;}
	.st48{fill:#F69376;}
	.st49{fill:#7B2D2D;}
	.st50{fill:#FCFCFC;}
	.st51{fill:#EF5A2D;}
	.st52{fill:#F0CC2D;}
	.st53{fill:#9F8F8A;}
	.st54{fill:#FAFAF9;}
	.st55{fill:#F2A78E;}
	.st56{fill:#040403;}
	.st57{fill:#070604;}
	.st58{fill:#A0908B;}
	.st59{fill:#F7F7F7;}
	.st60{fill:#E8CB5B;}
	.st61{fill:#8F563E;}
	.st62{fill:#513224;}
	.st63{fill:#080705;}
	.st64{fill:#FCFCFB;}
	.st65{fill:#F9F8F8;}
	.st66{fill:#FAF0EC;}
	.st67{fill:#9F908A;}
	.st68{fill:#91573E;}
	.st69{fill:#070704;}
	.st70{fill:#F5FC96;}
	.st71{fill:#9C9C53;}
	.st72{fill:#9A9A52;}
	.st73{fill:#F2F994;}
	.st74{fill:#A17628;}
	.st75{fill:#90573F;}
	.st76{fill:#090806;}
	.st77{fill:#523123;}
	.st78{fill:#7C4031;}
	.st79{fill:#ED866D;}
	.st80{fill:#F3E9E6;}
	.st81{fill:#4F3023;}
	.st82{fill:#060606;}
	.st83{fill:#89533B;}
	.st84{fill:#050403;}
	.st85{fill:#090909;}
	.st86{fill:#EDCF5E;}
	.st87{fill:#050504;}
	.st88{fill:#060504;}
	.st89{fill:#955A41;}
	.st90{fill:#080703;}
	.st91{fill:#090807;}
	.st92{fill:#070603;}
	.st93{fill:#0A0905;}
	.st94{fill:#937335;}
	.st95{fill:#955A40;}
	.st96{fill:#955940;}
	.st97{fill:#EDD05E;}
	.st98{fill:#8F7032;}
	.st99{fill:#945940;}
	.st100{fill:#EED05E;}
	.st101{fill:#503123;}
	.st102{fill:#EEEEEE;}
	.st103{fill:#0D0C0A;}
	.st104{fill:#E3C659;}
	.st105{fill:#967535;}
	.st106{fill:#9D7D38;}
	.st107{fill:#745A29;}
	.st108{fill:#847334;}
	.st109{fill:#907134;}
	.st110{fill:#E5C85B;}
	.st111{fill:#503124;}
	.st112{fill:#927133;}
	.st113{fill:#E0DDD4;}
	.st114{fill:#987836;}
	.st115{fill:#977636;}
	.st116{fill:#CCC4A4;}
	.st117{fill:#523224;}
	.st118{fill:#0B0908;}
	.st119{fill:#8F7135;}
	.st120{fill:#050404;}
	.st121{fill:#EDD05D;}
	.st122{fill:#F3FA94;}
	.st123{fill:#9A9A51;}
	.st124{fill:#999951;}
	.st125{fill:#937334;}
	.st126{fill:#FAF0EE;}
	.st127{fill:#F3FA95;}
	.st128{fill:#989851;}
	.st129{fill:#A2792A;}
	.st130{fill:#F1F893;}
	.st131{fill:#A17729;}
	.st132{fill:#050502;}
	.st133{fill:#947335;}
	.st134{fill:#917233;}
	.st135{fill:#9B9B52;}
	.st136{fill:#F9EFEC;}
	.st137{fill:#9A782F;}
	.st138{fill:#979752;}
	.st139{fill:#F2F893;}
	.st140{fill:#8C8E4F;}
	.st141{fill:#B5B96E;}
	.st142{fill:#0F0F09;}
	.st143{fill:#9C9C52;}
	.st144{fill:#F5FB95;}
	.st145{fill:#F3F994;}
	.st146{fill:#A17728;}
	.st147{fill:#917134;}
	.st148{fill:#090706;}
	.st149{fill:#8E6F32;}
	.st150{fill:#93593F;}
	.st151{fill:#907033;}
	.st152{fill:#060505;}
	.st153{fill:#C8C3AF;}
	.st154{fill:#533324;}
	.st155{fill:#533426;}
	.st156{fill:#0E0C0A;}
	.st157{fill:#907133;}
	.st158{fill:#583627;}
	.st159{fill:#0A0907;}
	.st160{fill:#573526;}
	.st161{fill:#0C0B09;}
	.st162{fill:#503023;}
	.st163{fill:#543325;}
	.st164{fill:#B7B3A1;}
</style>
<g>
	<path class="st0" d="M722.5,771.6c0.8-0.2,1.6-0.4,2.4-0.6c4.7-0.9,9.5-1.7,12.9,2.8c3.3,4.4,2.2,9.3,0.2,13.8
		c-22.3,50-53.9,92.9-96.9,127c-45.6,36.2-97,59.9-154.7,68.1c-51.3,7.3-100.9,1.3-147.2-23.7c-32-17.4-56.6-42.2-74-74.2
		c-0.2-0.4-0.5-0.9-0.7-1.3c-2.7-9.5-7.9-17.6-14-25.4c-5.9-7.6-5.4-10.4,1.3-17.2c1.8-1.9,1.5-2.8,0.1-4.7
		c-9.9-13.1-8.5-19.1,7-25.2c6.6-2.6,9-5.4,8.7-12.9c-0.3-7.7-1.4-13.5-7-19.8c-14.7-16.4-24.6-36.3-36.3-54.9
		c-18-28.3-28-59.8-36.6-91.9c-12.7-47.5-18.7-95.8-16.2-144.9c2.4-46,10.1-91.2,22.9-135.6c9.9-34.5,21.4-68.3,38.8-99.7
		c13.7-24.7,30.1-47.5,51.6-66.3c6.4-5.6,13.3-10.5,21-14.3c11.7-5.7,22.4-4.4,32.6,3.6c16,12.5,25.5,29,31.7,48
		c6,18.5,8.4,37.7,10.9,56.8c7.2,54.9,11.7,110.3,22.1,164.8c6,31.8,17.4,61.7,32.2,90.4c1,1.9,2.4,3.6,3.6,5.4
		c3.3,5,7.4,6.9,13.9,5.8c8.1-1.4,16.6-1.9,24.9-1.4c4.1,0.3,7.7-0.6,11.4-2.5c15.7-8.3,29.5-19,41.5-32.2
		c19.1-21.1,38.9-41.6,58.7-62.1c36.2-37.4,68.3-78.2,98.6-120.5c26.3-36.7,53.5-72.7,86.3-104.1c16.8-16.1,34.2-31.2,56.1-40.2
		c8.5-3.5,17.2-5.1,26.3-4.4c8.2,0.6,14.6,4.1,19.3,10.9c7.7,11.1,11.6,23.5,12.2,37c1.6,33.7-3.2,66.8-9.3,99.8
		c-14.4,78.3-35.4,154.7-67,227.9c-15.1,35-32.8,68.9-53.3,101c-17.8,27.8-39.7,52.2-66.5,71.9c-2.8,2.1-2.2,4.5-1.2,6.4
		c1.1,2,2.9,3.8,6.1,2.3c5.3-2.4,10.7-4.7,16.2-6.5c9.2-3,15.4,1.4,16.2,11c1,11.2-2,21.4-8.1,30.8c-0.3,0.5-0.6,1-0.9,1.5
		C721.1,772.3,721.8,772,722.5,771.6z M328.5,825.9c-0.7-1-1.5-1.7-2.8-1.9c-6-1-18.8,3.4-20.8,9.8c-1,0.9-0.9,2.1-0.9,3.2
		c0.1,3.3,1.1,6.3,3.9,8.2c3,2,5.4-0.4,7.7-1.7c2.7-1.6,5.4-3.5,7.1-6.1C325.2,833.9,329.3,831.1,328.5,825.9z M305.9,731.9
		c1,2.2,1.6,4.9,4.9,4.6c1.8-0.2,3-1.3,3.3-3.1c0.5-2.8-0.4-5.1-3.1-6.4c-0.4-0.2-0.8-0.5-1.3-0.7c0.9-1.4,1.9-2.7,2.7-4.1
		c0.8-1.4,4-2.2,1.4-4.7c-2.1-2-3.8-1.7-6,0.2c-11.1,9.7-15.4,22.5-16.6,36.6c-0.2,2.1-0.7,4.8,2.4,5c3,0.2,2-2.8,2.3-4.4
		C297.9,746.6,300.3,738.6,305.9,731.9z M306,859.2l-0.2,0.1c0.6,4.6,3.6,8,5.9,11.7c1.1,1.7,2.4,3.5,0.3,5.2
		c-2.2,1.8-3.2-0.6-4.4-1.8c-9-9.2-12.4-20.5-11.6-33.1c0.2-3.4-1-4.7-3.7-6.3c-5.9-3.5-11.9-7.3-13.2-15c2.3-1.1,4.1-0.7,5.6,1.5
		c1.7,2.7,4,4.9,6.5,6.8c5.4,4.2,6.3,4.1,10.3-1.1c0.5-0.7,1-1.4,1.6-1.9c1.7-1.4,2-2.4,0-4.2c-6.7-5.8-11.1-13.2-13.3-21.7
		c-2.4-9.4-5.6-18.8,4-27c6.7-5.7,6.3-6.5-2.5-9.6c-3.1-1.1-4.3-2.7-4.3-6.1c0-7.7,1.4-15.1,4.1-22.3c3.1-8.1,7.8-15.1,14.6-21.5
		c-4.7-1.3-8.4-0.8-11.8,1.2c-10,6.1-16.7,15.5-17.4,26.6c-1.3,20.7-1.5,41.5-0.3,62.3c0,1,0.1,1.9,0.1,2.9c-0.8,4-0.1,7.8,1.3,11.5
		c-3.3-0.5-2.3,2.2-2.3,3.6c-0.2,10-1,20-3.2,29.7c-4.6,20.1,0.9,36.6,13.9,52.1c13.5,16,29.1,29.3,46.8,40
		c44.5,27,93.1,35.3,144.4,30.2c45.8-4.6,88.4-19.1,127.1-43.9c43.3-27.7,78.8-63,103-108.9c6.9-10.4,11.4-21.9,16-33.4
		c1-2.5,1.8-5,2.9-8.1c-4.9,0.9-8.7,2.3-12.4,4.2c-1.7,0.6-3.4,1.2-5.1,1.8c-6.4,2.5-12.8,5.2-19.3,7.6c-2.1,0.7-5.3,2.4-4.9-2.4
		c12.2-3.7,22.1-10.1,27.5-22.3c0.7-1.5,1.8-2.8,2.6-4.2c3.3-5.9,5.1-12.2,5.2-19c0.1-9.4-0.6-10-9.9-7.1
		c-12.9,4.5-26.1,7.8-39.3,11.1c-3.4,0.9-4.5-0.2-3.1-3.5c1.6,0.1,2.6-1,3.9-1.7c14-2.9,14-2.9,11.1-13c0-0.1-0.2-0.2-0.3-0.3
		c-1.3-5.8,1.3-9.6,5.7-13c25.8-20,47.4-44,64.7-71.5c31-49.2,55.4-101.6,74.4-156.5c16.6-47.9,28-97.2,38.7-146.6
		c8.1-37.1,14.7-74.5,13-112.8c-0.5-12.4-3.5-24-10.8-34.2c-2.9-4-6.7-6.2-11.7-6.8c-9.2-1-17.4,2.1-25.4,5.8
		c-19.8,9.3-35.4,24-51,38.9c-29.8,28.6-54.8,61.4-78.7,94.8c-35.5,49.7-73.4,97.3-116.6,140.6c-26,26-50.2,53.9-79,77
		c-6.6,5.3-12.2,8.9-21.5,7.7c-15.9-2.1-31.9,0.5-47.5,4c-36.7,8.3-67.6,26.4-92.8,54.4c-3.6,2.5-4.8,5.8-4.6,10.2
		c0.8,13.8,1.1,27.6,1.2,41.4c0,4.9-1.7,7-6.4,7.4c-7.8,0.7-15.5,1.7-23.3,2.4c-7.9,0.7-16.2,0.4-19.6,9.9
		c-6,9.2-12.1,26.6-11.6,33.1c0.4-0.3,0.9-0.5,1.2-0.8c15-14.8,30.2-13.7,42.7,3.5c9.4,12.9,13.3,27.7,14.5,43.3
		c1.2,14.2-0.4,28.1-3.8,41.9c-0.5,1.2-1.5,2.2-0.9,3.9c3.6-0.8,7.3-1.8,11-2.5c1.7-0.3,4.2-1.4,4.9,0.7c0.8,2.4-2,2.4-3.6,3
		c-1.4,0.5-2.9,0.7-4.3,1.1c-6.7,2-13.1,4.5-19.9,8.7c6.4,0.3,11.4,0.9,13.1,7c-2.1,8.6-7.1,15.2-13.9,20.7
		c-5.2,4.2-10.6,6.6-17.1,2.6c-0.1,4.5-0.1,4.5,1.7,8.8C305.2,858.5,304.9,859.4,306,859.2z M279.1,676.6
		c-8.4,0.9-16.8,1.9-25.2,2.6c-3.2,0.3-6.5,1.8-9.8,0.2c-2.2-3.9-1.2-8.1-1-12.2c0.9-18.7,2.3-37.4,2.9-56.1
		c0.2-4.9,0.8-7.1,6.2-7.3c6.4-0.3,12.8-1.6,19.1-2.5c2.9-0.2,5.8-0.4,9.5-0.6c-6.3-10-7.6-20.7-7.3-31.5
		c0.4-17.8,4.8-34.8,12.4-50.9c1.6-3.4,0.6-4.8-2.3-5.9c-9.5-3.7-12.2-11.3-12.6-20.7c-0.2-4.3,1.6-8.5,0.8-12.8
		c3.9-12.1,8.9-23.8,14.1-35.4c7.1-10.8,13.2-22.3,21.4-32.3c0.4-0.5,0.5-1.2,0.6-1.8c1.7-22.3,4.2-44.7,4.9-67
		c0.7-23.4,1.5-46.9-0.8-70.4c-0.9-8.8-2.5-17.5-6.9-25.3c-3.3-5.9-5.5-6.5-12.1-3.9c-12.3,5.2-20.7,14.9-28.5,25.1
		c-19.9,26.1-33.7,55.4-44.6,86.2c-13.6,38.3-20.7,77.8-22.4,118.2c-1,24.3,1.2,48.5,3.7,72.7c2.8,27.1,8.1,53.7,16.3,79.7
		c6.2,19.6,13.8,38.6,25.5,55.6c6.1,10.3,13.3,19.8,22.3,27.8c1.6,2.5,3.8,4.3,6.5,6.3c0.3-1.3,0.4-2.1,0.6-2.9
		c2.6-11.3,4.6-22.6,10-33.1C284.1,674.7,280.4,676.8,279.1,676.6z M260.1,724.7c1.1,2.6,2.8,4.9,5.1,6.6c1.7,1.3,3.2,1.6,4-1.3
		c1.7-6.5,2.1-12.4-5-16c-25-24.6-40.2-55-51-87.8c-15.3-46.9-20-95.4-20.8-144.3c-0.5-29.5,4.1-58.6,10.8-87.3
		c10.1-43.3,26-84.3,50.8-121.5c7.9-11.8,17-22.7,28.8-30.9c16-11,24.9-7.7,30.5,10.8c4.2,13.7,4.8,27.8,4.9,41.9
		c0.2,23.3,0.1,46.6-1.7,69.9c-0.9,12.5-1.9,24.9-3.2,38.3c3.2-3.6,5.7-6.4,8.3-9.2c1.5-1.6,3.3-4.6,5.6-2.7
		c2.6,2.1-0.3,4.2-1.6,5.8c-8,10.2-15.8,20.6-22.8,31.5c-11.3,17.7-21.6,35.9-25.1,57.1c-0.9,5.3-0.9,10.6,1.4,15.6
		c2,4.4,6.1,5.6,10.2,6c3.1,0.3,3.3-3.3,4.5-5.2c6-9.8,12.8-19.1,20.9-27.3c1.7-1.7,3.7-4.3,6.2-1.7c2.4,2.4-0.3,4.2-1.8,5.8
		c-22,22.7-35.3,49.8-39.6,81c-1.7,12.5-0.9,24.9,5.2,36.5c1.3,2.4,2.5,3.2,5.4,2.8c12.9-1.7,25.8-3.1,38.7-4.4c3-0.3,6.3-1.4,9.1,1
		c1.6,2.9,0.4,6.4,1.7,10.8c0.9-1.6,1.2-2.2,1.6-2.7c11.4-14.3,25.3-25.9,41-35.3c12-7.2,24.6-13.2,38.1-17c2.9-0.8,3.7-1.8,2.2-4.7
		c-2-3.6-3.5-7.4-5.3-11.2c-0.5-1.6-0.9-3.2-1.5-4.7c-10.7-27.2-18.2-55.4-23.7-84.1c-9-46.4-13.8-93.5-19.2-140.5
		c-2.6-22.6-4.8-45.4-10-67.6c-4.6-19.7-11.7-38.2-27.4-52.2c-11.3-10-16.9-10.7-29.9-3c-11.9,7.1-21.4,17-30.4,27.2
		c-24.9,28.5-42.1,61.5-54.8,96.8c-16.9,47-28.6,95.2-34.5,144.9c-4.6,38.3-4.6,76.5,0.7,114.6c8.9,63.7,26.9,124.2,64.6,177.5
		c5,8.2,10,16.4,15.7,25.8c0.7-9.9-0.5-18.3,1-26.5c0.2-1.1,0.2-2.6-1.2-2.9c-5.2-1.2-7.1-5.5-9.6-9.4
		C256.9,729.1,253.4,724.8,260.1,724.7z M250.5,662.1c-0.1,0-0.2,0-0.3,0c0,2.5,0.1,5,0,7.5c-0.1,2.1,0,3.3,2.9,2.9
		c25.7-3,51.5-5.8,77.3-8.5c3.1-0.3,3.8-1.5,3.7-4.3c-0.4-9.8-0.6-19.6-0.9-29.4c-0.2-8.3-0.1-16.6-0.4-24.9
		c-0.1-1.8,0.7-4.4-3.2-3.9c-24.8,2.7-49.5,5.2-74.3,7.6c-2.3,0.2-3,0.8-3.1,3.2C251.6,628.9,251,645.5,250.5,662.1z M260.8,861.4
		c2.8-10.5,4.2-20.3,5.7-30.1c0.3-1.8,0.5-3.6,0.4-5.4c-0.3-3.9,2-10.3-0.4-11.2c-4.2-1.6-8.9,2.3-13.1,4.6
		c-0.3,0.2-0.5,0.4-0.8,0.6c-2.5,1.8-3.4,3.8-1.7,6.8c1.8,3.2,3.5,6.4,6.2,9c2.3,2.2,2.3,3.9,0.1,6.3c-6.4,7.2-6.3,7.2-0.6,14.8
		C257.8,858.1,259.1,859.4,260.8,861.4z M294.2,779.1c-2,1.1-3.3,2.3-2.9,4.7c1.4,9.4,3.3,18.6,8.6,26.7c2.1,3.3,4.6,6,7.9,8.1
		c1.9,1.2,3.3,0.3,4.4-0.9c1.5-1.6-0.5-2.3-1.3-3c-6.7-6-10.5-13.6-12.9-22C296.8,788.2,295.6,783.8,294.2,779.1z M311.1,795.7
		c-0.3-1.3,0.4-3.3-1.8-3.4c-1.6-0.1-2.2,1.1-2.2,2.6c0,1.8,0.9,3.5,2.6,3.7C311.8,798.8,310.9,796.8,311.1,795.7z M278.6,717.2
		l-0.2,0.4l0.3,0L278.6,717.2z"/>
	<path class="st1" d="M343.7,611.8c25.2-28,56.1-46.1,92.8-54.4c15.6-3.5,31.6-6.1,47.5-4c9.4,1.2,15-2.4,21.5-7.7
		c28.8-23.1,53-51,79-77c43.2-43.3,81.1-90.8,116.6-140.6c23.9-33.5,48.9-66.2,78.7-94.8c15.5-14.9,31.2-29.6,51-38.9
		c8.1-3.8,16.2-6.8,25.4-5.8c5,0.5,8.8,2.7,11.7,6.8c7.3,10.3,10.3,21.9,10.8,34.2c1.7,38.3-4.9,75.7-13,112.8
		c-10.7,49.4-22.1,98.7-38.7,146.6c-19.1,54.9-43.4,107.3-74.4,156.5C735.2,673,713.7,697,687.9,717c-4.4,3.4-7,7.3-5.7,13
		c-3.2,1.5-5.1,4.5-7.5,6.8c-1.8,1.7-4.1,3.4-3.3,6.5c-1.2,0.6-2.3,1.8-3.9,1.7c-4.1-0.7-7.9,0.7-11.5,2.4
		c-11.1,5-20.2,12.7-28.8,21.1c-7.1,6.8-14,14.2-23.2,17.7c-18.8,7.1-37.7,13.9-58.5,10.9c-3.3-0.5-5.3-1.3-6.1-4.5
		c0.8-3.4,1.9-7-3.3-7.8c2.4-11,3.8-22.1,2.2-33.4c-0.9-6.2-0.9-12.5-1.3-18.8c1.2,1.1,1.9,2.3,4.4,1.7c10.5-2.1,16.8-8.8,20.9-18.1
		c0.7-1.6,3.1-3.6,0.5-5.1c-2.2-1.3-3.1,1.4-4,2.7c-3.2,4.6-7.7,7-12.7,9.2c-4.8,2.2-5.9,0.6-7.3-4c-5.9-19.4-16.4-35.5-35.7-44.4
		c6.5-2.7,13.3-1.6,20-2c8.3-0.4,10.9-2.2,12.8-10.3c3.8-16.1,5.7-32.6,7-49.1c0.8-9.4-0.4-10.6-9.4-13.5c0.2-3.8,0.3-7.6,0.5-11.5
		c0.2-6.5,0-6.7-6.5-6.8c-16.6,0-33.2,1.4-49.8,2c-19.4,0.7-38.9,1.5-58.3,2.3c-3.8,0.1-5.5,1.8-5.7,5.8c-1,21.1-0.7,42.2-0.8,63.4
		c-0.1,11-2.1,12.4,11,10.9c0.3,0,0.7,0,1,0c0,4.9,3.1,6.3,7.4,6.8c9.9,1.2,19.9,1,29.8,1c1.9,0,4-0.7,5.8,0.7
		c-8.9,3.9-16.4,9.6-22.5,17c-20.1,24.5-25.2,53-21.9,83.5c1.8,16.5,7.8,31.5,16.9,45.3c-16-0.9-30.6-5.4-43.5-15.3
		c-3.5-2.7-7.5-4.9-11.5-7.1c-7.9-4.3-16.2-6.7-25.4-4.5c-9.2,2.1-17.6,6-25.9,10.2c3.5-13.8,5-27.7,3.8-41.9
		c-1.3-15.6-5.2-30.4-14.5-43.3c-12.5-17.1-27.7-18.3-42.7-3.5c-0.3,0.3-0.8,0.5-1.2,0.8c-0.5-6.5,5.6-23.9,11.6-33.1
		c13.1-0.2,26.3,0.3,39.4-1c9.9-1,12-2.6,13.7-12.3c1.8-10.5,2.5-21.1,3-31.7c0.2-5.4-0.1-10.9,0.6-16.3
		C348.2,617.4,347.4,614.2,343.7,611.8z M670,677.9c1,3.8,1.9,7.7,3.1,11.5c1.9,6.7,1.8,13.9,5.4,20.1c0.4,4.8,3.1,3.3,5.5,1.9
		c6.5-3.9,11.7-9.3,16.6-15c17.8-20.9,31.6-44.5,44.2-68.6c39.3-75.2,70.1-153.8,93.1-235.5c9.9-35.2,18.1-70.8,20.2-107.5
		c0.6-10.2,0.6-20.4-3.5-30c-3.7-8.8-11-11.5-19.6-7.5c-5.5,2.5-10,6.5-14.2,10.8c-12.9,13.2-22.9,28.5-32.5,44.1
		c-0.9,1.4-1.8,2.9-2.2,4.4c-0.5,1.7-0.2,3.2,2.4,3.2c13.4,0.5,20.5,10.1,16.5,22.9c-3.9,12.4-13,21.1-22.8,29
		c-10.7,8.6-22.9,14.7-35.8,19.2c-1.6,0.6-4,1.1-3,3.6c0.8,2,2.7,1.2,4.3,0.8c6.8-1.8,13.1-4.6,19.4-7.8c6.5-3.2,8.3-2.8,12.2,3.4
		c1.8,2.9,2.8,6,2.8,9.4c0,9-4.2,16.3-9.3,23.2c-10.6,14.1-24.5,24.4-39.5,33.2c-16.4,9.6-34,16.6-52.3,21.8
		c-1.7,0.5-4.2,0.7-3.5,3.2c0.5,2.1,2.8,1.4,4.3,1.1c6.9-1,13.6-3.1,20.1-5.4c7.6-2.7,15.1-5.8,22.7-8.8c2.9,8.8,0.5,16.7-3.1,24.3
		c-4.8,10.2-12.1,18.7-20.3,26.3c-26,24.2-56.9,39.5-90.7,49.5c-11.2,3.3-22.5,6.1-34.1,7.1c-1.8,0.2-3.3,0.6-3.4,2.8
		c-0.1,1.8,0.7,3.1,2.5,3.1c8.6-0.3,14.6,5,20.8,9.7c16.2,12.2,30.1,26.8,42.3,42.9c11.7,15.4,23.9,30.7,27.6,50.6
		C666.4,676.9,667.5,678.5,670,677.9z"/>
	<path class="st2" d="M334.2,804c8.3-4.2,16.7-8,25.9-10.2c9.2-2.1,17.5,0.2,25.4,4.5c3.9,2.1,7.9,4.3,11.5,7.1
		c12.8,9.9,27.5,14.5,43.5,15.3c1.4,1.6,2.8,3.3,4.2,4.9c10.2,11.2,22.3,18,38,17.6c15.4-0.4,27.2-7.7,37.5-18.3
		c9-9.3,14.7-20.5,19.3-32.3c0.8,3.2,2.9,4,6.1,4.5c20.8,3,39.7-3.8,58.5-10.9c9.3-3.5,16.2-10.9,23.2-17.7
		c8.6-8.4,17.7-16.1,28.8-21.1c3.7-1.7,7.4-3.1,11.5-2.4c-1.4,3.3-0.2,4.3,3.1,3.5c13.2-3.4,26.5-6.6,39.3-11.1
		c-1.8,17.8-7.1,33.9-20.9,46.3c-1.8,1.6-5.3,2.5-4.4,6.2c-0.4,4.8,2.8,3.2,4.9,2.4c6.5-2.4,12.9-5,19.3-7.6
		c1.7-0.7,3.4-1.2,5.1-1.8c0.3,4.8-0.9,9.5-1.5,14.3c-1,7.9-4.5,15.2-5,23.1c-24.3,45.8-59.8,81.2-103,108.9
		c-38.7,24.8-81.3,39.3-127.1,43.9c-51.2,5.1-99.9-3.2-144.4-30.2c-17.7-10.7-33.3-24-46.8-40c-13.1-15.5-18.5-32.1-13.9-52.1
		c2.2-9.7,3-19.7,3.2-29.7c0-1.4-1.1-4.1,2.3-3.6c0.5,0.9,1,1.7,1.5,2.6c1.3,7.7,7.3,11.5,13.2,15c2.8,1.6,3.9,2.9,3.7,6.3
		c-0.8,12.6,2.6,23.9,11.6,33.1c1.2,1.2,2.2,3.5,4.4,1.8c2.1-1.7,0.8-3.5-0.3-5.2c-2.3-3.7-5.3-7.1-5.9-11.7
		c2.6-0.8,5.2,0.5,7.9-0.1c10.5-2.3,23.3-16.3,23.9-27c0.2-2.5,0.4-5.5-3.2-6.4c-1.7-6-6.7-6.7-13.1-7c6.9-4.2,13.3-6.8,19.9-8.7
		c1.4-0.4,2.9-0.6,4.3-1.1c1.6-0.6,4.4-0.6,3.6-3c-0.7-2-3.2-1-4.9-0.7c-3.7,0.7-7.3,1.7-11,2.5C332.7,806.2,333.7,805.1,334.2,804z
		 M459.2,894.5c0.3-9.3-1.5-18.1-3.2-26.9c-0.8-3.9-1.6-4.5-5.1-3.9c-15.2,2.5-30.2,6.1-45.3,9.2c-24.1,5-48.3,10.1-72.4,15.2
		c-6,1.3-6.6,2.5-4.5,8.2c4.3,11.2,9.9,21.7,16.6,31.6c6.4,9.4,15.3,15.6,26.4,18.4c23.2,5.8,45.5,2.7,66.5-8.4
		c10.4-5.5,17.4-14.3,19.6-26.3C458.8,905.9,459.5,900.1,459.2,894.5z"/>
	<path class="st3" d="M251.1,745c-37.7-53.3-55.7-113.9-64.6-177.5c-5.3-38.1-5.3-76.3-0.7-114.6c5.9-49.7,17.6-97.9,34.5-144.9
		c12.7-35.3,29.9-68.3,54.8-96.8c9-10.3,18.5-20.2,30.4-27.2c13-7.7,18.6-7,29.9,3c15.7,14,22.8,32.5,27.4,52.2
		c5.2,22.2,7.5,45,10,67.6c5.3,47,10.2,94,19.2,140.5c5.6,28.6,13,56.8,23.7,84.1c0.6,1.5,1,3.1,1.5,4.7c-0.6,0.1-1.3,0.2-1.9,0.4
		c-26.6,13.2-50.5,30-70.1,52.5c-2.2,2.5-3.5,6.1-7.3,7.1c-2.8-2.4-6.1-1.3-9.1-1c-12.9,1.3-25.8,2.7-38.7,4.4
		c-2.9,0.4-4.1-0.4-5.4-2.8c-6.1-11.6-6.9-24-5.2-36.5c4.4-31.2,17.7-58.3,39.6-81c1.5-1.6,4.2-3.4,1.8-5.8c-2.5-2.6-4.6,0-6.2,1.7
		c-8.2,8.2-14.9,17.4-20.9,27.3c-1.2,2-1.5,5.5-4.5,5.2c-4.1-0.4-8.2-1.6-10.2-6c-2.3-5.1-2.3-10.3-1.4-15.6
		c3.5-21.2,13.8-39.4,25.1-57.1c7-11,14.8-21.3,22.8-31.5c1.3-1.7,4.2-3.8,1.6-5.8c-2.4-1.9-4.1,1.1-5.6,2.7
		c-2.6,2.7-5.1,5.6-8.3,9.2c1.2-13.4,2.3-25.9,3.2-38.3c1.7-23.3,1.9-46.6,1.7-69.9c-0.1-14.1-0.7-28.2-4.9-41.9
		c-5.7-18.5-14.6-21.8-30.5-10.8c-11.8,8.1-20.9,19-28.8,30.9c-24.7,37.2-40.6,78.2-50.8,121.5c-6.7,28.7-11.3,57.8-10.8,87.3
		c0.7,48.9,5.4,97.4,20.8,144.3c10.8,32.9,26,63.2,51,87.8c0.1,4.1-3.4,6.8-4,10.7c-6.7,0.1-3.1,4.4-3,7.3c-1.5,1.7-1.4,4-2.5,5.8
		C253.2,740.1,254.3,743.6,251.1,745z"/>
	<path class="st2" d="M285.8,443.5c-5.2,11.6-10.2,23.3-14.1,35.4c-0.4,0.2-1.1,0.2-1.3,0.5c-6,11.1-9.5,22.7-5.4,35.3
		c1.5,4.7,4.6,8.7,9.6,9.1c5.5,0.4,4.6,2.7,3.4,6.3c-5.4,15.7-10.4,31.6-11.3,48.3c-0.4,7.8-1,16.1,4.6,22.8
		c-6.4,0.9-12.7,2.2-19.1,2.5c-5.4,0.2-6.1,2.4-6.2,7.3c-0.6,18.7-2,37.4-2.9,56.1c-0.2,4.1-1.2,8.3,1,12.2c-0.4,0.3-0.9,0.6-1.3,1
		c-11.7-17.1-19.3-36.1-25.5-55.6c-8.2-26-13.5-52.5-16.3-79.7c-2.5-24.2-4.7-48.4-3.7-72.7c1.7-40.5,8.8-80,22.4-118.2
		c10.9-30.8,24.7-60.1,44.6-86.2c7.8-10.2,16.3-19.9,28.5-25.1c1.6,0.4,1.7,1.7,2.3,2.9c6.9,13.9,8,29.1,8.6,44.2
		c0.9,21.8,0.2,43.6-0.4,65.4c-0.7,28.8-7.4,56.1-16.8,83C286.1,440,285,441.6,285.8,443.5z"/>
	<path class="st4" d="M250.5,662.1c0.5-16.6,1.1-33.2,1.6-49.8c0.1-2.4,0.8-3,3.1-3.2c24.8-2.4,49.6-4.9,74.3-7.6
		c3.9-0.4,3.2,2.1,3.2,3.9c0.3,8.3,0.2,16.6,0.4,24.9c0.2,9.8,0.5,19.6,0.9,29.4c0.1,2.9-0.6,4-3.7,4.3c-25.8,2.7-51.5,5.5-77.3,8.5
		c-2.9,0.3-3-0.8-2.9-2.9c0.1-2.5,0-5,0-7.5C250.2,662.1,250.4,662.1,250.5,662.1z"/>
	<path class="st5" d="M285.8,443.5c-0.8-1.9,0.3-3.5,0.8-5.2c9.4-26.9,16.1-54.2,16.8-83c0.5-21.8,1.3-43.6,0.4-65.4
		c-0.6-15-1.7-30.2-8.6-44.2c-0.6-1.2-0.8-2.6-2.3-2.9c6.7-2.6,8.8-2,12.1,3.9c4.4,7.8,6.1,16.5,6.9,25.3
		c2.3,23.4,1.5,46.9,0.8,70.4c-0.7,22.4-3.2,44.7-4.9,67c0,0.6-0.2,1.3-0.6,1.8C299,421.2,292.9,432.7,285.8,443.5z"/>
	<path class="st6" d="M279.1,820c-0.5-0.9-1-1.7-1.5-2.6c-1.3-3.7-2.1-7.5-1.3-11.5c1.1-1,0.9-2-0.1-2.9c-1.1-20.8-1-41.6,0.3-62.3
		c0.7-11.1,7.3-20.5,17.4-26.6c3.3-2,7.1-2.5,11.8-1.2c-6.8,6.3-11.5,13.4-14.6,21.5c-2.7,7.2-4.1,14.6-4.1,22.3
		c0,3.4,1.2,5,4.3,6.1c8.7,3.2,9.2,3.9,2.5,9.6c-9.5,8.1-6.4,17.6-4,27c2.2,8.5,6.6,16,13.3,21.7c2,1.7,1.7,2.7,0,4.2
		c-0.6,0.5-1.1,1.2-1.6,1.9c-4,5.2-4.9,5.3-10.3,1.1c-2.5-1.9-4.8-4.1-6.5-6.8C283.3,819.2,281.4,818.9,279.1,820z"/>
	<path class="st7" d="M338,596.1c3.7-1,5.1-4.6,7.3-7.1c19.6-22.5,43.5-39.3,70.1-52.5c0.6-0.3,1.3-0.3,1.9-0.4
		c1.7,3.7,3.3,7.6,5.3,11.2c1.6,2.9,0.8,3.8-2.2,4.7c-13.5,3.9-26.1,9.8-38.1,17c-15.7,9.4-29.5,20.9-41,35.3
		c-0.4,0.5-0.7,1.1-1.6,2.7C338.4,602.5,339.6,599,338,596.1z"/>
	<path class="st5" d="M271.3,601.2c-5.6-6.8-5-15-4.6-22.8c0.9-16.7,5.9-32.6,11.3-48.3c1.2-3.6,2.1-5.9-3.4-6.3
		c-5-0.4-8.1-4.4-9.6-9.1c-4-12.6-0.6-24.2,5.4-35.3c0.2-0.3,0.9-0.3,1.3-0.5c0.8,4.3-1,8.5-0.8,12.8c0.4,9.3,3.1,17,12.6,20.7
		c2.8,1.1,3.9,2.5,2.3,5.9c-7.6,16.1-11.9,33.1-12.4,50.9c-0.3,10.8,1.1,21.5,7.3,31.5C277.1,600.9,274.2,601,271.3,601.2z"/>
	<path class="st7" d="M343.7,611.8c3.6,2.4,4.5,5.6,4,9.9c-0.6,5.4-0.3,10.9-0.6,16.3c-0.5,10.6-1.1,21.2-3,31.7
		c-1.7,9.8-3.8,11.4-13.7,12.3c-13.1,1.3-26.2,0.8-39.4,1c3.4-9.5,11.7-9.2,19.6-9.9c7.8-0.7,15.5-1.7,23.3-2.4
		c4.6-0.4,6.4-2.4,6.4-7.4c-0.1-13.8-0.4-27.6-1.2-41.4C338.9,617.6,340.1,614.3,343.7,611.8z"/>
	<path class="st2" d="M265.1,708.1c-9-8-16.2-17.5-22.3-27.8c0.4-0.3,0.9-0.6,1.3-1c3.3,1.6,6.6,0.1,9.8-0.2
		c8.4-0.7,16.8-1.7,25.2-2.6c0.1,1.8-1,3.1-1.7,4.6C273.3,690.2,267.3,698.3,265.1,708.1z"/>
	<path class="st5" d="M684.7,790c-0.9-3.7,2.6-4.6,4.4-6.2c13.9-12.4,19.2-28.5,20.9-46.3c9.3-2.9,10.1-2.3,9.9,7.1
		c-0.1,6.8-1.9,13.1-5.2,19c-0.8,1.4-1.9,2.7-2.6,4.2C706.8,779.9,696.8,786.3,684.7,790z"/>
	<path class="st3" d="M260.8,861.4c-1.8-2-3-3.3-4.1-4.8c-5.7-7.6-5.8-7.6,0.6-14.8c2.1-2.4,2.2-4.1-0.1-6.3c-2.7-2.5-4.4-5.7-6.2-9
		c-1.6-3-0.8-5,1.7-6.8c0.3-0.2,0.5-0.4,0.8-0.6c4.2-2.3,8.8-6.1,13.1-4.6c2.3,0.9,0.1,7.3,0.4,11.2c0.1,1.8-0.2,3.6-0.4,5.4
		C265.1,841.1,263.7,850.9,260.8,861.4z"/>
	<path class="st5" d="M334.4,825.8c3.6,0.8,3.4,3.9,3.2,6.4c-0.7,10.7-13.4,24.7-23.9,27c-2.7,0.6-5.3-0.7-7.9,0.1
		c0,0,0.2-0.1,0.2-0.1c-0.3-0.4-0.6-0.8-0.9-1.2c-1.8-4.3-1.8-4.3-1.7-8.8c6.5,4,12,1.7,17.1-2.6
		C327.2,841.1,332.3,834.5,334.4,825.8z"/>
	<path class="st7" d="M251.1,745c3.2-1.4,2.1-4.8,3.4-7.1c1.1-1.8,1-4.2,2.5-5.8c2.5,3.9,4.5,8.2,9.6,9.4c1.4,0.3,1.4,1.8,1.2,2.9
		c-1.5,8.2-0.4,16.5-1,26.5C261.1,761.4,256.1,753.2,251.1,745z"/>
	<path class="st8" d="M305.9,731.9c-5.6,6.7-8,14.7-10,23c-0.4,1.5,0.7,4.5-2.3,4.4c-3.1-0.2-2.6-3-2.4-5
		c1.2-14.1,5.5-26.9,16.6-36.6c2.2-1.9,3.9-2.2,6-0.2c2.7,2.5-0.5,3.3-1.4,4.7c-0.8,1.4-1.8,2.8-2.7,4.1
		C306.5,726.9,305.5,728.9,305.9,731.9z"/>
	<path class="st5" d="M707.4,820.4c0.5-7.9,4-15.2,5-23.1c0.6-4.8,1.8-9.4,1.5-14.3c3.6-1.9,7.4-3.3,12.4-4.2
		c-1.1,3.1-1.9,5.7-2.9,8.1C718.8,798.4,714.3,810,707.4,820.4z"/>
	<path class="st8" d="M294.2,779.1c1.3,4.7,2.6,9.1,3.8,13.5c2.4,8.5,6.2,16.1,12.9,22c0.8,0.7,2.8,1.5,1.3,3
		c-1.1,1.2-2.5,2.1-4.4,0.9c-3.3-2.1-5.8-4.8-7.9-8.1c-5.3-8.1-7.2-17.4-8.6-26.7C290.9,781.4,292.3,780.2,294.2,779.1z"/>
	<path class="st9" d="M328.5,825.9c0.8,5.1-3.3,8-5.7,11.5c-1.7,2.6-4.4,4.5-7.1,6.1c-2.4,1.4-4.8,3.7-7.7,1.7
		c-2.9-1.9-3.8-4.9-3.9-8.2c0-1.1-0.2-2.4,0.9-3.2c2.6,2.1,5.2,1.2,7.9,0.2C318.4,832.1,323.6,829.3,328.5,825.9z"/>
	<path class="st5" d="M265.1,708.1c2.2-9.9,8.3-18,12.3-27c0.7-1.5,1.8-2.8,1.7-4.6c1.3,0.2,5-1.9,3.1,1.9
		c-5.3,10.5-7.4,21.8-10,33.1c-0.2,0.8-0.3,1.5-0.6,2.9C268.8,712.4,266.7,710.6,265.1,708.1z"/>
	<path class="st8" d="M328.5,825.9c-4.9,3.4-10.1,6.2-15.7,8.2c-2.7,0.9-5.3,1.9-7.9-0.2c2-6.4,14.9-10.8,20.8-9.8
		C327,824.3,327.8,825,328.5,825.9z"/>
	<path class="st7" d="M260.1,724.7c0.6-3.8,4.1-6.6,4-10.7c7.1,3.6,6.7,9.6,5,16c-0.7,2.8-2.2,2.5-4,1.3
		C262.8,729.7,261.2,727.4,260.1,724.7z"/>
	<path class="st7" d="M671.4,743.4c-0.8-3.1,1.5-4.8,3.3-6.5c2.4-2.3,4.3-5.3,7.5-6.8c0.1,0.1,0.3,0.2,0.3,0.3
		C685.4,740.4,685.4,740.4,671.4,743.4z"/>
	<path class="st2" d="M305.9,731.9c-0.4-3,0.6-5,3.7-5.7c0.4,0.2,0.8,0.5,1.3,0.7c2.7,1.3,3.6,3.6,3.1,6.4c-0.3,1.8-1.5,3-3.3,3.1
		C307.5,736.8,306.9,734.1,305.9,731.9z"/>
	<path class="st9" d="M311.1,795.7c-0.2,1.1,0.7,3.1-1.4,2.8c-1.7-0.2-2.6-1.9-2.6-3.7c0-1.4,0.6-2.7,2.2-2.6
		C311.6,792.4,310.9,794.3,311.1,795.7z"/>
	<path class="st2" d="M276.2,803c1,0.9,1.2,1.9,0.1,2.9C276.3,804.9,276.3,804,276.2,803z"/>
	<path class="st10" d="M722.5,771.6c-0.7,0.4-1.4,0.8-2.2,0.3c0.3-0.5,0.6-1,0.9-1.5C721.6,770.8,722,771.2,722.5,771.6z"/>
	<path class="st2" d="M305.1,858c0.3,0.4,0.6,0.8,0.9,1.2C304.9,859.4,305.2,858.5,305.1,858z"/>
	<polygon class="st1" points="278.6,717.2 278.7,717.5 278.4,717.5 	"/>
	<path class="st2" d="M678.4,709.5c-3.6-6.2-3.5-13.4-5.4-20.1c-1.1-3.8-2-7.7-3.1-11.5c2.6-3.1,1.2-6.3,0-9.3
		c-7.4-17.8-17.9-33.6-29.6-48.8c-10.2-13.2-21.9-25-33.6-36.8c9.7-1.1,18.6-4.8,27.4-8.7c19.7-8.8,37-21.4,54.3-34.3
		c18.8-14,32.5-31.7,43-52.2c2.7-5.2,5.1-10.9,5-16.6c-0.2-6.4,3.1-9.2,8-11.4c0.5-0.2,0.9-0.5,1.3-0.7
		c17.2-10.5,32.3-23.2,40.6-42.1c5.2-11.9,9.5-24.3,4.3-37.5c-0.8-2,0.3-2.6,1.5-3.6c7.3-5.7,12.1-13.3,15.5-21.7
		c2.8-7,4.5-14.4,3.5-22.1c-0.1-4,0.5-8-0.6-11.9c-2.6-8.7-9.2-12.9-17.7-15.6c8.7-13.8,17.5-27.3,28.5-39.2c4.2-4.5,8.6-8.8,14-12
		c7.4-4.3,11.6-2.7,14.6,5.3c2.1,5.5,2.6,11.3,2.8,17.1c0.8,23.3-3.3,46-8.1,68.6c-11.2,51.4-27.3,101.3-45.7,150.5
		c-20.3,54.1-43.5,106.8-73.3,156.4C712.6,672.8,699.4,694.4,678.4,709.5z"/>
	<path class="st11" d="M539.4,792.7c-4.6,11.9-10.3,23.1-19.3,32.3c-10.3,10.6-22.1,17.9-37.5,18.3c-15.7,0.4-27.8-6.4-38-17.6
		c-1.4-1.6-2.8-3.3-4.2-4.9c-9.1-13.8-15.1-28.9-16.9-45.3c-3.3-30.5,1.9-59,21.9-83.5c6.1-7.4,13.6-13.2,22.5-17
		c11.8-4.9,23.5-4.7,35.3,0.1c19.2,8.9,29.7,24.9,35.7,44.4c1.4,4.6,2.5,6.1,7.3,4c4.9-2.2,9.5-4.6,12.7-9.2c0.9-1.4,1.9-4,4-2.7
		c2.6,1.5,0.2,3.5-0.5,5.1c-4.1,9.2-10.4,15.9-20.9,18.1c-2.5,0.5-3.2-0.6-4.4-1.7c-2.7-13.4-8.2-25.6-16.5-36.4
		c-5.8-7.7-13.3-13.5-22.5-16.9c-10-3.7-22.5-2.6-29.9,2.8c4,0.8,7.5,2.1,10.8,4.1c15.4,9.3,23.8,23.2,27.3,40.5
		c1.6,7.7,1.9,14.2-5.6,19.8c-7.8,5.8-7.4,6.5,1.3,11.7c4.5,2.6,6.9,6,6.1,11.4c-0.7,4.4-0.9,9-2,13.3
		c-4.3,16.5-12.5,29.9-29.6,36.1c-8.7,3.2-17.4,3.8-26.7,0.5c0.5,1,0.6,1.5,0.9,1.9c15.3,17.3,38.6,19.6,56.9,5.6
		c12.2-9.4,19.2-22.2,24.4-36.4c0.9-2.4,1.5-4.8,4.2-5.8C541.3,785.7,540.2,789.3,539.4,792.7z M474.1,701c-0.8,1-1.9,1.9-2.4,3
		c-1.2,2.4-0.7,4.8,1.8,5.8c2.6,1.1,4.4-0.1,4.9-3c0.1-0.6,0.4-1.2,0.7-1.8c10.5,9.9,15.8,22.5,18.4,36.6c5.1-3.7,5.4-4,4.5-8.5
		c-1.5-7.7-3.4-15.2-7.4-22c-6.6-11.3-15.5-19.9-28.9-22.5c-4.6-0.9-9.3-0.8-12.3,4.3C461,694.1,468.3,695.8,474.1,701z
		 M497.5,762.2c-2.3,13.5-7,25.7-16.5,35.6c-9.9,10.4-22.1,14.2-37.3,11.8c13.1,10.7,33.1,6.2,41.9-1.5
		c11.9-10.5,16.1-24.3,17.4-39.5C503.2,764.9,500.8,763.4,497.5,762.2z M458.5,803c3.8-0.3,6.1-2.4,6-6c-0.1-3.7-2.6-5.9-6.2-5.6
		c-3.5,0.2-5.6,2.4-5.5,6.3C453,801.4,455.3,802.8,458.5,803z M472,785.5c-0.4-1.6-1.3-2.5-3.1-2.4c-1.8,0.1-2.8,1.1-2.8,2.9
		c0,1.7,0.8,3,2.6,2.9C470.6,788.8,471.6,787.5,472,785.5z"/>
	<path class="st12" d="M606.8,583c11.7,11.8,23.4,23.6,33.6,36.8c11.7,15.2,22.2,31,29.6,48.8c1.2,3,2.6,6.2,0,9.3
		c-2.4,0.6-3.5-1-3.9-2.8c-3.7-19.9-15.9-35.2-27.6-50.6c-12.2-16.1-26.1-30.7-42.3-42.9c-6.2-4.6-12.2-10-20.8-9.7
		c-1.8,0.1-2.6-1.3-2.5-3.1c0.1-2.2,1.7-2.7,3.4-2.8c11.7-1,23-3.7,34.1-7.1c33.8-10,64.6-25.4,90.7-49.5
		c8.2-7.6,15.5-16.1,20.3-26.3c3.6-7.6,6-15.5,3.1-24.3c-7.6,3-15.1,6.1-22.7,8.8c-6.6,2.4-13.2,4.4-20.1,5.4
		c-1.5,0.2-3.8,1-4.3-1.1c-0.6-2.5,1.8-2.7,3.5-3.2c18.3-5.2,35.8-12.1,52.3-21.8c15-8.8,28.9-19.1,39.5-33.2
		c5.2-6.8,9.3-14.2,9.3-23.2c0-3.4-1-6.6-2.8-9.4c-3.9-6.2-5.7-6.7-12.2-3.4c-6.2,3.1-12.6,6-19.4,7.8c-1.7,0.4-3.5,1.2-4.3-0.8
		c-1-2.5,1.3-3,3-3.6c13-4.5,25.1-10.6,35.8-19.2c9.8-7.9,18.8-16.6,22.8-29c4-12.8-3-22.4-16.5-22.9c-2.5-0.1-2.9-1.5-2.4-3.2
		c0.4-1.6,1.3-3,2.2-4.4c9.6-15.6,19.7-30.9,32.5-44.1c4.2-4.3,8.7-8.2,14.2-10.8c8.6-4,15.9-1.3,19.6,7.5c4.1,9.6,4,19.8,3.5,30
		c-2.1,36.7-10.3,72.3-20.2,107.5c-23,81.7-53.8,160.3-93.1,235.5c-12.6,24.2-26.4,47.7-44.2,68.6c-4.9,5.7-10.1,11.1-16.6,15
		c-2.4,1.4-5.1,2.9-5.5-1.9c20.9-15.2,34.1-36.7,47.1-58.2c29.8-49.6,53-102.4,73.3-156.4c18.5-49.2,34.6-99.1,45.7-150.5
		c4.9-22.6,9-45.3,8.1-68.6c-0.2-5.8-0.7-11.6-2.8-17.1c-3-8-7.3-9.5-14.6-5.3c-5.4,3.1-9.8,7.4-14,12c-11,11.9-19.8,25.4-28.5,39.2
		c8.4,2.7,15.1,6.9,17.7,15.6c1.2,3.9,0.5,7.9,0.6,11.9c-5.2,14.5-14.7,25.8-26.9,34.9c-1.7,1.3-4.4,2.2-5,3.9
		c-0.9,2.4,2.4,3.3,3.7,5c7.5,9.9,6.4,20.3,1.7,30.7c-5.3,11.8-14.2,20.8-24,29c-8.1,6.7-16.7,12.6-26,17.5
		c-1.7,0.9-5.1,1.1-4.1,4.6c3.9,13.7-1,25.5-8.2,36.7c-9.9,15.5-23.7,27-38.5,37.2c-28.5,19.6-60,32.5-94.8,39
		C595.8,574.1,600.8,579.2,606.8,583z"/>
	<path class="st6" d="M536.1,784.9c-2.7,1-3.3,3.4-4.2,5.8c-5.1,14.1-12.1,27-24.4,36.4c-18.3,14-41.7,11.7-56.9-5.6
		c-0.3-0.3-0.4-0.8-0.9-1.9c9.3,3.3,18,2.7,26.7-0.5c17-6.2,25.2-19.6,29.6-36.1c1.1-4.3,1.4-8.8,2-13.3c0.8-5.3-1.6-8.7-6.1-11.4
		c-8.7-5.1-9.1-5.9-1.3-11.7c7.5-5.6,7.2-12.2,5.6-19.8c-3.5-17.3-11.9-31.2-27.3-40.5c-3.3-2-6.8-3.3-10.8-4.1
		c7.5-5.4,19.9-6.5,29.9-2.8c9.2,3.4,16.6,9.2,22.5,16.9c8.2,10.8,13.8,23,16.5,36.4c0.4,6.3,0.5,12.6,1.3,18.7
		C539.9,762.8,538.5,773.9,536.1,784.9z"/>
	<path class="st0" d="M424.9,666.3c-0.3,0-0.7-0.1-1,0c-13,1.5-11,0.1-11-10.9c0.1-21.1-0.2-42.2,0.8-63.4c0.2-4.1,1.9-5.7,5.7-5.8
		c19.4-0.7,38.9-1.5,58.3-2.3c16.6-0.6,33.2-2.1,49.8-2c6.5,0,6.7,0.2,6.5,6.8c-0.1,3.8-0.3,7.6-0.5,11.5c-0.8,19-1.8,38.1-2.5,57.2
		c-0.1,4-1.7,5.7-5.7,5.8c-16.8,0.6-33.5,1.4-50.2,1.9C458.4,665.5,441.7,665.8,424.9,666.3z M419.3,626.7c-0.2,0-0.3,0-0.5,0
		c0,10.2,0.2,20.3-0.1,30.4c-0.1,3.6,1,4.1,4.1,3.9c5-0.5,9.9-0.7,14.9-0.9c27.9-1.1,55.8-2.2,83.7-3.3c2.4-0.1,3.5-0.6,3.7-3.3
		c0.9-20.7,2-41.5,3.1-62.2c0.2-2.8-0.4-3.7-3.4-3.5c-11.8,0.6-23.6,0.8-35.4,1.2c-22.1,0.7-44.2,1.5-66.3,2.1c-2.9,0.1-4,1-4,4.1
		C419.4,605.7,419.3,616.2,419.3,626.7z"/>
	<path class="st7" d="M424.9,666.3c16.8-0.4,33.5-0.8,50.3-1.3c16.8-0.5,33.5-1.3,50.2-1.9c3.9-0.1,5.5-1.8,5.7-5.8
		c0.7-19.1,1.6-38.1,2.5-57.2c9,2.9,10.2,4.1,9.4,13.5c-1.4,16.5-3.3,32.9-7,49.1c-1.9,8.1-4.5,9.9-12.8,10.3
		c-6.7,0.3-13.5-0.7-20,2c-11.7-4.8-23.5-5-35.3-0.1c-1.8-1.4-3.8-0.7-5.8-0.7c-9.9-0.1-19.9,0.2-29.8-1
		C428,672.6,424.9,671.2,424.9,666.3z"/>
	<path class="st12" d="M459.2,894.5c0.3,5.5-0.3,11.3-1.4,17.1c-2.2,12-9.2,20.8-19.6,26.3c-21,11.1-43.3,14.2-66.5,8.4
		c-11.1-2.8-19.9-9-26.4-18.4c-6.8-9.9-12.4-20.4-16.6-31.6c-2.2-5.7-1.6-6.9,4.5-8.2c24.1-5.1,48.2-10.2,72.4-15.2
		c15.1-3.1,30.1-6.7,45.3-9.2c3.5-0.6,4.3,0,5.1,3.9C457.7,876.5,459.5,885.2,459.2,894.5z M391.7,944.9c11.7-0.4,23.1-2.4,34.2-6.3
		c17.5-6.2,27.9-17.9,29-36.9c0.1-2-0.1-2.6-2.4-2.3c-30,3.4-59.7,8.4-89.4,14.1c-3.5,0.7-5.8,1.7-6.3,5.6c-0.3,2.2-2.3,3.8-4.4,4.4
		c-4.7,1.4-3.1,3.2-0.9,5.7C362.4,941.2,376.5,944.3,391.7,944.9z M451.5,868.5c-39.8,8.2-79.6,16.5-119.7,24.8
		c3.1,8.4,7.2,16,11.5,23.4c0.8,1.4,0.6,4.6,3.6,3.6c2.5-0.8,5.7-1,6.3-4.7c0.6-3.6,3-5.2,6.6-5.6c2.6-0.3,5.3-0.7,7.8-1.3
		c27.9-5.9,55.9-10.9,84.2-13.9c2.9-0.3,3.2-1.5,3-3.8C454.2,883.4,453.7,875.8,451.5,868.5z"/>
	<path class="st5" d="M606.8,583c-5.9-3.9-11-8.9-17.9-12.5c34.8-6.5,66.2-19.4,94.8-39c14.9-10.2,28.7-21.8,38.5-37.2
		c7.2-11.2,12-23,8.2-36.7c-1-3.4,2.4-3.7,4.1-4.6c9.3-4.9,18-10.8,26-17.5c9.8-8.2,18.7-17.2,24-29c4.7-10.4,5.7-20.8-1.7-30.7
		c-1.3-1.7-4.6-2.5-3.7-5c0.7-1.7,3.3-2.6,5-3.9c12.3-9.1,21.7-20.4,26.9-34.9c1,7.7-0.7,15.1-3.5,22.1c-3.4,8.4-8.2,16-15.5,21.7
		c-1.2,1-2.3,1.6-1.5,3.6c5.2,13.2,0.9,25.7-4.3,37.5c-8.3,18.9-23.4,31.6-40.6,42.1c-0.4,0.3-0.8,0.5-1.3,0.7
		c-4.9,2.2-8.2,5-8,11.4c0.1,5.7-2.3,11.4-5,16.6c-10.5,20.6-24.3,38.2-43,52.2c-17.3,12.9-34.5,25.5-54.3,34.3
		C625.4,578.2,616.5,582,606.8,583z"/>
	<path class="st8" d="M497.5,762.2c3.3,1.3,5.7,2.7,5.4,6.5c-1.2,15.2-5.5,29-17.4,39.5c-8.8,7.7-28.8,12.3-41.9,1.5
		c15.3,2.4,27.4-1.4,37.3-11.8C490.5,787.9,495.1,775.7,497.5,762.2z"/>
	<path class="st8" d="M474.1,701c-5.8-5.2-13.1-6.8-20.7-8.2c3-5.1,7.6-5.2,12.3-4.3c13.4,2.5,22.2,11.2,28.9,22.5
		c4,6.8,6,14.4,7.4,22c0.9,4.5,0.6,4.8-4.5,8.5c-2.6-14.1-7.8-26.7-18.4-36.6C478.4,702.3,477,700.7,474.1,701z"/>
	<path class="st8" d="M458.5,803c-3.2-0.3-5.6-1.6-5.7-5.4c-0.2-3.9,1.9-6.1,5.5-6.3c3.6-0.2,6.1,2,6.2,5.6
		C464.6,800.6,462.3,802.7,458.5,803z"/>
	<path class="st2" d="M474.1,701c2.9-0.3,4.3,1.3,4.9,3.9c-0.2,0.6-0.6,1.2-0.7,1.8c-0.5,3-2.3,4.1-4.9,3c-2.5-1.1-3-3.4-1.8-5.8
		C472.2,702.9,473.2,702,474.1,701z"/>
	<path class="st9" d="M472,785.5c-0.4,2-1.4,3.3-3.3,3.4c-1.8,0.1-2.7-1.2-2.6-2.9c0-1.7,1-2.8,2.8-2.9
		C470.6,782.9,471.6,783.9,472,785.5z"/>
	<path class="st4" d="M419.3,626.7c0-10.5,0.1-21-0.1-31.4c-0.1-3.1,1.1-4,4-4.1c22.1-0.7,44.2-1.4,66.3-2.1
		c11.8-0.4,23.6-0.6,35.4-1.2c3-0.1,3.5,0.7,3.4,3.5c-1.2,20.7-2.2,41.5-3.1,62.2c-0.1,2.7-1.2,3.2-3.7,3.3
		c-27.9,1-55.8,2.1-83.7,3.3c-5,0.2-10,0.4-14.9,0.9c-3.1,0.3-4.2-0.3-4.1-3.9c0.3-10.1,0.1-20.3,0.1-30.4
		C418.9,626.7,419.1,626.7,419.3,626.7z"/>
	<path class="st13" d="M391.7,944.9c-15.1-0.7-29.3-3.7-40.1-15.7c-2.3-2.5-3.8-4.3,0.9-5.7c2.1-0.6,4.1-2.2,4.4-4.4
		c0.5-3.9,2.7-4.9,6.3-5.6c29.6-5.7,59.4-10.7,89.4-14.1c2.2-0.3,2.5,0.3,2.4,2.3c-1.1,19.1-11.5,30.8-29,36.9
		C414.8,942.6,403.4,944.5,391.7,944.9z"/>
	<path class="st6" d="M451.5,868.5c2.2,7.4,2.7,15,3.4,22.6c0.2,2.3-0.2,3.5-3,3.8c-28.3,3-56.4,8-84.2,13.9c-2.6,0.5-5.2,1-7.8,1.3
		c-3.5,0.4-6,2-6.6,5.6c-0.6,3.7-3.7,3.9-6.3,4.7c-3,0.9-2.8-2.2-3.6-3.6c-4.4-7.4-8.4-15-11.5-23.4
		C371.9,884.9,411.7,876.7,451.5,868.5z"/>
</g>
</svg>
