<?xml version="1.0" encoding="utf-8"?>
<!-- Generator: Adobe Illustrator 25.0.0, SVG Export Plug-In . SVG Version: 6.00 Build 0)  -->
<svg version="1.1" id="图层_1" xmlns="http://www.w3.org/2000/svg" xmlns:xlink="http://www.w3.org/1999/xlink" x="0px" y="0px"
	 viewBox="0 0 1200 1600" style="enable-background:new 0 0 1200 1600;" xml:space="preserve">
<style type="text/css">
	.st0{fill:#060604;}
	.st1{fill:#EDCF5D;}
	.st2{fill:#FBF1EE;}
	.st3{fill:#ECCF5D;}
	.st4{fill:#F4FB95;}
	.st5{fill:#A0918B;}
	.st6{fill:#FBFBFB;}
	.st7{fill:#927233;}
	.st8{fill:#935A40;}
	.st9{fill:#623C2A;}
	.st10{fill:#FEFEFE;}
	.st11{fill:#040302;}
	.st12{fill:#090805;}
	.st13{fill:#9C5B46;}
	.st14{fill:#070705;}
	.st15{fill:#ECCE5D;}
	.st16{fill:#F2F2F2;}
	.st17{fill:#93583F;}
	.st18{fill:#A1918B;}
	.st19{fill:#513123;}
	.st20{fill:#FAFAFA;}
	.st21{fill:#030202;}
	.st22{fill:#060605;}
	.st23{fill:#A0908A;}
	.st24{fill:#937234;}
	.st25{fill:#E6C95B;}
	.st26{fill:#864E37;}
	.st27{fill:#513124;}
	.st28{fill:#B0603E;}
	.st29{fill:#FAF0ED;}
	.st30{fill:#F9F9F9;}
	.st31{fill:#917133;}
	.st32{fill:#9E8F89;}
	.st33{fill:#E7CA5B;}
	.st34{fill:#92583F;}
	.st35{fill:#050503;}
	.st36{fill:#FCFBFB;}
	.st37{fill:#080704;}
	.st38{fill:#070605;}
	.st39{fill:#FAF1ED;}
	.st40{fill:#F4FA95;}
	.st41{fill:#F8F8F7;}
	.st42{fill:#90573E;}
	.st43{fill:#030302;}
	.st44{fill:#080805;}
	.st45{fill:#FBF1ED;}
	.st46{fill:#FBFBFA;}
	.st47{fill:#927234;}
	.st48{fill:#F69376;}
	.st49{fill:#7B2D2D;}
	.st50{fill:#FCFCFC;}
	.st51{fill:#EF5A2D;}
	.st52{fill:#F0CC2D;}
	.st53{fill:#9F8F8A;}
	.st54{fill:#FAFAF9;}
	.st55{fill:#F2A78E;}
	.st56{fill:#040403;}
	.st57{fill:#070604;}
	.st58{fill:#A0908B;}
	.st59{fill:#F7F7F7;}
	.st60{fill:#E8CB5B;}
	.st61{fill:#8F563E;}
	.st62{fill:#513224;}
	.st63{fill:#080705;}
	.st64{fill:#FCFCFB;}
	.st65{fill:#F9F8F8;}
	.st66{fill:#FAF0EC;}
	.st67{fill:#9F908A;}
	.st68{fill:#91573E;}
	.st69{fill:#070704;}
	.st70{fill:#F5FC96;}
	.st71{fill:#9C9C53;}
	.st72{fill:#9A9A52;}
	.st73{fill:#F2F994;}
	.st74{fill:#A17628;}
	.st75{fill:#90573F;}
	.st76{fill:#090806;}
	.st77{fill:#523123;}
	.st78{fill:#7C4031;}
	.st79{fill:#ED866D;}
	.st80{fill:#F3E9E6;}
	.st81{fill:#4F3023;}
	.st82{fill:#060606;}
	.st83{fill:#89533B;}
	.st84{fill:#050403;}
	.st85{fill:#090909;}
	.st86{fill:#EDCF5E;}
	.st87{fill:#050504;}
	.st88{fill:#060504;}
	.st89{fill:#955A41;}
	.st90{fill:#080703;}
	.st91{fill:#090807;}
	.st92{fill:#070603;}
	.st93{fill:#0A0905;}
	.st94{fill:#937335;}
	.st95{fill:#955A40;}
	.st96{fill:#955940;}
	.st97{fill:#EDD05E;}
	.st98{fill:#8F7032;}
	.st99{fill:#945940;}
	.st100{fill:#EED05E;}
	.st101{fill:#503123;}
	.st102{fill:#EEEEEE;}
	.st103{fill:#0D0C0A;}
	.st104{fill:#E3C659;}
	.st105{fill:#967535;}
	.st106{fill:#9D7D38;}
	.st107{fill:#745A29;}
	.st108{fill:#847334;}
	.st109{fill:#907134;}
	.st110{fill:#E5C85B;}
	.st111{fill:#503124;}
	.st112{fill:#927133;}
	.st113{fill:#E0DDD4;}
	.st114{fill:#987836;}
	.st115{fill:#977636;}
	.st116{fill:#CCC4A4;}
	.st117{fill:#523224;}
	.st118{fill:#0B0908;}
	.st119{fill:#8F7135;}
	.st120{fill:#050404;}
	.st121{fill:#EDD05D;}
	.st122{fill:#F3FA94;}
	.st123{fill:#9A9A51;}
	.st124{fill:#999951;}
	.st125{fill:#937334;}
	.st126{fill:#FAF0EE;}
	.st127{fill:#F3FA95;}
	.st128{fill:#989851;}
	.st129{fill:#A2792A;}
	.st130{fill:#F1F893;}
	.st131{fill:#A17729;}
	.st132{fill:#050502;}
	.st133{fill:#947335;}
	.st134{fill:#917233;}
	.st135{fill:#9B9B52;}
	.st136{fill:#F9EFEC;}
	.st137{fill:#9A782F;}
	.st138{fill:#979752;}
	.st139{fill:#F2F893;}
	.st140{fill:#8C8E4F;}
	.st141{fill:#B5B96E;}
	.st142{fill:#0F0F09;}
	.st143{fill:#9C9C52;}
	.st144{fill:#F5FB95;}
	.st145{fill:#F3F994;}
	.st146{fill:#A17728;}
	.st147{fill:#917134;}
	.st148{fill:#090706;}
	.st149{fill:#8E6F32;}
	.st150{fill:#93593F;}
	.st151{fill:#907033;}
	.st152{fill:#060505;}
	.st153{fill:#C8C3AF;}
	.st154{fill:#533324;}
	.st155{fill:#533426;}
	.st156{fill:#0E0C0A;}
	.st157{fill:#907133;}
	.st158{fill:#583627;}
	.st159{fill:#0A0907;}
	.st160{fill:#573526;}
	.st161{fill:#0C0B09;}
	.st162{fill:#503023;}
	.st163{fill:#543325;}
	.st164{fill:#B7B3A1;}
</style>
<g>
	<path class="st35" d="M473,988.9c-29.9,2.9-59.1-0.8-88-8.2c-20.9-5.4-40.9-12.8-59.5-23.8c-18.2-10.7-33.3-24.7-41.7-44.4
		c-2.6-6-5.6-9.5-11.7-11c-3.5-0.9-6.9-2.5-10-4.3c-8.6-5.1-9.8-15.2-2.1-21.6c3.9-3.2,4.3-5.5,0.7-8.8c-0.2-0.2-0.4-0.5-0.6-0.8
		c-10.8-14-8.2-26.2,8-33.8c4.4-2.1,4.8-4.3,4.6-8.6c-0.8-17.5,0.6-34.9,3.9-52.2c0.2-0.8,0.3-1.6,0.5-2.8
		c-4.3,1.6-8.3,3.1-12.3,4.4c-4.9,1.6-9.8,1.3-14.8,0c-2.4-0.6-4.5-1.7-4.6-4.5c-0.1-3.2,2.5-4.1,5-4.6c3.4-0.7,6.9-1.1,10.3-1.7
		c3.1-0.5,3.7-1.4,1.7-4.4c-18.8-28.5-33.8-58.8-43.5-91.6c-7.8-26.6-12.4-53.8-16.7-81.1c-6.9-43.9-10-88-9.3-132.4
		c0.7-43.1,10.5-84.4,23.3-125.1c9-28.6,19.7-56.5,33.9-83c11.8-22.2,26.7-41.8,48-55.8c9.3-6.1,19.5-10,30.5-11.6
		c17.4-2.6,31,4.1,39.4,19.8c5.9,11,8.2,23.2,9.9,35.4c4.2,31.2,5.3,62.7,8,94.1c4.1,47.4,6.3,95.1,17.1,141.7
		c5.7,24.7,13.6,48.7,26,71c5,9,11,17.3,18.2,24.7c3.4,3.5,7.2,0.8,10.8,1c4.5,0.3,6.3-1.9,7.7-5.8c3.7-10.2,9-19.6,14.4-29
		c36.2-62.7,73-125,115.9-183.6c36.1-49.3,74.3-96.7,120.4-137.1c9.5-8.4,19.4-16.3,30-23.2c6.6-4.3,13.7-7.5,21.5-8.9
		c10.9-1.9,20,1.2,27.2,9.8c9.7,11.5,12.5,25.6,14.6,39.8c3.7,25.2,2.1,50.6,0.5,75.8c-2.7,41.7-8.5,83.1-13.1,124.7
		c-4.7,41.9-10.5,83.5-18.2,125c-7.8,41.8-20,82.1-39.4,120c-10.6,20.7-23.2,40-39.7,56.6c-0.7,0.3-1.1,0.9-0.5,1.4
		c0.9,0.8,1.8,0.4,2.4-0.5c2.9-1,5.9-1.2,8.9-0.8c9.9,1,15.1,7.8,13.6,17.6c-1.1,7.4-4.6,13.8-8.4,20.1c-0.9,1.5-1.8,3.1-2.8,4.6
		c1.7,1.2,3.1,0.3,4.5,0.1c16-3.1,25.3,0.6,28.4,21.3c1.1,7.7-0.6,15.2-2.5,22.7c-6.6,24.6-20.2,45.1-37.3,63.4
		c-16.1,17.1-32.9,33.5-51.6,47.7c-32.6,24.7-70.1,39-109,50.1c-19,5.5-38.3,10.2-58.1,11.6c-4.1,0.3-8.3,0.3-12.5,0.4
		C474.3,987.9,473.7,988,473,988.9z M383.8,826.8c-0.2-6.6-3.1-9-9.4-8c-6.3,1-12.3,9-12.1,16c0.6,4.1,2,7.6,7.2,6.8
		C375.5,840.7,382.5,833.4,383.8,826.8z M312.9,257.3c-5,1.7-9.1,4.8-12.9,8.2c-10.8,9.7-19,21.3-25.8,33.9
		c-29.8,55.3-41.9,115.1-43.8,177.3c-0.5,17.6,1.5,35.1,3.6,52.6c3.4,28.6,6.9,57.2,12.2,85.6c3.4,18.4,8.8,36.1,16.8,54.1
		c0.7-9.9,1.5-19,1.9-28c0.3-7.2,0-7.4,7.4-8.1c13.2-1.3,26.4-3.1,39.5-5.6c1.6-0.2,3.3-0.5,4.9-0.6c1.6-0.2,2.1-0.9,1.4-2.3
		c-6-12.3-3.9-24.6-0.3-36.9c0.8-2.6,0.7-3.5-2.6-2.9c-8.7,1.6-15.3-2.5-18.2-10.9c-1.5-4.3-2.1-8.7-1.5-13.3
		c1.1-8.6,2.9-17,6.2-25.1c1.2-3,0.6-3.8-2.5-4.6c-9.7-2.4-16.7-8-18.9-18.3c-0.9-4.4-1.2-8.9-1.2-13.4c0.1-9.7,2.9-18.9,4.7-28.3
		c10.6-25.6,25.2-48.5,46-67.1c1.5-1.4,2.2-2.8,2-4.7c1.8-1.1,1.1-3,1.3-4.5c2.1-16.7,3.3-33.4,4.3-50.1c1.2-20.1,2.7-40.2,0.5-60.3
		c-0.7-6.9-2-13.8-4.8-20.3C328.7,254.3,322.2,252.2,312.9,257.3z M323.9,623.1c2.6,3.9,5,2.4,7.3-0.3c4-4.7,8.3-9,13.1-13
		c20-16.3,42.9-27,67.2-35c8.2-2.7,16.7-4.6,26-6.7c-6.1-4.2-9.1-10-13.7-14.2c-0.3-0.8-0.4-1.6-0.8-2.3c-15.4-25-24.4-52.4-31-80.7
		c-10.7-45.7-13-92.5-17-139.1c-2.7-32-4.1-64.1-8.1-96c-1.4-11.1-3.4-22.1-8.4-32.2c-5.8-11.7-13.9-16-26.7-14.8
		c-10.5,1-19.9,5-28.6,10.9c-16.8,11.3-29.2,26.7-39.1,44.1c-14.6,25.9-25,53.5-34.9,81.5c-21.1,60-28.4,121.6-23.8,184.8
		c2.4,34.1,7.1,67.8,12.8,101.5c7.4,43.5,20.3,85.1,43,123.2c3.2,5.8,6.4,11.6,9.8,17.3c2.9,4.9,4.8,4.7,8.2,0.1
		c1.2-1.7,1.1-3.4,1-5.2c-0.3-5.8-0.5-11.6-1-17.4c-0.3-3.4,2.7-7.9-0.1-9.9c-2.5-1.8-7-0.9-10.6-1.1c-4.8-1.9-6-5.2-5.9-10.5
		c0.4-14,1.7-27.9-5.3-41.6c-13.8-27.2-16.7-57.3-21.2-87c-2.2-14.4-3.4-29-5.3-43.4c-3.1-23.6-5.3-47.1-4.1-71
		c1.4-26.8,4.4-53.2,10.4-79.3c7.9-34.3,19.8-67.1,38.2-97.2c9.1-14.9,19.8-28.5,36.2-36.2c11.9-5.6,21.2-2.2,26.3,10
		c3.5,8.3,4.8,17.2,5.4,26.2c1.1,14.6,0.8,29.2,0.1,43.9c-1.1,22.1-2.1,44.2-5.4,66.1c-0.4,2.9-0.1,6.2-2.9,8.2
		c-8.8,6.5-15.6,15-22,23.7c-13.6,18.6-24.4,38.4-27.7,61.6c-2.7,18.7,1.3,26.7,16.7,33.6c2.5,1.1,3.3,0.6,4.5-1.6
		c2.5-4.9,5.2-9.7,8.1-14.3c1.2-1.9,2.6-5.6,5.4-3.9c2.9,1.8-0.1,4.5-1.1,6.5c-6.7,13.6-13.8,26.9-16.5,42.1c-1,5.9-2,11.8,0.5,17.6
		c1.5,3.5,3.9,7,8,6.3c4.4-0.7,9.8,0.2,12.2-5.6c2.3-5.3,5.2-10.4,8.7-15.1c1.1-1.5,2.9-3.1,4.5-2c1.9,1.2,0,3-0.7,4.4
		c-4.9,10-10.4,19.7-13.3,30.5C319.7,601.7,318.1,612.6,323.9,623.1z M392.3,825.9c0.2,11-6.8,17.3-15.3,22.1
		c-7.5,4.2-14.9,3.5-21.6-4.2c0,3.6,0,6,0,8.5c0.3,5.2,0.9,10.2,2.7,15.1c0.8,2.1,3.9,4.6,1.1,6.5c-2.8,1.9-4.6-1.5-6.6-3
		c-0.2-0.2-0.6-0.2-1.1-0.3c-1.2,4.9-5,7-9.4,8.5c-8.8,2.9-17.6,2.6-26.5,0.6c-9.8-2.2-18.4-6.9-26.4-13.9c-1.1,7.4,0.4,14.1,0,20.9
		c0,1.5-0.6,3.2,0.7,4.5c0.1,1,0.1,2,0.2,3c0.1,1.3-0.4,2.8,0.7,3.9c0.1,0.7,0.2,1.3,0.3,2c0.2,0.7,0.4,1.3,0.6,2
		c7,20.3,21.3,34.4,39.2,44.8c35.4,20.6,74.2,30,114.8,31.7c46.1,1.9,90.4-7.6,133-24.6c25.7-10.3,51.3-20.8,72.6-39.2
		c19.3-16.6,37.5-34.4,54.4-53.6c12.6-14.2,21.6-30.3,26.6-48.5c2.1-7.4,3.8-14.9,1.5-22.6c-2.2-7.4-4.4-8.8-12-7.4
		c-8.1,1.4-15.4,5.1-23.1,7.8c-3.3,1.1-6.7,2-9-1.4c-2.3-3.5-0.8-6.6,1.9-9.4c2.1-2.1,4.1-4.4,6-6.7c6.2-7.7,11.9-15.6,14.9-25.2
		c1.7-5.5,0.4-7-5.3-6.8c-8.7,0.4-16.4,4.1-23.9,8c-11.3,6-22.4,12.3-33.3,19.1c-3.1,1.9-6,2.6-7.1-2.2c1-3.2,3.4-5.3,5.8-7.4
		c9.9-8.4,20.6-15.8,32.4-21.5c1.4-0.7,3.2-1,3.4-3.2c0.2-3.4,2.4-5.8,4.3-8.3c6.4-8.3,13.8-15.8,20-24.3
		c19.6-26.8,32.9-56.7,43.3-87.9c15.4-46.3,22.5-94.5,28.8-142.7c6.8-52.5,13.2-105.1,17.6-157.8c2.3-27.4,4.1-54.9,0.5-82.3
		c-1.5-11.4-3.4-22.8-10-32.7c-5.9-9-12.4-11.2-22.8-8.1c-9,2.7-16.5,7.9-23.7,13.6c-32.7,25.5-62.1,54.6-88.2,86.8
		c-53.2,65.5-100.8,135-142.3,208.5c-13.4,23.8-27.8,47-40.7,71c-1.8,3.4-4.1,5.9-8.3,6.4c-6.6,0.8-13.2,1.7-19.7,3
		c-34.6,6.8-67.4,18.2-96.5,38.8c-2.1,1.5-4.5,2.7-6,5.6c7.5-0.6,14.4-1.4,21.4-1.7c7.4-0.3,9.5,1.7,10.4,9
		c-1.4,10.7-2.7,21.4-4.3,32.1c-2.1,14.1-3.7,28.4-7,42.3c-1.3,5.4-4.4,8.2-10,8.8c-8.6,0.9-17.1,2.1-25.8,2.3
		c-10.5,0.2-20.9,1.2-31.3,2.2c-7.8,0.7-7.8,1-6.5,8.8c-0.1,3.3-0.1,6.7-0.2,10c-0.1,2.8,0.2,4.7,3.8,2.8c2.2-1.1,4.6-0.7,6.4,1.3
		c1.5,1.9,1.5,4.1,0.4,6.1c-7.9,14-12,29-13.3,45c-1.3,16.1-2.9,32,2.6,47.9c5.8,16.9,18,24.9,34.5,28.7c9.4,2.1,17.6-1.8,26.3-3.5
		c0-0.3,0.1-0.7,0-1c-8.9-20.4-1.1-45.5,17.4-57.9c5.9-3.9,7.8-8.6,7.8-14.9c-0.2-14.6-1.4-28.9-9.2-41.9c-1.7-2.9-2.2-6.4,1.2-8.4
		c3.2-1.8,6.1-0.4,8.3,2.4c2.6,3.3,4.3,7.1,5.7,11.1c4.8,13.4,6,27.3,5.1,41.3c-0.3,4,0.7,4.6,4.4,4.4c6-0.3,12-0.3,18,0.5
		c4.4,0.6,5.2-0.7,5.6-4.7c1.9-20.2,9.6-38.3,21-54.9c1.9-2.8,4.2-5.2,7.3-6.6c1.9-0.9,3.9-1.5,5.6,0.1c2,1.7,1.5,3.9,0.7,6
		c-0.4,0.9-0.9,1.8-1.4,2.6c-18.9,26.4-25.7,55.9-22,88c1.3,11.1,2.3,22.4,10.2,31.3c11.2,12.4,25.3,16.1,41.6,14.2
		c19-2.2,34.7-9.1,43.2-27.6c9.2-20,14.9-41,15.8-63c0.7-16.5-0.6-32.9-5.6-48.9c-0.9-3-1-6.2,2.1-8c3.3-1.9,6.2-0.8,8.3,2.2
		c1.3,1.8,3.1,2.5,5.1,2.8c7.2,1.2,13.9,0.2,19.8-4.5c4.8-3.8,9.6-7.7,13.2-12.9c1.2-1.7,2.6-3.4,4.9-2.2c2.3,1.2,1.5,3.4,0.9,5.3
		c-5.5,17.8-18.4,27-36.7,25.9c-3-0.2-3.2,0.7-2.9,3.3c0.8,6.1,1.5,12.2,2,18.4c1.8,20.5-1.1,40.5-6.5,60.2
		c-2.7,7.8-5,15.8-8.5,23.4c-8.7,18.9-22.4,31.5-43.4,35.1c-4.4,0.7-8.9,1.5-13.3,2c-24.6,3-54.5-11.1-59.5-42.4
		c-1.7-10.7-2.9-21.4-2.8-32.3c0-1.6,0.9-4-2.2-3.9c-7.4,0.4-14.8,0.8-23.2,1.3C390,816,392.6,820.3,392.3,825.9z M268,695.8
		c0.1,0,0.2,0,0.3,0c0,3.3,0.4,6.7-0.1,10c-0.6,4.6,1.5,6,5.5,5.9c1.5,0,3,0.1,4.5,0c22.6-1.8,45.1-4,67.7-5.4
		c5.9-0.4,7.4-2.9,8.3-8c4-21.8,7.5-43.6,10.3-65.6c0.4-3-0.8-3-2.9-2.9c-4.8,0.4-9.6,0.9-14.4,1.2c-24.8,1.8-49,7.2-73.7,9.5
		c-2.6,0.2-3.3,1.3-3.4,3.7C269.4,661.6,268.7,678.7,268,695.8z M278.9,896.4c0-7.4,0-13.9,0-20.4c0.1-11.6,2.7-23.4-3.6-34.6
		c-2.9-5.1-1.9-5.7-6.8-2.2c-1.1,0.8-2.1,1.6-3.1,2.5c-6.3,5.7-6.8,10-1.9,17c2.1,3,4.6,5.7,6.9,8.6c3,3.7,2.7,7.3-0.7,10.6
		c-1.1,1-2.1,2.2-3.2,3.1c-3,2.7-2.5,5.3,0.5,7.4C270.6,891.1,274.4,893.5,278.9,896.4z M711.4,773.3c0.3,0.1,0.6,0.4,0.8,0.3
		c0.2-0.1,0.3-0.5,0.4-0.8c-0.3-0.1-0.6-0.4-0.8-0.3C711.6,772.6,711.5,773,711.4,773.3z"/>
	<path class="st22" d="M702,730c-0.7,0.9-1.5,1.3-2.4,0.5c-0.6-0.6-0.2-1.1,0.5-1.4C700.7,729.4,701.3,729.7,702,730z"/>
	<path class="st22" d="M473,988.9c0.6-1,1.3-1,2,0C474.3,988.9,473.7,988.9,473,988.9z"/>
	<path class="st1" d="M372.3,630.8c-0.9-7.3-3-9.3-10.4-9c-6.9,0.3-13.8,1.1-21.4,1.7c1.6-2.9,3.9-4.2,6-5.6
		c29.1-20.5,61.9-32,96.5-38.8c6.5-1.3,13.1-2.2,19.7-3c4.2-0.5,6.5-3,8.3-6.4c13-24,27.3-47.3,40.7-71
		c41.5-73.5,89.2-143,142.3-208.5c26.1-32.1,55.4-61.2,88.2-86.8c7.2-5.6,14.8-10.9,23.7-13.6c10.3-3.1,16.8-0.9,22.8,8.1
		c6.5,9.9,8.5,21.3,10,32.7c3.5,27.4,1.8,55-0.5,82.3c-4.4,52.8-10.8,105.3-17.6,157.8c-6.2,48.2-13.4,96.3-28.8,142.7
		c-10.4,31.2-23.7,61.1-43.3,87.9c-6.2,8.5-13.6,15.9-20,24.3c-1.9,2.5-4.1,4.9-4.3,8.3c-0.1,2.2-1.9,2.5-3.4,3.2
		c-11.8,5.7-22.4,13.1-32.4,21.5c-2.4,2.1-4.8,4.2-5.8,7.4c-5.8,3.3-10.8,7.7-16,11.9c-17.9,14.6-37.1,26.9-58.7,35.4
		c-10.3,4.1-20.8,8-29.6,15.1c5.5-19.7,8.4-39.7,6.5-60.2c-0.6-6.1-1.2-12.3-2-18.4c-0.3-2.5-0.1-3.4,2.9-3.3
		c18.3,1.1,31.2-8.1,36.7-25.9c0.6-1.9,1.4-4.1-0.9-5.3c-2.3-1.2-3.7,0.5-4.9,2.2c-3.6,5.1-8.3,9-13.2,12.9
		c-5.9,4.7-12.6,5.7-19.8,4.5c-2-0.3-3.8-1-5.1-2.8c-2.1-3-5-4-8.3-2.2c-3.2,1.8-3.1,5-2.1,8c5,15.9,6.3,32.4,5.6,48.9
		c-0.9,22-6.6,43-15.8,63c-8.5,18.5-24.1,25.4-43.2,27.6c-16.3,1.9-30.5-1.8-41.6-14.2c-7.9-8.8-8.9-20.2-10.2-31.3
		c-3.7-32.1,3-61.6,22-88c0.6-0.8,1.1-1.7,1.4-2.6c0.8-2.1,1.3-4.3-0.7-6c-1.8-1.5-3.7-1-5.6-0.1c-3.1,1.5-5.4,3.9-7.3,6.6
		c-11.3,16.6-19,34.7-21,54.9c-0.4,4-1.2,5.3-5.6,4.7c-5.9-0.8-12-0.8-18-0.5c-3.7,0.2-4.7-0.4-4.4-4.4c0.9-14.1-0.2-28-5.1-41.3
		c-1.4-3.9-3.1-7.7-5.7-11.1c-2.2-2.8-5.1-4.2-8.3-2.4c-3.4,2-3,5.5-1.2,8.4c7.8,13,9,27.3,9.2,41.9c0.1,6.3-1.9,11-7.8,14.9
		c-18.5,12.4-26.3,37.5-17.4,57.9c0.1,0.3,0,0.6,0,1c-8.7,1.7-16.9,5.7-26.3,3.5c-16.5-3.7-28.7-11.7-34.5-28.7
		c-5.4-15.9-3.9-31.8-2.6-47.9c1.3-16,5.5-31,13.3-45c1.1-2,1.1-4.2-0.4-6.1c-1.7-2.1-4.2-2.5-6.4-1.3c-3.6,1.9-3.9,0-3.8-2.8
		c0.1-3.3,0.1-6.7,0.2-10c21.7-0.7,43.5-2,65.1-4.2c13.6-1.3,16.9-3.9,19.4-17.4c1.6-8.8,3.1-17.6,4.8-26.4
		c2.3-11.9,3.1-24,4.1-36.1C381.5,635.7,378.6,631.9,372.3,630.8z M560.4,629.8c-1-7.3-2.7-9-9.8-9c-35.6-0.1-71.2-0.1-106.8,1
		c-4.5,0.1-7.1,2.2-8.1,6.5c-1,4.6-1.7,9.2-1.7,13.8c-0.4,20.8,0.8,41.6-1.6,62.3c-0.5,3.9,1.7,6.3,5.6,6.9c1.5,4.4,5.3,5.2,9.1,5.7
		c13.5,1.7,27.1,2.8,40.6,4.3c19,2.2,38,4.2,57.2,3.8c13.1-0.3,16.6-2.6,19.3-15.3c2.5-11.7,2.6-23.8,3.9-35.6
		c0.9-7.9,2-15.9,1.7-23.8C569.4,642.6,569.3,634,560.4,629.8z M654.6,669.8c7.2,12.2,15.7,23.5,23.9,34.9c1.1,1.5,2.6,2.5,4.6,2.6
		c1.4,4.8,3.7,2.6,5.5,0.5c5.8-6.7,11-13.7,15.4-21.5c25.7-45.4,41-94.8,53.6-144.9c11.5-45.9,18.6-92.8,24.5-139.8
		c5.2-41.2,11-82.4,12.2-124c0.3-10-0.1-20-3.6-29.5c-2.9-8-8.7-11.1-16.9-9.5c-6.3,1.2-12.1,3.6-17.4,7.2
		c-16,10.6-29.5,23.6-39.4,40.3c-2,3.4-1,4.5,2.1,5.1c4.9,0.9,8.4,3.8,11.2,7.7c4,5.4,6.8,11.4,9.1,17.7c2.4,6.4,2.1,12.7-0.9,18.9
		c-4,8.2-9.4,15.3-16.3,21.2c-8.8,7.6-18.7,13.9-28.4,20.3c-1.4,0.9-3.1,1.9-2,3.9c1.1,2.1,2.9,1.2,4.3,0.3
		c3.7-2.2,7.3-4.5,11.1-6.7c1.1-0.6,2.2-2.2,3.4-1.5c5.1,3.1,11.2,3,16.4,5.6c7.3,3.5,10.6,10.3,8.3,18.2c-0.8,3-2.1,6-3.6,8.7
		c-8.7,15.6-19.8,29.3-34.3,39.8c-21.8,15.9-44.8,29.9-70.5,38.7c-1.5,0.5-3.2,0.8-2.9,2.7c0.3,2.1,2.2,1.6,3.6,1.6
		c3.6,0,6.8-1.5,10.1-2.6c13.2-4.6,25.4-11.3,37.5-18.5c2.9,9.1,3.2,9.6,1.8,15.2c-5.6,21.8-15.3,41.4-31.8,57.2
		c-17.9,17.1-39.7,27-62.8,34.5c-12,3.9-24,7.9-36.8,8.1c-1.5,0-3.3,0.4-3.5,2.1c-0.2,2.3,2,2.3,3.5,2.6c1.4,0.3,3,0.3,4.5,0.1
		c5.1-0.7,10.2-1.5,15.2-2.4c1.5-0.3,2.8-0.6,4.3,0.2c4.4,2.4,9.2,4.1,13.2,7c27.9,20.2,52.7,43.3,68.5,74.6
		C652.1,667.8,652.5,669.6,654.6,669.8z"/>
	<path class="st39" d="M538.5,828.2c8.8-7.1,19.3-11,29.6-15.1c21.6-8.5,40.8-20.8,58.7-35.4c5.1-4.2,10.2-8.6,16-11.9
		c1.1,4.8,4,4.1,7.1,2.2c10.9-6.8,22-13.1,33.3-19.1c7.5-4,15.2-7.6,23.9-8c5.7-0.3,7,1.3,5.3,6.8c-3,9.5-8.7,17.5-14.9,25.2
		c-1.9,2.3-3.9,4.6-6,6.7c-2.7,2.8-4.2,5.9-1.9,9.4c2.3,3.4,5.7,2.6,9,1.4c7.7-2.6,15-6.4,23.1-7.8c7.6-1.3,9.8,0.1,12,7.4
		c2.3,7.7,0.6,15.2-1.5,22.6c-5.1,18.2-14,34.3-26.6,48.5c-16.9,19.1-35.1,36.9-54.4,53.6c-21.3,18.3-46.9,28.9-72.6,39.2
		c-42.7,17-87,26.5-133,24.6c-40.5-1.7-79.4-11.1-114.8-31.7c-18-10.5-32.3-24.6-39.2-44.8c-0.2-0.7-0.4-1.3-0.6-2
		c-0.1-0.7-0.2-1.3-0.3-2c-0.2-1.3-0.5-2.6-0.7-3.9c-0.1-1-0.1-2-0.2-3c0.2-1.6,0.1-3.1-0.7-4.5c0.4-6.7-1.1-13.4,0-20.9
		c7.9,7,16.5,11.7,26.4,13.9c8.9,2,17.7,2.4,26.5-0.6c4.4-1.5,8.2-3.6,9.4-8.5c0.5,0.1,0.9,0.2,1.1,0.3c2,1.5,3.9,4.9,6.6,3
		c2.8-1.9-0.3-4.4-1.1-6.5c-1.7-4.9-2.4-10-2.7-15.1c0.3,0.1,0.7,0,1,0.2c16.8,11.1,36.8-6.1,37.5-21c0.1-1.9,1.4-4.4-1.6-5.5
		c0.4-5.6-2.3-9.8-6.9-14.3c8.4-0.5,15.8-0.9,23.2-1.3c3.2-0.2,2.2,2.3,2.2,3.9c-0.1,10.8,1.1,21.5,2.8,32.3
		c5.1,31.3,35,45.4,59.5,42.4c4.5-0.5,8.9-1.3,13.3-2c21.1-3.5,34.7-16.2,43.4-35.1C533.5,844,535.8,836,538.5,828.2z M392.6,927.8
		c0.9,1.7,1.6,3.2,2.5,4.6c4.3,7.3,9.7,13.6,17.5,17.2c8.4,3.9,16.9,1.6,22.2-5.6c8.7-12,3.8-40.9-8.5-49.4c-2-1.4-4.2-2.3-6.4-0.4
		c-2.2,1.9-1.4,4.1-0.4,6.3c2.2,4.8,4.2,9.7,6.2,14.7c2,5.2,3.1,10.6,2.1,16.1c-1.5,8.8-7.2,11-14.2,5.5
		c-7.7-6.1-11.5-14.5-13.3-23.9c-0.7-3.6-1.5-7.1-5.7-7.7c-4.7-0.6-6.1,3.1-7.6,6.5c-2.7,6.1-4.8,12.4-8.8,17.8
		c-2.4,3.2-4.8,7.3-9.3,6.5c-4.7-0.9-4.8-5.8-5.7-9.6c-2.5-11-0.1-21.5,3.2-31.9c0.9-2.7,2-5.3,1.8-8.2c-0.3-4.1-3.6-5.9-7-3.5
		c-1.3,0.9-2.5,2.3-3.2,3.7c-7.7,15.7-9.9,32.1-4.2,48.9c4.6,13.7,17.8,16.7,28.5,6.9C386.7,938.3,389.6,933.3,392.6,927.8z"/>
	<path class="st3" d="M261.1,734.9c-22.7-38.1-35.6-79.7-43-123.2c-5.7-33.7-10.4-67.4-12.8-101.5c-4.5-63.2,2.7-124.8,23.8-184.8
		c9.9-28,20.2-55.7,34.9-81.5c9.9-17.4,22.3-32.7,39.1-44.1c8.7-5.9,18.1-9.9,28.6-10.9c12.8-1.2,20.9,3.1,26.7,14.8
		c5.1,10.1,7,21.2,8.4,32.2c4,31.9,5.4,64,8.1,96c4,46.6,6.3,93.4,17,139.1c6.6,28.3,15.7,55.7,31,80.7c0.4,0.7,0.6,1.5,0.8,2.3
		c-2.3-0.5-4.2,0.6-6.3,1.3c-19.7,6.4-37.1,17-53.5,29.4c-14.9,11.2-29.2,23.1-40.1,38.5c-5.9-10.6-4.3-21.4-1.4-32.4
		c2.8-10.9,8.3-20.6,13.3-30.5c0.7-1.3,2.6-3.1,0.7-4.4c-1.7-1.1-3.4,0.5-4.5,2c-3.4,4.7-6.4,9.8-8.7,15.1
		c-2.5,5.8-7.9,4.9-12.2,5.6c-4.1,0.7-6.4-2.8-8-6.3c-2.5-5.8-1.5-11.7-0.5-17.6c2.6-15.2,9.8-28.5,16.5-42.1c1-2,4-4.7,1.1-6.5
		c-2.8-1.7-4.2,1.9-5.4,3.9c-2.9,4.6-5.6,9.5-8.1,14.3c-1.1,2.2-1.9,2.7-4.5,1.6c-15.4-6.9-19.3-14.9-16.7-33.6
		c3.3-23.3,14.1-43.1,27.7-61.6c6.4-8.7,13.1-17.2,22-23.7c2.7-2,2.5-5.3,2.9-8.2c3.2-21.9,4.3-44,5.4-66.1
		c0.7-14.7,1-29.3-0.1-43.9c-0.7-9-1.9-17.9-5.4-26.2c-5.1-12.1-14.4-15.6-26.3-10c-16.4,7.7-27.1,21.3-36.2,36.2
		c-18.4,30.1-30.3,63-38.2,97.2c-6,26.1-9,52.5-10.4,79.3c-1.2,23.9,1,47.4,4.1,71c1.9,14.5,3.1,29,5.3,43.4
		c4.4,29.6,7.4,59.8,21.2,87c6.9,13.7,5.7,27.5,5.3,41.6c-0.1,5.4,1,8.6,5.9,10.5C264.7,723.5,263.9,729.7,261.1,734.9z"/>
	<path class="st2" d="M331.8,399c0.2,2-0.5,3.4-2,4.7c-20.8,18.6-35.4,41.5-46,67.1c-0.4,0.2-1.1,0.4-1.2,0.7
		c-6.8,14.3-12,29.1-10.1,45.1c1.5,13.3,5.6,21.5,20.6,23.5c2.2,0.3,2.3,1.3,1.8,3.1c-0.5,1.4-0.8,2.9-1.2,4.3
		c-2.6,10.6-4.5,21.2-1.3,31.9c2.4,8.4,7.8,12.6,16.4,12.5c4.4-0.1,4.7,1.1,3.8,5.1c-2,10-4.4,20.2-0.8,30.5
		c-13.1,2.4-26.3,4.3-39.5,5.6c-7.4,0.7-7.1,0.8-7.4,8.1c-0.3,9-1.2,18-1.9,28c-8-18-13.3-35.7-16.8-54.1
		c-5.3-28.3-8.7-56.9-12.2-85.6c-2.1-17.5-4.1-35-3.6-52.6c1.9-62.2,14-122,43.8-177.3c6.8-12.7,15.1-24.3,25.8-33.9
		c3.8-3.4,7.9-6.6,12.9-8.2c0.5,3.4,4,3.1,5.9,4.8c5.5,5,7.6,11.7,9.2,18.5c3.7,15.9,4.3,32.2,4.9,48.4c0.7,20.1-0.4,40.2-1.6,60.2
		C331,392.5,330.3,395.8,331.8,399z"/>
	<path class="st4" d="M268,695.8c0.7-17.1,1.4-34.3,2-51.4c0.1-2.4,0.8-3.5,3.4-3.7c24.7-2.3,49-7.8,73.7-9.5
		c4.8-0.3,9.6-0.8,14.4-1.2c2.1-0.2,3.3-0.1,2.9,2.9c-2.9,21.9-6.4,43.8-10.3,65.6c-0.9,5.1-2.5,7.6-8.3,8
		c-22.6,1.5-45.1,3.6-67.7,5.4c-1.5,0.1-3,0-4.5,0c-4,0.1-6.1-1.4-5.5-5.9c0.4-3.3,0.1-6.7,0.1-10
		C268.2,695.8,268.1,695.8,268,695.8z"/>
	<path class="st7" d="M372.3,630.8c6.3,1.1,9.2,4.8,8.6,12.3c-1,12.1-1.9,24.2-4.1,36.1c-1.7,8.8-3.1,17.6-4.8,26.4
		c-2.5,13.5-5.8,16.1-19.4,17.4c-21.7,2.1-43.4,3.5-65.1,4.2c-1.2-7.7-1.3-8,6.5-8.8c10.4-1,20.9-1.9,31.3-2.2
		c8.7-0.2,17.2-1.3,25.8-2.3c5.6-0.6,8.7-3.3,10-8.8c3.3-13.9,4.9-28.2,7-42.3C369.7,652.3,370.9,641.6,372.3,630.8z"/>
	<path class="st7" d="M323.9,623.1c10.9-15.4,25.2-27.3,40.1-38.5c16.4-12.3,33.8-22.9,53.5-29.4c2-0.7,4-1.7,6.3-1.3
		c4.6,4.3,7.6,10,13.7,14.2c-9.3,2.1-17.7,4-26,6.7c-24.3,8-47.2,18.6-67.2,35c-4.8,3.9-9.1,8.2-13.1,13
		C329,625.5,326.5,627,323.9,623.1z"/>
	<path class="st23" d="M311.6,627.5c-3.6-10.2-1.2-20.4,0.8-30.5c0.8-4,0.6-5.2-3.8-5.1c-8.6,0.1-14-4.1-16.4-12.5
		c-3.1-10.7-1.2-21.4,1.3-31.9c0.4-1.4,0.7-2.9,1.2-4.3c0.6-1.7,0.4-2.8-1.8-3.1c-14.9-2-19-10.1-20.6-23.5
		c-1.8-16,3.4-30.8,10.1-45.1c0.2-0.4,0.8-0.5,1.2-0.7c-1.8,9.4-4.7,18.6-4.7,28.3c0,4.5,0.2,9,1.2,13.4
		c2.2,10.3,9.2,15.9,18.9,18.3c3.2,0.8,3.7,1.6,2.5,4.6c-3.3,8-5,16.5-6.2,25.1c-0.6,4.6,0,9,1.5,13.3c2.9,8.5,9.4,12.5,18.2,10.9
		c3.3-0.6,3.3,0.2,2.6,2.9c-3.6,12.3-5.7,24.7,0.3,36.9c0.7,1.4,0.2,2.2-1.4,2.3C314.9,627,313.2,627.3,311.6,627.5z"/>
	<path class="st23" d="M331.8,399c-1.5-3.2-0.7-6.5-0.5-9.8c1.2-20.1,2.3-40.2,1.6-60.2c-0.6-16.2-1.2-32.5-4.9-48.4
		c-1.6-6.8-3.7-13.5-9.2-18.5c-1.9-1.7-5.4-1.4-5.9-4.8c9.3-5.1,15.8-3,20.1,6.5c2.9,6.4,4.1,13.3,4.8,20.3
		c2.2,20.1,0.7,40.2-0.5,60.3c-1,16.8-2.2,33.5-4.3,50.1C332.8,396.1,333.6,397.9,331.8,399z"/>
	<path class="st80" d="M278.9,896.4c-4.5-3-8.3-5.3-11.9-7.9c-2.9-2.1-3.5-4.7-0.5-7.4c1.1-1,2.1-2.1,3.2-3.1
		c3.4-3.3,3.6-6.9,0.7-10.6c-2.3-2.9-4.8-5.6-6.9-8.6c-4.9-6.9-4.4-11.2,1.9-17c1-0.9,2-1.8,3.1-2.5c4.9-3.5,4-2.9,6.8,2.2
		c6.3,11.2,3.6,23,3.6,34.6C278.9,882.5,278.9,889,278.9,896.4z"/>
	<path class="st7" d="M261.1,734.9c2.7-5.3,3.6-11.4,7.3-16.2c3.6,0.3,8.1-0.7,10.6,1.1c2.7,2-0.3,6.4,0.1,9.9
		c0.6,5.8,0.7,11.6,1,17.4c0.1,1.8,0.3,3.5-1,5.2c-3.4,4.6-5.3,4.7-8.2-0.1C267.5,746.5,264.4,740.7,261.1,734.9z"/>
	<path class="st23" d="M392.3,825.9c3.1,1.1,1.7,3.6,1.6,5.5c-0.8,14.9-20.8,32.1-37.5,21c-0.3-0.2-0.6-0.1-1-0.2c0-2.4,0-4.9,0-8.5
		c6.7,7.7,14.1,8.4,21.6,4.2C385.5,843.2,392.5,836.9,392.3,825.9z"/>
	<path class="st34" d="M362.2,834.9c-0.2-7,5.8-15,12.1-16c6.3-1,9.2,1.4,9.4,8c-2.5,0.6-4.6,2.1-6.4,3.7
		C373,834.6,367.9,835.7,362.2,834.9z"/>
	<path class="st81" d="M362.2,834.9c5.7,0.8,10.8-0.3,15.2-4.3c1.8-1.6,3.9-3.1,6.4-3.7c-1.3,6.5-8.3,13.9-14.4,14.9
		C364.2,842.5,362.8,839,362.2,834.9z"/>
	<path class="st22" d="M711.4,773.3c0.1-0.3,0.2-0.7,0.4-0.8c0.2-0.1,0.5,0.2,0.8,0.3c-0.1,0.3-0.2,0.7-0.4,0.8
		C712,773.7,711.6,773.4,711.4,773.3z"/>
	<path class="st22" d="M289.2,886.5c0.8,1.4,0.9,2.9,0.7,4.5C288.6,889.6,289.2,888,289.2,886.5z"/>
	<path class="st22" d="M290.1,894c0.2,1.3,0.5,2.6,0.7,3.9C289.7,896.8,290.1,895.3,290.1,894z"/>
	<path class="st22" d="M291.1,899.9c0.2,0.7,0.4,1.3,0.6,2C291.5,901.3,291.3,900.6,291.1,899.9z"/>
	<path class="st2" d="M683.2,707.3c-2,0-3.5-1-4.6-2.6c-8.3-11.4-16.8-22.7-23.9-34.9c0.7-1.8,0.4-3.5-0.4-5.3
		c-4.8-10.6-10-20.9-17.2-30.2c-14.4-18.5-31-34.7-50.2-48.2c4.8-3,10.4-4.2,15.6-6.1c29.9-11,51.3-31.8,67.2-58.7
		c0.9-1.5,2.5-3.1,1.6-5.2c5.7-14.5,13.7-28.4,11.9-44.9c1.8,0,3.1-1.1,4.5-1.9c7.6-4.3,14.1-9.9,20.6-15.6
		c14.3-12.5,26.1-27.1,33.5-44.7c1.7-3.9,4-8.5,0.5-12.9c0.7-12.5-3.5-19-15.3-24.2c-0.3-1.1,0.4-1.9,1.1-2.5
		c7-6.1,11.8-13.8,16.7-21.6c4-6.3,6-13.1,5-20.3c-0.9-6.5-1.2-13.5-6.8-18.4c-4.9-9.2-9.2-19-20.2-22.9
		c8.7-12.4,18.6-22.8,30.4-31.5c5.9-4.3,12-8.4,19.3-10c7.5-1.7,10.4-0.2,12.8,7.1c2.5,7.3,3.5,15,3.3,22.6
		c-0.4,28.1-3.9,56-6.7,83.9c-4.3,41.7-10.9,83.1-17.5,124.5c-6.1,38.4-16.2,75.8-28.6,112.7C722.6,634.9,707.3,673.1,683.2,707.3z"
		/>
	<path class="st12" d="M586.9,586.1c19.1,13.6,35.7,29.8,50.2,48.2c7.2,9.2,12.4,19.6,17.2,30.2c0.8,1.8,1.1,3.5,0.4,5.3
		c-2.1-0.2-2.5-2-3.2-3.4c-15.8-31.3-40.6-54.5-68.5-74.6c-4-2.9-8.8-4.6-13.2-7c-1.5-0.8-2.8-0.5-4.3-0.2
		c-5.1,0.9-10.1,1.7-15.2,2.4c-1.5,0.2-3,0.2-4.5-0.1c-1.5-0.3-3.7-0.3-3.5-2.6c0.2-1.8,1.9-2.1,3.5-2.1c12.8-0.2,24.8-4.2,36.8-8.1
		c23.1-7.5,44.9-17.4,62.8-34.5c16.5-15.8,26.3-35.3,31.8-57.2c1.4-5.7,1.2-6.1-1.8-15.2c-12,7.2-24.2,13.9-37.5,18.5
		c-3.3,1.2-6.5,2.6-10.1,2.6c-1.4,0-3.3,0.5-3.6-1.6c-0.2-1.9,1.5-2.2,2.9-2.7c25.8-8.8,48.7-22.9,70.5-38.7
		c14.5-10.5,25.6-24.2,34.3-39.8c1.5-2.7,2.8-5.7,3.6-8.7c2.2-7.9-1.1-14.7-8.3-18.2c-5.3-2.5-11.4-2.4-16.4-5.6
		c-1.2-0.8-2.4,0.8-3.4,1.5c-3.7,2.2-7.3,4.6-11.1,6.7c-1.4,0.8-3.2,1.8-4.3-0.3c-1.1-2,0.6-3,2-3.9c9.7-6.4,19.6-12.6,28.4-20.3
		c6.9-5.9,12.3-13,16.3-21.2c3-6.2,3.2-12.5,0.9-18.9c-2.3-6.3-5.1-12.3-9.1-17.7c-2.9-3.9-6.3-6.8-11.2-7.7
		c-3.1-0.6-4.1-1.7-2.1-5.1c9.8-16.7,23.4-29.7,39.4-40.3c5.3-3.5,11.1-6,17.4-7.2c8.1-1.5,13.9,1.6,16.9,9.5
		c3.5,9.5,3.9,19.5,3.6,29.5c-1.2,41.6-7,82.8-12.2,124c-5.9,47-12.9,93.9-24.5,139.8c-12.6,50.1-28,99.5-53.6,144.9
		c-4.4,7.7-9.6,14.8-15.4,21.5c-1.8,2.1-4.1,4.4-5.5-0.5c24.1-34.2,39.4-72.4,52.7-111.8c12.4-36.9,22.5-74.3,28.6-112.7
		c6.6-41.4,13.3-82.7,17.5-124.5c2.9-27.9,6.3-55.8,6.7-83.9c0.1-7.6-0.9-15.3-3.3-22.6c-2.5-7.3-5.3-8.8-12.8-7.1
		c-7.4,1.6-13.4,5.7-19.3,10c-11.8,8.6-21.7,19.1-30.4,31.5c11,4,15.2,13.8,20.2,22.9c11.1,28.7-8.6,43.8-26.6,59.7
		c3.7,1.1,7.2,2.1,10.7,3.2c11.9,5.1,16,11.6,15.3,24.2c-12.1,31.5-35.4,52.6-64.1,69.1c2.6,1.6,3.6,3.8,4.9,5.9
		c1.8,16.5-6.2,30.4-11.9,44.9c-0.5,0.4-1.1,0.7-1.4,1.2c-14.4,25.9-36.7,42.5-63.5,53.6c-9.3,3.9-18.9,7.1-28.5,10.7
		C581,583.2,583.9,584.7,586.9,586.1z"/>
	<path class="st35" d="M437.8,711.3c-3.9-0.6-6.1-3-5.6-6.9c2.4-20.7,1.2-41.5,1.6-62.3c0.1-4.7,0.7-9.3,1.7-13.8
		c1-4.3,3.6-6.4,8.1-6.5c35.6-1.1,71.2-1,106.8-1c7.2,0,8.9,1.7,9.8,9c-0.3,17.1,0,34.3-3.4,51.2c-1.7,8.6-2.2,17.5-4.8,25.9
		c-2,6.6-4.5,8.2-11.3,8.2c-10.5,0-21,0-31.5,0c-15.1,0.1-30.2-0.2-45.3-1.9C455.4,712.2,446.6,711.9,437.8,711.3z M512.8,708
		c8.5,0,17-0.1,25.5,0.1c3.9,0.1,5.9-1.5,6.5-5.2c0.9-5.9,1.6-11.9,2.7-17.7c3.1-17.2,4.6-34.6,4.5-52.1c0-3.5-0.6-4.9-4.6-4.9
		c-32.9,0.1-65.9,0-98.8,0.7c-4.8,0.1-6.2,1.8-6.6,6.3c-1.9,22.2,0.4,44.6-2,66.8c-0.3,2.7,1,3,3.2,3c4.2,0,8.3,0,12.5,0.4
		C474.6,707.1,493.7,708.3,512.8,708z"/>
	<path class="st7" d="M437.8,711.3c8.8,0.6,17.6,0.9,26.3,1.9c15.1,1.8,30.2,2,45.3,1.9c10.5-0.1,21,0,31.5,0
		c6.8,0,9.2-1.6,11.3-8.2c2.6-8.4,3-17.3,4.8-25.9c3.4-16.9,3.1-34.1,3.4-51.2c8.9,4.2,9,12.8,9.3,20.5c0.3,7.9-0.8,15.9-1.7,23.8
		c-1.4,11.9-1.5,23.9-3.9,35.6c-2.7,12.7-6.2,15-19.3,15.3c-19.2,0.4-38.1-1.6-57.2-3.8c-13.5-1.5-27.1-2.6-40.6-4.3
		C443.1,716.5,439.3,715.8,437.8,711.3z"/>
	<path class="st82" d="M392.6,927.8c-3.1,5.5-6,10.5-10.4,14.5c-10.7,9.8-23.9,6.8-28.5-6.9c-5.6-16.8-3.4-33.1,4.2-48.9
		c0.7-1.4,1.9-2.8,3.2-3.7c3.4-2.4,6.7-0.6,7,3.5c0.2,2.9-1,5.5-1.8,8.2c-3.3,10.4-5.7,20.9-3.2,31.9c0.9,3.8,1,8.8,5.7,9.6
		c4.5,0.8,6.9-3.3,9.3-6.5c4-5.4,6.1-11.8,8.8-17.8c1.5-3.4,3-7.1,7.6-6.5c4.3,0.6,5,4.1,5.7,7.7c1.8,9.4,5.6,17.8,13.3,23.9
		c7,5.6,12.7,3.4,14.2-5.5c1-5.6-0.1-11-2.1-16.1c-1.9-5-4-9.9-6.2-14.7c-1-2.3-1.7-4.5,0.4-6.3c2.2-1.9,4.4-1,6.4,0.4
		c12.2,8.5,17.2,37.4,8.5,49.4c-5.3,7.2-13.8,9.5-22.2,5.6c-7.9-3.6-13.2-9.9-17.5-17.2C394.3,931,393.6,929.5,392.6,927.8z"/>
	<path class="st23" d="M683.2,471.1c-1.3-2.1-2.3-4.3-4.9-5.9c28.7-16.6,52-37.7,64.1-69.1c3.5,4.4,1.2,8.9-0.5,12.9
		c-7.5,17.6-19.2,32.2-33.5,44.7c-6.5,5.7-13.1,11.3-20.6,15.6C686.3,470,685,471.1,683.2,471.1z"/>
	<path class="st23" d="M586.9,586.1c-2.9-1.5-5.9-3-9-4.5c9.6-3.6,19.2-6.8,28.5-10.7c26.8-11.2,49.1-27.7,63.5-53.6
		c0.3-0.5,0.9-0.8,1.4-1.2c0.9,2.2-0.7,3.7-1.6,5.2c-15.9,27-37.2,47.7-67.2,58.7C597.2,582,591.7,583.1,586.9,586.1z"/>
	<path class="st23" d="M727.1,371.9c-3.5-1-7-2.1-10.7-3.2c18-15.9,37.7-31,26.6-59.7c5.6,4.9,5.9,11.9,6.8,18.4c1,7.3-1,14-5,20.3
		c-4.9,7.7-9.7,15.5-16.7,21.6C727.4,370,726.8,370.8,727.1,371.9z"/>
	<path class="st4" d="M512.8,708c-19.1,0.3-38.2-0.9-57.3-2.8c-4.1-0.4-8.3-0.4-12.5-0.4c-2.2,0-3.5-0.3-3.2-3
		c2.4-22.2,0.2-44.6,2-66.8c0.4-4.5,1.8-6.2,6.6-6.3c32.9-0.7,65.9-0.6,98.8-0.7c4,0,4.6,1.4,4.6,4.9c0.1,17.5-1.4,34.9-4.5,52.1
		c-1.1,5.9-1.7,11.8-2.7,17.7c-0.6,3.7-2.6,5.3-6.5,5.2C529.8,707.9,521.3,708,512.8,708z"/>
</g>
</svg>
