<?xml version="1.0" encoding="utf-8"?>
<!-- Generator: Adobe Illustrator 25.0.0, SVG Export Plug-In . SVG Version: 6.00 Build 0)  -->
<svg version="1.1" id="图层_1" xmlns="http://www.w3.org/2000/svg" xmlns:xlink="http://www.w3.org/1999/xlink" x="0px" y="0px"
	 viewBox="0 0 1200 1600" style="enable-background:new 0 0 1200 1600;" xml:space="preserve">
<style type="text/css">
	.st0{fill:#060604;}
	.st1{fill:#EDCF5D;}
	.st2{fill:#FBF1EE;}
	.st3{fill:#ECCF5D;}
	.st4{fill:#F4FB95;}
	.st5{fill:#A0918B;}
	.st6{fill:#FBFBFB;}
	.st7{fill:#927233;}
	.st8{fill:#935A40;}
	.st9{fill:#623C2A;}
	.st10{fill:#FEFEFE;}
	.st11{fill:#040302;}
	.st12{fill:#090805;}
	.st13{fill:#9C5B46;}
	.st14{fill:#070705;}
	.st15{fill:#ECCE5D;}
	.st16{fill:#F2F2F2;}
	.st17{fill:#93583F;}
	.st18{fill:#A1918B;}
	.st19{fill:#513123;}
	.st20{fill:#FAFAFA;}
	.st21{fill:#030202;}
	.st22{fill:#060605;}
	.st23{fill:#A0908A;}
	.st24{fill:#937234;}
	.st25{fill:#E6C95B;}
	.st26{fill:#864E37;}
	.st27{fill:#513124;}
	.st28{fill:#B0603E;}
	.st29{fill:#FAF0ED;}
	.st30{fill:#F9F9F9;}
	.st31{fill:#917133;}
	.st32{fill:#9E8F89;}
	.st33{fill:#E7CA5B;}
	.st34{fill:#92583F;}
	.st35{fill:#050503;}
	.st36{fill:#FCFBFB;}
	.st37{fill:#080704;}
	.st38{fill:#070605;}
	.st39{fill:#FAF1ED;}
	.st40{fill:#F4FA95;}
	.st41{fill:#F8F8F7;}
	.st42{fill:#90573E;}
	.st43{fill:#030302;}
	.st44{fill:#080805;}
	.st45{fill:#FBF1ED;}
	.st46{fill:#FBFBFA;}
	.st47{fill:#927234;}
	.st48{fill:#F69376;}
	.st49{fill:#7B2D2D;}
	.st50{fill:#FCFCFC;}
	.st51{fill:#EF5A2D;}
	.st52{fill:#F0CC2D;}
	.st53{fill:#9F8F8A;}
	.st54{fill:#FAFAF9;}
	.st55{fill:#F2A78E;}
	.st56{fill:#040403;}
	.st57{fill:#070604;}
	.st58{fill:#A0908B;}
	.st59{fill:#F7F7F7;}
	.st60{fill:#E8CB5B;}
	.st61{fill:#8F563E;}
	.st62{fill:#513224;}
	.st63{fill:#080705;}
	.st64{fill:#FCFCFB;}
	.st65{fill:#F9F8F8;}
	.st66{fill:#FAF0EC;}
	.st67{fill:#9F908A;}
	.st68{fill:#91573E;}
	.st69{fill:#070704;}
	.st70{fill:#F5FC96;}
	.st71{fill:#9C9C53;}
	.st72{fill:#9A9A52;}
	.st73{fill:#F2F994;}
	.st74{fill:#A17628;}
	.st75{fill:#90573F;}
	.st76{fill:#090806;}
	.st77{fill:#523123;}
	.st78{fill:#7C4031;}
	.st79{fill:#ED866D;}
	.st80{fill:#F3E9E6;}
	.st81{fill:#4F3023;}
	.st82{fill:#060606;}
	.st83{fill:#89533B;}
	.st84{fill:#050403;}
	.st85{fill:#090909;}
	.st86{fill:#EDCF5E;}
	.st87{fill:#050504;}
	.st88{fill:#060504;}
	.st89{fill:#955A41;}
	.st90{fill:#080703;}
	.st91{fill:#090807;}
	.st92{fill:#070603;}
	.st93{fill:#0A0905;}
	.st94{fill:#937335;}
	.st95{fill:#955A40;}
	.st96{fill:#955940;}
	.st97{fill:#EDD05E;}
	.st98{fill:#8F7032;}
	.st99{fill:#945940;}
	.st100{fill:#EED05E;}
	.st101{fill:#503123;}
	.st102{fill:#EEEEEE;}
	.st103{fill:#0D0C0A;}
	.st104{fill:#E3C659;}
	.st105{fill:#967535;}
	.st106{fill:#9D7D38;}
	.st107{fill:#745A29;}
	.st108{fill:#847334;}
	.st109{fill:#907134;}
	.st110{fill:#E5C85B;}
	.st111{fill:#503124;}
	.st112{fill:#927133;}
	.st113{fill:#E0DDD4;}
	.st114{fill:#987836;}
	.st115{fill:#977636;}
	.st116{fill:#CCC4A4;}
	.st117{fill:#523224;}
	.st118{fill:#0B0908;}
	.st119{fill:#8F7135;}
	.st120{fill:#050404;}
	.st121{fill:#EDD05D;}
	.st122{fill:#F3FA94;}
	.st123{fill:#9A9A51;}
	.st124{fill:#999951;}
	.st125{fill:#937334;}
	.st126{fill:#FAF0EE;}
	.st127{fill:#F3FA95;}
	.st128{fill:#989851;}
	.st129{fill:#A2792A;}
	.st130{fill:#F1F893;}
	.st131{fill:#A17729;}
	.st132{fill:#050502;}
	.st133{fill:#947335;}
	.st134{fill:#917233;}
	.st135{fill:#9B9B52;}
	.st136{fill:#F9EFEC;}
	.st137{fill:#9A782F;}
	.st138{fill:#979752;}
	.st139{fill:#F2F893;}
	.st140{fill:#8C8E4F;}
	.st141{fill:#B5B96E;}
	.st142{fill:#0F0F09;}
	.st143{fill:#9C9C52;}
	.st144{fill:#F5FB95;}
	.st145{fill:#F3F994;}
	.st146{fill:#A17728;}
	.st147{fill:#917134;}
	.st148{fill:#090706;}
	.st149{fill:#8E6F32;}
	.st150{fill:#93593F;}
	.st151{fill:#907033;}
	.st152{fill:#060505;}
	.st153{fill:#C8C3AF;}
	.st154{fill:#533324;}
	.st155{fill:#533426;}
	.st156{fill:#0E0C0A;}
	.st157{fill:#907133;}
	.st158{fill:#583627;}
	.st159{fill:#0A0907;}
	.st160{fill:#573526;}
	.st161{fill:#0C0B09;}
	.st162{fill:#503023;}
	.st163{fill:#543325;}
	.st164{fill:#B7B3A1;}
</style>
<g>
	<path class="st22" d="M272.8,783.5c-2.1-5.3-5.2-10-8.4-14.6c-21.3-30.8-33.8-65.4-44.3-101c-12.3-41.9-18.6-84.8-21.1-128.3
		c-2.1-36.7-1.5-73.3,2.5-109.8c4.3-39.2,14.6-77,27-114.4c9.8-29.5,22.9-57.4,38.5-84.2c11.8-20.4,26.6-38.3,46.3-51.7
		c5.2-3.6,10.7-6.7,16.8-8.7c13.8-4.5,25.9-1.9,36.2,8.4c6.2,6.2,10.5,13.7,14.2,21.6c10.6,22.9,16.1,47.2,18.8,72.1
		c4.9,45.4,10.9,90.6,17.6,135.7c5.1,34.5,11.1,68.6,21.5,101.9c5.4,17.2,11.5,34,19,50.4c2.3,5.1,2.4,5.2,6.2,0.8
		c24-27.6,45-57.2,62.9-89.2c23.2-41.7,44.7-84.3,66.9-126.6c27.9-53.1,58.6-104.6,99.4-149.2c7.2-7.9,14.9-15.3,23.7-21.3
		c19.3-13.2,39.1-9.3,52.4,9.9c11.6,16.8,17.1,36,22.3,55.2c7.2,26.3,9.7,53.4,11,80.5c3.6,76.3-9.2,150.1-33.3,222.4
		c-20.2,60.6-51.6,114.8-90,165.4c-2.2,2.9-2.7,4.9-1,8.3c3.7,7.7,5,16.2,6.1,24.6c0.4,2.7,1.2,2.9,3.4,1.9
		c7.2-3.4,14.4-6.8,22.1-9.1c6.3-1.8,12.7-2.6,19.3-1.7c8.1,1.1,12.7,6,13.6,14.1c1.1,10.5-2.9,19.6-7.7,28.4c-1.1,2-2.3,4-3.5,6
		c11.3,4.4,13.3,10.9,10.6,26c-1.4,7.6-5.5,14.2-9.8,20.6c-12.2,18-27.2,33.3-44.8,46c-14.9,10.7-28.9,22.4-43.3,33.7
		c-42.5,33.7-89,59.6-142.3,71.8c-58.6,13.4-114.8,8-167.2-23.4c-19-11.4-35.8-25.5-49.9-42.6c-1.8-2.2-3.8-3.5-6.4-4.4
		c-6-2-11.8-4.5-17-8c-9-6.1-11.3-13.7-6.2-23.2c2.7-5,2.9-8.5-1.2-13.1c-6.9-7.8-6-18.7,2-27.7c5.9-6.6,12.4-12.5,18.8-18.6
		c2.3-2.1,3.4-4.2,2.8-7.4c-0.9-5.2-1.5-10.5-2.2-15.8c-0.2-2-1.6-2.7-3.2-3.4c-3.2-1.5-5.8-3.8-8.1-6.5c-1.1-1.4-1.7-3-0.2-4.5
		c1.4-1.4,2.7-0.4,4,0.4c1.5,0.9,2.5,2.7,4.5,3c0.3,0.2,0.6,0.4,0.8,0.5C272.8,784.3,272.8,783.9,272.8,783.5z M275.2,717
		c1.2,2.3,2.2,4.8,4.4,6.4c1.4-4,2.6-7.7,4.2-11.3c1.1-2.6-0.1-3.2-2.3-3.4c-3.6-1.4-7.3-2.6-11.5-3.3
		C271.4,709.7,273,713.5,275.2,717z M347.5,805c-0.8,1.6-0.7,3.3-0.4,4.9c1.2,6.1,4.4,7.7,9.5,4.2c5.8-4,10.5-9,13.4-15.6
		c0.7-1.7,1.7-3.5-1.1-4.4C360.5,791.1,349.6,796.6,347.5,805z M329.6,759.3c2.8-1.7,4-5.3,7.4-6.5c1-0.3,0.7-1.2,0.4-2.1
		c-1.9-4.9-4.8-5.7-8.4-1.9c-12.4,13.1-16.2,29.4-16.7,46.7c-0.1,2.2,1.4,3.1,3.1,3.1c2.5,0.1,1.4-2.1,1.6-3.4
		c1.4-8.7,3.2-17.3,7.1-25.3c2.2,1.1,4.4,1.8,6.4-0.3c1.8-2,2.3-4.4,1.1-6.9C331,761.5,330.2,760.4,329.6,759.3z M277.1,901.9
		c0.2,0.2,0.3,0.5,0.5,0.7c0.1-0.2,0.2-0.3,0.2-0.4c-0.1-0.5-0.4-0.5-0.7-0.2c0.1-0.3,0.3-0.7,0.2-0.9c-6.8-13.6-5.9-27.5-2.4-41.8
		c2.7-10.9,3.7-22,3-33.4c-5.5,5.3-11.1,10.1-16,15.5c-6.4,7.2-6.5,14.1-0.7,21.6c3.6,4.5,3.6,8.8,1.4,13.9c-5,11.4-4,14.6,6.7,20.9
		C271.8,899.3,274.1,901.4,277.1,901.9z M320,532c1.1-0.6,1-1.4,0.4-2.3c0.2-1.6,0.4-3.1,0.6-4.7c1.1-0.5,0.9-1.3,0.6-2.2
		c0.1-0.6,0.1-1.2,0.2-1.8c2.7-7.2,5.4-14.5,8.3-21.6c1.6-4.1,3.7-8,5.7-12.3c-3.9,0-7.3,0.1-10.6,0c-9-0.3-14.6-5-16.4-13.8
		c-1.9-9.5-0.4-18.9,1.9-28.1c6-24,16.9-45.8,30.5-66.2c4.1-6.2,5.9-12.3,6.2-19.9c1-29.6,1.2-59.2-3.4-88.6
		c-1.4-9.2-2.6-18.4-6-27.2c-3-7.7-8.6-9.8-15.9-6.1c-1.9,1-3.9,1.9-5.2,3.7c-2.1,0.9-3.5,2.6-5,4.1c-13,13.1-23.7,27.9-31.9,44.4
		c-31.9,63.4-46.2,131.2-49.6,201.6c-1.1,21.8,0.8,43.6,3.1,65.3c3.3,30,9.7,59.6,15.9,89.1c2.6,12.1,5.8,24.2,11.3,35.7
		c1.2-1.1,1.1-2.3,1.4-3.5c4.6-20.6,9.2-41.2,13.9-61.8c1.5-6.5,3.7-7.3,9.5-4.2c11.9,6.3,23.7,12.7,35.6,19c1.1,0.7,2.2,1.5,3.4,2
		c1.1,0.4,2.1,2.2,3.4,0.8c1.1-1.1-0.2-2.1-0.6-3.1c-3.4-7.5-3.1-15.3-1.6-23c2.6-13.8,9.4-25.8,16.8-37.5c0.9-1.4,2.7-2.5,2.2-4.6
		c-16.1-1.4-22.1-7-24.5-22.9c-0.2-1.1-0.4-2.3-0.5-3.4C319.8,536.6,319.9,534.3,320,532z M263.1,747c3.3,5.5,6.6,11,9.9,16.6
		c1.3-10.2,2.7-19.8,4.4-29.2c0.6-3.5,0.5-6.1-2.2-8.4c-3.6-5.8-6.9-11.7-9.2-18.2c-0.9-2.4-1.8-4.4-4.8-5c-2.6-0.5-3.5-2.5-2.7-5.4
		c1.1-3.9,0.6-7.7-1.2-11.5c-4.3-9.1-7.5-18.7-10.5-28.4c-5.6-18.5-7.5-37.7-11.4-56.5c-5.9-27.7-9.1-55.7-10.3-83.9
		c-1.2-27.3,1-54.5,4.7-81.6c6.2-44.5,17.7-87.5,35.3-128.8c10.3-24.2,23.7-46.5,42.4-65.3c4.1-4.1,8.6-7.9,14.1-10
		c8.9-3.4,16.6-0.2,20.5,8.5c2.4,5.3,3.6,11,4.7,16.7c6.7,34.7,7.3,69.7,6.9,104.9c0,3.4-0.1,7-1.9,10.2
		c-4.5,7.6-9.1,15.1-13.5,22.7c-12.3,21.5-22.6,43.6-24.9,68.8c-1.1,11.8,2.7,17.9,12.4,18.9c3.1,0.3,6.3,0.1,9.5-0.1
		c2.6-0.1,4.4-1.3,5.8-3.8c6.6-11.2,14-21.9,22.6-31.6c1.6-1.8,3.4-5.7,5.8-3.9c1.9,1.4-1.3,4.2-2.7,6.1
		c-13.4,17.9-25.3,36.7-33.6,57.5c-4.3,10.7-7.7,21.7-7.4,33.4c0.3,14.1,6.3,19.1,20.4,18.8c6-0.1,7.3-4.9,10.5-7.8
		c2-1.8,3.5-6.4,6.9-3.4c3.1,2.7-0.8,5.1-2.4,7c-10.2,12.4-19.5,25.3-25.8,40.1c-4.1,9.5-7.7,19.1-5.3,29.8
		c-0.2,1.6,0.3,3.5,1.5,3.9c1.6,0.6,2.4-1.4,3.4-2.4c17.4-18.6,37.9-32.8,61.2-43c15.2-6.7,31.1-10.5,47.7-11.5
		c3.1-0.2,4.7-0.8,2.8-4.5c-2.7-5.3-5-10.9-7.4-16.3c-5.3-15.4-11-30.7-15.5-46.4c-8.4-29.2-13.9-58.9-17.9-89
		c-4.1-30-9.2-59.9-12.6-90c-2.8-25-4.8-50.1-9.5-74.8c-3.6-19.2-9.5-37.8-19.7-54.6c-10.2-16.7-22.5-19.4-39.3-9.7
		c-11.7,6.7-21.5,15.7-30.1,25.9c-20.2,24-33.9,51.9-45.4,80.6C226.5,349.1,212,408,209.7,469.6c-2.6,71,3.8,140.7,25.5,208.6
		C242.8,701.8,250.3,725.5,263.1,747z M353,829c2.7,5.2,6.4,9.6,10.6,13.7c1.6,1.6,4.7,3.3,2.7,6.1c-2.1,2.9-4.4,0.3-6.5-0.8
		c-0.7-0.4-1.2-1.2-2.2-0.5c-3.1,11.4-6.9,22.6-15.5,31.2c-9.7,9.8-22.2,10.2-32.6,1.1c-6.8-5.9-11.2-13.5-14.7-21.7
		c-1.2-2.7-0.6-4.1,2.3-4.6c1.8,1.1,2.3,3.1,3.2,4.9c4.3,8,9,15.6,17.2,20.2c7.9,4.4,16.4,2,21.3-5.9c-10.6-1-16.9-7.5-21.2-16.6
		c-3.2-6.6-5.5-13.6-6.4-20.8c-0.9-7.3-1.9-14.5,4.2-21c6.9-7.3,6.4-7.8-3.3-10.4c-3.3-0.9-6-2.3-6-6.2c0.3-14.9,2-29.5,10.3-42.5
		c3.3-5.2,7-9.9,12.3-13.5c-8.7-5.5-15.4-4.9-22.2,1.6c-2.9,2.8-5.2,6.1-7,9.6c-6.1,11.7-8.6,24.4-9.2,37.4c-0.1,2.6,0,4.8-3.3,4.9
		c-2,0-2.1,1.1-1.9,2.6c0.3,1.8,0.6,3.6,1,5.4c1.9,9.5,1.1,19.2,2.8,28.7c-0.8,13.1-2,26.2-5,39c-2.1,9.2-0.7,18.1,2.5,26.9
		c4.9,13.6,14.4,23.2,25.6,31.8c48.3,37.1,102.6,52.4,163.1,44.9c38.5-4.8,74.1-18.5,107.8-37.2c29.6-16.4,55.8-37.4,81.7-58.9
		c16.3-13.5,33.5-26,47.2-42.2c3.4-4,7.2-7.9,9.4-12.9c6.4-7,10.3-15.2,11.3-24.6c0.4-3.4,0.1-6.7-3.8-8.3c-3.9-1.6-6.2,0.5-8.2,3.3
		c-3.4,2.9-6.6,6-10.1,8.6c-2.9,2.1-5.6,2.1-6.7-2.2c4.3-4.8,8.7-9.6,12.8-14.5c7.3-8.9,13.3-18.7,15.5-30.2
		c1.8-9.2-1-12.4-10.2-12.4c-2.5,0-5,0.2-7.3,1.1c-6.8,1-12.9,3.9-19.2,6.2c-8.7,3.2-17,7.2-25.9,9.7c-2.7,0.8-4.9,1-5.9-2.3
		c0.6-3.2,3.4-4.4,5.7-5.9c1.5-0.9,2.5-1.8,2.5-3.8c-0.3-8.8-1.9-17.3-4.4-26c-3.1,1.8-4.8,4.8-8.1,5.4c-2,0.3-3.7,0-4.9-1.7
		c-1-1.4-0.5-2.8,0.5-4.1c5.6-7.5,11-15,16.6-22.5c37.1-49.8,67.7-103,87.1-162.5c19-58.3,31.3-117.7,32.3-179.1
		c0.6-37.1-1.5-74-10.3-110.1c-4.6-19.1-9.9-38-21-54.7c-10.3-15.3-22.7-17.8-37.8-7.2c-9.2,6.4-16.9,14.5-24.3,22.9
		c-41.2,46.3-71.7,99.6-100.1,154.2c-16.2,31.2-32,62.5-49,93.3c-21.1,38.1-44.2,74.8-72.9,107.8c-4.5,5.2-9.5,9.8-14.6,14.3
		c-1.2,1.1-2.5,1.5-4.1,1.2c-8-1.1-16,0-23.8,1.4c-39,6.7-70.5,26.7-97.5,54.8c-1.7,1.8-1.7,2.7,0.5,4c7.1,4.3,13.9,9.1,21.1,13.3
		c4.7,2.7,5.9,6.3,4.9,11.3c-0.3,1.3-0.4,2.6-0.6,3.9c-0.5,1.1-1,2.1-1.3,3.2c-4.3,13.9-8.5,27.9-12.8,41.8
		c-2.1,6.8-3.9,8.1-10.7,6.8c-13.2-2.4-26.4-4.8-39.5-7.6c-4.3-0.9-6.9-0.5-7.5,4.3c-7.8,20-11,52.5-6.7,66.2
		c0.1-0.1,0.4-0.1,0.4-0.2c0.2-1,0.5-1.9,0.6-2.9c2.2-12.9,5.5-25.4,13.1-36.3c4.1-5.9,9.1-10.7,16.4-12.3
		c11.7-2.5,19.9,3.6,26.7,11.9c9,10.9,13.5,24,16.6,37.5c1.2,5,2.5,4.8,6.2,2.5c6.2-3.9,12.8-7,20.2-7.9c4.2,2.6,2.1,4-1,5.1
		c-5.2,1.7-10.3,3.5-15.3,7.4c5.1,1,8.6,2.7,9.7,7.5c-2.1,13.8-14.3,25.7-27.7,26.6C349.4,824.4,351.2,826.7,353,829z M336.7,713
		c2.9,0.6,3.7-1.1,4.5-3.4c5.4-15,9.2-30.5,13.9-45.7c0.8-2.7,0.1-4.1-2.2-5.7c-21.4-14.7-44.4-26.7-67.5-38.5
		c-2.4-1.2-2.9-0.7-3.5,1.8c-5.3,24.4-10.7,48.7-16.2,73c-0.5,2.2-0.2,3,1.9,3.4c10.4,2.2,20.4,5.9,30.9,7.8
		C311.3,707.9,324,710.5,336.7,713z M317.8,820.3c-2.5,1.1-2.8,3-2.6,5.1c1.1,10.3,3.5,20.2,8.2,29.5c3.8,7.6,10.1,11,17.9,12.7
		c2,0.4,2.2-0.8,2.9-1.9c0.9-1.5,0-2.1-1.2-2.6c-7-2.8-10.5-8.9-14.3-14.7C323.2,839.8,320.4,830.2,317.8,820.3z M340.8,846.9
		c-0.8-2.4-0.9-5.6-4.7-5.8c-2.1-0.1-3.7,1.3-3.6,3.3c0.1,3.1,1.8,5.3,5.1,5.7C339.5,850.2,340.8,849.2,340.8,846.9z"/>
	<path class="st1" d="M361.4,667.8c0.2-1.3,0.3-2.6,0.6-3.9c1-4.9-0.2-8.6-4.9-11.3c-7.2-4.2-14-8.9-21.1-13.3
		c-2.2-1.4-2.2-2.3-0.5-4c27-28.1,58.5-48.1,97.5-54.8c7.8-1.3,15.8-2.4,23.8-1.4c1.6,0.2,2.9-0.1,4.1-1.2
		c5.1-4.5,10.1-9.1,14.6-14.3c28.7-33,51.8-69.7,72.9-107.8c17-30.7,32.8-62.1,49-93.3c28.4-54.6,58.9-107.9,100.1-154.2
		c7.4-8.4,15.1-16.4,24.3-22.9c15.1-10.6,27.6-8,37.8,7.2c11.2,16.7,16.4,35.6,21,54.7c8.8,36.1,10.9,73,10.3,110.1
		c-1,61.5-13.3,120.8-32.3,179.1c-19.4,59.5-50,112.7-87.1,162.5c-5.6,7.5-11,15-16.6,22.5c-1,1.3-1.4,2.7-0.5,4.1
		c1.2,1.7,2.9,2,4.9,1.7c3.4-0.5,5.1-3.6,8.1-5.4c2.5,8.7,4,17.2,4.4,26c0.1,2.1-1,2.9-2.5,3.8c-2.3,1.5-5.1,2.7-5.7,5.9
		c-1.6,0.8-3.3,1.6-4.8,2.6c-11.7,7.1-22.4,15.4-32.8,24.3c-16.8,14.5-35.8,25.8-55.4,36.3c-13.2,7.1-27.1,10.8-41.8,11.8
		c-15,1-29.9-0.7-44.5-4.1c-17.5-4.1-32.7-12-43-27.5c-4.5-6.8-10.1-12.8-16-18.4c-12.1-11.5-27.8-14.5-42.2-7.9
		c-7.4,0.9-14.1,4-20.2,7.9c-3.7,2.3-5,2.6-6.2-2.5c-3.1-13.5-7.6-26.6-16.6-37.5c-6.9-8.3-15-14.4-26.7-11.9
		c-7.3,1.5-12.3,6.4-16.4,12.3c-7.6,10.9-10.9,23.4-13.1,36.3c-0.2,1-0.4,1.9-0.6,2.9c0,0.1-0.3,0.1-0.4,0.2
		c-4.4-13.8-1.1-46.2,6.7-66.2c16,3.8,31.9,7.7,48.2,10.1c6.3,0.9,9.1-0.1,11.5-6c5.7-14,11.2-28.1,16.4-42.3
		C367.7,672.9,366,669.6,361.4,667.8z M449.9,734.3c2,5.9,6.7,4,10.5,3.3c17-3,33.9-6.3,50.8-9.7c18.4-3.7,36.9-6.7,54.9-11.9
		c5.7-1.7,8.1-4.6,6.7-9.7c-4.3-15.8-4.2-32.2-5.9-48.3c-0.9-9.2-2-18.5-3.5-27.6c-1.2-7.6-4.5-9.1-11.5-6.2c-1.6,0.7-3,1.4-4.8,0.8
		c-1.8-8.5-2.9-9.2-11-6.3c-5.8,2.1-11.5,4.3-17.3,6.4c-28.4,10.7-56.2,23-83.8,35.8c-2.7,1.2-5.3,2.1-4.9,6.3
		c1.9,19.8,5.8,39.4,9.2,59C441,735,441.2,734.9,449.9,734.3z M634.8,641.1c4.2,9.7,7.4,19.7,10.3,29.8c-1.4,1.1-4.8,0.8-3.8,3.6
		c0.9,2.6,3.6,1.6,5.7,1c3.6-0.9,6.8-2.6,9.8-4.7c6.6-4.6,12.1-10.4,17.1-16.7c15.3-19.5,26.7-41.2,36.5-63.8
		c30.4-70.3,49.2-143.8,57.7-219.9c3.2-28.5,4.7-57,0.8-85.6c-1.5-11.4-4-22.6-10.6-32.3c-7.2-10.6-17.4-13.1-28.6-7.3
		c-2.2,1.1-4.3,2.5-6.3,4.1c-13.2,10.7-22.4,24.5-30.5,39.1c-1.9,3.4-0.2,4.5,3,4.6c3.2,0,6.3-0.1,9.5,0.1
		c10.4,0.7,15.1,7.2,12.6,17.4c-1.2,5.1-3.5,9.6-6.3,14c-6.2,10-14.4,18.3-23.3,25.9c-11.8,10.1-24.9,18.3-38.9,25
		c-1.4,0.7-3.6,1.3-2.5,3.5c1,2,2.8,0.5,4,0c6.6-2.4,12.9-5.4,18.6-9.4c3.2-2.2,5.3-1.5,7.8,0.8c6.7,6.4,7.4,14.3,5.7,22.6
		c-2.8,13.9-10.7,25.3-19.8,35.8c-19.7,22.4-43.7,38.6-71.5,49.4c-1.8,0.7-5.4,0.9-4.6,3.4c1,3.1,4.1,0.8,6,0.2
		c10.8-3.4,21-8.2,30.7-13.9c7.6-4.4,9-4,13.8,3.5c1.4,2.1,2.2,4.4,3,6.8c2.6,8.3,1.7,16.4-0.7,24.5c-6.5,21.6-19.8,38.7-36.8,52.9
		c-19,15.9-39.8,27.7-65.7,27.2c-1.3,0-2.9-0.1-3,1.8c-0.1,2,1.4,2.4,3.1,2.4c8.4,0.4,16.6-0.3,24.6-2.9c2-0.7,3.9-1,6.2-0.1
		c17.3,6.7,32.6,16.6,44.8,30.7C620.8,623.3,627.7,632.3,634.8,641.1z M461,794.3c1.1,0,2.5-0.9,3.9-1.9c10-7.2,20.2-14.2,29.1-22.8
		c2-2,3.4-2.2,5.9-0.6c11.5,7.2,23.7,12.8,36.4,17.3c3.7,1.3,7.1,1,10.5-0.9c9.3-5.3,13.7-14.2,17.3-23.6c0.6-1.5,1.4-3.5-0.6-4.4
		c-2.2-1-2.7,1.2-3.5,2.6c-3.3,5.9-7.1,11.2-12.8,15c-1.9,1.3-3.6,1.8-5.9,0.9c-13.8-5.4-27.6-10.8-39.6-19.8
		c-3.8-2.8-7.4-2.8-10.8,0.6c-8.9,9.1-19.1,16.6-29.2,24.1c-2.1,1.6-4.3,3.2-5.7,5.5c-1.1,1.8-1.3,3.8-0.2,5.7
		C456.7,793.8,458.4,794.4,461,794.3z"/>
	<path class="st2" d="M383.2,774.9c14.4-6.5,30.1-3.6,42.2,7.9c5.9,5.6,11.5,11.6,16,18.4c10.3,15.6,25.5,23.4,43,27.5
		c14.6,3.4,29.5,5.2,44.5,4.1c14.7-1,28.6-4.7,41.8-11.8c19.6-10.5,38.5-21.9,55.4-36.3c10.4-8.9,21.1-17.2,32.8-24.3
		c1.6-0.9,3.2-1.7,4.8-2.6c1,3.3,3.2,3.1,5.9,2.3c8.9-2.5,17.3-6.5,25.9-9.7c6.3-2.3,12.5-5.2,19.2-6.2c1.5,18.2-0.8,35.5-10.2,51.6
		c-0.7,1.3-2.3,2.7-0.6,4.4c1,4.3,3.8,4.3,6.7,2.2c3.6-2.6,6.8-5.7,10.1-8.6c1.9,0.8,1.9,2.6,2,4.2c0.1,4.1,0.2,8.2-0.2,12.3
		c-0.4,4.3-2.5,8.6-1.1,13.1c-2.2,5-6,8.8-9.4,12.9c-13.8,16.3-31,28.7-47.2,42.2c-25.9,21.5-52.2,42.5-81.7,58.9
		c-33.8,18.8-69.3,32.4-107.8,37.2c-60.5,7.5-114.8-7.8-163.1-44.9c-11.2-8.6-20.7-18.2-25.6-31.8c-3.2-8.9-4.6-17.7-2.5-26.9
		c3-12.9,4.2-25.9,5-39c2.9,7.1,5.9,14.2,8,21.6c-2.9,0.4-3.5,1.9-2.3,4.6c3.6,8.2,8,15.7,14.7,21.7c10.4,9.1,22.8,8.7,32.6-1.1
		c8.6-8.7,12.5-19.8,15.5-31.2c1-0.7,1.5,0.1,2.2,0.5c2.1,1.1,4.4,3.7,6.5,0.8c2-2.8-1-4.5-2.7-6.1c-4.1-4.1-7.8-8.5-10.6-13.7
		c12.2-2.2,24.6-14.8,26.4-27c0.4-2.8,0.5-5.7-2.7-7.3c-1.1-4.7-4.7-6.5-9.7-7.5c4.9-3.9,10.1-5.7,15.3-7.4
		C385.3,778.9,387.4,777.5,383.2,774.9z M438.2,907.8c0-18.8-1-37.6-2.3-56.3c-0.5-7.3-1.8-14.5-3-21.7c-0.8-4.9-2.9-6-7.3-3.9
		c-21.3,10.3-42.3,21.5-62.7,33.5c-3.4,2-3.3,3.8-2,6.7c9.9,22.9,22.1,44.5,36.4,65c6.1,8.7,12.2,17.5,21.1,23.7
		c6.7,4.7,12.2,3.2,15.7-4.2c0.8-1.8,1.5-3.7,1.9-5.6C438.8,932.8,438.2,920.3,438.2,907.8z"/>
	<path class="st15" d="M330.3,623.8c-2.4-10.7,1.3-20.4,5.3-29.8c6.3-14.8,15.6-27.8,25.8-40.1c1.6-1.9,5.5-4.3,2.4-7
		c-3.4-2.9-4.8,1.6-6.9,3.4c-3.2,2.9-4.5,7.7-10.5,7.8c-14.1,0.3-20-4.7-20.4-18.8c-0.3-11.7,3.1-22.7,7.4-33.4
		c8.3-20.8,20.2-39.6,33.6-57.5c1.4-1.9,4.6-4.7,2.7-6.1c-2.4-1.8-4.2,2.1-5.8,3.9c-8.6,9.7-16,20.4-22.6,31.6
		c-1.5,2.5-3.2,3.7-5.8,3.8c-3.2,0.1-6.4,0.4-9.5,0.1c-9.7-1-13.5-7.1-12.4-18.9c2.2-25.1,12.6-47.3,24.9-68.8
		c4.4-7.6,9-15.1,13.5-22.7c1.9-3.1,1.9-6.8,1.9-10.2c0.5-35.1-0.1-70.2-6.9-104.9c-1.1-5.7-2.3-11.4-4.7-16.7
		c-4-8.7-11.7-11.9-20.5-8.5c-5.6,2.1-10,5.9-14.1,10c-18.7,18.8-32.1,41.1-42.4,65.3c-17.6,41.3-29.1,84.3-35.3,128.8
		c-3.8,27.1-5.9,54.2-4.7,81.6c1.2,28.2,4.4,56.2,10.3,83.9c4,18.8,5.8,38,11.4,56.5c2.9,9.7,6.1,19.3,10.5,28.4
		c1.8,3.9,2.3,7.6,1.2,11.5c-0.8,2.9,0.1,4.9,2.7,5.4c3,0.6,3.9,2.6,4.8,5c2.3,6.4,5.6,12.4,9.2,18.2c-3.1,2.8-4.8,6.5-6.5,10.3
		c-1.7,3.7-2.2,8-5.6,10.8c-12.8-21.5-20.3-45.2-27.9-68.8c-21.7-67.9-28.1-137.6-25.5-208.6c2.3-61.7,16.8-120.5,39.6-177.4
		c11.5-28.7,25.2-56.6,45.4-80.6c8.6-10.3,18.4-19.2,30.1-25.9c16.8-9.7,29.1-6.9,39.3,9.7c10.3,16.8,16.1,35.4,19.7,54.6
		c4.7,24.7,6.6,49.8,9.5,74.8c3.4,30.1,8.6,60,12.6,90c4.1,30,9.6,59.8,17.9,89c4.5,15.7,10.1,31,15.5,46.4
		c-0.8,0.2-1.6,0.2-2.4,0.6c-25.9,11.4-50.8,24.7-73.9,41.1C350.6,600.7,338.6,610.4,330.3,623.8z"/>
	<path class="st2" d="M321.8,521c-0.1,0.6-0.1,1.2-0.2,1.8c-1.3,0.4-1.7,1.1-0.6,2.2c-0.2,1.6-0.4,3.1-0.6,4.7
		c-1.2,0.6-1.6,1.3-0.4,2.3c-0.1,2.3-0.2,4.5-0.3,6.8c-3.1,2.9-1.6,6.6-1.4,9.8c0.3,9.6,1.4,19.3,9.9,25.5c3.9,2.8,3.9,5.1,2.5,9
		c-5.4,15.3-11,30.7-9.6,47.4c-11.9-6.3-23.8-12.6-35.6-19c-5.8-3.1-8-2.3-9.5,4.2c-4.7,20.6-9.3,41.2-13.9,61.8
		c-0.3,1.1-0.2,2.3-1.4,3.5c-5.5-11.4-8.7-23.5-11.3-35.7c-6.2-29.5-12.6-59.1-15.9-89.1c-2.4-21.6-4.2-43.4-3.1-65.3
		c3.4-70.4,17.7-138.2,49.6-201.6c8.3-16.4,18.9-31.3,31.9-44.4c1.5-1.5,2.9-3.2,5-4.1c7.3-0.8,10.8,3.6,13.3,9.5
		c2,4.8,3.9,9.5,4.9,14.6c5.9,30.8,6.7,62,7.1,93.3c0.1,9.5-1.8,17.4-7.5,25.6c-10.5,14.9-18.5,31.5-24.3,49
		c-5.3,16-9.5,32.1-7.4,49.3c1.5,12.4,9.5,21.1,19.6,19.3c5.8-1,4.2,1.3,3.1,4.4C323.9,510.9,321,515.5,321.8,521z"/>
	<path class="st4" d="M336.7,713c-12.7-2.5-25.4-5.1-38.2-7.3c-10.5-1.8-20.5-5.5-30.9-7.8c-2.1-0.4-2.4-1.2-1.9-3.4
		c5.5-24.3,10.9-48.7,16.2-73c0.5-2.5,1-3,3.5-1.8c23.1,11.8,46,23.8,67.5,38.5c2.3,1.6,3,3,2.2,5.7c-4.7,15.2-8.5,30.7-13.9,45.7
		C340.4,711.9,339.6,713.6,336.7,713z"/>
	<path class="st20" d="M297.1,853.6c-2.1-7.4-5.1-14.5-8-21.6c-1.7-9.5-0.9-19.2-2.8-28.7c-0.4-1.8-0.6-3.6-1-5.4
		c-0.3-1.5-0.1-2.6,1.9-2.6c3.3-0.1,3.2-2.3,3.3-4.9c0.7-13.1,3.2-25.7,9.2-37.4c1.8-3.6,4.1-6.8,7-9.6c6.8-6.6,13.5-7.2,22.2-1.6
		c-5.3,3.6-9,8.3-12.3,13.5c-8.3,13-10,27.5-10.3,42.5c-0.1,3.9,2.7,5.3,6,6.2c9.7,2.6,10.2,3.1,3.3,10.4c-6.2,6.5-5.1,13.7-4.2,21
		c0.9,7.2,3.2,14.2,6.4,20.8c4.3,9.1,10.6,15.6,21.2,16.6c-4.9,8-13.4,10.4-21.3,5.9c-8.2-4.6-12.9-12.2-17.2-20.2
		C299.4,856.7,298.9,854.7,297.1,853.6z"/>
	<path class="st23" d="M321.8,521c-0.8-5.5,2.1-10.1,3.8-15c1.1-3.2,2.7-5.4-3.1-4.4c-10.1,1.7-18.1-6.9-19.6-19.3
		c-2.1-17.2,2.1-33.3,7.4-49.3c5.8-17.4,13.8-34,24.3-49c5.8-8.2,7.6-16.1,7.5-25.6c-0.4-31.3-1.2-62.5-7.1-93.3
		c-1-5.1-2.9-9.9-4.9-14.6c-2.5-6-6.1-10.3-13.3-9.5c1.3-1.9,3.3-2.8,5.2-3.7c7.4-3.7,12.9-1.6,15.9,6.1c3.4,8.7,4.5,18,6,27.2
		c4.6,29.4,4.4,59,3.4,88.6c-0.3,7.5-2.1,13.7-6.2,19.9c-13.6,20.5-24.5,42.3-30.5,66.2c-2.3,9.2-3.9,18.6-1.9,28.1
		c1.8,8.8,7.4,13.4,16.4,13.8c3.3,0.1,6.6,0,10.6,0c-2,4.4-4,8.3-5.7,12.3C327.2,506.6,324.6,513.8,321.8,521z"/>
	<path class="st24" d="M330.3,623.8c8.3-13.4,20.3-23.2,32.9-32.1c23.1-16.4,48-29.7,73.9-41.1c0.7-0.3,1.6-0.4,2.4-0.6
		c2.4,5.4,4.7,11,7.4,16.3c1.9,3.6,0.3,4.3-2.8,4.5c-16.6,1-32.5,4.8-47.7,11.5c-23.3,10.2-43.8,24.4-61.2,43c-1,1-1.8,3-3.4,2.4
		C330.6,627.3,330.1,625.4,330.3,623.8z"/>
	<path class="st25" d="M277.1,901.9c-3-0.6-5.3-2.6-7.8-4.1c-10.7-6.4-11.8-9.6-6.7-20.9c2.2-5,2.2-9.3-1.4-13.9
		c-5.9-7.4-5.7-14.4,0.7-21.6c4.8-5.4,10.4-10.2,16-15.5c0.7,11.3-0.3,22.5-3,33.4c-3.5,14.3-4.4,28.2,2.4,41.8
		c0.1,0.2-0.1,0.6-0.2,0.9C277,902.1,277.1,901.9,277.1,901.9z"/>
	<path class="st24" d="M361.4,667.8c4.6,1.8,6.3,5.1,4.3,10.3c-5.3,14.2-10.7,28.3-16.4,42.3c-2.4,5.9-5.2,6.9-11.5,6
		c-16.3-2.4-32.2-6.3-48.2-10.1c0.5-4.9,3.2-5.2,7.5-4.3c13.1,2.8,26.3,5.2,39.5,7.6c6.8,1.3,8.7,0,10.7-6.8
		c4.3-13.9,8.5-27.9,12.8-41.8C360.4,669.9,361,668.9,361.4,667.8z"/>
	<path class="st23" d="M704.1,800.2c-1.7-1.7-0.1-3.2,0.6-4.4c9.4-16,11.7-33.4,10.2-51.6c2.4-0.9,4.8-1.1,7.3-1.1
		c9.2,0,12,3.2,10.2,12.4c-2.2,11.5-8.2,21.3-15.5,30.2C712.7,790.7,708.3,795.4,704.1,800.2z"/>
	<path class="st23" d="M321.1,630.6c-1.4-16.7,4.2-32.1,9.6-47.4c1.4-3.9,1.4-6.2-2.5-9c-8.5-6.2-9.6-15.9-9.9-25.5
		c-0.1-3.2-1.7-6.9,1.4-9.8c0.2,1.1,0.4,2.3,0.5,3.4c2.4,15.9,8.4,21.5,24.5,22.9c0.5,2.1-1.3,3.2-2.2,4.6
		c-7.4,11.7-14.2,23.7-16.8,37.5c-1.5,7.7-1.8,15.5,1.6,23c0.5,1,1.7,2,0.6,3.1c-1.3,1.4-2.4-0.4-3.4-0.8
		C323.3,632.1,322.2,631.2,321.1,630.6z"/>
	<path class="st26" d="M324,770c-3.9,8-5.7,16.6-7.1,25.3c-0.2,1.3,0.9,3.4-1.6,3.4c-1.7,0-3.2-1-3.1-3.1
		c0.5-17.4,4.2-33.6,16.7-46.7c3.6-3.8,6.5-3,8.4,1.9c0.3,0.9,0.6,1.7-0.4,2.1c-3.4,1.2-4.6,4.7-7.4,6.5
		C322.6,758.9,320.6,762.7,324,770z"/>
	<path class="st26" d="M317.8,820.3c2.5,9.9,5.4,19.5,11,28.1c3.8,5.8,7.3,12,14.3,14.7c1.2,0.5,2.1,1.2,1.2,2.6
		c-0.7,1.1-0.9,2.3-2.9,1.9c-7.8-1.7-14.1-5.2-17.9-12.7c-4.7-9.3-7-19.2-8.2-29.5C315,823.3,315.3,821.4,317.8,820.3z"/>
	<path class="st24" d="M263.1,747c3.5-2.8,3.9-7.1,5.6-10.8c1.7-3.8,3.4-7.5,6.5-10.3c2.6,2.3,2.8,5,2.2,8.4
		c-1.8,9.5-3.1,19-4.4,29.2C269.7,758,266.4,752.5,263.1,747z"/>
	<path class="st23" d="M376.6,794.7c3.2,1.6,3.1,4.4,2.7,7.3c-1.8,12.2-14.1,24.8-26.4,27c-1.8-2.3-3.6-4.5-4.1-7.6
		C362.3,820.5,374.6,808.6,376.6,794.7z"/>
	<path class="st23" d="M721.5,823.4c-1.4-4.5,0.6-8.7,1.1-13.1c0.4-4.1,0.4-8.2,0.2-12.3c0-1.6-0.1-3.4-2-4.2c2-2.9,4.3-5,8.2-3.3
		c3.9,1.6,4.1,4.9,3.8,8.3C731.8,808.2,727.9,816.4,721.5,823.4z"/>
	<path class="st27" d="M368.9,794.1c2.8,0.8,1.8,2.7,1.1,4.4c-2.8,6.6-7.6,11.6-13.4,15.6c-5.1,3.5-8.3,1.9-9.5-4.2
		c-0.3-1.6-0.4-3.3,0.4-4.9C356.6,805.2,362.8,799.7,368.9,794.1z"/>
	<path class="st26" d="M368.9,794.1c-6.1,5.6-12.3,11.1-21.4,10.9C349.6,796.6,360.5,791.1,368.9,794.1z"/>
	<path class="st2" d="M324,770c-3.4-7.3-1.5-11.1,5.5-10.7c0.7,1.1,1.4,2.2,2,3.4c1.1,2.5,0.7,4.9-1.1,6.9
		C328.5,771.8,326.2,771.2,324,770z"/>
	<path class="st2" d="M275.2,717c-2.2-3.5-3.8-7.2-5.1-11.5c4.2,0.7,7.9,1.8,11.5,3.3C279.2,711.3,278.3,715,275.2,717z"/>
	<path class="st23" d="M275.2,717c3.1-2,4.1-5.6,6.4-8.3c2.2,0.2,3.4,0.8,2.3,3.4c-1.5,3.6-2.7,7.4-4.2,11.3
		C277.3,721.8,276.4,719.3,275.2,717z"/>
	<path class="st26" d="M340.8,846.9c-0.1,2.3-1.3,3.3-3.2,3.1c-3.3-0.4-5-2.6-5.1-5.7c-0.1-2,1.5-3.4,3.6-3.3
		C339.9,841.3,340,844.5,340.8,846.9z"/>
	<path class="st23" d="M320,532c-1.2-1-0.8-1.7,0.4-2.3C321,530.7,321.1,531.5,320,532z"/>
	<path class="st23" d="M321.1,525c-1.1-1.1-0.7-1.8,0.6-2.2C322,523.7,322.2,524.6,321.1,525z"/>
	<path class="st10" d="M272.8,783.5c0,0.4,0,0.8,0,1.2c-0.3-0.2-0.6-0.4-0.8-0.5C272.2,783.9,272.5,783.7,272.8,783.5z"/>
	<path class="st25" d="M277,902.1c0.3-0.3,0.6-0.3,0.7,0.2c0,0.1-0.1,0.3-0.2,0.4c-0.2-0.2-0.3-0.5-0.5-0.7
		C277.1,901.9,277,902.1,277,902.1z"/>
	<path class="st2" d="M645.1,670.9c-2.9-10.1-6.1-20.1-10.3-29.8c2.8-1.5,0.7-3.2,0-4.5c-11.4-18.5-24.5-35.4-43.7-46.6
		c0.7-2.2,2.8-2.7,4.4-3.7c21-13.9,38.3-31.2,48.9-54.2c8.6-18.7,14-38.2,5.8-58.8c-1.1-2.8,0.2-4.3,2.1-5.9
		c16-14.2,28.1-31.2,35.5-51.2c4.3-11.4,7.9-23.1,5.6-35.5c-0.7-3.9,0.1-6.4,2.8-9.2c14-14.8,25.7-31.1,29.3-51.8
		c0.7-4,1.9-8.1-0.8-11.9c0.4-8.5-2.6-15-10.7-18.7c-0.1-2.6,0.8-4.9,1.9-7.1c3.6-7.1,8.6-13.3,13.2-19.8c3.4-4.8,9-7.9,10.9-13.9
		c4.4-1.5,7.7,0.6,10.8,3.3c4.1,3.6,6.3,8.5,8.2,13.5c5.9,15.6,7.1,32,7.7,48.4c0.9,22.8-1.2,45.5-4,68.1
		c-3.5,28.5-8.9,56.6-15.8,84.4c-12.3,49-27.2,97.2-49.9,142.5c-9.8,19.5-20.5,38.5-36.6,53.6C656,666.2,651.3,669.9,645.1,670.9z"
		/>
	<path class="st12" d="M645.1,670.9c6.2-0.9,10.9-4.6,15.2-8.7c16.1-15.2,26.8-34.1,36.6-53.6c22.7-45.4,37.6-93.5,49.9-142.5
		c7-27.8,12.3-56,15.8-84.4c2.8-22.6,4.9-45.3,4-68.1c-0.6-16.4-1.9-32.8-7.7-48.4c-1.9-5-4.1-9.9-8.2-13.5c-3-2.7-6.4-4.8-10.8-3.3
		c-5.3,0-9.4,2.9-13.3,5.9c-11.6,9-19.6,20.9-28,33.6c5.6-0.6,10.5,0.2,15.2,1.4c8,3.7,11,10.2,10.7,18.7
		c-1.5,9.3-5.9,17.2-11.5,24.6c-8.7,11.3-19.1,20.9-30.7,29.1c-2.5,1.8-3.4,2.7-0.5,5.3c6.5,5.9,8.3,13.7,7.6,22.3
		c-1,11.8-6.3,22-12.7,31.6c-10.2,15.1-23.4,27.3-38.1,37.8c-2.3,1.6-2.9,2.4-0.5,4.6c5.2,4.8,7.8,10.9,9.1,17.9
		c1.8,10.1-0.1,19.6-3.7,28.8c-11.1,28.3-31.4,48.6-57,64c-4.3,2.6-8.9,4.7-14.2,7.4c7.3,2.2,13.1,5.3,18.8,8.7
		c19.2,11.2,32.3,28.1,43.7,46.6c0.8,1.3,2.8,3,0,4.5c-7.1-8.8-14-17.8-21.3-26.3c-12.2-14.1-27.4-24-44.8-30.7
		c-2.3-0.9-4.2-0.5-6.2,0.1c-8,2.6-16.2,3.4-24.6,2.9c-1.6-0.1-3.2-0.4-3.1-2.4c0.1-1.8,1.7-1.8,3-1.8c25.9,0.5,46.7-11.4,65.7-27.2
		c17-14.2,30.3-31.2,36.8-52.9c2.4-8.1,3.3-16.3,0.7-24.5c-0.7-2.4-1.6-4.7-3-6.8c-4.8-7.5-6.3-7.9-13.8-3.5
		c-9.8,5.7-19.9,10.5-30.7,13.9c-1.9,0.6-5,3-6-0.2c-0.8-2.5,2.8-2.7,4.6-3.4c27.8-10.8,51.8-27,71.5-49.4
		c9.2-10.5,17-21.8,19.8-35.8c1.7-8.3,0.9-16.3-5.7-22.6c-2.4-2.3-4.6-3-7.8-0.8c-5.8,3.9-12.1,7-18.6,9.4c-1.2,0.4-3,1.9-4,0
		c-1.1-2.2,1.1-2.9,2.5-3.5c14-6.7,27.1-14.9,38.9-25c8.9-7.6,17-16,23.3-25.9c2.7-4.4,5.1-8.9,6.3-14c2.4-10.2-2.2-16.7-12.6-17.4
		c-3.2-0.2-6.3-0.1-9.5-0.1c-3.2,0-4.9-1.2-3-4.6c8.1-14.7,17.3-28.4,30.5-39.1c1.9-1.6,4.1-2.9,6.3-4.1c11.3-5.9,21.5-3.3,28.6,7.3
		c6.6,9.7,9.1,20.9,10.6,32.3c3.8,28.6,2.4,57.1-0.8,85.6c-8.5,76.1-27.3,149.5-57.7,219.9c-9.8,22.6-21.2,44.3-36.5,63.8
		c-4.9,6.3-10.4,12.1-17.1,16.7c-3,2.1-6.2,3.7-9.8,4.7c-2.1,0.6-4.8,1.6-5.7-1C640.3,671.7,643.7,672,645.1,670.9z"/>
	<path class="st22" d="M449.9,734.3c-8.7,0.6-8.9,0.7-10.5-8.1c-3.5-19.6-7.3-39.1-9.2-59c-0.4-4.2,2.2-5.1,4.9-6.3
		c27.6-12.7,55.4-25.1,83.8-35.8c5.7-2.2,11.5-4.4,17.3-6.4c8.1-2.9,9.3-2.2,11,6.3c0.6,3.9,1.4,7.8,1.9,11.8
		c2.7,22.6,7,44.9,11.5,67.1c1.5,7.5,1.4,8.2-6,10.2c-1.3,0.3-2.6,0.7-3.9,1C517.3,722.9,483.8,729.7,449.9,734.3z M435.8,670.5
		c2.4,19,5.6,36.6,8.5,54.3c0.6,3.8,2.7,3.5,5.6,3.1c30.5-5,60.7-11.5,90.9-18.2c3.4-0.8,7.8-0.7,9.9-2.8c2.3-2.3-0.7-6.4-0.7-9.9
		c0-0.2,0-0.3,0-0.5c-2.8-22.4-5-44.9-8.7-67.2c-0.6-3.9-1.6-4.3-5.3-2.9c-33,11.9-64.7,26.6-97.1,40
		C435.8,667.6,435.4,669.2,435.8,670.5z"/>
	<path class="st24" d="M449.9,734.3c33.9-4.6,67.5-11.4,100.8-19.2c1.3-0.3,2.6-0.6,3.9-1c7.4-2,7.6-2.7,6-10.2
		c-4.5-22.3-8.8-44.6-11.5-67.1c-0.5-3.9-1.3-7.8-1.9-11.8c1.7,0.6,3.2-0.2,4.8-0.8c7-2.9,10.3-1.4,11.5,6.2
		c1.5,9.2,2.6,18.4,3.5,27.6c1.6,16.2,1.5,32.5,5.9,48.3c1.4,5.1-1,8.1-6.7,9.7c-18,5.3-36.6,8.2-54.9,11.9
		c-16.9,3.4-33.8,6.7-50.8,9.7C456.6,738.3,451.8,740.2,449.9,734.3z"/>
	<path class="st22" d="M461,794.3c-2.6,0.1-4.3-0.5-5.3-2.3c-1.1-1.9-1-3.8,0.2-5.7c1.4-2.3,3.6-3.9,5.7-5.5
		c10.2-7.5,20.3-15.1,29.2-24.1c3.3-3.4,7-3.4,10.8-0.6c12,9,25.8,14.4,39.6,19.8c2.4,0.9,4,0.4,5.9-0.9c5.7-3.8,9.6-9.2,12.8-15
		c0.8-1.4,1.3-3.6,3.5-2.6c2,0.9,1.2,2.9,0.6,4.4c-3.6,9.4-8,18.3-17.3,23.6c-3.4,1.9-6.8,2.3-10.5,0.9c-12.7-4.5-25-10.1-36.4-17.3
		c-2.5-1.6-3.9-1.4-5.9,0.6c-8.9,8.6-19.1,15.5-29.1,22.8C463.5,793.4,462.1,794.3,461,794.3z"/>
	<path class="st12" d="M438.2,907.8c0,12.5,0.5,25-2.2,37.3c-0.4,1.9-1.1,3.8-1.9,5.6c-3.5,7.4-9,8.9-15.7,4.2
		c-8.9-6.2-15.1-15-21.1-23.7c-14.2-20.5-26.5-42.1-36.4-65c-1.3-3-1.4-4.7,2-6.7c20.5-12,41.4-23.2,62.7-33.5
		c4.4-2.1,6.5-1.1,7.3,3.9c1.2,7.2,2.4,14.4,3,21.7C437.3,870.2,438.3,889,438.2,907.8z M376.2,888.4c9.1,14.9,17.3,30.1,27.7,44
		c5.1,6.8,9.9,13.8,16.9,18.8c4.1,2.9,6.6,2.3,8.6-2.2c0.7-1.6,1.4-3.4,1.5-5.2c0.7-6.9,1.8-13.9,1.8-20.8c0-15.1-0.5-30.3-1-45.4
		c-0.1-4.8-0.8-9.6-1.3-14.8c-5.8,3-9-0.6-12.3-3.6c-2.3-2-4.2-2.9-7-1.2c-7.5,4.7-14.9,9.4-21.8,15c-1.5,1.2-2.3,2.6-2.4,4.6
		C386.3,886.2,385.2,887.3,376.2,888.4z M430.8,856.2c-0.8-7-1.3-13.1-2.2-19.2c-1-6.4-1.1-6.2-7.3-3.4
		c-18.8,8.8-35.9,20.7-54.8,29.3c-1.9,0.9-1,1.6-0.6,2.6c2.2,5.7,4.6,11.3,9.5,15.5c1.6,1.4,3.2,2.4,5.3,1.8c2.1-0.6,2.1-2.9,2-4.1
		c-0.7-6.4,3.4-9.7,7.8-12.8c4.4-3,8.8-5.9,13.2-9c7.1-5.1,14-7.8,20.7,0.7c0.4,0.5,1.1,1,1.7,1
		C428.4,858.9,430.7,858.6,430.8,856.2z"/>
	<path class="st23" d="M591.1,590c-5.6-3.4-11.5-6.5-18.8-8.7c5.4-2.8,9.9-4.9,14.2-7.4c25.7-15.4,45.9-35.7,57-64
		c3.6-9.2,5.5-18.8,3.7-28.8c-1.3-7-3.9-13.1-9.1-17.9c-2.4-2.2-1.8-2.9,0.5-4.6c14.7-10.6,27.9-22.7,38.1-37.8
		c6.5-9.6,11.7-19.8,12.7-31.6c0.7-8.5-1.1-16.4-7.6-22.3c-2.9-2.6-2-3.6,0.5-5.3c11.6-8.2,22-17.8,30.7-29.1
		c5.6-7.3,10-15.3,11.5-24.6c2.7,3.8,1.5,7.9,0.8,11.9c-3.6,20.7-15.2,37-29.3,51.8c-2.7,2.8-3.5,5.3-2.8,9.2
		c2.3,12.4-1.3,24.1-5.6,35.5c-7.5,20-19.6,37-35.5,51.2c-1.9,1.7-3.2,3.2-2.1,5.9c8.2,20.6,2.9,40.1-5.8,58.8
		c-10.6,22.9-27.9,40.3-48.9,54.2C593.9,587.3,591.7,587.8,591.1,590z"/>
	<path class="st23" d="M714,289.1c-4.8-1.2-9.6-2-15.2-1.4c8.4-12.7,16.4-24.6,28-33.6c3.9-3,8-5.9,13.3-5.9
		c-1.9,6-7.5,9.1-10.9,13.9c-4.6,6.5-9.6,12.7-13.2,19.8C714.8,284.2,713.9,286.5,714,289.1z"/>
	<path class="st4" d="M435.8,670.5c-0.4-1.3,0-2.9,2.9-4.1c32.4-13.3,64.1-28.1,97.1-40c3.7-1.3,4.6-0.9,5.3,2.9
		c3.7,22.3,6,44.8,8.7,67.2c0,0.2,0,0.3,0,0.5c0,3.4,3,7.5,0.7,9.9c-2.1,2.1-6.5,2-9.9,2.8c-30.2,6.7-60.4,13.2-90.9,18.2
		c-2.8,0.5-4.9,0.7-5.6-3.1C441.4,707.1,438.2,689.5,435.8,670.5z"/>
	<path class="st28" d="M376.2,888.4c9-1.1,10.2-2.1,10.9-10.7c0.2-2,0.9-3.4,2.4-4.6c6.9-5.6,14.3-10.3,21.8-15
		c2.8-1.8,4.8-0.9,7,1.2c3.3,3,6.6,6.6,12.3,3.6c0.5,5.2,1.1,10,1.3,14.8c0.5,15.1,1,30.3,1,45.4c0,6.9-1.1,13.9-1.8,20.8
		c-0.2,1.8-0.8,3.6-1.5,5.2c-2,4.5-4.5,5.2-8.6,2.2c-7-5.1-11.9-12.1-16.9-18.8C393.5,918.5,385.3,903.3,376.2,888.4z"/>
	<path class="st20" d="M430.8,856.2c-0.1,2.4-2.4,2.6-4.8,2.5c-0.6,0-1.3-0.5-1.7-1c-6.6-8.5-13.6-5.8-20.7-0.7
		c-4.3,3.1-8.8,6-13.2,9c-4.5,3.1-8.5,6.4-7.8,12.8c0.1,1.2,0.1,3.5-2,4.1c-2.1,0.6-3.6-0.4-5.3-1.8c-4.8-4.2-7.2-9.8-9.5-15.5
		c-0.4-1-1.2-1.7,0.6-2.6c18.8-8.6,36-20.6,54.8-29.3c6.2-2.9,6.3-3,7.3,3.4C429.6,843.1,430,849.2,430.8,856.2z"/>
</g>
</svg>
