<?xml version="1.0" encoding="utf-8"?>
<!-- Generator: Adobe Illustrator 25.0.0, SVG Export Plug-In . SVG Version: 6.00 Build 0)  -->
<svg version="1.1" id="图层_1" xmlns="http://www.w3.org/2000/svg" xmlns:xlink="http://www.w3.org/1999/xlink" x="0px" y="0px"
	 viewBox="0 0 1200 1600" style="enable-background:new 0 0 1200 1600;" xml:space="preserve">
<style type="text/css">
	.st0{fill:#060604;}
	.st1{fill:#EDCF5D;}
	.st2{fill:#FBF1EE;}
	.st3{fill:#ECCF5D;}
	.st4{fill:#F4FB95;}
	.st5{fill:#A0918B;}
	.st6{fill:#FBFBFB;}
	.st7{fill:#927233;}
	.st8{fill:#935A40;}
	.st9{fill:#623C2A;}
	.st10{fill:#FEFEFE;}
	.st11{fill:#040302;}
	.st12{fill:#090805;}
	.st13{fill:#9C5B46;}
	.st14{fill:#070705;}
	.st15{fill:#ECCE5D;}
	.st16{fill:#F2F2F2;}
	.st17{fill:#93583F;}
	.st18{fill:#A1918B;}
	.st19{fill:#513123;}
	.st20{fill:#FAFAFA;}
	.st21{fill:#030202;}
	.st22{fill:#060605;}
	.st23{fill:#A0908A;}
	.st24{fill:#937234;}
	.st25{fill:#E6C95B;}
	.st26{fill:#864E37;}
	.st27{fill:#513124;}
	.st28{fill:#B0603E;}
	.st29{fill:#FAF0ED;}
	.st30{fill:#F9F9F9;}
	.st31{fill:#917133;}
	.st32{fill:#9E8F89;}
	.st33{fill:#E7CA5B;}
	.st34{fill:#92583F;}
	.st35{fill:#050503;}
	.st36{fill:#FCFBFB;}
	.st37{fill:#080704;}
	.st38{fill:#070605;}
	.st39{fill:#FAF1ED;}
	.st40{fill:#F4FA95;}
	.st41{fill:#F8F8F7;}
	.st42{fill:#90573E;}
	.st43{fill:#030302;}
	.st44{fill:#080805;}
	.st45{fill:#FBF1ED;}
	.st46{fill:#FBFBFA;}
	.st47{fill:#927234;}
	.st48{fill:#F69376;}
	.st49{fill:#7B2D2D;}
	.st50{fill:#FCFCFC;}
	.st51{fill:#EF5A2D;}
	.st52{fill:#F0CC2D;}
	.st53{fill:#9F8F8A;}
	.st54{fill:#FAFAF9;}
	.st55{fill:#F2A78E;}
	.st56{fill:#040403;}
	.st57{fill:#070604;}
	.st58{fill:#A0908B;}
	.st59{fill:#F7F7F7;}
	.st60{fill:#E8CB5B;}
	.st61{fill:#8F563E;}
	.st62{fill:#513224;}
	.st63{fill:#080705;}
	.st64{fill:#FCFCFB;}
	.st65{fill:#F9F8F8;}
	.st66{fill:#FAF0EC;}
	.st67{fill:#9F908A;}
	.st68{fill:#91573E;}
	.st69{fill:#070704;}
	.st70{fill:#F5FC96;}
	.st71{fill:#9C9C53;}
	.st72{fill:#9A9A52;}
	.st73{fill:#F2F994;}
	.st74{fill:#A17628;}
	.st75{fill:#90573F;}
	.st76{fill:#090806;}
	.st77{fill:#523123;}
	.st78{fill:#7C4031;}
	.st79{fill:#ED866D;}
	.st80{fill:#F3E9E6;}
	.st81{fill:#4F3023;}
	.st82{fill:#060606;}
	.st83{fill:#89533B;}
	.st84{fill:#050403;}
	.st85{fill:#090909;}
	.st86{fill:#EDCF5E;}
	.st87{fill:#050504;}
	.st88{fill:#060504;}
	.st89{fill:#955A41;}
	.st90{fill:#080703;}
	.st91{fill:#090807;}
	.st92{fill:#070603;}
	.st93{fill:#0A0905;}
	.st94{fill:#937335;}
	.st95{fill:#955A40;}
	.st96{fill:#955940;}
	.st97{fill:#EDD05E;}
	.st98{fill:#8F7032;}
	.st99{fill:#945940;}
	.st100{fill:#EED05E;}
	.st101{fill:#503123;}
	.st102{fill:#EEEEEE;}
	.st103{fill:#0D0C0A;}
	.st104{fill:#E3C659;}
	.st105{fill:#967535;}
	.st106{fill:#9D7D38;}
	.st107{fill:#745A29;}
	.st108{fill:#847334;}
	.st109{fill:#907134;}
	.st110{fill:#E5C85B;}
	.st111{fill:#503124;}
	.st112{fill:#927133;}
	.st113{fill:#E0DDD4;}
	.st114{fill:#987836;}
	.st115{fill:#977636;}
	.st116{fill:#CCC4A4;}
	.st117{fill:#523224;}
	.st118{fill:#0B0908;}
	.st119{fill:#8F7135;}
	.st120{fill:#050404;}
	.st121{fill:#EDD05D;}
	.st122{fill:#F3FA94;}
	.st123{fill:#9A9A51;}
	.st124{fill:#999951;}
	.st125{fill:#937334;}
	.st126{fill:#FAF0EE;}
	.st127{fill:#F3FA95;}
	.st128{fill:#989851;}
	.st129{fill:#A2792A;}
	.st130{fill:#F1F893;}
	.st131{fill:#A17729;}
	.st132{fill:#050502;}
	.st133{fill:#947335;}
	.st134{fill:#917233;}
	.st135{fill:#9B9B52;}
	.st136{fill:#F9EFEC;}
	.st137{fill:#9A782F;}
	.st138{fill:#979752;}
	.st139{fill:#F2F893;}
	.st140{fill:#8C8E4F;}
	.st141{fill:#B5B96E;}
	.st142{fill:#0F0F09;}
	.st143{fill:#9C9C52;}
	.st144{fill:#F5FB95;}
	.st145{fill:#F3F994;}
	.st146{fill:#A17728;}
	.st147{fill:#917134;}
	.st148{fill:#090706;}
	.st149{fill:#8E6F32;}
	.st150{fill:#93593F;}
	.st151{fill:#907033;}
	.st152{fill:#060505;}
	.st153{fill:#C8C3AF;}
	.st154{fill:#533324;}
	.st155{fill:#533426;}
	.st156{fill:#0E0C0A;}
	.st157{fill:#907133;}
	.st158{fill:#583627;}
	.st159{fill:#0A0907;}
	.st160{fill:#573526;}
	.st161{fill:#0C0B09;}
	.st162{fill:#503023;}
	.st163{fill:#543325;}
	.st164{fill:#B7B3A1;}
</style>
<g>
	<path class="st14" d="M722.7,777.9c1.7,0.3,3,0.5,4.3,0.7c11.3,1.7,17.6,11.2,14.3,22.3c-3.2,10.8-9.3,20.2-15.8,29.3
		c-15.3,21.7-35.7,38.1-56.2,54.4c-44.3,35.2-94,60.2-148.3,75.9c-17.4,5-35.4,6.1-53.3,7.6c-20.5,1.8-41,1.9-61.3-1
		c-7.5-1.1-13.2-0.5-19.9,4.5c-14.3,10.7-28.8,3.6-31.5-14.2c-0.6-3.6-0.5-7.4-6-6.4c-0.6,0.1-1.3-0.3-1.9-0.6
		c-21.3-9.8-41.8-20.8-54.2-42.1c-0.8-1.4-1.8-2.1-3.4-2.4c-5.1-1-9.9-2.8-14.5-5.1c-11.4-5.8-13.1-15.2-3.9-23.9
		c3.7-3.5,3.1-4.6-0.9-6.9c-9.7-5.6-11-13.1-4-21.9c6-7.4,12.7-14.1,20.6-19.5c2.7-1.8,4.2-3.6,2.6-6.9c-0.7-1.5-1-3.2-1.2-4.8
		c-0.3-2.9-1.6-3.7-4.5-3.8c-7.8-0.4-13.9-4.2-18.7-10.1c-1.9-2.3-3.3-5.1-0.8-7.6c2.5-2.5,4.9-0.3,7,1.4c3.8,3.2,7.9,5.3,13.3,5.8
		c-0.8-6-1.6-11.7-2.5-17.4c-1.3-8.1-1-16.3-1-24.4c0-2,0.4-3.9-2.5-4.5c-1.9-0.3-2.9-2.2-3.8-3.8c-10.9-18.1-21.9-36.1-32.5-54.3
		c-3.7-6.3-2.8-9.2,3.1-13.4c3.2-2.3,3.9-4.1,2-7.9c-11.2-22.4-16.8-46.5-21.9-70.8c-10.5-50.2-12.4-100.9-10.8-152.1
		c1.9-59.7,16.8-116.3,35.9-172.3c8.9-26,19.9-50.8,36.8-72.7c11.1-14.4,24.7-26.1,41.1-34.3c4.3-2.2,8.8-3.9,13.6-4.8
		c13.7-2.4,24.4,2.1,32.4,13.6c8.1,11.7,12.7,24.9,16.7,38.3c8,26.5,11.7,54,16.1,81.2c7.3,44.8,11.2,90.2,20.9,134.7
		c7.7,35.3,15.5,70.6,29.8,103.9c1,2.4,0.7,6.1,5.2,6.3c4.3,0.3,6.1-2,8.1-5.2c38.3-61.3,77.8-121.9,122.5-178.8
		c36.1-45.9,74.3-90.3,115.1-132.3c17.6-18.1,37.5-33.5,58.1-48c8.3-5.8,17.3-10,27.6-10.6c14.5-0.9,25,6,32.7,17.5
		c10.6,15.9,16.3,33.8,19,52.6c4.6,32,2.2,63.8-1.8,95.6c-4.4,35.5-9.5,71-18.3,105.7c-14.1,55.8-29.5,111.2-55.8,163
		c-21.1,41.5-44.3,81.6-72.4,118.8c-1.8,2.4-4.4,4.2-5.3,7.1c-0.9,2.9-1.1,5,3.5,4.2c6.5-1.2,13.1-2.5,19.8-0.9
		c12.1,2.8,17.7,11.9,14.8,23.9C729.1,766.7,726.3,772.3,722.7,777.9z M359,846c-10.4-4-16.7,0.2-22.6,7.5c-1,1.2-1.9,2.9-0.1,4.4
		c2.5,5.6,6.6,7.3,11.9,4.9c4.5-2,8.2-5.1,10.6-9.5C360,851,361,848.6,359,846z M288.1,898c0.1,0.1,0.1,0.3,0.2,0.4c0,0,0.2,0,0.3,0
		c-0.2-0.1-0.3-0.1-0.5-0.2c0.1-0.5,0.3-1,0.2-1.4c-2.6-12.2-1.6-24.4-0.5-36.7c0.8-9.2,2.7-18.2,3.8-28.4
		c-8.8,7.1-16,14.3-22.1,22.7c-2.1,2.9-1.6,5.5,1,8c2.1,2,4.5,3.4,6.9,4.8c6.1,3.7,6.4,6.6,1.1,11.6c-1.5,1.4-3,2.7-4.2,4.2
		c-3.3,4-3,7.2,1.2,10.1C279.2,895.4,283.4,897.3,288.1,898z M330,619c2.3-0.3,4.5-0.1,7,0.6c0-11.4-1.6-22.9,5.5-33
		c-11.5-2.8-15.5-9-13.9-20.3c0.9-6.5,2.9-12.7,5.4-18.6c1.6-3.8,0.4-4.5-3.2-4.6c-12.7-0.4-22.6-7.9-26.4-19.9
		c-2.6-8.4-3.1-17-1.8-25.7c4-27,13.8-51.9,27.3-75.5c5.5-9.7,9.9-19.2,10.8-31c2.5-32.3,2.3-64.4-0.7-96.6
		c-0.8-8.6-3.6-16.9-7.9-24.5c-5.1-8.7-13.8-10.2-21.4-3.8c-2.4,2-4.9,4-6.4,6.9c-1.8,0.8-2.6,2.5-3.7,3.9
		c-9.7,12.8-16.1,27.5-22.1,42.2c-18.2,44.8-26.4,91.8-28.2,139.9c-0.8,22.3-0.6,44.7,1.4,66.9c2,22.4,6.7,44.3,11.7,66.2
		c4.6,20.1,8,40.4,14.1,60.1c1.3,4,2.6,4.4,5.3,1.4c0.6-0.6,1.2-1.1,1.9-1.7C299.1,640.3,313.1,627.7,330,619z M335.2,845.1
		L335.2,845.1c12.4-9,26.4-12.1,41.6-10.1c2.9,0.4,5.9,0.6,8.6,2c0.9,0.5,1.9,1.5,1.2,2.8c-0.6,1-1.5,1-2.6,0.7
		c-5.2-1.2-10.5-0.1-15.8-0.3c-3,0-6.5-0.7-3.3,4.3c2,3,1.1,6.4-0.3,9.5c-4.7,10.5-14.7,16-26.6,14.3c0.2,2.6,1.4,4.6,2.7,6.7
		c1.3,3.3,3.4,6.1,5.4,8.9c0.7,1,1.2,2.2,3.1,1.8c8.1-1.7,16.3-3.2,24.4-4.8c18.4-3.7,37.1-6.1,54.3-14.1
		c11.9-5.5,24.1-10.2,36.5-14.7c10-3.6,16-0.6,18.8,9.8c3,11.1,3.9,22.3,1.8,33.6c-2.2,12.2-6.6,23.4-18,30.3
		c-8.4,1.7-16.8,4.6-25.5,2.8c-3.1-0.6-5.5-0.1-7.9,1.5c-10.3,6.8-20.2,14.1-28.9,22.9c-1.3,1.3-3.2,2.4-3.3,4.9
		c4,0.3,8,0.5,11.9,0.8c3.2,0.1,6.3,0.2,9.5,0.3c28.8,1.2,57.5-0.1,85.4-6.9c56.8-13.8,108.5-39,154.5-75.3
		c16-12.6,32.9-24.4,45-41.3c10.9-10.9,19-23.6,24.6-37.9c1.9-4.8-1.2-8.9-6.3-9.5c-2.9-0.4-5.9-0.4-8.7,0.8
		c-8.4,1.7-16.2,5.5-24.8,6.2c-1.7,0.1-3.9,1.5-4.9-0.8c-0.9-2.2,1.8-2.8,2.7-4.2c6-2.8,13.5-4.2,17.7-8.7
		c5.2-5.6,9.9-12.4,12.1-20.3c2.8-10,0.1-13.9-10.5-14.3c-9.8,0.9-19.5,1.7-29.3,2.6c-4.1-3.3-4.3-5.2-1.3-9.1c3-4,5.9-8.1,8.8-12.1
		c34-46.8,62.8-96.5,85.9-149.6c18.4-42.3,30.2-86.7,41.4-131.2c12.5-49.8,19.6-100.6,22.9-151.9c1.3-20.1,0.7-40.3-3.8-60.2
		c-3.1-13.6-7.6-26.6-15.2-38.3c-8.9-13.9-21.4-17.3-36.3-10.2c-4.2,2-8.3,4.4-12,7.2c-20,14.8-39.7,29.9-56.7,48.1
		C651.5,308,592.5,376.6,542.4,452.6c-20.2,30.6-41.8,60.2-60.8,91.6c-1.3,2.2-2.4,3.8,0.1,6.4c2.3,2.3,0.9,5-1.9,6.5
		c-2,1-4.2,1-6.3,1.1c-7.1,0.2-14.2,0.3-21.3,0.9c-20.3,1.8-39.1,8.5-56.2,19.2c-20.3,12.6-39.7,26.3-52.4,47.5
		c-1.5,2.6-1.7,4.4,0.4,6.4c7.8,16.7,14.9,33.7,24.9,49.3c8.9,14,8.6,14.7-5.3,23.5c-23,14.6-45.8,29.6-68.6,44.3
		c-5.6,3.6-7.9,7.3-6.5,13.5c0,0.2,0.1,0.3,0.1,0.5c0.2,12.4,2.1,24.5,4.9,37c8.1-4.8,13.6-11.4,20.5-16.2
		c8.7-6.1,12.5-5.6,18.6,2.9c5.6,7.9,13.1,12.6,22.7,14c3.3,0.5,6.5,1.4,9.5,2.9c1.8,0.9,2.8,2.4,2.5,4.4c-0.2,2-1.7,2.7-3.4,3.1
		c-3.3,0.8-6.6,0.9-9.9,0.3c-11.8-1.9-20.2-9-26.8-18.3c-2.4-3.3-4-3.1-7-0.9c-7.2,5.4-13.2,12.2-21.3,16.5
		c-2.6,1.4-3.1,2.9-2.4,5.5c2.6,9.1,4.7,18.3,2.3,27.8c-2.7,7.1-3,14.6-4.2,21.9c-3.5,21.8,0.1,41.3,17.6,56.8
		c12.3,10.8,26.5,18.1,41.6,24.6c0.3-4.5,0.9-8.3,2.1-11.9c0.9-2.6,0.2-4.5-1.7-6.6c-5.6-6.2-9.9-13.3-12.8-21.2
		c-1.8-5-2.5-10.1,0.9-14.8c1.1-1.5,1-2.5-0.3-3.9c-6.7-7.7-10.3-16.9-12.9-26.6c-1.3-5.7,2.4-9.8,4.4-14.5
		C334.7,846.6,335.1,846.1,335.2,845.1z M341.8,612.1c1-0.6,1.2-0.6,1.3-0.7c27.8-31.6,60.9-54.5,103.1-62.1
		c3.2-0.6,2.8-1.6,1.8-3.9c-14.6-34.5-23.1-70.8-31.2-107.2c-9.2-41.8-13.3-84.5-20-126.7c-4.5-28.3-8.3-56.7-16-84.3
		c-3.8-13.8-8-27.5-16.8-39.3c-5.5-7.4-12.6-9.9-21.5-8c-9.5,2-17.6,7-25.3,12.5c-21.5,15.5-36,36.7-46,60.6
		C245.1,315.9,227,380.8,224,449.5c-2.5,56.9,0.5,113.2,13.1,168.8c4.1,18.2,9,36.1,15.9,53.5c1.7,4.3,2.9,4,5.8,1.3
		c4.1-3.8,8.7-7.3,13.1-10.8c1.3-1.1,2.6-1.8,1.7-4c-7.4-18.5-9.8-38.2-14.2-57.5c-7.8-33.9-14.4-67.9-15.2-102.8
		c-0.9-36.2,0.6-72.1,7.8-107.7c6.9-34.5,16.8-68,33.1-99.3c5.3-10.1,11.5-19.5,19.9-27.3c11.6-10.8,25.6-8.5,32.9,5.7
		c2.8,5.3,4.8,10.9,6.2,16.8c3.3,13.4,3.5,27,3.9,40.7c0.6,24.1,0.9,48.3-2,72.3c-0.5,4.5-1.4,8.7-3.6,12.8
		c-9.7,18.2-19.8,36.2-25.8,56.1c-4.3,14.4-8.7,28.7-7.5,44c1.2,15.1,6.6,21.4,21.2,25c1,0.2,2,0.4,2.8,0.9c3.4,1.9,4.7,0.4,6-2.8
		c2.6-6.3,6.1-12.3,10.8-17.3c1.6-1.7,3-5.9,5.8-3.7c2.6,2-0.7,4.7-2,6.8c-8.9,13.9-15,28.9-18.1,45.1c-1.9,10.1,1.7,14.5,10.6,14.2
		c2-0.1,4.1,0.3,5.1,2.4c1,2.2-0.4,3.8-1.7,5.3C344.1,594.8,342.8,603,341.8,612.1z M281.6,750c1.5-0.9,3.3-1.8,4.9-2.9
		c10.9-7.1,21.7-14.2,32.5-21.4c15.5-10.3,31-20.7,46.5-31c2.9-1.9,3.2-3.6,1.3-6.4c-10.2-15.2-17.7-31.9-25.1-48.6
		c-5.3-12-5.6-11.9-16.9-5.2c-27.7,16.3-51.5,37.7-76.1,58.1c-2.6,2.2-1.1,3.6,0,5.4c8.2,13.1,16.4,26.2,23.8,39.8
		c1.9,3.5,4.1,6.9,6.2,10.2C279.3,748.9,279.8,750.1,281.6,750z M478.9,882.4c-1-6.6-1.6-13.5-3.8-20.2c-1.2-3.7-3.2-5-7.1-3.3
		c-4.9,2.1-10,3.6-15,5.5c-15.8,6.2-31.2,13.7-47.8,17.1c-16.6,3.4-33.1,7.3-49.9,9.5c-7.7,1-9.9,4.8-7.7,12.3
		c1.7,5.6,4.4,10.7,7.6,15.7c3.7,5.7,3.5,5.6,7.6,0c6.8-9.4,15.3-16.6,27.7-15.8c5.4,0.4,10.6,0.7,16,0c8.3-1.1,16.6,0,24.9,1.1
		c9.2,1.2,18.4,3.5,22.9,12.1c3,5.8,5.6,4.2,9.4,2.5c3.2-1.4,5.4-3.9,7.3-6.6C477.1,903.3,478,893,478.9,882.4z M448,917.4
		c-1.1-0.9-2.1-2-3.3-2.8c-4.7-3.1-10.1-4-15.6-4.7c-7.5-1-14.9-1.4-22.4-0.3c-7.1,1-10.6,6.2-14.1,11.6c-0.7,1.1-1.3,2.7-3,1.9
		c-1.6-0.8-0.9-2.4-0.5-3.6c1.1-2.7,2.5-5.3,3.9-8.2c-5.8-1.8-10.8,0-15.5,2.6c-14.4,8.1-21.7,32.1-14.6,47.1
		c2.8,5.9,7.2,7.5,13.1,4.9c5.6-2.5,9.7-6.8,13.9-11.1C406.5,938,423.9,922.8,448,917.4z"/>
	<path class="st1" d="M333.6,846.2c-2,4.7-5.7,8.8-4.4,14.5c-5.9,1.2-11.2-0.5-16-3.9c-5.6-4-10.3-8.9-14.4-14.4
		c2.4-9.5,0.3-18.7-2.3-27.8c-0.8-2.7-0.2-4.2,2.4-5.5c8-4.2,14.1-11.1,21.3-16.5c3-2.2,4.6-2.4,7,0.9c6.6,9.4,15,16.4,26.8,18.3
		c3.3,0.5,6.6,0.5,9.9-0.3c1.7-0.4,3.2-1.1,3.4-3.1c0.2-2.1-0.7-3.5-2.5-4.4c-3-1.5-6.1-2.5-9.5-2.9c-9.6-1.3-17-6.1-22.7-14
		c-6.1-8.5-9.9-9-18.6-2.9c-7,4.8-12.5,11.5-20.5,16.2c-2.8-12.5-4.7-24.6-4.9-37c4.5-1.2,8-4.1,11.5-6.8
		c13.8-10.6,27.4-21.6,41.3-32.1c11.5-8.7,24.1-16,35.1-25.5c4.4-3.8,4.9-6.2,2.1-11.1c-2.6-4.5-5.1-9-7.3-13.6
		c-6.2-12.5-12.2-25.1-18.3-37.7c-1.8-3.6-3.8-7-8.8-4.3c-2.2-2-2-3.9-0.4-6.4c12.7-21.2,32.2-34.9,52.4-47.5
		c17.1-10.7,35.9-17.3,56.2-19.2c7.1-0.6,14.2-0.7,21.3-0.9c2.2-0.1,4.4-0.1,6.3-1.1c2.8-1.5,4.2-4.2,1.9-6.5
		c-2.5-2.5-1.5-4.1-0.1-6.4c19-31.3,40.6-61,60.8-91.6c50.1-75.9,109.2-144.5,171.3-210.6c17.1-18.2,36.8-33.3,56.7-48.1
		c3.7-2.8,7.8-5.2,12-7.2c14.9-7.1,27.3-3.7,36.3,10.2c7.5,11.7,12.1,24.8,15.2,38.3c4.5,19.8,5,40,3.8,60.2
		c-3.2,51.3-10.3,102-22.9,151.9c-11.2,44.5-23,89-41.4,131.2c-23.1,53-51.9,102.8-85.9,149.6c-2.9,4-5.8,8.1-8.8,12.1
		c-2.9,3.9-2.7,5.8,1.3,9.1c-5,3-10.9,5-13.2,11.2c-20.1,12.9-35.9,30.7-53.2,46.7c-21,19.6-45.2,32-73.4,36.7
		c-15.6,2.6-31.3,3.9-47,4.9c-6.4,0.4-12.7,1.7-19.3,0.2c-6.6-1.5-13.4-2.2-20.1-3.1c-13.3-1.7-26.7-3.9-38.1-10.9
		c-21.7-13.4-43.7-12.4-66.5-4c-6.9,2.6-12,6.7-14.2,14.1c0,0,0-0.1,0-0.1C334.6,845.4,334.1,845.8,333.6,846.2z M597.1,655.9
		c0.3-1.8,0.7-3.6,0.9-5.4c1.1-8.4,0.3-9.7-7.7-12.3c-0.6-0.2-1.3-0.3-1.9-0.5c-43.1-13.9-87.7-20.1-132.4-26
		c-3.2-0.4-5.1,0.8-5.8,3.9c-1.6,6.4-3.3,12.9-4.9,19.3c-4.8,18.9-9.8,37.7-11,57.2c-0.3,5.2,0.4,9.6,5.7,12.1
		c-1.3,6.2-0.1,8,6.3,10c10.9,3.3,22.2,4.2,33.2,6.7c27.4,6,54.8,12.4,82.1,18.6c10.3,2.4,14.4,0.7,19-8.7
		c9.9-20.4,15.5-42.5,23.1-63.7C605.9,660.9,603.2,657.3,597.1,655.9z M661.8,648.8c4.8,10.7,6.4,22.4,10.2,33.4
		c0.6,1.8,0.8,3.5,3,3.8c-0.7,1.1-1.3,2.3-2.1,3.3c-1.2,1.4-2.1,3-0.5,4.3c1.3,1.1,2.8,0.2,4-1c2.1-2.1,4.4-4.1,6.3-6.4
		c20.4-25.7,39.3-52.6,54.2-81.9c36-70.6,60-145.5,76.8-222.8c6.9-31.7,13-63.6,10.6-96.5c-1-14.1-3.8-27.7-9.3-40.7
		c-4.5-10.5-13.5-15.3-24.1-13.3c-4.3,0.8-8.2,2.7-12,4.9c-22.9,13.3-41,31.7-56.1,53.2c-0.8,1.1-1.5,2.2-2,3.5
		c-2.7,6.4-1.6,8.7,5,10.4c5.8,1.5,11.5,3.3,16.3,7.1c5.3,4.3,7.3,9.6,5,16c-4.6,13.1-10.7,25.1-22.6,33.3c-7,4.8-8.5,6.5,1.5,12
		c0.3,0.2,0.6,0.2,0.9,0.4c10.6,4.7,15,13.4,12.4,24.8c-2.2,9.6-7,18-13.2,25.5c-23.7,28.2-53.6,45.8-89.9,52.4
		c-2,0.4-5.6-0.4-5.1,3.2c0.4,3.2,3.6,2,5.8,2.1c0.5,0,1-0.1,1.5-0.2c13-1.7,25.3-5.4,37.2-10.8c1.4-0.6,2.6-1.4,4.3-0.9
		c5.9,1.8,9.9,7.1,9.8,13.5c-0.1,9.8-4.5,18-10.4,25.3c-23.1,28.3-52.9,46.6-87.3,58.1c-13,4.3-26.6,6.5-39.7,10.7
		c-2.1,0.7-4.8,0.8-4.2,3.8c0.6,2.7,3.3,2.4,5.4,1.7c11.8-3.5,22.7-0.4,33.3,4.4c28.8,12.9,51.7,32.5,67,60.4
		C655.8,649.5,657.6,652.6,661.8,648.8z M545.1,803.5c2.7,0,5.1-0.7,8-1.9c12.1-4.8,18.8-14.9,24.9-25.6c1-1.7,1.2-3.6-0.6-4.9
		c-1.7-1.3-3.6-0.7-5,0.5c-1.9,1.6-3.6,3.4-5.4,5.2c-5.3,5.1-10.6,10.1-17.2,13.5c-2.5,1.3-4.9,1.7-7.7,1.2
		c-19-3.9-37.1-10.5-54.2-19.6c-4.1-2.2-8-2.9-11.5,0.5c-10.3,9.9-20.5,19.9-31.9,28.7c-1.9,1.5-2.6,3.6-1.3,5.8
		c1.4,2.2,3.7,2.1,5.8,1.3c1.4-0.5,2.7-1.3,4-2.1c9.8-5.8,18.5-13,26.6-21c1.4-1.4,2.5-3.1,5-1.6c9.4,5.6,19.9,8.4,29.9,12.4
		C524.4,799.7,534.7,802.5,545.1,803.5z"/>
	<path class="st3" d="M341.8,612.1c0.9-9,2.2-17.3,7.9-24.2c1.3-1.6,2.7-3.1,1.7-5.3c-1-2.2-3.1-2.5-5.1-2.4
		c-8.9,0.3-12.5-4.1-10.6-14.2c3-16.1,9.2-31.2,18.1-45.1c1.3-2.1,4.6-4.8,2-6.8c-2.8-2.2-4.2,2-5.8,3.7c-4.7,5-8.1,11-10.8,17.3
		c-1.3,3.2-2.6,4.7-6,2.8c-0.8-0.5-1.9-0.6-2.8-0.9c-14.6-3.6-20-9.9-21.2-25c-1.2-15.3,3.1-29.6,7.5-44c6-19.9,16.1-37.9,25.8-56.1
		c2.2-4.1,3.1-8.3,3.6-12.8c2.8-24,2.6-48.2,2-72.3c-0.3-13.6-0.6-27.3-3.9-40.7c-1.4-5.8-3.4-11.5-6.2-16.8
		c-7.4-14.1-21.3-16.5-32.9-5.7c-8.4,7.8-14.6,17.2-19.9,27.3c-16.3,31.4-26.1,64.8-33.1,99.3c-7.2,35.6-8.7,71.6-7.8,107.7
		c0.9,34.9,7.5,69,15.2,102.8c4.4,19.2,6.8,39,14.2,57.5c0.9,2.2-0.4,3-1.7,4c-4.4,3.6-8.9,7-13.1,10.8c-2.9,2.7-4.1,3-5.8-1.3
		c-6.8-17.4-11.7-35.3-15.9-53.5c-12.6-55.6-15.5-111.9-13.1-168.8c3-68.7,21.1-133.6,47.3-196.5c9.9-23.9,24.4-45.1,46-60.6
		c7.7-5.6,15.8-10.5,25.3-12.5c8.9-1.9,16,0.7,21.5,8c8.7,11.8,12.9,25.5,16.8,39.3c7.7,27.6,11.5,56,16,84.3
		c6.7,42.2,10.8,84.9,20,126.7c8,36.4,16.6,72.7,31.2,107.2c0.9,2.2,1.4,3.3-1.8,3.9c-42.2,7.6-75.3,30.5-103.1,62.1
		C343.1,611.5,342.9,611.5,341.8,612.1z"/>
	<path class="st2" d="M335.1,845.1c2.1-7.3,7.2-11.5,14.2-14.1c22.8-8.5,44.7-9.4,66.5,4c11.4,7,24.8,9.2,38.1,10.9
		c6.7,0.8,13.5,1.6,20.1,3.1c6.5,1.5,12.9,0.2,19.3-0.2c15.7-1,31.5-2.3,47-4.9c28.2-4.7,52.4-17.2,73.4-36.7
		c17.3-16.1,33.1-33.9,53.2-46.7c2.2-6.2,8.1-8.2,13.2-11.2c9.8-0.9,19.5-1.7,29.3-2.6c-4.4,14.5-8.8,29-18.5,41.1
		c-0.5,0.6-0.5,1.5-0.7,2.3c-0.9,1.4-3.7,2-2.7,4.2c1,2.3,3.2,0.9,4.9,0.8c8.6-0.7,16.4-4.5,24.8-6.2c1.2,14.8-3.6,28.4-8.4,42
		c-0.5,1.5-1.9,2.8-1.1,4.6c-12.1,16.9-29,28.7-45,41.3c-45.9,36.4-97.6,61.5-154.5,75.3c-27.9,6.8-56.6,8.1-85.4,6.9
		c-3.2-0.1-6.3-0.2-9.5-0.3c1.7-5.4,6.5-8.1,10.3-11.6c8.5-7.7,17-15.3,29.9-14.6c5.1,0.3,10.6-1.3,13.4-6.7
		c11.3-6.9,15.7-18.1,18-30.3c2.1-11.3,1.2-22.5-1.8-33.6c-2.8-10.3-8.7-13.4-18.8-9.8c-12.3,4.4-24.6,9.1-36.5,14.7
		c-17.2,8-35.9,10.4-54.3,14.1c-8.1,1.6-16.3,3.1-24.4,4.8c-1.9,0.4-2.4-0.7-3.1-1.8c-2-2.9-4.1-5.6-5.4-8.9c1.7,0,3.3,0.1,5,0.1
		c11.1,0.1,21.5-7.5,24.8-18.1c1.9-6-0.3-11.4-2.4-16.8c5.3,0.2,10.6-0.9,15.8,0.3c1.1,0.3,2,0.3,2.6-0.7c0.7-1.4-0.3-2.3-1.2-2.8
		c-2.6-1.4-5.6-1.6-8.6-2C361.5,833,347.6,836,335.1,845.1z"/>
	<path class="st2" d="M330,619c-16.9,8.6-30.9,21.3-45.5,33.2c-0.6,0.5-1.3,1-1.9,1.7c-2.7,3-4.1,2.6-5.3-1.4
		c-6.1-19.7-9.5-40.1-14.1-60.1c-5-21.9-9.7-43.8-11.7-66.2c-2-22.2-2.3-44.6-1.4-66.9c1.7-48.2,10-95.1,28.2-139.9
		c6-14.7,12.4-29.4,22.1-42.2c1.1-1.4,1.9-3.1,3.7-3.9c0.4,0.3,0.7,0.8,1.1,0.9c14.1,2.9,21.9,13.1,27.9,25c5.8,11.4,5,24,5.7,36.1
		c1,17.9,0.4,35.9-1,53.9c-0.4,5.1,0.3,10.4-3.3,15.2c-15.6,20.5-28.8,42.4-37.1,66.9c-5.1,15.1-8.2,30.5-5.3,46.6
		c3.4,18.7,15,29.8,33.1,31.5c3.1,0.3,3,1.6,2.3,3.9c-1.5,5.6-3,11.2-4.2,16.9c-1.6,7.8,1.9,15.4,9.1,18.7c2.5,1.1,2.4,2.2,1.5,4.1
		C330.2,601.1,329.3,609.9,330,619z"/>
	<path class="st4" d="M281.6,750c-1.8,0.2-2.3-1.1-2.9-2c-2.1-3.4-4.3-6.8-6.2-10.2c-7.4-13.6-15.6-26.7-23.8-39.8
		c-1.1-1.8-2.6-3.2,0-5.4c24.6-20.4,48.4-41.8,76.1-58.1c11.3-6.7,11.6-6.8,16.9,5.2c7.4,16.7,14.9,33.4,25.1,48.6
		c1.9,2.8,1.6,4.5-1.3,6.4c-15.6,10.3-31,20.7-46.5,31c-10.8,7.2-21.7,14.3-32.5,21.4C284.9,748.2,283.1,749.1,281.6,750z"/>
	<path class="st78" d="M478.9,882.4c-1,10.6-1.8,20.9-8,29.8c-1.9,2.8-4.1,5.2-7.3,6.6c-3.8,1.7-6.4,3.2-9.4-2.5
		c-4.5-8.6-13.7-10.9-22.9-12.1c-8.3-1-16.6-2.2-24.9-1.1c-5.4,0.7-10.6,0.4-16,0c-12.4-0.9-20.9,6.4-27.7,15.8
		c-4.1,5.6-3.9,5.7-7.6,0c-3.2-4.9-5.9-10-7.6-15.7c-2.3-7.4,0-11.2,7.7-12.3c16.8-2.2,33.3-6.1,49.9-9.5
		c16.6-3.4,32-10.9,47.8-17.1c4.9-1.9,10.1-3.4,15-5.5c3.9-1.7,5.9-0.4,7.1,3.3C477.3,868.9,477.9,875.8,478.9,882.4z"/>
	<path class="st29" d="M298.7,842.4c4.1,5.5,8.9,10.4,14.4,14.4c4.8,3.5,10.1,5.1,16,3.9c2.6,9.7,6.2,18.9,12.9,26.6
		c1.2,1.4,1.3,2.4,0.3,3.9c-3.4,4.7-2.7,9.8-0.9,14.8c2.8,7.9,7.2,15,12.8,21.2c1.9,2.1,2.5,4,1.7,6.6c-1.2,3.6-1.8,7.4-2.1,11.9
		c-15.2-6.5-29.4-13.8-41.6-24.6c-17.5-15.4-21.1-35-17.6-56.8C295.7,856.9,296,849.4,298.7,842.4z"/>
	<path class="st67" d="M330,619c-0.7-9.1,0.2-17.9,4-26.4c0.9-1.9,0.9-2.9-1.5-4.1c-7.2-3.3-10.7-10.8-9.1-18.7
		c1.2-5.7,2.7-11.3,4.2-16.9c0.6-2.3,0.8-3.6-2.3-3.9c-18.1-1.7-29.7-12.7-33.1-31.5c-2.9-16,0.2-31.4,5.3-46.6
		c8.3-24.5,21.6-46.4,37.1-66.9c3.6-4.8,3-10.1,3.3-15.2c1.3-17.9,2-35.9,1-53.9c-0.7-12.2,0-24.7-5.7-36.1
		c-6-11.9-13.8-22.1-27.9-25c-0.4-0.1-0.7-0.6-1.1-0.9c1.5-2.9,4-4.9,6.4-6.9c7.7-6.4,16.4-5,21.4,3.8c4.4,7.6,7.1,15.9,7.9,24.5
		c3.1,32.2,3.2,64.3,0.7,96.6c-0.9,11.8-5.3,21.3-10.8,31c-13.5,23.6-23.3,48.5-27.3,75.5c-1.3,8.7-0.8,17.3,1.8,25.7
		c3.8,12,13.7,19.6,26.4,19.9c3.6,0.1,4.8,0.8,3.2,4.6c-2.5,6-4.5,12.1-5.4,18.6c-1.6,11.3,2.4,17.4,13.9,20.3
		c-7.1,10.1-5.5,21.6-5.5,33C334.6,618.9,332.3,618.7,330,619z"/>
	<path class="st79" d="M448,917.4c-24.1,5.4-41.5,20.6-57.8,37.5c-4.2,4.3-8.3,8.6-13.9,11.1c-6,2.6-10.4,1-13.1-4.9
		c-7.2-15.1,0.2-39.1,14.6-47.1c4.7-2.6,9.6-4.5,15.5-2.6c-1.4,2.9-2.8,5.5-3.9,8.2c-0.5,1.1-1.1,2.8,0.5,3.6c1.7,0.8,2.3-0.8,3-1.9
		c3.5-5.4,7.1-10.6,14.1-11.6c7.5-1.1,14.9-0.7,22.4,0.3c5.5,0.7,10.9,1.6,15.6,4.7C445.9,915.4,446.9,916.5,448,917.4z"/>
	<path class="st24" d="M344,632.1c5-2.8,7,0.7,8.8,4.3c6.2,12.5,12.2,25.2,18.3,37.7c2.3,4.6,4.8,9.1,7.3,13.6
		c2.9,4.9,2.3,7.3-2.1,11.1c-11,9.5-23.5,16.8-35.1,25.5c-13.9,10.5-27.5,21.5-41.3,32.1c-3.5,2.7-7,5.6-11.5,6.8
		c0-0.2-0.1-0.3-0.1-0.5c-1.4-6.2,0.9-9.9,6.5-13.5c22.9-14.8,45.6-29.8,68.6-44.3c13.9-8.8,14.2-9.5,5.3-23.5
		C358.9,665.8,351.7,648.8,344,632.1z"/>
	<path class="st3" d="M288.1,898c-4.7-0.6-8.9-2.6-12.7-5.1c-4.2-2.8-4.6-6-1.2-10.1c1.3-1.5,2.8-2.8,4.2-4.2c5.3-5,5-7.9-1.1-11.6
		c-2.4-1.5-4.8-2.9-6.9-4.8c-2.5-2.4-3.1-5-1-8c6.1-8.3,13.3-15.5,22.1-22.7c-1.2,10.2-3,19.2-3.8,28.4c-1.1,12.3-2.1,24.5,0.5,36.7
		c0.1,0.4-0.1,0.9-0.2,1.4L288.1,898z"/>
	<path class="st67" d="M690,790.1c0.2-0.8,0.3-1.7,0.7-2.3c9.7-12.1,14.2-26.6,18.5-41.1c10.6,0.4,13.3,4.3,10.5,14.3
		c-2.2,7.9-6.9,14.8-12.1,20.3C703.5,785.8,696.1,787.3,690,790.1z"/>
	<path class="st67" d="M707.5,835.4c-0.9-1.8,0.5-3.1,1.1-4.6c4.8-13.6,9.6-27.2,8.4-42c2.8-1.2,5.8-1.2,8.7-0.8
		c5.2,0.6,8.2,4.7,6.3,9.5C726.6,811.8,718.4,824.5,707.5,835.4z"/>
	<path class="st67" d="M466.9,925.8c-2.9,5.5-8.4,7-13.4,6.7c-13-0.7-21.5,6.9-29.9,14.6c-3.8,3.5-8.6,6.2-10.3,11.6
		c-3.9-0.3-7.9-0.5-11.9-0.8c0.1-2.6,2-3.6,3.3-4.9c8.7-8.8,18.6-16,28.9-22.9c2.4-1.6,4.8-2.1,7.9-1.5
		C450.1,930.4,458.4,927.5,466.9,925.8z"/>
	<path class="st67" d="M368.2,840.2c2.1,5.4,4.3,10.7,2.4,16.8c-3.3,10.6-13.7,18.2-24.8,18.1c-1.7,0-3.3-0.1-5-0.1
		c-1.3-2-2.5-4.1-2.7-6.7c11.8,1.7,21.8-3.8,26.6-14.3c1.4-3.1,2.2-6.5,0.3-9.5C361.6,839.5,365.2,840.2,368.2,840.2z"/>
	<path class="st24" d="M336.2,857.9c-1.7-1.5-0.8-3.2,0.1-4.4c5.9-7.3,12.3-11.4,22.6-7.5C353.4,855.8,344.8,860.3,336.2,857.9z"/>
	<path class="st78" d="M336.2,857.9c8.7,2.4,17.2-2.1,22.8-11.9c2.1,2.5,1.1,5-0.2,7.3c-2.4,4.4-6.1,7.4-10.6,9.5
		C342.8,865.2,338.7,863.5,336.2,857.9z"/>
	<path class="st2" d="M333.6,846.2c0.5-0.4,1.1-0.7,1.6-1.1C335.1,846.1,334.7,846.6,333.6,846.2z"/>
	<path class="st3" d="M288,898.1c0.2,0.1,0.3,0.1,0.5,0.2c-0.1,0-0.2,0.1-0.3,0c-0.1-0.1-0.1-0.2-0.2-0.4
		C288.1,898,288,898.1,288,898.1z"/>
	<path class="st2" d="M675,686.1c-2.3-0.3-2.4-2-3-3.8c-3.8-11-5.4-22.7-10.2-33.4c0.3-5-2.6-8.8-5-12.7
		c-14.8-24.1-35.6-41.6-60.8-54.2c-0.1-2.4,2.1-2.3,3.4-3c17.1-8.9,33.3-19.4,48.6-31.1c2-1.5,4.7-2.7,5-5.7l0,0
		c2.4,0,4.2-0.8,4.3-3.6c15.9-12.8,30.7-26.4,38-46.3c4.2-6,3.6-12.6,1.5-18.8c-1.3-3.7-0.5-5.2,2.3-7.2
		c10.7-7.5,19.3-17.2,26.7-27.9c1.7-2.5,4.1-4.8,4.1-8.3c5.7-7.8,11.1-15.7,14.7-24.7c5.9-14.8,3.3-26.1-8.3-36.9
		c1.5-1.6,3.1-3,4.4-4.7c6.9-8.9,11.8-18.5,11.6-30.1c0.3-1.3,0.7-2.6,1.1-3.8c3.4-11.9,0.4-20.2-10.2-26.8c-3.2-2-6.8-3.3-10.3-5
		c5.6-12.9,15.7-22.2,25.4-31.6c10-9.8,21.5-17.6,34.6-23.1c3-1.2,6.7,0.1,9-3c4.5,1.3,5.6,5.4,7,9c6.4,15.6,8.4,32.1,8.7,48.8
		c0.3,17.7-2.2,35.2-5.1,52.6c-10.3,61.5-28.5,120.8-49.8,179.2C742.2,586.9,712.8,638.8,675,686.1z"/>
	<path class="st12" d="M675,686.1c37.8-47.2,67.2-99.2,87.9-156c21.2-58.5,39.5-117.8,49.8-179.2c2.9-17.4,5.3-34.9,5.1-52.6
		c-0.3-16.7-2.2-33.2-8.7-48.8c-1.5-3.6-2.6-7.7-7-9c-1.9-2.4-4.6-2.3-7.2-2.3c-5.1-0.1-9.2,2.4-13.4,4.9
		c-20.5,11.9-36.8,28.4-51.4,46.7c-5.2,6.5-5.2,6.6,3,8.4c3.4,1.6,7,3,10.3,5c10.5,6.5,13.6,14.9,10.2,26.8
		c-0.4,1.3-0.7,2.6-1.1,3.8c-6.1,11.5-11.6,23.5-23.8,31.2c3.1,1.4,5.5,2.5,7.9,3.6c11.6,10.8,14.1,22,8.3,36.9
		c-3.6,9-9,16.9-14.7,24.7c-5.1,4.7-10,9.6-15.2,14.2c-8.7,7.7-18.5,13.9-29.2,20c10.7,5.6,11.7,14.6,10.2,24.6
		c-0.2,1.1-0.3,2.3-0.4,3.4c-7.3,19.8-22.2,33.5-38,46.3c-1.9,0.7-3.6,1.5-4.3,3.6l0,0c-2.1-0.3-3.3,1.5-4.7,2.4
		c-19,12.9-39.3,22.9-61.7,28.7c-2.1,0.5-4.5,0.6-6.3,2.3c5.3,2.2,10.5,4.3,15.7,6.4c25.1,12.6,46,30.1,60.8,54.2
		c2.4,3.9,5.3,7.7,5,12.7c-4.2,3.7-6,0.6-7.8-2.7c-15.3-27.9-38.2-47.5-67-60.4c-10.6-4.8-21.5-7.9-33.3-4.4c-2.2,0.6-4.8,1-5.4-1.7
		c-0.7-2.9,2.1-3.1,4.2-3.8c13.1-4.2,26.6-6.4,39.7-10.7c34.4-11.5,64.2-29.7,87.3-58.1c6-7.3,10.4-15.5,10.4-25.3
		c0-6.4-3.9-11.7-9.8-13.5c-1.6-0.5-2.9,0.2-4.3,0.9c-11.9,5.4-24.2,9.1-37.2,10.8c-0.5,0.1-1,0.2-1.5,0.2c-2.2-0.1-5.4,1.1-5.8-2.1
		c-0.5-3.5,3-2.8,5.1-3.2c36.3-6.6,66.2-24.2,89.9-52.4c6.3-7.5,11-15.8,13.2-25.5c2.6-11.3-1.8-20-12.4-24.8
		c-0.3-0.1-0.6-0.2-0.9-0.4c-10-5.5-8.5-7.1-1.5-12c11.8-8.2,18-20.2,22.6-33.3c2.2-6.3,0.3-11.7-5-16c-4.8-3.9-10.5-5.6-16.3-7.1
		c-6.6-1.7-7.7-4.1-5-10.4c0.5-1.2,1.2-2.4,2-3.5c15.1-21.5,33.2-39.9,56.1-53.2c3.8-2.2,7.7-4.1,12-4.9c10.6-2,19.6,2.8,24.1,13.3
		c5.6,13,8.3,26.6,9.3,40.7c2.4,32.8-3.7,64.7-10.6,96.5c-16.8,77.3-40.8,152.1-76.8,222.8c-14.9,29.3-33.8,56.1-54.2,81.9
		c-1.9,2.3-4.2,4.3-6.3,6.4c-1.1,1.2-2.7,2.1-4,1c-1.6-1.4-0.6-2.9,0.5-4.3C673.7,688.4,674.3,687.2,675,686.1z"/>
	<path class="st37" d="M440,704.1c-5.3-2.4-6-6.9-5.7-12.1c1.2-19.5,6.2-38.4,11-57.2c1.6-6.4,3.3-12.9,4.9-19.3
		c0.8-3.1,2.6-4.3,5.8-3.9c44.7,6,89.3,12.1,132.4,26c0.6,0.2,1.3,0.3,1.9,0.5c8,2.7,8.8,4,7.7,12.3c-0.2,1.8-0.6,3.6-0.9,5.4
		c-7.1,21.5-16.6,42.1-22.4,64c-2.8,10.4-6.1,12.1-17,9.7c-18.1-3.9-36.4-6.2-54.5-9.6C481.8,716,460.4,711.8,440,704.1z
		 M459.5,619.1c-2.9-1.2-3.5,0.4-3.8,3.1c-0.2,2.3-0.9,4.5-1.5,6.8c-4.8,20.4-10.6,40.5-12.8,61.5c-0.5,4.6,0.4,7.1,5.1,8.4
		c12.2,3.5,24.5,6.4,36.8,9c25.5,5.5,51.6,8.1,77,14.5c4.7,1.2,6.5,0.1,7.8-4.4c5.1-17.7,11.9-34.8,18.7-51.9
		c2-4.9,3.3-10.1,4.9-15.1c1.1-3.6,0.2-5.5-3.8-6.7C546.2,631.1,503.2,623.9,459.5,619.1z"/>
	<path class="st24" d="M440,704.1c20.5,7.8,41.8,11.9,63.2,15.9c18.1,3.4,36.5,5.7,54.5,9.6c10.9,2.3,14.2,0.7,17-9.7
		c5.8-21.9,15.3-42.5,22.4-64c6,1.4,8.7,5,6.6,10.9c-7.7,21.3-13.3,43.3-23.1,63.7c-4.6,9.4-8.7,11.1-19,8.7
		c-27.4-6.2-54.7-12.6-82.1-18.6c-11-2.4-22.3-3.4-33.2-6.7C439.8,712.1,438.6,710.3,440,704.1z"/>
	<path class="st37" d="M545.1,803.5c-10.4-1-20.7-3.8-30.6-7.6c-10-3.9-20.6-6.8-29.9-12.4c-2.5-1.5-3.6,0.2-5,1.6
		c-8.1,8-16.8,15.2-26.6,21c-1.3,0.8-2.6,1.6-4,2.1c-2.1,0.8-4.4,1-5.8-1.3c-1.4-2.2-0.6-4.3,1.3-5.8c11.4-8.8,21.6-18.8,31.9-28.7
		c3.5-3.3,7.4-2.7,11.5-0.5c17.1,9.1,35.2,15.7,54.2,19.6c2.8,0.6,5.2,0.1,7.7-1.2c6.6-3.4,11.9-8.5,17.2-13.5
		c1.8-1.7,3.5-3.5,5.4-5.2c1.5-1.3,3.3-1.9,5-0.5c1.8,1.4,1.5,3.2,0.6,4.9c-6,10.7-12.7,20.8-24.9,25.6
		C550.2,802.8,547.8,803.5,545.1,803.5z"/>
	<path class="st67" d="M733,298.1c-8.2-1.9-8.3-1.9-3-8.4c14.6-18.3,30.9-34.8,51.4-46.7c4.2-2.4,8.4-4.9,13.4-4.9
		c2.6,0,5.3-0.1,7.2,2.3c-2.3,3-6,1.8-9,3c-13.1,5.5-24.6,13.3-34.6,23.1C748.7,275.9,738.5,285.2,733,298.1z"/>
	<path class="st67" d="M596.1,581.9c-5.2-2.1-10.4-4.3-15.7-6.4c1.8-1.6,4.2-1.7,6.3-2.3c22.3-5.8,42.7-15.8,61.7-28.7
		c1.4-1,2.6-2.7,4.7-2.4c-0.3,3.1-3,4.2-5,5.7c-15.3,11.7-31.5,22.2-48.6,31.1C598.2,579.6,596,579.6,596.1,581.9z"/>
	<path class="st67" d="M695.4,492.2c0.1-1.1,0.2-2.3,0.4-3.4c1.5-10,0.5-19-10.2-24.6c10.8-6.1,20.5-12.3,29.2-20
		c5.2-4.6,10.1-9.4,15.2-14.2c0,3.4-2.4,5.8-4.1,8.3c-7.4,10.7-16,20.4-26.7,27.9c-2.8,2-3.6,3.5-2.3,7.2
		C699,479.6,699.6,486.3,695.4,492.2z"/>
	<path class="st67" d="M736.4,368.5c-2.4-1.1-4.7-2.2-7.9-3.6c12.2-7.8,17.7-19.7,23.8-31.2c0.2,11.6-4.6,21.3-11.6,30.1
		C739.5,365.4,737.9,366.9,736.4,368.5z"/>
	<path class="st67" d="M653.1,542.1c0.7-2.1,2.4-2.9,4.3-3.6C657.2,541.3,655.5,542.1,653.1,542.1z"/>
	<path class="st70" d="M459.5,619.1c43.6,4.8,86.7,12,128.6,25.1c4,1.2,4.9,3.2,3.8,6.7c-1.6,5.1-3,10.2-4.9,15.1
		c-6.8,17.1-13.7,34.2-18.7,51.9c-1.3,4.5-3.2,5.5-7.8,4.4c-25.4-6.3-51.4-9-77-14.5c-12.4-2.6-24.6-5.5-36.8-9
		c-4.7-1.3-5.6-3.9-5.1-8.4c2.2-20.9,8-41.1,12.8-61.5c0.5-2.3,1.3-4.5,1.5-6.8C456,619.5,456.6,617.9,459.5,619.1z"/>
</g>
</svg>
