<?xml version="1.0" encoding="utf-8"?>
<!-- Generator: Adobe Illustrator 25.0.0, SVG Export Plug-In . SVG Version: 6.00 Build 0)  -->
<svg version="1.1" id="图层_1" xmlns="http://www.w3.org/2000/svg" xmlns:xlink="http://www.w3.org/1999/xlink" x="0px" y="0px"
	 viewBox="0 0 1200 1600" style="enable-background:new 0 0 1200 1600;" xml:space="preserve">
<style type="text/css">
	.st0{fill:#060604;}
	.st1{fill:#EDCF5D;}
	.st2{fill:#FBF1EE;}
	.st3{fill:#ECCF5D;}
	.st4{fill:#F4FB95;}
	.st5{fill:#A0918B;}
	.st6{fill:#FBFBFB;}
	.st7{fill:#927233;}
	.st8{fill:#935A40;}
	.st9{fill:#623C2A;}
	.st10{fill:#FEFEFE;}
	.st11{fill:#040302;}
	.st12{fill:#090805;}
	.st13{fill:#9C5B46;}
	.st14{fill:#070705;}
	.st15{fill:#ECCE5D;}
	.st16{fill:#F2F2F2;}
	.st17{fill:#93583F;}
	.st18{fill:#A1918B;}
	.st19{fill:#513123;}
	.st20{fill:#FAFAFA;}
	.st21{fill:#030202;}
	.st22{fill:#060605;}
	.st23{fill:#A0908A;}
	.st24{fill:#937234;}
	.st25{fill:#E6C95B;}
	.st26{fill:#864E37;}
	.st27{fill:#513124;}
	.st28{fill:#B0603E;}
	.st29{fill:#FAF0ED;}
	.st30{fill:#F9F9F9;}
	.st31{fill:#917133;}
	.st32{fill:#9E8F89;}
	.st33{fill:#E7CA5B;}
	.st34{fill:#92583F;}
	.st35{fill:#050503;}
	.st36{fill:#FCFBFB;}
	.st37{fill:#080704;}
	.st38{fill:#070605;}
	.st39{fill:#FAF1ED;}
	.st40{fill:#F4FA95;}
	.st41{fill:#F8F8F7;}
	.st42{fill:#90573E;}
	.st43{fill:#030302;}
	.st44{fill:#080805;}
	.st45{fill:#FBF1ED;}
	.st46{fill:#FBFBFA;}
	.st47{fill:#927234;}
	.st48{fill:#F69376;}
	.st49{fill:#7B2D2D;}
	.st50{fill:#FCFCFC;}
	.st51{fill:#EF5A2D;}
	.st52{fill:#F0CC2D;}
	.st53{fill:#9F8F8A;}
	.st54{fill:#FAFAF9;}
	.st55{fill:#F2A78E;}
	.st56{fill:#040403;}
	.st57{fill:#070604;}
	.st58{fill:#A0908B;}
	.st59{fill:#F7F7F7;}
	.st60{fill:#E8CB5B;}
	.st61{fill:#8F563E;}
	.st62{fill:#513224;}
	.st63{fill:#080705;}
	.st64{fill:#FCFCFB;}
	.st65{fill:#F9F8F8;}
	.st66{fill:#FAF0EC;}
	.st67{fill:#9F908A;}
	.st68{fill:#91573E;}
	.st69{fill:#070704;}
	.st70{fill:#F5FC96;}
	.st71{fill:#9C9C53;}
	.st72{fill:#9A9A52;}
	.st73{fill:#F2F994;}
	.st74{fill:#A17628;}
	.st75{fill:#90573F;}
	.st76{fill:#090806;}
	.st77{fill:#523123;}
	.st78{fill:#7C4031;}
	.st79{fill:#ED866D;}
	.st80{fill:#F3E9E6;}
	.st81{fill:#4F3023;}
	.st82{fill:#060606;}
	.st83{fill:#89533B;}
	.st84{fill:#050403;}
	.st85{fill:#090909;}
	.st86{fill:#EDCF5E;}
	.st87{fill:#050504;}
	.st88{fill:#060504;}
	.st89{fill:#955A41;}
	.st90{fill:#080703;}
	.st91{fill:#090807;}
	.st92{fill:#070603;}
	.st93{fill:#0A0905;}
	.st94{fill:#937335;}
	.st95{fill:#955A40;}
	.st96{fill:#955940;}
	.st97{fill:#EDD05E;}
	.st98{fill:#8F7032;}
	.st99{fill:#945940;}
	.st100{fill:#EED05E;}
	.st101{fill:#503123;}
	.st102{fill:#EEEEEE;}
	.st103{fill:#0D0C0A;}
	.st104{fill:#E3C659;}
	.st105{fill:#967535;}
	.st106{fill:#9D7D38;}
	.st107{fill:#745A29;}
	.st108{fill:#847334;}
	.st109{fill:#907134;}
	.st110{fill:#E5C85B;}
	.st111{fill:#503124;}
	.st112{fill:#927133;}
	.st113{fill:#E0DDD4;}
	.st114{fill:#987836;}
	.st115{fill:#977636;}
	.st116{fill:#CCC4A4;}
	.st117{fill:#523224;}
	.st118{fill:#0B0908;}
	.st119{fill:#8F7135;}
	.st120{fill:#050404;}
	.st121{fill:#EDD05D;}
	.st122{fill:#F3FA94;}
	.st123{fill:#9A9A51;}
	.st124{fill:#999951;}
	.st125{fill:#937334;}
	.st126{fill:#FAF0EE;}
	.st127{fill:#F3FA95;}
	.st128{fill:#989851;}
	.st129{fill:#A2792A;}
	.st130{fill:#F1F893;}
	.st131{fill:#A17729;}
	.st132{fill:#050502;}
	.st133{fill:#947335;}
	.st134{fill:#917233;}
	.st135{fill:#9B9B52;}
	.st136{fill:#F9EFEC;}
	.st137{fill:#9A782F;}
	.st138{fill:#979752;}
	.st139{fill:#F2F893;}
	.st140{fill:#8C8E4F;}
	.st141{fill:#B5B96E;}
	.st142{fill:#0F0F09;}
	.st143{fill:#9C9C52;}
	.st144{fill:#F5FB95;}
	.st145{fill:#F3F994;}
	.st146{fill:#A17728;}
	.st147{fill:#917134;}
	.st148{fill:#090706;}
	.st149{fill:#8E6F32;}
	.st150{fill:#93593F;}
	.st151{fill:#907033;}
	.st152{fill:#060505;}
	.st153{fill:#C8C3AF;}
	.st154{fill:#533324;}
	.st155{fill:#533426;}
	.st156{fill:#0E0C0A;}
	.st157{fill:#907133;}
	.st158{fill:#583627;}
	.st159{fill:#0A0907;}
	.st160{fill:#573526;}
	.st161{fill:#0C0B09;}
	.st162{fill:#503023;}
	.st163{fill:#543325;}
	.st164{fill:#B7B3A1;}
</style>
<g>
	<path class="st38" d="M269.1,861.6c-2.6-3.1-5.3-5.6-7.4-8.6c-5.2-7.4-2.9-14.3,5.8-17.1c5.9-1.9,11.9-3.1,18.1-3.2
		c2.7,0,3.3-0.9,3.1-3.5c-1.5-18-6.5-35.2-11.7-52.4c-0.1-0.5-0.2-1.2-0.5-1.4c-12.1-8.3-17.6-21.5-24-33.7
		c-29.1-55.1-49-113.6-59.9-174.9c-7.3-41-8-82.5-4.7-124c3.8-47.4,15.5-92.8,36.4-135.6c18.1-37.1,41.7-70.1,76.5-93.7
		c9.5-6.5,19.6-12,30.4-15.9c17.4-6.4,29.8-3,40.9,11.8c10,13.3,14.5,29,17.9,45.1c5.4,25.2,6.3,50.9,6.9,76.5
		c1.4,57.2,8,113.5,24,168.6c5.2,17.8,12.4,34.7,19.3,51.8c0.4,1,0.3,2.4,2.1,2.1c4.6-0.7,9.2-1.2,13.8-2c1.3-0.2,2.2-1.4,2.7-2.7
		c5.4-15.3,14.2-28.9,22.2-42.9c24.5-42.5,48.2-85.5,74-127.3c43.1-69.9,93.5-133.8,158-185.5c15.1-12.1,31.1-22.4,50.4-26.4
		c18.6-3.9,33.5,2.9,42.7,19.8c7.1,13.2,11,27.5,12.9,42.3c5,39.6,3.1,79.2-0.7,118.7c-4.1,41.9-9.5,83.7-17.4,125.1
		C787.3,544,764.5,612.3,728,675.5c-7.7,13.3-16.2,26-26.1,37.7c-3.2,3.8-7.2,6.9-9,11.8c-1,2.6-1.5,4.2,2.4,3.3
		c2.2-0.5,4.6-0.5,7-0.6c9.5-0.1,13.6,3.8,13.7,13.5c0.1,6.9-2.6,13-6.4,18.5c-0.9,1.3-2,2.6-3,4c1.2,1.4,2.6,0.9,3.8,1
		c15.9,0.2,21.9,12.1,20.3,24.8c-1.1,8.9-6,16.2-10.8,23.3c-12.8,18.8-27.9,35.8-44.4,51.3c-36.7,34.3-76.9,63.7-124,82.4
		c-32,12.7-65.2,19.7-99.5,21.7c-30.7,1.8-61-0.7-90.1-11.1c-21.3-7.7-39.7-20.7-57.8-34.1c-0.9-0.7-1.9-1.5-2.5-2.5
		c-6.5-10.5-15.7-17.9-26-24.4c-3.6-2.3-6.5-5.7-9.5-8.8c-1.5-1.5-2.8-3.3-3.9-5.2C256.8,873.1,259.3,865.7,269.1,861.6z M297,436
		L297,436c1.5-0.4,2.1-1.4,2.1-2.9c0.3-0.4,0.6-0.8,0.8-1.2c1.5-0.4,2.1-1.4,2.1-2.9c0.3-0.4,0.6-0.8,0.9-1.2
		c1.5-0.4,2.2-1.3,2.1-2.8c0.3-0.4,0.6-0.8,0.9-1.1c2.6-1,3.6-3.1,4.1-5.6c3.5-16.1,5-32.5,7.2-48.7c3.7-26.7,6.4-53.5,5.5-80.5
		c-0.3-7.9-1.5-15.9-5.8-22.9c-3.2-5.1-7.4-6.7-12.8-4.2c-7.8,3.6-14.2,9-19.2,16.1c-3.1,2-5.3,5-7.7,7.8
		c-13.2,16-22.7,34.1-29.8,53.6c-15.7,42.6-24.7,86.6-27.2,132c-1.3,23.3,0.5,46.5,4.7,69.5c6.8,37.5,17.3,73.8,33.1,108.5
		c1.3,2.9,2.9,5.7,4.3,8.5c0.5-5,0.1-9.6-0.2-14.3c-0.4-6.1,0.9-8.1,6.7-9.5c10.3-2.5,20.7-4.9,31-7.3c2.4-0.4,4.9-0.8,7.5-1.3
		c-3-3.7-1.9-7.7-0.9-11.7c2.1-8.2,6.7-15.3,10.4-22.8c0.2-0.2,0.3-0.4,0.5-0.6c-0.1,0-0.3,0-0.4,0c0,0.2,0,0.4,0,0.6
		c-1.4-1-2.9-0.1-4.3-0.1c-10.4,0.5-15.8-4.7-15.9-15.1c-0.1-5.7,0.7-11.2,1.8-16.8c1.8-8.5,5.2-16.5,8.4-25.4
		c-4.7,2.1-8.6,3.9-12.8,4.9c-11.9,2.9-20.1-1.9-22.8-13.7c-1.1-4.8-1.7-9.8-1.3-14.8c1.8-21.7,8.5-41.8,19.1-60.7
		c1.9-3.4,4.7-6.4,5.6-10.3l0,0C296.5,438.6,297.1,437.5,297,436z M354.4,863.9c-1.5,2.8-1.6,5.8-1.2,8.8c0.4,2.5,1.9,4.3,4.7,4.1
		c5.9-0.4,15-8.6,16.7-14.8c-2.4-4-8.2-5.6-14.4-4.2C356.7,858.4,354.7,860.2,354.4,863.9z M351.3,880.7c-0.3-0.2-0.6-0.3-0.9-0.5
		c0,0.4,0.1,0.8,0.1,1.2c0.5,2.3,0.6,4.7,2.3,6.5c1.8,3.8,3.6,7.7,5.5,11.5c0.6,1.1,0.9,2.2-0.2,3.1c-1.2,0.9-2.5,0.6-3.4-0.6
		c-1.8-2.1-3.5-4.3-5.3-6.4c-1.3-2.8-2.9-5.6-3.9-8.5c-0.7-2.1-1.6-2.4-3.5-1.7c-10.2,3.7-19.4,1.6-27.7-5.1
		c-3.4-3.9-7.4-7.3-7.5-13.1c0.8-0.4,1.6-0.8,2.3-1.2c1.1,1.6,2.2,3.3,3.4,4.9c5.8,8.4,16.7,14.1,28.3,7.7c2.3-1.3,3.2-2.3,3.2-4.7
		c0-10.7,5.5-18.2,14.5-23.3c2.5-1.4,3.4-3.1,3.8-5.8c4-24.7,0.9-48.8-6.2-72.4c-3.7-12.3-9.2-24-18.9-33c-9.6-9-19.4-7.9-27,2.9
		c-4.4,6.4-6.8,13.6-8.9,21c-1.4,4.8-1.2,10-4.1,14.3c-3.7,1.7-7.6,1.7-11.8,1.8c4.8,15.9,7.9,31.8,9.6,48
		c1.2,12.5-0.2,24.9-0.5,37.3c-0.3,3.2-0.7,6.3-0.7,9.5c0,10.5-0.1,21.5,7.3,29.9c18.3,20.8,40.9,35.9,67.3,44
		c29.4,9,59.8,11.2,90.4,9c30.9-2.2,61-8.3,89.8-19.9c52.6-21.1,96.2-55,135.2-95.4c3.8-3.9,7.8-7.8,10.5-12.6
		c3.6-2,5.6-5.5,7.9-8.6c6.9-9.1,14.5-17.9,18.4-28.8c4.1-11.4-1.4-18.6-13.5-18.3c-8.5,1.2-17,2.8-25,5.9c-2,0.8-4.1,1.2-5.3-1
		c-1.4-2.5-0.5-4.5,2.1-5.6c6.2-1.9,11.8-5.2,17-8.9c5.6-4,9.7-9.5,12-16.1c3.6-10.4,0.3-14.3-10.3-12.4c-0.2,0-0.3,0.1-0.5,0.1
		c-13.7,2.4-25.6,9.1-37.4,15.8c-2.7,1.6-5.4,3.4-8.9,2.2c-2.5-3.9-0.4-6.2,2.9-7.9c7.7-4,15.4-7.9,23.1-11.8
		c1.5-0.7,2.9-1.1,3.3-3.2c1.7-8,4.5-14.9,10.5-21.4c11.1-12.1,20.1-26.1,28.3-40.4c35.4-61.9,57.8-128.6,71-198.3
		c7.3-38.6,12.4-77.6,16.5-116.7c4.2-40.3,6.3-80.7,1.7-121.2c-1.7-15-5.4-29.5-13.3-42.6c-6.5-10.6-16.1-14.5-28.2-11.9
		c-18.2,3.7-33.1,13.7-47.1,25.2c-18,14.8-35.5,30.4-51.7,47.1c-35.8,37-67.1,77.7-94.2,121.3c-36.2,58.2-69,118.5-103.8,177.6
		c-0.8,1.4-1.5,3-1.5,4.7c-0.1,4-2.5,5.2-6.2,5.5c-44.5,4.4-84.9,18.7-118.9,48.6c-4.7,4.1-9.4,8.2-13.2,14.3
		c4-0.4,7.3-0.9,10.6-1.1c3.3-0.2,6.7-0.3,10-0.3c10.7,0,11.4,0.5,14.7,10.2c0.9,9.9,2,19.8,2.7,29.8c0.7,9.3,1.4,18.6-0.5,27.9
		c-1,4.7-3.7,7.5-8.6,8.5c-20.9,4-41.9,7.3-63.2,8.6c-5.2,0.3-7.7,1.9-7.5,7.1c-2.1,5.3-2.5,10.9-3.4,16.5c-2,12-3,24.1-2.2,36.3
		c0.3,4.5,3.6,5.6,6.8,5.9c3.7,0.4,2.4-3.2,2.8-5.1c2.1-10.9,5.3-21.3,12.1-30.3c10.3-13.8,25.2-15.3,38-3.8
		c6.6,5.9,11.2,13.2,14.9,21.1c10.4,22.5,14.7,46.1,13.5,70.9c-0.3,6.9-1.3,13.8-1.7,21.7c6.7-3.5,13.4-3.4,19.7-4.9
		c0.3,0.2,0.6,0.3,0.9,0.5c1.6,0.7,4.7-0.9,4.6,2.3c-0.1,2.9-2.9,2-4.7,2.2c-7.3,0.5-14.1,2.6-21.7,5.8c8.7,1.6,14,5.2,12.6,14.2
		c-3.7,6.1-8.5,11.2-14.9,14.6C360.6,883,356,883.9,351.3,880.7z M317,623.9c2.6-0.1,5.7,0.5,6.9-2.4c1.9-4.4,5-7.8,8.1-11.2
		c23.8-25,53.4-40.1,85.8-50.5c4.7-1.5,12.5-1.2,13.2-4.7c0.8-3.7-4.4-8.7-7-13.1c-1.4-3.5-3-7-4.3-10.6
		c-20.3-54.7-30-111.3-32.8-169.4c-1.5-31.3-1.7-62.6-6-93.7c-2.3-16.4-6.3-32.4-14.2-47.1c-8.1-15.1-17.7-18.5-33.6-12.2
		c-9.6,3.8-18.7,8.7-27.2,14.6c-34.1,23.3-56.4,56.1-73.7,92.7c-19.4,41.1-30.1,84.6-33.2,129.9c-2.7,39-1.2,77.9,3.9,116.7
		c3.6,27.3,11.6,53.6,19.4,80c9.9,33.3,22.7,65.4,38.7,96.2c3.9,8.1,7.9,16,13.4,23.2c0.2-19.1,2.8-37.5,8.2-56.1
		c-2.8,0-5.2,0-7.7,0c-4.5-1.1-8.8-2.2-9-8.2c-0.2-6-0.5-12-1.1-17.9c-0.5-4.2,0.6-9-1.9-12.6c-4.6-6.7-8.6-13.8-12-21.2
		c-11.1-24-18.4-49.3-24.5-75c-6.5-27.7-11.2-55.6-11.5-84.1c-0.2-14.3,1.3-28.5,2.8-42.7c3.8-36.8,12.7-72.4,25.3-107.1
		c9.3-25.6,22.8-48.7,42.2-68c5-4.9,10.2-9.6,16.8-12.3c7.8-3.2,14.4-1.2,19.2,5.7c3,4.3,4.6,9.2,5.7,14.2c3.3,15.7,2,31.5,1,47.3
		c-1.7,29.4-6.8,58.4-11.2,87.5c-1.1,7.1-3.8,13.3-8.5,19.1c-12,14.8-21,31.5-26.6,49.8c-4.2,13.7-7.5,27.6-4.7,42.1
		c1.8,9.2,6.8,12.2,16,9.8c4.6-1.2,9.1-3.4,13.8-4.3c2.9-0.5,4.1-1.9,5.4-4.2c2.7-5.1,5.8-10.1,8.8-15.1c0.9-1.5,2.3-2.7,4.1-1.4
		c1.6,1.1,1,2.6,0.2,4c-0.9,1.6-1.7,3.2-2.6,4.8c-5.9,10.2-11.1,20.8-14.9,32c-3.1,9.3-5.9,18.8-4.8,28.7c0.7,6.3,4.2,8.7,10.4,7.3
		c5.7-1.2,11.1-3,15.2-7.8c2.1-2.4,4.4-5.1,8.3-4.8c1.6,0.2,3,0.7,3.2,2.5c0.2,1.5-0.5,2.7-1.8,3.3c-1.7,0.8-3.4,1.3-4.8,2.6
		c-10.6,10.7-18.4,23.2-22.7,37.6C309,624,310.8,625.5,317,623.9z M361.4,664.3c-0.8-10.1-1.6-20.2-2.4-30.3c-0.6-6.6-1.1-7-8-7.2
		c-11.9-0.3-23.5,1.7-35.2,3.3c-15,2-29.6,5.8-44.3,9.1c-1.7,0.4-3.4,0.7-3.2,3.5c1.4,16.7,2.7,33.5,3.9,50.2c0.3,3.7,1.5,5,5.5,5
		c25.9,0.1,51.4-3.5,76.9-7.5c4.7-0.7,6.2-3.1,6.4-7.2C361.2,677,362.2,670.7,361.4,664.3z M286.9,896c-0.9-7.1-1.5-14-0.9-21
		c0.8-10.4,1.9-20.8,2.6-31.3c0.1-1.8,1.6-4.9-2.5-4.4c-5.6,0.8-11.2,1.6-16.6,3.2c-4.1,1.3-4.5,3.7-2.3,6.7c2.5,3.5,5.4,6.7,8.3,10
		c3.8,4.3,3.4,6-2.2,7.9c-7.1,2.5-8.2,5.3-4,11.8C273.8,885.9,280.3,890.9,286.9,896z"/>
	<path class="st1" d="M388.5,841.1c-6.4,1.5-13,1.4-19.7,4.9c0.4-7.9,1.4-14.8,1.7-21.7c1.1-24.7-3.2-48.4-13.5-70.9
		c-3.7-7.9-8.3-15.2-14.9-21.1c-12.8-11.5-27.7-10-38,3.8c-6.7,9-9.9,19.5-12.1,30.3c-0.4,1.9,0.9,5.5-2.8,5.1
		c-3.2-0.3-6.5-1.4-6.8-5.9c-0.7-12.2,0.3-24.3,2.2-36.3c0.9-5.5,1.3-11.2,3.4-16.5c1.2-0.1,2.3,0,3.5-0.2c11.3-1.9,22.5-4,33.8-5.8
		c13.3-2,26.5-4.2,39.7-6.8c9.2-1.9,11.6-4.4,12.1-13.5c0.3-5.1,0.1-10.3,0.3-15.5c0.5-10.6,0.3-21.2-2.2-31.6
		c-1.4-5.9-3.9-7.9-10.1-8.5c-3.3-9.7-4-10.2-14.7-10.2c-3.3,0-6.7,0.1-10,0.3c-3.3,0.2-6.6,0.7-10.6,1.1c3.8-6,8.5-10.1,13.2-14.3
		c34-29.9,74.4-44.3,118.9-48.6c3.7-0.4,6.1-1.5,6.2-5.5c0-1.7,0.7-3.3,1.5-4.7c34.8-59.1,67.6-119.4,103.8-177.6
		c27.1-43.6,58.5-84.3,94.2-121.3c16.2-16.8,33.6-32.3,51.7-47.1c14-11.5,28.9-21.4,47.1-25.2c12.1-2.5,21.8,1.3,28.2,11.9
		c7.9,13,11.6,27.6,13.3,42.6c4.6,40.4,2.5,80.8-1.7,121.2c-4.1,39.1-9.1,78.1-16.5,116.7c-13.3,69.7-35.6,136.4-71,198.3
		c-8.2,14.3-17.2,28.3-28.3,40.4c-5.9,6.5-8.7,13.5-10.5,21.4c-0.5,2.1-1.9,2.5-3.3,3.2c-7.7,3.9-15.4,7.8-23.1,11.8
		c-3.4,1.7-5.4,4-2.9,7.9c-4,4.9-8.2,9.6-11.4,15c-5,8.3-8,17.6-12.9,25.8c-15.5,26.1-39.3,41.7-67.2,51.7c-2.8,1-5.9,1.4-7,4.8
		c-1,0.4-2,0.9-3,1.3c2.4-5.6,5-11.1,7.1-16.8c6.5-17.7,8.1-36,6.3-54.7c4.2,0,8.2-0.9,12.2-2.1c11.2-3.4,17.3-11.8,22-21.7
		c0.8-1.7,1.6-4.3-0.5-5.4c-2.5-1.2-2.5,1.8-3.5,3.1c-5.7,7.5-12.9,12.8-22.1,15.3c-3.2,0.9-4.6,0.3-5.5-3.2
		c-3.4-13-9.4-24.8-17.7-35.4c-27.2-34.4-71.2-35.5-99.7-2.2c-14.8,17.3-21.6,37.9-23.4,60.3c-1.8,22,2.4,43,12.1,62.8
		c-6.7-3.6-13.1-7.8-20.8-9.3C406.5,841.1,397.6,839,388.5,841.1z M553.9,612.1c-1.8-3.2-4.6-5-8.2-5.6c-5.8-1-11.6-0.8-17.4-0.6
		c-27.1,0.7-54.1,2.8-81.1,4.9c-4.7,0.4-6.2,2.6-6.3,7c-0.4,19,1.2,37.9,3.1,56.7c1,9.3,2.3,10.6,11.4,13.1c0.5,0.1,0.9,0.3,1.4,0.5
		c0.5,2.5,2.1,3.5,4.5,4c3.1,0.7,6.2,1,9.4,0.8c13.6-0.6,27.2-1.3,40.8-1.9c14.8-0.6,29.4-2.7,43.8-5.7c5.3-1.1,7.4-4.2,7.7-9.4
		c0.7-12.3,1.8-24.5,2.6-36.7c0.3-5.5,0.4-11,0.2-16.5C565.5,615,560,610.2,553.9,612.1z M674,678.4c-0.4,1.6-2.2,3.4-0.2,5
		c2.2,1.7,3.7-0.4,5.2-1.5c3.3-2.4,5.6-5.7,7.7-9.1c15-23.4,29-47.3,40.3-72.8c20.6-46.3,35.6-94.3,46-143.9
		c4.3-20.3,8.7-40.6,11.7-61.1c2.8-19.6,5.1-39.2,6.6-58.9c1.7-21.1,4.1-42.1,3.5-63.2c-0.3-10.8-1.4-21.6-6.9-31.3
		c-4.3-7.5-10.4-10.2-18.8-8.7c-11,2-19.7,8.5-28.5,14.8c-17.3,12.6-32.1,27.4-42.6,46.3c-3.2,5.8-2.2,7.4,4.3,8.2
		c7.3,0.9,14.4,2.8,20.2,7.7c5.1,4.3,7.2,9.7,5.7,16.4c-1.6,7.6-5.6,13.8-10.5,19.5c-9.1,10.6-20.3,18.7-31.9,26.2
		c-1.7,1.1-4.5,2.2-2.9,4.8c1.7,2.7,3.9,0.3,5.6-0.7c6.1-3.5,11.7-7.6,17.2-11.9c1.2-0.9,2.1-2.5,4.3-1.8c3.5,1.1,7.2,1.5,10.6,2.7
		c10.2,3.7,14.1,11.6,11.7,22.2c-1.2,5.1-3.3,9.7-6,14.1c-8.7,14.4-20.8,25.5-34.1,35.4c-21.5,16.1-45.2,27.8-71.1,35.3
		c-2,0.6-5.5,0.7-4.6,3.9c0.8,2.7,3.7,1.4,5.7,1c11.8-2.2,23.1-6.2,33.8-11.6c5.1-2.6,8.2-2.1,12.2,1.9c5.3,5.2,9.8,10.4,8.8,18.5
		c-0.9,7.1-3.4,13.5-7.6,19.2c-6.9,9.5-14.9,18.1-24.4,24.9c-27.3,19.7-56.6,35.4-90,42.1c-1.9,0.4-5.6,0.2-5.1,3.4
		c0.4,3,3.6,2.6,5.8,2.3c6.8-0.9,13.3,0.9,19.6,2.9c26.2,8.3,48.2,22.9,65.8,44.1c1.7,2.1,3,5.2,6.7,3.9
		c7.2,10.1,13.3,20.8,18.1,32.3C668.3,666.9,669.6,673.4,674,678.4z"/>
	<path class="st3" d="M261,739.1c-16-30.8-28.9-62.9-38.7-96.2c-7.8-26.3-15.8-52.6-19.4-80c-5.1-38.8-6.6-77.7-3.9-116.7
		c3.1-45.3,13.8-88.8,33.2-129.9c17.3-36.6,39.6-69.4,73.7-92.7c8.5-5.8,17.6-10.8,27.2-14.6c15.9-6.3,25.6-2.9,33.6,12.2
		c7.9,14.7,11.9,30.7,14.2,47.1c4.4,31.1,4.5,62.4,6,93.7c2.8,58.1,12.6,114.7,32.8,169.4c1.3,3.6,2.9,7.1,4.3,10.6
		c-8,3.5-16.2,6.8-24.1,10.7c-27.3,13.5-50.2,32.8-70.8,55c-4.6,4.9-9.1,10.1-12.3,16.2c-6.2,1.6-7.9,0.1-6.1-6.1
		c4.3-14.4,12.1-26.9,22.7-37.6c1.3-1.3,3.1-1.9,4.8-2.6c1.3-0.6,2-1.7,1.8-3.3c-0.3-1.8-1.6-2.3-3.2-2.5c-3.9-0.4-6.3,2.3-8.3,4.8
		c-4.1,4.8-9.5,6.5-15.2,7.8c-6.2,1.3-9.7-1-10.4-7.3c-1.2-10,1.6-19.4,4.8-28.7c3.8-11.2,9-21.8,14.9-32c0.9-1.6,1.7-3.2,2.6-4.8
		c0.8-1.4,1.4-2.9-0.2-4c-1.8-1.3-3.2-0.1-4.1,1.4c-3,5-6.1,9.9-8.8,15.1c-1.2,2.3-2.4,3.7-5.4,4.2c-4.7,0.9-9.1,3-13.8,4.3
		c-9.2,2.4-14.2-0.6-16-9.8c-2.9-14.5,0.5-28.4,4.7-42.1c5.6-18.3,14.6-35,26.6-49.8c4.8-5.9,7.5-12.1,8.5-19.1
		c4.4-29.1,9.5-58.1,11.2-87.5c0.9-15.8,2.3-31.6-1-47.3c-1.1-5.1-2.7-9.9-5.7-14.2c-4.8-6.9-11.4-8.9-19.2-5.7
		c-6.6,2.7-11.8,7.4-16.8,12.3c-19.5,19.3-32.9,42.4-42.2,68c-12.6,34.7-21.5,70.3-25.3,107.1c-1.5,14.2-3,28.4-2.8,42.7
		c0.3,28.5,5,56.5,11.5,84.1c6.1,25.7,13.4,51,24.5,75c3.4,7.4,7.4,14.4,12,21.2c2.5,3.6,1.4,8.4,1.9,12.6
		c0.7,5.9,0.9,11.9,1.1,17.9c0.2,6,4.5,7.1,9,8.2C269.7,716.8,264.6,727.7,261,739.1z"/>
	<path class="st45" d="M552,850.7c1.1-3.4,4.2-3.8,7-4.8c28-10,51.7-25.6,67.2-51.7c4.9-8.3,7.9-17.5,12.9-25.8
		c3.3-5.4,7.5-10.1,11.4-15c3.4,1.2,6.1-0.6,8.9-2.2c11.9-6.7,23.8-13.4,37.4-15.8c-0.4,8.1-4.6,14.8-8.4,21.5
		c-3,5.4-6.5,10.5-9.8,15.7c-2.6,1.2-3.5,3.1-2.1,5.6c1.2,2.2,3.3,1.8,5.3,1c8.1-3.1,16.5-4.7,25-5.9c1.3,12.8-2.4,24.6-6.6,36.5
		c-2.3,6.3-5.8,12.3-6.2,19.3c-2.7,4.9-6.7,8.7-10.5,12.6c-39,40.4-82.6,74.3-135.2,95.4c-28.8,11.6-58.9,17.6-89.8,19.9
		c-30.7,2.2-61,0-90.4-9c-26.4-8.1-49-23.2-67.3-44c-7.4-8.4-7.3-19.3-7.3-29.9c0-3.2,0.5-6.3,0.7-9.5c4.1,0.9,8.5,0.8,12.5,2.5
		c0.1,5.8,4.1,9.2,7.5,13.1c-0.4,0.2-0.9,0.6-1.3,0.6c-3.2,0.2-6.1,1.2-6.7,4.8c-0.7,3.9,2.3,5.6,5.2,7c5.5,2.8,11.5,4.8,17.6,5.1
		c6.8,0.4,14,2,20.4-2.3c1.8,2.1,3.5,4.3,5.3,6.4c1,1.2,2.2,1.5,3.4,0.6c1.1-0.8,0.8-2,0.2-3.1c-1.9-3.8-3.6-7.6-5.5-11.5
		c9.1,3,16.2-1.1,22.3-7.1c3.9-3.9,7.5-8.5,5.1-14.8c1.4-9-4-12.6-12.6-14.2c7.6-3.2,14.4-5.3,21.7-5.8c1.8-0.1,4.6,0.8,4.7-2.2
		c0.1-3.2-3-1.6-4.6-2.3c-0.3-0.1-0.6-0.3-0.9-0.5c9.1-2,18,0,26.9,1.6c7.7,1.4,14.1,5.7,20.8,9.3c2,3.1,3.8,6.2,5.9,9.2
		c13.5,19,31,31.2,55,32.3c-1.3,6.8,1.3,9.8,7.5,10.4c14.5,1.5,28.3-1.4,41.4-7.8c2.7-1.3,4.5-3.5,4-6.8c-0.5-3.3-3-4.4-5.8-5.3
		c-4.9-1.5-9.8-0.5-14.8-0.1c1.3-1,2.6-2,3.9-3c8.4-6.5,15.3-14.2,20.3-23.6C555,854.7,556.6,851.8,552,850.7z M414,949.1
		c22.3,0.1,35.5-10.5,38.7-29.4c1.1-6.4-1.4-12.6-6.4-15.7c-5.3-3.3-10-1.9-14.8,1.4c-9.5,6.8-20,9.1-31.6,6.7
		c-5.2-1-10.6-1.2-14.9,3.2c-8.2,8.2-6.5,21.9,3.6,27.4C397.1,947.5,406.5,948.6,414,949.1z"/>
	<path class="st2" d="M305.9,423.9c-0.3,0.4-0.6,0.8-0.9,1.1c-1.8,0.1-2.2,1.3-2.1,2.8c-0.3,0.4-0.6,0.8-0.9,1.2
		c-1.8,0.1-2.3,1.3-2.1,2.9c-0.3,0.4-0.6,0.8-0.8,1.2c-1.9,0.1-2.3,1.3-2.1,2.9l0,0c-2,0.1-2.3,1.3-2,3c0,0,0,0,0,0
		c-1.7-0.2-2.2,1.3-2.9,2.3c-14,20.2-23.9,42.3-28.9,66.4c-1.4,6.7-2,13.4-1.3,20.3c1.7,15.4,12.7,26.4,27.6,27.1
		c2.9,0.1,3.9,1,3.4,3.8c-1,5.8-1.5,11.6-0.9,17.4c0.9,8.7,2.5,17.3,9.6,23.3c2.6,2.2,2.9,3.9,1.8,6.8c-2.5,6.6-4.2,13.3-3.6,20.5
		c-10.3,2.4-20.7,4.8-31,7.3c-5.8,1.4-7.2,3.3-6.7,9.5c0.3,4.6,0.7,9.3,0.2,14.3c-1.4-2.8-3-5.6-4.3-8.5
		c-15.8-34.7-26.3-71-33.1-108.5c-4.2-23-6-46.2-4.7-69.5c2.5-45.3,11.6-89.3,27.2-132c7.2-19.5,16.6-37.6,29.8-53.6
		c2.3-2.8,4.5-5.8,7.7-7.8c4.1,0,7.5-2.3,11.4-3.3c12.5-3.2,17.7,0,18.8,12.5c1.9,20.6,1.1,41.2-0.4,61.7
		C312.9,374,309.8,399,305.9,423.9z"/>
	<path class="st4" d="M361.4,664.3c0.8,6.3-0.2,12.6-0.5,18.9c-0.2,4.1-1.7,6.5-6.4,7.2c-25.5,4-51,7.6-76.9,7.5
		c-3.9,0-5.2-1.3-5.5-5c-1.2-16.7-2.5-33.5-3.9-50.2c-0.2-2.7,1.5-3.1,3.2-3.5c14.7-3.4,29.3-7.1,44.3-9.1
		c11.7-1.6,23.3-3.6,35.2-3.3c6.9,0.2,7.4,0.5,8,7.2C359.8,644.1,360.6,654.2,361.4,664.3z"/>
	<path class="st46" d="M296.9,777.5c2.8-4.3,2.7-9.5,4.1-14.3c2.1-7.4,4.5-14.6,8.9-21c7.5-10.8,17.4-11.9,27-2.9
		c9.7,9,15.2,20.6,18.9,33c7.2,23.7,10.2,47.7,6.2,72.4c-0.4,2.7-1.3,4.4-3.8,5.8c-9,5.1-14.5,12.6-14.5,23.3c0,2.4-0.9,3.4-3.2,4.7
		c-11.5,6.4-22.5,0.7-28.3-7.7c-1.1-1.6-2.2-3.3-3.4-4.9c-6.2-16-9.3-32.6-11.1-49.7C296.5,803.3,297.2,790.4,296.9,777.5z
		 M353.5,804.4c-0.1-5.3-0.3-10.6-2.7-15.6c-3.6-7.4-10.9-10.1-18.4-6.7c-3.1,1.4-5.7,3.5-7.7,6.2c-1.6,2.3-2.7,2.8-5.4,1
		c-8.6-5.6-16.2-2.6-18.4,7.5c-3.2,14.7,0.6,28.2,9.2,40.1c8.8,12.3,22.5,12.2,31.9,0.3C349.5,827.6,353.6,816.7,353.5,804.4z"/>
	<path class="st23" d="M299.9,626.8c-0.6-7.1,1.1-13.9,3.6-20.5c1.1-2.8,0.8-4.6-1.8-6.8c-7.1-6-8.8-14.6-9.6-23.3
		c-0.6-5.8-0.1-11.6,0.9-17.4c0.5-2.8-0.5-3.7-3.4-3.8c-15-0.7-25.9-11.7-27.6-27.1c-0.8-6.9-0.1-13.6,1.3-20.3
		c5-24.1,14.9-46.2,28.9-66.4c0.7-1,1.1-2.5,2.9-2.3c-0.9,4-3.7,6.9-5.6,10.3c-10.6,18.9-17.3,39-19.1,60.7c-0.4,5,0.2,10,1.3,14.8
		c2.7,11.8,10.9,16.6,22.8,13.7c4.2-1,8.1-2.7,12.8-4.9c-3.2,8.9-6.6,16.9-8.4,25.4c-1.2,5.6-1.9,11.1-1.8,16.8
		c0.2,10.4,5.5,15.6,15.9,15.1c1.4-0.1,2.9-1,4.3,0.1L317,591c-3.8,7.5-8.3,14.6-10.4,22.8c-1,4-2.1,8,0.9,11.7
		C304.8,626,302.4,626.4,299.9,626.8z"/>
	<path class="st47" d="M317,623.9c3.1-6.1,7.7-11.2,12.3-16.2c20.6-22.2,43.5-41.5,70.8-55c7.9-3.9,16.1-7.1,24.1-10.7
		c2.6,4.4,7.8,9.4,7,13.1c-0.7,3.6-8.6,3.2-13.2,4.7c-32.4,10.4-62.1,25.5-85.8,50.5c-3.2,3.4-6.3,6.8-8.1,11.2
		C322.7,624.4,319.5,623.8,317,623.9z"/>
	<path class="st23" d="M305.9,423.9c3.9-24.9,7-49.9,8.8-75c1.5-20.5,2.3-41.1,0.4-61.7c-1.2-12.5-6.3-15.7-18.8-12.5
		c-3.8,1-7.3,3.3-11.4,3.3c5-7,11.4-12.4,19.2-16.1c5.4-2.5,9.6-1,12.8,4.2c4.3,7,5.5,15,5.8,22.9c0.9,27-1.7,53.8-5.5,80.5
		c-2.3,16.3-3.8,32.6-7.2,48.7C309.5,420.9,308.5,422.9,305.9,423.9z"/>
	<path class="st47" d="M365,631c6.1,0.6,8.6,2.6,10.1,8.5c2.5,10.4,2.7,21,2.2,31.6c-0.2,5.1-0.1,10.3-0.3,15.5
		c-0.5,9.1-2.9,11.7-12.1,13.5c-13.2,2.7-26.4,4.8-39.7,6.8c-11.3,1.7-22.5,3.8-33.8,5.8c-1.1,0.2-2.3,0.1-3.5,0.2
		c-0.2-5.2,2.3-6.7,7.5-7.1c21.2-1.4,42.3-4.7,63.2-8.6c4.9-0.9,7.7-3.7,8.6-8.5c1.9-9.2,1.2-18.6,0.5-27.9
		C367,650.9,365.9,641,365,631z"/>
	<path class="st3" d="M286.9,896c-6.7-5.1-13.1-10.1-17.6-17c-4.2-6.5-3.1-9.3,4-11.8c5.6-2,6-3.6,2.2-7.9c-2.9-3.2-5.7-6.5-8.3-10
		c-2.2-3-1.8-5.4,2.3-6.7c5.4-1.7,11-2.5,16.6-3.2c4-0.6,2.6,2.6,2.5,4.4c-0.8,10.4-1.8,20.8-2.6,31.3
		C285.5,882,286.1,889,286.9,896z"/>
	<path class="st3" d="M296.9,777.5c0.3,12.9-0.4,25.8,0.9,38.7c1.8,17,4.9,33.7,11.1,49.7c-0.8,0.4-1.6,0.8-2.3,1.2
		c-4-1.7-8.3-1.6-12.5-2.5c0.3-12.4,1.8-24.8,0.5-37.3c-1.6-16.2-4.7-32.1-9.6-48C289.3,779.2,293.3,779.2,296.9,777.5z"/>
	<path class="st23" d="M694,829c0.4-7,3.9-13,6.2-19.3c4.3-11.8,8-23.7,6.6-36.5c12.1-0.3,17.5,6.9,13.5,18.3
		c-3.9,11-11.4,19.7-18.4,28.8C699.6,823.5,697.6,827.1,694,829z"/>
	<path class="st47" d="M261,739.1c3.6-11.4,8.7-22.2,13.9-32.9c2.4,0,4.9,0,7.7,0c-5.4,18.6-8.1,37.1-8.2,56.1
		C268.9,755.1,264.9,747.1,261,739.1z"/>
	<path class="st48" d="M349.3,895.5c-6.4,4.3-13.6,2.7-20.4,2.3c-6.1-0.3-12.1-2.3-17.6-5.1c-2.9-1.5-5.9-3.1-5.2-7
		c0.6-3.6,3.5-4.6,6.7-4.8c0.5,0,0.9-0.4,1.3-0.6c8.3,6.7,17.5,8.8,27.7,5.1c2-0.7,2.8-0.4,3.5,1.7C346.4,890,348,892.7,349.3,895.5
		z"/>
	<path class="st23" d="M678.7,772.5c3.3-5.2,6.8-10.3,9.8-15.7c3.8-6.8,8-13.4,8.4-21.5c0.2,0,0.3-0.1,0.5-0.1
		c10.6-2,13.9,2,10.3,12.4c-2.3,6.6-6.4,12.1-12,16.1C690.5,767.3,684.9,770.6,678.7,772.5z"/>
	<path class="st23" d="M380.2,866c2.4,6.3-1.2,10.9-5.1,14.8c-6.1,6-13.1,10.1-22.3,7.1c-1.6-1.9-1.8-4.3-2.3-6.5
		c0.3-0.2,0.5-0.5,0.8-0.7c4.7,3.2,9.3,2.3,13.9-0.1C371.7,877.2,376.4,872.1,380.2,866z"/>
	<path class="st49" d="M374.7,861.9c-1.7,6.3-10.8,14.4-16.7,14.8c-2.9,0.2-4.4-1.6-4.7-4.1c-0.4-3-0.4-6,1.2-8.8
		c5.7,4.4,11.2,3,16.7-0.4C372.3,862.8,373.5,862.4,374.7,861.9z"/>
	<path class="st47" d="M374.7,861.9c-1.2,0.5-2.5,0.9-3.6,1.6c-5.5,3.4-11,4.8-16.7,0.4c0.3-3.7,2.3-5.5,5.9-6.2
		C366.6,856.3,372.4,857.9,374.7,861.9z"/>
	<path class="st23" d="M302.9,427.9c-0.1-1.5,0.3-2.7,2.1-2.8C305.1,426.5,304.4,427.5,302.9,427.9z"/>
	<path class="st23" d="M299.9,431.9c-0.1-1.6,0.3-2.7,2.1-2.9C302,430.5,301.4,431.5,299.9,431.9z"/>
	<path class="st23" d="M297,436c-0.3-1.7,0.2-2.8,2.1-2.9C299.1,434.6,298.5,435.6,297,436z"/>
	<path class="st23" d="M295,439c-0.3-1.6,0.1-2.9,2-3C297.1,437.5,296.5,438.6,295,439z"/>
	<path class="st23" d="M317.1,591.1c0-0.2,0-0.4,0-0.6c0.1,0,0.3,0,0.4,0c-0.2,0.2-0.3,0.4-0.5,0.6C317,591,317.1,591.1,317.1,591.1
		z"/>
	<path class="st23" d="M350.5,881.5c0-0.4-0.1-0.8-0.1-1.2c0.3,0.2,0.6,0.3,0.9,0.5C351,881,350.8,881.2,350.5,881.5z"/>
	<path class="st2" d="M674,678.4c-4.4-5-5.7-11.5-8.1-17.3c-4.9-11.5-10.9-22.2-18.1-32.3c0.9-2.2-0.4-3.7-1.3-5.5
		c-5.3-9.7-13.1-17.2-21.4-24.3c-2.7-7.1-8.4-11.7-13.7-16.6c-2.9-2.7-6-5-9.4-7.8c10.1-3.5,19.6-6.7,28.2-11.8
		c23-13.8,43.6-30.1,54.3-55.9c5.6-13.6,7.2-27.4-0.3-40.9c-1.3-2.3-0.7-3.1,1.3-4.2c12.4-6.9,23-15.9,32.4-26.3
		c12.5-13.8,21.2-29.9,25.5-48c2.7-11.6-5.4-24.7-15.4-26.4c-0.9-0.4-1.9-0.9-2.8-1.3c-2.5-2-1.9-3.7-0.1-6c5-6.3,9-13.2,10.5-21.2
		c0.5-2.6,1.9-5.5-1.1-7.6c-0.5-12.7-5.3-19.6-17.3-23.9c-3.6-1.3-7.3-2.5-11-2.8c-4.6-0.4-4.4-1.7-2.3-5
		c8.9-14.1,20.2-26,33.4-36.1c8.8-6.8,17.6-13.8,28.3-17.5c10.6-3.7,15.6-1.1,19.8,9.4c3.9,9.8,4.6,20.2,4.5,30.4
		c-0.2,19.8-2.2,39.5-3.4,59.2c-1.2,19.6-3.5,39-6.6,58.3c-5,30.6-11.9,60.8-19.8,90.8c-13.8,52.1-31.5,102.7-58.9,149.5
		C692.6,651.3,685,665.9,674,678.4z"/>
	<path class="st50" d="M562.3,780.5c1.8,18.7,0.2,37-6.3,54.7c-2.1,5.7-4.7,11.2-7.1,16.8c0,0,0.1,0,0.1,0c-0.8,0.1-1,0.7-1.1,1.3
		c-4.2,7-9.4,13.3-15.7,18.6c-16.2,13.8-34.5,18.3-54.8,10.8c-13.4-4.9-23.5-14.4-31.1-26.3c-15.2-23.8-19.3-49.9-14.9-77.5
		c2.9-17.9,10-34,22.2-47.6c22.9-25.6,57.1-26.6,81.5-2.4c12.4,12.3,19.6,27.4,23.9,44.2C559.7,775.7,559.6,778.7,562.3,780.5z
		 M448.9,796.3c-0.5,6.3,1.1,12,4.3,17.2c10.2,16.6,24.3,28.4,43.2,34.3c5,1.5,9.6,1.1,13.8-1.9c20.2-14.4,33.2-33.2,31.5-58.8
		c-1.2-17.9-9.2-26.8-23.6-26.7c-8.5,0-16.1,3.1-22,9.2c-2.6,2.7-3.8,3.1-7.4,0.8c-13.6-8.5-31.2-7.6-37.7,12.1
		C449.5,787.1,448.5,791.6,448.9,796.3z"/>
	<path class="st12" d="M725.2,359.7c0.9,0.4,1.9,0.9,2.8,1.3c8,6.2,12.7,13.9,11,24.4c-0.8,4.8-2.3,9.4-4.5,13.7
		c-7.4,14.5-18.5,25.9-30.8,36.3c-10.8,9.2-22.6,16.9-35.2,24.1c1.7,1.5,3,2.7,4.4,3.9c10,8.2,12.3,18.4,8.6,30.5
		c-1.9,6.3-5.1,11.9-8.9,17.2c-11.5,15.7-26.2,27.9-42.9,37.6c-17.3,10-35.3,18.4-54.8,24.8c1.2,0.6,1.8,1.1,2.6,1.3
		c15.7,4.4,29.9,11.9,43.1,21.5c1.4,1,2.5,2.8,4.6,2.6c8.2,7.1,16,14.7,21.4,24.3c1,1.7,2.2,3.3,1.3,5.5c-3.7,1.3-5-1.8-6.7-3.9
		c-17.6-21.1-39.7-35.7-65.8-44.1c-6.3-2-12.7-3.8-19.6-2.9c-2.2,0.3-5.4,0.7-5.8-2.3c-0.4-3.3,3.2-3.1,5.1-3.4
		c33.5-6.7,62.7-22.3,90-42.1c9.5-6.9,17.5-15.4,24.4-24.9c4.2-5.8,6.6-12.2,7.6-19.2c1.1-8.1-3.4-13.3-8.8-18.5
		c-4-3.9-7.1-4.4-12.2-1.9c-10.7,5.4-22,9.4-33.8,11.6c-2,0.4-5,1.6-5.7-1c-0.9-3.2,2.7-3.4,4.6-3.9c25.8-7.4,49.5-19.2,71.1-35.3
		c13.3-9.9,25.4-21.1,34.1-35.4c2.7-4.4,4.8-9,6-14.1c2.5-10.6-1.5-18.5-11.7-22.2c-3.4-1.2-7.1-1.6-10.6-2.7
		c-2.2-0.7-3.1,0.9-4.3,1.8c-5.5,4.3-11.2,8.4-17.2,11.9c-1.7,1-3.8,3.4-5.6,0.7c-1.6-2.6,1.2-3.7,2.9-4.8
		c11.7-7.5,22.8-15.6,31.9-26.2c4.9-5.7,8.9-11.9,10.5-19.5c1.5-6.8-0.6-12.1-5.7-16.4c-5.8-4.9-12.8-6.8-20.2-7.7
		c-6.6-0.8-7.6-2.4-4.3-8.2c10.5-18.8,25.3-33.7,42.6-46.3c8.7-6.3,17.4-12.8,28.5-14.8c8.5-1.6,14.6,1.2,18.8,8.7
		c5.5,9.7,6.6,20.5,6.9,31.3c0.6,21.2-1.8,42.2-3.5,63.2c-1.6,19.7-3.8,39.3-6.6,58.9c-2.9,20.5-7.4,40.8-11.7,61.1
		c-10.4,49.5-25.5,97.6-46,143.9c-11.3,25.4-25.4,49.4-40.3,72.8c-2.1,3.4-4.5,6.7-7.7,9.1c-1.5,1.1-3,3.2-5.2,1.5
		c-2-1.6-0.2-3.3,0.2-5c11-12.4,18.6-27.1,26.9-41.3c27.4-46.7,45.1-97.4,58.9-149.5c7.9-29.9,14.8-60.2,19.8-90.8
		c3.2-19.3,5.4-38.8,6.6-58.3c1.2-19.7,3.2-39.5,3.4-59.2c0.1-10.2-0.5-20.6-4.5-30.4c-4.2-10.4-9.2-13.1-19.8-9.4
		c-10.7,3.7-19.4,10.7-28.3,17.5c-13.2,10.1-24.4,22.1-33.4,36.1c-2.1,3.3-2.3,4.7,2.3,5c3.7,0.3,7.5,1.5,11,2.8
		c11.9,4.3,16.8,11.2,17.3,23.9c-2.8,12.9-10.9,22.6-20.3,32.3C718.5,358.2,721.8,359,725.2,359.7z"/>
	<path class="st12" d="M562.3,780.5c-2.8-1.8-2.7-4.8-3.3-7.5c-4.3-16.7-11.5-31.9-23.9-44.2c-24.3-24.2-58.5-23.1-81.5,2.4
		c-12.2,13.6-19.4,29.8-22.2,47.6c-4.4,27.5-0.2,53.7,14.9,77.5c7.6,11.9,17.6,21.4,31.1,26.3c20.3,7.5,38.6,3,54.8-10.8
		c6.2-5.3,11.4-11.6,15.7-18.6c0.7-0.2,1.1-0.6,1.1-1.3c0,0-0.1,0-0.1,0c1-0.4,2-0.9,3-1.3c4.6,1.1,3,4.1,1.7,6.5
		c-5,9.3-12,17.1-20.3,23.6c-1.3,1-2.6,2-3.9,3c-10,5.7-20.6,9.5-32.3,9.6c-24-1-41.5-13.2-55-32.3c-2.1-3-4-6.1-5.9-9.2
		c-9.7-19.8-13.9-40.8-12.1-62.8c1.8-22.4,8.6-43,23.4-60.3c28.5-33.3,72.5-32.2,99.7,2.2c8.4,10.6,14.3,22.4,17.7,35.4
		c0.9,3.5,2.3,4.1,5.5,3.2c9.2-2.5,16.4-7.8,22.1-15.3c1-1.3,1-4.3,3.5-3.1c2.2,1.1,1.3,3.7,0.5,5.4c-4.7,9.8-10.9,18.3-22,21.7
		C570.5,779.6,566.5,780.5,562.3,780.5z"/>
	<path class="st12" d="M456.9,688.1c-0.5-0.2-0.9-0.4-1.4-0.5c-9.2-2.5-10.4-3.8-11.4-13.1c-2-18.8-3.6-37.7-3.1-56.7
		c0.1-4.4,1.5-6.7,6.3-7c27-2.1,54-4.2,81.1-4.9c5.8-0.1,11.6-0.3,17.4,0.6c3.6,0.6,6.4,2.3,8.2,5.6c0.4,1.9,1,3.9,1.1,5.8
		c1,10.2,2.2,20.5,2.7,30.8c0.4,8.9,1.1,17.9-0.7,26.9c-0.9,4.4-3.5,6.8-7.7,7.3c-13.7,1.5-27.4,2.9-41.1,4.2
		C491.2,688.6,474.1,688.1,456.9,688.1z M445.9,628.4c0.5,16.5,1.9,31.6,3.2,46.7c0.4,4.7,2.9,6.5,7.3,6.9c10.2,1,20.3-0.2,30.4-0.7
		c19.3-0.8,38.6-1.6,57.7-4.8c7.3-1.2,7.2-1.2,7.9-8.6c1.3-14-0.2-27.9-1.5-41.8c-1.4-14.5-0.4-15.1-15.8-15
		c-28.8,0.3-57.4,3.2-86.1,5.2c-2.6,0.2-3.7,1.1-3.3,4C446.3,623.4,445.9,626.6,445.9,628.4z"/>
	<path class="st47" d="M456.9,688.1c17.1,0,34.3,0.5,51.4-1.1c13.7-1.3,27.4-2.7,41.1-4.2c4.2-0.5,6.8-2.9,7.7-7.3
		c1.8-8.9,1.1-17.9,0.7-26.9c-0.5-10.3-1.7-20.5-2.7-30.8c-0.2-2-0.8-3.9-1.1-5.8c6-1.9,11.5,2.9,11.9,10.7c0.3,5.5,0.2,11-0.2,16.5
		c-0.7,12.3-1.8,24.5-2.6,36.7c-0.3,5.2-2.4,8.3-7.7,9.4c-14.5,3-29.1,5.1-43.8,5.7c-13.6,0.6-27.2,1.3-40.8,1.9
		c-3.2,0.1-6.3-0.1-9.4-0.8C459.1,691.6,457.4,690.6,456.9,688.1z"/>
	<path class="st12" d="M414,949.1c-7.5-0.5-16.9-1.6-25.4-6.3c-10.1-5.5-11.8-19.2-3.6-27.4c4.3-4.4,9.7-4.3,14.9-3.2
		c11.6,2.3,22.1,0,31.6-6.7c4.7-3.4,9.5-4.7,14.8-1.4c4.9,3.1,7.5,9.3,6.4,15.7C449.5,938.6,436.3,949.2,414,949.1z M414.9,943.8
		c17.8,0,28.2-7.2,31.6-20.9c1.1-4.5,1.9-9.4-2.3-13c-4.2-3.7-8.2-0.7-12,1.1c-5.2,2.6-10.5,4.6-16.1,6.2
		c-6.7,1.9-13.2-0.2-19.8-0.3c-6-0.1-9.1,2.2-10.8,8.2c-1.7,5.9-0.4,9.5,5.1,12.5C398.8,942.1,407.9,943.3,414.9,943.8z"/>
	<path class="st48" d="M497.1,893.4c11.7-0.1,22.3-3.9,32.3-9.6c4.9-0.4,9.8-1.4,14.8,0.1c2.8,0.9,5.3,2,5.8,5.3
		c0.5,3.3-1.4,5.5-4,6.8c-13.1,6.4-26.9,9.3-41.4,7.8C498.5,903.1,495.8,900.1,497.1,893.4z"/>
	<path class="st49" d="M353.5,804.4c0,12.3-4,23.2-11.6,32.8c-9.3,11.9-23.1,12-31.9-0.3c-8.6-12-12.4-25.5-9.2-40.1
		c2.2-10.1,9.8-13.1,18.4-7.5c2.7,1.8,3.8,1.3,5.4-1c2-2.7,4.6-4.8,7.7-6.2c7.5-3.4,14.8-0.7,18.4,6.7
		C353.2,793.8,353.4,799.1,353.5,804.4z M346.1,803.2c0.2-3.9-0.2-7.7-2.1-11.2c-2-3.6-4.8-4.8-8.8-2.7c-3.6,1.9-5.4,5.3-7.6,8.4
		c-3.2,4.4-5.5,4.4-8.6,0c-2-2.8-4.7-4.5-8.1-3.7c-3.2,0.8-3.4,4.1-3.5,6.6c-0.8,12.2,2.5,23.4,10.1,33c4.6,5.9,10.8,6,15.9,0.6
		C341.6,825.6,345.7,815.1,346.1,803.2z"/>
	<path class="st23" d="M625.1,599c-2.1,0.2-3.2-1.6-4.6-2.6c-13.2-9.6-27.3-17.1-43.1-21.5c-0.7-0.2-1.4-0.7-2.6-1.3
		c19.5-6.5,37.6-14.8,54.8-24.8c16.7-9.7,31.3-21.9,42.9-37.6c3.9-5.3,7-10.8,8.9-17.2c3.7-12.1,1.4-22.3-8.6-30.5
		c-1.4-1.1-2.7-2.4-4.4-3.9c12.7-7.2,24.4-14.9,35.2-24.1c12.3-10.4,23.4-21.8,30.8-36.3c2.2-4.3,3.7-8.9,4.5-13.7
		c1.7-10.6-2.9-18.2-11-24.4c10.1,1.7,18.2,14.8,15.4,26.4c-4.3,18.2-13,34.2-25.5,48c-9.4,10.4-20.1,19.5-32.4,26.3
		c-2,1.1-2.6,1.9-1.3,4.2c7.5,13.5,6,27.2,0.3,40.9c-10.7,25.8-31.3,42.1-54.3,55.9c-8.6,5.1-18.1,8.3-28.2,11.8
		c3.4,2.8,6.5,5.2,9.4,7.8C616.7,587.3,622.4,591.9,625.1,599z"/>
	<path class="st23" d="M725.2,359.7c-3.3-0.8-6.7-1.5-11.1-2.5c9.4-9.7,17.4-19.5,20.3-32.3c3.1,2.1,1.6,5.1,1.1,7.6
		c-1.5,8-5.5,14.9-10.5,21.2C723.3,356,722.7,357.8,725.2,359.7z"/>
	<path class="st49" d="M448.9,796.3c-0.4-4.7,0.6-9.2,2.1-13.7c6.5-19.7,24.1-20.6,37.7-12.1c3.6,2.2,4.8,1.8,7.4-0.8
		c5.9-6.1,13.5-9.1,22-9.2c14.4-0.1,22.4,8.8,23.6,26.7c1.7,25.5-11.3,44.4-31.5,58.8c-4.2,3-8.8,3.4-13.8,1.9
		c-18.8-5.9-33-17.6-43.2-34.3C450,808.4,448.4,802.6,448.9,796.3z M535.2,789.1c0.6-3.9-2.1-9.1-4.8-14.3c-2.3-4.5-6-6.6-10.8-6.7
		c-7.9-0.2-14.1,3.4-19.5,8.6c-5.1,4.8-7.4,4.9-12.6,0.2c-8.1-7.3-22.2-6.6-27.3,1.9c-6.4,10.8-7.2,22-0.1,32.9
		c6,9.3,13.7,17,23.2,22.2c18.9,10.3,19,11.5,34.4-4.5C527.9,818.9,534.5,806.4,535.2,789.1z"/>
	<path class="st1" d="M549,851.9c0,0.7-0.4,1.1-1.1,1.3C547.9,852.6,548.2,852,549,851.9z"/>
	<path class="st4" d="M445.9,628.4c0-1.8,0.4-5-0.1-8.1c-0.4-3,0.6-3.8,3.3-4c28.7-2,57.3-4.9,86.1-5.2c15.3-0.2,14.4,0.5,15.8,15
		c1.3,13.9,2.8,27.8,1.5,41.8c-0.7,7.4-0.7,7.4-7.9,8.6c-19.1,3.3-38.4,4-57.7,4.8c-10.1,0.4-20.3,1.7-30.4,0.7
		c-4.4-0.4-6.9-2.2-7.3-6.9C447.8,660,446.4,644.9,445.9,628.4z"/>
	<path class="st46" d="M414.9,943.8c-7-0.5-16.1-1.7-24.3-6.2c-5.5-3-6.9-6.6-5.1-12.5c1.7-5.9,4.8-8.2,10.8-8.2
		c6.6,0.1,13.1,2.1,19.8,0.3c5.6-1.6,10.9-3.6,16.1-6.2c3.7-1.8,7.7-4.8,12-1.1c4.2,3.6,3.4,8.5,2.3,13
		C443.1,936.6,432.7,943.8,414.9,943.8z"/>
	<path class="st51" d="M346.1,803.2c-0.4,11.9-4.5,22.4-12.7,31c-5.1,5.4-11.3,5.3-15.9-0.6c-7.6-9.6-10.9-20.8-10.1-33
		c0.2-2.4,0.3-5.8,3.5-6.6c3.4-0.8,6.1,0.9,8.1,3.7c3.2,4.4,5.4,4.4,8.6,0c2.2-3.1,4-6.5,7.6-8.4c3.9-2.1,6.7-0.9,8.8,2.7
		C345.9,795.5,346.3,799.3,346.1,803.2z M321.1,809.1c-4.2-0.5-6.5,1.9-5.7,5.9c0.6,2.9,1.7,5.7,4,7.9c3.1,2.9,6,3,9.3,0.2
		c3-2.6,4.5-6.1,6.2-9.5c1.5-3,1.4-6.1-1.3-8.1c-3.1-2.3-6-0.9-8.3,1.8C324.1,808.7,323.3,810.8,321.1,809.1z"/>
	<path class="st51" d="M535.2,789.1c-0.7,17.3-7.3,29.9-17.5,40.4c-15.3,16-15.5,14.8-34.4,4.5c-9.5-5.2-17.3-13-23.2-22.2
		c-7.1-11-6.3-22.1,0.1-32.9c5.1-8.5,19.1-9.3,27.3-1.9c5.2,4.7,7.5,4.6,12.6-0.2c5.5-5.2,11.7-8.8,19.5-8.6
		c4.9,0.1,8.6,2.3,10.8,6.7C533.1,779.9,535.9,785.1,535.2,789.1z M478,801.5c0.8,5.8,2.9,11.8,8.2,16.2c3.6,3,8.3,3.3,11.9,0.5
		c7.2-5.6,10.9-13.3,11.8-22.2c0.3-3.2-0.6-6.2-3.7-7.5c-3.1-1.3-5.9-0.1-8.2,2.1c-1,0.9-2.1,1.8-2.6,3c-1.5,3.4-3,3.7-6.3,1.7
		C482.9,791.4,478,794.1,478,801.5z"/>
	<path class="st52" d="M321.1,809.1c2.3,1.7,3-0.4,4.1-1.8c2.3-2.7,5.2-4.1,8.3-1.8c2.7,2,2.9,5,1.3,8.1c-1.7,3.4-3.2,6.9-6.2,9.5
		c-3.2,2.8-6.2,2.6-9.3-0.2c-2.3-2.2-3.4-4.9-4-7.9C314.6,811,316.9,808.6,321.1,809.1z"/>
	<path class="st52" d="M478,801.5c-0.1-7.4,4.9-10,11.1-6.2c3.3,2,4.8,1.7,6.3-1.7c0.5-1.2,1.6-2.1,2.6-3c2.3-2.2,5.1-3.5,8.2-2.1
		c3.1,1.4,4,4.4,3.7,7.5c-0.9,9-4.6,16.6-11.8,22.2c-3.7,2.9-8.3,2.6-11.9-0.5C481,813.3,478.9,807.2,478,801.5z"/>
</g>
</svg>
