<?xml version="1.0" encoding="utf-8"?>
<!-- Generator: Adobe Illustrator 25.0.0, SVG Export Plug-In . SVG Version: 6.00 Build 0)  -->
<svg version="1.1" id="图层_1" xmlns="http://www.w3.org/2000/svg" xmlns:xlink="http://www.w3.org/1999/xlink" x="0px" y="0px"
	 viewBox="0 0 1200 1600" style="enable-background:new 0 0 1200 1600;" xml:space="preserve">
<style type="text/css">
	.st0{fill:#060604;}
	.st1{fill:#EDCF5D;}
	.st2{fill:#FBF1EE;}
	.st3{fill:#ECCF5D;}
	.st4{fill:#F4FB95;}
	.st5{fill:#A0918B;}
	.st6{fill:#FBFBFB;}
	.st7{fill:#927233;}
	.st8{fill:#935A40;}
	.st9{fill:#623C2A;}
	.st10{fill:#FEFEFE;}
	.st11{fill:#040302;}
	.st12{fill:#090805;}
	.st13{fill:#9C5B46;}
	.st14{fill:#070705;}
	.st15{fill:#ECCE5D;}
	.st16{fill:#F2F2F2;}
	.st17{fill:#93583F;}
	.st18{fill:#A1918B;}
	.st19{fill:#513123;}
	.st20{fill:#FAFAFA;}
	.st21{fill:#030202;}
	.st22{fill:#060605;}
	.st23{fill:#A0908A;}
	.st24{fill:#937234;}
	.st25{fill:#E6C95B;}
	.st26{fill:#864E37;}
	.st27{fill:#513124;}
	.st28{fill:#B0603E;}
	.st29{fill:#FAF0ED;}
	.st30{fill:#F9F9F9;}
	.st31{fill:#917133;}
	.st32{fill:#9E8F89;}
	.st33{fill:#E7CA5B;}
	.st34{fill:#92583F;}
	.st35{fill:#050503;}
	.st36{fill:#FCFBFB;}
	.st37{fill:#080704;}
	.st38{fill:#070605;}
	.st39{fill:#FAF1ED;}
	.st40{fill:#F4FA95;}
	.st41{fill:#F8F8F7;}
	.st42{fill:#90573E;}
	.st43{fill:#030302;}
	.st44{fill:#080805;}
	.st45{fill:#FBF1ED;}
	.st46{fill:#FBFBFA;}
	.st47{fill:#927234;}
	.st48{fill:#F69376;}
	.st49{fill:#7B2D2D;}
	.st50{fill:#FCFCFC;}
	.st51{fill:#EF5A2D;}
	.st52{fill:#F0CC2D;}
	.st53{fill:#9F8F8A;}
	.st54{fill:#FAFAF9;}
	.st55{fill:#F2A78E;}
	.st56{fill:#040403;}
	.st57{fill:#070604;}
	.st58{fill:#A0908B;}
	.st59{fill:#F7F7F7;}
	.st60{fill:#E8CB5B;}
	.st61{fill:#8F563E;}
	.st62{fill:#513224;}
	.st63{fill:#080705;}
	.st64{fill:#FCFCFB;}
	.st65{fill:#F9F8F8;}
	.st66{fill:#FAF0EC;}
	.st67{fill:#9F908A;}
	.st68{fill:#91573E;}
	.st69{fill:#070704;}
	.st70{fill:#F5FC96;}
	.st71{fill:#9C9C53;}
	.st72{fill:#9A9A52;}
	.st73{fill:#F2F994;}
	.st74{fill:#A17628;}
	.st75{fill:#90573F;}
	.st76{fill:#090806;}
	.st77{fill:#523123;}
	.st78{fill:#7C4031;}
	.st79{fill:#ED866D;}
	.st80{fill:#F3E9E6;}
	.st81{fill:#4F3023;}
	.st82{fill:#060606;}
	.st83{fill:#89533B;}
	.st84{fill:#050403;}
	.st85{fill:#090909;}
	.st86{fill:#EDCF5E;}
	.st87{fill:#050504;}
	.st88{fill:#060504;}
	.st89{fill:#955A41;}
	.st90{fill:#080703;}
	.st91{fill:#090807;}
	.st92{fill:#070603;}
	.st93{fill:#0A0905;}
	.st94{fill:#937335;}
	.st95{fill:#955A40;}
	.st96{fill:#955940;}
	.st97{fill:#EDD05E;}
	.st98{fill:#8F7032;}
	.st99{fill:#945940;}
	.st100{fill:#EED05E;}
	.st101{fill:#503123;}
	.st102{fill:#EEEEEE;}
	.st103{fill:#0D0C0A;}
	.st104{fill:#E3C659;}
	.st105{fill:#967535;}
	.st106{fill:#9D7D38;}
	.st107{fill:#745A29;}
	.st108{fill:#847334;}
	.st109{fill:#907134;}
	.st110{fill:#E5C85B;}
	.st111{fill:#503124;}
	.st112{fill:#927133;}
	.st113{fill:#E0DDD4;}
	.st114{fill:#987836;}
	.st115{fill:#977636;}
	.st116{fill:#CCC4A4;}
	.st117{fill:#523224;}
	.st118{fill:#0B0908;}
	.st119{fill:#8F7135;}
	.st120{fill:#050404;}
	.st121{fill:#EDD05D;}
	.st122{fill:#F3FA94;}
	.st123{fill:#9A9A51;}
	.st124{fill:#999951;}
	.st125{fill:#937334;}
	.st126{fill:#FAF0EE;}
	.st127{fill:#F3FA95;}
	.st128{fill:#989851;}
	.st129{fill:#A2792A;}
	.st130{fill:#F1F893;}
	.st131{fill:#A17729;}
	.st132{fill:#050502;}
	.st133{fill:#947335;}
	.st134{fill:#917233;}
	.st135{fill:#9B9B52;}
	.st136{fill:#F9EFEC;}
	.st137{fill:#9A782F;}
	.st138{fill:#979752;}
	.st139{fill:#F2F893;}
	.st140{fill:#8C8E4F;}
	.st141{fill:#B5B96E;}
	.st142{fill:#0F0F09;}
	.st143{fill:#9C9C52;}
	.st144{fill:#F5FB95;}
	.st145{fill:#F3F994;}
	.st146{fill:#A17728;}
	.st147{fill:#917134;}
	.st148{fill:#090706;}
	.st149{fill:#8E6F32;}
	.st150{fill:#93593F;}
	.st151{fill:#907033;}
	.st152{fill:#060505;}
	.st153{fill:#C8C3AF;}
	.st154{fill:#533324;}
	.st155{fill:#533426;}
	.st156{fill:#0E0C0A;}
	.st157{fill:#907133;}
	.st158{fill:#583627;}
	.st159{fill:#0A0907;}
	.st160{fill:#573526;}
	.st161{fill:#0C0B09;}
	.st162{fill:#503023;}
	.st163{fill:#543325;}
	.st164{fill:#B7B3A1;}
</style>
<g>
	<path class="st38" d="M717.7,785.3c2.8-0.2,4.4-0.3,6-0.4c12.2-0.5,19.8,7.5,18.8,19.7c-0.9,10.7-5.8,19.7-12.3,27.9
		c-6.6,8.4-14.2,15.9-22.2,23c-20.6,18.7-39.1,39.6-60.1,57.9c-24.1,20.9-50.5,37.9-81.9,46c-32.2,8.3-64.9,13.5-98.2,12.3
		c-36.7-1.3-73-5.9-108-17.8c-13.3-4.5-26.1-10.1-38-17.4c-10.8-6.7-19.7-15.4-27-25.7c-1.4-2-3-3.3-5.2-4.3
		c-5.9-2.7-11.7-5.5-17.4-8.7c-12.6-7.1-15.1-20.7-3.8-29.8c2.3-1.8,2-2.9-0.4-4.2c-1.8-0.9-3.4-2.1-5-3.3c-7.5-5.9-8.6-13.3-2.9-21
		c6-7.9,13.2-14.6,21.4-20c2.4-1.6,2.8-2.9,2.3-5.6c-2-10.6-1.9-10.6-12.1-12.8c-2.6-0.6-5.2-1.3-7.6-2.2c-3.6-1.3-6-3.7-5.4-7.9
		c0.3-2.1-0.2-2.9-2.5-3c-2.3-0.1-4.6-0.8-6.8-1.4c-1.4-0.4-3.2-0.5-3.1-2.6c0.1-1.9,1.7-2.4,3.1-2.7c2.3-0.6,4.6-0.9,6.9-1.3
		c3.3-0.6,6.6-1,9.8-1.6c3.1-0.6,6-1.5,9.2-2.3c-0.1-0.5-0.1-1-0.4-1.4c-20.3-27.7-33.3-58.9-45.1-90.9
		c-25.2-68.3-37.6-138.7-34-211.5c4-80.7,24-156.7,68.9-224.9c16.1-24.5,33.6-47.7,58.7-63.9c5.9-3.8,12.1-7,19-8.6
		c9.1-2.2,16.8,0.3,23.4,6.6c6.5,6.1,10.6,13.6,13.9,21.7c8.6,21.5,13.6,43.8,16,66.8c4.4,41.9,6.6,84,10.1,126
		c3.7,43.6,11.6,86.1,31.7,125.5c3.7,7.2,8.5,14,11.2,21.7c0.7,2,1.8,1.4,3.1,1.2c11.1-1.6,22.2-2.6,33.4-1.5c2.8,0.3,3.8-1.4,5-3.2
		c31-46.3,62.3-92.5,90.5-140.6c31.6-54.1,64.7-107.2,104-156.1c13.3-16.5,27.7-32,45.1-44.4c12.6-9,26.3-15.7,41.5-18.8
		c15-3.1,27.4,1,37.4,13.1c10.3,12.6,14,27.4,16,42.9c5,39,4.6,78,0.3,117.1c-5.6,50.9-14.3,101.3-27.5,150.6
		c-21.3,79.4-56.3,152.4-105.9,218.2c-1.8,2.3-0.8,3.6-0.2,5.9c2.1,7.7,7.2,7.9,13.8,7.3c7.5-0.7,15-0.3,22.2,2.1
		c11.8,3.8,16.1,12.5,11.8,24.2c-2.6,7-7.8,11.9-13.1,16.7C723.8,780.1,721.2,782.3,717.7,785.3z M304.1,427.1
		c2-0.8,2.9-2.3,3.5-4.3l0.2-0.4c3.3-2.9,6.6-6.2,7.1-10.4c2.3-20.9,4.2-41.9,6-62.9c1.1-12.6,1.5-25.2,2.5-37.8
		c1.1-13.1,2.6-26.1,2.4-39.3c-0.1-7.7-0.3-15.7-2.9-23.1c-2-5.6-5.2-6.7-9.9-3.4c-3.4,2.4-6.4,5.3-9,8.5c-1.6,1.7-3.3,3.3-4.7,5.1
		c-23.8,29.8-39.5,63.7-50.1,100.1c-7.8,26.6-12.3,53.8-14.7,81.3c-1.8,19.9-2.9,39.9-2,59.9c1.3,27.9,5,55.6,9.7,83.1
		c2.3,13.4,4.8,26.8,9,39.8c0.3,1-0.2,3.8,2.3,2.4c7.9-4.2,16.7-4.2,25.1-5.5c10.5-1.6,21.1-2.7,31.6-4c4,0.7,4.9-1.1,3.8-4.7
		c-1.5-4.7-1.5-9.5-0.3-14.2c0.8-3.2-0.4-3.3-2.8-3.1c-6.7,0.7-11.9-1.5-15.5-7.4c-0.9-1.5-0.6-3.6-2.4-4.6c-1-9.9,0.9-19.5,3.1-29
		c3.7-9.6,7.4-19.2,11.1-29c-2.7-0.6-4.6,0.7-6.6,1.2c-14.5,3.6-23.1-1.7-26.6-16.2c-0.9-3.8-0.2-7.6-1.4-11.3
		c0.3-2.1,0.6-4.3,0.9-6.4c2.6-19.1,12.1-35.2,21.8-51.3c1.4-0.6,2.2-1.5,1.9-3.1l0,0C300.2,434.3,302.6,431,304.1,427.1
		L304.1,427.1z M430.9,533c-0.2-0.6-0.2-1.3-0.5-1.9c-21.2-41.1-31.4-85.1-35.3-130.8c-3.6-42.1-6.6-84.3-10.2-126.5
		c-1.9-22.7-6.7-44.7-15.4-65.9c-2.7-6.5-5.9-12.7-11-17.7c-4.2-4.1-9-5.3-14.7-3.6c-5.7,1.7-10.7,4.6-15.5,7.9
		c-21.4,14.3-36.7,34.2-50.9,55.1c-41.3,60.9-61.8,128.9-68.5,201.6c-6.3,68.3,1.8,135,22.3,200.2c9,28.6,19.2,56.7,32.8,83.5
		c4.3,8.1,9,16,14.7,24.8c0-3.8,0.3-6.3-0.1-8.6c-1.8-11.9,0.1-23.5,3.1-34.9c1.7-6.5,1.9-6.4-5-6c-5.3,0-10.7-0.3-16,0.1
		c-5,0.4-6.7-2.4-6.9-6.4c-0.6-15.8-3.1-31.4-4.3-47.2c-1-11.9-0.3-23.9-4.4-35.8c-7-19.9-9.3-41-12.3-61.9
		c-2.7-19.2-5.3-38.5-5.9-58c-1.4-41.4,2.1-82.4,10.8-122.9c8.8-40.6,23.9-78.4,47.6-112.6c6.6-9.5,14-18.3,23.2-25.3
		c8.4-6.3,16.5-3.6,20,6.3c0.5,1.6,0.9,3.2,1.2,4.8c2.5,12.7,2,25.5,1,38.3c-1.7,22.9-3.2,45.8-5.1,68.7
		c-1.5,17.6-3.5,35.1-5.2,52.6c-0.8,8.2-6.7,13.6-11.1,19.7c-11.1,15.5-21.5,31.3-27.1,49.7c-3.1,10-5.4,20.4-1.4,30.8
		c2.9,7.4,7.6,9.9,15.4,8.3c3.6-0.7,7.1-1.9,10.7-2.4c2.8-0.4,4.3-1.7,5.7-4.1c4.3-7.8,8.8-15.6,13.4-23.3c0.9-1.6,1.9-4.7,3.9-3.7
		c2.5,1.3,0.2,3.9-0.6,5.6c-2.1,4.5-4.4,8.9-6.9,13.2c-9.7,17-17.5,34.7-22.2,53.6c-1.8,7.4-3.8,14.9-1.7,22.6
		c1.7,6,5.2,8.6,11.3,8.1c2.3-0.2,4.6-0.6,6.8-1.2c1.5-0.4,2.8-1.1,4.1,0.2c1.5,1.5,0.7,3-0.2,4.5c-3.1,5.5-3.2,11.2-2.4,17.3
		c0.7,5.2,3,5.9,7.2,4.9c2.7-0.6,6.4,1.6,7.9-2.2c1.2-3.1,3.4-5.3,5.6-7.5c8.9-9.1,19.1-16.6,29.2-24.1
		c19.7-14.5,40.3-27.2,64.4-32.8c2.9-0.7,5.7-1.4,10.1-2.4C437.2,542.2,434.5,537.3,430.9,533z M700.8,848.6
		c8.5-6.4,15.7-14.2,22.3-22.4c4.5-5.6,8.2-11.6,9.9-18.7c2.5-10.6-1.1-14.9-12.2-14.3c-2.4,0-4.8-0.1-7.3,0.3
		c-8.9,1.5-18,2.4-27,3.5c-1.1,0.1-2.4,0.2-3.1-1c-0.9-1.6,0.4-2.4,1.3-3.3c6-0.4,11-2.4,16-6.2c8.3-6.2,16.2-12.7,23.4-20.1
		c2.9-3,5.3-6.4,6.3-10.6c0.9-3.8-0.3-6.6-4-8c-4-1.6-8.2-2.4-12.6-2.6c-3.2,0-6.3-0.1-9.5-0.1c-11.5-0.1-22.7,3.2-34.3,3.1
		c-2.2-0.6-5.6,0.6-6.1-2.9c-0.5-3.5,3-3.4,5.1-4.3c5.2-2.2,11-2.5,16.4-4.1c-4.8-12.8-4.8-14.3,2.3-24.4c2.7-3.8,5.1-7.8,7.7-11.7
		c41.8-61.6,72.5-128.3,91.4-200.3c12.6-48,21.3-96.8,26.9-146.2c4.4-38.7,5.1-77.4,0.1-116.1c-1.7-13.4-4.5-26.5-13.1-37.7
		c-7.2-9.3-16.2-12.3-27.3-9.9c-3.6,0.8-7.1,1.9-10.5,3.2c-19.8,7.3-36,20.1-50.3,35.3c-26.1,27.8-47.8,58.9-69,90.5
		c-31.3,46.8-58.2,96.4-88.6,143.7c-18.2,28.3-36.6,56.4-55.9,84c-1.3,1.8-2.2,3.9-5.2,3.9c-7.3,0.1-14.6,0.8-21.9,1
		c-17.6,0.5-34.9,2.8-51.5,8.7c-30.3,10.7-55,30.1-78.3,51.5c-0.3,0.3-0.3,0.9-0.4,1.5c1.5,0.1,2.8,0.2,4.1,0.3
		c9.4,0.6,12,2.8,14.3,12.1c0.2,0.6,0.6,1.2,0.8,1.8c0.8,11.1,1.7,22.1,2.5,33.2c0.8,10.6,3.3,21,1.7,31.7
		c-1.1,7-4.1,10.4-10.8,10.9c-20.1,1.8-40.2,4.7-60.4,5.2c-3.5,0.1-5.4,0.8-5.3,4.5c-4.4,8.5-4.8,17.9-5.4,27.1
		c-0.6,9.7,1.9,19.2,2.4,28.7c0.3,5.4,1.6,5.2,5.6,4.1c8.3-2.3,16.9-3.4,25.6-3.5c12.3-0.1,24.5-1.9,36.8-2.6
		c11.8-0.7,23.6-1.7,35.1,2.1c10.5,3.5,12.2,9.5,5,17.5c-22.3,10.1-46.1,13.7-70.2,16.3c-10.4,1.1-20.9,0.8-31.3,0.7
		c-1.9,0-4.5-0.7-3,2.9c0.7,2.2,0.7,4.7,2.4,6.6c0.1,1.1,0.1,2.3,0.3,3.4c4.9,19,7.5,38.3,4.7,57.8c-2,13.7,3,24.7,11.2,34.9
		c9.1,11.3,20.8,19,33.6,25.3c33.9,16.4,70.2,23.4,107.3,26.8c29.7,2.7,59.1,0.8,88.4-4.8c28.2-5.4,54.8-14,78.8-30.7
		C648.1,904.1,673.4,875.3,700.8,848.6z M255.1,644.3c0.2,3.1,0.4,6.3,0.6,9.4c1.1,16.4,4.3,32.7,4.5,49.2c0,3.1,1.3,3.3,3.6,2.9
		c7.2-1.5,14.6-1.1,21.9-1.6c21.1-1.5,42.1-3.5,63-6.1c9.3-1.1,10.8-3.1,10.2-12.6c0-0.7-0.2-1.3-0.2-2c-0.9-11.6-2.4-23.2-2.8-34.8
		c-0.3-7-1.2-13.9-1.9-20.9c-0.4-4-2-7-6.6-7.3c-1.8-0.1-3.6-0.5-5.5-0.4c-24.6,1.5-49.1,3.5-73.4,7.4
		C255.2,629.7,255.3,630,255.1,644.3z M286.1,825.5c-7,6.1-13,11.9-18.3,18.3c-4.3,5.2-3.9,7.7,1.6,11.9c0.9,0.7,1.9,1.3,2.9,1.9
		c9.5,6.1,9.9,8.8,2,16.7c-0.7,0.7-1.4,1.4-2.1,2.2c-2.9,3.2-2.9,6.7-0.2,9.9c4.3,5.1,10.1,8,15.8,11.5c-2-6.7-2.8-13.4-1.5-19.9
		c1.7-8.9,2-17.8,2.5-26.8C289.2,842.8,287.3,834.7,286.1,825.5z M351.4,773.3c3.6,5.2,3.7,10.9,2.8,16.8c-0.3,2-0.4,3.2,2.3,2.6
		c9.9-2.1,19.8-4.1,29.1-8c2.8-1.2,7.5-1.7,7.1-5.7c-0.4-3.6-4.8-4.1-8-4.9C373.9,771.4,362.9,771.8,351.4,773.3z M302.6,797.7
		c-5.5-4.5-6.5-9.9-7.5-15.2c-0.3-1.5-0.4-1.8-2.2-1.9c-10-0.9-17.8,4-25.7,8.9c-0.8,0.5-1.8,1.5-1.8,2.2c0.1,1.5,1.8,1.9,3,2.2
		C279.2,796.8,290.2,797.9,302.6,797.7z M311.4,797.2c-3.2-5.4-5.4-10.9-5.8-17.1c-0.1-1.8-2.1-1.2-3.3-1.1
		c-1.7,0.1-1.7,1.5-1.4,2.6c1.2,4.8,2.6,9.6,5.8,13.5C307.7,796.3,308.6,798,311.4,797.2z M344.2,795.4c3.5-2.1,3.6-4.8,3.6-7
		c0.1-3.4-0.6-6.9-0.9-10.3c-0.3-4.6-0.5-4.7-5.4-3.2C345,781,345.9,787.5,344.2,795.4z"/>
	<path class="st1" d="M361.1,628c-0.3-0.6-0.7-1.2-0.8-1.8c-2.3-9.3-4.9-11.5-14.3-12.1c-1.3-0.1-2.6-0.2-4.1-0.3
		c0.2-0.6,0.1-1.2,0.4-1.5c23.3-21.4,48-40.8,78.3-51.5c16.6-5.9,33.9-8.2,51.5-8.7c7.3-0.2,14.6-0.9,21.9-1c3-0.1,4-2.1,5.2-3.9
		c19.3-27.6,37.7-55.7,55.9-84c30.4-47.3,57.3-96.9,88.6-143.7c21.1-31.6,42.9-62.7,69-90.5c14.3-15.2,30.4-27.9,50.3-35.3
		c3.4-1.3,6.9-2.4,10.5-3.2c11.1-2.4,20.1,0.6,27.3,9.9c8.6,11.2,11.4,24.3,13.1,37.7c5,38.7,4.3,77.4-0.1,116.1
		c-5.6,49.4-14.3,98.2-26.9,146.2c-18.8,71.9-49.6,138.7-91.4,200.3c-2.6,3.9-5,7.9-7.7,11.7c-7.1,10-7.1,11.6-2.3,24.4
		c-5.4,1.7-11.2,1.9-16.4,4.1c-2.1,0.9-5.6,0.8-5.1,4.3c0.5,3.5,3.9,2.3,6.1,2.9c-4,2.7-8.4,4.8-12,8c-10.4,9.6-19.8,20.1-29.1,30.8
		c-11,12.6-23,24.1-38.7,30.9c-26.6,11.5-54.3,13.5-82.6,9.5c-16.2-2.3-31.6-7.3-46.3-14.9c-12.9-6.6-26.8-10.8-41.7-10.4
		c-10.3-0.8-20.5-0.1-30.7,1.1c-14.6,1.7-25.2,11.5-27.5,24.6c-16.7,18.3-34.1,12.8-49.1,3.6c-7.9-4.8-14-11.6-20.6-17.9
		c-1.7-1.9-1.7-4.4-2.4-6.6c24.5,5.8,49,6.1,73.5,0.1c9.9-2.4,19.4-6,27.5-12.5c2.2-1.8,5.7-3.5,3.3-7.5c7.2-8,5.5-14-5-17.5
		c-11.5-3.8-23.4-2.8-35.1-2.1c-12.3,0.7-24.5,2.6-36.8,2.6c-8.7,0.1-17.2,1.2-25.6,3.5c-4,1.1-5.3,1.3-5.6-4.1
		c-0.6-9.6-3-19.1-2.4-28.7c0.5-9.2,1-18.6,5.4-27.1c1.6,0.2,3.3,0.5,4.9,0.5c19.8,0.7,39.5-1.2,59.2-3.2c12.4-1.3,16.4-4.7,18-15.6
		c2.9-20.3,1.6-40.5-4.1-60.2C365.9,632.1,364.7,629,361.1,628z M447.9,685.2c0.4,1.7,1.7,1.7,3.1,2c5.7,1.4,11.6,1.5,17.3,1.5
		c20.8,0.1,41.6,1.7,62.3-0.7c11.5-1.3,23.3-2.2,34-6.9c13.6-5.9,18.6-8.6,18.5-26.4c0-6.3-0.5-12.6-1.1-18.9
		c-1.1-11.4-2.6-22.8-6-33.8c-1.4-4.5-3.1-9.3-8.9-10.2c-0.3-0.8-0.7-1.5-0.8-2.3c-1.7-8.6-3.1-9.8-12-9.8c-9.5,0-18.9,0.3-28.4,0.9
		c-27.6,1.7-54.9,5.2-82.2,9.3c-4.9,0.7-7.3,3.5-7.6,8.3c-0.1,1.8-0.1,3.7-0.2,5.5c-0.6,25.4,3.2,50.4,5.2,75.6
		C441.4,683.7,443.7,685.6,447.9,685.2z M458.9,785.1c1.5,5,5.9,7,9.8,9.2c13.4,7.5,28,10.2,43.1,10.8c20.5,0.8,40.8-0.8,61-4.2
		c9.7-1.6,19.3-3.4,27.3-9.9c3.2-2.6,6-5.3,5.9-9.8c2.3-1.2,4.7-2.6,4.5-5.4c-0.4-5.8-6.1-6.7-9.9-9.4c4.4-0.7,8.5-1.2,12.6-1.9
		c1.7-0.3,3.3-1,3.3-3.1c-0.1-2.1-1.8-2.8-3.5-3c-2.8-0.4-5.6-0.6-8.5-0.5c-17.2,0.3-34.5,0.8-51.7,1c-6.1,0.1-12.3-0.7-18.5-0.5
		c-17.5,0.5-34.9,2.4-52.2,3.9c-7,0.6-13.8,2.1-20,5.6C454.6,772.1,453.4,778.4,458.9,785.1z M656.9,632.1c1.8,1.3,2.5,3.4,3.3,5.4
		c6.1,14.7,10.9,29.9,14.6,45.4c0.5,2.2,0.9,4.2,3.1,5.3c-1.8,2.8-3.5,5.6-5.3,8.4c-0.8,1.2-1.3,2.5,0.2,3.5
		c1.3,0.9,2.3,0.5,3.4-0.8c20.4-25.4,37.7-52.8,51.7-82.2c13.7-28.7,23.4-59,34-88.9c18.7-52.7,26-107.9,36.9-162.4
		c4.6-22.7,5.4-45.9,6.8-69c1.1-18.1-2.4-35.5-9.8-52c-6.2-13.9-17.8-17.2-30.6-9c-1.5,1-3.1,2-4.5,3.1
		c-19.1,14.7-35,32.7-50.2,51.3c-1.8,2.1-3.9,4.6-2.3,7.6c1.5,2.8,4.6,2.3,7.2,2.2c9.5-0.4,17.6,2.7,24.8,8.8
		c9.8,8.4,11.1,14.3,4.7,25.7c-6.6,11.8-15.8,20.5-29.3,23.8c-1.9,0.5-4.7,0.6-4.7,3.6c0,3,2.5,3,4.6,3.5c2.3,0.5,4.5,1.1,6.8,1.6
		c15.5,3.7,19.1,10.4,12.1,24.9C723.4,415,707.4,434,685,447.2c-16.3,9.6-33.9,16.1-51.3,23.2c-2.4,1-6.7,1.4-5.3,5.1
		c1.3,3.3,5,1.4,7.5,0.5c13.1-4.3,26.1-9,38.5-15c1.3-0.6,2.4-1.8,4.1-0.9c6.4,3.1,10.2,10.4,8.6,17.5c-4.6,20.6-17,36.2-32.5,49.7
		c-23.3,20.4-51.3,29.4-81.1,34.5c-2.1,0.4-4.8,0.2-4.7,3.2c0.1,3.4,3,2.9,5.3,3c2.6,0.1,5.2-0.7,7.8,0.7
		c8.8,4.7,17.5,9.5,25.3,15.9c14.6,11.8,27.5,25.2,39.3,39.8c3.2,3.9,6.5,7.7,10.4,12.2C656.9,634.4,656.9,633.2,656.9,632.1z"/>
	<path class="st2" d="M419.9,802.1c14.8-0.4,28.7,3.8,41.7,10.4c14.7,7.6,30.1,12.6,46.3,14.9c28.3,4,56,2,82.6-9.5
		C606.1,811,618,799.6,629,787c9.3-10.7,18.7-21.2,29.1-30.8c3.6-3.3,8-5.4,12-8c11.5,0.1,22.7-3.2,34.3-3.1c3.2,0,6.3,0.1,9.5,0.1
		c0,1,0.2,2.1-0.1,2.9c-5.9,15.5-14.1,29.5-26.5,40.7c-1.2,1.1-2.8,1.9-2.5,3.9c-0.9,0.9-2.2,1.7-1.3,3.3c0.7,1.2,1.9,1.2,3.1,1
		c9-1.1,18-2.1,27-3.5c2.5-0.4,4.9-0.3,7.3-0.3c-1.3,10.2-4.2,20-7.7,29.6c-3.3,9-8.6,17.1-12.4,25.8
		c-27.4,26.7-52.7,55.5-84.4,77.6c-24,16.7-50.6,25.4-78.8,30.7c-29.3,5.6-58.7,7.6-88.4,4.8c-37.1-3.4-73.4-10.4-107.3-26.8
		c-12.9-6.2-24.6-14-33.6-25.3c-8.2-10.2-13.2-21.2-11.2-34.9c2.8-19.5,0.2-38.8-4.7-57.8c-0.3-1.1-0.2-2.3-0.3-3.4
		c6.6,6.3,12.7,13,20.6,17.9c15,9.2,32.5,14.7,49.1-3.6c-1.2,9.3,2.3,17.5,6.4,25.4c0.6,1.1,1.2,2.7,2.8,2.1c1.6-0.7,1-2.1,0.6-3.4
		c-1.3-4.6-3.2-9-3.4-13.8c1.8,0.9,3.4,2.2,5.3,2.7c11.3,3.1,30.5-9,32.5-20.7c0.5-2.7,2.3-6.9-2.9-8c-1-1.4-2-2.8-3.2-4.5
		c5.7-0.5,10.9-1,16.1-1.5C418.3,805.8,420.5,805.4,419.9,802.1z M460.6,911.3c28.5-0.3,50.3-6.7,70.2-19.4
		c4.1-2.6,7.9-5.5,10.6-9.7c5.5-8.7,1.6-16.8-8.5-18.1c-2.5-0.3-5-0.2-7.5-0.1c-18.4,1-36.6,4.4-54.9,6.3c-22.2,2.3-44.4,3.4-66.7,2
		c-2.6-0.2-5.3,0-7.9,0.3c-1.4,0.1-2.5,1.2-2.2,2.8c0.2,1.4,1.3,1.8,2.6,1.9c2.8,0.2,5.6,0.5,8.4,0.8c1.1,0.1,2.2-0.3,2.5,1.6
		c1,7.9,6.3,13.1,12.2,17.5C432.9,907.3,448.5,911.6,460.6,911.3z M566.2,870.3c-0.9-6.4-4.5-11.2-9.8-14.7
		c-1.1-0.7-2.6-2.4-3.8-0.4c-0.9,1.6,0.9,2.2,1.7,3.1c3.7,4.1,7.6,8.1,6,14.3c-0.4,1.7-0.7,3.6,1.3,4.2c2.3,0.7,3.2-1.2,3.8-3
		C565.8,872.7,565.9,871.6,566.2,870.3z"/>
	<path class="st3" d="M264.1,735c-13.6-26.8-23.8-55-32.8-83.5c-20.5-65.2-28.6-132-22.3-200.2c6.7-72.7,27.2-140.7,68.5-201.6
		c14.2-20.9,29.5-40.8,50.9-55.1c4.9-3.2,9.8-6.2,15.5-7.9c5.7-1.7,10.5-0.5,14.7,3.6c5.1,5,8.3,11.2,11,17.7
		c8.6,21.1,13.4,43.2,15.4,65.9c3.6,42.1,6.6,84.3,10.2,126.5c3.9,45.7,14.1,89.7,35.3,130.8c0.3,0.6,0.4,1.3,0.5,1.9
		c-5.9,1.5-11.1,4.4-16.5,6.9c-29.4,14-54,34.4-75.9,58.3c-4.7,5.1-9.6,10.2-12.6,16.6c-4.2,1-6.5,0.3-7.2-4.9
		c-0.8-6.2-0.7-11.9,2.4-17.3c0.9-1.5,1.6-3,0.2-4.5c-1.3-1.4-2.6-0.6-4.1-0.2c-2.2,0.6-4.5,1.1-6.8,1.2c-6.2,0.4-9.7-2.2-11.3-8.1
		c-2.1-7.7-0.2-15.2,1.7-22.6c4.7-19,12.6-36.7,22.2-53.6c2.5-4.3,4.8-8.7,6.9-13.2c0.8-1.7,3-4.3,0.6-5.6c-2.1-1-3,2.1-3.9,3.7
		c-4.6,7.7-9.1,15.5-13.4,23.3c-1.3,2.4-2.9,3.7-5.7,4.1c-3.6,0.5-7.1,1.7-10.7,2.4c-7.8,1.6-12.5-0.9-15.4-8.3
		c-4-10.4-1.7-20.8,1.4-30.8c5.6-18.3,16-34.2,27.1-49.7c4.4-6.1,10.3-11.5,11.1-19.7c1.7-17.5,3.7-35.1,5.2-52.6
		c1.9-22.9,3.4-45.8,5.1-68.7c0.9-12.8,1.4-25.6-1-38.3c-0.3-1.6-0.7-3.3-1.2-4.8c-3.5-9.9-11.6-12.6-20-6.3
		c-9.3,7-16.7,15.8-23.2,25.3c-23.8,34.2-38.9,72-47.6,112.6c-8.8,40.5-12.2,81.5-10.8,122.9c0.6,19.4,3.2,38.7,5.9,58
		c3,20.9,5.3,42,12.3,61.9c4.2,11.9,3.5,23.8,4.4,35.8c1.3,15.7,3.7,31.4,4.3,47.2c0.2,4,1.9,6.8,6.9,6.4c5.3-0.4,10.6-0.1,16-0.1
		c-4.6,6.3-7.5,13.4-10,20.7C266.3,732.4,266.6,734.7,264.1,735z"/>
	<path class="st2" d="M310.1,616c-10.5,1.3-21.1,2.3-31.6,4c-8.5,1.3-17.2,1.3-25.1,5.5c-2.5,1.4-1.9-1.4-2.3-2.4
		c-4.2-13-6.7-26.4-9-39.8c-4.7-27.5-8.4-55.2-9.7-83.1c-0.9-20,0.2-40,2-59.9c2.5-27.5,7-54.7,14.7-81.3
		c10.6-36.4,26.3-70.3,50.1-100.1c1.4-1.8,3.1-3.4,4.7-5.1c6.3,9,9.7,19.3,10.9,29.9c2,16.8,1.9,33.8,2.1,50.7
		c0.1,9.3-0.3,18.6-1,27.8c-1,12.7-1.1,25.5-3.9,38c-1.6,7.3-4.3,14.5-4.3,22.2c0,0-0.2,0.4-0.2,0.4c-2.8,0.1-3.8,1.7-3.5,4.3l0,0
		c-4.6,1.7-6.2,5.6-7.1,9.9c0,0,0,0,0,0c-1.9,0.2-2,1.6-1.9,3.1c-9.7,16.1-19.2,32.2-21.8,51.3c-0.3,2.1-0.6,4.3-0.9,6.4
		c-2.8,5.8-1.2,11.7,0.3,17.3c3.2,12.2,11.2,17.7,27.1,19.3c-1.1,6.2-4.4,12-3.8,18.6c-2.2,9.5-4.1,19.1-3.1,29
		c-0.8,7-0.5,15.3,6.2,17.8c8.1,3.1,9.4,8.6,10.7,15.2C309.8,615.4,309.9,615.7,310.1,616z"/>
	<path class="st4" d="M255.1,644.3c0.2-14.3,0.1-14.6,13.4-16.7c24.3-3.9,48.8-5.9,73.4-7.4c1.8-0.1,3.6,0.3,5.5,0.4
		c4.6,0.2,6.2,3.3,6.6,7.3c0.7,6.9,1.6,13.9,1.9,20.9c0.4,11.7,1.9,23.2,2.8,34.8c0.1,0.7,0.2,1.3,0.2,2c0.6,9.4-0.9,11.4-10.2,12.6
		c-21,2.6-42,4.6-63,6.1c-7.3,0.5-14.6,0.1-21.9,1.6c-2.2,0.5-3.5,0.2-3.6-2.9c-0.2-16.5-3.4-32.7-4.5-49.2
		C255.5,650.6,255.3,647.5,255.1,644.3z"/>
	<path class="st53" d="M307.7,422.4c0-7.7,2.7-14.8,4.3-22.2c2.8-12.5,2.9-25.3,3.9-38c0.7-9.2,1.1-18.6,1-27.8
		c-0.2-16.9-0.1-33.9-2.1-50.7c-1.2-10.6-4.6-20.9-10.9-29.9c2.7-3.2,5.6-6.1,9-8.5c4.7-3.2,7.9-2.1,9.9,3.4
		c2.6,7.5,2.8,15.4,2.9,23.1c0.2,13.1-1.3,26.2-2.4,39.3c-1,12.6-1.4,25.2-2.5,37.8c-1.8,21-3.7,42-6,62.9
		C314.3,416.2,311,419.6,307.7,422.4z"/>
	<path class="st47" d="M326,614.9c3-6.4,8-11.5,12.6-16.6c21.8-23.9,46.4-44.3,75.9-58.3c5.4-2.6,10.6-5.5,16.5-6.9
		c3.5,4.3,6.3,9.2,12.3,12.8c-4.4,1.1-7.2,1.8-10.1,2.4c-24.2,5.6-44.8,18.3-64.4,32.8c-10.2,7.5-20.3,15-29.2,24.1
		c-2.2,2.2-4.4,4.4-5.6,7.5C332.3,616.4,328.7,614.3,326,614.9z"/>
	<path class="st47" d="M361.1,628c3.6,1,4.8,4.2,5.6,7.1c5.7,19.8,7,39.9,4.1,60.2c-1.6,10.9-5.6,14.4-18,15.6
		c-19.7,2-39.4,3.9-59.2,3.2c-1.7-0.1-3.3-0.4-4.9-0.5c0-3.7,1.8-4.4,5.3-4.5c20.2-0.5,40.3-3.5,60.4-5.2c6.8-0.6,9.8-4,10.8-10.9
		c1.6-10.7-0.9-21.1-1.7-31.7C362.8,650.1,361.9,639,361.1,628z"/>
	<path class="st3" d="M286.1,825.5c1.1,9.1,3,17.3,2.6,25.6c-0.5,8.9-0.7,17.9-2.5,26.8c-1.3,6.6-0.5,13.2,1.5,19.9
		c-5.7-3.5-11.5-6.5-15.8-11.5c-2.7-3.2-2.7-6.7,0.2-9.9c0.7-0.7,1.4-1.5,2.1-2.2c7.9-7.8,7.5-10.6-2-16.7c-1-0.6-2-1.2-2.9-1.9
		c-5.5-4.1-5.9-6.7-1.6-11.9C273.1,837.4,279.1,831.7,286.1,825.5z"/>
	<path class="st47" d="M393.9,787c2.3,4-1.1,5.7-3.3,7.5c-8.1,6.4-17.6,10-27.5,12.5c-24.5,6-49,5.8-73.5-0.1c-1.6-3.6,1-2.9,3-2.9
		c10.4,0.1,20.9,0.4,31.3-0.7C347.8,800.7,371.6,797.1,393.9,787z"/>
	<path class="st53" d="M684.8,792.7c-0.3-2,1.2-2.8,2.5-3.9c12.4-11.2,20.6-25.3,26.5-40.7c0.3-0.9,0.1-1.9,0.1-2.9
		c4.3,0.2,8.5,1.1,12.6,2.6c3.7,1.4,4.9,4.2,4,8c-1,4.2-3.4,7.6-6.3,10.6c-7.2,7.4-15.1,14-23.4,20.1
		C695.8,790.3,690.8,792.3,684.8,792.7z"/>
	<path class="st53" d="M700.8,848.6c3.8-8.8,9.1-16.8,12.4-25.8c3.5-9.7,6.4-19.4,7.7-29.6c11.1-0.6,14.7,3.7,12.2,14.3
		c-1.7,7.1-5.4,13.2-9.9,18.7C716.5,834.5,709.3,842.2,700.8,848.6z"/>
	<path class="st59" d="M351.4,773.3c11.4-1.6,22.5-2,33.4,0.8c3.1,0.8,7.5,1.3,8,4.9c0.5,4-4.2,4.5-7.1,5.7
		c-9.3,3.9-19.3,5.9-29.1,8c-2.7,0.6-2.6-0.6-2.3-2.6C355.1,784.3,355,778.6,351.4,773.3z"/>
	<path class="st47" d="M264.1,735c2.5-0.3,2.2-2.6,2.8-4.1c2.6-7.3,5.5-14.4,10-20.7c6.9-0.4,6.7-0.4,5,6c-3,11.4-4.9,23-3.1,34.9
		c0.4,2.4,0.1,4.8,0.1,8.6C273.1,751,268.4,743.1,264.1,735z"/>
	<path class="st59" d="M302.6,797.7c-12.5,0.1-23.4-0.9-34.2-3.8c-1.2-0.3-2.9-0.7-3-2.2c-0.1-0.7,1-1.7,1.8-2.2
		c7.9-4.9,15.7-9.8,25.7-8.9c1.9,0.2,2,0.5,2.2,1.9C296.2,787.9,297.2,793.3,302.6,797.7z"/>
	<path class="st53" d="M295.9,553c-0.5-6.5,2.7-12.3,3.8-18.6c-15.9-1.6-23.8-7.1-27.1-19.3c-1.5-5.6-3.2-11.5-0.3-17.3
		c1.2,3.7,0.5,7.5,1.4,11.3c3.6,14.5,12.2,19.8,26.6,16.2c2-0.5,3.9-1.8,6.6-1.2C303.3,533.8,299.6,543.4,295.9,553z"/>
	<path class="st53" d="M310.1,616c-0.1-0.3-0.3-0.6-0.3-0.9c-1.3-6.6-2.7-12.2-10.7-15.2c-6.7-2.5-7-10.8-6.2-17.8
		c1.8,1,1.5,3.1,2.4,4.6c3.6,5.9,8.8,8.2,15.5,7.4c2.4-0.3,3.6-0.2,2.8,3.1c-1.2,4.7-1.2,9.5,0.3,14.2
		C315,614.9,314.1,616.7,310.1,616z"/>
	<path class="st83" d="M311.4,797.2c-2.8,0.8-3.7-0.9-4.6-2.1c-3.1-4-4.6-8.7-5.8-13.5c-0.3-1.1-0.3-2.4,1.4-2.6
		c1.2-0.1,3.2-0.7,3.3,1.1C306.1,786.3,308.2,791.8,311.4,797.2z"/>
	<path class="st83" d="M344.2,795.4c1.6-7.9,0.8-14.4-2.6-20.6c4.9-1.4,5-1.3,5.4,3.2c0.3,3.4,0.9,6.9,0.9,10.3
		C347.8,790.6,347.7,793.3,344.2,795.4z"/>
	<path class="st53" d="M297,437c0.9-4.3,2.5-8.2,7.1-9.9C302.6,431,300.2,434.3,297,437z"/>
	<path class="st53" d="M304.1,427.1c-0.3-2.6,0.7-4.2,3.5-4.3C307,424.7,306.1,426.3,304.1,427.1z"/>
	<path class="st53" d="M295.1,440.1c-0.1-1.5,0-2.9,1.9-3.1C297.2,438.6,296.4,439.5,295.1,440.1z"/>
	<path class="st2" d="M678,688.1c-2.2-1.1-2.6-3.1-3.1-5.3c-3.6-15.5-8.5-30.6-14.6-45.4c-0.8-1.9-1.5-4-3.3-5.4
		c-3.2-5.5-5.7-11.5-9.7-16.6c-13-16.7-28.1-31.1-45.4-43.3c0.5-0.4,1-0.8,1.6-1c30.1-10.7,55.8-28,76.3-52.7
		c5.6-6.7,9.8-14.4,10.5-23.4c0.6-1.9,1.4-3.7,1.9-5.6c2.7-9.8,4.5-19.4-2.5-28.3c19.3-10.6,33.8-25.9,43.6-45.6
		c1.9-3.7,4.3-7.4,4.2-11.9c2-4.9,4.4-9.7,6-14.7c3.7-11.2,1.1-18.2-8.7-24.7c0.7-0.6,1.5-1.3,2.2-1.9c9.8-8.2,16.6-18,17.1-31.3
		c2-7.3,1.7-14.2-3.2-20.3c-7-8.8-15.8-14.7-27-16.5c-2.3-0.4-4.7-0.4-8-0.6c2.8-3.3,4.8-5.9,7-8.4c14-15.8,28-31.8,45.7-43.8
		c9.2-6.2,16.2-4.1,20.8,6c6.1,13.4,9.3,27.5,9.2,42.1c-0.2,18.6-1.8,37.2-4.1,55.7c-5.1,40.4-14.3,80.2-22.1,120.1
		c-6.9,35.5-20,69.2-31.4,103.4C726.4,612,704.2,651.1,678,688.1z"/>
	<path class="st44" d="M734.8,364.2c9.8,6.5,12.4,13.5,8.7,24.7c-1.7,5-4,9.8-6,14.7c-0.9,1.3-1.9,2.7-2.8,4
		c-8.2,13.1-17.8,25-29.6,34.9c-6.5,5.4-13.7,9.7-21.4,14.2c2.4,1.7,4.2,3,6,4.4c7,8.9,5.2,18.6,2.5,28.3c-0.5,1.9-1.3,3.7-1.9,5.6
		c-3.2,3-4.2,7.3-6.6,10.8c-20,30.1-48.2,48.3-82.9,57.1c-3.2,0.8-6.6,1-9.8,3.2c3.9,2.1,7.4,4,10.8,5.9
		c17.3,12.2,32.4,26.6,45.4,43.3c4,5.1,6.5,11.1,9.7,16.6c0,1.2,0,2.3,0,4.6c-3.9-4.5-7.2-8.3-10.4-12.2
		c-11.8-14.6-24.7-27.9-39.3-39.8c-7.8-6.3-16.5-11.2-25.3-15.9c-2.6-1.4-5.2-0.6-7.8-0.7c-2.3-0.1-5.2,0.4-5.3-3
		c-0.1-3.1,2.6-2.9,4.7-3.2c29.8-5,57.8-14.1,81.1-34.5c15.5-13.5,27.8-29.1,32.5-49.7c1.6-7.1-2.2-14.4-8.6-17.5
		c-1.8-0.9-2.9,0.3-4.1,0.9c-12.4,6-25.4,10.7-38.5,15c-2.6,0.8-6.2,2.8-7.5-0.5c-1.4-3.7,2.9-4.2,5.3-5.1
		c17.4-7.1,35-13.7,51.3-23.2c22.4-13.2,38.4-32.2,49.6-55.4c7-14.5,3.4-21.2-12.1-24.9c-2.3-0.5-4.5-1.1-6.8-1.6
		c-2.1-0.5-4.6-0.5-4.6-3.5c0-3,2.7-3.1,4.7-3.6c13.6-3.3,22.7-12.1,29.3-23.8c6.4-11.3,5.2-17.3-4.7-25.7
		c-7.2-6.1-15.3-9.2-24.8-8.8c-2.6,0.1-5.7,0.6-7.2-2.2c-1.7-3,0.5-5.5,2.3-7.6c15.2-18.6,31.1-36.6,50.2-51.3
		c1.4-1.1,3-2.1,4.5-3.1c12.7-8.2,24.4-4.9,30.6,9c7.4,16.5,10.9,33.9,9.8,52c-1.4,23.1-2.2,46.3-6.8,69
		c-11,54.4-18.3,109.7-36.9,162.4c-10.6,29.9-20.3,60.2-34,88.9c-14,29.3-31.3,56.8-51.7,82.2c-1,1.3-2,1.7-3.4,0.8
		c-1.4-1-1-2.3-0.2-3.5c1.8-2.8,3.5-5.6,5.3-8.4c26.3-37,48.5-76.1,63-119.4c11.5-34.2,24.5-67.9,31.4-103.4
		c7.8-40,17-79.7,22.1-120.1c2.3-18.5,3.9-37.1,4.1-55.7c0.1-14.6-3.1-28.7-9.2-42.1c-4.6-10.1-11.7-12.2-20.8-6
		c-17.7,12-31.6,28-45.7,43.8c-2.2,2.5-4.2,5.1-7,8.4c3.2,0.2,5.6,0.2,8,0.6c11.2,1.8,20,7.7,27,16.5c4.9,6.2,5.2,13.1,3.2,20.3
		c-6.3,12.5-14.3,23.4-28.1,30.1C729.6,362.4,732.2,363.3,734.8,364.2z"/>
	<path class="st84" d="M458.9,785.1c-5.5-6.7-4.4-13,3.3-17.3c6.2-3.5,13.1-5,20-5.6c17.4-1.5,34.8-3.5,52.2-3.9
		c6.1-0.2,12.3,0.6,18.5,0.5c17.2-0.2,34.5-0.7,51.7-1c2.8-0.1,5.7,0.1,8.5,0.5c1.6,0.2,3.4,0.9,3.5,3c0.1,2.1-1.6,2.8-3.3,3.1
		c-4.1,0.7-8.2,1.2-12.6,1.9c3.8,2.7,9.5,3.5,9.9,9.4c0.2,2.8-2.2,4.3-4.5,5.4c-2.6,1-5.2,2.1-7.9,3c-21,7.2-42.9,9-64.7,9.6
		C508.4,794.3,482.9,795.4,458.9,785.1z M547,787c2.3,0.7,3.7-0.3,4.7-2.4c1.9-4,2.2-8.2,2.7-12.5c0.8-7.8,0.5-8.3-7.5-7.6
		C550,773.6,550,779.3,547,787c0,0.2-0.1,0.3-0.1,0.4C546.9,787.2,546.9,787.1,547,787z M605.1,775.8c-0.9-0.7-1.4-1.2-1.9-1.5
		c-13.3-6.5-27.7-7.5-42-9.1c-1.2-0.1-2.6,0.1-1.9,1.8c2.2,6.4,1.2,12.6-1,19.3C574.6,785.1,590.1,782.4,605.1,775.8z M496.8,787.2
		c-4.2-6.2-7.9-11.9-6-19.4c-9.7,0.5-18.6,2-26.6,6.8c-4.1,2.4-4.1,4,0.1,6C474.3,785.3,485,786.6,496.8,787.2z M511,787.6
		c-3.5-6.4-6.7-12.4-7.2-19.6c-0.3-3.4-3.1-0.9-4.7-1c-2-0.2-2.8,0.5-2.3,3c1.2,5.7,4.3,10.3,7.3,15.1
		C505.8,787.7,507.5,788.5,511,787.6z"/>
	<path class="st84" d="M447.9,685.2c-4.2,0.4-6.5-1.5-6.8-5.8c-2-25.2-5.8-50.2-5.2-75.6c0-1.8,0.1-3.7,0.2-5.5
		c0.3-4.8,2.6-7.6,7.6-8.3c27.3-4.1,54.6-7.6,82.2-9.3c9.5-0.6,18.9-0.8,28.4-0.9c8.9,0,10.3,1.2,12,9.8c0.2,0.8,0.5,1.6,0.8,2.3
		c0.5,4.8,0.8,9.6,1.5,14.4c2.6,18.4,5,36.9,6.5,55.4c0.7,9.1-1.6,11.8-10.6,13c-20.3,2.6-40.5,5.1-60.8,7.2
		C485.1,684,466.5,684.8,447.9,685.2z M543.2,586c-15.3,1-31.6,1.8-47.8,3.3c-16.5,1.6-33,3.7-49.4,6.5c-2.7,0.5-3.8,1.5-3.8,4.2
		c0.2,8.3,0.1,16.6,0.4,24.9c0.6,17,3.2,33.7,4.2,50.7c0.2,3.4,0.9,4.5,4.5,4.3c18.9-0.7,37.8-1.9,56.6-4.1c18-2.1,35.9-4.7,53.8-7
		c4.5-0.6,6.6-2.3,5.9-7.4c-3.1-22.9-6-45.8-8.8-68.7c-0.5-3.8-1.5-6.2-5.9-6.1C550.1,586.7,547.1,586.2,543.2,586z"/>
	<path class="st47" d="M447.9,685.2c18.6-0.4,37.2-1.3,55.7-3.2c20.3-2.2,40.6-4.6,60.8-7.2c8.9-1.2,11.3-3.9,10.6-13
		c-1.5-18.5-3.8-37-6.5-55.4c-0.7-4.8-1-9.6-1.5-14.4c5.8,0.9,7.5,5.7,8.9,10.2c3.4,11,4.9,22.4,6,33.8c0.6,6.3,1.1,12.6,1.1,18.9
		c0.1,17.8-4.9,20.5-18.5,26.4c-10.8,4.7-22.5,5.5-34,6.9c-20.7,2.4-41.5,0.7-62.3,0.7c-5.7,0-11.6-0.1-17.3-1.5
		C449.7,686.9,448.3,686.9,447.9,685.2z"/>
	<path class="st47" d="M458.9,785.1c24,10.3,49.4,9.2,74.5,8.6c21.8-0.5,43.7-2.4,64.7-9.6c2.7-0.9,5.3-2,7.9-3
		c0.1,4.5-2.7,7.2-5.9,9.8c-8,6.5-17.6,8.3-27.3,9.9c-20.2,3.4-40.5,4.9-61,4.2c-15.1-0.6-29.7-3.3-43.1-10.8
		C464.8,792.1,460.4,790,458.9,785.1z"/>
	<path class="st84" d="M419.9,802.1c0.6,3.4-1.6,3.8-4.1,4c-5.2,0.5-10.3,1-16.1,1.5c1.2,1.7,2.2,3.1,3.2,4.5
		c0.6,4.1-1.2,7.4-3.9,10.2c-3,3.1-6.4,5.7-10.1,7.9c-7.2,4.2-14.3,7.2-21.5-1.1c-0.1,3.5-0.7,6.3,0.7,8.9c0.2,4.8,2.1,9.2,3.4,13.8
		c0.4,1.3,1,2.8-0.6,3.4c-1.6,0.7-2.2-1-2.8-2.1c-4.2-7.9-7.6-16.1-6.4-25.4c2.3-13.1,12.9-22.9,27.5-24.6
		C399.4,802,409.6,801.3,419.9,802.1z M377.8,827.8c5-0.6,9-3.8,13.1-7c2-1.6,5.2-3,4.6-5.9c-0.5-2.9-3.9-1.5-6-2.2
		c-0.6-0.2-1.2-0.6-1.9-0.7c-7.6-1.4-14,2.3-15.1,8.6C371.9,824.5,374.1,827.8,377.8,827.8z"/>
	<path class="st85" d="M460.6,911.3c-12.2,0.3-27.8-4-41.4-14.3c-5.9-4.4-11.1-9.6-12.2-17.5c-0.2-1.8-1.4-1.5-2.5-1.6
		c-2.8-0.3-5.6-0.6-8.4-0.8c-1.3-0.1-2.3-0.5-2.6-1.9c-0.3-1.6,0.8-2.6,2.2-2.8c2.6-0.3,5.3-0.4,7.9-0.3c22.3,1.4,44.5,0.3,66.7-2
		c18.3-1.9,36.5-5.3,54.9-6.3c2.5-0.1,5-0.2,7.5,0.1c10.2,1.3,14,9.4,8.5,18.1c-2.6,4.2-6.5,7.1-10.6,9.7
		C510.9,904.6,489.1,911,460.6,911.3z M438.9,878.5c-0.1,3.9,1.4,7.5,2,11.2c0.2,1.1,1,2.9-0.9,3.3c-1.4,0.3-1.8-1.2-2.1-2.3
		c-1.1-3.3-2.3-6.5-3.4-9.8c-0.5-1.4-0.5-2.7-2.8-2.6c-4,0.2-8-0.3-12-0.1c-2.4,0.1-5.9-1.4-6.8,0.9c-1,2.5,1.5,5.2,3.3,7.4
		c7,8.5,16.3,13.8,26.8,16.4c33.1,8.3,63,0.4,90.3-19.1c1.3-0.9,2.5-2.3,3.4-3.6c1.5-2.2,3-4.6,1.6-7.4c-1.3-2.6-3.9-2.9-6.4-2.9
		c-7.2-0.1-14.3,0.2-21.3,1.4c0.3,5.3,3.3,10.2,2.2,16.9c-3.4-5.1-4.5-9.7-5.5-14.2c-0.5-2.1-1.1-2.6-3.3-2.4
		c-6.7,0.9-13.5,1.7-20.3,2.2c-2.8,0.2-2.8,1.5-2.5,3.5c0.6,4.3,1.1,8.6,1.6,12.8c0.2,1.2,0.9,2.9-0.7,3.5c-1.9,0.6-1.9-1.4-2.3-2.5
		c-1.2-3.9-3-7.9-3.2-11.9c-0.2-4.7-2.7-4.3-5.8-4C460.3,876.3,449.9,877.4,438.9,878.5z"/>
	<path class="st53" d="M368.1,838c-1.4-2.6-0.8-5.4-0.7-8.9c7.1,8.3,14.3,5.3,21.5,1.1c3.7-2.2,7.2-4.8,10.1-7.9
		c2.7-2.9,4.5-6.1,3.9-10.2c5.2,1.1,3.4,5.2,2.9,8c-2,11.7-21.1,23.8-32.5,20.7C371.5,840.2,369.9,839,368.1,838z"/>
	<path class="st85" d="M566.2,870.3c-0.3,1.3-0.4,2.4-0.8,3.5c-0.6,1.8-1.5,3.7-3.8,3c-2.1-0.6-1.8-2.5-1.3-4.2
		c1.6-6.3-2.3-10.3-6-14.3c-0.8-0.9-2.7-1.5-1.7-3.1c1.2-2,2.7-0.3,3.8,0.4C561.7,859.1,565.3,863.9,566.2,870.3z"/>
	<path class="st53" d="M601.8,572.2c-3.5-1.9-6.9-3.8-10.8-5.9c3.2-2.2,6.6-2.4,9.8-3.2c34.7-8.9,62.8-27,82.9-57.1
		c2.3-3.5,3.4-7.8,6.6-10.8c-0.7,9-4.9,16.7-10.5,23.4c-20.4,24.7-46.1,41.9-76.3,52.7C602.9,571.3,602.4,571.8,601.8,572.2z"/>
	<path class="st53" d="M689.6,461.1c-1.8-1.3-3.7-2.7-6-4.4c7.8-4.5,15-8.8,21.4-14.2c11.9-9.9,21.5-21.8,29.6-34.9
		c0.9-1.4,1.9-2.7,2.8-4c0.1,4.5-2.3,8.2-4.2,11.9C723.3,435.2,708.9,450.5,689.6,461.1z"/>
	<path class="st53" d="M734.8,364.2c-2.6-0.9-5.2-1.8-8.7-3.1c13.7-6.7,21.8-17.6,28.1-30.1c-0.5,13.3-7.3,23.1-17.1,31.3
		C736.3,363,735.5,363.6,734.8,364.2z"/>
	<path class="st59" d="M605.1,775.8c-15,6.6-30.5,9.4-46.9,10.5c2.2-6.6,3.2-12.9,1-19.3c-0.6-1.8,0.7-2,1.9-1.8
		c14.3,1.6,28.8,2.6,42,9.1C603.8,774.5,604.2,775.1,605.1,775.8z"/>
	<path class="st59" d="M496.8,787.2c-11.7-0.6-22.5-1.9-32.5-6.5c-4.3-2-4.2-3.5-0.1-6c8-4.8,16.9-6.3,26.6-6.8
		C488.8,775.3,492.6,780.9,496.8,787.2z"/>
	<path class="st83" d="M511,787.6c-3.5,1-5.2,0.1-6.9-2.7c-3-4.8-6.1-9.4-7.3-15.1c-0.5-2.5,0.3-3.1,2.3-3c1.6,0.1,4.5-2.4,4.7,1
		C504.3,775.1,507.5,781.2,511,787.6z"/>
	<path class="st83" d="M547,787c3-7.7,2.9-13.4-0.2-22.5c8.1-0.7,8.4-0.2,7.5,7.6c-0.5,4.3-0.9,8.5-2.7,12.5
		C550.6,786.7,549.3,787.6,547,787L547,787z"/>
	<path class="st83" d="M547,787c0,0.1-0.1,0.3-0.1,0.4C546.9,787.2,547,787.1,547,787C547,787,547,787,547,787z"/>
	<path class="st4" d="M543.2,586c3.9,0.3,6.9,0.7,9.9,0.6c4.4-0.1,5.4,2.3,5.9,6.1c2.8,22.9,5.7,45.8,8.8,68.7
		c0.7,5.1-1.4,6.9-5.9,7.4c-18,2.3-35.9,4.9-53.8,7c-18.8,2.2-37.7,3.4-56.6,4.1c-3.6,0.1-4.3-0.9-4.5-4.3
		c-1-16.9-3.7-33.7-4.2-50.7c-0.3-8.3-0.3-16.6-0.4-24.9c0-2.6,1.1-3.7,3.8-4.2c16.4-2.8,32.8-4.9,49.4-6.5
		C511.6,587.8,527.9,587,543.2,586z"/>
	<path class="st83" d="M377.8,827.8c-3.7-0.1-5.9-3.3-5.2-7.2c1.1-6.3,7.5-9.9,15.1-8.6c0.6,0.1,1.2,0.5,1.9,0.7
		c2.1,0.7,5.5-0.7,6,2.2c0.5,2.9-2.6,4.3-4.6,5.9C386.9,824,382.8,827.2,377.8,827.8z"/>
	<path class="st20" d="M438.9,878.5c10.9-1.1,21.3-2.2,31.7-3.3c3.1-0.3,5.6-0.7,5.8,4c0.2,4,2,8,3.2,11.9c0.3,1.1,0.4,3.1,2.3,2.5
		c1.7-0.5,0.9-2.2,0.7-3.5c-0.5-4.3-1.1-8.6-1.6-12.8c-0.3-2-0.3-3.3,2.5-3.5c6.8-0.4,13.6-1.3,20.3-2.2c2.2-0.3,2.8,0.2,3.3,2.4
		c1,4.5,2.1,9.1,5.5,14.2c1.1-6.8-1.8-11.7-2.2-16.9c7-1.2,14.2-1.5,21.3-1.4c2.5,0,5.1,0.3,6.4,2.9c1.4,2.8-0.1,5.2-1.6,7.4
		c-0.9,1.4-2.1,2.7-3.4,3.6c-27.3,19.5-57.2,27.3-90.3,19.1c-10.4-2.6-19.7-7.9-26.8-16.4c-1.8-2.2-4.2-4.9-3.3-7.4
		c0.9-2.3,4.5-0.8,6.8-0.9c4-0.1,8,0.3,12,0.1c2.3-0.1,2.3,1.2,2.8,2.6c1.1,3.3,2.3,6.5,3.4,9.8c0.4,1.1,0.8,2.6,2.1,2.3
		c1.9-0.4,1.1-2.2,0.9-3.3C440.3,886,438.8,882.4,438.9,878.5z"/>
</g>
</svg>
