<?xml version="1.0" encoding="utf-8"?>
<!-- Generator: Adobe Illustrator 25.0.0, SVG Export Plug-In . SVG Version: 6.00 Build 0)  -->
<svg version="1.1" id="图层_1" xmlns="http://www.w3.org/2000/svg" xmlns:xlink="http://www.w3.org/1999/xlink" x="0px" y="0px"
	 viewBox="0 0 1200 1600" style="enable-background:new 0 0 1200 1600;" xml:space="preserve">
<style type="text/css">
	.st0{fill:#060604;}
	.st1{fill:#EDCF5D;}
	.st2{fill:#FBF1EE;}
	.st3{fill:#ECCF5D;}
	.st4{fill:#F4FB95;}
	.st5{fill:#A0918B;}
	.st6{fill:#FBFBFB;}
	.st7{fill:#927233;}
	.st8{fill:#935A40;}
	.st9{fill:#623C2A;}
	.st10{fill:#FEFEFE;}
	.st11{fill:#040302;}
	.st12{fill:#090805;}
	.st13{fill:#9C5B46;}
	.st14{fill:#070705;}
	.st15{fill:#ECCE5D;}
	.st16{fill:#F2F2F2;}
	.st17{fill:#93583F;}
	.st18{fill:#A1918B;}
	.st19{fill:#513123;}
	.st20{fill:#FAFAFA;}
	.st21{fill:#030202;}
	.st22{fill:#060605;}
	.st23{fill:#A0908A;}
	.st24{fill:#937234;}
	.st25{fill:#E6C95B;}
	.st26{fill:#864E37;}
	.st27{fill:#513124;}
	.st28{fill:#B0603E;}
	.st29{fill:#FAF0ED;}
	.st30{fill:#F9F9F9;}
	.st31{fill:#917133;}
	.st32{fill:#9E8F89;}
	.st33{fill:#E7CA5B;}
	.st34{fill:#92583F;}
	.st35{fill:#050503;}
	.st36{fill:#FCFBFB;}
	.st37{fill:#080704;}
	.st38{fill:#070605;}
	.st39{fill:#FAF1ED;}
	.st40{fill:#F4FA95;}
	.st41{fill:#F8F8F7;}
	.st42{fill:#90573E;}
	.st43{fill:#030302;}
	.st44{fill:#080805;}
	.st45{fill:#FBF1ED;}
	.st46{fill:#FBFBFA;}
	.st47{fill:#927234;}
	.st48{fill:#F69376;}
	.st49{fill:#7B2D2D;}
	.st50{fill:#FCFCFC;}
	.st51{fill:#EF5A2D;}
	.st52{fill:#F0CC2D;}
	.st53{fill:#9F8F8A;}
	.st54{fill:#FAFAF9;}
	.st55{fill:#F2A78E;}
	.st56{fill:#040403;}
	.st57{fill:#070604;}
	.st58{fill:#A0908B;}
	.st59{fill:#F7F7F7;}
	.st60{fill:#E8CB5B;}
	.st61{fill:#8F563E;}
	.st62{fill:#513224;}
	.st63{fill:#080705;}
	.st64{fill:#FCFCFB;}
	.st65{fill:#F9F8F8;}
	.st66{fill:#FAF0EC;}
	.st67{fill:#9F908A;}
	.st68{fill:#91573E;}
	.st69{fill:#070704;}
	.st70{fill:#F5FC96;}
	.st71{fill:#9C9C53;}
	.st72{fill:#9A9A52;}
	.st73{fill:#F2F994;}
	.st74{fill:#A17628;}
	.st75{fill:#90573F;}
	.st76{fill:#090806;}
	.st77{fill:#523123;}
	.st78{fill:#7C4031;}
	.st79{fill:#ED866D;}
	.st80{fill:#F3E9E6;}
	.st81{fill:#4F3023;}
	.st82{fill:#060606;}
	.st83{fill:#89533B;}
	.st84{fill:#050403;}
	.st85{fill:#090909;}
	.st86{fill:#EDCF5E;}
	.st87{fill:#050504;}
	.st88{fill:#060504;}
	.st89{fill:#955A41;}
	.st90{fill:#080703;}
	.st91{fill:#090807;}
	.st92{fill:#070603;}
	.st93{fill:#0A0905;}
	.st94{fill:#937335;}
	.st95{fill:#955A40;}
	.st96{fill:#955940;}
	.st97{fill:#EDD05E;}
	.st98{fill:#8F7032;}
	.st99{fill:#945940;}
	.st100{fill:#EED05E;}
	.st101{fill:#503123;}
	.st102{fill:#EEEEEE;}
	.st103{fill:#0D0C0A;}
	.st104{fill:#E3C659;}
	.st105{fill:#967535;}
	.st106{fill:#9D7D38;}
	.st107{fill:#745A29;}
	.st108{fill:#847334;}
	.st109{fill:#907134;}
	.st110{fill:#E5C85B;}
	.st111{fill:#503124;}
	.st112{fill:#927133;}
	.st113{fill:#E0DDD4;}
	.st114{fill:#987836;}
	.st115{fill:#977636;}
	.st116{fill:#CCC4A4;}
	.st117{fill:#523224;}
	.st118{fill:#0B0908;}
	.st119{fill:#8F7135;}
	.st120{fill:#050404;}
	.st121{fill:#EDD05D;}
	.st122{fill:#F3FA94;}
	.st123{fill:#9A9A51;}
	.st124{fill:#999951;}
	.st125{fill:#937334;}
	.st126{fill:#FAF0EE;}
	.st127{fill:#F3FA95;}
	.st128{fill:#989851;}
	.st129{fill:#A2792A;}
	.st130{fill:#F1F893;}
	.st131{fill:#A17729;}
	.st132{fill:#050502;}
	.st133{fill:#947335;}
	.st134{fill:#917233;}
	.st135{fill:#9B9B52;}
	.st136{fill:#F9EFEC;}
	.st137{fill:#9A782F;}
	.st138{fill:#979752;}
	.st139{fill:#F2F893;}
	.st140{fill:#8C8E4F;}
	.st141{fill:#B5B96E;}
	.st142{fill:#0F0F09;}
	.st143{fill:#9C9C52;}
	.st144{fill:#F5FB95;}
	.st145{fill:#F3F994;}
	.st146{fill:#A17728;}
	.st147{fill:#917134;}
	.st148{fill:#090706;}
	.st149{fill:#8E6F32;}
	.st150{fill:#93593F;}
	.st151{fill:#907033;}
	.st152{fill:#060505;}
	.st153{fill:#C8C3AF;}
	.st154{fill:#533324;}
	.st155{fill:#533426;}
	.st156{fill:#0E0C0A;}
	.st157{fill:#907133;}
	.st158{fill:#583627;}
	.st159{fill:#0A0907;}
	.st160{fill:#573526;}
	.st161{fill:#0C0B09;}
	.st162{fill:#503023;}
	.st163{fill:#543325;}
	.st164{fill:#B7B3A1;}
</style>
<g>
	<path class="st0" d="M700.8,730.2c4-0.4,7.9-1.2,11.8-1.2c10.8-0.1,16.5,6.9,14.9,17.6c-0.9,5.6-3.5,10.7-5,16.1
		c13.4,1.6,17,5.1,19.1,18.6c1.4,9.3-0.6,18.2-3.9,26.9c-9.2,23.9-23,45-40,64c-31.7,35.2-68,64.5-111.8,83.1
		c-35.9,15.2-73.5,25.5-112.9,24.5c-36.9-0.9-73.9-3.9-109.1-16.7c-20.8-7.6-39.4-19-55.6-33.7c-7.3-6.7-14.1-13.7-22.9-18.6
		c-3.5-1.9-6.6-4.6-9.2-7.6c-6.1-7.1-5.9-14.1,0.7-20.7c-2-1.1-4.1-2.2-6.1-3.4c-10.5-6.5-13.1-18.4-5.9-28.4
		c5.4-7.4,11.3-14.4,17.2-21.4c1.6-1.9,1.9-3.5,1-5.8c-2.9-7.6-5.4-15.4-7.1-23.4c-0.3-1.3-0.8-2.5-1.8-3.4
		c-2.8-2.6-4.9-5.3-0.8-8.6c1-0.8,0-2.2-0.1-3.3c-0.3-4.6-0.8-9.3-1-13.9c-0.2-5.5-0.1-5.5-5.6-3.8c-0.6,0.2-1.3,0.4-1.9,0.6
		c-7.4,2.1-10.2,0.4-11.7-7.1c-2.3-11.1-3.8-22.3-4.9-33.6c-0.6-5.6-2.1-10.2-5.2-15.1c-18-28.3-30.6-58.8-37.1-92
		c-6.6-33.4-10.8-67.1-11.4-101.1c-0.5-28.7,2.5-57.2,6.7-85.6c7.4-50.1,23.3-97.6,45-143.2c10.5-22.1,23-43.2,37.8-62.7
		c7.7-10.1,16.5-19.2,26.5-27.1c6.4-5.1,13.5-9.1,21.2-12c13.1-4.8,24.4-1.2,32.4,10.2c7.1,10.2,10.1,22,13,33.8
		c6.8,27.7,10.1,56,13,84.3c4.4,43.7,8.3,87.6,18.2,130.5c8.1,35.2,18.6,69.7,36.3,101.7c2.8,5.1,5.3,5,10,5.1c7.5,0,10.4-3.7,13-10
		c14.5-35.8,36.4-67.6,55.6-100.9c36.1-62.5,79.3-120,123.9-176.4c23.2-29.4,48.6-57.2,79.7-78.8c9.2-6.4,18.3-12.8,28.3-17.8
		c6.9-3.5,14.2-5.6,22-6c13.7-0.7,23.8,4.9,30.6,16.7c8.1,13.9,11.6,29.3,14.4,44.9c5.9,32.3,4.8,64.7,1.3,97.1
		c-6.4,59.8-16.5,119-26.4,178.3c-9.3,55.2-24.8,108.6-47.9,159.7c-11.2,24.8-25.8,47.4-45.7,66.2c-0.8,0.8-1.6,1.7-2.4,2.5
		C700.8,729.3,700.9,729.7,700.8,730.2z M320.1,769.2c3,1,5.6,0.7,7.4-2.2c1.3-2.2,0.9-4.5-0.6-6.5c-1.7-2.3-4.2-2.5-6.7-2.4
		c-1.5-1.3-1.5-1.3-2.1,0.9c-0.3,0.3-0.5,0.6-0.8,0.9c-3.2,0.5-4.4,3.3-5.5,5.7c-1.1,2.3-0.2,5,1.2,6.9c1.2,1.7,4,1.9,5.9,1.4
		C321,773.3,319.5,770.8,320.1,769.2z M311.1,752.1c-8.5,1.7-16.1,6.2-24.5,8.1c-4.8,1.1-6.4,3.4-4.3,8c-0.5,6.2,1.3,12.2,1.1,18.4
		c-0.1,5.9,3.1,7.5,8.2,8c2.8,0.3,3.2-0.4,3.4-3c0.6-11.3,3.4-22,9.7-31.5C306.8,757.3,308.9,754.6,311.1,752.1
		c0.1-0.1,0.2-0.2,0.4-0.2c0.1,0,0-0.2,0.1-0.3C311.4,751.7,311.2,751.9,311.1,752.1z M380.9,854.1c-13.1-3.4-19.8-0.4-22.7,9.8
		c0,2.9-1.6,6.6,3.4,7.2c7,0.8,17.3-4.5,20.5-10.7C383.4,858,383.9,855.7,380.9,854.1z M369.8,826.8c-14.1,4-25.5-0.5-34.6-11.4
		c-4.8-5.8-8.5-12.2-11.3-19.3c-0.5-1.3,0-4.1-2.4-3.6c-1.8,0.4-3.3,2.4-3.5,4.5c-0.2,1.6,0,3.4,0.5,4.9c3,10.2,8.3,18.9,16.6,25.5
		c8.8,7,24.9,9.9,35.3,0c0.4-0.3,1.5-0.3,1.1-1.1C371.1,825.7,370.3,826.2,369.8,826.8z M316,857c2.1,0.8,3.7,2.2,5.2,3.8
		c5.2,5.4,11.3,8.4,18.9,8.9c4.8,0.3,8.8,0.7,8.8-6c0-1.7,1.2-3.4,2-5c4.2-8.5,11.4-13.6,19.7-17.5c3.4-1.6,3.4-1.7,1.5-5.1
		c-13.5,7.6-26.8,6.5-39.6-1.5c-8.4-5.3-13.3-13.8-17.4-22.6c-4.4-9.4-4.7-18.2,3.7-25.8c3.5-3.1,1.8-4.1-1.7-5
		c-3.8-1-8.6-0.1-10.8-5.3c-2.9,7-3.8,13.9-2.8,20.9c0.5,3.7-0.3,6.2-3.9,7.6c-4.4,0.1-8.8-0.2-13.6-1c1,3.7,1.7,6.9,2.7,10.1
		c5.1,15.9,12.7,31,14.6,47.8c0.2,13,0.9,26,0.5,38.9c-0.3,10.1,3.8,17.3,11.7,22.8c18,12.3,36.2,24.1,57.2,31.2
		c20.5,7,41.8,9.4,63.2,11.7c16.1,1.7,32.1,3.5,48.3,2.5c29.5-1.9,58-8.8,85.4-19.1c51.3-19.2,92.6-52.6,127.2-94.5
		c7.2-8.7,14.2-17.7,18.6-28.3c5.4-7.2,8.2-15.7,11.7-23.9c2.2-5.3,3.3-10.8,3.1-16.5c-0.5-11.5-3.1-13.3-14-9.4
		c-0.1,0-0.2,0.2-0.3,0.4c-2.4-0.6-3.6,1.1-5.1,2.4c-3.5,3.3-7.3,6.2-11.7,8.3c-2.8,1.4-5.8,2.3-7.5-1.7c0.2-4.7,4.2-6.6,7.1-9
		c10.1-8.5,14.3-20.1,17.7-32.2c0.9-3.1-0.6-4.8-3.8-4.8c-1.6,0-3.3-0.2-4.8,0.9c-2.3-0.2-4.4,0.4-6.6,1.1
		c-10.6,3.5-20.6,8.9-32.1,9.5c-3.5-2.3-3.1-4.8-0.2-7.2c1.4-1.2,2.8-2.6,4.5-3.1c6.6-1.9,8-6.6,7.4-12.6c-0.5-4.7,1.8-7.1,6.3-7.9
		c5.6-1,9.8-4.1,13.8-8.3c16.2-17,28.3-36.6,37.8-57.8c21.7-48.4,36.9-98.9,45.8-151c10.6-62.2,21.3-124.4,27.7-187.2
		c3.2-31.2,3.8-62.5-2.5-93.6c-2.6-12.8-5.6-25.4-12.3-36.7c-5.4-9.2-13.2-12.6-23.7-10.7c-7.3,1.3-14,4.3-20.3,8.2
		c-21.9,13.3-41.8,29.1-59.7,47.4c-31.6,32.4-58.2,68.9-85.5,104.9c-43.3,57.1-79.7,118.5-115.2,180.5c-7.9,13.8-15.3,28-19.2,43.6
		c-0.6,2.3-2.5,3.5-4.8,3.9c-1.8,0.3-3.7,0.2-5.5,0.3c-20.3,0.1-40.3,2.2-59.1,10.5c-33.7,15-60.1,39.1-82.9,67.5
		c-2.1,2.6-4.7,5.1-4.6,8.9c-0.2,0-0.4,0-0.7,0c0,0.1,0,0.3,0,0.4c0.2-0.2,0.4-0.4,0.5-0.5c5.4-1.2,10.9-2.6,16.4-3.7
		c8.4-1.7,11.3-0.1,14.7,7.7c3.1,18.3,6,36.6,9.3,54.9c3.3,18.6,2.2,20.9-15.1,28.3c-2.8,1.2-6,2-8.9,4.7c4.5-0.4,8,0.5,11.6,1.2
		c10.8,4.6,18.2,12.6,23.2,22.9c10.4,21.3,13.7,43.8,11,67.3c-0.2,1.7-0.8,3.5,2.1,2.7c7.3-2.1,14.7-2,22.1-2c1,1.2,2.6,2.3,1.5,4.2
		c-1.1,1.9-3,1.8-4.8,1.9c-7.6,0.2-15,1.6-22.5,5.2c9.9,2.3,11.2,4.2,11.6,15.7c-6.3,8.6-14.3,14.3-25,15.7
		c-5.7,0.8-5.7,0.8-3.6,6.5c0.1,0.3,0.3,0.6,0.5,0.8c2.4,6.7,5.9,12.8,10.1,18.5c1,1.4,3,2.8,1.2,4.6c-2,1.9-3.7,0.1-5-1.2
		c-5.1-5-9.3-10.8-12.6-17.1c-1.5-3.7-3.1-7.3-4.4-11.1c-0.6-1.9-1.1-2.4-3.4-2c-9.3,1.7-18.2,0.5-25.8-5.8c-2.9-3.2-6.1-6.2-8.3-10
		C312.8,858.8,313.9,857.5,316,857z M309.1,649c3.4-3.8,4-7.2,0-11.3c-3.3-3.4-4-8.3-4.2-13c-0.3-6,1.2-11.7,3-17.4
		c-2.2,0-4,0-5.9,0c-10.2-0.1-18-6.4-19.7-16.3c-0.7-3.9-0.8-7.9-0.7-11.9c0.5-11.5,3.2-22.6,6.3-33.6c-12.8-1.5-22.1-11-21.1-24.6
		c0.5-7.6,2.5-14.7,5-21.8c9.2-25.4,23.3-48.1,38.8-70c1.8-2.5,3.1-5.1,3.4-8.1c1-10.2,2.1-20.5,3-30.7c1.3-15.2,2.3-30.5,3.8-45.7
		c1.9-18.7,4.2-37.4,3.1-56.2c-0.5-7.7-0.7-15.7-3.9-23c-2.3-5.3-5.1-6.4-10.2-3.8c-3.2,1.7-6.5,3.3-8.8,6.4c-1.1,0-1.7,0.6-2.4,1.4
		c-18.7,19.6-31.7,42.9-43,67.3c-18.1,39.2-29,80.2-31.1,123.2c-1.8,37.1-0.7,74.2,5.8,110.9c6,33.6,14.7,66.4,28.6,97.7
		c1.3,2.9,2.4,3.4,5.3,2c12.3-5.9,25.2-10.4,38.2-14.2C306.5,655.1,308.8,653.1,309.1,649z M425.8,538.9c-0.7-2.2-1.3-4.4-2.2-6.5
		C411.3,504.3,402.5,475,396,445c-9.6-44.2-13.3-89.2-18.1-134.1c-2.9-26.8-6.2-53.6-13-79.8c-2.4-9.4-4.9-18.7-10.7-26.7
		c-4.8-6.5-10.4-8.3-18-5.6c-7,2.4-13.3,6.1-19.1,10.7c-13.5,10.8-24.4,24.1-33.8,38.5c-21.1,32.2-37.1,66.8-49.9,103.1
		c-15.2,43.1-23.6,87.4-27,132.7c-2.9,39.4,0.4,78.5,7,117.4c5.5,32,13.6,63.1,30.2,91.5c0.5,0.8,0.3,2.5,2.1,2.2c0-1,0-2,0-3
		c-0.2-7.3-1.1-15,8.7-17.3c2.2-0.5,0.8-2.1,0.3-3.1c-2.6-5.6-5.6-11-7.8-16.7c-18.9-49.9-28.4-101.7-28.8-155.1
		c-0.3-31,1.3-61.8,7.9-92.3c9-42,24.1-81.5,47.8-117.5c7.6-11.5,15.7-22.8,27.4-30.8c13.8-9.4,23.1-5.8,26.6,10.6
		c0.1,0.6,0.2,1.3,0.3,2c2.8,14.5,2.9,29.2,1.8,43.8c-2.1,27.9-5.6,55.6-7.4,83.5c-1.2,18.3-6.7,34.1-17.5,49.1
		c-13.5,18.8-24.1,39.5-30,62.1c-4.5,17.3-1.8,22.6,14.8,30c0.8-2,1.7-4,2.5-6c4.1-9.7,8.8-19,16.4-26.6c1.4-1.4,2.9-4.1,5.3-1.8
		c2.1,2-0.4,3.6-1.4,5c-15.5,20.8-22.9,44.5-23.5,70.3c-0.3,13.8,4.3,18,18.1,18.6c3,0.1,4-0.8,5.1-3.3c2.4-5.5,5.4-10.7,8.8-15.6
		c1.1-1.6,2.1-4,4.5-2.9c2.9,1.3,1.1,3.8,0.4,5.6c-3.7,8.7-7.8,17.3-11.3,26.1c-2.6,6.5-4.5,13.3-2.5,20.4c0.7,2.4,1.3,5.7,3.5,6.3
		c2.4,0.8,3-2.8,4.6-4.4c14.8-16.2,29.9-32.2,48.1-44.8c16.9-11.7,34-22.8,54.2-28c4.4-1.1,8.9-2,13.8-3.1
		C432,550.5,430.1,544,425.8,538.9z M350.2,720c-3-19.5-5.9-39.1-8.9-58.6c-1.3-8.4-1.6-8.7-9.8-6.5c-26,6.9-51.6,15-75.8,27.2
		c-2.2,1.1-2.5,2.4-2.4,4.6c0.8,23.1,3.9,46,7.3,68.9c0.5,3.3,1.4,4,4.7,2.9c18.2-6.3,36.6-12.2,54.3-19.9c9.3-4,18.7-7.8,27.5-13
		C349.2,724.3,350.7,722.8,350.2,720z M288.3,835.8c-5.3,6.9-10.5,13.4-15.4,20.1c-4.2,5.7-3.4,11.3,2.1,15.8c3,2.4,6.4,4.2,9.7,6.2
		c4.5,2.8,4.9,6,0.9,9.4c-5.7,5-5.7,6.9,0.1,11.8c2.4,2,4.9,3.7,8.3,6.1c-0.8-16.4,1.5-31.6,1.1-46.8
		C295,850.4,292,843.3,288.3,835.8z M355.1,820c2.4-0.6,5.7-1,5.6-4.3c0-3.3-2.8-4.7-6-4.7c-3,0-4.7,1.6-4.7,4.6
		C350,818.7,351.9,819.9,355.1,820z"/>
	<path class="st1" d="M348.1,655c-3.4-7.8-6.3-9.4-14.7-7.7c-5.5,1.1-10.9,2.5-16.4,3.7c0,0,0.1,0.1,0.1,0.1
		c-0.1-3.8,2.5-6.3,4.6-8.9c22.8-28.4,49.2-52.5,82.9-67.5c18.8-8.4,38.8-10.4,59.1-10.5c1.8,0,3.7,0,5.5-0.3
		c2.3-0.3,4.2-1.6,4.8-3.9c4-15.6,11.4-29.8,19.2-43.6c35.6-62,71.9-123.4,115.2-180.5c27.3-36,53.8-72.5,85.5-104.9
		c17.9-18.4,37.8-34.1,59.7-47.4c6.3-3.8,12.9-6.8,20.3-8.2c10.5-1.9,18.3,1.5,23.7,10.7c6.7,11.4,9.7,24,12.3,36.7
		c6.3,31,5.7,62.4,2.5,93.6c-6.4,62.8-17.1,125-27.7,187.2c-8.9,52.2-24.1,102.7-45.8,151c-9.5,21.2-21.6,40.9-37.8,57.8
		c-3.9,4.1-8.1,7.3-13.8,8.3c-4.5,0.8-6.8,3.3-6.3,7.9c0.6,6-0.8,10.7-7.4,12.6c-1.7,0.5-3.1,1.9-4.5,3.1c-2.9,2.4-3.3,4.9,0.2,7.2
		c-24.8,12.1-46,29.6-67.7,46.3c-15.8,12.2-29.8,26.4-44.3,40.1c-1.2-5-2.4-5.4-7.3-2.6c1-9.6,2.2-19.1,3-28.7
		c1.2-15.9-1-31.5-5-46.9c6.6,0.2,25.1-12.5,27-18.6c0.5-1.5,0.7-3.1-0.7-4.1c-1.8-1.3-3.5-0.6-4.9,0.7c-4.2,3.8-9.3,6.5-14,9.6
		c-1.9,1.3-3,1.5-4-1.1c-3.1-8.1-8.6-14.6-14.8-20.5c2.2-0.2,4.3,0.2,6.4,0.7c7.3,1.6,14.5,3.9,22.1,3.5c3.9-0.2,6.3-1.8,7.2-5.6
		c0.9-3.9,1.6-7.8,2.3-11.7c4.2-22.2,8.6-44.3,12.6-66.6c1.9-10.7,1.1-11.3-11-11.4c0.3-4.1,0.5-8.3,0.7-12.4
		c0.2-3.6-1.4-5.7-5.2-5.7c-1.7,0-3.3,0.1-5,0.2c-37.8,3.4-75.5,7.2-113.3,9.8c-3.3,0.2-4.6,1.3-4.6,4.8c0.1,23.5,0.1,47,0,70.5
		c0,3.4,1,5.8,4.3,7c-0.2,3.7,2.3,5.1,5.3,6.2c3.2,1.3,6.8,0.9,9.8,2.9c-6,3.9-11.5,8.3-16.1,14c-20.8,25.5-23.7,54.7-18.6,85.8
		c1.7,10.4,5.6,20.1,8.8,30c-3-0.6-4.1-3.5-6.4-5.1c-9.8-6.9-20.7-8.9-32.4-7.7c-7.4,0-14.9-0.1-22.1,2c-2.9,0.8-2.3-1-2.1-2.7
		c2.7-23.5-0.6-46-11-67.3c-5.1-10.3-12.5-18.4-23.2-22.9c3.5-3.1,8-4.6,12.1-6.6c5-2.4,7.5-5.7,7.2-11.7c-1-21.7-2.9-43.2-7.4-64.5
		C355.8,656.2,353.1,654.2,348.1,655z M671.9,692.2c-0.4,1.8-1.2,3.6,0.9,4.9c1.9,1.1,3.5,0,5-1.1c5.4-3.9,9.5-8.9,13.1-14.3
		c26.3-38.8,46.3-80.8,62-124.9C766,520.2,773.3,482,780.8,444c11.3-57.9,18.1-116.2,14.3-175.3c-0.7-11.1-1.5-22.3-6-32.8
		c-5.6-13.2-16.2-16.9-28.9-10.1c-2.2,1.2-4.3,2.5-6.4,4c-8.2,5.8-15.6,12.6-22.9,19.4c-13.2,12.3-24.9,26-35.5,40.6
		c-1.5,2.1-3.4,4.4-1.9,7.3c1.5,3,4.3,3.2,7.3,3.3c2.3,0,4.8,0,6.9,0.8c9.2,3.5,18.8,6.5,20.7,18.5c0.9,6.1-1.4,11.1-4.2,16.1
		c-7,12.5-17.5,21.7-28.9,30c-1.6,1.2-3.2,2.5-4.5,3.9c-1.3,1.5-1.3,3.4-0.1,5.1c1.1,1.6,2.8,1.9,4.5,1.4c1.4-0.4,2.8-1.1,3.9-2.1
		c2.6-2.4,5.1-2.5,8-0.5c1.6,1.1,3.6,1.8,5.3,2.9c10.3,6.2,12.2,10.7,9.6,22.4c-5.1,23.4-19.8,39.4-39.5,51.6
		c-12.4,7.6-25.8,12.3-39.9,15.4c-3,0.7-5.5,2.3-4.6,5.9c0.8,3.3,3.6,3.6,6.4,3.3c5.6-0.7,11.5-1,16.6-3.5
		c6.6-3.2,10.2-0.8,14.1,4.4c4.3,5.7,6,11.4,3,18.1c-1.2,2.7-2.3,5.5-3.8,8.1c-13.5,23.9-33.3,41.3-56.6,55.2
		c-22.5,13.4-47.4,19.9-72.5,25.9c-2.2,0.5-5.3,0.5-5.1,3.6c0.3,3.3,3.4,3.2,5.9,3c3.8-0.3,7.8-0.4,11.3-1.6
		c6.5-2.4,12-0.6,17.5,2.5c3,1.7,6.1,3.5,8.9,5.6c12.7,9.7,24.7,20.4,34.8,32.8c4.6,5.7,9,11.6,13.5,17.3c1,1.3,2.1,2.7,4.1,2.4
		c1.9-0.4,1.9-2,2-3.5c9.5,11.3,18.4,23,26.1,35.6C666.7,684.6,668.6,688.9,671.9,692.2z"/>
	<path class="st2" d="M557.2,838.1c14.5-13.7,28.5-27.9,44.3-40.1c21.7-16.7,42.9-34.2,67.7-46.3c11.4-0.7,21.5-6.1,32.1-9.5
		c2.2-0.7,4.3-1.3,6.6-1.1c-4.9,13.6-10.1,26.9-19.7,38.2c-3.3,3.8-1.7,6.3,3.5,6.9c1.7,4,4.7,3,7.5,1.7c4.3-2.1,8.1-5.1,11.7-8.3
		c1.4-1.4,2.7-3,5.1-2.4c5.2,14.2,4.5,28.4,0.2,42.7c-0.6,2-1.9,4.3-0.6,6.7c-4.4,10.6-11.4,19.6-18.6,28.3
		c-34.6,41.9-75.9,75.2-127.2,94.5c-27.4,10.3-56,17.2-85.4,19.1c-16.2,1-32.3-0.7-48.3-2.5c-21.3-2.3-42.6-4.7-63.2-11.7
		c-20.9-7.1-39.2-18.9-57.2-31.2c-7.9-5.4-12-12.7-11.7-22.8c0.4-13-0.3-26-0.5-38.9c3.1-2,6.3-1.3,9.4-0.1c2.2,3.8,5.3,6.8,8.3,10
		c-0.7,0.4-1.3,1-2.1,1.3c-3.5,1.4-6.7,3-7.2,7.3c-0.6,5,2.2,7.9,6.1,9.9c12.1,6.1,24.4,8.7,36.7,0.3c3.3,6.3,7.5,12,12.6,17.1
		c1.4,1.4,3.1,3.2,5,1.2c1.8-1.8-0.2-3.2-1.2-4.6c-4.1-5.8-7.7-11.8-10.1-18.5c11.4,1.8,19.7-4,27.1-11.6c3.7-3.9,3.9-8.5,1-11.4
		c-0.4-11.5-1.7-13.4-11.6-15.7c7.6-3.6,14.9-5,22.5-5.2c1.8,0,3.8,0,4.8-1.9c1.1-1.9-0.5-3-1.5-4.2c11.7-1.2,22.6,0.8,32.4,7.7
		c2.3,1.6,3.4,4.5,6.4,5.1c0,0-0.1,0-0.1,0c-0.4,1.2,0,1.9,1.3,2.2c1.3,5.6,5.1,9.9,8.3,14.3c7.6,10.5,17.8,17.3,30.6,19.8
		c12.6,2.5,24.8,0.4,36.6-4c-0.1,7.3,2.2,10.4,10.7,13.4c11.5,4.1,23.4,4.2,35.4,2.9c7-0.8,13.7-2.6,19.5-6.9
		c3.7-2.7,6.1-6.3,5.5-11.1c-0.6-4.5-4.1-6.8-7.8-8.3c-8.2-3.3-16.6-3.9-25.4-2.8c-8.8,1.1-17.1,3.6-25.7,5.6
		C542.5,863.4,551.5,852,557.2,838.1z M425.1,933.4c12.2-0.2,22.3-4.4,31.6-11c3.7-2.7,6.5-6.2,8.5-10.3c2.2-4.4,1.6-12.3-1.4-14.6
		c-4.1-3.3-8.4-1.4-12,1c-10.1,6.7-21.4,9.5-33.1,11.5c-6.6,1.2-9.6,5-9.8,13.4c-0.1,5,4.5,8.8,10.9,9.6
		C421.8,933.3,423.8,933.3,425.1,933.4z"/>
	<path class="st15" d="M320.3,632.2c-1.6,1.5-2.2,5.1-4.6,4.4c-2.1-0.7-2.8-3.9-3.5-6.3c-2-7.2-0.1-13.9,2.5-20.4
		c3.6-8.8,7.6-17.4,11.3-26.1c0.8-1.8,2.6-4.2-0.4-5.6c-2.4-1.1-3.4,1.3-4.5,2.9c-3.4,4.9-6.5,10.1-8.8,15.6c-1,2.4-2.1,3.4-5.1,3.3
		c-13.9-0.7-18.5-4.9-18.1-18.6c0.6-25.8,8-49.4,23.5-70.3c1.1-1.4,3.6-3,1.4-5c-2.4-2.3-3.9,0.4-5.3,1.8
		c-7.6,7.5-12.3,16.9-16.4,26.6c-0.8,2-1.7,4-2.5,6c-16.6-7.4-19.3-12.7-14.8-30c5.9-22.6,16.5-43.3,30-62.1
		c10.8-15,16.3-30.8,17.5-49.1c1.8-27.9,5.4-55.6,7.4-83.5c1.1-14.6,0.9-29.3-1.8-43.8c-0.1-0.7-0.1-1.3-0.3-2
		c-3.5-16.4-12.8-20-26.6-10.6c-11.7,8-19.8,19.2-27.4,30.8c-23.7,36-38.8,75.5-47.8,117.5c-6.5,30.4-8.2,61.3-7.9,92.3
		c0.5,53.4,9.9,105.1,28.8,155.1c2.2,5.7,5.2,11.1,7.8,16.7c0.5,1,1.9,2.5-0.3,3.1c-9.8,2.4-8.9,10-8.7,17.3c0,1,0,2,0,3
		c-1.8,0.3-1.6-1.4-2.1-2.2c-16.6-28.3-24.7-59.5-30.2-91.5c-6.7-38.9-10-78-7-117.4c3.4-45.3,11.8-89.6,27-132.7
		c12.8-36.3,28.9-70.9,49.9-103.1c9.4-14.4,20.3-27.7,33.8-38.5c5.8-4.6,12.1-8.3,19.1-10.7c7.6-2.7,13.2-0.9,18,5.6
		c5.8,8,8.3,17.3,10.7,26.7c6.8,26.2,10.1,53,13,79.8c4.8,44.9,8.5,89.9,18.1,134.1c6.5,30,15.3,59.3,27.6,87.4
		c0.9,2.1,1.5,4.3,2.2,6.5c-5.7,0.9-10.4,4.3-15.2,7.1c-20.4,11.5-38.6,26-55.7,41.9c-11.6,10.7-23,21.7-32.5,34.4
		C320.2,625.2,317.6,628.2,320.3,632.2z"/>
	<path class="st2" d="M309.1,649c-0.3,4.1-2.6,6-6.6,7.2c-13.1,3.9-25.9,8.3-38.2,14.2c-2.9,1.4-4,0.9-5.3-2
		c-14-31.3-22.6-64.1-28.6-97.7c-6.6-36.7-7.6-73.8-5.8-110.9c2.1-43,13-84.1,31.1-123.2c11.3-24.4,24.3-47.6,43-67.3
		c0.7-0.8,1.3-1.4,2.4-1.4c7.9,1.3,10.8,6.9,12,14c1.5,9.4,2.6,18.7,3.2,28.2c0.8,12.8,2,25.7,0.6,38.4c-2.6,25-4.1,50.2-7.7,75.2
		c-0.4,2.6-0.8,5.3-2.6,7.4c-11.4,13.2-20.7,27.7-28.6,43.2c-7.1,14-15.9,27.4-18.3,43.5c-2,13.2,0.3,28,17.5,32.1
		c2.9,0.7,2.9,2.1,2.5,4.7c-2,12.8-3.6,25.6-3.6,38.6c-0.1,13.5,5.6,21.8,18.3,22.7c2.5,0.2,3.1,1.4,2.8,3.5c-0.2,1.5-0.4,3-0.5,4.5
		C295.9,633.4,300.7,645.8,309.1,649z"/>
	<path class="st4" d="M350.2,720c0.5,2.8-1,4.2-3.2,5.6c-8.7,5.2-18.2,9-27.5,13c-17.7,7.7-36.1,13.5-54.3,19.9
		c-3.3,1.1-4.2,0.4-4.7-2.9c-3.5-22.9-6.5-45.8-7.3-68.9c-0.1-2.2,0.2-3.5,2.4-4.6c24.1-12.2,49.8-20.3,75.8-27.2
		c8.2-2.2,8.4-1.9,9.8,6.5C344.3,680.9,347.2,700.5,350.2,720z"/>
	<path class="st53" d="M309.1,649c-8.4-3.2-13.2-15.6-12.6-25.2c0.1-1.5,0.3-3,0.5-4.5c0.3-2.2-0.2-3.4-2.8-3.5
		c-12.7-0.9-18.4-9.2-18.3-22.7c0.1-13,1.7-25.8,3.6-38.6c0.4-2.6,0.4-4-2.5-4.7c-17.2-4.1-19.5-18.9-17.5-32.1
		c2.4-16,11.2-29.4,18.3-43.5c7.8-15.5,17.2-30,28.6-43.2c1.8-2.1,2.3-4.7,2.6-7.4c3.6-24.9,5-50.1,7.7-75.2
		c1.3-12.7,0.2-25.6-0.6-38.4c-0.6-9.5-1.7-18.9-3.2-28.2c-1.1-7.1-4.1-12.6-12-14c2.2-3.1,5.5-4.7,8.8-6.4c5.1-2.6,8-1.6,10.2,3.8
		c3.1,7.3,3.4,15.2,3.9,23c1.1,18.8-1.2,37.5-3.1,56.2c-1.5,15.2-2.5,30.5-3.8,45.7c-0.9,10.3-1.9,20.5-3,30.7
		c-0.3,3-1.6,5.6-3.4,8.1c-15.5,21.9-29.6,44.6-38.8,70c-2.5,7-4.5,14.1-5,21.8c-0.9,13.6,8.3,23,21.1,24.6
		c-3.1,11-5.8,22.1-6.3,33.6c-0.2,4,0,8,0.7,11.9c1.8,10,9.6,16.2,19.7,16.3c1.8,0,3.6,0,5.9,0c-1.8,5.7-3.3,11.4-3,17.4
		c0.2,4.7,0.9,9.6,4.2,13C313.1,641.8,312.5,645.2,309.1,649z"/>
	<path class="st54" d="M299.7,804.2c3.5-1.4,4.4-3.9,3.9-7.6c-1-7-0.1-13.9,2.8-20.9c2.2,5.2,7,4.2,10.8,5.3c3.5,1,5.2,1.9,1.7,5
		c-8.5,7.5-8.1,16.3-3.7,25.8c4.1,8.9,8.9,17.3,17.4,22.6c12.8,8.1,26.1,9.1,39.6,1.5c1.9,3.4,2,3.5-1.5,5.1
		c-8.3,3.9-15.5,9-19.7,17.5c-0.8,1.6-2,3.4-2,5c0,6.7-3.9,6.3-8.8,6c-7.6-0.5-13.7-3.5-18.9-8.9c-1.5-1.6-3.1-3-5.2-3.8
		C305.3,841,299.5,823.6,299.7,804.2z"/>
	<path class="st31" d="M320.3,632.2c-2.7-4-0.1-7,2.1-9.9c9.5-12.7,21-23.7,32.5-34.4c17.1-15.9,35.3-30.4,55.7-41.9
		c4.9-2.7,9.5-6.1,15.2-7.1c4.3,5.1,6.2,11.6,10.6,17.3c-5,1.1-9.4,2-13.8,3.1c-20.2,5.2-37.4,16.3-54.2,28
		C350.2,600,335.1,615.9,320.3,632.2z"/>
	<path class="st15" d="M288.3,835.8c3.7,7.5,6.6,14.6,6.8,22.5c0.4,15.3-2,30.4-1.1,46.8c-3.3-2.5-5.9-4.2-8.3-6.1
		c-5.9-4.9-5.8-6.8-0.1-11.8c4-3.5,3.7-6.7-0.9-9.4c-3.3-2-6.7-3.8-9.7-6.2c-5.6-4.4-6.3-10-2.1-15.8
		C277.9,849.2,283,842.8,288.3,835.8z"/>
	<path class="st31" d="M348.1,655c5-0.8,7.7,1.2,8.8,6.3c4.5,21.3,6.4,42.8,7.4,64.5c0.3,5.9-2.2,9.2-7.2,11.7
		c-4.1,2-8.6,3.5-12.1,6.6c-3.6-0.7-7.1-1.6-11.6-1.2c2.9-2.7,6.1-3.5,8.9-4.7c17.3-7.4,18.4-9.6,15.1-28.3
		C354.1,691.6,351.2,673.3,348.1,655z"/>
	<path class="st55" d="M354.7,889.9c-12.3,8.4-24.6,5.9-36.7-0.3c-3.9-2-6.7-4.9-6.1-9.9c0.5-4.4,3.7-5.9,7.2-7.3
		c0.7-0.3,1.4-0.9,2.1-1.3c7.6,6.3,16.5,7.4,25.8,5.8c2.2-0.4,2.7,0.1,3.4,2C351.6,882.6,353.3,886.2,354.7,889.9z"/>
	<path class="st15" d="M299.7,804.2c-0.3,19.4,5.6,36.8,16.3,52.8c-2.1,0.5-3.2,1.9-3.1,4.1c-3.2-1.2-6.3-2-9.4,0.1
		c-2-16.8-9.5-31.9-14.6-47.8c-1-3.1-1.7-6.4-2.7-10.1C290.9,804,295.3,804.3,299.7,804.2z"/>
	<path class="st17" d="M370.4,827.4c-10.4,9.9-26.5,7-35.3,0c-8.3-6.6-13.6-15.4-16.6-25.5c-0.5-1.6-0.6-3.3-0.5-4.9
		c0.2-2.1,1.7-4.1,3.5-4.5c2.3-0.5,1.8,2.3,2.4,3.6c2.8,7,6.5,13.5,11.3,19.3c9.1,10.9,20.5,15.5,34.6,11.4
		C370,827,370.2,827.2,370.4,827.4z"/>
	<path class="st53" d="M691.8,786.1c-5.2-0.6-6.8-3.1-3.5-6.9c9.6-11.2,14.8-24.6,19.7-38.2c1.5-1.1,3.2-0.9,4.8-0.9
		c3.3,0,4.7,1.6,3.8,4.8c-3.4,12.1-7.5,23.7-17.7,32.2C696,779.5,691.9,781.4,691.8,786.1z"/>
	<path class="st15" d="M304.8,760c-6.3,9.6-9.1,20.2-9.7,31.5c-0.1,2.6-0.6,3.3-3.4,3c-5.1-0.5-8.3-2-8.2-8
		c0.1-6.1-1.7-12.2-1.1-18.4c2.4,0,4.2-1.6,6.4-2.4C294,763.8,298.9,760.4,304.8,760z"/>
	<path class="st53" d="M715.6,826.4c-1.3-2.4,0-4.6,0.6-6.7c4.2-14.3,5-28.5-0.2-42.7c0.1-0.1,0.2-0.3,0.3-0.4
		c10.9-3.8,13.6-2.1,14,9.4c0.2,5.7-0.9,11.2-3.1,16.5C723.8,810.8,721,819.2,715.6,826.4z"/>
	<path class="st53" d="M389.2,862c3,2.9,2.8,7.6-1,11.4c-7.4,7.6-15.7,13.4-27.1,11.6c-0.2-0.3-0.4-0.5-0.5-0.8
		c-2.1-5.6-2.1-5.7,3.6-6.5C374.9,876.3,383,870.5,389.2,862z"/>
	<path class="st27" d="M380.9,854.1c3,1.6,2.5,3.9,1.2,6.3c-3.2,6.1-13.6,11.4-20.5,10.7c-5-0.6-3.4-4.2-3.4-7.2
		C367.3,864.2,374.7,860.5,380.9,854.1z"/>
	<path class="st31" d="M304.8,760c-5.9,0.4-10.7,3.8-16.1,5.8c-2.1,0.8-3.9,2.4-6.4,2.4c-2.2-4.6-0.5-6.9,4.3-8
		c8.4-1.9,16-6.4,24.5-8.1L311,752C308.9,754.6,306.8,757.3,304.8,760z"/>
	<path class="st17" d="M380.9,854.1c-6.2,6.5-13.6,10.1-22.7,9.8C361.1,853.7,367.8,850.7,380.9,854.1z"/>
	<path class="st2" d="M317.1,759.9c0.3-0.3,0.5-0.6,0.8-0.9c0.9,0.1,1.6-0.2,2.1-0.9c2.6-0.1,5,0.1,6.7,2.4c1.5,2,2,4.3,0.6,6.5
		c-1.7,2.9-4.4,3.3-7.4,2.2C316.1,767.1,316.4,763.6,317.1,759.9z"/>
	<path class="st17" d="M317.1,759.9c-0.7,3.7-1,7.2,3,9.3c-0.6,1.6,0.9,4-1.3,4.7c-2,0.5-4.7,0.3-5.9-1.4c-1.4-1.9-2.3-4.6-1.2-6.9
		C312.7,763.2,313.9,760.4,317.1,759.9z"/>
	<path class="st17" d="M355.1,820c-3.1,0-5.1-1.2-5.1-4.4c0-3,1.8-4.6,4.7-4.6c3.2-0.1,5.9,1.3,6,4.7
		C360.7,819,357.5,819.4,355.1,820z"/>
	<path class="st17" d="M320.1,758.1c-0.5,0.8-1.2,1.1-2.1,0.9C318.6,756.8,318.6,756.8,320.1,758.1z"/>
	<path class="st17" d="M369.8,826.8c0.5-0.5,1.3-1,1.6-0.4c0.5,0.8-0.6,0.8-1.1,1.1C370.2,827.2,370,827,369.8,826.8z"/>
	<path class="st1" d="M317,651c-0.2,0.2-0.4,0.4-0.5,0.5c0-0.1,0-0.3,0-0.4c0.2,0,0.4,0,0.7,0C317.1,651.1,317,651,317,651z"/>
	<path class="st31" d="M311.1,752.1c0.1-0.2,0.3-0.4,0.4-0.6c0,0.1,0,0.3-0.1,0.3C311.3,751.9,311.2,751.9,311.1,752.1
		C311,752,311.1,752.1,311.1,752.1z"/>
	<path class="st2" d="M671.9,692.2c-3.3-3.4-5.1-7.7-7.5-11.6c-7.7-12.6-16.7-24.3-26.1-35.6c-6.1-12.4-14-23.7-23.2-34
		c-1.3-7.4-6.5-12.5-10.7-18.3c-3.4-4.6-3.5-4.4,1.9-6.7c36.1-15.6,65.1-39.3,84.1-74.2c6.6-12.2,10.5-25.3,6-39.4
		c-0.6-1.9-0.2-2.9,1.5-4.1c23.1-15.7,36.6-37.4,39.6-65.1c0.8-7,0.2-14.5-5-20.5c-2.5-5.4-6.6-9.4-11.3-12.9c0.2-2.4,2-3.7,3.6-5.2
		c7.7-7.5,12.2-16.5,12.9-27.3c0.1-1.5,1-3.4-1.1-4.4c2-10.3,2.6-20.5-5.3-28.7c-7.2-7.4-16.6-11.1-27.2-12.4
		c10.1-13.1,20.4-25.1,32.1-35.8c8.7-7.9,17.5-16,27.7-22.1c8.1-4.9,13.4-2.9,16.9,5.8c0.6,1.5,1,3.2,1.5,4.8
		c2.3,8.2,3.1,16.7,3.7,25.1c2.6,37.2,0.9,74.2-3.7,111.1c-6,47.6-15.1,94.7-27.8,140.9C737.2,583.4,711.4,641.2,671.9,692.2z"/>
	<path class="st56" d="M557.2,838.1c-5.7,13.9-14.7,25.3-26.1,34.9c-4.1,2.4-8.1,4.8-12.2,7.2c-11.9,4.4-24.1,6.5-36.6,4
		c-12.8-2.5-23-9.4-30.6-19.8c-3.2-4.4-6.9-8.7-8.3-14.3c-0.2-0.9-0.2-1.9-1.3-2.2c0,0,0.1,0,0.1,0c-3.2-9.9-7.1-19.7-8.8-30
		c-5.2-31-2.2-60.3,18.6-85.8c4.6-5.6,10.1-10.1,16.1-14c3.7-1.7,7.4-3.4,12.2-5.6c-10-1.3-18.6-2.4-27.3-3.5
		c-3.3-1.2-4.3-3.5-4.3-7c0.1-23.5,0.1-47,0-70.5c0-3.5,1.2-4.5,4.6-4.8c37.8-2.6,75.6-6.3,113.3-9.8c1.7-0.2,3.3-0.2,5-0.2
		c3.9-0.1,5.4,2.1,5.2,5.7c-0.2,4.2-0.5,8.3-0.7,12.4c-1,11.2-2,22.5-3,33.7c-1.4,16.6-2.6,33.1-4,49.7c-0.4,4.9-2.4,6.2-7.4,5.6
		c-5.9-0.8-11.8-2-17.7-2.5c-4.4-0.4-8.8-2-14.1-1c2.6,2.2,4.6,3.9,6.6,5.6c6.2,5.9,11.7,12.4,14.8,20.5c1,2.6,2.1,2.4,4,1.1
		c4.7-3.1,9.7-5.8,14-9.6c1.5-1.3,3.1-2.1,4.9-0.7c1.4,1.1,1.2,2.7,0.7,4.1c-1.9,6.1-20.4,18.8-27,18.6c-2.3-1.9-2.9-4.7-3.9-7.3
		c-6.1-15.5-16.9-26.6-31.8-33.8c-0.2-0.5-0.5-0.7-1-0.4c-0.1,0.1,0.2,0.7,0.3,1c0.4,0.7,0.8,1.5,1.2,2.2c5.4,10.1,4,17.9-4.3,25.7
		c-1.6,1.5-3.1,3-4.7,4.4c-0.8,0.8-1.8,1.4-0.6,2.7c3.7,3.8,7.2,8.2,12.8,9c5.8,0.9,7.5,4.4,7.1,9.4c-1.3,14-3.8,27.7-10.7,40.1
		c-10.9,19.5-35.4,27.7-56.1,19.3c-4.7-1.9-8.7-4.8-13.6-8.1c2.9,11.2,7.2,20.7,12.3,29.9c2.9,5.2,6.6,9.4,11.2,13.2
		c18.7,15.4,48,8.5,61.2-2.9c9.5-8.2,16.9-17.9,22.7-28.8C554.9,832.7,556,833.1,557.2,838.1z M504.9,732.7c0.2,2.9,0.3,5.7,0.5,8.8
		c6.1-3.2,5.5-8.5,4-12.9c-1.6-4.8-3.7-10.2-10.3-11.9c0.7,3.4,3.2,5.2,2.9,8.1c-4-0.2-6,2-7.1,5.5c-0.4,1.4-0.8,3.4,0.8,4
		c3,1.2,6.1,1,8.7-1.4C504.6,732.8,504.8,732.8,504.9,732.7z M439,805c0-0.1-0.1-0.3-0.2-0.4c0-0.1-0.2,0-0.3,0
		C438.7,804.7,438.9,804.9,439,805c-0.8,3.3,1,5.9,2.8,8.2c16.5,20.3,46,20.3,62,1.7c8.1-9.4,10.1-21.4,12.5-33.2
		c1.9-9.4,1.6-9.9-6.9-13.6c-2.9-1.3-3.2-0.3-3.6,2.2c-1.2,6.9-2.7,13.7-5,20.3c-6.9,19.7-26.1,30.1-44.6,24.2
		C449.8,812.8,444.7,808.3,439,805z M567.8,633.2c0.3-8.3,0.3-8.1-7.1-7.5c-21.9,1.9-43.7,3.6-65.6,5.5c-12.2,1.1-24.5,2.4-36.7,3.5
		c-2.6,0.2-3.7,0.9-3.6,3.8c0.5,19.5,0.9,38.9,1.1,58.4c0,3.1,1.1,4.3,4.2,4.7c32.3,4.1,64.6,8.2,96.9,12.5c3.4,0.5,3.8-0.6,4.1-3.5
		c0.7-8.8,1.6-17.5,2.4-26.3C565,667,566.4,649.6,567.8,633.2z M471.5,804.1c3.5,0,6.5-2.8,6.3-6.2c-0.2-3-1.6-5-5-4.9
		c-3.9,0.1-6.4,2.1-6.5,6C466.1,802.1,468,804.2,471.5,804.1z M484.5,789c1.1-0.2,2.2-0.6,2.1-2c-0.1-1.4-1.1-2.4-2.5-2.6
		c-1.1-0.1-1.8,0.7-1.9,1.8C482,787.8,482.9,788.6,484.5,789z"/>
	<path class="st57" d="M615,611.1c9.2,10.3,17.1,21.5,23.2,34c-0.1,1.5-0.1,3.2-2,3.5c-1.9,0.4-3-1-4.1-2.4
		c-4.5-5.8-8.9-11.6-13.5-17.3c-10.1-12.5-22.1-23.1-34.8-32.8c-2.8-2.1-5.8-3.9-8.9-5.6c-5.5-3.1-11.1-4.8-17.5-2.5
		c-3.5,1.3-7.5,1.3-11.3,1.6c-2.5,0.2-5.6,0.4-5.9-3c-0.3-3.1,2.9-3.1,5.1-3.6c25.1-6,50-12.5,72.5-25.9
		c23.3-13.9,43.1-31.3,56.6-55.2c1.5-2.6,2.6-5.4,3.8-8.1c2.9-6.7,1.3-12.3-3-18.1c-3.9-5.2-7.5-7.6-14.1-4.4
		c-5,2.5-10.9,2.8-16.6,3.5c-2.8,0.3-5.6,0-6.4-3.3c-0.8-3.6,1.6-5.2,4.6-5.9c14.1-3.1,27.5-7.8,39.9-15.4
		c19.8-12.2,34.4-28.2,39.5-51.6c2.6-11.7,0.6-16.2-9.6-22.4c-1.7-1-3.6-1.7-5.3-2.9c-2.9-2-5.4-1.9-8,0.5c-1.1,1-2.5,1.7-3.9,2.1
		c-1.7,0.5-3.4,0.2-4.5-1.4c-1.2-1.7-1.2-3.6,0.1-5.1c1.3-1.5,2.9-2.8,4.5-3.9c11.4-8.3,21.9-17.5,28.9-30c2.8-4.9,5.1-10,4.2-16.1
		c-1.8-11.9-11.5-14.9-20.7-18.5c-2.1-0.8-4.6-0.8-6.9-0.8c-3-0.1-5.8-0.3-7.3-3.3c-1.4-2.9,0.4-5.2,1.9-7.3
		c10.6-14.6,22.3-28.3,35.5-40.6c7.3-6.8,14.7-13.6,22.9-19.4c2-1.4,4.2-2.8,6.4-4c12.8-6.7,23.3-3.1,28.9,10.1
		c4.4,10.4,5.2,21.6,6,32.8c3.8,59.1-3,117.4-14.3,175.3c-7.5,38.1-14.8,76.2-27.8,112.9c-15.7,44-35.8,86-62,124.9
		c-3.7,5.4-7.8,10.4-13.1,14.3c-1.5,1.1-3.1,2.2-5,1.1c-2.1-1.2-1.4-3.1-0.9-4.9c39.5-51,65.4-108.8,82.4-170.5
		c12.7-46.2,21.8-93.3,27.8-140.9c4.6-36.9,6.3-74,3.7-111.1c-0.6-8.5-1.4-16.9-3.7-25.1c-0.4-1.6-0.9-3.2-1.5-4.8
		c-3.5-8.7-8.7-10.6-16.9-5.8c-10.2,6.1-18.9,14.1-27.7,22.1c-11.7,10.7-22,22.7-32.1,35.8c10.7,1.4,20.1,5,27.2,12.4
		c7.9,8.2,7.3,18.4,5.3,28.7c-4,7-7.7,14.3-13.3,20.3c-3.8,4.1-7.9,7.9-12.2,12.1c3.9,1.7,7,3.1,10.2,4.5c4.7,3.5,8.8,7.4,11.3,12.9
		c1.4,40.8-22.1,65.2-56,83.4c1.7,1.5,3.1,2.4,4.2,3.6c7.4,7.7,9.3,16.6,5.7,26.7c-2,5.5-4.5,10.8-7.7,15.6
		c-23.1,34.5-55,56.9-94.5,68.8c-1.8,0.5-3.6,1.1-6.4,1.9c7,3.1,12.3,6.9,17.4,10.8C602.1,599,608.4,605.2,615,611.1z"/>
	<path class="st50" d="M549.9,835.5c-5.9,10.9-13.3,20.6-22.7,28.8c-13.2,11.4-42.5,18.3-61.2,2.9c-4.6-3.8-8.4-8.1-11.2-13.2
		c-5.1-9.2-9.3-18.6-12.3-29.9c4.9,3.3,9,6.3,13.6,8.1c20.7,8.4,45.3,0.2,56.1-19.3c6.9-12.4,9.4-26.1,10.7-40.1
		c0.5-5.1-1.2-8.6-7.1-9.4c-5.6-0.8-9.1-5.2-12.8-9c-1.3-1.3-0.3-1.9,0.6-2.7c1.6-1.5,3.2-3,4.7-4.4c8.4-7.8,9.7-15.6,4.3-25.7
		c-0.4-0.7-0.8-1.5-1.2-2.2c0.2-0.2,0.4-0.4,0.6-0.6c14.9,7.2,25.8,18.2,31.8,33.8c1,2.6,1.5,5.5,3.9,7.3c3.9,15.4,6.2,31,5,46.9
		C552.2,816.4,550.9,825.9,549.9,835.5z"/>
	<path class="st31" d="M536.6,726c-2-1.7-4-3.4-6.6-5.6c5.3-1,9.7,0.7,14.1,1c5.9,0.5,11.8,1.7,17.7,2.5c4.9,0.7,6.9-0.7,7.4-5.6
		c1.4-16.5,2.6-33.1,4-49.7c0.9-11.2,2-22.5,3-33.7c12.1,0,12.9,0.7,11,11.4c-4,22.2-8.4,44.4-12.6,66.6c-0.7,3.9-1.4,7.8-2.3,11.7
		c-0.9,3.7-3.3,5.4-7.2,5.6c-7.6,0.4-14.8-1.9-22.1-3.5C540.8,726.2,538.7,725.8,536.6,726z"/>
	<path class="st31" d="M453,709c8.6,1.1,17.3,2.2,27.3,3.5c-4.8,2.2-8.5,3.9-12.2,5.6c-3-1.9-6.6-1.6-9.8-2.9
		C455.3,714.1,452.9,712.7,453,709z"/>
	<path class="st55" d="M518.9,880.2c4.1-2.4,8.1-4.8,12.2-7.2c8.5-2,16.9-4.5,25.7-5.6c8.8-1.1,17.3-0.5,25.4,2.8
		c3.7,1.5,7.2,3.8,7.8,8.3c0.6,4.8-1.8,8.3-5.5,11.1c-5.8,4.3-12.5,6.1-19.5,6.9c-12,1.3-23.9,1.2-35.4-2.9
		C521.1,890.6,518.8,887.5,518.9,880.2z"/>
	<path class="st57" d="M425.1,933.4c-1.3-0.1-3.3-0.1-5.3-0.4c-6.4-0.9-11-4.7-10.9-9.6c0.2-8.4,3.2-12.2,9.8-13.4
		c11.7-2,23-4.8,33.1-11.5c3.6-2.4,7.9-4.3,12-1c3,2.3,3.6,10.2,1.4,14.6c-2,4.1-4.8,7.7-8.5,10.3
		C447.5,929,437.3,933.2,425.1,933.4z M425.9,927.8c9.6-0.6,18.5-3.5,26.5-8.8c4-2.7,7.3-6.2,9-10.9c0.8-2.3,0.2-4.5-1.1-6
		c-1.5-1.8-3.4,0-4.9,0.7c-4.3,2.1-8.4,4.6-12.9,6.4c-7.4,3.1-15.3,4.3-23,6c-3.8,0.8-5.4,3.6-5.5,7.2c-0.1,3.6,3,3.9,5.5,4.6
		C421.6,927.6,423.7,928,425.9,927.8z"/>
	<path class="st1" d="M442.1,847.9c1.1,0.3,1.1,1.3,1.3,2.2C442.2,849.8,441.7,849.1,442.1,847.9z"/>
	<path class="st53" d="M615,611.1c-6.6-5.8-12.8-12.1-19.9-17.4c-5.2-3.9-10.4-7.7-17.4-10.8c2.8-0.8,4.6-1.4,6.4-1.9
		c39.5-11.9,71.4-34.3,94.5-68.8c3.2-4.9,5.7-10.1,7.7-15.6c3.6-10.1,1.8-19-5.7-26.7c-1.1-1.2-2.5-2.1-4.2-3.6
		c33.9-18.2,57.4-42.5,56-83.4c5.2,5.9,5.8,13.4,5,20.5c-3,27.8-16.5,49.4-39.6,65.1c-1.7,1.2-2.1,2.2-1.5,4.1
		c4.4,14.1,0.6,27.1-6,39.4c-18.9,34.9-48,58.7-84.1,74.2c-5.3,2.3-5.2,2.1-1.9,6.7C608.4,598.5,613.7,603.7,615,611.1z"/>
	<path class="st53" d="M721.1,370c-3.2-1.4-6.3-2.8-10.2-4.5c4.3-4.2,8.4-8,12.2-12.1c5.6-6,9.3-13.3,13.3-20.3
		c2.1,1,1.2,2.8,1.1,4.4c-0.7,10.8-5.2,19.8-12.9,27.3C723.1,366.2,721.3,367.6,721.1,370z"/>
	<path class="st4" d="M567.8,633.2c-1.4,16.4-2.8,33.8-4.3,51.2c-0.8,8.8-1.7,17.5-2.4,26.3c-0.2,2.8-0.7,3.9-4.1,3.5
		c-32.3-4.3-64.6-8.4-96.9-12.5c-3-0.4-4.1-1.6-4.2-4.7c-0.2-19.5-0.6-38.9-1.1-58.4c-0.1-3,1-3.6,3.6-3.8
		c12.2-1.1,24.5-2.5,36.7-3.5c21.9-1.9,43.7-3.6,65.6-5.5C568.1,625.1,568.1,624.9,567.8,633.2z"/>
	<path class="st17" d="M439,805c5.7,3.3,10.8,7.8,17.2,9.8c18.6,5.9,37.8-4.5,44.6-24.2c2.3-6.6,3.8-13.4,5-20.3
		c0.4-2.5,0.7-3.5,3.6-2.2c8.4,3.7,8.8,4.2,6.9,13.6c-2.4,11.7-4.4,23.7-12.5,33.2c-16,18.6-45.5,18.6-62-1.7
		C440,810.9,438.2,808.3,439,805L439,805z"/>
	<path class="st17" d="M471.5,804.1c-3.5,0-5.3-2-5.2-5.2c0.1-3.9,2.7-5.8,6.5-6c3.4-0.1,4.8,2,5,4.9
		C478,801.4,475,804.2,471.5,804.1z"/>
	<path class="st17" d="M502.1,724.8c0.3-2.9-2.2-4.7-2.9-8.1c6.6,1.7,8.7,7.1,10.3,11.9c1.5,4.4,2.1,9.7-4,12.9
		c-0.2-3.1-0.3-6-0.5-8.8C505.9,729.4,506.3,726.2,502.1,724.8z"/>
	<path class="st2" d="M502.1,724.8c4.2,1.4,3.8,4.6,2.9,7.9c-0.1,0.1-0.3,0.1-0.4,0.2c-2.6,2.3-5.7,2.6-8.7,1.4
		c-1.6-0.6-1.3-2.6-0.8-4C496,726.8,498.1,724.6,502.1,724.8z"/>
	<path class="st27" d="M484.5,789c-1.6-0.4-2.5-1.2-2.3-2.8c0.1-1.1,0.8-1.9,1.9-1.8c1.4,0.2,2.4,1.1,2.5,2.6
		C486.7,788.4,485.6,788.8,484.5,789z"/>
	<path class="st50" d="M511.6,719.4c-0.1-0.4-0.4-0.9-0.3-1c0.4-0.3,0.8-0.1,1,0.4C512,719,511.8,719.2,511.6,719.4z"/>
	<path class="st17" d="M439,805c-0.2-0.1-0.3-0.2-0.5-0.4c0.1,0,0.2,0,0.3,0C438.9,804.7,439,804.9,439,805C439,805,439,805,439,805
		z"/>
	<path class="st54" d="M425.9,927.8c-2.2,0.2-4.4-0.2-6.4-0.8c-2.5-0.7-5.6-1-5.5-4.6c0.1-3.6,1.7-6.3,5.5-7.2
		c7.7-1.7,15.6-2.8,23-6c4.4-1.9,8.6-4.3,12.9-6.4c1.5-0.7,3.3-2.5,4.9-0.7c1.4,1.6,1.9,3.7,1.1,6c-1.7,4.8-5,8.3-9,10.9
		C444.4,924.3,435.6,927.2,425.9,927.8z"/>
</g>
</svg>
