<?xml version="1.0" encoding="utf-8"?>
<!-- Generator: Adobe Illustrator 25.0.0, SVG Export Plug-In . SVG Version: 6.00 Build 0)  -->
<svg version="1.1" id="图层_1" xmlns="http://www.w3.org/2000/svg" xmlns:xlink="http://www.w3.org/1999/xlink" x="0px" y="0px"
	 viewBox="0 0 1200 1600" style="enable-background:new 0 0 1200 1600;" xml:space="preserve">
<style type="text/css">
	.st0{fill:#060604;}
	.st1{fill:#EDCF5D;}
	.st2{fill:#FBF1EE;}
	.st3{fill:#ECCF5D;}
	.st4{fill:#F4FB95;}
	.st5{fill:#A0918B;}
	.st6{fill:#FBFBFB;}
	.st7{fill:#927233;}
	.st8{fill:#935A40;}
	.st9{fill:#623C2A;}
	.st10{fill:#FEFEFE;}
	.st11{fill:#040302;}
	.st12{fill:#090805;}
	.st13{fill:#9C5B46;}
	.st14{fill:#070705;}
	.st15{fill:#ECCE5D;}
	.st16{fill:#F2F2F2;}
	.st17{fill:#93583F;}
	.st18{fill:#A1918B;}
	.st19{fill:#513123;}
	.st20{fill:#FAFAFA;}
	.st21{fill:#030202;}
	.st22{fill:#060605;}
	.st23{fill:#A0908A;}
	.st24{fill:#937234;}
	.st25{fill:#E6C95B;}
	.st26{fill:#864E37;}
	.st27{fill:#513124;}
	.st28{fill:#B0603E;}
	.st29{fill:#FAF0ED;}
	.st30{fill:#F9F9F9;}
	.st31{fill:#917133;}
	.st32{fill:#9E8F89;}
	.st33{fill:#E7CA5B;}
	.st34{fill:#92583F;}
	.st35{fill:#050503;}
	.st36{fill:#FCFBFB;}
	.st37{fill:#080704;}
	.st38{fill:#070605;}
	.st39{fill:#FAF1ED;}
	.st40{fill:#F4FA95;}
	.st41{fill:#F8F8F7;}
	.st42{fill:#90573E;}
	.st43{fill:#030302;}
	.st44{fill:#080805;}
	.st45{fill:#FBF1ED;}
	.st46{fill:#FBFBFA;}
	.st47{fill:#927234;}
	.st48{fill:#F69376;}
	.st49{fill:#7B2D2D;}
	.st50{fill:#FCFCFC;}
	.st51{fill:#EF5A2D;}
	.st52{fill:#F0CC2D;}
	.st53{fill:#9F8F8A;}
	.st54{fill:#FAFAF9;}
	.st55{fill:#F2A78E;}
	.st56{fill:#040403;}
	.st57{fill:#070604;}
	.st58{fill:#A0908B;}
	.st59{fill:#F7F7F7;}
	.st60{fill:#E8CB5B;}
	.st61{fill:#8F563E;}
	.st62{fill:#513224;}
	.st63{fill:#080705;}
	.st64{fill:#FCFCFB;}
	.st65{fill:#F9F8F8;}
	.st66{fill:#FAF0EC;}
	.st67{fill:#9F908A;}
	.st68{fill:#91573E;}
	.st69{fill:#070704;}
	.st70{fill:#F5FC96;}
	.st71{fill:#9C9C53;}
	.st72{fill:#9A9A52;}
	.st73{fill:#F2F994;}
	.st74{fill:#A17628;}
	.st75{fill:#90573F;}
	.st76{fill:#090806;}
	.st77{fill:#523123;}
	.st78{fill:#7C4031;}
	.st79{fill:#ED866D;}
	.st80{fill:#F3E9E6;}
	.st81{fill:#4F3023;}
	.st82{fill:#060606;}
	.st83{fill:#89533B;}
	.st84{fill:#050403;}
	.st85{fill:#090909;}
	.st86{fill:#EDCF5E;}
	.st87{fill:#050504;}
	.st88{fill:#060504;}
	.st89{fill:#955A41;}
	.st90{fill:#080703;}
	.st91{fill:#090807;}
	.st92{fill:#070603;}
	.st93{fill:#0A0905;}
	.st94{fill:#937335;}
	.st95{fill:#955A40;}
	.st96{fill:#955940;}
	.st97{fill:#EDD05E;}
	.st98{fill:#8F7032;}
	.st99{fill:#945940;}
	.st100{fill:#EED05E;}
	.st101{fill:#503123;}
	.st102{fill:#EEEEEE;}
	.st103{fill:#0D0C0A;}
	.st104{fill:#E3C659;}
	.st105{fill:#967535;}
	.st106{fill:#9D7D38;}
	.st107{fill:#745A29;}
	.st108{fill:#847334;}
	.st109{fill:#907134;}
	.st110{fill:#E5C85B;}
	.st111{fill:#503124;}
	.st112{fill:#927133;}
	.st113{fill:#E0DDD4;}
	.st114{fill:#987836;}
	.st115{fill:#977636;}
	.st116{fill:#CCC4A4;}
	.st117{fill:#523224;}
	.st118{fill:#0B0908;}
	.st119{fill:#8F7135;}
	.st120{fill:#050404;}
	.st121{fill:#EDD05D;}
	.st122{fill:#F3FA94;}
	.st123{fill:#9A9A51;}
	.st124{fill:#999951;}
	.st125{fill:#937334;}
	.st126{fill:#FAF0EE;}
	.st127{fill:#F3FA95;}
	.st128{fill:#989851;}
	.st129{fill:#A2792A;}
	.st130{fill:#F1F893;}
	.st131{fill:#A17729;}
	.st132{fill:#050502;}
	.st133{fill:#947335;}
	.st134{fill:#917233;}
	.st135{fill:#9B9B52;}
	.st136{fill:#F9EFEC;}
	.st137{fill:#9A782F;}
	.st138{fill:#979752;}
	.st139{fill:#F2F893;}
	.st140{fill:#8C8E4F;}
	.st141{fill:#B5B96E;}
	.st142{fill:#0F0F09;}
	.st143{fill:#9C9C52;}
	.st144{fill:#F5FB95;}
	.st145{fill:#F3F994;}
	.st146{fill:#A17728;}
	.st147{fill:#917134;}
	.st148{fill:#090706;}
	.st149{fill:#8E6F32;}
	.st150{fill:#93593F;}
	.st151{fill:#907033;}
	.st152{fill:#060505;}
	.st153{fill:#C8C3AF;}
	.st154{fill:#533324;}
	.st155{fill:#533426;}
	.st156{fill:#0E0C0A;}
	.st157{fill:#907133;}
	.st158{fill:#583627;}
	.st159{fill:#0A0907;}
	.st160{fill:#573526;}
	.st161{fill:#0C0B09;}
	.st162{fill:#503023;}
	.st163{fill:#543325;}
	.st164{fill:#B7B3A1;}
</style>
<g>
	<path class="st0" d="M274.6,846.5c-1.1-4.3-2.6-8.6-2.5-13.8c-5.6,2.9-11.4,2.4-17.1,2.4c-2.5,0-4.9-0.4-5.2-3.5
		c-0.3-3.4,2.5-2.7,4.5-3c0.9-0.1,1.8-0.6,2.7-0.9c-0.2-0.3-0.3-0.6-0.4-0.6c-8.4-0.4-7.9-6.7-8.3-12.4c-0.2-4-0.4-8-0.4-12
		c0.1-20.5-0.8-41-1.7-61.4c-0.2-4-0.9-8,4.3-9.9c2.1-0.7,0.5-3.1,0.1-4.4c-3.6-12.5-6.8-25-8.7-37.9c-3.7-24.2-6-48.6-8.5-72.9
		c-3-29-6.1-58-5.3-87.2c1.6-59.9,12-118.4,28.7-175.9c17-58.5,39.8-114.6,69.4-167.9c5.8-10.5,12.2-20.6,20.3-29.6
		c7.1-8,15.5-14.1,26-17c10.8-3,18.5-0.2,24.5,9.2c6.8,10.7,10.2,22.7,13,34.9c8.1,35.5,12.3,71.5,15.1,107.7
		c2.9,36.2,5.8,72.4,8.6,108.6c1.9,24.7,3.3,49.5,5.5,74.2c2.3,26,3.5,52.2,8.6,77.9c0.3,1.3,0.1,2.7,0.4,4c0.3,1.8-2.1,4.8,2.6,4.6
		c3.4-0.2,5-0.4,5.3-4.7c2.3-41.6,4.4-83.2,7.6-124.7c2.9-37.3,3.1-74.6,2.1-111.9c-1-35.5-0.7-71-1.1-106.5
		c-0.1-14.3-0.9-28.6,0.3-43c0.9-10.8,3.4-21,8.5-30.5c9.1-16.9,25.7-22.5,43.2-14.7c9.8,4.3,17.8,10.9,25.2,18.5
		c16,16.4,27.5,35.8,38.4,55.7c23.7,43.2,38.5,89.8,52.7,136.6c11,36.4,23.6,72.4,31.5,109.8c9,42.7,18,85.3,22.4,128.8
		c4.6,44.8,4.9,89.4-2.6,134c-0.8,4.5-2.1,8.7-4.2,13.7c4.2-1,7.7-2.1,11.3-2.8c20.9-4,33.3,9.3,28.2,30.1
		c-1.8,7.2-5.1,13.7-9.6,19.5c-1.8,2.3-2.7,3.5,0.9,5.2c9.2,4.3,13.5,13.7,11.7,24.2c-3.5,20.4-13.6,37.5-27.2,52.5
		c-40.6,45-88.4,80.5-143.7,105.1c-32.6,14.5-67,23.7-102.8,27.6c-17.1,1.8-34.1,4-51.3,2.7c-29.9-2.2-58.5-9.2-83.4-27
		c-8-5.7-15.2-12.5-21-20.5c-1.9-2.6-4.9-3.2-7.2-5.2c-8.9-7.9-16.7-16.7-23.5-26.5c-4.6-6.6-5.4-13.5-1.3-20.6
		c1.1-1.8,0.8-2.9-0.3-4.4c-2.3-3.1-4.6-6.1-6.6-9.4c-3.4-5.8-5.5-12.2-1.4-18.3c4-6,10.7-6,17.1-5.8c1.1,0,2.3,0.3,3.4,0.5
		C274.8,848.1,275.3,847.8,274.6,846.5z M338.9,867.9c-1.8,2.3-0.6,4,1.1,5.6c3.5,3,7.7,4.6,12.2,5.2c2.3,0.3,4.8-0.6,6.1-2.7
		c2.3-3.6,4.7-7.3,4.9-11.8c2.6-5.1-1.7-4.8-4.3-4.8c-3.6,0.1-7.1,1-10.6,1.8C344.2,862.1,339.6,862.3,338.9,867.9z M429,961
		c-6.9-5.2-14.2-9.7-22.2-13.1c-6.6-2.9-12.3-1.5-17.2,3.7c-5.4,5.7-9.3,12.3-13.4,19.4c2.6,0.4,4.7,0.7,6.8,1
		c21.9,3.7,43.7,2.1,66.9-1.6C441.7,967.9,435.5,964.1,429,961z M369,390L369,390c3.6-4,7.7-7.8,7.9-13.7c0.3-9.1,0.7-18.3,1.1-27.4
		c1.2-30.4,2.2-60.8-0.1-91.2c-0.8-10-2.3-19.8-6.7-28.9c-4.3-8.9-9.5-9.4-16.2-1.8c-6,4.3-9.7,10.4-13.3,16.6
		c-13.9,23.9-24.5,49.3-33.8,75.3c-12.5,35.1-20.5,71.4-28.8,107.6c-7,30.4-12.2,61.2-14.7,92.3c-2,24.9-1.4,49.8,0.5,74.8
		c2,26,5,51.8,9.2,77.6c0.7,4.5,1.4,9,3,14.1c3.2-6.8,6.1-12.9,9-18.9c12.6-19.1,26.8-36.8,44.9-51.1c2.5-1.9,5-3.8,7.5-5.7
		c0.9-0.7,1.8-1.2,1.4-2.8c-4.2-15.8-1.1-30.6,7.1-44.5c1.2-2,1-2.5-1.4-3.2c-8-2.5-11-6.8-10.8-15.1c0.3-10.8,4.6-20.3,10.2-29.3
		c4.1-6.7,4.1-7.9-2-13c-5.5-4.6-8.8-10.4-9.9-17.4c-1-6.8-0.4-13.6,1.4-20.3c5.6-21.6,15.6-41.3,26.6-60.5
		c1.9-3.4,4.9-6.3,5.7-10.3l0,0C368.5,392.6,369,391.4,369,390z M338,906c-2-2.2-1.8-7-6.3-6.5c-12.4,1.6-22-3.1-30.1-12.1
		c-1.5-1.7-3-3.3-4.9-5.3c-2.2,6.7-4.4,12.6-3.2,19.1c-1.1,13,3.7,24,12.1,33.5c6.6,7.5,14.3,13.9,22.9,19.2
		c5.4,3.3,11.2,5.8,18.3,8.5c-4-6.4-7.6-11.6-10.7-17c-9.3-16.2-8.5-19.4,7-29.9c2.4-1.6,2.7-2.8,0.3-4.3
		C341.2,909.8,339.6,907.9,338,906z M437.2,877.8c-8.4-8.1-15.4-17.2-20.6-27.7c-3.2-7.7-5.4-15.7-6.9-23.9c0.5-4.3,0.6-8-5-9.4
		c-3.1-0.8-4.6-4.1-5.8-7.1c-5.9-15.5-11.8-31.1-17.8-46.5c-1.3-3.3-1.1-6,0.8-8.9c5.6-9,11-18.2,16.5-27.3
		c3.3-4.2,6.3-8.6,10.3-12.2c1.5-1.3,3.3-2.9,5.2-1.2c2,1.8-0.2,3.2-1.2,4.6c-0.5,0.7-1.1,1.3-1.6,1.9c-7.2,9.5-12.9,19.8-18.8,31
		c1.5-0.3,1.9-0.4,2.3-0.6c28.4-14.9,57.6-28.4,84.9-45.5c6.9-4.3,14.1-8.3,21.6-11.3c7.7-3.1,10-2.3,14.6,4.4
		c0.1,0.8,0.2,1.7,0.4,2.5c4,17.5,10.6,34.2,14.9,51.5c2.7,10.8,6.7,21.5,5,33.1c-0.3,1.8,0.2,4.7,3,5.6c2.3,0.4,4.3-0.5,6.2-1.5
		c3.9-2,7.3-4.6,10.4-7.6c1.3-1.3,3-1.6,4.5-0.4c1.4,1.1,1,2.6,0.4,4.1c-3.4,9.2-17.1,18.7-26.7,18.5c-3.9-2.5-3.7-6.8-4.9-10.5
		c-0.5-1.4-0.2-4.1-2.5-3.6c-4.5,0.9-9.2,2-13.3,3.9c-2.5,1.1-0.3,4.6-1.1,6.9c-0.7,2.1-1.5,4-2.7,5.9c-1.1,1.8-3.2,2.8-3.6,5.2
		c1.3,0,2.3,0,3.3,0c7.5-0.1,9.1,1.3,9.2,8.9c0,11.9-3.4,23-9.3,33.2c-3.4,6.1-8.2,10.7-14.7,13.7c-17.4,8-47.6,0.7-58.2-18.8
		c-5-9.3-9.3-18.7-10.6-29.2c-0.4-3.3-2.2-2.7-4.1-2.3c-1.7,0.4-4,0-3.4,3.4c3.4,20.4,9.6,39.3,25.6,53.8
		c17,15.5,43.1,16.9,61.5,3.1c12.4-9.4,19.3-22.1,23.1-36.8c0.6-2.5,1.2-4.9,4-5.7c1.5,0.4,2.7,1.4,3.8,2.5c0,2.5-0.7,4.9-1.3,7.3
		c-2.2,9.1-7,17.1-11.5,25.2c-1.8,1.9-3.5,3.9-5.3,5.8c-12.4,13.1-27.2,20.4-46,18.7c3.7,2.8,6.6,6.2,9.5,9.4
		c5.6,22.1,3.6,43.1-8.2,63.3c27.1-5.9,53.7-13.8,79.1-25.2c37.8-16.9,70.9-41.4,102.6-67.6c10-8.2,18.6-18.1,27.2-27.8
		c4.9-3.3,8.2-8.1,11.5-12.8c8.6-11.9,16-24.5,17.9-39.4c1.1-9.3-5.4-14.3-14.4-11.3c-2.9,0.3-5.1,2.2-7.5,3.7
		c-3.1,1.9-6.3,3.6-9.5,0.6c-3.4-3.1-1.5-6.3,0.3-9.4c3-2.1,6-4.1,9-6.2c8.5-6,14.7-13.8,18.4-23.7c1.8-4.9,1.7-9.8,0-14.6
		c-0.9-2.6-2.2-4.9-5.6-4.6c-5.9-0.6-11.5,0.6-17,2.6c-9.7,3.4-19.4,6.6-29.9,5.7c-3.5-2.1-2.6-4.4,0.2-6.1c3.9-2.4,8-4.8,12.5-6.2
		c1.6-0.5,3.1-0.8,3.2-3.1c0.1-7.9,1.9-15.5,3.1-23.2c6.6-43.5,5.8-87,0.7-130.5c-6-51.8-16-103-29.5-153.3
		c-13-48.3-28.5-96-44.6-143.4c-11.8-34.7-28.1-67.6-48.4-98.3c-10-15-21.4-29.1-37.8-37.7c-14.2-7.4-24.9-3.6-32.1,10.7
		c-5.4,10.7-7.3,22.1-6.9,33.9c1.3,37.8,0.6,75.6,1.4,113.4c0.8,39.1,2.1,78.3-0.4,117.4c-2.2,34.7-4.4,69.5-6.6,104.2
		c-1.1,16.8-1.5,33.6-5,50.1c-1,4.6-3.3,5.9-7.1,5.8c-6-0.1-12,0.1-17.9,1.5c-36.8,9.2-71.6,21.9-101.8,46.2
		c-37.2,29.9-58.6,67.3-60.6,115.4c-0.1,3.4,0.9,5,4.2,6c5.7,1.7,11.3,4,16.9,6.1c16,6.1,32.8,8.3,50.7,10.7
		c-4.3-6.4-6.6-12.9-11.8-17.6c-1.2-1.1-2.2-2.3-1-3.8c1.1-1.4,2.7-0.9,4-0.1c2.9,1.6,4.7,4.2,6.8,6.5c3.5,5.2,7,10.4,10.5,15.7
		c1.8,2.8,3.1,5.9,2.8,9.4c-1.1,12.5-2,25.1-3.3,37.5c-0.5,4.7-0.4,10.1-3.4,13.8c-3,3.8-2,6.4,0.2,9.5c1.4,4.8,2,9.8,2,14.8
		c0,2.2,0.3,3.4,3,2.8c7.9-1.6,15.9-0.6,23.8-1.2c3.8-0.3,8-0.2,11.7,1.6c0.3,2.7-1,4-3.7,4.2c-4,0.3-8,0.5-11.9,1.1
		c-5.3,0.9-10.8,0.2-16.3,2c7.4,2.4,8.7,4.8,7.3,12.3c-0.3,1.4-0.3,2.9-0.4,4.4c-1.8,0.6-1.5,2.4-2.1,3.7
		c-4.7,10.8-11.8,13.9-22.8,9.9c-1.9-0.7-3.7-1.5-6.1-2.5c1.3,5.6,2.2,10.6,4.6,15.2c1.3,2.6,2.4,5.5,4.1,7.9
		c5.2,7.5,5.8,7.5,13.3,2.6c2.1-1.3,4.3-2.5,6.6-3.4c9.7-3.9,19.3-7.9,29-11.6c13.6-5.2,27.4-8.9,42.2-7.3c3.1,0.6,6.2,1.2,9.4,1.8
		c0.1-0.3,0.2-0.5,0.3-0.8C444.2,882.9,440.7,880.3,437.2,877.8z M351.1,501.5c4.6-3.7,9.3-7.6,14.2-11.5c1.5-1.2,3.3-3.1,5.2-1.6
		c1.8,1.5,0,3.5-0.9,4.9c-2.2,3.3-4.7,6.5-7.1,9.7c-8.4,11.2-16.5,22.7-19.2,36.9c-1.7,9.1,0.7,12.3,9.5,13c2.2,0.2,5-0.7,6.2,2.2
		c1.2,2.8-0.8,4.6-2.4,6.6c-8.6,10.8-11.6,23.3-10.8,36.9c0.3,4.2,1.3,4.3,4.5,1.9c13.1-10.4,27.8-18.2,43.4-24.3
		c15.1-5.9,30.2-11.8,46.5-15.5c-2-3-2.7-5.9-3.3-8.9c-3.5-17.3-5.1-34.9-6.9-52.5c-2.8-27.7-4.3-55.5-6.4-83.2
		c-3-40.2-6.4-80.4-9.5-120.5c-2.6-33.9-6.3-67.6-13.2-101c-2.7-13-5.6-26.1-11.9-38c-4.5-8.5-8-9.8-17-6.3
		c-7.5,2.9-13.5,7.8-18.7,13.8c-7.5,8.6-13.5,18.2-19,28.1c-31.8,57.2-54.1,118.2-71,181.3c-13.3,49.6-21.6,99.8-23.4,151.2
		c-1,27.4,1.6,54.6,4.2,81.8c4.1,41.6,8,83.2,17.5,124c0.6,2.7,2,3.9,4.2,3.9c2.6,0,1.6-2.5,1.7-3.9c0.9-12,2.5-23.8,6.3-35.3
		c0.4-1.2,0.4-2.7,0-3.9c-4.8-16.6-6.7-33.8-9-50.9c-3.6-26.7-5.8-53.5-6.6-80.5c-0.9-30.2,2.2-60.1,7.1-89.8
		c6.3-38.7,15-76.9,24.9-114.8c10.3-39.9,25.4-78,45.6-114c4.9-8.8,10.9-16.8,19.2-22.7c6.6-4.7,13.4-3.8,18.6,2.3
		c3.2,3.8,4.9,8.3,6.4,12.9c5.2,16.6,5.6,33.8,5.9,50.9c0.5,27.7-0.9,55.3-2.1,82.9c-0.2,4.4-0.2,8.9-1.4,13.4
		c-1.7,6.7-6.1,11.8-9.5,17.4c-12.7,21-24.2,42.5-30.3,66.5c-2.4,9.4-3.1,18.8,2.5,27.5C347.5,496.1,349.9,499.7,351.1,501.5z
		 M528.1,778.3c-0.1-0.8-0.2-1.7-0.3-2.5c-4.2-24.7-13.4-48-19.2-72.3c-0.7-3.1-2.4-2.8-4.8-1.8c-8.4,3.6-16.3,8.3-24.2,12.9
		c-28.7,17.1-58.6,32.2-88.7,46.8c-2.9,1.4-2.1,2.5-1.4,4.5c5,12.5,10,25,15,37.5c2.7,6.6,3.6,7.1,10.5,5.8
		c22.8-4.2,44.8-11.3,67.3-16.7c14.1-3.4,28.1-7.1,42.1-10.7C526.2,781.4,528.9,781.5,528.1,778.3z M254,739.8
		c0.8,26,1.5,51,2.2,75.9c0,1.5,0.5,2.6,1.9,3.1c8.5,3.1,16.8,6.6,26.2,7c20.2,0.8,39.7-2.8,59.1-8.2c3.5-1,5.2-2.7,5.7-6.4
		c1.8-12.2,3-24.4,2.8-36.8c-0.2-9.4,0-9.5-9.4-10.4c-19.6-1.9-38.8-5.7-57.2-13.1C275.3,747,265,743.7,254,739.8z M476.5,921
		c1.3-8.7-2.3-17-12.2-21.5c-15.5-6.9-31.7-11.2-48.9-7.1c-25.5,6.2-48.1,19.1-70.9,31.4c-1.6,0.9-2.9,2.3-4.3,3.4
		c-2.8,2-3,4.3-1.4,7.4c4.1,8,8.7,15.7,14.4,22.7c2.8,3.4,6,6.2,10,8.1c3.9,1.9,6.9,1.4,9.2-2.6c2.9-5.2,6.1-10.3,10.1-14.8
		c9-10.1,18.1-11.9,30.5-6.4c7.3,3.3,13.9,7.8,20.7,11.9c5.7,3.4,11.5,6.7,18,8.4c10.9,2.9,17.3-0.7,20.5-11.5
		C474.8,941.5,475.9,932.3,476.5,921z M283.1,915.6c-1.3-9.5-2.4-17.8-0.1-25.6c2.3-7.9,0.6-15-1.8-22.3c-0.5-1.4-0.8-2.9-1.2-4.3
		c-3.1-10.7-4.3-11.3-15.1-8.3c-0.2,0-0.3,0.1-0.5,0.1c-5.7,1.7-6.9,4.2-4.2,9.6c2.5,4.9,5.8,9.3,9.4,13.5c2.5,2.9,3,5.7,0.3,8.9
		c-2.3,2.7-3.3,5.9-1.5,9.2C272.2,903.1,277.4,908.6,283.1,915.6z M330.4,890.7c-10.6-1.5-16.9-7.9-20.7-17.3
		c-3.5-8.7-9.3-17.4,0.5-26c-13.2-3.4-13.2-3.4-11.4-14.2c-0.8-0.1-1.6-0.2-2.4-0.2c-12-0.3-12.1-0.3-9.2,11.3
		c4,15.5,10.3,29.9,22.4,40.9C315.4,890.4,322.1,892.7,330.4,890.7z M483,862.1c6.4-0.2,10.6-2.2,13.9-5.5c8.8-9,11.6-20.6,13-32.7
		c0.2-2.1-0.7-3.1-2.9-3c-1.7,0.1-3.4,0.2-5,0c-3.5-0.4-4.7,0.7-5.3,4.4C494.8,838,494.2,851.3,483,862.1z M327.8,883.1
		c-0.6-4.8-1.4-8.9-0.1-13c0.3-0.8,0.1-1.6-0.7-2.2c-5-4-8-9.2-10.4-15c-1-2.3-2-2.2-3.5-0.3c-2,2.5-3,5.1-1.8,8.3
		c1.7,4.7,3.5,9.3,6.1,13.7C319.6,878.4,322.8,881.3,327.8,883.1z M483.1,846.1c0-3-1.2-5-4-4.9c-3.4,0.2-6.1,1.7-6.3,5.7
		c-0.1,3.1,1.4,5.2,4.7,5.1C481.4,851.9,482.8,849.2,483.1,846.1z M497.4,805.5c1.8,0.3,6.2-4.9,6.4-7.3c0.1-1.1-0.1-2.3-1.4-1.8
		c-2.4,0.8-6,0.3-6.7,3C495.2,800.9,495.5,803.9,497.4,805.5z M310.2,836.4c-0.5-1.6,1.2-4.3-2.4-4.3c-3.8,0.1-3.2,3.1-3.7,5.3
		c-0.5,2.8,1.4,3.4,3.5,3.5C311.6,841.1,309.5,838,310.2,836.4z M333.7,852.9c-0.3-1.4-1.1-2.5-2.6-2.5c-1.4,0-1.9,1.1-2,2.4
		c-0.1,1.4,0.7,2.2,2.1,2.1C332.5,854.9,333.4,854.3,333.7,852.9z"/>
	<path class="st1" d="M394.2,846c-3.7-1.8-7.8-1.9-11.7-1.6c-7.9,0.5-16-0.4-23.8,1.2c-2.7,0.6-3-0.6-3-2.8c0-5-0.6-9.9-2-14.8
		c7.2-2.4,10.1-7.2,11-14.8c2.1-18.1,3.3-36.1-0.4-54.1c-1.4-6.7-6.6-10.6-10.3-15.6c-1.9-2.5-4.3-2.9-7-1.4c-2.1-2.4-3.9-5-6.8-6.5
		c-1.4-0.8-2.9-1.3-4,0.1c-1.2,1.5-0.2,2.7,1,3.8c5.2,4.7,7.5,11.2,11.8,17.6c-17.9-2.5-34.7-4.7-50.7-10.7
		c-5.6-2.1-11.2-4.4-16.9-6.1c-3.3-1-4.3-2.6-4.2-6c1.9-48.1,23.4-85.5,60.6-115.4c30.2-24.3,65-37.1,101.8-46.2
		c5.9-1.5,11.8-1.7,17.9-1.5c3.8,0.1,6.1-1.2,7.1-5.8c3.5-16.6,4-33.4,5-50.1c2.2-34.7,4.4-69.5,6.6-104.2
		c2.5-39.1,1.2-78.3,0.4-117.4c-0.8-37.8-0.1-75.6-1.4-113.4c-0.4-11.8,1.5-23.2,6.9-33.9c7.3-14.3,18-18.1,32.1-10.7
		c16.5,8.6,27.9,22.7,37.8,37.7c20.3,30.7,36.6,63.6,48.4,98.3c16.1,47.4,31.6,95,44.6,143.4c13.5,50.3,23.5,101.5,29.5,153.3
		c5.1,43.5,6,87-0.7,130.5c-1.2,7.7-3,15.4-3.1,23.2c0,2.3-1.6,2.6-3.2,3.1c-4.5,1.3-8.6,3.7-12.5,6.2c-2.8,1.7-3.7,4-0.2,6.1
		c-13.1,6.5-23.1,16.5-32.1,27.8c-10.2,12.7-19.6,26.1-31.1,37.7c-4.5,4.6-9.6,8.4-15.6,10.4c-15.3,5.1-28.3,13.8-40.4,24.2
		c-1.1-1.1-2.2-2.1-3.8-2.5c1.4-10.3,2.5-20.6,1.9-31c9.7,0.2,23.3-9.2,26.7-18.5c0.5-1.5,1-3-0.4-4.1c-1.5-1.2-3.1-0.9-4.5,0.4
		c-3.1,3-6.5,5.6-10.4,7.6c-1.9,1-3.9,1.8-6.2,1.5c6.4-6.5,6.8-14.1,5.2-22.6c-1.6-8.2-4-16.1-6.2-24.1c-3.6-13-7.2-26-12.3-38.4
		c-1.8-4.4-3.6-8.9-9.9-7.6c-4.6-6.8-6.8-7.5-14.6-4.4c-7.6,3-14.7,7-21.6,11.3c-27.3,17.1-56.4,30.6-84.9,45.5
		c-0.4,0.2-0.9,0.2-2.3,0.6c5.9-11.2,11.6-21.6,18.8-31c0.5-0.7,1.1-1.3,1.6-1.9c1-1.4,3.2-2.8,1.2-4.6c-1.9-1.8-3.7-0.2-5.2,1.2
		c-4,3.5-7,8-10.3,12.2c-2-4.6-5.2-3.3-7.5-0.9c-8.2,8.8-15.6,18.2-18.6,30.2c-1.1,4.4-0.5,8.8,3.9,11.4c2,1.2,2.2,3.2,2.7,5
		c3.7,13.1,7.2,26.3,11.2,39.2c4,12.8,6.2,14.1,19.6,14.4c1.4,8.2,3.7,16.2,6.8,23.9C409.3,847.6,401.9,846,394.2,846z M632.9,654.9
		c3.2,5.6,7.3,10.6,9.9,16.6c1.5,3.4,3.8,4.4,7.1,2.5c0.7,2.9-0.7,6,0.6,8.9c0.6,1.3,0.5,3.1,2.6,3.1c2.2,0,2.5-1.6,3-3.3
		c1.6-5.5,1.8-11.2,2.6-16.8c3.9-27.5,4.9-55.1,3.1-82.7c-2.3-34.6-8.1-68.8-16.4-102.4c-17.5-70.5-40.2-139.3-67.6-206.5
		c-10.6-26.1-24.2-50.8-41.1-73.5c-4-5.4-8.8-10-15.1-12.8c-11.4-5-19.8-1.8-24.7,9.6c-4.1,9.5-5.3,19.6-5.8,29.7
		c-0.9,17.6-0.4,35.3,0.8,52.9c1,15.9,1.5,31.9,3.8,47.7c1.3,8.8,2.2,17.7,3.3,27c-1.5-0.8-2.5-1.4-3.6-1.8
		c-1.5-0.5-3.1-0.6-4.1,0.9c-1.1,1.6-0.8,3.2,0.5,4.6c1.1,1.2,2.4,2.3,3.7,3.4c7.9,6.7,16,13.1,23.6,20.1
		c20,18.5,36.8,39.5,48.1,64.4c7.4,16.5,6.5,34.5-12.7,47.3c-2,1.4-2.9,1.2-4.5-0.3c-4.6-4.3-9.4-8.5-14.2-12.6
		c-1.8-1.5-4-3.3-6.1-1c-2.2,2.5,0.3,4.2,1.9,5.8c6.8,6.4,13.8,12.6,20.5,19.1c7.4,7.1,11.5,16.2,14.5,25.8c0.8,2.6,0.8,5.3,0.3,7.9
		c-0.8,4.4-4.2,6.9-7.6,8.8c-2.5,1.4-3.5-2.3-5.4-3.4c-2.6-1.5-4.9-3.5-7.3-5.2c-1.5-1.1-3.2-3.4-5.1-1.2c-1.7,2-0.4,4.1,1.2,5.7
		c1.8,1.7,3.8,3.2,5.6,4.9c9.4,8.9,14.5,19.7,15.7,33.3c-4.3-2-7.7-3.7-11.2-5.2c-6.2-2.5-12.4-4.9-19.3-4.6
		c-2.2,0.1-4.6,0.3-4.7,3.3c-0.1,2.9,2.2,3.5,4.3,3.8c11.4,1.8,21.6,6.7,31.1,13c24,15.9,45.3,34.5,60.8,59.1
		C627,653.9,629.1,656.1,632.9,654.9z"/>
	<path class="st15" d="M351.1,501.5c-1.2-1.8-3.7-5.4-6-9c-5.6-8.7-4.9-18.1-2.5-27.5c6-24,17.6-45.5,30.3-66.5
		c3.4-5.7,7.8-10.8,9.5-17.4c1.2-4.4,1.2-8.9,1.4-13.4c1.1-27.6,2.6-55.2,2.1-82.9c-0.3-17.1-0.7-34.3-5.9-50.9
		c-1.5-4.6-3.2-9.1-6.4-12.9c-5.2-6.2-12-7.1-18.6-2.3c-8.3,6-14.3,13.9-19.2,22.7c-20.2,36-35.3,74.1-45.6,114
		c-9.8,37.9-18.5,76.1-24.9,114.8c-4.9,29.7-7.9,59.7-7.1,89.8c0.8,26.9,3,53.7,6.6,80.5c2.3,17.1,4.2,34.2,9,50.9
		c0.4,1.2,0.4,2.7,0,3.9c-3.8,11.5-5.3,23.3-6.3,35.3c-0.1,1.3,0.9,3.9-1.7,3.9c-2.3,0-3.6-1.3-4.2-3.9
		c-9.6-40.8-13.5-82.4-17.5-124c-2.7-27.2-5.2-54.4-4.2-81.8c1.8-51.3,10.1-101.6,23.4-151.2c16.9-63.1,39.2-124,71-181.3
		c5.5-9.9,11.5-19.5,19-28.1c5.2-6,11.2-10.9,18.7-13.8c9-3.5,12.5-2.2,17,6.3c6.3,11.9,9.2,24.9,11.9,38
		c6.9,33.3,10.5,67.1,13.2,101c3.1,40.2,6.5,80.3,9.5,120.5c2.1,27.7,3.6,55.5,6.4,83.2c1.8,17.6,3.4,35.1,6.9,52.5
		c0.6,2.9,1.3,5.8,3.3,8.9c-16.3,3.6-31.4,9.5-46.5,15.5c-15.6,6.1-30.3,13.9-43.4,24.3c-3.1,2.5-4.2,2.3-4.5-1.9
		c-0.8-13.6,2.2-26.1,10.8-36.9c1.6-2,3.6-3.8,2.4-6.6c-1.2-2.8-4-2-6.2-2.2c-8.7-0.7-11.2-3.9-9.5-13c2.7-14.2,10.7-25.6,19.2-36.9
		c2.4-3.2,4.9-6.3,7.1-9.7c0.9-1.4,2.6-3.4,0.9-4.9c-1.9-1.5-3.7,0.3-5.2,1.6C360.5,493.9,355.7,497.8,351.1,501.5z"/>
	<path class="st2" d="M331.1,615.1c-18.1,14.3-32.3,32-44.9,51.1c-2.6-0.6-4.6,0.3-6.7,1.9c-1.6,1.2-3,3.1-5.3,3
		c-4.2-25.7-7.3-51.6-9.2-77.6c-1.9-24.9-2.5-49.9-0.5-74.8c2.5-31.1,7.7-61.9,14.7-92.3c8.3-36.2,16.3-72.5,28.8-107.6
		c9.3-26,19.9-51.4,33.8-75.3c3.6-6.1,7.3-12.3,13.3-16.6c2.2,3.8,6.7,5.1,9.1,8.9c5.8,8.9,7.5,18.8,7.7,29
		c1,41.7-0.1,83.4-2.9,125.1l0,0c-1.7,0.3-2.3,1.3-2,2.9c0,0,0,0,0,0c-1-0.2-1.5,0.4-2.1,1.1c-18.1,22.5-30.7,47.8-37.6,75.8
		c-3.7,15,0,28.3,10.8,39.5c1.9,2,1.8,3.4,0.5,5.6c-2.4,4.2-4.9,8.4-6.6,12.8c-4.4,11.7-5.5,23.4,3.3,33.8c1.9,2.2,0.3,3.7-0.6,5.4
		c-4.5,8-6.6,16.5-6.9,25.7C327.5,600.4,328.9,607.7,331.1,615.1z"/>
	<path class="st2" d="M535.7,837.5c12.1-10.4,25.1-19.1,40.4-24.2c6-2,11.1-5.9,15.6-10.4c11.5-11.6,21-25,31.1-37.7
		c9-11.3,19-21.3,32.1-27.8c10.5,0.9,20.3-2.3,29.9-5.7c5.5-1.9,11.1-3.1,17-2.6c-2.7,15.3-8.6,29.2-18.7,41.2
		c-1.9,2.3-4.1,4.5-3.1,7.9c-1.8,3.1-3.7,6.3-0.3,9.4c3.3,3,6.4,1.2,9.5-0.6c2.4-1.4,4.6-3.3,7.5-3.7c-0.1,2.1-0.2,4.3-0.4,6.4
		c-1,11.6-5.1,22.5-7.9,33.7c-2,7.8-5.6,15.2-6.6,23.3c-8.6,9.7-17.2,19.5-27.2,27.8c-31.7,26.2-64.8,50.7-102.6,67.6
		c-25.4,11.3-51.9,19.3-79.1,25.2c11.8-20.2,13.8-41.3,8.2-63.3c17.3,0.5,30.5-6.9,40-21.1c2.5-3.8,4.7-8.1,1.8-12.9
		c4.4-8.1,9.2-16,11.5-25.2C535,842.4,535.7,840,535.7,837.5z"/>
	<path class="st4" d="M528.1,778.3c0.7,3.2-2,3.1-3.7,3.5c-14,3.7-28,7.3-42.1,10.7c-22.5,5.5-44.5,12.5-67.3,16.7
		c-6.9,1.3-7.8,0.8-10.5-5.8c-5.1-12.5-10-25-15-37.5c-0.8-1.9-1.5-3.1,1.4-4.5c30.1-14.6,59.9-29.6,88.7-46.8
		c7.9-4.7,15.7-9.3,24.2-12.9c2.4-1,4.1-1.3,4.8,1.8c5.8,24.2,15.1,47.6,19.2,72.3C528,776.6,528,777.5,528.1,778.3z"/>
	<path class="st4" d="M254,739.8c11,3.9,21.3,7.1,31.3,11.1c18.4,7.4,37.6,11.2,57.2,13.1c9.4,0.9,9.2,1,9.4,10.4
		c0.3,12.4-1,24.6-2.8,36.8c-0.5,3.7-2.3,5.5-5.7,6.4c-19.3,5.4-38.9,9-59.1,8.2c-9.3-0.4-17.7-3.9-26.2-7c-1.5-0.5-1.9-1.6-1.9-3.1
		C255.5,790.8,254.8,765.9,254,739.8z"/>
	<path class="st20" d="M476.5,921c-0.5,11.2-1.7,20.5-4.4,29.4c-3.2,10.8-9.6,14.3-20.5,11.5c-6.5-1.7-12.3-5-18-8.4
		c-6.8-4.1-13.4-8.7-20.7-11.9c-12.4-5.6-21.5-3.7-30.5,6.4c-4,4.5-7.1,9.6-10.1,14.8c-2.3,4.1-5.3,4.6-9.2,2.6c-4-2-7.2-4.7-10-8.1
		c-5.7-7-10.3-14.7-14.4-22.7c-1.6-3-1.3-5.3,1.4-7.4c1.5-1.1,2.7-2.5,4.3-3.4c22.8-12.4,45.4-25.3,70.9-31.4
		c17.2-4.1,33.3,0.1,48.9,7.1C474.2,904,477.8,912.3,476.5,921z M440.9,937.6c4.2-0.4,7.5-3.4,11-5.8c3.5-2.4,6.9-5.1,10.8-0.5
		c0.8,1,2.1,1.1,3.2,0.5c1-0.5,1.2-1.4,0.9-2.6c-1.4-6-8.7-9.6-14.1-6.8c-3.1,1.6-6.4,3.1-9,5.3c-3.6,2.9-5.6,1.7-8-1.4
		c-2.3-2.9-4.9-5.5-7.6-7.9c-5.4-4.9-8.8-4.6-13.4,0.9c-1.3,1.5-2.6,3-3.6,4.8c-2.6,4.4-5.8,4.8-10,2.2c-3.6-2.3-7.4-4.4-11.1-6.6
		c-4.4-2.6-8.2-2-11.6,1.8c-4.2,4.7-8.8,9.1-12.1,14.6c-1.7,2.8-3.1,2.7-5.4,1c-2.4-1.8-4.9-3.5-7.5-5c-2.2-1.3-4.6-1.6-6.1,1
		c-1.4,2.5-0.2,4.5,2,5.9c3.5,2.3,6.9,4.7,10.5,6.7c5.6,3.2,9,2.2,11.9-3.4c2.6-5,5.7-9.7,9.2-14.2c4.2-5.4,4.2-5.4,9.9-2
		c3.8,2.3,7.6,4.7,11.8,6.3c4.2,1.5,7.8,1,10.7-2.7c1.7-2.2,3.6-4.4,5.3-6.6c1.6-2,3.1-2.1,4.9-0.2c3.8,4,7.6,7.9,11.4,11.9
		C436.5,936.4,438.2,937.6,440.9,937.6z"/>
	<path class="st65" d="M533.8,804c0.6,10.4-0.5,20.7-1.9,31c-2.9,0.8-3.4,3.2-4,5.7c-3.8,14.7-10.7,27.5-23.1,36.8
		c-18.3,13.8-44.5,12.4-61.5-3.1c-16-14.5-22.2-33.4-25.6-53.8c-0.6-3.4,1.7-3,3.4-3.4c1.9-0.4,3.7-1,4.1,2.3
		c1.3,10.5,5.6,20,10.6,29.2c10.7,19.6,40.8,26.9,58.2,18.8c6.5-3,11.3-7.6,14.7-13.7c5.8-10.3,9.3-21.3,9.3-33.2
		c0-7.6-1.6-9-9.2-8.9c-1,0-2,0-3.3,0c0.5-2.4,2.6-3.5,3.6-5.2c1.1-1.9,2-3.8,2.7-5.9c0.8-2.3-1.4-5.7,1.1-6.9
		c4.2-1.9,8.8-3,13.3-3.9c2.3-0.5,2,2.2,2.5,3.6C530.1,797.2,529.9,801.6,533.8,804z"/>
	<path class="st66" d="M394.2,846c7.7,0,15.2,1.6,22.4,4.1c5.2,10.5,12.2,19.6,20.6,27.7c-0.5,2.3,1,4.3,0.9,6.5
		c-14.8-1.5-28.6,2.2-42.2,7.3c-9.7,3.7-19.4,7.7-29,11.6c-2.3,0.9-4.5,2.1-6.6,3.4c-7.5,4.9-8.1,4.9-13.3-2.6
		c-1.7-2.4-2.7-5.3-4.1-7.9c0.9-1.8,2.2-0.8,3.4-0.5c14.2,2.9,27-9.5,24.5-23.8c-0.1-0.8-0.5-1.6-1.4-1.8c0.1-1.5,0.1-3,0.4-4.4
		c1.4-7.5,0.1-9.9-7.3-12.3c5.4-1.9,10.9-1.2,16.3-2c3.9-0.6,7.9-0.8,11.9-1.1C393.2,850,394.5,848.7,394.2,846z"/>
	<path class="st66" d="M338,906c1.6,2,3.2,3.8,5.4,5.2c2.4,1.5,2.1,2.7-0.3,4.3c-15.5,10.5-16.2,13.7-7,29.9
		c3.1,5.4,6.6,10.6,10.7,17c-7-2.7-12.8-5.2-18.3-8.5c-8.6-5.3-16.3-11.6-22.9-19.2c-8.4-9.6-13.2-20.5-12.1-33.5
		c0.5-0.4,1.1-0.8,1.4-1.3c3.6-5.6,3.6-5.6,8.2-1.3c7.3,6.7,15.6,10.6,25.7,9.3C332,907.5,335,906.6,338,906z"/>
	<path class="st67" d="M331.1,615.1c-2.2-7.3-3.5-14.7-3.3-22.5c0.3-9.2,2.4-17.7,6.9-25.7c0.9-1.6,2.4-3.2,0.6-5.4
		c-8.8-10.5-7.7-22.1-3.3-33.8c1.7-4.5,4.2-8.7,6.6-12.8c1.3-2.2,1.4-3.6-0.5-5.6c-10.7-11.2-14.5-24.5-10.8-39.5
		c6.9-28,19.4-53.3,37.6-75.8c0.5-0.7,1.1-1.3,2.1-1.1c-0.8,4-3.7,6.9-5.7,10.3c-11,19.2-21,38.9-26.6,60.5
		c-1.7,6.7-2.4,13.5-1.4,20.3c1.1,7,4.4,12.7,9.9,17.4c6.1,5.2,6.1,6.4,2,13c-5.6,9-9.9,18.5-10.2,29.3c-0.2,8.4,2.8,12.7,10.8,15.1
		c2.4,0.7,2.5,1.3,1.4,3.2c-8.2,13.9-11.3,28.6-7.1,44.5c0.4,1.6-0.5,2.1-1.4,2.8C336.1,611.3,333.6,613.2,331.1,615.1z"/>
	<path class="st67" d="M369,390c2.8-41.7,3.9-83.4,2.9-125.1c-0.2-10.2-1.9-20.1-7.7-29c-2.5-3.8-7-5.1-9.1-8.9
		c6.6-7.6,11.9-7.1,16.2,1.8c4.4,9.1,5.9,19,6.7,28.9c2.3,30.4,1.3,60.8,0.1,91.2c-0.4,9.1-0.8,18.3-1.1,27.4
		C376.6,382.2,372.6,386,369,390z"/>
	<path class="st24" d="M409.8,826.2c-13.3-0.2-15.5-1.6-19.6-14.4c-4.1-13-7.5-26.2-11.2-39.2c-0.5-1.9-0.7-3.8-2.7-5
		c-4.4-2.7-5-7.1-3.9-11.4c3-12,10.4-21.4,18.6-30.2c2.3-2.4,5.5-3.7,7.5,0.9c-5.5,9.1-10.9,18.2-16.5,27.3c-1.8,2.9-2,5.7-0.8,8.9
		c6,15.5,11.9,31,17.8,46.5c1.2,3.1,2.6,6.3,5.8,7.1C410.4,818.1,410.3,821.9,409.8,826.2z"/>
	<path class="st15" d="M283.1,915.6c-5.8-6.9-10.9-12.5-14.7-19.2c-1.9-3.3-0.8-6.6,1.5-9.2c2.7-3.2,2.2-5.9-0.3-8.9
		c-3.5-4.2-6.9-8.6-9.4-13.5c-2.7-5.4-1.5-7.9,4.2-9.6c0.2,0,0.3-0.1,0.5-0.1c10.8-3.1,12-2.4,15.1,8.3c0.4,1.4,0.8,2.9,1.2,4.3
		c2.4,7.3,4.1,14.4,1.8,22.3C280.8,897.8,281.8,906,283.1,915.6z"/>
	<path class="st24" d="M515.8,698.2c6.3-1.4,8.1,3.2,9.9,7.6c5.1,12.5,8.7,25.5,12.3,38.4c2.2,8,4.6,15.9,6.2,24.1
		c1.7,8.5,1.2,16.1-5.2,22.6c-2.7-0.9-3.2-3.8-3-5.6c1.7-11.6-2.3-22.3-5-33.1c-4.3-17.4-10.9-34.1-14.9-51.5
		C516,699.9,515.9,699,515.8,698.2z"/>
	<path class="st67" d="M681.8,846.7c1-8.1,4.6-15.5,6.6-23.3c2.9-11.2,6.9-22.1,7.9-33.7c0.2-2.1,0.3-4.3,0.4-6.4
		c9-3,15.6,1.9,14.4,11.3c-1.8,14.9-9.2,27.5-17.9,39.4C690,838.6,686.7,843.5,681.8,846.7z"/>
	<path class="st65" d="M330.4,890.7c-8.2,2-15-0.4-20.8-5.6c-12.2-11-18.4-25.4-22.4-40.9c-3-11.6-2.8-11.6,9.2-11.3
		c0.8,0,1.6,0.2,2.4,0.2c-1.8,10.8-1.8,10.8,11.4,14.2c-9.7,8.6-3.9,17.4-0.5,26C313.4,882.8,319.8,889.2,330.4,890.7z"/>
	<path class="st24" d="M347,742.1c2.7-1.6,5.1-1.2,7,1.4c3.7,5,9,8.9,10.3,15.6c3.7,18.1,2.5,36,0.4,54.1c-0.9,7.6-3.8,12.5-11,14.8
		c-2.1-3.1-3.2-5.7-0.2-9.5c2.9-3.7,2.8-9.1,3.4-13.8c1.3-12.5,2.3-25,3.3-37.5c0.3-3.5-0.9-6.5-2.8-9.4
		C354,752.5,350.5,747.3,347,742.1z"/>
	<path class="st66" d="M429,961c6.5,3.2,12.7,6.9,21,9.4c-23.2,3.6-45,5.3-66.9,1.6c0.3-2.1,2-2.9,3.4-4.1c8.8-6.8,19-7.2,29.5-6.3
		C420.3,961.9,424.8,963.4,429,961z"/>
	<path class="st67" d="M429,961c-4.2,2.4-8.7,0.9-13,0.6c-10.5-0.9-20.6-0.5-29.5,6.3c-1.4,1.1-3.1,2-3.4,4.1
		c-2.1-0.3-4.2-0.6-6.8-1c4.1-7.1,8-13.7,13.4-19.4c4.9-5.2,10.6-6.5,17.2-3.7C414.8,951.3,422.1,955.8,429,961z"/>
	<path class="st67" d="M523,870c2.8,4.8,0.7,9.1-1.8,12.9c-9.5,14.2-22.7,21.6-40,21.1c-3-3.3-5.8-6.7-9.5-9.4
		c18.8,1.7,33.6-5.6,46-18.7C519.5,873.9,521.2,871.9,523,870z"/>
	<path class="st68" d="M483,862.1c11.2-10.7,11.8-24.1,13.8-36.8c0.6-3.7,1.8-4.8,5.3-4.4c1.6,0.2,3.3,0.1,5,0
		c2.2-0.1,3.1,0.8,2.9,3c-1.4,12.1-4.2,23.7-13,32.7C493.6,859.9,489.4,861.9,483,862.1z"/>
	<path class="st67" d="M680.1,778.2c-1-3.4,1.2-5.6,3.1-7.9c10.1-12,16-25.9,18.7-41.2c3.4-0.3,4.7,2,5.6,4.6
		c1.7,4.9,1.8,9.7,0,14.6c-3.7,9.8-9.9,17.6-18.4,23.7C686.2,774.1,683.1,776.1,680.1,778.2z"/>
	<path class="st67" d="M338,906c-3,0.7-6.1,1.6-9.2,2c-10.1,1.3-18.5-2.5-25.7-9.3c-4.6-4.3-4.6-4.3-8.2,1.3
		c-0.3,0.5-0.9,0.9-1.4,1.3c-1.2-6.5,1-12.4,3.2-19.1c1.9,2,3.4,3.7,4.9,5.3c8.1,8.9,17.8,13.7,30.1,12.1
		C336.3,898.9,336,903.7,338,906z"/>
	<path class="st67" d="M369.2,870c0.9,0.2,1.3,1,1.4,1.8c2.5,14.3-10.2,26.7-24.5,23.8c-1.2-0.3-2.5-1.2-3.4,0.5
		c-2.3-4.6-3.3-9.5-4.6-15.2c2.4,1,4.2,1.8,6.1,2.5c11,4.1,18.2,0.9,22.8-9.9C367.7,872.4,367.5,870.6,369.2,870z"/>
	<path class="st68" d="M327.8,883.1c-5.1-1.8-8.2-4.7-10.4-8.5c-2.5-4.3-4.4-9-6.1-13.7c-1.2-3.2-0.2-5.8,1.8-8.3
		c1.5-1.9,2.5-2,3.5,0.3c2.4,5.8,5.5,11,10.4,15c0.8,0.6,1,1.4,0.7,2.2C326.4,874.2,327.2,878.3,327.8,883.1z"/>
	<path class="st19" d="M363.2,864.2c-0.2,4.5-2.6,8.2-4.9,11.8c-1.3,2.1-3.8,3-6.1,2.7c-4.5-0.6-8.7-2.2-12.2-5.2
		c-1.7-1.5-2.9-3.3-1.1-5.6c6.4,3,12.6,2.9,18.5-1.4C359,865.3,360.9,863.9,363.2,864.2z"/>
	<path class="st68" d="M363.2,864.2c-2.3-0.3-4.2,1.1-5.8,2.3c-5.9,4.3-12,4.4-18.5,1.4c0.7-5.6,5.3-5.8,9.4-6.7
		c3.5-0.8,7.1-1.7,10.6-1.8C361.5,859.4,365.8,859.1,363.2,864.2z"/>
	<path class="st67" d="M274.1,671c2.4,0.1,3.7-1.8,5.3-3c2.1-1.6,4.1-2.4,6.7-1.9c-2.9,6.1-5.8,12.2-9,18.9
		C275.5,680,274.8,675.5,274.1,671z"/>
	<path class="st68" d="M483.1,846.1c-0.3,3.1-1.7,5.8-5.6,5.9c-3.3,0.1-4.8-2-4.7-5.1c0.1-3.9,2.9-5.5,6.3-5.7
		C481.9,841,483.1,843,483.1,846.1z"/>
	<path class="st68" d="M497.4,805.5c-1.9-1.6-2.2-4.5-1.7-6.1c0.8-2.7,4.3-2.2,6.7-3c1.4-0.5,1.6,0.7,1.4,1.8
		C503.5,800.6,499.2,805.7,497.4,805.5z"/>
	<path class="st68" d="M310.2,836.4c-0.7,1.6,1.4,4.7-2.5,4.5c-2.2-0.1-4.1-0.7-3.5-3.5c0.4-2.2-0.1-5.2,3.7-5.3
		C311.3,832,309.6,834.8,310.2,836.4z"/>
	<path class="st67" d="M438,884.4c0.1-2.2-1.4-4.2-0.9-6.5c3.5,2.5,7,5,10.6,7.5c-0.1,0.3-0.2,0.5-0.3,0.8
		C444.3,885.5,441.2,884.9,438,884.4z"/>
	<path class="st19" d="M333.7,852.9c-0.2,1.4-1.2,1.9-2.4,2c-1.4,0-2.2-0.7-2.1-2.1c0-1.3,0.5-2.4,2-2.4
		C332.5,850.5,333.4,851.5,333.7,852.9z"/>
	<path class="st67" d="M366.9,392.9c-0.2-1.6,0.3-2.7,2-2.9C369,391.4,368.5,392.6,366.9,392.9z"/>
	<path class="st10" d="M274.6,846.5c0.8,1.3,0.3,1.6-1,1.2C273.9,847.3,274.2,846.9,274.6,846.5z"/>
	<path class="st2" d="M649.9,674.1c-3.3,1.9-5.7,0.9-7.1-2.5c-2.5-6-6.6-11.1-9.9-16.6c2.9-4.7,0-8.3-2.3-11.9
		c-12.9-20-29.5-36.3-48.7-50.2c-2-1.4-4.4-2.4-5.8-4.6c4.8-3.4,3.9-8.4,3.4-13.1c-0.6-5.5-2.7-10.6-5.3-15.5
		c-1.1-2-1.2-3.3,0.6-5.2c7.2-7.6,9-16.8,7.3-26.9c-1.3-7.9-5.3-14.7-10-21c-2.1-2.9-2.1-4.5,0.2-7.6c11.6-16.1,17.3-33.5,11.1-53.5
		c-4.3-13.9-11.8-25.9-20.3-37.5c-14.2-19.3-29.9-37.1-49.9-50.6c-1.8-1.2-2.3-2.7-2.4-4.6c-0.6-7.3-1.1-14.6-2-21.8
		c-3.5-28.7-6-57.6-5.5-86.5c0.2-15.9,2.3-31.5,9-46.2c1.2-2.6,2.4-3.7,5-3.4c5.3,1.8,9.1,5.5,12.3,9.8
		c16.3,21.8,29.7,45.4,40.3,70.4c19,44.5,33.7,90.5,48.3,136.6c17.8,56.3,31.4,113.4,36.1,172.3
		C656.6,614.2,654.3,644.2,649.9,674.1z"/>
	<path class="st69" d="M576.2,588.2c1.4,2.2,3.8,3.2,5.8,4.6c19.2,13.9,35.8,30.2,48.7,50.2c2.3,3.5,5.2,7.2,2.3,11.9
		c-3.8,1.1-6-1-7.8-3.8c-15.4-24.7-36.8-43.2-60.8-59.1c-9.5-6.3-19.6-11.2-31.1-13c-2.2-0.3-4.5-0.9-4.3-3.8c0.1-3,2.5-3.2,4.7-3.3
		c6.8-0.3,13.1,2.1,19.3,4.6c3.5,1.4,6.9,3.2,11.2,5.2c-1.2-13.6-6.3-24.5-15.7-33.3c-1.8-1.7-3.8-3.2-5.6-4.9
		c-1.7-1.6-3-3.7-1.2-5.7c1.9-2.2,3.5,0.1,5.1,1.2c2.5,1.7,4.8,3.7,7.3,5.2c1.9,1.1,2.9,4.7,5.4,3.4c3.4-1.9,6.8-4.3,7.6-8.8
		c0.5-2.7,0.5-5.4-0.3-7.9c-3-9.7-7.1-18.7-14.5-25.8c-6.7-6.5-13.7-12.7-20.5-19.1c-1.7-1.6-4.1-3.3-1.9-5.8c2.1-2.3,4.3-0.5,6.1,1
		c4.8,4.1,9.5,8.3,14.2,12.6c1.6,1.5,2.5,1.7,4.5,0.3c19.2-12.8,20.1-30.8,12.7-47.3c-11.3-24.9-28.1-46-48.1-64.4
		c-7.6-7-15.7-13.4-23.6-20.1c-1.3-1.1-2.5-2.2-3.7-3.4c-1.3-1.3-1.6-3-0.5-4.6c1-1.5,2.6-1.4,4.1-0.9c1.1,0.4,2.1,1,3.6,1.8
		c-1.1-9.3-1.9-18.2-3.3-27c-2.4-15.8-2.8-31.8-3.8-47.7c-1.1-17.6-1.7-35.3-0.8-52.9c0.5-10.1,1.8-20.2,5.8-29.7
		c4.9-11.4,13.3-14.7,24.7-9.6c6.3,2.8,11,7.4,15.1,12.8c16.9,22.7,30.4,47.4,41.1,73.5c27.4,67.2,50.1,136.1,67.6,206.5
		c8.3,33.6,14.1,67.8,16.4,102.4c1.8,27.6,0.9,55.3-3.1,82.7c-0.8,5.6-1,11.3-2.6,16.8c-0.5,1.7-0.9,3.3-3,3.3c-2.1,0-2-1.8-2.6-3.1
		c-1.3-2.9,0.1-6-0.6-8.9c4.4-29.9,6.7-59.9,4.3-90c-4.7-59-18.3-116.1-36.1-172.3c-14.6-46.1-29.3-92.1-48.3-136.6
		c-10.7-25-24-48.6-40.3-70.4c-3.2-4.3-7-8.1-12.3-9.8c-6.5-2.9-10-1.9-13.1,4c-2.1,4-3.3,8.4-4.1,12.8c-2.7,15.7-3.3,31.4-2.1,47.2
		c1.3,17.6,2.1,35.2,3.1,52.8c0.8,14.4,3.9,28.7,3.2,43.3c-0.2,3.2,0.8,5.1,3.3,7.1c14.3,11,27.4,23.3,38.6,37.5
		c11.4,14.6,22.7,29.3,29.4,46.7c7.9,20.5,2.9,39.7-14.1,53.2c-2.3,1.9-2.3,2.7-0.5,4.9c6.6,7.9,11.2,16.9,13.4,27
		c1.9,8.3-0.5,15.3-7.8,19.9c-3.4,2.1-2.9,3.7-1.3,6.6c3.8,6.7,7.5,13.9,5.5,21.7C569.1,585.4,571.7,587,576.2,588.2z"/>
	<path class="st69" d="M440.9,937.6c-2.7-0.1-4.4-1.3-6-2.9c-3.8-4-7.7-7.9-11.4-11.9c-1.8-1.9-3.3-1.8-4.9,0.2
		c-1.7,2.2-3.6,4.4-5.3,6.6c-2.9,3.7-6.5,4.2-10.7,2.7c-4.2-1.6-8-4-11.8-6.3c-5.7-3.4-5.7-3.4-9.9,2c-3.5,4.5-6.6,9.2-9.2,14.2
		c-2.9,5.6-6.3,6.5-11.9,3.4c-3.6-2-7-4.4-10.5-6.7c-2.2-1.4-3.5-3.4-2-5.9c1.5-2.6,3.9-2.3,6.1-1c2.6,1.5,5.1,3.2,7.5,5
		c2.3,1.7,3.7,1.8,5.4-1c3.2-5.5,7.9-9.9,12.1-14.6c3.4-3.8,7.2-4.4,11.6-1.8c3.7,2.2,7.5,4.3,11.1,6.6c4.1,2.6,7.4,2.2,10-2.2
		c1-1.7,2.4-3.2,3.6-4.8c4.6-5.5,8-5.8,13.4-0.9c2.7,2.5,5.3,5.1,7.6,7.9c2.4,3.1,4.5,4.3,8,1.4c2.7-2.2,5.9-3.7,9-5.3
		c5.4-2.8,12.7,0.8,14.1,6.8c0.3,1.1,0.1,2-0.9,2.6c-1.1,0.6-2.4,0.5-3.2-0.5c-3.9-4.6-7.3-1.9-10.8,0.5
		C448.4,934.2,445.1,937.2,440.9,937.6z"/>
	<path class="st67" d="M576.2,588.2c-4.4-1.2-7-2.8-5.5-8.6c2.1-7.9-1.6-15-5.5-21.7c-1.6-2.9-2.1-4.5,1.3-6.6
		c7.3-4.5,9.7-11.5,7.8-19.9c-2.3-10.1-6.8-19.1-13.4-27c-1.8-2.2-1.8-3,0.5-4.9c16.9-13.5,22-32.7,14.1-53.2
		c-6.8-17.5-18-32.2-29.4-46.7c-11.2-14.2-24.3-26.5-38.6-37.5c-2.5-2-3.4-3.9-3.3-7.1c0.7-14.5-2.4-28.8-3.2-43.3
		c-1-17.6-1.8-35.2-3.1-52.8c-1.2-15.9-0.6-31.6,2.1-47.2c0.8-4.4,1.9-8.8,4.1-12.8c3.1-5.9,6.7-7,13.1-4c-2.7-0.3-3.9,0.8-5,3.4
		c-6.7,14.7-8.7,30.3-9,46.2c-0.4,29,2,57.8,5.5,86.5c0.9,7.3,1.4,14.6,2,21.8c0.2,1.9,0.7,3.4,2.4,4.6c20,13.5,35.7,31.3,49.9,50.6
		c8.5,11.6,16,23.7,20.3,37.5c6.3,19.9,0.5,37.4-11.1,53.5c-2.2,3.1-2.3,4.8-0.2,7.6c4.7,6.3,8.7,13.1,10,21
		c1.7,10-0.1,19.3-7.3,26.9c-1.8,1.9-1.6,3.3-0.6,5.2c2.6,4.9,4.7,10,5.3,15.5C580.1,579.8,580.9,584.8,576.2,588.2z"/>
</g>
</svg>
