<?xml version="1.0" encoding="utf-8"?>
<!-- Generator: Adobe Illustrator 25.0.0, SVG Export Plug-In . SVG Version: 6.00 Build 0)  -->
<svg version="1.1" id="图层_1" xmlns="http://www.w3.org/2000/svg" xmlns:xlink="http://www.w3.org/1999/xlink" x="0px" y="0px"
	 viewBox="0 0 1200 1600" style="enable-background:new 0 0 1200 1600;" xml:space="preserve">
<style type="text/css">
	.st0{fill:#060604;}
	.st1{fill:#EDCF5D;}
	.st2{fill:#FBF1EE;}
	.st3{fill:#ECCF5D;}
	.st4{fill:#F4FB95;}
	.st5{fill:#A0918B;}
	.st6{fill:#FBFBFB;}
	.st7{fill:#927233;}
	.st8{fill:#935A40;}
	.st9{fill:#623C2A;}
	.st10{fill:#FEFEFE;}
	.st11{fill:#040302;}
	.st12{fill:#090805;}
	.st13{fill:#9C5B46;}
	.st14{fill:#070705;}
	.st15{fill:#ECCE5D;}
	.st16{fill:#F2F2F2;}
	.st17{fill:#93583F;}
	.st18{fill:#A1918B;}
	.st19{fill:#513123;}
	.st20{fill:#FAFAFA;}
	.st21{fill:#030202;}
	.st22{fill:#060605;}
	.st23{fill:#A0908A;}
	.st24{fill:#937234;}
	.st25{fill:#E6C95B;}
	.st26{fill:#864E37;}
	.st27{fill:#513124;}
	.st28{fill:#B0603E;}
	.st29{fill:#FAF0ED;}
	.st30{fill:#F9F9F9;}
	.st31{fill:#917133;}
	.st32{fill:#9E8F89;}
	.st33{fill:#E7CA5B;}
	.st34{fill:#92583F;}
	.st35{fill:#050503;}
	.st36{fill:#FCFBFB;}
	.st37{fill:#080704;}
	.st38{fill:#070605;}
	.st39{fill:#FAF1ED;}
	.st40{fill:#F4FA95;}
	.st41{fill:#F8F8F7;}
	.st42{fill:#90573E;}
	.st43{fill:#030302;}
	.st44{fill:#080805;}
	.st45{fill:#FBF1ED;}
	.st46{fill:#FBFBFA;}
	.st47{fill:#927234;}
	.st48{fill:#F69376;}
	.st49{fill:#7B2D2D;}
	.st50{fill:#FCFCFC;}
	.st51{fill:#EF5A2D;}
	.st52{fill:#F0CC2D;}
	.st53{fill:#9F8F8A;}
	.st54{fill:#FAFAF9;}
	.st55{fill:#F2A78E;}
	.st56{fill:#040403;}
	.st57{fill:#070604;}
	.st58{fill:#A0908B;}
	.st59{fill:#F7F7F7;}
	.st60{fill:#E8CB5B;}
	.st61{fill:#8F563E;}
	.st62{fill:#513224;}
	.st63{fill:#080705;}
	.st64{fill:#FCFCFB;}
	.st65{fill:#F9F8F8;}
	.st66{fill:#FAF0EC;}
	.st67{fill:#9F908A;}
	.st68{fill:#91573E;}
	.st69{fill:#070704;}
	.st70{fill:#F5FC96;}
	.st71{fill:#9C9C53;}
	.st72{fill:#9A9A52;}
	.st73{fill:#F2F994;}
	.st74{fill:#A17628;}
	.st75{fill:#90573F;}
	.st76{fill:#090806;}
	.st77{fill:#523123;}
	.st78{fill:#7C4031;}
	.st79{fill:#ED866D;}
	.st80{fill:#F3E9E6;}
	.st81{fill:#4F3023;}
	.st82{fill:#060606;}
	.st83{fill:#89533B;}
	.st84{fill:#050403;}
	.st85{fill:#090909;}
	.st86{fill:#EDCF5E;}
	.st87{fill:#050504;}
	.st88{fill:#060504;}
	.st89{fill:#955A41;}
	.st90{fill:#080703;}
	.st91{fill:#090807;}
	.st92{fill:#070603;}
	.st93{fill:#0A0905;}
	.st94{fill:#937335;}
	.st95{fill:#955A40;}
	.st96{fill:#955940;}
	.st97{fill:#EDD05E;}
	.st98{fill:#8F7032;}
	.st99{fill:#945940;}
	.st100{fill:#EED05E;}
	.st101{fill:#503123;}
	.st102{fill:#EEEEEE;}
	.st103{fill:#0D0C0A;}
	.st104{fill:#E3C659;}
	.st105{fill:#967535;}
	.st106{fill:#9D7D38;}
	.st107{fill:#745A29;}
	.st108{fill:#847334;}
	.st109{fill:#907134;}
	.st110{fill:#E5C85B;}
	.st111{fill:#503124;}
	.st112{fill:#927133;}
	.st113{fill:#E0DDD4;}
	.st114{fill:#987836;}
	.st115{fill:#977636;}
	.st116{fill:#CCC4A4;}
	.st117{fill:#523224;}
	.st118{fill:#0B0908;}
	.st119{fill:#8F7135;}
	.st120{fill:#050404;}
	.st121{fill:#EDD05D;}
	.st122{fill:#F3FA94;}
	.st123{fill:#9A9A51;}
	.st124{fill:#999951;}
	.st125{fill:#937334;}
	.st126{fill:#FAF0EE;}
	.st127{fill:#F3FA95;}
	.st128{fill:#989851;}
	.st129{fill:#A2792A;}
	.st130{fill:#F1F893;}
	.st131{fill:#A17729;}
	.st132{fill:#050502;}
	.st133{fill:#947335;}
	.st134{fill:#917233;}
	.st135{fill:#9B9B52;}
	.st136{fill:#F9EFEC;}
	.st137{fill:#9A782F;}
	.st138{fill:#979752;}
	.st139{fill:#F2F893;}
	.st140{fill:#8C8E4F;}
	.st141{fill:#B5B96E;}
	.st142{fill:#0F0F09;}
	.st143{fill:#9C9C52;}
	.st144{fill:#F5FB95;}
	.st145{fill:#F3F994;}
	.st146{fill:#A17728;}
	.st147{fill:#917134;}
	.st148{fill:#090706;}
	.st149{fill:#8E6F32;}
	.st150{fill:#93593F;}
	.st151{fill:#907033;}
	.st152{fill:#060505;}
	.st153{fill:#C8C3AF;}
	.st154{fill:#533324;}
	.st155{fill:#533426;}
	.st156{fill:#0E0C0A;}
	.st157{fill:#907133;}
	.st158{fill:#583627;}
	.st159{fill:#0A0907;}
	.st160{fill:#573526;}
	.st161{fill:#0C0B09;}
	.st162{fill:#503023;}
	.st163{fill:#543325;}
	.st164{fill:#B7B3A1;}
</style>
<g>
	<path class="st22" d="M281.8,778.8c-1.7-7-3.3-13.5-4.8-20.1c-0.5-2-2-1.5-3.2-1.4c-4.8,0.4-8.1-1.2-9.5-6c-0.2-0.6-0.6-1.2-1-1.7
		c-30.4-34.5-47.9-75.4-60.6-119c-10.4-35.5-16.1-71.7-17.8-108.6c-1.4-30.8-2.5-61.7,0.4-92.4c4.3-46.3,10.3-92.3,30.8-135
		c15.9-33,37.2-61.9,65.8-85c11.7-9.5,24.1-17.9,39.2-20.9c14.2-2.8,27.2,2.7,34.6,15.2c7.3,12.2,10.4,25.9,12.4,39.8
		c5.2,37,7.4,74.2,12.2,111.2c7.8,60.7,19.1,120.6,44.6,176.9c4.1,9,9.7,17,14.5,25.6c1.1,2,2.4,1,3.8,0.8c7.1-1.2,14-4.5,21.6-2.4
		c1.2,0.3,1.7-0.7,2.3-1.5c20.9-30.4,43.2-60,61.7-92c15-26.1,28.8-52.9,45.2-78.2c34.9-53.6,69.9-107.1,109.1-157.7
		c13.9-17.9,29.6-34.3,47.4-48.5c4.3-3.4,8.8-6.5,13.7-9.2c15.2-8.3,29.6-5.5,40.4,8c7.7,9.6,11.5,20.9,14.5,32.6
		c4.3,16.9,5.2,34.2,5.7,51.5c2,64.6-1.3,128.9-13.8,192.5c-12.3,62.1-31,122.3-60.9,178.3c-16.1,30.2-36.6,57.5-58.5,83.8
		c-1.2,1.4-1.7,2.7-1.3,4.5c0.7,3.1,1.5,6.2,1.7,9.3c0.3,5.1,3.1,6.7,7.8,6.4c9-0.6,17.9-1,26.9-1.6c20.7-1.5,29.9,13.1,21,32.4
		c-3.7,8-9.2,14.5-17.1,20c3.7,1.5,6.7,2.7,9.6,4.1c11.7,5.5,15.5,15.4,10.4,27.3c-3.2,7.5-7.8,13.8-13.4,19.7
		c-20.1,21.5-42.7,40.1-67.4,56.1c-25.4,16.5-50.9,32.9-78.5,45.4c-32.4,14.7-66.9,21.8-102,26.5c-33.6,4.5-66.8,3.8-99.5-5.4
		c-26.3-7.3-48-21.9-64.7-43.5c-4-5.2-7.1-10.9-8.8-17.3c-0.6-2.3-1.8-3.4-3.9-4c-4.6-1.3-8.4-4-12.2-6.7
		c-6.7-4.9-8.5-11.1-4.6-18.3c1.9-3.5,1.2-5.4-1.7-7.4c-1.2-0.8-2.3-2-3.3-3c-8.5-8.4-8.7-14.9-0.9-23.8c5.6-6.4,12.1-11.9,18.9-17
		c2-1.5,2.8-2.9,2-5.4c-1.2-4.2-2-8.4-2.8-12.7c-1.3-6.9-2.9-13.1-11.2-15c-2.8-0.6-4.9-3.4-6.7-5.8c-1.4-1.8-2.5-3.9-0.4-5.8
		c1.8-1.6,3.7-0.7,5.4,0.7C276.7,776.6,278.5,778.3,281.8,778.8z M286.8,762.7c0.8,3.3,1.6,6.6,2.5,10.3c1.7-3.9,3.2-7.5,4.7-11
		c1.3-1.8,2.9-3.4,3.6-5.9c-2.4,0-4.5-0.1-6.6,0C284.1,756.3,284.1,756.4,286.8,762.7z M348.9,857c-0.7,3.7,1.2,6.4,3.6,9
		c2.2,2.4,4.6,2.7,7,0.7c4.2-3.4,8.2-7.1,9.6-12.7c2-4.6-1-6.1-4.5-6.8C357.9,845.8,351.8,849.7,348.9,857z M329.1,750.1
		c-4.2-0.7-6.8,1.1-8.6,4.9c-4.3,9.3-5.3,19.1-4,29.1c0.5,3.9,1.3,7.8,2.1,11.7c0.3,1.6,1.1,3.5,3.2,3.1c2.3-0.4,1.2-2.4,1.2-3.7
		c-0.1-3.5-0.9-7-0.6-10.4C323.1,773,324.5,761.2,329.1,750.1c0-0.1,0.2-0.2,0.3-0.3c0,0,0-0.2,0-0.3
		C329.3,749.7,329.2,749.9,329.1,750.1z M300.9,254.3c-4.2,0.3-7.4,2.8-10.6,5.1c-9.8,7.1-17.8,16-24.5,26
		c-33.7,49.9-47.4,105.8-49.5,165.2c-0.7,20.5-0.1,40.9,2,61.3c1.9,19,4,38,7.3,56.8c5.7,33.2,15,65.6,23.6,98.1
		c2.2,8.2,4.6,16.3,8.9,25c0-4,0-6.8,0-9.6c0-2.8,0-5.7,0-8.5c0.2-10.6,3.6-13.6,14.3-12.5c9.3,0.9,18.6,1.7,27.8,2.4
		c1.3,0.1,3.3,0.9,3.6-1.4c1.4-9.2,7.2-16.3,11.2-24.3c3.9-3.1,5.2-6.5,3.6-11.9c-1.8-6.1-2.3-12.7-1-19.2c0.6-3.2,1-6.4,1.5-10
		c-2,0.5-3.4,0.9-4.8,1.2c-10.7,2.5-16.8-1.7-18.8-12.6c-1-5.5,0.3-10.9,0.9-16.3c1.2-10.4,4.6-20.2,8.6-30.3
		c-2.1,0.1-3.5,0.1-5,0.3c-15.6,1.8-26.7-8-27.3-23.7c-0.7-16.6,4.4-31.7,10.9-46.6c2.2-5,5.2-9.6,6.3-15c0.4-0.6,0.7-1.3,1.1-1.9
		c1.4-0.6,1.9-1.7,1.7-3.2c5.3-9.2,10.9-18.2,17.6-26.5c1.4-1.7,2.4-3.5,2.5-5.8c1-20.2,2-40.4,3.1-60.6c0.9-0.7,0.9-1.7,0.9-2.7
		c0.7-23.6,1.8-47.2,0.9-70.8c-0.3-7.9-1.2-15.9-4.6-23.3C310.6,253.9,306.5,252.3,300.9,254.3z M713.3,798.7
		c-8.5-4.3-17.4-7.8-25.1-13.5c-1.8-1.4-4.2-2.7-3.2-5.5c1.1-3.2,3.9-1.4,6-1.5c3.2,1,6.3,4,9.8,2.1c10.7-6,18-14.8,20.1-27.1
		c0.7-4.2-0.9-7.6-5.7-8.5c-7.2-1.9-14.5-0.7-21.7-0.1c-12.4,1.1-24.5,0.5-36.2-4.2c-1.5-1.2-3.9-1.6-3.5-4.3
		c0.2-1.6,1.3-2.5,2.7-2.3c6.3,1.1,6.3-2.2,5.3-6.9c-0.7-3-0.6-6.3-0.9-9.4c-0.2-1.7,0.5-2.8,1.6-4c5.2-5.4,9.3-11.7,13.8-17.7
		c30.8-41.5,56.7-85.5,73.6-134.8c20-58.3,33.8-117.7,39.6-178.9c4.3-45.7,5.4-91.5,3-137.3c-0.9-16.3-3.3-32.5-9.6-47.8
		c-2.5-6-5.4-11.8-10.4-16.3c-6.8-6.2-13.3-7.1-21.5-2.9c-5.8,2.9-11.1,6.7-16.1,10.9c-15.8,13.1-30.2,27.8-42.6,44.2
		c-46.8,61.9-91.5,125.5-130.1,192.9c-26.6,46.3-55.2,91.1-87,133.9c-2.6,3.4-5.4,6.5-10.1,6.5c-10-0.1-19.4,2.6-28.9,4.9
		c-37.2,9.2-70.8,25.4-98.3,52.6c-10.8,10.7-20.6,22.2-26.4,36.6c-1.3,3.2-0.9,4.2,2.9,4.5c12.1,1,24.1,2.7,36.1,5.1
		c5.9,1.2,8.2,4,8.7,9.9c0.3,3,0.7,5.9,1.1,8.9c-0.8,12.8-1.7,25.5-2.4,38.3c-0.4,7.2-1.8,13.3-9.9,15.8c-5.7,1.8-5.6,2.1-2.3,7.2
		c2.4,4.5,4.9,9,7.2,13.6c11,21.9,14.3,45.3,13.8,69.5c-0.1,3.7,0.8,4.2,4.3,3.8c4.9-0.5,9.9-0.3,14.9-0.1c2.7,0.1,5.7,0.2,7.4,3.1
		c-0.8,3.5-3.6,3.2-5.9,2.7c-5-1.2-9.8,0.2-14.6,0.6c0.1,1.6,1.1,2.2,1.9,2.9c2.7,6.6,0.4,12.3-3.5,17.6c-9.9,13.4-17,13.6-27.4,0.4
		c0.5,4.8,1.4,8.9,2.8,12.8c1.8,5.2,3.5,10.3,5.4,15.5c0.5,1.4,1.8,2.8,0.2,4c-2,1.4-3-0.5-4-1.7c-4.6-5.7-7.5-12.2-9-19.2
		c-0.5-2.3-1.3-2.7-3.6-2.5c-13.5,1.1-26.9-8.7-30.5-22c3.3-2.7,4.7,0.2,6.2,2.2c5.8,7.5,13.1,12.2,22.8,12.4c1.1,0,2.8,1.1,3-1.3
		c0.1-1.9-1-2.2-2.5-2.3c-2.1-0.1-3.8-1.2-5.5-2.3c-7.2-4.6-10.9-11.8-12.5-19.6c-2.5-12.3-5-25.2,9-33.3c0.1-0.1,0.1-0.3,0.3-0.9
		c-8.5-0.8-12.4-5.8-13.6-14.1c-1.9-13.1-2.7-26.1,3.2-38.7c-4.7-0.5-7.7,0.7-9.7,5.2c-2.8,6.3-5.3,12.5-5.9,19.4
		c-0.3,3.3-0.3,7.5-2.2,9.5c-4.5,4.7-2.4,9.3-1.6,14.2c0.7,3.6,1.3,7.2,2.1,10.8c2.6,12.1,3,24.3,3.7,36.6
		c-0.5,4.6-1.2,9.2-1.4,13.8c-1,20.6,3.2,39.4,18.4,54.5c12.4,12.4,26.3,22.7,42.9,28.5c23.8,8.3,48.5,11.6,73.7,10.8
		c34.8-1.1,68.7-7.5,102.1-17.2c30.8-9,57.6-25.8,84.6-42.1c15.5-9.3,31-18.8,44.6-30.9c0.7-0.3,1.5-0.5,2.1-1
		c16-11.8,30.1-25.7,43.5-40.3c2.9-3.2,5-7,7-10.9C723.3,806.3,721.7,802.3,713.3,798.7z M332.3,617.3c0.9-0.7,2-1.2,2.8-2
		c11.1-11.2,23.8-20.3,37.2-28.4c16.6-10,34.1-18,52.7-23.7c3.3-1,3.6-2.2,1.7-4.8c-2.1-2.8-4-5.7-6-8.5c-2.2-4.8-4.5-9.6-6.7-14.5
		c-21.7-47.5-32.5-98.1-40.9-149.3c-6.8-41.1-8.9-82.8-14-124.1c-1.9-15.7-3.6-31.5-9.9-46.2c-6.9-16.3-18.3-21-34.6-14.1
		c-10.4,4.3-19.5,10.7-28.2,17.8c-34.8,28.9-58.5,65.5-72.2,108.2c-11.4,35.5-16.7,72.3-18.9,109.5c-2.8,48.3-2.3,96.7,6.1,144.5
		c9.4,52.9,25.8,103.3,57.4,147.8c0.8,1.1,1.1,2.9,3.2,3.1c-1.7-12.3-0.6-24.9-7.7-36.1c-3-4.7-4.7-10.3-6.2-15.7
		c-12.1-42.2-24.1-84.5-30.2-128.2c-2.9-21.1-5.4-42.2-6.8-63.4c-1.2-18.8-0.3-37.6,0.8-56.4c1.5-26.9,6.2-53.1,14.3-78.7
		c9-28.4,21.3-55.2,39.7-78.9c8.2-10.6,17.5-20.2,30.3-25.3c11.5-4.6,20-0.6,23.8,11.2c3,9.4,3.9,19.2,4.1,29
		c0.7,38.7-2.4,77.2-4.2,115.8c-0.3,7.2,0.6,14.7-4.8,21.4c-13.7,16.8-22.6,36.4-30.3,56.5c-3.8,10-6.3,20.4-5.5,31.2
		c1,11.9,7.8,18.1,19.5,18c2,0,4-0.2,6,0.1c2.4,0.4,3.6-0.5,4.5-2.6c1.3-2.9,3-5.5,4.6-8.3c0.8-1.4,2.2-1.7,3.5-1
		c1.3,0.7,0.9,2.1,0.6,3.1c-0.6,1.7-1.4,3.4-2.2,5c-4.4,9.1-8.5,18.4-11,28.2c-2.2,8.4-3.7,16.9-3.3,25.6c0.4,7.6,4.7,10.7,12,8.8
		c1.6-0.4,3.1-1.1,4.7-1.6c2.9-0.8,5.6-4.4,8.6-1.5c3.2,3,0.1,6.3-1,9.2c-3.5,9.3-3.2,18.6-1.6,29.2
		C327.3,623.4,329.8,620.3,332.3,617.3z M352.3,700c-0.1,0-0.2,0-0.4,0c0-5.2-0.4-10.4,0.1-15.5c0.5-5.7-2.2-7.8-7.4-8.1
		c-1-0.1-2-0.2-3-0.3c-24-3.6-48.3-5.1-72.5-7.6c-3-0.3-4.1,0.5-4.4,3.6c-1.1,10.9,0.7,21.6,1.5,32.3c1.1,14.4,2.1,28.9,4.3,43.2
		c0.5,3.2,1.6,3.8,4.4,3.5c5.5-0.5,10.9-0.8,16.4-1.3c19.2-1.7,37.6-6.8,55.4-13.9c2.7-1.1,4.1-2.7,4.2-5.9
		C351.2,720,351.8,710,352.3,700z M291.9,824.4c-4.4,3.8-8.5,7.1-12.4,10.8c-11.7,11.1-11.6,13.1,0.6,23.5c5.8,5,6.2,6.7,3,13.7
		c-1.2,2.6-2.7,5.2-0.7,8c2.9,4,6.8,6.8,11.6,9.8C290.3,867.9,296.9,846.3,291.9,824.4z M323.5,815.8c-2.7,5.5-3.2,11.4-2.3,17.2
		c1.4,8.7,3.7,17.3,11.8,22.6c1.9,1.2,3.9,2.9,5.9-0.2c1.7-2.7,0.6-4.1-1.8-5.5c-6.4-3.8-9.7-9.8-11.1-16.9
		C324.9,827.3,324.1,821.6,323.5,815.8z M336.4,769.1c1.2,0,2.5-1.4,2.6-3.7c0.1-2.1-0.9-3.5-3.2-3.5c-2.5,0-3.5,1.5-3.7,3.8
		C331.8,767.9,332.9,769.1,336.4,769.1z"/>
	<path class="st1" d="M360.4,688.8c-0.4-3-0.8-5.9-1.1-8.9c-0.6-5.9-2.8-8.7-8.7-9.9c-11.9-2.4-24-4.1-36.1-5.1
		c-3.7-0.3-4.2-1.3-2.9-4.5c5.8-14.4,15.6-26,26.4-36.6c27.5-27.2,61.1-43.4,98.3-52.6c9.5-2.3,19-5,28.9-4.9c4.7,0,7.5-3,10.1-6.5
		c31.8-42.8,60.4-87.6,87-133.9c38.6-67.4,83.3-131,130.1-192.9c12.4-16.3,26.8-31,42.6-44.2c5-4.2,10.3-8,16.1-10.9
		c8.2-4.1,14.7-3.3,21.5,2.9c4.9,4.5,7.9,10.3,10.4,16.3c6.3,15.3,8.7,31.4,9.6,47.8c2.4,45.8,1.3,91.6-3,137.3
		c-5.8,61.3-19.6,120.7-39.6,178.9c-16.9,49.4-42.8,93.3-73.6,134.8c-4.5,6-8.6,12.3-13.8,17.7c-1.1,1.1-1.8,2.3-1.6,4
		c0.3,3.1,0.2,6.3,0.9,9.4c1,4.7,1,8-5.3,6.9c-1.4-0.2-2.5,0.7-2.7,2.3c-0.3,2.7,2.1,3.1,3.5,4.3c-12.6,1.8-23.5,7.5-33.3,15.1
		c-31,24.2-55.6,53.4-69.4,90.8c-0.6-0.5-1.2-1.1-1.8-1.6c0.1-0.8,0.2-1.6,0.4-2.5c3.3-13.3,4.5-26.9,4.4-40.5
		c-0.1-9.8-1-19.6-2.7-29.2c12.6,4.2,27.6-9.3,31-20.9c0.5-1.5,0.6-3.5-1.3-4.4c-2.1-1.1-3.4,0.4-4.5,2c-4.2,6.2-10.5,9.5-17,12.6
		c-3.3,1.6-5,0.9-6.2-2.6c-3.7-10.5-8-20.8-14.4-30.1c1.1-1.4,2.7-1,4.1-1.1c6.2-0.3,8.4-2.3,9.5-8.5c0.8-4.5-0.4-8.9-0.4-13.3
		c0.3-18.4-0.4-36.8-2-55.1c-0.6-7.7-3.7-13.3-11.6-15.3c-0.5-2.1-0.9-4.2-1.4-6.3c-1.4-5.5-3.3-6.5-8.7-4.3
		c-5.7,2.3-11.4,4.6-17.1,6.9c-27.9,11.1-55.5,23.3-84,32.8c-4,1.3-5.1,4.3-5.4,8c-1.4,20.2-0.1,40.2,1.9,60.3
		c0.4,4.3,2.1,5.5,6,5.2c5.4-0.4,10.7-0.8,16.6-1.2c-0.6,1.1-0.9,1.7-1.2,2.2c-15.8,25.8-19.8,53.8-15.4,83.4
		c1.7,11.4,5.7,22.1,9.7,32.9c-2.9,0.9-5.1-1.1-7.3-2.3c-13.4-7-27.4-12-42.6-13.3c-1.7-2.9-4.7-3-7.4-3.1c-5-0.3-10-0.4-14.9,0.1
		c-3.4,0.3-4.3-0.1-4.3-3.8c0.5-24.2-2.9-47.6-13.8-69.5c-2.3-4.6-4.8-9.1-7.2-13.6c1.6-1.8,4-1.3,6-1.8c9.7-2.5,11.1-4.1,11.2-14
		c0.1-13.3,0.1-26.6,0-39.9C363.1,692.2,363.6,689.6,360.4,688.8z M638,643.6c2.6,7.3,5.1,14.6,7.8,21.9c3,8.2,4,17,8,24.9
		c-0.2,0.4-0.4,0.9-0.7,1.3c-1.3,1.5-3.4,2.9-1,4.9c1.8,1.5,3.4,0,4.7-1.4c4.3-4.4,8.7-8.8,12.1-13.9
		c28.6-42.5,54.1-86.6,73.3-134.1c15.9-39.1,24.4-80.1,31.3-121.5c7.4-44.2,13-88.6,9.8-133.7c-1.2-16.5-2.9-32.9-9.3-48.3
		c-6.3-15.1-18.8-18.5-32.2-8.9c-19.7,14-34.7,32.4-47.9,52.4c-1.8,2.7-1.7,4.9,2,6.1c7.1,2.3,12.2,7.3,17.1,12.6
		c5.5,5.9,6.9,12.9,5.4,20.8c-2.4,12.7-9.9,21.9-19.1,30.2c-4.8,4.3-9.5,8.8-14.2,13.3c-1,0.9-1.9,2.2-0.6,3.5
		c1.1,1.1,2.5,0.8,3.6-0.2c1.6-1.2,3.1-2.5,4.6-3.8c6.7-5.5,9.5-4.6,12.5,3.9c0.6,1.8,0.7,3.6,0.8,5.4c0.6,10.8-3.7,20.2-9.3,29
		c-17.7,27.4-42,46.9-72.7,58.1c-2,0.7-4.8,1.1-4,4c1,3.4,3.6,1.7,5.8,1.1c8.2-2.2,15.9-5.9,23.3-9.9c0.9-0.5,1.6-2.1,3.2-0.3
		c10.6,11.4,12.6,24.4,7.3,38.8c-6.4,17.3-18.2,30.5-32.5,41.5c-19.4,14.9-40.9,24.6-65.9,24.8c-4.9,0-9.6-0.9-14.3-1.9
		c-1.6-0.4-4.1-1.1-4.7,1.3c-0.5,2.3,1.9,2.9,3.5,3.5c3.8,1.2,7.7,2.6,11.7,2.2c9.2-0.9,16.7,3.1,23.5,8.2
		c22,16.6,40.3,36.7,53.7,61C635.5,641.8,636,643.3,638,643.6z"/>
	<path class="st15" d="M332.3,617.3c-2.5,3-5,6.1-8.1,10c-1.7-10.5-2-19.9,1.6-29.2c1.1-2.9,4.2-6.2,1-9.2c-3-2.9-5.8,0.7-8.6,1.5
		c-1.6,0.4-3.1,1.2-4.7,1.6c-7.4,1.9-11.7-1.2-12-8.8c-0.4-8.7,1.1-17.2,3.3-25.6c2.6-9.9,6.6-19.1,11-28.2c0.8-1.6,1.6-3.3,2.2-5
		c0.4-1.1,0.7-2.5-0.6-3.1c-1.3-0.7-2.7-0.4-3.5,1c-1.6,2.7-3.3,5.4-4.6,8.3c-1,2.1-2.1,3-4.5,2.6c-1.9-0.3-4-0.1-6-0.1
		c-11.7,0-18.5-6.2-19.5-18c-0.9-10.9,1.6-21.2,5.5-31.2c7.7-20.1,16.6-39.7,30.3-56.5c5.4-6.7,4.4-14.2,4.8-21.4
		c1.9-38.6,5-77.1,4.2-115.8c-0.2-9.8-1.1-19.6-4.1-29c-3.8-11.8-12.2-15.8-23.8-11.2c-12.8,5.1-22,14.8-30.3,25.3
		c-18.5,23.6-30.7,50.5-39.7,78.9c-8.2,25.6-12.8,51.8-14.3,78.7c-1.1,18.8-2,37.6-0.8,56.4c1.3,21.2,3.8,42.3,6.8,63.4
		c6.1,43.7,18.1,85.9,30.2,128.2c1.5,5.4,3.3,11,6.2,15.7c7.1,11.2,5.9,23.8,7.7,36.1c-2.2-0.2-2.4-2-3.2-3.1
		c-31.6-44.4-48-94.9-57.4-147.8c-8.5-47.8-8.9-96.2-6.1-144.5c2.1-37.1,7.5-74,18.9-109.5c13.7-42.8,37.4-79.3,72.2-108.2
		c8.6-7.2,17.8-13.5,28.2-17.8c16.4-6.9,27.7-2.1,34.6,14.1c6.3,14.8,7.9,30.5,9.9,46.2c5.1,41.3,7.2,83,14,124.1
		c8.4,51.2,19.2,101.7,40.9,149.3c2.2,4.8,4.5,9.7,6.7,14.5c-13.2,5.1-25.4,12.1-37.1,20c-17.6,11.9-34.5,24.8-48.6,40.8
		C333.2,612.5,331.4,614.4,332.3,617.3z"/>
	<path class="st2" d="M393.4,840.1c15.2,1.4,29.2,6.3,42.6,13.3c2.2,1.2,4.4,3.2,7.3,2.3c0,0-0.1,0.1-0.1,0.1
		c-0.3,0.8,0.2,1.1,0.8,1.3c3.3,5,6.2,10.3,9.8,14.9c10.9,13.7,24.3,22.9,42.6,23.3c19.8,0.4,34.1-9.6,45.6-24.4
		c5.7-7.3,11.2-14.9,12.5-24.5c13.7-37.4,38.4-66.6,69.4-90.8c9.7-7.6,20.7-13.3,33.3-15.1c11.7,4.7,23.8,5.2,36.2,4.2
		c7.2-0.6,14.5-1.8,21.7,0.1c-3.7,8.6-8.6,16.3-14.6,23.5c-3,3.6-7.3,5.7-9.7,9.9c-2.1,0.1-4.9-1.7-6,1.5c-1,2.8,1.3,4.1,3.2,5.5
		c7.7,5.7,16.6,9.3,25.1,13.5c-0.6,1.5-1.2,3.1-1.9,4.6c-9.3,20.6-22.7,38.3-37.9,54.7c-2.4,2.6-5.8,4.6-6.7,8.4
		c-13.6,12.1-29.1,21.6-44.6,30.9c-27.1,16.3-53.8,33.1-84.6,42.1c-33.4,9.7-67.3,16.1-102.1,17.2c-25.1,0.8-49.9-2.5-73.7-10.8
		c-16.6-5.8-30.5-16.1-42.9-28.5c-15.1-15.1-19.4-34-18.4-54.5c0.2-4.6,0.9-9.2,1.4-13.8c1.1,0.7,2.2,1.4,3.3,2.1
		c3.6,13.3,17,23.2,30.5,22c2.3-0.2,3.1,0.2,3.6,2.5c1.6,7,4.5,13.5,9,19.2c1,1.2,2,3.1,4,1.7c1.6-1.2,0.3-2.7-0.2-4
		c-1.8-5.1-3.6-10.3-5.4-15.5c0.6,0.1,1.4,0,1.9,0.3c8,3.9,15.1,1.3,21.2-3.9c6.6-5.8,10.8-13.1,8.9-22.5c-0.4-1.9-0.3-5.1-3.9-4.7
		c-0.8-0.7-1.8-1.3-1.9-2.9c4.9-0.4,9.6-1.7,14.6-0.6C389.9,843.3,392.7,843.6,393.4,840.1z M423,941.5c8.4,1.9,16.7,4.4,25.3,5.2
		c8.6,0.8,16.3-4,17.5-12.6c1.8-13.3-0.4-26.2-6.5-38.2c-3.3-6.5-7.8-8.1-15-6.6c-11.5,2.4-22.9,5.3-34,9.2
		c-10.8,3.8-21.6,4.7-32.6,1.4c-3.7-1.1-7.5-1.2-11.3-1.1c-6.6,0.3-9.5,3.1-9.4,9.5c0.1,5.7-0.6,11.3-1.3,16.9
		c-1.1,7.9,2,12.8,9.7,14.6c5.6,1.3,11.2,1.5,16.7-0.3c0.4,0.3,0.7,0.9,1.1,0.9c12.1,0.1,24,1.3,35.7,4.2
		C421.1,945.5,423.1,944.5,423,941.5z"/>
	<path class="st2" d="M291.1,452.1c-0.4,0.6-0.7,1.3-1.1,1.9c-0.5,0.3-1.3,0.4-1.6,0.9c-10.8,19.3-19.8,39.3-21,61.7
		c-1,18.9,11.8,30.8,26.6,29.5c5.6-0.5,5.6-0.2,3.8,5.2c-3.9,11.6-8.4,23.1-9.4,35.5c-1,12,4.4,24,18.5,22.3
		c3.4-0.4,3.3,1.5,3.2,3.9c-0.2,8.7,0.2,17.2,4.8,25c-4,7.9-9.8,15.1-11.2,24.3c-0.4,2.3-2.3,1.5-3.6,1.4
		c-9.3-0.7-18.6-1.5-27.8-2.4c-10.6-1.1-14.1,1.9-14.3,12.5c0,2.8,0,5.7,0,8.5c0,2.8,0,5.6,0,9.6c-4.4-8.6-6.7-16.8-8.9-25
		c-8.7-32.5-17.9-64.9-23.6-98.1c-3.2-18.8-5.4-37.8-7.3-56.8c-2.1-20.4-2.7-40.8-2-61.3c2.1-59.4,15.8-115.3,49.5-165.2
		c6.7-10,14.7-18.9,24.5-26c3.2-2.3,6.4-4.7,10.6-5.1c2.2,3.9,4.5,7.7,6.2,11.8c5.3,12.8,6.2,26.4,6.8,40
		c0.6,13.6,0.3,27.2,0.4,40.8c0,3.1,0,6.3,1.7,9.1c-1,20.2-2.1,40.4-3.1,60.6c-0.1,2.3-1.1,4.1-2.5,5.8
		c-6.8,8.2-12.4,17.2-17.6,26.5C291.2,449.4,290.8,450.5,291.1,452.1z"/>
	<path class="st4" d="M352.3,700c-0.4,10-1,19.9-1.3,29.9c-0.1,3.2-1.5,4.9-4.2,5.9c-17.8,7.1-36.2,12.2-55.4,13.9
		c-5.5,0.5-11,0.8-16.4,1.3c-2.8,0.3-3.9-0.3-4.4-3.5c-2.2-14.3-3.2-28.8-4.3-43.2c-0.8-10.8-2.6-21.5-1.5-32.3
		c0.3-3.1,1.4-3.9,4.4-3.6c24.2,2.5,48.4,4,72.5,7.6c1,0.1,2,0.3,3,0.3c5.1,0.3,7.9,2.4,7.4,8.1c-0.5,5.1-0.1,10.3-0.1,15.5
		C352,700,352.2,700,352.3,700z"/>
	<path class="st30" d="M305.1,851c-1.1-0.7-2.2-1.4-3.3-2.1c-0.7-12.3-1.1-24.5-3.7-36.6c-0.8-3.6-1.4-7.2-2.1-10.8
		c-0.9-4.8-3-9.5,1.6-14.2c2-2,1.9-6.3,2.2-9.5c0.6-6.9,3.1-13.1,5.9-19.4c2-4.5,5-5.7,9.7-5.2c-5.9,12.7-5.1,25.6-3.2,38.7
		c1.2,8.3,5,13.3,13.6,14.1c-0.2,0.5-0.2,0.8-0.3,0.9c-14,8.1-11.5,20.9-9,33.3c1.6,7.9,5.3,15.1,12.5,19.6c1.7,1.1,3.4,2.1,5.5,2.3
		c1.5,0.1,2.6,0.4,2.5,2.3c-0.2,2.4-1.8,1.3-3,1.3c-9.7-0.3-17-4.9-22.8-12.4C309.8,851.2,308.4,848.3,305.1,851z"/>
	<path class="st67" d="M315,638c-4.6-7.7-5.1-16.3-4.8-25c0.1-2.4,0.1-4.3-3.2-3.9c-14.1,1.7-19.4-10.3-18.5-22.3
		c1-12.4,5.5-23.9,9.4-35.5c1.8-5.4,1.7-5.6-3.8-5.2c-14.9,1.3-27.7-10.7-26.6-29.5c1.2-22.4,10.3-42.4,21-61.7
		c0.3-0.5,1.1-0.6,1.6-0.9c-1.1,5.4-4.2,10-6.3,15c-6.4,14.9-11.6,30-10.9,46.6c0.7,15.7,11.7,25.5,27.3,23.7c1.5-0.2,2.9-0.2,5-0.3
		c-4,10.1-7.4,19.9-8.6,30.3c-0.6,5.4-1.9,10.8-0.9,16.3c1.9,10.9,8.1,15.1,18.8,12.6c1.4-0.3,2.8-0.7,4.8-1.2
		c-0.5,3.6-0.9,6.8-1.5,10c-1.3,6.5-0.8,13.1,1,19.2C320.2,631.6,318.9,634.9,315,638z"/>
	<path class="st31" d="M332.3,617.3c-0.9-2.9,0.9-4.8,2.5-6.6c14.2-16,31-28.9,48.6-40.8c11.7-7.9,23.9-14.9,37.1-20
		c2,2.9,4,5.8,6,8.5c1.9,2.5,1.7,3.7-1.7,4.8c-18.5,5.7-36,13.8-52.7,23.7c-13.5,8.1-26.2,17.2-37.2,28.4
		C334.3,616,333.2,616.6,332.3,617.3z"/>
	<path class="st15" d="M291.9,824.4c5,22-1.6,43.5,2.2,65.8c-4.8-3-8.8-5.8-11.6-9.8c-2-2.8-0.5-5.4,0.7-8c3.3-7,2.9-8.8-3-13.7
		c-12.2-10.4-12.3-12.4-0.6-23.5C283.4,831.5,287.5,828.2,291.9,824.4z"/>
	<path class="st67" d="M666.7,866.5c1-3.8,4.3-5.8,6.7-8.4c15.2-16.5,28.6-34.2,37.9-54.7c0.7-1.5,1.3-3.1,1.9-4.6
		c8.4,3.6,10,7.6,6.1,15.5c-1.9,3.9-4,7.7-7,10.9c-13.4,14.6-27.5,28.5-43.5,40.3C668.3,865.9,667.4,866.2,666.7,866.5z"/>
	<path class="st67" d="M316,356c-1.7-2.8-1.7-6-1.7-9.1c-0.2-13.6,0.2-27.3-0.4-40.8c-0.6-13.6-1.5-27.2-6.8-40
		c-1.7-4.1-4-7.9-6.2-11.8c5.6-2,9.7-0.5,12.2,4.9c3.5,7.4,4.3,15.4,4.6,23.3c0.9,23.6-0.2,47.2-0.9,70.8
		C316.9,354.3,316.8,355.3,316,356z"/>
	<path class="st67" d="M691,778.2c2.3-4.2,6.7-6.3,9.7-9.9c5.9-7.2,10.9-15,14.6-23.5c4.7,0.9,6.4,4.3,5.7,8.5
		c-2.1,12.3-9.5,21.1-20.1,27.1C697.3,782.3,694.2,779.3,691,778.2z"/>
	<path class="st31" d="M360.4,688.8c3.2,0.8,2.7,3.4,2.7,5.7c0,13.3,0.1,26.6,0,39.9c-0.1,9.9-1.5,11.4-11.2,14c-2,0.5-4.4,0-6,1.8
		c-3.3-5.1-3.4-5.4,2.3-7.2c8.1-2.5,9.5-8.6,9.9-15.8C358.7,714.3,359.6,701.6,360.4,688.8z"/>
	<path class="st34" d="M329,750c-4.5,11.2-5.9,23-6.7,34.9c-0.2,3.4,0.5,6.9,0.6,10.4c0,1.3,1.2,3.3-1.2,3.7
		c-2.1,0.3-2.8-1.5-3.2-3.1c-0.8-3.9-1.6-7.8-2.1-11.7c-1.3-10-0.4-19.8,4-29.1C322.3,751.1,324.9,749.3,329,750L329,750z"/>
	<path class="st67" d="M374.8,846.2c3.6-0.4,3.5,2.8,3.9,4.7c1.9,9.3-2.3,16.7-8.9,22.5c-6,5.2-13.1,7.8-21.2,3.9
		c-0.6-0.3-1.3-0.2-1.9-0.3c-1.5-4-2.4-8-2.8-12.8c10.4,13.3,17.6,13,27.4-0.4C375.2,858.5,377.5,852.9,374.8,846.2z"/>
	<path class="st34" d="M323.5,815.8c0.6,5.8,1.4,11.5,2.5,17.2c1.4,7.1,4.7,13.1,11.1,16.9c2.3,1.4,3.5,2.8,1.8,5.5
		c-2,3.1-4,1.4-5.9,0.2c-8.1-5.3-10.4-13.9-11.8-22.6C320.3,827.2,320.8,821.3,323.5,815.8z"/>
	<path class="st19" d="M369,854c-1.3,5.6-5.4,9.3-9.6,12.7c-2.4,1.9-4.8,1.6-7-0.7c-2.4-2.6-4.2-5.3-3.6-9c3,1.4,6,1.2,9.2,0.2
		C361.7,856,365.1,854.2,369,854z"/>
	<path class="st34" d="M369,854c-3.9,0.2-7.3,2-11,3.2c-3.2,1-6.2,1.2-9.2-0.2c2.9-7.2,9-11.2,15.7-9.8C368,847.9,371,849.4,369,854
		z"/>
	<path class="st31" d="M286.8,762.7c-2.8-6.4-2.8-6.4,4.1-6.6c2.1-0.1,4.2,0,6.6,0c-0.6,2.5-2.3,4.1-3.6,5.9
		C291.6,762.3,289.2,762.5,286.8,762.7z"/>
	<path class="st15" d="M286.8,762.7c2.4-0.2,4.8-0.5,7.2-0.7c-1.5,3.6-3,7.1-4.7,11C288.5,769.4,287.7,766.1,286.8,762.7z"/>
	<path class="st2" d="M336.4,769.1c-3.5,0-4.5-1.2-4.3-3.5c0.2-2.2,1.2-3.8,3.7-3.8c2.3,0,3.3,1.5,3.2,3.5
		C338.8,767.7,337.6,769.1,336.4,769.1z"/>
	<path class="st67" d="M291.1,452.1c-0.3-1.5,0.1-2.7,1.7-3.2C293,450.4,292.5,451.5,291.1,452.1z"/>
	<path class="st34" d="M329.1,750.1c0.1-0.2,0.2-0.4,0.3-0.5c0,0.1,0,0.2,0,0.3C329.3,749.9,329.1,749.9,329.1,750.1
		C329,750,329.1,750.1,329.1,750.1z"/>
	<path class="st2" d="M653.7,690.3c-4-7.9-5-16.7-8-24.9c-2.7-7.3-5.2-14.6-7.8-21.9c3.2-3.3,0.5-6.3-0.8-9
		c-8.7-17.9-19.4-34.3-34.4-47.7c-1.7-1.5-3.2-3.2-4.9-4.9c2.3-0.3,3.8-2,5.6-3c17.7-9.9,30-25.6,42.7-40.6
		c3.9-4.6,7.3-10.2,8.6-16.5c3.6-5.8,7.1-11.6,9.6-18c5.1-13,7-26-0.8-38.8c0.4-0.7,0.7-1.6,1.3-2c15.6-9.6,25.8-24.1,35.6-38.8
		c5.3-7.9,7.6-16.9,8.6-26.3c0.5-2.1,0.9-4.2,1.4-6.3c2.3-9.3,2.6-18.4-3.2-26.7c8-6.8,12.7-15.4,15-25.5c0.2-0.7-0.3-1.2-1-1.5
		c2.3-7.3,4.6-14.7,3.1-22.5c-2-10.5-9.6-16.7-17.4-22.9c-2.4-1.9-7.1-1.9-7.1-4.8c0-2.6,3-5.3,4.8-7.9
		c11.2-16.4,24.5-30.7,40.9-41.9c9.1-6.2,17.2-3.9,21.9,6.1c2,4.2,3.2,8.7,4.2,13.3c7,32.4,6.2,65.3,3.4,97.9
		c-2.9,34.4-8.9,68.6-15.4,102.6c-10.6,55.6-29.7,107.8-58.1,156.8C687,640.6,670.8,665.8,653.7,690.3z"/>
	<path class="st11" d="M554.7,846.4c-1.4,9.6-6.8,17.2-12.5,24.5c-11.5,14.7-25.9,24.7-45.6,24.4c-18.3-0.4-31.7-9.6-42.6-23.3
		c-3.7-4.7-6.6-9.9-9.8-14.9c0-0.6-0.1-1.2-0.8-1.3c0,0,0.1-0.1,0.1-0.1c-4-10.7-8-21.4-9.7-32.9c-4.4-29.6-0.4-57.6,15.4-83.4
		c0.3-0.5,0.6-1.1,1.2-2.2c-5.9,0.4-11.2,0.7-16.6,1.2c-3.8,0.3-5.5-0.9-6-5.2c-1.9-20.1-3.3-40.1-1.9-60.3c0.3-3.8,1.4-6.7,5.4-8
		c28.5-9.6,56.1-21.7,84-32.8c5.7-2.3,11.4-4.6,17.1-6.9c5.4-2.1,7.2-1.2,8.7,4.3c0.5,2.1,1,4.2,1.4,6.3c0.3,3.8,0.5,7.6,0.8,11.4
		c0.5,8.3,1.3,16.5,1.4,24.8c0.2,15.1,3.5,29.9,3.7,45c0,3.6-0.9,6.3-4.6,7.1c-4.7,1-3.8,2.9-0.9,5.1c6.4,9.3,10.7,19.5,14.4,30.1
		c1.2,3.5,2.9,4.2,6.2,2.6c6.5-3.1,12.8-6.4,17-12.6c1.1-1.6,2.3-3.1,4.5-2c1.8,0.9,1.7,2.9,1.3,4.4c-3.5,11.5-18.4,25.1-31,20.9
		c-3.8-3.7-4-9-5.9-13.6c-4.1-10.2-7.7-20.6-14.8-29.2c-1-1.2-1.8-3.1-3.9-2.7c-9,2.1-18.3,1.6-27.4,2.9c0.1,0.7,0,0.9,0.1,1
		c1,1.1,2.1,2.2,3,3.3c12.5,14.6,19.1,31.3,19,50.6c0,3.7-1.4,5.9-4.9,7.1c-5.3,1.9-10.5,3.9-16.3,6.1c2.5,1.9,4.3,3.9,6.5,4.8
		c12.4,4.8,13.3,14,11.6,25.7c-3.1,22.3-20.5,40.3-42.9,42.7c-5.9,0.6-11.5-0.7-17.7-1.5c15.2,20.2,41.9,24.3,62,9.9
		c10.7-7.7,18-18.1,23.5-29.9c1.2-2.5,2-5.5,5.8-5.2C553.5,845.3,554.1,845.8,554.7,846.4z M503.8,752.8c2.7,10.8,4.8,21.7,5.2,32.8
		c0,1,0,2,1.4,2.2c4.1,0.7,8.8-3.4,8.2-7.6c-2.5-18.1-9.4-34.2-22.4-47.4c-1.5-1.5-3-2.6-5.5-0.8c3.3,3.6,7.4,6.5,8.3,11.5
		c-3.7-0.2-7.2-0.2-7.3,4.9c-0.1,2.7,0.5,5,3,6.3C498.4,756.8,501.2,755,503.8,752.8z M432,694.6c-0.3,10.5,0.8,21,1,31.4
		c0.1,4.4,1.5,5.2,5.5,4.7c19.3-2.2,38.7-3.7,58-6.8c11.2-1.8,22.6-1,33.7-3.4c13.4-2.9,13.2-2.7,11.2-16.3
		c-1.9-13-3.2-26.1-3.7-39.2c-0.4-9.8-0.4-19.6-2-29.4c-0.4-2.9-1-5.1-4.9-3.2c-4.2,2-8.6,3.5-12.9,5.3
		c-27.6,11.1-54.9,22.9-83.1,32.4c-2.5,0.8-2.9,2.4-2.9,4.5C432,681.2,432,687.9,432,694.6z M508.3,810.3
		c-2.1,14.6-5.5,28.5-17.3,38.5c-12.7,10.8-26.4,10.7-40.7,3.2c-0.4,2.2,0.5,3.5,1.5,4.4c6.5,6.4,14.5,10.1,23.4,9
		c23-2.6,37.9-18.2,40.6-41.1C516.9,815.2,516.3,814.1,508.3,810.3z M475.5,843.2c4-0.1,6.6-2.7,6.4-6c-0.2-3.5-2-5.4-5.7-5.4
		c-3.7,0.1-6.5,2.7-6.2,6.2C470.4,841.5,472.7,843.1,475.5,843.2z M486.2,827.7c0.8-0.3,1.6-0.9,1.6-2c0.1-1.3-0.5-2.3-1.9-2.3
		c-1.1,0-1.8,0.8-1.9,1.9C484,826.6,484.6,827.5,486.2,827.7z"/>
	<path class="st44" d="M707.5,365.1c5.8,8.3,5.5,17.4,3.2,26.7c-0.5,2.1-1,4.2-1.4,6.3c-0.4,0.3-0.9,0.5-1.1,0.9
		c-7.2,17.2-18.9,31-32.6,43.3c-6.2,5.6-13,10.4-20.1,15.4c3.8,1.9,5.7,5.1,8.3,7.5c7.8,12.8,5.9,25.8,0.8,38.8
		c-2.5,6.3-6,12.2-9.6,18c-1.5,0.3-2,1.7-2.8,2.6c-17,20.9-38.6,35-64.3,43c-2.3,0.7-4.7,1.3-8.2,2.2c7.5,3.4,12.4,8.4,18.2,12.1
		c1.6,1.6,3.1,3.3,4.9,4.9c15,13.3,25.7,29.8,34.4,47.7c1.3,2.7,4,5.7,0.8,9c-1.9-0.3-2.5-1.8-3.4-3.3c-13.4-24.3-31.7-44.4-53.7-61
		c-6.7-5.1-14.3-9.1-23.5-8.2c-4,0.4-7.9-1-11.7-2.2c-1.6-0.5-4.1-1.1-3.5-3.5c0.6-2.4,3-1.7,4.7-1.3c4.7,1.1,9.4,2,14.3,1.9
		c25-0.2,46.5-9.8,65.9-24.8c14.3-11,26.1-24.3,32.5-41.5c5.3-14.3,3.4-27.3-7.3-38.8c-1.6-1.7-2.4-0.2-3.2,0.3
		c-7.5,4-15.1,7.7-23.3,9.9c-2.1,0.6-4.8,2.3-5.8-1.1c-0.8-3,2-3.3,4-4c30.7-11.2,55-30.7,72.7-58.1c5.6-8.7,9.9-18.1,9.3-29
		c-0.1-1.8-0.2-3.6-0.8-5.4c-3-8.6-5.8-9.5-12.5-3.9c-1.5,1.3-3.1,2.5-4.6,3.8c-1.2,0.9-2.5,1.2-3.6,0.2c-1.2-1.2-0.3-2.5,0.6-3.5
		c4.7-4.5,9.4-9,14.2-13.3c9.2-8.3,16.7-17.5,19.1-30.2c1.5-7.9,0.1-14.9-5.4-20.8c-4.9-5.2-10-10.3-17.1-12.6
		c-3.6-1.2-3.8-3.4-2-6.1c13.2-20,28.2-38.4,47.9-52.4c13.4-9.5,25.9-6.2,32.2,8.9c6.4,15.4,8.1,31.8,9.3,48.3
		c3.2,45-2.4,89.4-9.8,133.7c-6.9,41.4-15.5,82.3-31.3,121.5c-19.3,47.6-44.8,91.7-73.3,134.1c-3.5,5.1-7.9,9.5-12.1,13.9
		c-1.3,1.4-2.9,2.9-4.7,1.4c-2.4-2-0.2-3.4,1-4.9c0.3-0.4,0.5-0.9,0.7-1.3c17.2-24.6,33.3-49.8,48.3-75.7
		c28.3-49,47.5-101.2,58.1-156.8c6.5-34,12.4-68.1,15.4-102.6c2.8-32.6,3.6-65.5-3.4-97.9c-1-4.5-2.2-9-4.2-13.3
		c-4.7-10-12.8-12.3-21.9-6.1c-16.4,11.3-29.7,25.6-40.9,41.9c-1.8,2.6-4.8,5.3-4.8,7.9c0,3,4.7,3,7.1,4.8
		c7.8,6.2,15.4,12.4,17.4,22.9c1.5,7.8-0.8,15.2-3.1,22.5c-3.8,7.3-8.1,14.2-14.6,19.2C702.4,360.7,703.2,362.8,707.5,365.1z"/>
	<path class="st6" d="M552.9,844.8c-3.7-0.3-4.6,2.6-5.8,5.2c-5.5,11.8-12.8,22.2-23.5,29.9c-20.1,14.4-46.7,10.3-62-9.9
		c6.2,0.7,11.8,2.1,17.7,1.5c22.4-2.4,39.9-20.4,42.9-42.7c1.6-11.7,0.8-20.8-11.6-25.7c-2.2-0.9-4-2.9-6.5-4.8
		c5.8-2.2,11-4.3,16.3-6.1c3.4-1.2,4.9-3.4,4.9-7.1c0.1-19.3-6.5-36.1-19-50.6c-1-1.1-2-2.2-3-3.3c-0.1-0.1,0-0.3-0.1-1
		c9.1-1.3,18.4-0.8,27.4-2.9c2-0.5,2.8,1.5,3.9,2.7c7.1,8.6,10.7,19,14.8,29.2c1.9,4.6,2.1,9.8,5.9,13.6c1.7,9.7,2.6,19.5,2.7,29.2
		c0.1,13.6-1.1,27.2-4.4,40.5C553.1,843.1,553,843.9,552.9,844.8z"/>
	<path class="st31" d="M542.7,729.2c-2.9-2.3-3.9-4.1,0.9-5.1c3.8-0.8,4.7-3.5,4.6-7.1c-0.1-15.1-3.4-29.9-3.7-45
		c-0.1-8.3-0.9-16.5-1.4-24.8c-0.2-3.8-0.5-7.6-0.8-11.4c7.9,2,11,7.6,11.6,15.3c1.5,18.3,2.3,36.7,2,55.1
		c-0.1,4.5,1.1,8.9,0.4,13.3c-1.1,6.2-3.3,8.2-9.5,8.5C545.4,728.2,543.8,727.7,542.7,729.2z"/>
	<path class="st44" d="M382,939.7c-5.5,1.8-11.1,1.5-16.7,0.3c-7.7-1.7-10.8-6.7-9.7-14.6c0.8-5.6,1.4-11.2,1.3-16.9
		c-0.1-6.5,2.9-9.3,9.4-9.5c3.8-0.2,7.7-0.1,11.3,1.1c11.1,3.4,21.8,2.5,32.6-1.4c11.1-3.9,22.5-6.8,34-9.2c7.2-1.5,11.8,0.1,15,6.6
		c6,12,8.3,24.9,6.5,38.2c-1.2,8.6-8.9,13.4-17.5,12.6c-8.7-0.9-16.9-3.3-25.3-5.2c-5.7-1.8-11.3-3.6-17-5.3
		C397.5,933.8,389.4,934.2,382,939.7z M461.1,924.9c-0.8-7.5-1.5-15.8-4.6-23.6c-2.9-7.3-5.5-8.5-13.1-6.8
		c-12.1,2.8-24,6.1-35.9,9.9c-6.2,2-12.4,2.7-19.1,2c-6.3-0.7-12.2-3.2-18.5-3.4c-6.1-0.2-7.3,1-7.8,6.9c-0.4,4.3-0.8,8.6-1.5,12.9
		c-1.7,9.4,0.6,12.3,10.3,13.1c3.9,0.3,7.7-0.1,11-2.2c6.9-4.4,14.5-4.6,22.2-3.6c4.4,0.6,8.7,2.2,13,3.3c9.8,2.5,19.5,5.4,29.5,7.1
		c8.5,1.4,12.9-1.8,14.2-10.3C461,928.7,461,927.2,461.1,924.9z"/>
	<path class="st67" d="M382,939.7c7.4-5.5,15.5-6,24-3.5c5.7,1.7,11.3,3.5,17,5.3c0.1,3-1.8,4-4.2,3.4c-11.7-2.9-23.6-4.1-35.7-4.2
		C382.7,940.6,382.4,940.1,382,939.7z"/>
	<path class="st1" d="M443.3,855.8c0.8,0.1,0.8,0.7,0.8,1.3C443.5,856.8,443,856.6,443.3,855.8z"/>
	<path class="st67" d="M597.9,582c-5.9-3.7-10.8-8.8-18.2-12.1c3.4-0.9,5.8-1.5,8.2-2.2c25.7-8,47.2-22.1,64.3-43
		c0.8-1,1.3-2.3,2.8-2.6c-1.3,6.3-4.8,11.9-8.6,16.5c-12.7,15-25.1,30.7-42.7,40.6C601.7,580.1,600.2,581.8,597.9,582z"/>
	<path class="st67" d="M663.8,465.2c-2.6-2.5-4.5-5.7-8.3-7.5c7.1-4.9,13.9-9.8,20.1-15.4c13.7-12.3,25.5-26.1,32.6-43.3
		c0.2-0.4,0.7-0.6,1.1-0.9c-1,9.4-3.4,18.4-8.6,26.3c-9.8,14.8-20.1,29.3-35.6,38.8C664.4,463.6,664.2,464.5,663.8,465.2z"/>
	<path class="st67" d="M707.5,365.1c-4.3-2.3-5.1-4.3-0.6-7.8c6.5-5,10.9-12,14.6-19.2c0.7,0.3,1.1,0.8,1,1.5
		C720.2,349.7,715.5,358.3,707.5,365.1z"/>
	<path class="st4" d="M432,694.6c0-6.7,0-13.3,0-20c0-2.1,0.4-3.7,2.9-4.5c28.2-9.5,55.5-21.3,83.1-32.4c4.3-1.7,8.7-3.3,12.9-5.3
		c3.9-1.9,4.4,0.3,4.9,3.2c1.5,9.7,1.5,19.6,2,29.4c0.6,13.2,1.8,26.2,3.7,39.2c2,13.6,2.2,13.5-11.2,16.3
		c-11.1,2.4-22.6,1.7-33.7,3.4c-19.2,3-38.6,4.5-58,6.8c-4,0.5-5.3-0.3-5.5-4.7C432.8,715.5,431.8,705.1,432,694.6z"/>
	<path class="st34" d="M508.3,810.3c8,3.8,8.6,4.9,7.5,14.1c-2.6,22.9-17.6,38.5-40.6,41.1c-8.9,1-16.9-2.6-23.4-9
		c-1-1-1.9-2.3-1.5-4.4c14.3,7.5,28,7.6,40.7-3.2C502.8,838.8,506.3,824.9,508.3,810.3z"/>
	<path class="st34" d="M499.2,743.7c-1-5-5-7.9-8.3-11.5c2.5-1.8,3.9-0.8,5.5,0.8c13,13.2,19.9,29.2,22.4,47.4
		c0.6,4.2-4.1,8.3-8.2,7.6c-1.4-0.2-1.4-1.2-1.4-2.2c-0.4-11.2-2.5-22-5.2-32.8C504.4,748.7,505,744.5,499.2,743.7z"/>
	<path class="st30" d="M499.2,743.7c5.9,0.8,5.3,5,4.7,9.1c-2.6,2.2-5.4,4-9,2.1c-2.5-1.3-3.1-3.6-3-6.3
		C492,743.5,495.5,743.4,499.2,743.7z"/>
	<path class="st34" d="M475.5,843.2c-2.9-0.1-5.1-1.6-5.4-5.2c-0.3-3.4,2.5-6.1,6.2-6.2c3.7-0.1,5.5,1.8,5.7,5.4
		C482.1,840.5,479.5,843.1,475.5,843.2z"/>
	<path class="st19" d="M486.2,827.7c-1.6-0.3-2.2-1.1-2.1-2.4c0.1-1.1,0.7-1.9,1.9-1.9c1.4,0,2,1,1.9,2.3
		C487.8,826.8,487.1,827.4,486.2,827.7z"/>
	<path class="st30" d="M461.1,924.9c-0.1,2.3-0.1,3.8-0.3,5.3c-1.3,8.5-5.8,11.7-14.2,10.3c-10-1.7-19.7-4.6-29.5-7.1
		c-4.3-1.1-8.6-2.7-13-3.3c-7.7-1-15.2-0.8-22.2,3.6c-3.3,2.1-7.1,2.5-11,2.2c-9.7-0.8-12-3.7-10.3-13.1c0.8-4.2,1.1-8.6,1.5-12.9
		c0.5-6,1.8-7.1,7.8-6.9c6.3,0.2,12.2,2.7,18.5,3.4c6.7,0.8,12.8,0,19.1-2c11.8-3.8,23.8-7.1,35.9-9.9c7.6-1.7,10.2-0.5,13.1,6.8
		C459.6,909.1,460.3,917.4,461.1,924.9z M453.2,922.8c-1.8-10-2.3-10.4-9.3-6.7c-2.9,1.5-5.6,0.9-8.1-0.2
		c-6.5-2.8-12.9-2.7-19.4-0.2c-1.6,0.6-4.8,0-4,3.1c0.6,2.4,3.1,2.1,5.1,1.5c6.6-2,12.7-0.8,18.8,2c3.5,1.6,7.3,1.8,10.4-0.7
		C449.1,919.6,450.8,919.5,453.2,922.8z M396.1,918.3c-6.7-0.7-13.2-4-19.8,0.5c-1.5,1-3.6,1.4-5.7,0.3c-1.4-0.7-3.4-1.4-4.3,0.7
		c-0.9,2.2,1,3.4,2.7,4c1.7,0.6,3.5,1.6,5.3,0.6c5.9-3.5,12.5-3.5,18.9-4.3C394.1,920.1,395.6,920.3,396.1,918.3z"/>
	<path class="st44" d="M453.2,922.8c-2.5-3.3-4.2-3.2-6.6-1.3c-3.1,2.5-6.9,2.3-10.4,0.7c-6.1-2.8-12.2-4-18.8-2
		c-2,0.6-4.5,0.9-5.1-1.5c-0.8-3.1,2.4-2.5,4-3.1c6.5-2.4,12.9-2.6,19.4,0.2c2.5,1.1,5.2,1.8,8.1,0.2
		C450.9,912.4,451.4,912.8,453.2,922.8z"/>
	<path class="st44" d="M396.1,918.3c-0.5,2-1.9,1.8-2.9,1.9c-6.5,0.7-13.1,0.7-18.9,4.3c-1.7,1-3.6,0-5.3-0.6
		c-1.7-0.6-3.6-1.8-2.7-4c0.9-2.1,2.9-1.4,4.3-0.7c2.1,1.1,4.1,0.7,5.7-0.3C382.9,914.3,389.4,917.7,396.1,918.3z"/>
</g>
</svg>
